<?xml version="1.0" encoding="UTF-8" standalone="no"?>
<svg
   width="61.599751mm"
   height="61.599751mm"
   viewBox="0 0 61.599751 61.599751"
   version="1.1"
   id="svg8"
   inkscape:version="1.1.1 (3bf5ae0d25, 2021-09-20)"
   sodipodi:docname="incoming_contact_requests.svg"
   xmlns:inkscape="http://www.inkscape.org/namespaces/inkscape"
   xmlns:sodipodi="http://sodipodi.sourceforge.net/DTD/sodipodi-0.dtd"
   xmlns="http://www.w3.org/2000/svg"
   xmlns:svg="http://www.w3.org/2000/svg"
   xmlns:rdf="http://www.w3.org/1999/02/22-rdf-syntax-ns#"
   xmlns:cc="http://creativecommons.org/ns#"
   xmlns:dc="http://purl.org/dc/elements/1.1/">
  <defs
     id="defs2" />
  <sodipodi:namedview
     id="base"
     pagecolor="#ffffff"
     bordercolor="#666666"
     borderopacity="1.0"
     inkscape:pageopacity="0.0"
     inkscape:pageshadow="2"
     inkscape:zoom="0.57848045"
     inkscape:cx="27.65867"
     inkscape:cy="-282.63704"
     inkscape:document-units="mm"
     inkscape:current-layer="layer1"
     inkscape:document-rotation="0"
     showgrid="false"
     inkscape:window-width="1920"
     inkscape:window-height="1030"
     inkscape:window-x="0"
     inkscape:window-y="22"
     inkscape:window-maximized="1"
     inkscape:pagecheckerboard="0"
     fit-margin-top="0"
     fit-margin-left="0"
     fit-margin-right="0"
     fit-margin-bottom="0" />
  <metadata
     id="metadata5">
    <rdf:RDF>
      <cc:Work
         rdf:about="">
        <dc:format>image/svg+xml</dc:format>
        <dc:type
           rdf:resource="http://purl.org/dc/dcmitype/StillImage" />
      </cc:Work>
    </rdf:RDF>
  </metadata>
  <g
     inkscape:label="Layer 1"
     inkscape:groupmode="layer"
     id="layer1"
     transform="translate(-57.984901,-233.74867)">
    <rect
       style="fill:#9a68c7;fill-opacity:1;stroke:none;stroke-width:8.30792"
       id="rect835-3-7"
       width="61.599751"
       height="61.599751"
       x="57.984901"
       y="233.74867"
       ry="12.743525" />
    <path
       style="fill:#ffffff;stroke-width:0.0890411"
       d="m 86.828541,287.54031 c -0.225899,-0.11182 -0.436048,-0.30972 -0.556511,-0.52405 -0.188345,-0.33511 -0.193547,-0.42725 -0.193547,-3.42644 v -3.08207 h -7.62945 c -7.447579,0 -7.638219,-0.004 -7.997335,-0.17808 -0.236745,-0.11461 -0.438464,-0.30367 -0.565874,-0.53036 l -0.197986,-0.35227 0.02749,-8.17344 0.02749,-8.17345 0.237025,-0.86421 c 0.935501,-3.41097 3.500695,-5.97595 6.909056,-6.90848 l 0.864221,-0.23646 7.012009,-0.0286 7.012011,-0.0286 v -5.92736 c 0,-5.87237 0.0018,-5.93049 0.188583,-6.26291 0.103712,-0.18454 0.339564,-0.42039 0.524109,-0.52411 0.331247,-0.18618 0.40278,-0.18858 5.602656,-0.18858 5.103142,0 5.278062,0.005 5.618552,0.17928 0.39529,0.20167 0.70997,0.71457 0.70997,1.15721 0,0.32977 -0.065,0.4618 -1.07959,2.19469 -0.43465,0.74231 -0.79027,1.39135 -0.79027,1.44229 0,0.0509 0.34219,0.66044 0.76043,1.35441 0.97523,1.61817 1.10943,1.88675 1.10943,2.2201 0,0.44183 -0.31496,0.95481 -0.70997,1.15633 -0.33835,0.17262 -0.51722,0.17929 -4.807042,0.17929 h -4.455613 v 1.5137 1.5137 l 2.337328,3.4e-4 c 2.553755,3.3e-4 3.426647,0.0927 4.654427,0.492 2.80491,0.9123 5.1345,3.24768 6.05619,6.07118 0.47548,1.45658 0.4856,1.66554 0.48599,10.03684 3.3e-4,7.63442 -0.002,7.74595 -0.18309,8.11967 -0.13316,0.27512 -0.28724,0.42919 -0.56235,0.56236 -0.37149,0.17984 -0.50056,0.18344 -6.58371,0.18344 h -6.204785 v 3.04382 c 0,2.89143 -0.0092,3.06279 -0.183437,3.42275 -0.193729,0.40017 -0.727675,0.74578 -1.15219,0.74578 -0.387503,0 -0.936278,-0.33768 -1.141148,-0.70219 -0.189521,-0.33723 -0.19447,-0.42441 -0.19447,-3.42809 v -3.08207 h -1.513705 -1.5137 v 3.04382 c 0,2.89143 -0.0092,3.06279 -0.183435,3.42275 -0.133181,0.2751 -0.287249,0.42918 -0.562363,0.56235 -0.474769,0.22983 -0.716906,0.23058 -1.175386,0.004 z M 86.057213,270.6019 c -0.03072,-8.16211 0.01585,-7.59678 -0.753861,-9.149 -0.35428,-0.71446 -0.551475,-0.97856 -1.269085,-1.69965 -0.728325,-0.73185 -0.970403,-0.91299 -1.695525,-1.26874 -1.198907,-0.5882 -1.779701,-0.72292 -3.11645,-0.72292 -1.336749,0 -1.917544,0.13472 -3.116448,0.72292 -0.722691,0.35455 -0.970242,0.53935 -1.699644,1.26874 -0.729862,0.72987 -0.9139,0.97649 -1.268314,1.69965 -0.766764,1.56451 -0.7198,0.99201 -0.750512,9.149 l -0.02727,7.23462 h 6.86216 6.862164 z m 19.232947,0 c -0.0307,-8.16211 0.0158,-7.59678 -0.75386,-9.149 -0.35428,-0.71446 -0.55148,-0.97856 -1.26909,-1.69965 -0.72878,-0.73231 -0.96994,-0.91271 -1.69552,-1.26832 -1.38808,-0.68028 -1.5605,-0.70889 -4.518849,-0.74983 l -2.604466,-0.036 v 1.93786 c 0,1.77471 -0.01546,1.96975 -0.183437,2.31677 -0.19372,0.40018 -0.727675,0.7458 -1.152181,0.7458 -0.387512,0 -0.936278,-0.33768 -1.141148,-0.70221 -0.183652,-0.32675 -0.194479,-0.45567 -0.194479,-2.31506 v -1.96905 h -2.944533 -2.944533 l 0.526963,0.64554 c 0.967365,1.18507 1.452863,2.03753 1.849742,3.24787 0.462727,1.41117 0.483862,1.81717 0.484431,9.30698 l 6.73e-4,6.92297 h 8.283832 8.283835 z m -4.60889,-21.30159 c 0,-0.0237 -0.15755,-0.30035 -0.3501,-0.61496 -0.906562,-1.48115 -0.910302,-1.55313 -0.14957,-2.88631 l 0.56883,-0.99689 h -3.151032 -3.151023 v 2.27055 2.27056 h 3.116453 c 1.71404,0 3.116442,-0.0194 3.116442,-0.043 z"
       id="path1254" />
  </g>
</svg>
