<?xml version="1.0" encoding="iso-8859-1"?>
<!-- Generator: Adobe Illustrator 19.0.0, SVG Export Plug-In . SVG Version: 6.00 Build 0)  -->
<svg width="22" height="22" version="1.1" id="Layer_1" xmlns="http://www.w3.org/2000/svg" xmlns:xlink="http://www.w3.org/1999/xlink" x="0px" y="0px"
	 viewBox="0 0 365.467 365.467" style="enable-background:new 0 0 365.467 365.467;" xml:space="preserve">
<path style="fill:#dddddd;" d="M314.85,123.681L198.31,325.534c-22.027,38.153-70.988,51.272-109.141,29.244
	c-38.152-22.027-51.271-70.987-29.244-109.14L182.935,32.58c17.972-31.128,57.917-41.832,89.046-23.86
	c31.128,17.972,41.832,57.918,23.86,89.046L192.147,277.37c-14.02,24.283-45.181,32.634-69.464,18.614s-32.632-45.182-18.612-69.465
	l97.225-168.398c2.841-4.922,9.135-6.608,14.056-3.767c4.922,2.841,6.608,9.135,3.767,14.057l-97.225,168.398
	c-8.346,14.456-3.376,33.006,11.079,41.352c14.456,8.346,33.006,3.375,41.352-11.081L278.019,87.476
	c12.298-21.301,4.974-48.635-16.327-60.934c-21.301-12.298-48.636-4.974-60.934,16.327L77.748,255.928
	c-16.354,28.325-6.614,64.673,21.711,81.027s64.674,6.614,81.027-21.711l116.54-201.852c2.841-4.922,9.135-6.608,14.056-3.767
	C316.005,112.466,317.691,118.759,314.85,123.681z"/>
<g>
</g>
<g>
</g>
<g>
</g>
<g>
</g>
<g>
</g>
<g>
</g>
<g>
</g>
<g>
</g>
<g>
</g>
<g>
</g>
<g>
</g>
<g>
</g>
<g>
</g>
<g>
</g>
<g>
</g>
</svg>
