<?xml version="1.0" encoding="UTF-8" standalone="no"?>
<svg
   xmlns:dc="http://purl.org/dc/elements/1.1/"
   xmlns:cc="http://creativecommons.org/ns#"
   xmlns:rdf="http://www.w3.org/1999/02/22-rdf-syntax-ns#"
   xmlns:svg="http://www.w3.org/2000/svg"
   xmlns="http://www.w3.org/2000/svg"
   xmlns:xlink="http://www.w3.org/1999/xlink"
   xmlns:sodipodi="http://sodipodi.sourceforge.net/DTD/sodipodi-0.dtd"
   xmlns:inkscape="http://www.inkscape.org/namespaces/inkscape"
   width="255mm"
   height="255mm"
   viewBox="0 0 255 255"
   version="1.1"
   id="svg8"
   inkscape:version="1.0.2 (e86c870879, 2021-01-15)"
   sodipodi:docname="speekIcon.svg">
  <defs
     id="defs2">
    <rect
       x="6.7705631"
       y="254.34293"
       width="179.58366"
       height="30.620554"
       id="rect958" />
    <rect
       x="2.3442709"
       y="246.1788"
       width="208.94798"
       height="46.688663"
       id="rect952" />
    <linearGradient
       inkscape:collect="always"
       id="linearGradient886">
      <stop
         style="stop-color:#ff00ff;stop-opacity:0.98601145"
         offset="0"
         id="stop882" />
      <stop
         style="stop-color:#e317e8;stop-opacity:1"
         offset="1"
         id="stop884" />
    </linearGradient>
    <linearGradient
       inkscape:collect="always"
       id="linearGradient853-3">
      <stop
         style="stop-color:#40c8f0;stop-opacity:1"
         offset="0"
         id="stop849" />
      <stop
         style="stop-color:#e317e8;stop-opacity:1"
         offset="1"
         id="stop851" />
    </linearGradient>
    <linearGradient
       inkscape:collect="always"
       xlink:href="#linearGradient853-3"
       id="linearGradient855"
       x1="20.53936"
       y1="149.46793"
       x2="170.41721"
       y2="149.46793"
       gradientUnits="userSpaceOnUse"
       gradientTransform="matrix(0.90330699,0,0,0.90330699,-3.2319646,27.44927)" />
    <linearGradient
       inkscape:collect="always"
       xlink:href="#linearGradient886"
       id="linearGradient875"
       x1="176.40327"
       y1="113.51394"
       x2="205.20897"
       y2="113.51394"
       gradientUnits="userSpaceOnUse"
       gradientTransform="matrix(0.90330699,0,0,0.90330699,-3.2319646,27.44927)" />
    <linearGradient
       inkscape:collect="always"
       xlink:href="#linearGradient886"
       id="linearGradient926"
       x1="177.11594"
       y1="190.19527"
       x2="205.01733"
       y2="190.19527"
       gradientUnits="userSpaceOnUse"
       gradientTransform="matrix(0.90330699,0,0,0.90330699,-3.2319646,27.44927)" />
  </defs>
  <sodipodi:namedview
     id="base"
     pagecolor="#ffffff"
     bordercolor="#666666"
     borderopacity="1.0"
     inkscape:pageopacity="0.0"
     inkscape:pageshadow="2"
     inkscape:zoom="0.33788412"
     inkscape:cx="432.4428"
     inkscape:cy="470.44684"
     inkscape:document-units="mm"
     inkscape:current-layer="layer1"
     inkscape:document-rotation="0"
     showgrid="false"
     showguides="true"
     inkscape:guide-bbox="true"
     inkscape:window-width="1920"
     inkscape:window-height="1039"
     inkscape:window-x="0"
     inkscape:window-y="15"
     inkscape:window-maximized="1"
     fit-margin-top="0"
     fit-margin-left="0"
     fit-margin-right="0"
     fit-margin-bottom="0" />
  <metadata
     id="metadata5">
    <rdf:RDF>
      <cc:Work
         rdf:about="">
        <dc:format>image/svg+xml</dc:format>
        <dc:type
           rdf:resource="http://purl.org/dc/dcmitype/StillImage" />
        <dc:title></dc:title>
      </cc:Work>
    </rdf:RDF>
  </metadata>
  <g
     inkscape:label="Layer 1"
     inkscape:groupmode="layer"
     id="layer1"
     transform="translate(20.399878,-31.391575)">
    <rect
       style="fill:#1a1a1a;fill-opacity:1;stroke:none;stroke-width:0;stroke-miterlimit:4;stroke-dasharray:none"
       id="rect964"
       width="230.36069"
       height="231.00781"
       x="-7.6487222"
       y="44.32233"
       ry="41.053547"
       inkscape:export-xdpi="290.82968"
       inkscape:export-ydpi="290.82968" />
    <path
       style="fill:url(#linearGradient855);fill-opacity:1;stroke:#000000;stroke-width:0;stroke-linecap:butt;stroke-linejoin:miter;stroke-miterlimit:4;stroke-dasharray:none;stroke-opacity:1"
       d="M 15.625089,118.16748 149.89435,81.473718 v 48.686852 l -6.35713,3.6703 7.05036,4.07052 v 75.79116 l -111.080344,29.7639 v -48.32344 l 8.327586,-4.80794 -7.990048,-4.61306 v -53.21045 z"
       id="path24" />
    <path
       style="fill:#000000;fill-opacity:1;stroke:none;stroke-width:0;stroke-linecap:butt;stroke-linejoin:miter;stroke-miterlimit:4;stroke-dasharray:none;stroke-opacity:1"
       d="M 26.381432,119.05148 145.49516,87.135047 v 39.897093 l -11.83894,6.83522 11.98349,6.91867 v 69.2106 L 44.573319,237.07728 V 197.29865 L 55.581345,190.94317 44.12551,184.32914 V 129.6947 Z"
       id="path857" />
    <path
       style="fill:#ffffff;stroke:none;stroke-width:0;stroke-linecap:butt;stroke-linejoin:miter;stroke-miterlimit:4;stroke-dasharray:none;stroke-opacity:1"
       d="M 40.87223,121.11462 139.9336,94.571194 V 121.2596 l -65.825527,17.63789 v 15.27525 l 44.174637,-11.83655 c 0,0 21.42408,-5.61946 21.62276,14.7566 0.19965,20.47458 0.0556,49.09789 0.0556,49.09789 l -90.7112,24.30599 v -26.69458 l 64.91787,-17.39468 v -15.78416 c 0,0 0,0 -46.188341,12.25681 -2.857556,0.7583 -6.066737,0.18675 -8.826158,-0.87449 -2.713974,-1.04378 -5.280331,-2.84839 -7.020061,-5.17829 -1.485808,-1.98984 -2.537224,-4.52137 -2.537224,-7.00473 v -43.96634 z"
       id="path859"
       sodipodi:nodetypes="ccccccscccccsssscc" />
    <path
       style="fill:#cccccc;stroke:none;stroke-width:0.239px;stroke-linecap:butt;stroke-linejoin:miter;stroke-opacity:1"
       d="m 139.93817,108.30186 -78.409703,21.00982 v 41.38513 l 12.579606,-16.52407 v -15.27525 l 66.032357,-17.69331 z"
       id="path863" />
    <path
       style="fill:#cccccc;stroke:none;stroke-width:0.239px;stroke-linecap:butt;stroke-linejoin:miter;stroke-opacity:1"
       d="m 114.16779,170.62325 -42.412311,11.36434 c 0,0 -4.747759,1.1039 -7.785421,1.04199 -3.940989,-0.0803 -8.047257,-2.8072 -8.047257,-2.8072 l 5.472756,-9.88413 62.924953,-16.86068 c 0,0 5.20303,-1.50601 6.74833,-3.51772 1.18893,-1.54778 2.06103,-6.4232 2.06103,-6.4232 0,0 2.04804,1.15226 3.08688,2.30807 3.36782,3.74704 3.66897,10.60688 3.66897,10.60688 l 0.0754,49.73908 -90.711193,24.30599 0.219497,-12.56882 76.804726,-20.57975 v -44.68144 z"
       id="path865"
       sodipodi:nodetypes="ccscccscsccccccc" />
    <path
       style="fill:url(#linearGradient875);fill-opacity:1;stroke:#000000;stroke-width:0;stroke-linecap:butt;stroke-linejoin:miter;stroke-miterlimit:4;stroke-dasharray:none;stroke-opacity:1"
       d="m 157.21963,80.438565 24.7956,-7.096634 V 179.89321 l -24.7956,6.55137 z"
       id="path867"
       sodipodi:nodetypes="ccccc" />
    <path
       style="fill:url(#linearGradient926);fill-opacity:1;stroke:none;stroke-width:0.239px;stroke-linecap:butt;stroke-linejoin:miter;stroke-opacity:1"
       d="m 157.21963,192.7528 24.98636,-5.99847 v 19.74648 l -24.98636,5.85924 z"
       id="path918"
       sodipodi:nodetypes="ccccc" />
    <text
       xml:space="preserve"
       id="text950"
       style="font-style:normal;font-variant:normal;font-weight:normal;font-stretch:normal;font-size:50.8px;line-height:1.25;font-family:Quicksand;-inkscape-font-specification:Quicksand;letter-spacing:0px;word-spacing:0px;white-space:pre;shape-inside:url(#rect952);fill:#000000;fill-opacity:1;stroke:none;" />
  </g>
</svg>
