<?xml version="1.0" encoding="UTF-8" standalone="no"?>
<svg
   width="61.599751mm"
   height="61.599751mm"
   viewBox="0 0 61.599751 61.599751"
   version="1.1"
   id="svg8"
   inkscape:version="1.1.1 (3bf5ae0d25, 2021-09-20)"
   sodipodi:docname="tor_logo.svg"
   xmlns:inkscape="http://www.inkscape.org/namespaces/inkscape"
   xmlns:sodipodi="http://sodipodi.sourceforge.net/DTD/sodipodi-0.dtd"
   xmlns="http://www.w3.org/2000/svg"
   xmlns:svg="http://www.w3.org/2000/svg"
   xmlns:rdf="http://www.w3.org/1999/02/22-rdf-syntax-ns#"
   xmlns:cc="http://creativecommons.org/ns#"
   xmlns:dc="http://purl.org/dc/elements/1.1/">
  <defs
     id="defs2" />
  <sodipodi:namedview
     id="base"
     pagecolor="#ffffff"
     bordercolor="#666666"
     borderopacity="1.0"
     inkscape:pageopacity="0.0"
     inkscape:pageshadow="2"
     inkscape:zoom="0.57848045"
     inkscape:cx="-475.38339"
     inkscape:cy="467.60439"
     inkscape:document-units="mm"
     inkscape:current-layer="layer1"
     inkscape:document-rotation="0"
     showgrid="false"
     inkscape:window-width="1920"
     inkscape:window-height="1030"
     inkscape:window-x="0"
     inkscape:window-y="22"
     inkscape:window-maximized="1"
     inkscape:pagecheckerboard="0"
     fit-margin-top="0"
     fit-margin-left="0"
     fit-margin-right="0"
     fit-margin-bottom="0" />
  <metadata
     id="metadata5">
    <rdf:RDF>
      <cc:Work
         rdf:about="">
        <dc:format>image/svg+xml</dc:format>
        <dc:type
           rdf:resource="http://purl.org/dc/dcmitype/StillImage" />
      </cc:Work>
    </rdf:RDF>
  </metadata>
  <g
     inkscape:label="Layer 1"
     inkscape:groupmode="layer"
     id="layer1"
     transform="translate(-133.0974,-20.871855)">
    <rect
       style="fill:#794493;fill-opacity:1;stroke:none;stroke-width:8.30792"
       id="rect835-5"
       width="61.599751"
       height="61.599751"
       x="133.0974"
       y="20.871855"
       ry="12.743525" />
    <path
       style="fill:#ffffff;stroke-width:0.776083"
       d="m 160.70181,76.804433 c -8.68745,-1.712124 -13.73284,-7.381759 -13.78016,-15.485112 -0.0327,-5.593446 2.07423,-9.602443 7.13761,-13.581449 4.48549,-3.524874 5.3071,-5.04443 4.02385,-7.442169 -1.01695,-1.900185 0.21015,-3.290514 2.43733,-2.761579 0.98517,0.233965 1.22321,-0.354745 1.17266,-2.900219 -0.0448,-2.259585 0.50162,-3.954216 1.86827,-5.793553 l 1.93167,-2.59978 0.23621,2.71559 0.2362,2.715589 3.25618,-1.769772 c 1.79088,-0.973375 4.27213,-2.006493 5.51388,-2.295818 2.05449,-0.478695 1.74684,0.04067 -3.4179,5.769794 -4.9892,5.534422 -5.48433,6.345858 -4.09407,6.709424 1.05734,0.276499 1.46084,0.875191 1.21736,1.806265 -0.42199,1.613647 0.5282,2.595711 4.7807,4.941126 1.68961,0.931896 4.13428,3.205617 5.43257,5.052714 2.10944,3.00112 2.84471,4.454137 2.84471,9.533661 0,5.06536 -0.73842,5.555074 -2.81953,8.518833 -3.81959,5.439541 -11.10278,8.221332 -17.97754,6.866455 z m 5.45486,-4.037889 c 1.89193,-3.037984 2.01609,-6.399028 0.46917,-12.699951 -2.10427,-8.571141 -1.82492,-9.41821 0.86655,-2.627685 3.73032,9.411486 3.8778,9.556241 3.55787,3.492372 -0.22963,-4.352567 -0.84909,-6.547313 -3.11594,-11.039805 -1.55612,-3.083975 -2.82933,-6.099069 -2.82933,-6.70021 0,-0.60114 -0.67902,-1.270552 -1.50893,-1.48758 -1.17493,-0.307249 -1.61928,0.107768 -2.0074,1.874846 -0.33626,1.53097 -1.81936,3.245257 -4.55781,5.26827 -4.95723,3.662111 -6.78095,6.320063 -7.26145,10.583031 -0.46574,4.131997 0.84161,8.123958 3.44075,10.506299 l 2.02961,1.860309 -1.21863,-1.940207 c -1.76383,-2.808233 -2.34549,-7.037217 -1.33538,-9.709114 0.48244,-1.27609 2.27237,-3.978806 3.97766,-6.006027 1.70527,-2.02723 3.60163,-4.646507 4.2141,-5.820625 0.86372,-1.655773 1.11466,-1.804156 1.11837,-0.661315 0.002,0.810393 -1.56678,4.35652 -3.48759,7.880285 -3.75604,6.890537 -4.34588,10.415109 -2.37942,14.217838 1.02852,1.988929 3.54355,4.672585 3.54355,3.781137 0,-0.213562 -0.52386,-1.642051 -1.16413,-3.174434 -1.43951,-3.445258 -1.47654,-6.506726 -0.1094,-9.044657 0.57485,-1.067113 1.96965,-3.651096 3.09956,-5.742189 2.44372,-4.522503 2.63182,-3.22294 0.51223,3.53882 -1.74449,5.565135 -1.98817,10.508403 -0.66152,13.420056 1.11378,2.444482 3.36163,2.552273 4.80751,0.230536 z"
       id="path1308"
       sodipodi:nodetypes="scssscscccsssssssscsssssssssccsccscscccsscsscs" />
  </g>
</svg>
