<?xml version="1.0" encoding="UTF-8" standalone="no"?>
<svg
   width="61.599751mm"
   height="61.599751mm"
   viewBox="0 0 61.599751 61.599751"
   version="1.1"
   id="svg8"
   inkscape:version="1.1.1 (3bf5ae0d25, 2021-09-20)"
   sodipodi:docname="view_id.svg"
   xmlns:inkscape="http://www.inkscape.org/namespaces/inkscape"
   xmlns:sodipodi="http://sodipodi.sourceforge.net/DTD/sodipodi-0.dtd"
   xmlns="http://www.w3.org/2000/svg"
   xmlns:svg="http://www.w3.org/2000/svg"
   xmlns:rdf="http://www.w3.org/1999/02/22-rdf-syntax-ns#"
   xmlns:cc="http://creativecommons.org/ns#"
   xmlns:dc="http://purl.org/dc/elements/1.1/">
  <defs
     id="defs2" />
  <sodipodi:namedview
     id="base"
     pagecolor="#ffffff"
     bordercolor="#666666"
     borderopacity="1.0"
     inkscape:pageopacity="0.0"
     inkscape:pageshadow="2"
     inkscape:zoom="0.57848045"
     inkscape:cx="247.19937"
     inkscape:cy="-90.755012"
     inkscape:document-units="mm"
     inkscape:current-layer="layer1"
     inkscape:document-rotation="0"
     showgrid="false"
     inkscape:window-width="1920"
     inkscape:window-height="1030"
     inkscape:window-x="0"
     inkscape:window-y="22"
     inkscape:window-maximized="1"
     inkscape:pagecheckerboard="0"
     fit-margin-top="0"
     fit-margin-left="0"
     fit-margin-right="0"
     fit-margin-bottom="0" />
  <metadata
     id="metadata5">
    <rdf:RDF>
      <cc:Work
         rdf:about="">
        <dc:format>image/svg+xml</dc:format>
        <dc:type
           rdf:resource="http://purl.org/dc/dcmitype/StillImage" />
      </cc:Work>
    </rdf:RDF>
  </metadata>
  <g
     inkscape:label="Layer 1"
     inkscape:groupmode="layer"
     id="layer1"
     transform="translate(-55.992004,-161.0701)">
    <rect
       style="fill:#ea9b4b;fill-opacity:1;stroke:none;stroke-width:8.30792"
       id="rect835-3-6"
       width="61.599751"
       height="61.599751"
       x="55.992004"
       y="161.0701"
       ry="12.743525" />
    <path
       style="fill:#ffffff;stroke-width:0.0818476"
       d="m 99.028978,213.44441 c -0.0221,-0.0575 -0.0303,-1.15383 -0.0184,-2.43622 l 0.0217,-2.33161 h 2.414512 2.41452 v 2.4145 2.41452 l -2.39615,0.0217 c -1.885242,0.0171 -2.404702,-5.8e-4 -2.436272,-0.0829 z m -31.478682,-1.62958 c -0.163924,-0.095 -0.384915,-0.3244 -0.491091,-0.50967 l -0.193038,-0.33685 V 203.07 c 0,-7.60443 0.0057,-7.91001 0.156024,-8.21255 0.08582,-0.17283 0.304095,-0.41224 0.485068,-0.53201 l 0.329043,-0.21778 7.699718,-0.0256 c 5.328023,-0.0177 7.826678,0.002 8.111895,0.0634 0.444921,0.096 0.77018,0.34444 0.99895,0.76293 0.133884,0.24491 0.14575,0.78583 0.169154,7.71154 0.01382,4.09648 0.0019,7.67705 -0.02664,7.9568 -0.05873,0.5763 -0.264077,0.94313 -0.687801,1.22866 l -0.276161,0.18611 -7.98852,-0.002 c -7.978868,-0.002 -7.988888,-0.002 -8.286571,-0.17472 z M 81.967093,203.07 v -6.13859 h -6.138588 -6.138587 v 6.13859 6.13859 h 6.138587 6.138588 z m -8.556497,2.35332 c -0.02208,-0.0575 -0.03034,-1.15383 -0.01839,-2.43622 l 0.02177,-2.33161 h 2.414514 2.414512 v 2.41451 2.41452 l -2.396143,0.0217 c -1.885251,0.0171 -2.4047,-5.7e-4 -2.436279,-0.0829 z m 15.922805,0.79782 v -2.41451 h 2.414514 2.414515 v -2.41451 -2.41451 h -2.414515 -2.414514 v -2.45543 -2.45544 h 2.414514 2.414515 v 2.45544 2.45543 h 2.413292 2.413296 l 0.0217,-2.43497 0.0217,-2.43498 h 2.414522 2.41451 v 2.41452 2.4145 l -2.43497,0.0217 -2.434982,0.0218 v 2.41329 2.41329 h -2.414519 -2.414505 v 2.41451 2.41452 h -2.41451 -2.414513 z m 14.568919,-4.82902 v -2.41451 h 2.41452 2.41451 v 2.41451 2.41451 h -2.41451 -2.41452 z M 67.94535,189.73261 c -0.427045,-0.0843 -0.717473,-0.31455 -0.935949,-0.74212 l -0.184157,-0.36039 v -7.82272 -7.82271 l 0.184157,-0.36453 c 0.245871,-0.48669 0.599857,-0.70928 1.230616,-0.7738 0.279759,-0.0286 3.878737,-0.0406 7.997727,-0.0266 8.370475,0.0283 7.762062,-0.0168 8.241945,0.6123 l 0.229309,0.30066 v 8.07475 8.07475 l -0.229309,0.30065 c -0.48119,0.63087 0.161541,0.58549 -8.487485,0.59919 -4.254043,0.007 -7.875125,-0.0156 -8.046854,-0.0494 z m 14.021743,-8.92523 v -6.13859 h -6.179511 -6.17951 v 6.13859 6.1386 h 6.17951 6.179511 z m -8.594024,0 v -2.45543 h 2.414513 2.414513 v 2.45543 2.45544 h -2.414513 -2.414513 z m 16.810275,8.91001 c -0.446689,-0.10041 -0.887382,-0.54418 -1.005242,-1.01225 -0.126559,-0.50261 -0.126559,-15.2929 0,-15.7955 0.126447,-0.50217 0.552085,-0.90804 1.068389,-1.01876 0.508997,-0.10917 15.186359,-0.11703 15.654769,-0.008 0.3901,0.0905 0.68225,0.29765 0.92713,0.65743 l 0.18416,0.27058 v 7.99688 7.99688 l -0.18416,0.27059 c -0.24488,0.35979 -0.53703,0.56696 -0.92713,0.65743 -0.42503,0.0986 -15.275753,0.0845 -15.717916,-0.0149 z m 14.046366,-8.91001 v -6.13859 h -6.138582 -6.138597 v 6.13859 6.1386 h 6.138597 6.138582 z m -8.556498,2.35332 c -0.02211,-0.0575 -0.03029,-1.15382 -0.01842,-2.43621 l 0.02175,-2.33161 h 2.414506 2.414512 v 2.4145 2.41452 l -2.396132,0.0217 c -1.885256,0.0171 -2.404708,-5.8e-4 -2.436284,-0.0829 z"
       id="path1154" />
  </g>
</svg>
