<?xml version="1.0" encoding="UTF-8" standalone="no"?>
<svg
   width="61.599751mm"
   height="61.599751mm"
   viewBox="0 0 61.599751 61.599751"
   version="1.1"
   id="svg8"
   inkscape:version="1.1.1 (3bf5ae0d25, 2021-09-20)"
   sodipodi:docname="add_contact.svg"
   xmlns:inkscape="http://www.inkscape.org/namespaces/inkscape"
   xmlns:sodipodi="http://sodipodi.sourceforge.net/DTD/sodipodi-0.dtd"
   xmlns="http://www.w3.org/2000/svg"
   xmlns:svg="http://www.w3.org/2000/svg"
   xmlns:rdf="http://www.w3.org/1999/02/22-rdf-syntax-ns#"
   xmlns:cc="http://creativecommons.org/ns#"
   xmlns:dc="http://purl.org/dc/elements/1.1/">
  <defs
     id="defs2" />
  <sodipodi:namedview
     id="base"
     pagecolor="#ffffff"
     bordercolor="#666666"
     borderopacity="1.0"
     inkscape:pageopacity="0.0"
     inkscape:pageshadow="2"
     inkscape:zoom="0.57848045"
     inkscape:cx="-235.0987"
     inkscape:cy="588.61108"
     inkscape:document-units="mm"
     inkscape:current-layer="layer1"
     inkscape:document-rotation="0"
     showgrid="false"
     inkscape:window-width="1920"
     inkscape:window-height="1030"
     inkscape:window-x="0"
     inkscape:window-y="22"
     inkscape:window-maximized="1"
     inkscape:pagecheckerboard="0"
     fit-margin-top="0"
     fit-margin-left="0"
     fit-margin-right="0"
     fit-margin-bottom="0" />
  <metadata
     id="metadata5">
    <rdf:RDF>
      <cc:Work
         rdf:about="">
        <dc:format>image/svg+xml</dc:format>
        <dc:type
           rdf:resource="http://purl.org/dc/dcmitype/StillImage" />
      </cc:Work>
    </rdf:RDF>
  </metadata>
  <g
     inkscape:label="Layer 1"
     inkscape:groupmode="layer"
     id="layer1"
     transform="translate(-53.142063,-21.62578)">
    <rect
       style="fill:#2f79f5;fill-opacity:1;stroke:none;stroke-width:8.30792"
       id="rect835"
       width="61.599751"
       height="61.599751"
       x="53.142063"
       y="21.62578"
       ry="12.743525" />
    <path
       style="fill:#ffffff;stroke-width:0.0962789"
       d="m 60.847139,72.03079 c -0.481792,-0.216086 -1.037369,-0.842024 -1.189016,-1.339616 -0.328789,-1.07877 0.106057,-4.553995 0.862414,-6.892743 1.704631,-5.270689 5.476833,-9.618678 10.39367,-11.980169 0.554757,-0.26644 1.025134,-0.498027 1.045286,-0.514637 0.02016,-0.01661 -0.192612,-0.278652 -0.472792,-0.582316 -1.432504,-1.552534 -2.426619,-3.455748 -2.87501,-5.50415 -0.214838,-0.981438 -0.252886,-3.279683 -0.07006,-4.231736 0.300036,-1.562414 1.018447,-3.286156 1.891466,-4.538385 0.600848,-0.861824 1.935371,-2.182503 2.802069,-2.772978 1.99381,-1.358378 3.982609,-1.976916 6.393187,-1.988346 3.127588,-0.01483 5.837258,1.094005 8.006786,3.276501 1.61058,1.620209 2.637412,3.506971 3.113599,5.721091 0.216478,1.006601 0.253342,3.108826 0.07257,4.139698 -0.676341,3.857288 -3.278165,7.099843 -6.877395,8.571051 -1.311933,0.536262 -2.197814,0.712036 -4.145978,0.822628 -1.901514,0.107948 -3.10632,0.277378 -4.248105,0.597411 -3.914236,1.09713 -7.271858,3.663793 -9.340661,7.140266 -0.808622,1.35885 -1.602218,3.406107 -1.861267,4.801605 -0.05901,0.318003 -0.127645,0.675769 -0.15249,0.795033 l -0.04511,0.216844 7.920699,-0.03698 c 4.896605,-0.02293 8.051032,-0.0015 8.262087,0.05608 0.74173,0.202273 1.364085,0.882954 1.557609,1.703576 0.214575,0.90987 -0.319448,2.001408 -1.18716,2.426549 -0.412143,0.20193 -0.472872,0.203435 -9.939867,0.246224 -9.045181,0.04087 -9.544903,0.03421 -9.916514,-0.13246 z M 81.298262,49.538619 c 1.856142,-0.49038 3.47964,-1.836945 4.32074,-3.583726 0.480812,-0.998548 0.660472,-1.805007 0.656804,-2.948325 -0.0091,-2.946627 -1.818389,-5.416935 -4.668154,-6.374826 -0.720575,-0.242208 -0.928453,-0.26874 -2.053356,-0.262076 -1.09238,0.0065 -1.349435,0.04026 -2.020615,0.265618 -1.089954,0.365963 -1.906402,0.879081 -2.739152,1.721504 -1.263746,1.27843 -1.908611,2.881136 -1.899874,4.7219 0.01606,3.390152 2.415865,6.11485 5.856464,6.649368 0.516879,0.0803 1.921599,-0.02417 2.547143,-0.189437 z m 15.312349,22.280219 c -0.55296,-0.288511 -1.009604,-0.888584 -1.144699,-1.504248 -0.06607,-0.301141 -0.113575,-1.785746 -0.123418,-3.854755 l -0.01595,-3.364987 -3.611477,0.01712 c -3.480961,0.01651 -3.62722,0.0098 -4.047462,-0.185298 -0.900155,-0.417923 -1.428961,-1.480634 -1.217541,-2.446826 0.151852,-0.693969 0.548559,-1.212999 1.164535,-1.523606 l 0.507914,-0.256116 3.591506,-0.01703 3.591518,-0.01703 -0.01606,-3.396883 c -0.01754,-3.699675 0.02381,-4.092616 0.496168,-4.718065 0.146134,-0.193501 0.486796,-0.4633 0.757006,-0.599556 1.09751,-0.55342 2.40758,-0.146197 2.98921,0.929163 0.21048,0.389155 0.21683,0.488403 0.26155,4.081348 l 0.0458,3.682494 3.582079,-0.01487 c 3.3973,-0.0141 3.60447,-0.0049 4.01625,0.179492 0.80071,0.358438 1.23153,0.960182 1.32819,1.855123 0.0967,0.895167 -0.50136,1.872777 -1.37087,2.240936 -0.2492,0.105499 -1.08097,0.137497 -3.92541,0.150985 l -3.609229,0.01711 -0.0114,3.682763 c -0.0103,3.561721 -0.0177,3.695453 -0.21688,4.068861 -0.43461,0.814648 -1.09424,1.208688 -2.03078,1.21313 -0.40626,0.0019 -0.68546,-0.05985 -0.991,-0.219266 z"
       id="path937" />
  </g>
</svg>
