<?xml version="1.0" encoding="UTF-8" standalone="no"?>
<svg
   width="61.599751mm"
   height="61.599751mm"
   viewBox="0 0 61.59975 61.59975"
   version="1.1"
   id="svg8"
   inkscape:version="1.1.1 (3bf5ae0d25, 2021-09-20)"
   sodipodi:docname="close.svg"
   xmlns:inkscape="http://www.inkscape.org/namespaces/inkscape"
   xmlns:sodipodi="http://sodipodi.sourceforge.net/DTD/sodipodi-0.dtd"
   xmlns="http://www.w3.org/2000/svg"
   xmlns:svg="http://www.w3.org/2000/svg"
   xmlns:rdf="http://www.w3.org/1999/02/22-rdf-syntax-ns#"
   xmlns:cc="http://creativecommons.org/ns#"
   xmlns:dc="http://purl.org/dc/elements/1.1/">
  <defs
     id="defs2" />
  <sodipodi:namedview
     id="base"
     pagecolor="#ffffff"
     bordercolor="#666666"
     borderopacity="1.0"
     inkscape:pageopacity="0.0"
     inkscape:pageshadow="2"
     inkscape:zoom="0.43852551"
     inkscape:cx="-237.15838"
     inkscape:cy="888.20374"
     inkscape:document-units="mm"
     inkscape:current-layer="layer1"
     inkscape:document-rotation="0"
     showgrid="false"
     inkscape:window-width="1920"
     inkscape:window-height="1030"
     inkscape:window-x="0"
     inkscape:window-y="22"
     inkscape:window-maximized="1"
     fit-margin-top="0"
     fit-margin-left="0"
     fit-margin-right="0"
     fit-margin-bottom="0"
     inkscape:pagecheckerboard="0" />
  <metadata
     id="metadata5">
    <rdf:RDF>
      <cc:Work
         rdf:about="">
        <dc:format>image/svg+xml</dc:format>
        <dc:type
           rdf:resource="http://purl.org/dc/dcmitype/StillImage" />
      </cc:Work>
    </rdf:RDF>
  </metadata>
  <g
     inkscape:label="Layer 1"
     inkscape:groupmode="layer"
     id="layer1"
     transform="translate(-287.05823,-20.573643)">
    <rect
       style="fill:#ec4d3d;fill-opacity:1;stroke:none;stroke-width:8.30792"
       id="rect835-5-3-3"
       width="61.599751"
       height="61.599751"
       x="287.05823"
       y="20.573643"
       ry="12.743525" />
    <path
       style="fill:#ffffff;stroke-width:0.0788366"
       d="m 302.10736,71.536454 c -1.11335,-0.241959 -2.16245,-0.960192 -2.82132,-1.931543 -0.96489,-1.422495 -1.07647,-3.161461 -0.30349,-4.729532 0.27899,-0.565963 0.56504,-0.865512 6.68143,-6.996759 l 6.38996,-6.405481 -6.38996,-6.405483 c -6.11639,-6.131244 -6.40244,-6.430796 -6.68143,-6.996757 -0.7715,-1.565066 -0.65658,-3.333876 0.30837,-4.746123 1.31994,-1.931795 3.80831,-2.563245 5.94681,-1.509063 0.56597,0.278992 0.86552,0.565043 6.99677,6.68143 l 6.40547,6.389961 6.40549,-6.389961 c 6.13124,-6.116387 6.43079,-6.402438 6.99676,-6.68143 1.56506,-0.771504 3.33388,-0.656581 4.74612,0.308365 1.93179,1.319936 2.56325,3.808317 1.50906,5.946821 -0.27899,0.565961 -0.56504,0.865513 -6.68143,6.996757 l -6.38996,6.405483 6.38996,6.405481 c 6.11639,6.131247 6.40244,6.430796 6.68143,6.996759 0.77151,1.565064 0.65659,3.333876 -0.30837,4.746121 -1.31993,1.931797 -3.8083,2.563246 -5.94681,1.509066 -0.56597,-0.278996 -0.86552,-0.565045 -6.99676,-6.681433 l -6.40549,-6.389961 -6.40547,6.389961 c -6.13187,6.117006 -6.43075,6.402409 -6.99677,6.681354 -1.00102,0.493336 -2.08281,0.633626 -3.13037,0.405967 z"
       id="path1383" />
  </g>
</svg>
