<?xml version="1.0" encoding="UTF-8" standalone="no"?>
<svg
   width="61.599751mm"
   height="61.599751mm"
   viewBox="0 0 61.59975 61.59975"
   version="1.1"
   id="svg8"
   inkscape:version="1.1.1 (3bf5ae0d25, 2021-09-20)"
   sodipodi:docname="contact_print.svg"
   xmlns:inkscape="http://www.inkscape.org/namespaces/inkscape"
   xmlns:sodipodi="http://sodipodi.sourceforge.net/DTD/sodipodi-0.dtd"
   xmlns="http://www.w3.org/2000/svg"
   xmlns:svg="http://www.w3.org/2000/svg"
   xmlns:rdf="http://www.w3.org/1999/02/22-rdf-syntax-ns#"
   xmlns:cc="http://creativecommons.org/ns#"
   xmlns:dc="http://purl.org/dc/elements/1.1/">
  <defs
     id="defs2" />
  <sodipodi:namedview
     id="base"
     pagecolor="#ffffff"
     bordercolor="#666666"
     borderopacity="1.0"
     inkscape:pageopacity="0.0"
     inkscape:pageshadow="2"
     inkscape:zoom="0.43852551"
     inkscape:cx="38.766274"
     inkscape:cy="94.635316"
     inkscape:document-units="mm"
     inkscape:current-layer="layer1"
     inkscape:document-rotation="0"
     showgrid="false"
     inkscape:window-width="1920"
     inkscape:window-height="1030"
     inkscape:window-x="0"
     inkscape:window-y="22"
     inkscape:window-maximized="1"
     fit-margin-top="0"
     fit-margin-left="0"
     fit-margin-right="0"
     fit-margin-bottom="0"
     inkscape:pagecheckerboard="0" />
  <metadata
     id="metadata5">
    <rdf:RDF>
      <cc:Work
         rdf:about="">
        <dc:format>image/svg+xml</dc:format>
        <dc:type
           rdf:resource="http://purl.org/dc/dcmitype/StillImage" />
      </cc:Work>
    </rdf:RDF>
  </metadata>
  <g
     inkscape:label="Layer 1"
     inkscape:groupmode="layer"
     id="layer1"
     transform="translate(-212.52263,-167.02124)">
    <rect
       style="fill:#2f79f5;fill-opacity:1;stroke:none;stroke-width:8.30792"
       id="rect835-5-2-6"
       width="61.599751"
       height="61.599751"
       x="212.52263"
       y="167.02124"
       ry="12.743525" />
    <path
       style="fill:#ffffff;stroke-width:0.0936154"
       d="m 238.98245,221.11572 c -0.64471,-0.32356 -2.81924,-2.90099 -4.34326,-5.148 -1.92287,-2.83506 -3.10247,-5.35581 -3.7237,-7.95732 -0.34563,-1.44737 -0.40466,-3.64965 -0.13949,-5.20344 0.52783,-3.09287 1.80618,-5.5827 3.98888,-7.76911 2.02553,-2.02899 4.11356,-3.17951 6.89681,-3.80022 0.82381,-0.18373 1.23548,-0.21672 2.70366,-0.21672 1.46818,0 1.87985,0.033 2.70366,0.21672 2.78324,0.62071 4.87128,1.77123 6.89681,3.80022 1.68128,1.68415 2.80516,3.51652 3.50037,5.707 0.62624,1.97322 0.86161,4.54758 0.47391,5.18346 -0.57301,0.93981 -1.99557,0.91004 -2.55834,-0.0535 -0.13384,-0.22915 -0.20071,-0.59646 -0.25756,-1.41485 -0.12294,-1.76926 -0.46401,-3.01859 -1.23996,-4.54193 -0.86998,-1.70797 -2.21392,-3.21961 -3.74607,-4.21354 -0.93574,-0.60704 -1.31264,-0.79833 -2.21543,-1.12447 -3.91303,-1.41358 -8.30927,-0.35455 -11.21159,2.70083 -1.57332,1.6563 -2.5543,3.60279 -2.97768,5.90841 -0.23211,1.264 -0.14786,3.33944 0.18595,4.58065 0.85232,3.16927 3.19476,7.04927 6.35736,10.53033 0.75675,0.83296 0.87759,1.10717 0.78663,1.78523 -0.0634,0.47334 -0.30805,0.79768 -0.77648,1.0298 -0.48084,0.23824 -0.8305,0.23838 -1.30448,3.5e-4 z m 9.146,0.0422 c -1.87587,-0.50487 -3.92012,-1.82271 -6.09064,-3.92634 -2.81799,-2.73116 -4.62806,-5.67612 -5.40869,-8.79986 -0.29296,-1.17228 -0.3959,-3.07058 -0.22451,-4.14032 0.48964,-3.05606 2.29192,-5.59447 4.80799,-6.77182 1.92283,-0.89976 4.477,-0.87982 6.4909,0.0507 2.29393,1.05986 4.06409,3.29587 4.58592,5.79279 0.0768,0.36782 0.17395,1.38492 0.21573,2.26023 0.0858,1.79611 0.2251,2.32044 0.83027,3.12378 0.96974,1.28731 2.39517,1.89916 3.92973,1.6868 1.60038,-0.22147 2.99155,-1.52747 3.43318,-3.22301 0.1682,-0.64573 0.18697,-2.08377 0.0444,-3.39336 -0.45704,-4.19579 -2.27929,-8.08517 -5.14344,-10.97807 -5.65545,-5.71222 -14.43938,-6.33912 -20.8959,-1.49133 -1.1192,0.84033 -2.78512,2.53486 -3.54971,3.61065 -4.42513,6.22622 -4.34583,14.4653 0.1988,20.65693 0.60001,0.81744 0.74028,1.26326 0.56478,1.79504 -0.13661,0.4139 -0.76504,0.98665 -1.10294,1.00519 -0.91318,0.0501 -1.16837,-0.0974 -1.91962,-1.11009 -3.5771,-4.82176 -4.84907,-11.23155 -3.38793,-17.07274 1.44418,-5.7734 5.21651,-10.54029 10.38645,-13.12477 1.86119,-0.93041 3.56069,-1.46603 5.75612,-1.8141 1.31836,-0.20902 4.08279,-0.20655 5.44409,0.005 5.39099,0.83726 10.06842,3.89048 13.20171,8.61748 1.66334,2.50937 2.83558,5.58666 3.30262,8.6698 0.21883,1.44454 0.29337,3.75251 0.14997,4.64271 -0.27159,1.68585 -1.04028,3.14381 -2.2629,4.29198 -1.36783,1.28455 -2.66083,1.82287 -4.55643,1.89702 -1.34165,0.0524 -2.07911,-0.086 -3.20068,-0.60084 -1.48313,-0.68084 -2.68002,-1.85468 -3.42161,-3.35571 -0.58634,-1.1868 -0.70064,-1.714 -0.7915,-3.65101 -0.0599,-1.27706 -0.12594,-1.83242 -0.27274,-2.29357 -0.51993,-1.63322 -1.73169,-2.88941 -3.3201,-3.4418 -0.88503,-0.30779 -2.17966,-0.32085 -2.99982,-0.0303 -1.63794,0.58032 -3.0193,2.22524 -3.46606,4.12736 -0.19928,0.84841 -0.18333,2.38658 0.035,3.37016 0.58114,2.61883 2.18505,5.20768 4.76417,7.68984 1.82027,1.75184 3.56647,2.87471 4.76802,3.06602 1.08704,0.17309 1.47423,0.56908 1.47423,1.50777 0,0.72033 -0.17343,1.02105 -0.75507,1.30925 -0.4407,0.21836 -0.91432,0.23089 -1.61365,0.0427 z m 5.60411,-2.85327 c -4.20088,-0.57591 -8.63124,-4.78778 -10.24792,-9.7425 -0.43447,-1.33153 -0.62065,-2.34004 -0.6808,-3.68782 -0.0477,-1.0694 -0.0396,-1.13871 0.17058,-1.44243 0.47622,-0.68833 1.09044,-0.89772 1.81814,-0.61982 0.68699,0.26237 0.88677,0.65695 0.9832,1.94193 0.13221,1.76192 0.42664,2.88355 1.17183,4.4641 0.55395,1.17492 1.29618,2.27149 2.15651,3.18604 1.72246,1.83097 3.49233,2.81514 5.34414,2.97168 1.37289,0.11605 2.04881,1.05541 1.53025,2.12663 -0.3585,0.74055 -1.0067,0.97208 -2.24593,0.80219 z m -29.54965,-25.73059 c -0.63097,-0.38477 -0.90282,-1.03463 -0.70665,-1.68933 0.2139,-0.71399 1.86762,-2.80817 3.48514,-4.41344 3.70242,-3.67434 8.29734,-6.01521 13.618,-6.93764 1.65021,-0.2861 5.66924,-0.31027 7.34334,-0.0441 5.32659,0.84666 10.24074,3.34958 13.99468,7.12789 1.62891,1.63949 3.25637,3.75792 3.37571,4.39412 0.17129,0.91299 -0.52991,1.74005 -1.47452,1.73924 -0.59839,-7.1e-4 -0.90824,-0.2464 -1.79068,-1.42094 -2.32076,-3.08899 -4.94929,-5.29964 -8.16061,-6.8633 -2.01964,-0.9834 -3.7836,-1.55712 -6.085,-1.97911 -1.35184,-0.24787 -5.48211,-0.24787 -6.83393,0 -5.89125,1.08024 -10.65902,4.03777 -14.24568,8.83691 -0.43778,0.58576 -0.92919,1.14626 -1.09204,1.24555 -0.38398,0.23414 -1.0475,0.2361 -1.42776,0.004 z m 2.72315,-9.6997 c -0.67009,-0.23706 -1.07467,-0.96695 -0.94188,-1.69917 0.0755,-0.41674 0.71942,-1.08519 2.034,-2.11168 3.83398,-2.99378 8.48316,-4.91366 13.37147,-5.52175 1.4312,-0.17804 4.91174,-0.15053 6.36586,0.0504 4.44985,0.61461 8.50151,2.22528 12.1232,4.81936 1.04404,0.7478 2.18226,1.69047 2.55836,2.11883 0.74891,0.85294 0.2899,2.15919 -0.85338,2.42862 -0.49464,0.11658 -0.94013,-0.10298 -1.99412,-0.98283 -5.50655,-4.59665 -12.42975,-6.46285 -19.37011,-5.22137 -3.93976,0.70475 -7.85879,2.55432 -10.99982,5.1913 -0.9017,0.75702 -1.41115,1.06085 -1.77869,1.06085 -0.0773,0 -0.30894,-0.0596 -0.51489,-0.13247 z"
       id="path1169" />
  </g>
</svg>
