<?xml version="1.0" encoding="UTF-8" standalone="no"?>
<svg
   width="61.599751mm"
   height="61.599751mm"
   viewBox="0 0 61.59975 61.59975"
   version="1.1"
   id="svg8"
   inkscape:version="1.1.1 (3bf5ae0d25, 2021-09-20)"
   sodipodi:docname="contact_id.svg"
   xmlns:inkscape="http://www.inkscape.org/namespaces/inkscape"
   xmlns:sodipodi="http://sodipodi.sourceforge.net/DTD/sodipodi-0.dtd"
   xmlns="http://www.w3.org/2000/svg"
   xmlns:svg="http://www.w3.org/2000/svg"
   xmlns:rdf="http://www.w3.org/1999/02/22-rdf-syntax-ns#"
   xmlns:cc="http://creativecommons.org/ns#"
   xmlns:dc="http://purl.org/dc/elements/1.1/">
  <defs
     id="defs2" />
  <sodipodi:namedview
     id="base"
     pagecolor="#ffffff"
     bordercolor="#666666"
     borderopacity="1.0"
     inkscape:pageopacity="0.0"
     inkscape:pageshadow="2"
     inkscape:zoom="0.43852551"
     inkscape:cx="-155.0651"
     inkscape:cy="290.74705"
     inkscape:document-units="mm"
     inkscape:current-layer="layer1"
     inkscape:document-rotation="0"
     showgrid="false"
     inkscape:window-width="1920"
     inkscape:window-height="1030"
     inkscape:window-x="0"
     inkscape:window-y="22"
     inkscape:window-maximized="1"
     fit-margin-top="0"
     fit-margin-left="0"
     fit-margin-right="0"
     fit-margin-bottom="0"
     inkscape:pagecheckerboard="0" />
  <metadata
     id="metadata5">
    <rdf:RDF>
      <cc:Work
         rdf:about="">
        <dc:format>image/svg+xml</dc:format>
        <dc:type
           rdf:resource="http://purl.org/dc/dcmitype/StillImage" />
      </cc:Work>
    </rdf:RDF>
  </metadata>
  <g
     inkscape:label="Layer 1"
     inkscape:groupmode="layer"
     id="layer1"
     transform="translate(-211.89664,-91.450119)">
    <rect
       style="fill:#68a5c9;fill-opacity:1;stroke:none;stroke-width:8.30792"
       id="rect835-5-2-3"
       width="61.599751"
       height="61.599751"
       x="211.89664"
       y="91.450119"
       ry="12.743525" />
    <path
       style="fill:#ffffff;stroke-width:0.113731"
       d="m 224.20346,141.391 c -2.36663,-0.31465 -4.38484,-2.13453 -5.0042,-4.51242 -0.25414,-0.9757 -0.25414,-25.02264 0,-25.99834 0.52084,-1.9996 2.07979,-3.66912 4.02167,-4.30687 0.70885,-0.2328 1.01778,-0.25137 4.9231,-0.29589 l 4.16678,-0.0474 0.0737,-0.46109 c 0.13252,-0.82875 0.52274,-1.54417 1.15983,-2.12644 1.11337,-1.01755 0.67926,-0.97401 9.7104,-0.97401 9.03113,0 8.59701,-0.0435 9.71038,0.97401 0.6371,0.58227 1.02732,1.29769 1.15984,2.12644 l 0.0737,0.46109 4.16679,0.0474 c 3.8907,0.0443 4.21631,0.0638 4.91424,0.29316 1.96133,0.6446 3.50614,2.29638 4.03052,4.3096 0.25413,0.9757 0.25413,25.02264 0,25.99834 -0.5232,2.00871 -2.05013,3.64462 -4.03052,4.31817 l -0.74745,0.25421 -18.82261,0.0155 c -10.35243,0.008 -19.13023,-0.0254 -19.50623,-0.0755 z m 38.81732,-2.70296 c 0.7529,-0.402 1.35027,-1.0042 1.69747,-1.71122 l 0.31615,-0.64378 v -12.45363 -12.45362 l -0.31615,-0.64379 c -0.3472,-0.70701 -0.94457,-1.30922 -1.69747,-1.71122 -0.48002,-0.25631 -0.56062,-0.26141 -4.65276,-0.29443 l -4.16428,-0.0336 -0.0756,0.48853 c -0.19142,1.23514 -1.22532,2.49631 -2.37521,2.89732 -0.55217,0.19256 -1.14677,0.20705 -8.49806,0.20705 -9.03114,0 -8.59703,0.0435 -9.71039,-0.97401 -0.64092,-0.58576 -1.02736,-1.29793 -1.16235,-2.14212 l -0.0763,-0.47677 -4.16428,0.0336 c -4.09215,0.033 -4.17275,0.0381 -4.65276,0.29443 -0.75289,0.402 -1.35027,1.00421 -1.69747,1.71122 l -0.31614,0.64379 -0.0304,12.21857 c -0.0336,13.50706 -0.0632,12.91209 0.68916,13.90373 0.41131,0.54216 1.27608,1.17346 1.82799,1.33444 0.21039,0.0614 8.18956,0.0963 19.46351,0.0852 l 19.10693,-0.0188 z m -37.90993,-4.08941 c 0.30388,-2.92867 2.40505,-5.53903 5.21097,-6.47386 0.8211,-0.27356 1.11331,-0.31188 2.41275,-0.31643 1.25254,-0.004 1.6002,0.0353 2.27464,0.25931 2.95944,0.98321 5.04844,3.53855 5.35731,6.55326 l 0.0764,0.74541 h -1.19168 -1.19166 l -0.14027,-0.78485 c -0.37841,-2.11741 -1.87448,-3.73509 -3.95563,-4.27715 -2.88578,-0.75167 -5.90256,1.26885 -6.41174,4.29431 l -0.1292,0.76769 h -1.19575 -1.19577 z m 20.12038,-0.53306 c -0.46777,-0.20359 -0.72541,-0.58986 -0.72541,-1.08762 0,-0.50765 0.26135,-0.8881 0.75047,-1.09247 0.5609,-0.23435 13.63313,-0.23435 14.19404,0 0.48911,0.20437 0.75046,0.58482 0.75046,1.09247 0,0.50765 -0.26135,0.8881 -0.75046,1.09247 -0.55215,0.23071 -13.68817,0.22623 -14.2191,-0.005 z m 0,-7.27882 c -0.46777,-0.20359 -0.72541,-0.58987 -0.72541,-1.08763 0,-0.50764 0.26135,-0.88809 0.75047,-1.09246 0.5609,-0.23436 13.63313,-0.23436 14.19404,0 0.48911,0.20437 0.75046,0.58482 0.75046,1.09246 0,0.50765 -0.26135,0.8881 -0.75046,1.09247 -0.55215,0.2307 -13.68817,0.22623 -14.2191,-0.005 z m -13.97517,-0.22374 c -2.62244,-0.83289 -4.25348,-3.39091 -3.82323,-5.99614 0.435,-2.63403 2.65463,-4.53798 5.2853,-4.5336 1.50779,0.003 2.78102,0.52654 3.82835,1.57569 2.81334,2.8182 1.65927,7.59872 -2.14367,8.87984 -0.80628,0.27162 -2.40635,0.30935 -3.14675,0.0742 z m 2.93654,-2.6087 c 0.98924,-0.57975 1.46867,-1.41416 1.48064,-2.577 0.0209,-2.0317 -1.97225,-3.44689 -3.91992,-2.78325 -1.15408,0.39324 -1.93716,1.50996 -1.94912,2.77962 -0.0114,1.20909 0.79207,2.38027 1.9213,2.80065 0.676,0.25164 1.83927,0.1479 2.4671,-0.22002 z m 11.03863,-4.4464 c -0.46777,-0.20359 -0.72541,-0.58987 -0.72541,-1.08762 0,-0.50766 0.26135,-0.8881 0.75047,-1.09247 0.5609,-0.23435 13.63313,-0.23435 14.19404,0 0.48911,0.20437 0.75046,0.58481 0.75046,1.09247 0,0.50765 -0.26135,0.8881 -0.75046,1.09246 -0.55215,0.23071 -13.68817,0.22624 -14.2191,-0.005 z m 6.01089,-9.84111 c 0.48067,-0.37809 0.56434,-0.76035 0.52335,-2.39087 l -0.0377,-1.49909 -0.37141,-0.33158 -0.37143,-0.33159 h -7.73017 -7.73018 l -0.37141,0.33186 -0.37143,0.33187 v 1.72463 1.72464 l 0.37143,0.33187 0.37141,0.33186 h 7.71663 c 7.50007,0 7.7246,-0.006 8.0009,-0.2236 z"
       id="path1171" />
  </g>
</svg>
