<?xml version="1.0" encoding="UTF-8" standalone="no"?>
<svg
   width="61.599751mm"
   height="61.599751mm"
   viewBox="0 0 61.59975 61.59975"
   version="1.1"
   id="svg8"
   inkscape:version="1.1.1 (3bf5ae0d25, 2021-09-20)"
   sodipodi:docname="message.svg"
   xmlns:inkscape="http://www.inkscape.org/namespaces/inkscape"
   xmlns:sodipodi="http://sodipodi.sourceforge.net/DTD/sodipodi-0.dtd"
   xmlns="http://www.w3.org/2000/svg"
   xmlns:svg="http://www.w3.org/2000/svg"
   xmlns:rdf="http://www.w3.org/1999/02/22-rdf-syntax-ns#"
   xmlns:cc="http://creativecommons.org/ns#"
   xmlns:dc="http://purl.org/dc/elements/1.1/">
  <defs
     id="defs2" />
  <sodipodi:namedview
     id="base"
     pagecolor="#ffffff"
     bordercolor="#666666"
     borderopacity="1.0"
     inkscape:pageopacity="0.0"
     inkscape:pageshadow="2"
     inkscape:zoom="0.43852551"
     inkscape:cx="-157.34546"
     inkscape:cy="-274.78447"
     inkscape:document-units="mm"
     inkscape:current-layer="layer1"
     inkscape:document-rotation="0"
     showgrid="false"
     inkscape:window-width="1920"
     inkscape:window-height="1030"
     inkscape:window-x="0"
     inkscape:window-y="22"
     inkscape:window-maximized="1"
     fit-margin-top="0"
     fit-margin-left="0"
     fit-margin-right="0"
     fit-margin-bottom="0"
     inkscape:pagecheckerboard="0" />
  <metadata
     id="metadata5">
    <rdf:RDF>
      <cc:Work
         rdf:about="">
        <dc:format>image/svg+xml</dc:format>
        <dc:type
           rdf:resource="http://purl.org/dc/dcmitype/StillImage" />
      </cc:Work>
    </rdf:RDF>
  </metadata>
  <g
     inkscape:label="Layer 1"
     inkscape:groupmode="layer"
     id="layer1"
     transform="translate(-212.62384,-241.63841)">
    <rect
       style="fill:#9a68c7;fill-opacity:1;stroke:none;stroke-width:8.30792"
       id="rect835-5-2-7"
       width="61.599751"
       height="61.599751"
       x="212.62384"
       y="241.63841"
       ry="12.743525"
       inkscape:transform-center-x="-2.3089666"
       inkscape:transform-center-y="-12.550526" />
    <path
       style="fill:#ffffff;stroke-width:0.0844344"
       d="m 223.71447,293.83824 c -0.67706,-0.34352 -1.03893,-0.99545 -0.93015,-1.67573 0.0302,-0.18865 0.67809,-2.27959 1.43984,-4.64652 l 1.38498,-4.30353 -0.471,-0.9386 c -4.25659,-8.4824 -2.68243,-18.47942 3.95496,-25.11681 1.69895,-1.69895 3.49574,-2.98973 5.65115,-4.05968 2.11384,-1.04932 4.37629,-1.75422 6.70625,-2.08943 1.39886,-0.20126 4.42712,-0.20126 5.82597,0 4.72069,0.67917 9.03358,2.82528 12.35741,6.14911 1.69895,1.69895 2.98973,3.49574 4.05968,5.65116 1.04932,2.11383 1.75422,4.37628 2.08943,6.70625 0.20126,1.39885 0.20126,4.42711 0,5.82597 -0.67917,4.72069 -2.82528,9.03357 -6.14911,12.3574 -1.69895,1.69895 -3.49574,2.98973 -5.65116,4.05968 -6.18024,3.0679 -13.2188,3.03003 -19.46566,-0.10472 l -0.93859,-0.471 -4.33083,1.39377 c -2.38196,0.76658 -4.50529,1.41302 -4.71851,1.43656 -0.30593,0.0338 -0.4777,-0.003 -0.81466,-0.17388 z m 23.3864,-3.37831 c 3.91552,-0.6198 7.32355,-2.3571 10.13077,-5.16434 2.81799,-2.81798 4.52437,-6.17262 5.17544,-10.1746 0.19818,-1.21815 0.19818,-4.16894 0,-5.3871 -0.65107,-4.00198 -2.35745,-7.35662 -5.17544,-10.1746 -2.81798,-2.818 -6.17262,-4.52437 -10.1746,-5.17544 -1.21816,-0.19818 -4.16895,-0.19818 -5.3871,0 -4.00198,0.65107 -7.35662,2.35744 -10.1746,5.17544 -3.3424,3.34238 -5.15333,7.48935 -5.34285,12.2349 -0.13429,3.36248 0.66427,6.60061 2.38968,9.69006 0.53107,0.95093 0.57595,1.07004 0.56424,1.49749 -0.009,0.33974 -0.28515,1.30228 -1.02767,3.5861 -0.55822,1.71694 -1.00649,3.13017 -0.99615,3.1405 0.0103,0.0103 1.42356,-0.43793 3.1405,-0.99615 2.28382,-0.74252 3.24636,-1.01836 3.5861,-1.02767 0.42745,-0.0117 0.54656,0.0332 1.49749,0.56424 2.30217,1.28573 4.53699,2.00889 7.19925,2.32963 0.89824,0.10822 3.60354,0.0385 4.59494,-0.11846 z m -11.81803,-16.02908 c -1.52999,-0.61635 -1.95103,-2.36475 -0.83758,-3.47819 0.42144,-0.42144 0.84962,-0.59386 1.47479,-0.59386 1.20479,0 2.06865,0.86386 2.06865,2.06864 0,0.8498 -0.42888,1.53434 -1.19025,1.89978 -0.40078,0.19237 -1.16552,0.24466 -1.51561,0.10363 z m 8.44344,0 c -1.52999,-0.61635 -1.95102,-2.36475 -0.83758,-3.47819 0.42144,-0.42144 0.84962,-0.59386 1.47479,-0.59386 1.20478,0 2.06864,0.86386 2.06864,2.06864 0,0.8498 -0.42887,1.53434 -1.19024,1.89978 -0.40078,0.19237 -1.16552,0.24466 -1.51561,0.10363 z m 8.44343,0 c -1.52999,-0.61635 -1.95102,-2.36475 -0.83757,-3.47819 0.42144,-0.42144 0.84962,-0.59386 1.47479,-0.59386 1.20478,0 2.06863,0.86386 2.06863,2.06864 0,0.8498 -0.42887,1.53434 -1.19022,1.89978 -0.40079,0.19237 -1.16553,0.24466 -1.51563,0.10363 z"
       id="path1173" />
  </g>
</svg>
