<?xml version="1.0" encoding="UTF-8" standalone="no"?>
<svg
   width="61.599751mm"
   height="61.599751mm"
   viewBox="0 0 61.599751 61.599751"
   version="1.1"
   id="svg8"
   xmlns="http://www.w3.org/2000/svg"
   xmlns:svg="http://www.w3.org/2000/svg"
   xmlns:rdf="http://www.w3.org/1999/02/22-rdf-syntax-ns#"
   xmlns:cc="http://creativecommons.org/ns#"
   xmlns:dc="http://purl.org/dc/elements/1.1/">
  <defs
     id="defs2" />
  <metadata
     id="metadata5">
    <rdf:RDF>
      <cc:Work
         rdf:about="">
        <dc:format>image/svg+xml</dc:format>
        <dc:type
           rdf:resource="http://purl.org/dc/dcmitype/StillImage" />
      </cc:Work>
    </rdf:RDF>
  </metadata>
  <g
     id="layer1"
     transform="translate(-53.142063,-21.62578)">
    <rect
       style="fill:#2f79f5;fill-opacity:1;stroke:none;stroke-width:8.30792"
       id="rect835"
       width="61.599751"
       height="61.599751"
       x="53.142063"
       y="21.62578"
       ry="12.743525" />
    <g
       style="fill:none;stroke:#ffffff"
       id="g113"
       transform="matrix(2.2622909,0,0,2.2622909,58.310079,25.18868)">
      <path
         d="M 3,7.5 V 5 C 3,3.89543 3.89543,3 5,3 h 11.1716 c 0.5304,0 1.0391,0.21071 1.4142,0.58579 l 2.8284,2.82842 C 20.7893,6.78929 21,7.29799 21,7.82843 V 19 c 0,1.1046 -0.8954,2 -2,2 H 5 C 3.89543,21 3,20.1046 3,19 v -2.5"
         stroke="#ffffff"
         stroke-width="1.5"
         stroke-linecap="round"
         stroke-linejoin="round"
         id="path89"
         style="stroke:#ffffff" />
      <path
         d="M 6,21 V 17"
         stroke="#ffffff"
         stroke-width="1.5"
         stroke-linecap="round"
         stroke-linejoin="round"
         id="path91"
         style="stroke:#ffffff" />
      <path
         d="M 18,21 V 13.6 C 18,13.2686 17.7314,13 17.4,13 H 15"
         stroke="#ffffff"
         stroke-width="1.5"
         stroke-linecap="round"
         stroke-linejoin="round"
         id="path93"
         style="stroke:#ffffff" />
      <path
         d="M 16,3 V 8.4 C 16,8.73137 15.7314,9 15.4,9 h -1.9"
         stroke="#ffffff"
         stroke-width="1.5"
         stroke-linecap="round"
         stroke-linejoin="round"
         id="path95"
         style="stroke:#ffffff" />
      <path
         d="M 8,3 V 6"
         stroke="#ffffff"
         stroke-width="1.5"
         stroke-linecap="round"
         stroke-linejoin="round"
         id="path97"
         style="stroke:#ffffff" />
      <path
         d="m 1,12 h 11 m 0,0 -3,-3 m 3,3 -3,3"
         stroke="#ffffff"
         stroke-width="1.5"
         stroke-linecap="round"
         stroke-linejoin="round"
         id="path99"
         style="stroke:#ffffff" />
    </g>
  </g>
</svg>
