<?xml version="1.0" encoding="UTF-8" standalone="no"?>
<svg
   width="61.599751mm"
   height="61.599751mm"
   viewBox="0 0 61.599751 61.599751"
   version="1.1"
   id="svg8"
   inkscape:version="1.1.1 (3bf5ae0d25, 2021-09-20)"
   sodipodi:docname="settings.svg"
   xmlns:inkscape="http://www.inkscape.org/namespaces/inkscape"
   xmlns:sodipodi="http://sodipodi.sourceforge.net/DTD/sodipodi-0.dtd"
   xmlns="http://www.w3.org/2000/svg"
   xmlns:svg="http://www.w3.org/2000/svg"
   xmlns:rdf="http://www.w3.org/1999/02/22-rdf-syntax-ns#"
   xmlns:cc="http://creativecommons.org/ns#"
   xmlns:dc="http://purl.org/dc/elements/1.1/">
  <defs
     id="defs2" />
  <sodipodi:namedview
     id="base"
     pagecolor="#ffffff"
     bordercolor="#666666"
     borderopacity="1.0"
     inkscape:pageopacity="0.0"
     inkscape:pageshadow="2"
     inkscape:zoom="0.57848045"
     inkscape:cx="458.09673"
     inkscape:cy="241.14903"
     inkscape:document-units="mm"
     inkscape:current-layer="layer1"
     inkscape:document-rotation="0"
     showgrid="false"
     inkscape:window-width="1920"
     inkscape:window-height="1030"
     inkscape:window-x="0"
     inkscape:window-y="22"
     inkscape:window-maximized="1"
     inkscape:pagecheckerboard="0"
     fit-margin-top="0"
     fit-margin-left="0"
     fit-margin-right="0"
     fit-margin-bottom="0" />
  <metadata
     id="metadata5">
    <rdf:RDF>
      <cc:Work
         rdf:about="">
        <dc:format>image/svg+xml</dc:format>
        <dc:type
           rdf:resource="http://purl.org/dc/dcmitype/StillImage" />
      </cc:Work>
    </rdf:RDF>
  </metadata>
  <g
     inkscape:label="Layer 1"
     inkscape:groupmode="layer"
     id="layer1"
     transform="translate(-53.596649,-91.766556)">
    <rect
       style="fill:#66c265;fill-opacity:1;stroke:none;stroke-width:8.30792"
       id="rect835-3"
       width="61.599751"
       height="61.599751"
       x="53.596649"
       y="91.766556"
       ry="12.743525" />
    <path
       style="fill:#ffffff;stroke-width:0.105053"
       d="m 81.955787,146.12817 c -1.61593,-0.39171 -2.953644,-1.59058 -3.556404,-3.18728 -0.16644,-0.4409 -0.24135,-0.95886 -0.29815,-2.06147 -0.0648,-1.25804 -0.11477,-1.55653 -0.34294,-2.04854 -0.56991,-1.22888 -1.67282,-1.93252 -3.03537,-1.93651 -0.77646,-0.002 -0.83054,0.0151 -2.20612,0.71073 -1.68358,0.85133 -2.39141,1.01329 -3.5896,0.82134 -1.03502,-0.16582 -2.12019,-0.71131 -2.82561,-1.42037 -0.6747,-0.6782 -2.62136,-3.99548 -2.93388,-4.9996 -0.40654,-1.30621 -0.19268,-2.99188 0.5226,-4.11919 0.47926,-0.75534 1.01366,-1.23204 2.19477,-1.95781 1.52217,-0.93534 2.1225,-1.83191 2.1225,-3.16986 0,-1.33795 -0.60033,-2.23452 -2.1225,-3.16986 -1.18111,-0.72577 -1.71551,-1.20247 -2.19477,-1.95781 -0.71609,-1.12858 -0.92919,-2.81283 -0.52159,-4.12243 0.30404,-0.97689 2.25524,-4.31631 2.91496,-4.98887 0.68715,-0.70052 1.80394,-1.26131 2.84352,-1.42786 1.19819,-0.19195 1.90602,-0.03 3.5896,0.82134 1.37558,0.69559 1.42966,0.71301 2.20612,0.71073 1.36255,-0.004 2.46546,-0.70763 3.03537,-1.93651 0.22817,-0.49201 0.27814,-0.7905 0.34294,-2.04854 0.0568,-1.10261 0.13171,-1.62057 0.29815,-2.06146 0.61202,-1.62123 1.943854,-2.800724 3.604534,-3.192264 0.77825,-0.18349 4.5497,-0.22048 5.45044,-0.0535 1.74771,0.32407 3.35703,1.787274 3.87087,3.519414 0.0686,0.23111 0.15965,1.05856 0.20243,1.83877 0.0892,1.62747 0.31044,2.27482 1.0146,2.96905 0.66374,0.65438 1.42933,0.96734 2.36642,0.96734 0.77533,0 0.83419,-0.019 2.20672,-0.71307 1.68358,-0.85133 2.39141,-1.01329 3.589603,-0.82134 1.03502,0.16582 2.1202,0.71131 2.82561,1.42037 0.67471,0.6782 2.62136,3.99548 2.93388,4.9996 0.40666,1.30659 0.19268,2.99187 -0.5231,4.11998 -0.46476,0.73248 -1.05621,1.2576 -2.22637,1.9767 -1.48778,0.91427 -2.0904,1.8224 -2.0904,3.15018 0,1.32777 0.60262,2.23591 2.0904,3.15018 1.17016,0.7191 1.76161,1.24422 2.22637,1.9767 0.71578,1.12811 0.92976,2.81339 0.5231,4.11998 -0.31129,1.00018 -2.25752,4.31028 -2.93821,4.99724 -0.70871,0.71523 -1.78129,1.25612 -2.82128,1.42273 -1.198193,0.19195 -1.906023,0.03 -3.589603,-0.82134 -1.37253,-0.69405 -1.43139,-0.71307 -2.20672,-0.71307 -0.93841,0 -1.70704,0.31472 -2.36247,0.96734 -0.74125,0.73805 -0.92127,1.25561 -1.01456,2.91687 -0.1179,2.0994 -0.36986,2.79742 -1.41863,3.93022 -0.6685,0.72206 -1.71633,1.30541 -2.65866,1.48014 -0.85761,0.15903 -4.77317,0.11742 -5.49857,-0.0584 z m 5.01012,-15.23185 c 2.89331,-0.78945 5.19315,-3.10335 6.00502,-6.04172 0.2608,-0.9439 0.2608,-3.24608 0,-4.18998 -0.81807,-2.96082 -3.09902,-5.24176 -6.05984,-6.05983 -0.9408,-0.25994 -3.24268,-0.2606 -4.19605,-10e-4 -2.89646,0.7881 -5.266844,3.15849 -6.054954,6.05495 -0.2594,0.95336 -0.25875,3.25524 0.001,4.19605 0.90629,3.28008 3.603374,5.70331 6.946714,6.24133 0.60287,0.097 2.73536,-0.0297 3.35792,-0.19961 z"
       id="path1070" />
  </g>
</svg>
