<?xml version="1.0" encoding="UTF-8" standalone="no"?>
<svg
   width="61.599751mm"
   height="61.599751mm"
   viewBox="0 0 61.59975 61.59975"
   version="1.1"
   id="svg8"
   inkscape:version="1.1.1 (3bf5ae0d25, 2021-09-20)"
   sodipodi:docname="brush.svg"
   xmlns:inkscape="http://www.inkscape.org/namespaces/inkscape"
   xmlns:sodipodi="http://sodipodi.sourceforge.net/DTD/sodipodi-0.dtd"
   xmlns="http://www.w3.org/2000/svg"
   xmlns:svg="http://www.w3.org/2000/svg"
   xmlns:rdf="http://www.w3.org/1999/02/22-rdf-syntax-ns#"
   xmlns:cc="http://creativecommons.org/ns#"
   xmlns:dc="http://purl.org/dc/elements/1.1/">
  <defs
     id="defs2" />
  <sodipodi:namedview
     id="base"
     pagecolor="#ffffff"
     bordercolor="#666666"
     borderopacity="1.0"
     inkscape:pageopacity="0.0"
     inkscape:pageshadow="2"
     inkscape:zoom="0.43852551"
     inkscape:cx="-827.77396"
     inkscape:cy="51.308304"
     inkscape:document-units="mm"
     inkscape:current-layer="layer1"
     inkscape:document-rotation="0"
     showgrid="false"
     inkscape:window-width="1920"
     inkscape:window-height="1030"
     inkscape:window-x="0"
     inkscape:window-y="22"
     inkscape:window-maximized="1"
     fit-margin-top="0"
     fit-margin-left="0"
     fit-margin-right="0"
     fit-margin-bottom="0"
     inkscape:pagecheckerboard="0" />
  <metadata
     id="metadata5">
    <rdf:RDF>
      <cc:Work
         rdf:about="">
        <dc:format>image/svg+xml</dc:format>
        <dc:type
           rdf:resource="http://purl.org/dc/dcmitype/StillImage" />
      </cc:Work>
    </rdf:RDF>
  </metadata>
  <g
     inkscape:label="Layer 1"
     inkscape:groupmode="layer"
     id="layer1"
     transform="translate(-287.75424,-167.07472)">
    <rect
       style="fill:#2f79f5;fill-opacity:1;stroke:none;stroke-width:8.30792"
       id="rect835-5-2-6-6"
       width="61.599751"
       height="61.599751"
       x="287.75424"
       y="167.07472"
       ry="12.743525" />
    <path
       style="fill:#ffffff;stroke-width:0.0939955"
       d="m 302.13933,221.78568 c -2.70315,-0.51332 -4.95623,-2.26276 -6.14457,-4.77104 -0.55453,-1.17049 -0.72923,-2.00261 -0.73497,-3.5008 -0.007,-1.89371 0.36468,-3.1823 1.35751,-4.70315 1.45643,-2.23103 3.80654,-3.56402 6.6787,-3.78818 0.85486,-0.0667 1.09847,-0.12548 1.69123,-0.40789 1.90563,-0.90793 4.16143,-3.26946 4.93725,-5.16863 0.25545,-0.62535 0.38389,-1.57349 0.273,-2.0153 -0.036,-0.14355 -0.39455,-0.6019 -0.79671,-1.01855 -1.17739,-1.2198 -1.6049,-1.96734 -1.84906,-3.2332 -0.16772,-0.86956 -0.16586,-1.39585 0.008,-2.2159 0.18808,-0.88782 0.61245,-1.75485 1.21968,-2.49198 0.28005,-0.33996 3.60982,-3.71479 7.39946,-7.4996 4.81147,-4.80533 6.9957,-6.92515 7.23974,-7.0262 0.44555,-0.18451 0.75791,-0.18306 1.13564,0.005 0.41613,0.20748 18.36274,18.14027 18.58928,18.57498 0.21952,0.42122 0.22883,0.71853 0.0371,1.1817 -0.10105,0.24404 -2.22086,2.42827 -7.0262,7.23973 -3.78482,3.78965 -7.15963,7.11941 -7.4996,7.39947 -1.57147,1.29456 -3.51843,1.66405 -5.41874,1.02836 -0.95593,-0.31977 -1.4964,-0.67068 -2.48031,-1.61041 -0.44522,-0.42523 -0.92472,-0.80207 -1.06555,-0.83741 -1.55438,-0.39012 -4.4533,1.34725 -6.27735,3.76213 -0.89774,1.18853 -1.1986,1.90783 -1.30355,3.11641 -0.10781,1.24164 -0.2806,2.00566 -0.65933,2.91543 -1.00686,2.41858 -3.14137,4.26512 -5.70439,4.93483 -0.96185,0.25133 -2.64703,0.31204 -3.60605,0.12993 z m 2.87342,-2.86477 c 0.39931,-0.10212 0.98768,-0.32276 1.30748,-0.49031 0.76252,-0.39949 1.90287,-1.53984 2.30236,-2.30236 0.37297,-0.7119 0.67544,-1.85413 0.67763,-2.55894 0.005,-1.78083 1.05292,-3.84511 2.95065,-5.8154 3.09984,-3.21836 6.56874,-4.44723 9.0238,-3.19669 0.20218,0.10298 0.75463,0.55595 1.22769,1.0066 1.11294,1.06025 1.54482,1.27691 2.54055,1.2745 1.15725,-0.003 1.29029,-0.0992 4.30012,-3.11737 l 2.60818,-2.61539 -7.96637,-7.96595 -7.96637,-7.96595 -2.64621,2.65559 c -1.69887,1.70489 -2.72448,2.80701 -2.86484,3.07857 -0.17528,0.33913 -0.21866,0.57205 -0.21884,1.17495 -2.8e-4,1.01528 0.19473,1.4084 1.24638,2.51232 0.90883,0.95402 1.1626,1.35852 1.38292,2.20436 0.42199,1.62015 -0.16026,3.78007 -1.5745,5.84063 -0.68299,0.99515 -2.44688,2.7899 -3.43268,3.49275 -1.55966,1.11198 -2.69463,1.55856 -4.29887,1.69147 -1.80203,0.1493 -2.97422,0.67014 -4.02902,1.79023 -1.34341,1.42657 -1.85267,3.35051 -1.37805,5.20624 0.10213,0.3993 0.32277,0.98767 0.49031,1.30748 0.39988,0.76327 1.5398,1.90285 2.30384,2.30315 1.24694,0.6533 2.68684,0.82892 4.01384,0.48952 z m -1.97206,-4.23394 c -0.4413,-0.21844 -0.7918,-0.75854 -0.7918,-1.22013 0,-0.68467 0.72527,-1.40993 1.40994,-1.40993 0.67505,0 1.40994,0.73488 1.40994,1.40993 0,0.44814 -0.36485,1.0118 -0.7873,1.2163 -0.50118,0.24261 -0.75679,0.24341 -1.24078,0.004 z m 33.89296,-18.56262 2.96,-2.96112 -7.96579,-7.96579 -7.96579,-7.96579 -2.98423,2.98423 -2.98423,2.98424 7.94226,7.94267 c 4.36822,4.36847 7.96374,7.94267 7.99001,7.94267 0.0262,0 1.37976,-1.3325 3.00777,-2.96111 z"
       id="path2706" />
  </g>
</svg>
