<?xml version="1.0" encoding="UTF-8" standalone="no"?>
<svg
   width="61.599751mm"
   height="61.599751mm"
   viewBox="0 0 61.59975 61.59975"
   version="1.1"
   id="svg8"
   inkscape:version="1.1.1 (3bf5ae0d25, 2021-09-20)"
   sodipodi:docname="change_image.svg"
   xmlns:inkscape="http://www.inkscape.org/namespaces/inkscape"
   xmlns:sodipodi="http://sodipodi.sourceforge.net/DTD/sodipodi-0.dtd"
   xmlns="http://www.w3.org/2000/svg"
   xmlns:svg="http://www.w3.org/2000/svg"
   xmlns:rdf="http://www.w3.org/1999/02/22-rdf-syntax-ns#"
   xmlns:cc="http://creativecommons.org/ns#"
   xmlns:dc="http://purl.org/dc/elements/1.1/">
  <defs
     id="defs2" />
  <sodipodi:namedview
     id="base"
     pagecolor="#ffffff"
     bordercolor="#666666"
     borderopacity="1.0"
     inkscape:pageopacity="0.0"
     inkscape:pageshadow="2"
     inkscape:zoom="0.43852551"
     inkscape:cx="-834.61507"
     inkscape:cy="384.24218"
     inkscape:document-units="mm"
     inkscape:current-layer="layer1"
     inkscape:document-rotation="0"
     showgrid="false"
     inkscape:window-width="1920"
     inkscape:window-height="1030"
     inkscape:window-x="0"
     inkscape:window-y="22"
     inkscape:window-maximized="1"
     fit-margin-top="0"
     fit-margin-left="0"
     fit-margin-right="0"
     fit-margin-bottom="0"
     inkscape:pagecheckerboard="0" />
  <metadata
     id="metadata5">
    <rdf:RDF>
      <cc:Work
         rdf:about="">
        <dc:format>image/svg+xml</dc:format>
        <dc:type
           rdf:resource="http://purl.org/dc/dcmitype/StillImage" />
      </cc:Work>
    </rdf:RDF>
  </metadata>
  <g
     inkscape:label="Layer 1"
     inkscape:groupmode="layer"
     id="layer1"
     transform="translate(-369.20566,-93.090797)">
    <rect
       style="fill:#9a68c7;fill-opacity:1;stroke:none;stroke-width:8.30792"
       id="rect835-5-2-7-1"
       width="61.599751"
       height="61.599751"
       x="369.20566"
       y="93.090797"
       ry="12.743525"
       inkscape:transform-center-x="-2.3089666"
       inkscape:transform-center-y="-12.550526" />
    <path
       style="fill:#ffffff;stroke-width:0.0886041"
       d="m 390.84954,146.58976 c -1.52113,-0.29873 -2.81411,-1.61831 -3.10892,-3.17286 -0.0519,-0.27371 -0.0904,-1.96285 -0.0904,-3.96466 v -3.48779 h -3.48779 c -2.00181,0 -3.69095,-0.0385 -3.96466,-0.0904 -1.5913,-0.30178 -2.87648,-1.58695 -3.17826,-3.17825 -0.12454,-0.65677 -0.12454,-27.45019 0,-28.10696 0.30178,-1.59129 1.58696,-2.87647 3.17826,-3.17825 0.65677,-0.12455 27.45019,-0.12455 28.10696,0 1.5913,0.30178 2.87647,1.58696 3.17825,3.17825 0.0519,0.27371 0.0904,1.96285 0.0904,3.96467 v 3.48778 h 3.48778 c 2.00182,0 3.69096,0.0386 3.96467,0.0904 1.5913,0.30178 2.87647,1.58696 3.17825,3.17825 0.12455,0.65677 0.12455,27.45019 0,28.10696 -0.30178,1.5913 -1.58695,2.87647 -3.17825,3.17825 -0.5917,0.11222 -27.60378,0.10704 -28.17629,-0.006 z m 28.04422,-2.70613 c 0.1667,-0.0791 0.39202,-0.2685 0.50071,-0.42087 l 0.19761,-0.27705 0.023,-13.71854 c 0.0255,-15.20215 0.0671,-14.09045 -0.54338,-14.52587 -0.27419,-0.19559 -0.31416,-0.19787 -3.88767,-0.22262 l -3.61063,-0.025 v 1.33192 1.33192 h 2.14283 c 1.98258,0 2.17103,0.0136 2.5199,0.18254 0.27377,0.13252 0.42708,0.28583 0.5596,0.5596 0.18128,0.37446 0.18254,0.45227 0.18254,11.26377 0,10.81149 -0.001,10.8893 -0.18254,11.26376 -0.13252,0.27377 -0.28583,0.42708 -0.5596,0.55961 -0.37446,0.18127 -0.45227,0.18253 -11.26377,0.18253 -10.81149,0 -10.8893,-0.001 -11.26376,-0.18253 -0.27377,-0.13253 -0.42708,-0.28584 -0.55961,-0.55961 -0.16888,-0.34886 -0.18253,-0.53731 -0.18253,-2.51989 v -2.14285 h -1.33191 -1.33192 l 0.025,3.61064 c 0.0247,3.56751 0.0274,3.61392 0.22154,3.88617 0.43175,0.60525 -0.67423,0.56195 14.40981,0.56418 12.39628,0.002 13.65916,-0.011 13.9348,-0.14181 z m -4.57364,-14.52021 v -9.34777 h -1.37337 -1.37337 v 6.10161 c 0,3.77972 -0.0344,6.28309 -0.0904,6.5785 -0.30178,1.5913 -1.58695,2.87647 -3.17825,3.17825 -0.29541,0.056 -2.79878,0.0904 -6.5785,0.0904 h -6.10161 v 1.37337 1.37337 h 9.34777 9.34777 z m -6.1475,3.79907 c 0.1667,-0.0791 0.39202,-0.2685 0.50071,-0.42087 l 0.19761,-0.27705 v -13.82229 -13.82229 l -0.19761,-0.27704 c -0.4332,-0.60732 0.65511,-0.5647 -14.42212,-0.5647 -15.07723,0 -13.98892,-0.0426 -14.42212,0.5647 l -0.19762,0.27704 v 13.82229 13.82229 l 0.19654,0.27554 c 0.43174,0.60526 -0.67423,0.56196 14.40981,0.56419 12.39628,0.002 13.65916,-0.011 13.9348,-0.14181 z m -25.19183,-2.69862 c -0.26568,-0.13151 -0.42402,-0.2915 -0.55377,-0.55952 -0.18019,-0.37223 -0.18172,-0.46661 -0.18172,-11.26207 0,-10.81149 0.001,-10.88931 0.18254,-11.26376 0.13253,-0.27377 0.28584,-0.42708 0.5596,-0.55961 0.37446,-0.18127 0.45228,-0.18253 11.26377,-0.18253 10.81149,0 10.88931,10e-4 11.26377,0.18253 0.27376,0.13253 0.42707,0.28584 0.55959,0.55961 0.18128,0.37445 0.18254,0.45227 0.18254,11.26376 0,10.81149 -0.001,10.88931 -0.18254,11.26377 -0.13252,0.27376 -0.28583,0.42707 -0.55959,0.5596 -0.37447,0.18128 -0.45215,0.18254 -11.2696,0.18247 -10.85132,-7e-5 -10.89392,-6.3e-4 -11.26459,-0.18425 z m 6.75145,-3.80275 1.32672,-1.32893 -1.06096,-1.06373 -1.06096,-1.06373 -2.01681,2.01537 c -1.9987,1.99729 -2.01679,2.01875 -2.01679,2.39266 v 0.37729 h 1.75105 1.75104 z m 13.86674,-0.37745 v -1.70637 l -1.9939,-1.99242 -1.99391,-1.99243 -3.6988,3.6988 -3.6988,3.6988 h 5.6927 5.69271 z m -14.9963,-6.18349 c 0.71915,-0.215 0.9347,-0.0804 2.74784,1.71565 l 1.61813,1.60291 2.945,-2.93345 c 3.25681,-3.24403 3.2987,-3.27533 4.07469,-3.04316 0.30619,0.0916 0.67884,0.41208 1.99361,1.71448 l 1.61703,1.60181 v -5.73196 -5.73195 h -9.34777 -9.34777 v 7.10545 7.10544 l 1.66134,-1.64632 c 1.35444,-1.34221 1.73089,-1.66711 2.0379,-1.7589 z m 3.62824,-2.86376 c -1.52592,-0.42911 -2.31245,-2.1639 -1.65841,-3.65781 0.21136,-0.48277 0.80322,-1.066 1.31747,-1.29826 0.5707,-0.25776 1.58223,-0.25776 2.15294,0 0.52661,0.23785 1.10471,0.81595 1.34256,1.34256 0.25776,0.57071 0.25776,1.58224 0,2.15295 -0.23409,0.51827 -0.81563,1.10564 -1.31216,1.32528 -0.50959,0.22541 -1.31234,0.28435 -1.8424,0.13528 z"
       id="path2534" />
  </g>
</svg>
