<?xml version="1.0" encoding="UTF-8" standalone="no"?>
<svg
   width="61.599751mm"
   height="61.599751mm"
   viewBox="0 0 61.59975 61.59975"
   version="1.1"
   id="svg8"
   inkscape:version="1.1.1 (3bf5ae0d25, 2021-09-20)"
   sodipodi:docname="change_font_size.svg"
   xmlns:inkscape="http://www.inkscape.org/namespaces/inkscape"
   xmlns:sodipodi="http://sodipodi.sourceforge.net/DTD/sodipodi-0.dtd"
   xmlns="http://www.w3.org/2000/svg"
   xmlns:svg="http://www.w3.org/2000/svg"
   xmlns:rdf="http://www.w3.org/1999/02/22-rdf-syntax-ns#"
   xmlns:cc="http://creativecommons.org/ns#"
   xmlns:dc="http://purl.org/dc/elements/1.1/">
  <defs
     id="defs2" />
  <sodipodi:namedview
     id="base"
     pagecolor="#ffffff"
     bordercolor="#666666"
     borderopacity="1.0"
     inkscape:pageopacity="0.0"
     inkscape:pageshadow="2"
     inkscape:zoom="0.43852551"
     inkscape:cx="-198.39211"
     inkscape:cy="320.39185"
     inkscape:document-units="mm"
     inkscape:current-layer="layer1"
     inkscape:document-rotation="0"
     showgrid="false"
     inkscape:window-width="1920"
     inkscape:window-height="1030"
     inkscape:window-x="0"
     inkscape:window-y="22"
     inkscape:window-maximized="1"
     fit-margin-top="0"
     fit-margin-left="0"
     fit-margin-right="0"
     fit-margin-bottom="0"
     inkscape:pagecheckerboard="0" />
  <metadata
     id="metadata5">
    <rdf:RDF>
      <cc:Work
         rdf:about="">
        <dc:format>image/svg+xml</dc:format>
        <dc:type
           rdf:resource="http://purl.org/dc/dcmitype/StillImage" />
      </cc:Work>
    </rdf:RDF>
  </metadata>
  <g
     inkscape:label="Layer 1"
     inkscape:groupmode="layer"
     id="layer1"
     transform="translate(-441.66504,-18.009283)">
    <rect
       style="fill:#2f79f5;fill-opacity:1;stroke:none;stroke-width:8.30792"
       id="rect835-36"
       width="61.599751"
       height="61.599751"
       x="441.66504"
       y="18.009283"
       ry="12.743525" />
    <path
       style="fill:#ffffff;stroke-width:0.0951998"
       d="m 460.62507,67.644248 c -0.53449,-0.242437 -0.73657,-0.424181 -0.96133,-0.864539 -0.42297,-0.828723 -0.3133,-1.648326 0.31122,-2.325841 0.6063,-0.657763 0.87675,-0.705492 3.99767,-0.705492 h 2.64831 V 49.563588 35.378799 h -6.09279 -6.0928 l -0.002,0.9758 c -0.003,1.112168 -0.14305,1.536536 -0.6765,2.040959 -0.40683,0.384698 -0.76477,0.519125 -1.38248,0.519188 -0.78501,8e-5 -1.40057,-0.393656 -1.80719,-1.155948 -0.15934,-0.298708 -0.17774,-0.56997 -0.17774,-2.620385 0,-2.265903 0.002,-2.291584 0.24321,-2.759948 0.17281,-0.335917 0.37732,-0.555679 0.70653,-0.759213 l 0.4633,-0.286449 16.65435,-0.02459 c 11.41132,-0.01685 16.77126,0.0069 17.02571,0.0754 0.47688,0.12841 1.01771,0.604728 1.23852,1.090769 0.15211,0.334836 0.17362,0.662778 0.17546,2.675242 0.002,2.219361 -0.005,2.307208 -0.21942,2.713197 -0.12184,0.230765 -0.40299,0.547397 -0.6248,0.703625 -0.33836,0.238319 -0.51346,0.289584 -1.08749,0.318401 -0.64528,0.0324 -0.71097,0.01623 -1.15477,-0.284051 -0.73223,-0.495439 -0.90983,-0.922901 -0.90983,-2.189774 v -1.032225 h -6.0928 -6.09279 v 14.178425 14.178424 l 2.8322,0.03017 c 2.68685,0.02861 2.85173,0.04068 3.21299,0.2351 0.73121,0.393511 1.0948,0.98578 1.0948,1.783338 0,0.643665 -0.0898,0.889253 -0.4926,1.348091 -0.65573,0.746827 -0.14576,0.705452 -8.69418,0.705452 -7.45385,0 -7.62508,-0.0041 -8.04269,-0.193546 z m 20.33653,0.05828 c -1.35006,-0.481282 -1.75798,-2.398004 -0.71253,-3.348011 0.51476,-0.46777 0.82019,-0.547787 2.24646,-0.588542 l 1.3566,-0.03877 v -5.749008 -5.749009 h -1.51312 -1.51312 l -0.0339,0.74476 c -0.0281,0.617523 -0.0783,0.811796 -0.29354,1.137137 -0.79719,1.20459 -2.5861,1.204772 -3.38387,3.96e-4 -0.25864,-0.390491 -0.25979,-0.39971 -0.28908,-2.346305 -0.0244,-1.621432 -0.003,-2.022939 0.12456,-2.357451 0.19223,-0.503342 0.77399,-1.039214 1.27453,-1.173996 0.26095,-0.07027 2.74319,-0.09436 7.8832,-0.07652 8.31588,0.02886 7.73051,-0.01717 8.39239,0.659815 0.50549,0.517032 0.60934,1.06815 0.56823,3.015698 -0.0315,1.490927 -0.0584,1.724921 -0.23783,2.062519 -0.38086,0.716745 -1.00577,1.108365 -1.77845,1.11452 -1.21658,0.0097 -2.05335,-0.878944 -2.05793,-2.185519 l -0.002,-0.595037 h -1.5232 -1.5232 v 5.759596 5.759595 h 1.17487 c 1.42619,0 1.94713,0.134865 2.46167,0.637292 0.99191,0.968571 0.73818,2.585984 -0.50267,3.204326 l -0.50565,0.25198 -4.62231,-0.0042 c -3.67542,-0.0032 -4.69763,-0.03105 -4.99004,-0.135271 z"
       id="path1010" />
  </g>
</svg>
