<?xml version="1.0" encoding="UTF-8" standalone="no"?>
<svg
   width="61.599751mm"
   height="61.599751mm"
   viewBox="0 0 61.59975 61.59975"
   version="1.1"
   id="svg8"
   inkscape:version="1.1.1 (3bf5ae0d25, 2021-09-20)"
   sodipodi:docname="crown.svg"
   xmlns:inkscape="http://www.inkscape.org/namespaces/inkscape"
   xmlns:sodipodi="http://sodipodi.sourceforge.net/DTD/sodipodi-0.dtd"
   xmlns="http://www.w3.org/2000/svg"
   xmlns:svg="http://www.w3.org/2000/svg"
   xmlns:rdf="http://www.w3.org/1999/02/22-rdf-syntax-ns#"
   xmlns:cc="http://creativecommons.org/ns#"
   xmlns:dc="http://purl.org/dc/elements/1.1/">
  <defs
     id="defs2" />
  <sodipodi:namedview
     id="base"
     pagecolor="#ffffff"
     bordercolor="#666666"
     borderopacity="1.0"
     inkscape:pageopacity="0.0"
     inkscape:pageshadow="2"
     inkscape:zoom="0.43852551"
     inkscape:cx="-827.77396"
     inkscape:cy="-247.42004"
     inkscape:document-units="mm"
     inkscape:current-layer="layer1"
     inkscape:document-rotation="0"
     showgrid="false"
     inkscape:window-width="1920"
     inkscape:window-height="1030"
     inkscape:window-x="0"
     inkscape:window-y="22"
     inkscape:window-maximized="1"
     fit-margin-top="0"
     fit-margin-left="0"
     fit-margin-right="0"
     fit-margin-bottom="0"
     inkscape:pagecheckerboard="0" />
  <metadata
     id="metadata5">
    <rdf:RDF>
      <cc:Work
         rdf:about="">
        <dc:format>image/svg+xml</dc:format>
        <dc:type
           rdf:resource="http://purl.org/dc/dcmitype/StillImage" />
      </cc:Work>
    </rdf:RDF>
  </metadata>
  <g
     inkscape:label="Layer 1"
     inkscape:groupmode="layer"
     id="layer1"
     transform="translate(-287.74561,-242.56816)">
    <rect
       style="fill:#68a5c9;fill-opacity:1;stroke:none;stroke-width:8.30792"
       id="rect835-5-5-2"
       width="61.599751"
       height="61.599751"
       x="287.74561"
       y="242.56816"
       ry="12.743525" />
    <path
       style="fill:#ffffff;stroke-width:0.112056"
       d="m 301.98023,292.0121 c -1.08234,-0.6599 -1.08234,-2.25477 0,-2.91468 0.36015,-0.21958 0.59887,-0.22265 17.2297,-0.22265 16.63082,0 16.86954,0.003 17.22969,0.22265 1.08234,0.65991 1.08234,2.25478 0,2.91468 -0.36015,0.21958 -0.59887,0.22267 -17.22969,0.22267 -16.63083,0 -16.86955,-0.003 -17.2297,-0.22267 z m -1.1862,-6.77468 c -0.61709,-0.22102 -0.95355,-0.58547 -1.1381,-1.23277 -0.0887,-0.311 -1.09976,-4.3978 -2.24686,-9.08176 -1.88977,-7.71647 -2.08181,-8.58995 -2.04482,-9.30068 0.12825,-2.4635 2.55576,-4.23304 5.00199,-3.6462 0.34913,0.0837 1.84989,0.86229 3.90582,2.02619 1.83635,1.03958 3.37542,1.85356 3.42015,1.80883 0.0448,-0.0448 1.87405,-2.82849 4.06516,-6.18612 2.19111,-3.35764 4.18454,-6.34122 4.42984,-6.63018 0.29168,-0.34361 0.70679,-0.65377 1.19974,-0.89645 0.69359,-0.34145 0.83903,-0.37106 1.82298,-0.37106 0.98394,0 1.12938,0.0296 1.82297,0.37106 0.4937,0.24304 0.90736,0.55232 1.19901,0.89645 0.24492,0.28896 2.23869,3.27289 4.43062,6.63095 2.19192,3.35806 4.02202,6.14226 4.06689,6.18712 0.0449,0.0449 1.58911,-0.77079 3.43168,-1.81255 2.01238,-1.13777 3.57161,-1.94725 3.90481,-2.02719 2.43398,-0.5839 4.86275,1.19251 4.98923,3.64915 0.0367,0.71122 -0.16449,1.62073 -2.1556,9.74891 -1.37336,5.60634 -2.27306,9.06946 -2.40171,9.24466 -0.11315,0.15408 -0.37693,0.38099 -0.5862,0.50425 -0.37581,0.22136 -0.60391,0.2244 -18.53363,0.24791 -15.17729,0.0199 -18.22375,-0.002 -18.58397,-0.13052 z m 34.91686,-3.45106 c 0.029,-0.077 0.92265,-3.68741 1.98597,-8.02302 2.08039,-8.48271 2.0702,-8.42126 1.39663,-8.42126 -0.17264,0 -1.92045,0.92478 -4.28856,2.26913 -3.90163,2.21491 -4.01237,2.26915 -4.63328,2.26915 -0.47084,0 -0.7183,-0.0611 -0.95248,-0.23515 -0.17399,-0.12933 -2.39007,-3.405 -4.92461,-7.27925 -2.53452,-3.87425 -4.71543,-7.11527 -4.84643,-7.20225 -0.2051,-0.13618 -0.27131,-0.13618 -0.47641,0 -0.13101,0.087 -2.31191,3.328 -4.84643,7.20225 -2.53454,3.87425 -4.75062,7.14992 -4.92462,7.27925 -0.23418,0.17406 -0.48163,0.23515 -0.95248,0.23515 -0.62103,0 -0.73074,-0.0538 -4.62935,-2.26915 -2.40507,-1.36667 -4.11069,-2.26913 -4.28856,-2.26913 -0.67815,0 -0.6896,-0.0692 1.39271,8.42126 1.06332,4.33561 1.957,7.94597 1.98596,8.02302 0.0774,0.20579 32.92458,0.20579 33.00194,0 z"
       id="path2264" />
  </g>
</svg>
