<?xml version="1.0" encoding="UTF-8" standalone="no"?>
<svg
   width="61.599751mm"
   height="61.599751mm"
   viewBox="0 0 61.59975 61.59975"
   version="1.1"
   id="svg8"
   inkscape:version="1.1.1 (3bf5ae0d25, 2021-09-20)"
   sodipodi:docname="img.svg"
   xmlns:inkscape="http://www.inkscape.org/namespaces/inkscape"
   xmlns:sodipodi="http://sodipodi.sourceforge.net/DTD/sodipodi-0.dtd"
   xmlns="http://www.w3.org/2000/svg"
   xmlns:svg="http://www.w3.org/2000/svg"
   xmlns:rdf="http://www.w3.org/1999/02/22-rdf-syntax-ns#"
   xmlns:cc="http://creativecommons.org/ns#"
   xmlns:dc="http://purl.org/dc/elements/1.1/">
  <defs
     id="defs2" />
  <sodipodi:namedview
     id="base"
     pagecolor="#ffffff"
     bordercolor="#666666"
     borderopacity="1.0"
     inkscape:pageopacity="0.0"
     inkscape:pageshadow="2"
     inkscape:zoom="0.43852551"
     inkscape:cx="-830.05433"
     inkscape:cy="-673.84905"
     inkscape:document-units="mm"
     inkscape:current-layer="layer1"
     inkscape:document-rotation="0"
     showgrid="false"
     inkscape:window-width="1920"
     inkscape:window-height="1030"
     inkscape:window-x="0"
     inkscape:window-y="22"
     inkscape:window-maximized="1"
     fit-margin-top="0"
     fit-margin-left="0"
     fit-margin-right="0"
     fit-margin-bottom="0"
     inkscape:pagecheckerboard="0" />
  <metadata
     id="metadata5">
    <rdf:RDF>
      <cc:Work
         rdf:about="">
        <dc:format>image/svg+xml</dc:format>
        <dc:type
           rdf:resource="http://purl.org/dc/dcmitype/StillImage" />
      </cc:Work>
    </rdf:RDF>
  </metadata>
  <g
     inkscape:label="Layer 1"
     inkscape:groupmode="layer"
     id="layer1"
     transform="translate(-371.02762,-243.86832)">
    <rect
       style="fill:#ec4d3d;fill-opacity:1;stroke:none;stroke-width:8.30792"
       id="rect835-5-3-7"
       width="61.599751"
       height="61.599751"
       x="371.02762"
       y="243.86832"
       ry="12.743525" />
    <path
       style="fill:#ffffff;stroke-width:0.0979493"
       d="m 387.96053,296.05367 c -0.11378,-0.0459 -0.30111,-0.20338 -0.41628,-0.34981 -0.20546,-0.26119 -0.20943,-0.33576 -0.20943,-3.92615 v -3.6599 h -4.55005 c -4.88679,0 -4.94562,-0.005 -5.20329,-0.50395 -0.19405,-0.37526 -0.20785,-20.26583 -0.0143,-20.65314 0.0673,-0.13469 0.27601,-0.32194 0.46382,-0.41614 0.31017,-0.15556 0.75205,-0.17126 4.82265,-0.17141 l 4.48119,-1.6e-4 v -5.13866 c 0,-4.93531 0.008,-5.15985 0.20015,-5.67366 0.25216,-0.67393 0.83002,-1.27595 1.54772,-1.61243 l 0.55394,-0.2597 h 12.88036 12.88037 l 0.55394,0.2597 c 0.7177,0.33648 1.29556,0.9385 1.54772,1.61243 0.17087,0.45671 0.20015,0.76371 0.20015,2.09849 v 1.56353 l 4.62811,0.002 c 5.04295,0.002 4.86307,-0.017 5.15538,0.55459 0.0783,0.15317 0.10941,2.87457 0.10941,9.57943 0,10.06619 0.0142,9.7717 -0.48433,10.0385 -0.12158,0.0651 -1.82396,0.10086 -4.79851,0.10086 h -4.61008 v 2.09798 2.09798 l 1.73862,0.0325 c 1.47635,0.0276 1.79031,0.0604 2.08142,0.21725 0.69298,0.3734 1.06987,0.75513 1.39237,1.41021 l 0.32175,0.65357 v 1.91209 c 0,1.85333 -0.008,1.92862 -0.25371,2.45079 -0.34278,0.72787 -0.66022,1.08098 -1.28089,1.42478 -0.51523,0.2854 -0.54599,0.28978 -2.26094,0.32176 l -1.73862,0.0325 v 1.65566 1.65567 l -0.28575,0.31989 -0.28576,0.31987 -5.09851,0.0271 c -5.72499,0.0303 -5.67144,0.0359 -5.94533,-0.61961 -0.11697,-0.27995 -0.12551,-0.42357 -0.0405,-0.68114 0.21521,-0.6521 0.0876,-0.6363 5.13878,-0.6363 h 4.5581 v -1.02443 -1.02442 l -4.0894,-0.0286 -4.0894,-0.0285 -0.52456,-0.29055 c -0.58152,-0.3221 -0.97811,-0.75173 -1.3113,-1.42057 -0.20783,-0.41722 -0.22107,-0.56392 -0.22107,-2.45174 0,-1.88781 0.0132,-2.03452 0.22107,-2.45175 0.33319,-0.66882 0.72978,-1.09845 1.3113,-1.42055 l 0.52456,-0.29056 4.0894,-0.0285 4.0894,-0.0286 v -2.10191 -2.10186 h -6.99794 -6.99792 l -0.27479,-0.2364 -0.27482,-0.23639 v -9.66503 -9.66498 l 0.27482,-0.23639 0.27482,-0.2364 h 6.99793 6.99793 v -1.44745 c 0,-1.61557 -0.0564,-1.79362 -0.64633,-2.0401 -0.48788,-0.20384 -24.66584,-0.20384 -25.15372,0 -0.67345,0.28139 -0.64632,0.0457 -0.64632,5.61526 v 5.02261 h 4.45985 c 4.99712,0 5.02797,0.004 5.29101,0.63324 0.1251,0.29943 0.14125,1.71655 0.11891,10.4432 l -0.0258,10.09676 -0.31988,0.28579 -0.31988,0.2858 h -4.60208 -4.60209 v 3.03643 3.03644 h 4.59028 4.59026 l 0.24854,0.24853 c 0.3318,0.33181 0.39947,0.65684 0.22414,1.07649 -0.26638,0.63754 -0.24026,0.6347 -5.80555,0.62776 -2.73575,-0.004 -5.06717,-0.0438 -5.18094,-0.0898 z m 32.99391,-6.1647 0.31988,-0.28578 0.0347,-1.23834 c 0.0452,-1.61243 -0.0256,-2.06508 -0.3784,-2.41785 l -0.27792,-0.27792 h -6.27477 -6.27475 l -0.31989,0.28581 -0.31987,0.28582 v 1.6812 1.68121 l 0.31987,0.28582 0.31989,0.28581 h 6.26568 6.26568 z m -23.75069,-12.61906 -0.0249,-8.88892 h -8.86443 -8.86444 l -0.0249,8.88892 -0.0249,8.88892 h 8.91444 8.91444 z m -9.24322,6.34629 c -0.11378,-0.0471 -0.30111,-0.2055 -0.41628,-0.35193 -0.20783,-0.26419 -0.20943,-0.30535 -0.20943,-5.33842 v -5.07218 l -1.21678,-0.0325 c -1.11816,-0.0298 -1.23657,-0.0511 -1.46095,-0.26215 -0.31099,-0.29251 -0.39596,-0.63401 -0.26015,-1.04551 0.20904,-0.63341 0.21783,-0.63483 3.90641,-0.63483 h 3.32621 l 0.30136,0.25358 c 0.2435,0.20489 0.30137,0.32839 0.30137,0.64311 0,0.85868 -0.35579,1.0623 -1.85618,1.0623 h -1.0823 v 4.98905 c 0,2.9336 -0.0386,5.09046 -0.0936,5.23518 -0.16361,0.43033 -0.82503,0.72605 -1.2397,0.55428 z m 30.32633,-6.12119 c 0,-0.0243 -2.08018,-1.98937 -4.62262,-4.36673 -3.05243,-2.85423 -4.79084,-4.41061 -5.11786,-4.58196 -0.41644,-0.21821 -0.61992,-0.25933 -1.27884,-0.25847 -1.07,0.002 -1.43326,0.19894 -2.9356,1.5963 l -1.22721,1.14147 -3e-5,3.25682 -2e-5,3.25683 h 7.5911 c 4.17509,0 7.59108,-0.02 7.59108,-0.0442 z m 7.34621,-8.13453 v -8.17878 h -11.26419 -11.2642 v 3.58639 3.58638 l 0.61481,-0.57444 c 1.70897,-1.59678 3.92678,-1.93435 5.87752,-0.89462 0.62395,0.33257 0.73171,0.4296 7.46302,6.72013 l 4.20937,3.93373 h 2.18184 2.18183 z m -7.02776,1.95738 c -2.10855,-0.45805 -3.53849,-2.55598 -3.1774,-4.66169 0.30614,-1.78532 1.62342,-3.1017 3.44229,-3.43995 2.14989,-0.39982 4.35219,1.21758 4.70078,3.45231 0.34373,2.20355 -1.14836,4.28189 -3.36761,4.69078 -0.70637,0.13015 -0.82193,0.12715 -1.59806,-0.0414 z m 1.79043,-2.0523 c 0.16324,-0.0671 0.44502,-0.27018 0.62617,-0.45134 1.17584,-1.17583 0.61657,-3.18885 -1.00743,-3.62615 -1.07111,-0.28841 -2.30343,0.43579 -2.61103,1.53445 -0.40007,1.42888 0.85516,2.90933 2.30368,2.71703 0.21549,-0.0286 0.52536,-0.1069 0.68861,-0.17399 z m -18.14477,26.81293 c -0.11937,-0.0217 -0.33336,-0.17774 -0.47552,-0.34669 -0.21549,-0.25611 -0.24962,-0.37308 -0.20529,-0.70361 0.15224,-1.13505 1.74207,-1.13018 1.89444,0.006 0.0466,0.3474 0.0157,0.44292 -0.22644,0.70054 -0.28643,0.30472 -0.60086,0.41427 -0.98719,0.34395 z"
       id="path2704" />
  </g>
</svg>
