<?xml version="1.0" encoding="UTF-8" standalone="no"?>
<svg
   width="61.599751mm"
   height="61.599751mm"
   viewBox="0 0 61.59975 61.59975"
   version="1.1"
   id="svg8"
   inkscape:version="1.1.1 (3bf5ae0d25, 2021-09-20)"
   sodipodi:docname="notification.svg"
   xmlns:inkscape="http://www.inkscape.org/namespaces/inkscape"
   xmlns:sodipodi="http://sodipodi.sourceforge.net/DTD/sodipodi-0.dtd"
   xmlns="http://www.w3.org/2000/svg"
   xmlns:svg="http://www.w3.org/2000/svg"
   xmlns:rdf="http://www.w3.org/1999/02/22-rdf-syntax-ns#"
   xmlns:cc="http://creativecommons.org/ns#"
   xmlns:dc="http://purl.org/dc/elements/1.1/">
  <defs
     id="defs2" />
  <sodipodi:namedview
     id="base"
     pagecolor="#ffffff"
     bordercolor="#666666"
     borderopacity="1.0"
     inkscape:pageopacity="0.0"
     inkscape:pageshadow="2"
     inkscape:zoom="0.43852551"
     inkscape:cx="-830.05433"
     inkscape:cy="612.27909"
     inkscape:document-units="mm"
     inkscape:current-layer="layer1"
     inkscape:document-rotation="0"
     showgrid="false"
     inkscape:window-width="1920"
     inkscape:window-height="1030"
     inkscape:window-x="0"
     inkscape:window-y="22"
     inkscape:window-maximized="1"
     fit-margin-top="0"
     fit-margin-left="0"
     fit-margin-right="0"
     fit-margin-bottom="0"
     inkscape:pagecheckerboard="0" />
  <metadata
     id="metadata5">
    <rdf:RDF>
      <cc:Work
         rdf:about="">
        <dc:format>image/svg+xml</dc:format>
        <dc:type
           rdf:resource="http://purl.org/dc/dcmitype/StillImage" />
      </cc:Work>
    </rdf:RDF>
  </metadata>
  <g
     inkscape:label="Layer 1"
     inkscape:groupmode="layer"
     id="layer1"
     transform="translate(-287.99222,-91.486649)">
    <rect
       style="fill:#66c265;fill-opacity:1;stroke:none;stroke-width:8.30792"
       id="rect835-3-5"
       width="61.599751"
       height="61.599751"
       x="287.99222"
       y="91.486649"
       ry="12.743525" />
    <path
       style="fill:#ffffff;stroke-width:0.104169"
       d="m 317.39069,147.06823 c -3.00634,-0.54353 -5.73504,-2.78272 -6.90763,-5.66847 -0.15056,-0.37053 -0.35455,-1.04947 -0.4533,-1.50877 l -0.17954,-0.83509 -4.00254,-0.0539 c -3.55374,-0.0478 -4.06094,-0.0755 -4.52339,-0.24672 -1.91064,-0.7073 -3.08237,-1.7186 -3.89864,-3.36489 -0.87275,-1.76018 -0.82673,-4.00259 0.11892,-5.79448 0.70311,-1.33232 2.46401,-2.74579 3.85784,-3.09669 l 0.49481,-0.12458 0.002,-6.52425 c 0.002,-5.00947 0.0361,-6.78004 0.14872,-7.62597 0.25437,-1.91063 0.73421,-3.51589 1.57004,-5.25259 2.40654,-5.00025 6.98976,-8.459223 12.58306,-9.496493 1.19623,-0.221848 4.34396,-0.251489 5.48827,-0.0517 3.78648,0.661133 6.92865,2.265392 9.52766,4.864393 2.18743,2.18744 3.67456,4.76605 4.48354,7.77425 0.52313,1.94529 0.57248,2.79181 0.57248,9.81949 v 6.49286 l 0.49481,0.12458 c 1.40504,0.35371 3.144,1.74995 3.85685,3.09669 1.70026,3.21226 0.42323,7.1516 -2.8412,8.76438 -1.15538,0.57081 -1.18983,0.57483 -5.4609,0.63719 l -4.00255,0.0585 -0.17954,0.83508 c -0.38832,1.80604 -1.17224,3.22377 -2.5375,4.58902 -0.56043,0.56043 -1.25063,1.12594 -1.69651,1.39001 -2.00334,1.18646 -4.27257,1.60377 -6.5158,1.19822 z m 3.00929,-4.89447 c 0.67082,-0.18495 1.66073,-0.83974 2.10469,-1.39219 0.34261,-0.42634 0.84848,-1.40645 0.85038,-1.64753 7.9e-4,-0.10207 -0.92208,-0.13022 -4.26992,-0.13022 -3.34734,0 -4.27092,0.0282 -4.27086,0.13022 2.2e-4,0.35676 0.67059,1.49031 1.16769,1.9745 1.18237,1.15167 2.74121,1.52752 4.41802,1.06522 z m 15.41627,-8.22858 c 0.72972,-0.54484 0.92561,-1.21948 0.56838,-1.95743 -0.3469,-0.71659 -0.59621,-0.83016 -1.98664,-0.90497 -1.3452,-0.0724 -1.84217,-0.25253 -2.34649,-0.85064 -0.59049,-0.70031 -0.57017,-0.39458 -0.5711,-8.59517 -3.9e-4,-4.45898 -0.0446,-7.96779 -0.10699,-8.51917 -0.47323,-4.18018 -3.05458,-7.87621 -6.8194,-9.76415 -2.85138,-1.42988 -6.35212,-1.65867 -9.4318,-0.61641 -4.52354,1.53089 -7.7837,5.59585 -8.32536,10.38056 -0.0623,0.54992 -0.10673,4.03826 -0.10758,8.4377 -7.8e-4,4.54217 -0.0415,7.64396 -0.10287,7.86477 -0.13854,0.49787 -0.66208,1.1061 -1.18354,1.37498 -0.33609,0.17329 -0.70002,0.23747 -1.63059,0.28753 -1.38071,0.0743 -1.64052,0.18998 -1.9741,0.87906 -0.31975,0.6605 -0.2468,1.19065 0.2362,1.7166 0.50907,0.55432 -0.38146,0.52818 17.17335,0.504 16.30412,-0.0225 16.32118,-0.0227 16.60853,-0.23726 z"
       id="path1381" />
  </g>
</svg>
