<?xml version="1.0" encoding="UTF-8" standalone="no"?>
<svg
   width="61.599751mm"
   height="61.599751mm"
   viewBox="0 0 61.59975 61.59975"
   version="1.1"
   id="svg8"
   inkscape:version="1.1.1 (3bf5ae0d25, 2021-09-20)"
   sodipodi:docname="open_other_identity.svg"
   xmlns:inkscape="http://www.inkscape.org/namespaces/inkscape"
   xmlns:sodipodi="http://sodipodi.sourceforge.net/DTD/sodipodi-0.dtd"
   xmlns="http://www.w3.org/2000/svg"
   xmlns:svg="http://www.w3.org/2000/svg"
   xmlns:rdf="http://www.w3.org/1999/02/22-rdf-syntax-ns#"
   xmlns:cc="http://creativecommons.org/ns#"
   xmlns:dc="http://purl.org/dc/elements/1.1/">
  <defs
     id="defs2" />
  <sodipodi:namedview
     id="base"
     pagecolor="#ffffff"
     bordercolor="#666666"
     borderopacity="1.0"
     inkscape:pageopacity="0.0"
     inkscape:pageshadow="2"
     inkscape:zoom="0.43852551"
     inkscape:cx="-834.61507"
     inkscape:cy="33.065351"
     inkscape:document-units="mm"
     inkscape:current-layer="layer1"
     inkscape:document-rotation="0"
     showgrid="false"
     inkscape:window-width="1920"
     inkscape:window-height="1030"
     inkscape:window-x="0"
     inkscape:window-y="22"
     inkscape:window-maximized="1"
     fit-margin-top="0"
     fit-margin-left="0"
     fit-margin-right="0"
     fit-margin-bottom="0"
     inkscape:pagecheckerboard="0" />
  <metadata
     id="metadata5">
    <rdf:RDF>
      <cc:Work
         rdf:about="">
        <dc:format>image/svg+xml</dc:format>
        <dc:type
           rdf:resource="http://purl.org/dc/dcmitype/StillImage" />
      </cc:Work>
    </rdf:RDF>
  </metadata>
  <g
     inkscape:label="Layer 1"
     inkscape:groupmode="layer"
     id="layer1"
     transform="translate(-443.34329,-93.768745)">
    <rect
       style="fill:#9a68c7;fill-opacity:1;stroke:none;stroke-width:8.30792"
       id="rect835-3-7-7"
       width="61.599751"
       height="61.599751"
       x="443.34329"
       y="93.768745"
       ry="12.743525" />
    <path
       style="fill:#ffffff;stroke:#ffffff;stroke-width:1.07626;stroke-miterlimit:4;stroke-dasharray:none;stroke-opacity:1"
       d="m 473.23757,145.39424 c -1.72476,-0.12526 -4.10395,-0.63164 -5.64965,-1.20246 -1.04656,-0.3865 -2.61447,-1.13789 -3.60767,-1.72891 -0.89224,-0.53095 -2.40172,-1.64643 -3.18003,-2.35 -0.93413,-0.84441 -0.84234,-0.93704 -0.77857,0.78564 0.0527,1.42478 0.047,1.516 -0.11056,1.76725 -0.51925,0.82794 -1.74401,0.77916 -2.11435,-0.0842 -0.12265,-0.28592 -0.17042,-0.83932 -0.28581,-3.3104 -0.14461,-3.09703 -0.13678,-3.24923 0.18542,-3.60525 0.32878,-0.36331 0.49641,-0.38854 3.60253,-0.54216 1.9939,-0.0986 3.0888,-0.12245 3.27408,-0.0713 0.37315,0.10303 0.74897,0.54584 0.81998,0.96614 0.0457,0.27014 0.0187,0.41167 -0.13499,0.71041 -0.28125,0.54651 -0.54791,0.6534 -1.77517,0.71159 -0.55887,0.0266 -1.20708,0.0676 -1.44047,0.0914 l -0.42435,0.0432 0.75023,0.66509 c 2.60293,2.30756 5.45553,3.75112 8.69353,4.39934 6.22038,1.24528 12.61987,-0.78047 16.96304,-5.36963 4.26654,-4.5082 5.94174,-10.71963 4.55122,-16.87541 -0.17235,-0.763 -0.17362,-0.80198 -0.0379,-1.15735 0.16911,-0.44282 0.50489,-0.70248 0.97725,-0.75572 0.42325,-0.0477 0.87182,0.14464 1.10675,0.47459 0.18878,0.2651 0.49885,1.55648 0.7009,2.91904 0.21183,1.42845 0.19153,4.318 -0.0408,5.81223 -0.68436,4.40102 -2.61577,8.27857 -5.70309,11.44962 -1.7511,1.79859 -3.4248,3.02385 -5.61727,4.1122 -2.44494,1.21367 -4.81676,1.87842 -7.55392,2.11711 -0.87347,0.0761 -2.32951,0.089 -3.1703,0.028 z m -3.06689,-12.33661 c -1.65515,-0.40107 -3.07446,-1.86117 -3.42645,-3.52493 -0.29912,-1.41387 0.11481,-3.55234 0.96442,-4.98244 0.74156,-1.24823 1.91491,-2.41974 2.98192,-2.97724 0.23819,-0.12445 0.43317,-0.25615 0.43327,-0.29267 8e-5,-0.0365 -0.0872,-0.18283 -0.19394,-0.32515 -1.07975,-1.43927 -1.13639,-3.63264 -0.1331,-5.15428 0.92746,-1.40663 2.26576,-2.13607 3.91897,-2.13607 1.60987,0 3.00743,0.76655 3.89448,2.13607 1.00367,1.54957 0.93942,3.71871 -0.15322,5.17349 -0.24107,0.32095 -0.32674,0.21571 0.74432,0.91435 2.23077,1.45513 3.63264,4.14816 3.52626,6.77407 -0.0257,0.6347 -0.0866,1.03414 -0.20994,1.37643 -0.53904,1.49624 -1.81026,2.66538 -3.27303,3.01019 -0.69754,0.16442 -8.40049,0.17137 -9.07396,0.008 z m 8.83848,-2.49086 c 0.86202,-0.38975 1.29928,-1.11296 1.29864,-2.1478 -0.002,-2.31451 -1.59999,-4.46615 -3.87108,-5.21051 -0.63887,-0.20939 -0.83405,-0.23591 -1.73592,-0.23591 -0.90188,0 -1.09706,0.0265 -1.73594,0.23591 -2.27109,0.74436 -3.86962,2.896 -3.87108,5.21051 -6.1e-4,1.03484 0.43663,1.75805 1.29865,2.1478 0.35173,0.15902 0.5175,0.16539 4.30837,0.16539 3.79085,0 3.95663,-0.006 4.30836,-0.16539 z m -3.72457,-10.1576 c 0.55931,-0.15535 1.05941,-0.57702 1.3551,-1.14257 0.25059,-0.47932 0.26957,-0.5668 0.2364,-1.09017 -0.041,-0.64717 -0.23096,-1.08352 -0.64399,-1.47937 -1.05446,-1.01059 -2.82979,-0.71395 -3.50224,0.58519 -0.10519,0.20322 -0.18183,0.53855 -0.20437,0.89418 -0.0332,0.52337 -0.0142,0.61085 0.2364,1.09017 0.5033,0.96267 1.51716,1.42185 2.5227,1.14257 z m -20.06117,10.29616 c -0.39668,-0.17976 -0.59155,-0.53968 -0.80738,-1.49115 -0.38283,-1.68775 -0.47852,-2.61641 -0.47564,-4.61584 0.003,-2.14915 0.15565,-3.38854 0.6445,-5.23622 0.39449,-1.49108 0.74728,-2.42108 1.49824,-3.94954 1.08715,-2.21273 2.36975,-3.95937 4.2389,-5.7725 3.21852,-3.12207 7.18286,-5.01416 11.85876,-5.65992 1.26308,-0.17444 4.19521,-0.13262 5.56836,0.0794 2.19773,0.33936 3.98611,0.89206 5.93417,1.83394 1.8818,0.90985 3.29845,1.84455 4.7961,3.16445 0.35768,0.31523 0.71885,0.63023 0.80261,0.70002 0.14824,0.12352 0.15082,0.087 0.0973,-1.37698 -0.0521,-1.42578 -0.0464,-1.51762 0.11117,-1.7688 0.51925,-0.82792 1.74401,-0.77915 2.11435,0.0842 0.12265,0.28592 0.17042,0.83932 0.28581,3.31039 0.14461,3.09704 0.13678,3.24923 -0.18541,3.60526 -0.32879,0.3633 -0.49642,0.38853 -3.60253,0.54215 -1.9939,0.0986 -3.0888,0.12246 -3.27409,0.0713 -0.37315,-0.10302 -0.74896,-0.54584 -0.81997,-0.96613 -0.0457,-0.27014 -0.0188,-0.41168 0.13499,-0.71041 0.28437,-0.55258 0.5448,-0.6548 1.8158,-0.71268 0.58123,-0.0264 1.21634,-0.0677 1.41138,-0.0916 l 0.35461,-0.0435 -0.23268,-0.24629 c -0.12796,-0.13545 -0.57701,-0.53494 -0.99787,-0.88777 -7.14664,-5.99116 -17.64398,-5.66973 -24.42508,0.74788 -1.59048,1.50523 -2.8147,3.17041 -3.82305,5.2001 -1.90499,3.83455 -2.3918,8.07124 -1.42115,12.36828 0.17235,0.763 0.17363,0.80198 0.0379,1.15736 -0.0804,0.21032 -0.24658,0.44333 -0.38837,0.5443 -0.30602,0.21789 -0.90852,0.27579 -1.25172,0.12027 z"
       id="path1078" />
  </g>
</svg>
