<?xml version="1.0" encoding="UTF-8" standalone="no"?>
<svg
   width="61.599751mm"
   height="61.599751mm"
   viewBox="0 0 61.59975 61.59975"
   version="1.1"
   id="svg8"
   inkscape:version="1.1.1 (3bf5ae0d25, 2021-09-20)"
   sodipodi:docname="picture.svg"
   xmlns:inkscape="http://www.inkscape.org/namespaces/inkscape"
   xmlns:sodipodi="http://sodipodi.sourceforge.net/DTD/sodipodi-0.dtd"
   xmlns="http://www.w3.org/2000/svg"
   xmlns:svg="http://www.w3.org/2000/svg"
   xmlns:rdf="http://www.w3.org/1999/02/22-rdf-syntax-ns#"
   xmlns:cc="http://creativecommons.org/ns#"
   xmlns:dc="http://purl.org/dc/elements/1.1/">
  <defs
     id="defs2" />
  <sodipodi:namedview
     id="base"
     pagecolor="#ffffff"
     bordercolor="#666666"
     borderopacity="1.0"
     inkscape:pageopacity="0.0"
     inkscape:pageshadow="2"
     inkscape:zoom="0.43852551"
     inkscape:cx="-576.93337"
     inkscape:cy="664.72758"
     inkscape:document-units="mm"
     inkscape:current-layer="layer1"
     inkscape:document-rotation="0"
     showgrid="false"
     inkscape:window-width="1920"
     inkscape:window-height="1030"
     inkscape:window-x="0"
     inkscape:window-y="22"
     inkscape:window-maximized="1"
     fit-margin-top="0"
     fit-margin-left="0"
     fit-margin-right="0"
     fit-margin-bottom="0"
     inkscape:pagecheckerboard="0" />
  <metadata
     id="metadata5">
    <rdf:RDF>
      <cc:Work
         rdf:about="">
        <dc:format>image/svg+xml</dc:format>
        <dc:type
           rdf:resource="http://purl.org/dc/dcmitype/StillImage" />
      </cc:Work>
    </rdf:RDF>
  </metadata>
  <g
     inkscape:label="Layer 1"
     inkscape:groupmode="layer"
     id="layer1"
     transform="translate(-367.58817,-18.717989)">
    <rect
       style="fill:#ea9b4b;fill-opacity:1;stroke:none;stroke-width:8.30792"
       id="rect835-3-6-9"
       width="61.599751"
       height="61.599751"
       x="367.58817"
       y="18.717989"
       ry="12.743525" />
    <path
       style="fill:#ffffff;stroke-width:0.0936357"
       d="m 386.23308,72.321303 c -1.18965,-0.172183 -2.5834,-0.821906 -3.6139,-1.684684 -0.9652,-0.808118 -1.89304,-2.371199 -2.21071,-3.724278 -0.15854,-0.675299 -0.16808,-1.710437 -0.16808,-18.225851 0,-19.656005 -0.0534,-18.140199 0.6936,-19.677206 1.06772,-2.196845 3.00813,-3.621534 5.3972,-3.962772 0.51744,-0.0739 2.85868,-0.09773 7.67366,-0.07812 l 6.92905,0.02825 0.42136,0.251134 c 0.24081,0.143527 3.81833,3.654185 8.34918,8.193133 6.76361,6.775695 7.94343,7.997 8.03407,8.316543 0.0774,0.273053 0.0986,3.710978 0.0781,12.687648 l -0.0282,12.313103 -0.26291,0.749085 c -0.39842,1.135202 -0.92869,1.96042 -1.83515,2.855895 -0.91903,0.907893 -1.85891,1.460753 -3.0655,1.803185 l -0.73549,0.208738 -12.5472,0.01377 c -6.90096,0.0075 -12.80002,-0.02283 -13.109,-0.06753 z m 25.81505,-4.127689 c 0.65,-0.304681 1.27127,-0.907509 1.57833,-1.531494 l 0.22918,-0.465742 0.025,-10.412259 0.0249,-10.412264 -4.80042,-0.02812 -4.80042,-0.02812 -0.74909,-0.262908 c -1.1352,-0.398421 -1.96041,-0.928696 -2.85589,-1.835154 -0.88947,-0.900377 -1.42872,-1.80514 -1.79105,-3.005092 -0.20758,-0.687451 -0.21278,-0.814363 -0.2461,-6.016098 l -0.0341,-5.313827 h -5.83675 c -5.66446,0 -5.85555,0.0058 -6.47325,0.196587 -0.5375,0.166018 -0.726,0.286161 -1.21202,0.772497 -1.03319,1.033833 -0.93348,-0.983134 -0.93348,18.881696 v 17.275811 l 0.24675,0.526231 c 0.45991,0.980858 1.29238,1.663179 2.26784,1.858803 0.21348,0.04283 5.88688,0.07145 12.60759,0.06369 l 12.21947,-0.01413 z m -22.77188,-3.268183 c -0.75151,-0.341439 -1.24539,-0.973648 -1.3595,-1.74021 l -0.0536,-0.359729 2.44849,-2.6218 c 1.34667,-1.441992 2.497,-2.617671 2.55631,-2.61262 0.0593,0.005 1.42791,0.376915 3.04137,0.826362 2.60667,0.726122 2.94573,0.800785 3.04269,0.669952 0.73766,-0.995313 4.70922,-6.130444 4.74409,-6.133987 0.0259,-0.0022 1.50887,2.225147 3.29584,4.950578 3.06798,4.679228 3.24596,4.974041 3.19448,5.29125 -0.0907,0.558866 -0.5858,1.276737 -1.09888,1.593251 l -0.46082,0.284269 -9.46458,0.02203 c -9.3575,0.02181 -9.46936,0.01985 -9.88595,-0.169379 z m 3.60497,-10.511823 c -1.07608,-0.357164 -1.85127,-1.150441 -2.0575,-2.105548 -0.20781,-0.96241 0.0374,-1.933964 0.664,-2.630894 0.60325,-0.67096 1.2727,-0.975076 2.14643,-0.975076 0.58445,0 0.77862,0.045 1.29813,0.30074 1.06521,0.524398 1.58912,1.375867 1.59142,2.586368 0.002,0.873301 -0.18985,1.392134 -0.73759,1.998432 -0.6773,0.749678 -2.00087,1.126022 -2.90489,0.825978 z m 14.46638,-17.712896 -4.72826,-4.729007 -0.025,3.254241 c -0.0154,2.028017 0.0125,3.434766 0.0742,3.733324 0.13745,0.663867 0.61413,1.416197 1.15656,1.825364 0.82112,0.61937 0.92208,0.632854 4.78643,0.639304 l 3.46418,0.0058 z"
       id="path2536" />
  </g>
</svg>
