<?xml version="1.0" encoding="UTF-8" standalone="no"?>
<svg
   width="61.599751mm"
   height="61.599751mm"
   viewBox="0 0 61.599751 61.599751"
   version="1.1"
   id="svg8"
   inkscape:version="1.1.1 (3bf5ae0d25, 2021-09-20)"
   sodipodi:docname="settings_language.svg"
   xmlns:inkscape="http://www.inkscape.org/namespaces/inkscape"
   xmlns:sodipodi="http://sodipodi.sourceforge.net/DTD/sodipodi-0.dtd"
   xmlns="http://www.w3.org/2000/svg"
   xmlns:svg="http://www.w3.org/2000/svg"
   xmlns:rdf="http://www.w3.org/1999/02/22-rdf-syntax-ns#"
   xmlns:cc="http://creativecommons.org/ns#"
   xmlns:dc="http://purl.org/dc/elements/1.1/">
  <defs
     id="defs2" />
  <sodipodi:namedview
     id="base"
     pagecolor="#ffffff"
     bordercolor="#666666"
     borderopacity="1.0"
     inkscape:pageopacity="0.0"
     inkscape:pageshadow="2"
     inkscape:zoom="0.81454783"
     inkscape:cx="119.08447"
     inkscape:cy="226.50604"
     inkscape:document-units="mm"
     inkscape:current-layer="layer1"
     inkscape:document-rotation="0"
     showgrid="false"
     inkscape:window-width="1920"
     inkscape:window-height="1030"
     inkscape:window-x="0"
     inkscape:window-y="22"
     inkscape:window-maximized="1"
     fit-margin-top="0"
     fit-margin-left="0"
     fit-margin-right="0"
     fit-margin-bottom="0"
     inkscape:pagecheckerboard="0" />
  <metadata
     id="metadata5">
    <rdf:RDF>
      <cc:Work
         rdf:about="">
        <dc:format>image/svg+xml</dc:format>
        <dc:type
           rdf:resource="http://purl.org/dc/dcmitype/StillImage" />
      </cc:Work>
    </rdf:RDF>
  </metadata>
  <g
     inkscape:label="Layer 1"
     inkscape:groupmode="layer"
     id="layer1"
     transform="translate(-134.55377,-167.7695)">
    <rect
       style="fill:#68a5c9;fill-opacity:1;stroke:none;stroke-width:8.30792"
       id="rect835-5-5"
       width="61.599751"
       height="61.599751"
       x="134.55377"
       y="167.7695"
       ry="12.743525" />
    <path
       style="fill:#ffffff;stroke-width:0.0866946"
       d="m 162.20062,220.56363 c -0.29139,-0.0634 -0.68822,-0.19607 -0.88184,-0.29485 -0.55423,-0.28274 -1.34887,-1.07491 -1.65565,-1.65049 -0.33139,-0.62177 -0.43603,-1.14693 -0.757,-3.79917 l -0.24393,-2.01566 h -5.60484 c -3.4498,0 -5.78424,-0.034 -6.07144,-0.0885 -1.557,-0.29528 -2.81447,-1.55275 -3.10974,-3.10974 -0.12204,-0.64348 -0.12204,-29.45845 0,-30.10192 0.29527,-1.557 1.55274,-2.81446 3.10974,-3.10974 0.29346,-0.0556 3.04379,-0.0879 7.412,-0.087 7.39315,0.002 7.64361,0.0142 8.4466,0.42382 0.55165,0.28143 1.34664,1.07461 1.6528,1.64905 0.33139,0.62176 0.43604,1.14693 0.75701,3.79917 l 0.24392,2.01565 h 9.5061 c 6.10339,0 9.67311,0.0317 9.97269,0.0885 1.557,0.29527 2.81447,1.55274 3.10974,3.10974 0.12204,0.64347 0.12204,29.45845 0,30.10192 -0.29527,1.55699 -1.55274,2.81446 -3.10974,3.10974 -0.75958,0.14405 -22.10248,0.10605 -22.77642,-0.0405 z m 22.82129,-2.7085 c 0.59584,-0.42502 0.55253,0.78301 0.55253,-15.41166 0,-16.19466 0.0433,-14.98663 -0.55253,-15.41165 l -0.27107,-0.19336 -9.46943,-0.0228 -9.46944,-0.0228 0.0436,0.23953 c 0.0239,0.13175 0.72386,5.70484 1.55537,12.38466 1.17339,9.42604 1.49358,12.21129 1.43018,12.44066 -0.0742,0.26848 -0.6297,0.93422 -4.78685,5.73664 l -0.43239,0.49952 10.56452,-0.0227 10.56451,-0.0227 z m -13.12646,-9.12529 c -0.28351,-0.12867 -0.41125,-0.25641 -0.53993,-0.53994 -0.38154,-0.84064 -0.19585,-1.19781 1.1974,-2.30307 0.60557,-0.4804 1.30907,-1.06155 1.56334,-1.29146 l 0.46232,-0.41801 -0.46759,-0.60686 c -0.94416,-1.22537 -1.82617,-2.84658 -2.32289,-4.26971 -0.27074,-0.77565 -0.28859,-0.80192 -0.54509,-0.80192 -0.46861,0 -0.98325,-0.31625 -1.18168,-0.72614 -0.22441,-0.46358 -0.22441,-0.68497 0,-1.14855 0.12967,-0.26787 0.27968,-0.41787 0.54754,-0.54754 0.34069,-0.16493 0.52615,-0.1786 2.42224,-0.1786 h 2.05329 v -0.75288 c 0,-0.97333 0.18982,-1.40974 0.72614,-1.66936 0.46359,-0.22441 0.68498,-0.22441 1.14856,0 0.53631,0.25962 0.72613,0.69603 0.72613,1.66936 v 0.75288 h 2.0533 c 1.89608,0 2.08155,0.0137 2.42223,0.1786 0.26787,0.12967 0.41787,0.27967 0.54755,0.54754 0.22442,0.46358 0.22442,0.68497 0,1.14855 -0.19842,0.40989 -0.71308,0.72614 -1.18166,0.72614 -0.25651,0 -0.27437,0.0263 -0.5451,0.80192 -0.49673,1.42313 -1.37874,3.04434 -2.3229,4.26971 l -0.46759,0.60686 0.46232,0.41801 c 0.25428,0.22991 0.95779,0.81106 1.56334,1.29146 1.39325,1.10526 1.57895,1.46243 1.19741,2.30307 -0.12868,0.28353 -0.25643,0.41127 -0.53994,0.53994 -0.44509,0.20202 -0.67074,0.21263 -1.06031,0.0499 -0.29604,-0.12369 -1.30027,-0.89621 -2.64266,-2.03291 -0.40191,-0.34033 -0.75579,-0.61879 -0.7864,-0.61879 -0.0305,0 -0.38449,0.27846 -0.78641,0.61879 -1.34239,1.1367 -2.34661,1.90922 -2.64266,2.03291 -0.38957,0.16279 -0.61521,0.15218 -1.0603,-0.0499 z m 4.75028,-6.78284 c 0.67543,-0.91358 1.81654,-3.00872 1.81897,-3.33976 6e-4,-0.0837 -0.47272,-0.10837 -2.07988,-0.10837 -1.60716,0 -2.08049,0.0247 -2.07986,0.10837 0.002,0.182 0.91221,2.00626 1.27285,2.54921 0.47079,0.7088 0.74336,1.07029 0.80701,1.07029 0.0298,0 0.14715,-0.12589 0.26091,-0.27974 z m -13.11496,12.28693 1.20873,-1.38711 -1.68899,-0.0236 c -0.92894,-0.013 -1.7077,-0.005 -1.73057,0.018 -0.0432,0.0432 0.30778,3.11514 0.38191,3.3424 0.0305,0.0935 0.12209,0.0335 0.33118,-0.21674 0.15895,-0.19026 0.83294,-0.97013 1.49774,-1.73304 z m 2.57193,-4.31305 c -0.0227,-0.15497 -0.87522,-6.97777 -1.89454,-15.16177 -1.27668,-10.25053 -1.8956,-14.96183 -1.9893,-15.14303 -0.0748,-0.14466 -0.26339,-0.35388 -0.41908,-0.46493 l -0.28307,-0.20189 h -7.1523 -7.15229 l -0.27107,0.19336 c -0.59863,0.427 -0.55644,-0.80417 -0.53159,15.51302 l 0.0224,14.7234 0.19231,0.26958 c 0.41736,0.5851 -0.23019,0.54985 10.14056,0.55203 l 9.37922,0.002 z m -15.0066,-9.00151 c -0.37169,-0.18399 -0.71962,-0.70929 -0.71962,-1.08649 0,-0.0945 0.60029,-3.16845 1.33399,-6.83108 1.39208,-6.94925 1.37622,-6.88867 1.90709,-7.28501 0.22299,-0.16649 0.35742,-0.17874 1.96058,-0.17874 1.60315,0 1.73759,0.0123 1.96058,0.17874 0.53087,0.39634 0.51501,0.33576 1.90709,7.28501 0.7337,3.66263 1.334,6.73662 1.334,6.83108 0,0.0945 -0.0804,0.33778 -0.1786,0.54069 -0.18861,0.38963 -0.70849,0.72614 -1.12182,0.72614 -0.41231,0 -0.93333,-0.33642 -1.1158,-0.72044 -0.0949,-0.19979 -0.35654,-1.28979 -0.58136,-2.42223 l -0.40878,-2.059 h -1.79531 -1.79531 l -0.40877,2.059 c -0.47301,2.38253 -0.59685,2.70941 -1.1229,2.96407 -0.46461,0.22492 -0.69788,0.22456 -1.15506,-0.002 z m 5.23665,-10.22301 -0.52001,-2.60082 h -0.2346 -0.2346 l -0.52,2.60082 -0.52,2.60084 h 1.2746 1.2746 z"
       id="path1616" />
  </g>
</svg>
