<?xml version="1.0" encoding="UTF-8" standalone="no"?>
<svg
   width="61.599751mm"
   height="61.599751mm"
   viewBox="0 0 61.599751 61.599751"
   version="1.1"
   id="svg8"
   inkscape:version="1.1.1 (3bf5ae0d25, 2021-09-20)"
   sodipodi:docname="settings_sound.svg"
   xmlns:inkscape="http://www.inkscape.org/namespaces/inkscape"
   xmlns:sodipodi="http://sodipodi.sourceforge.net/DTD/sodipodi-0.dtd"
   xmlns="http://www.w3.org/2000/svg"
   xmlns:svg="http://www.w3.org/2000/svg"
   xmlns:rdf="http://www.w3.org/1999/02/22-rdf-syntax-ns#"
   xmlns:cc="http://creativecommons.org/ns#"
   xmlns:dc="http://purl.org/dc/elements/1.1/">
  <defs
     id="defs2" />
  <sodipodi:namedview
     id="base"
     pagecolor="#ffffff"
     bordercolor="#666666"
     borderopacity="1.0"
     inkscape:pageopacity="0.0"
     inkscape:pageshadow="2"
     inkscape:zoom="0.81454783"
     inkscape:cx="54.0177"
     inkscape:cy="393.46983"
     inkscape:document-units="mm"
     inkscape:current-layer="layer1"
     inkscape:document-rotation="0"
     showgrid="false"
     inkscape:window-width="1920"
     inkscape:window-height="1030"
     inkscape:window-x="0"
     inkscape:window-y="22"
     inkscape:window-maximized="1"
     fit-margin-top="0"
     fit-margin-left="0"
     fit-margin-right="0"
     fit-margin-bottom="0"
     inkscape:pagecheckerboard="0" />
  <metadata
     id="metadata5">
    <rdf:RDF>
      <cc:Work
         rdf:about="">
        <dc:format>image/svg+xml</dc:format>
        <dc:type
           rdf:resource="http://purl.org/dc/dcmitype/StillImage" />
      </cc:Work>
    </rdf:RDF>
  </metadata>
  <g
     inkscape:label="Layer 1"
     inkscape:groupmode="layer"
     id="layer1"
     transform="translate(-132.81206,-93.40181)">
    <rect
       style="fill:#ec4d3d;fill-opacity:1;stroke:none;stroke-width:8.30792"
       id="rect835-5-3"
       width="61.599751"
       height="61.599751"
       x="132.81206"
       y="93.40181"
       ry="12.743525" />
    <path
       style="fill:#ffffff;stroke-width:0.110412"
       d="m 168.42641,147.39055 c -1.01399,-0.23804 -1.76823,-0.82936 -8.37661,-6.56723 l -6.65237,-5.77608 -2.53946,-0.006 c -2.82006,-0.007 -3.67632,-0.10362 -4.54471,-0.51443 -0.71733,-0.33935 -1.68995,-1.20818 -2.06067,-1.84078 -0.63578,-1.08488 -0.63587,-1.08609 -0.60224,-8.54241 l 0.0308,-6.83955 0.41137,-0.83221 c 0.50296,-1.01747 1.23754,-1.73848 2.26905,-2.22713 l 0.74233,-0.35166 3.09509,-0.0337 3.09508,-0.0337 6.73155,-5.84604 c 4.86461,-4.22468 6.91538,-5.93828 7.39438,-6.17864 2.7678,-1.38885 6.10084,0.26304 6.67869,3.31002 0.072,0.37966 0.11126,7.21559 0.11126,19.37355 0,20.26756 0.0249,19.35855 -0.56178,20.50853 -0.30701,0.60179 -1.13719,1.47777 -1.72941,1.82485 -1.04192,0.61059 -2.38969,0.83163 -3.49242,0.57276 z m 1.00894,-32.12746 -0.0283,-9.17426 -6.90073,5.98096 c -3.79539,3.28954 -7.04977,6.06403 -7.23194,6.16555 -0.28201,0.15714 -0.82353,0.19279 -3.64359,0.23978 l -3.31235,0.0552 -0.0286,5.87942 -0.0286,5.87942 h 3.10729 c 2.07001,0 3.25259,0.0435 3.54258,0.13041 0.40495,0.12133 3.45978,2.70663 12.89491,10.91295 l 1.60097,1.39246 0.0282,-9.14381 c 0.0156,-5.0291 0.0156,-13.27224 0,-18.31808 z m 8.25168,17.47607 c -1.44891,-0.678 -1.79483,-2.41353 -0.74526,-3.73901 1.4264,-1.80134 2.20331,-4.5416 1.91811,-6.76544 -0.16555,-1.29087 -0.46648,-2.24097 -1.13834,-3.59397 -0.51165,-1.03035 -0.54465,-1.14702 -0.49394,-1.74634 0.0992,-1.17269 0.92993,-2.01902 2.10036,-2.13982 0.52469,-0.0542 0.70628,-0.0188 1.23607,0.24036 0.48996,0.23972 0.7034,0.43261 1.01134,0.91401 2.02848,3.17101 2.58463,7.73851 1.40374,11.52846 -0.61278,1.96667 -2.13616,4.5383 -3.04445,5.13938 -0.59475,0.39358 -1.59856,0.4661 -2.24763,0.16237 z"
       id="path1523" />
  </g>
</svg>
