<?xml version="1.0" encoding="UTF-8" standalone="no"?>
<svg
   width="61.599751mm"
   height="61.599751mm"
   viewBox="0 0 61.59975 61.59975"
   version="1.1"
   id="svg8"
   inkscape:version="1.1.1 (3bf5ae0d25, 2021-09-20)"
   sodipodi:docname="smiley.svg"
   xmlns:inkscape="http://www.inkscape.org/namespaces/inkscape"
   xmlns:sodipodi="http://sodipodi.sourceforge.net/DTD/sodipodi-0.dtd"
   xmlns="http://www.w3.org/2000/svg"
   xmlns:svg="http://www.w3.org/2000/svg"
   xmlns:rdf="http://www.w3.org/1999/02/22-rdf-syntax-ns#"
   xmlns:cc="http://creativecommons.org/ns#"
   xmlns:dc="http://purl.org/dc/elements/1.1/">
  <defs
     id="defs2" />
  <sodipodi:namedview
     id="base"
     pagecolor="#ffffff"
     bordercolor="#666666"
     borderopacity="1.0"
     inkscape:pageopacity="0.0"
     inkscape:pageshadow="2"
     inkscape:zoom="0.43852551"
     inkscape:cx="-832.3347"
     inkscape:cy="-188.13045"
     inkscape:document-units="mm"
     inkscape:current-layer="layer1"
     inkscape:document-rotation="0"
     showgrid="false"
     inkscape:window-width="1920"
     inkscape:window-height="1030"
     inkscape:window-x="0"
     inkscape:window-y="22"
     inkscape:window-maximized="1"
     fit-margin-top="0"
     fit-margin-left="0"
     fit-margin-right="0"
     fit-margin-bottom="0"
     inkscape:pagecheckerboard="0" />
  <metadata
     id="metadata5">
    <rdf:RDF>
      <cc:Work
         rdf:about="">
        <dc:format>image/svg+xml</dc:format>
        <dc:type
           rdf:resource="http://purl.org/dc/dcmitype/StillImage" />
      </cc:Work>
    </rdf:RDF>
  </metadata>
  <g
     inkscape:label="Layer 1"
     inkscape:groupmode="layer"
     id="layer1"
     transform="translate(-370.55325,-170.0542)">
    <rect
       style="fill:#66c265;fill-opacity:1;stroke:none;stroke-width:8.30792"
       id="rect835-3-5-2"
       width="61.599751"
       height="61.599751"
       x="370.55325"
       y="170.0542"
       ry="12.743525" />
    <path
       style="fill:#ffffff;stroke-width:0.0916194"
       d="m 399.65867,224.67098 c -3.93439,-0.39741 -7.48313,-1.64762 -10.76529,-3.79257 -2.64051,-1.72563 -5.32221,-4.48208 -7.00685,-7.20218 -4.69608,-7.58251 -4.69608,-17.14746 0,-24.72997 0.93981,-1.51746 1.86962,-2.66633 3.38176,-4.17846 1.51143,-1.51143 2.65931,-2.44056 4.17846,-3.38221 8.41863,-5.21822 19.27838,-4.57884 26.9783,1.58837 1.10051,0.88146 2.73723,2.5109 3.62303,3.60694 2.71084,3.35422 4.35543,7.15753 5.00276,11.56947 0.22373,1.52486 0.22373,4.79689 0,6.32175 -0.78032,5.31831 -3.02143,9.78867 -6.76195,13.4881 -3.63856,3.5986 -7.98238,5.77853 -13.0352,6.54167 -1.38303,0.20888 -4.32179,0.2977 -5.59502,0.16909 z m 3.99866,-3.66426 c 5.25293,-0.52229 10.01676,-3.02292 13.29168,-6.97706 3.20175,-3.8658 4.82232,-8.58184 4.62227,-13.45137 -0.12477,-3.03723 -0.86053,-5.8155 -2.23217,-8.42878 -2.57913,-4.91384 -7.21929,-8.6185 -12.49711,-9.97755 -1.83926,-0.47362 -2.9372,-0.60296 -5.07607,-0.59801 -3.28254,0.007 -5.70195,0.55881 -8.61223,1.96207 -1.99318,0.96105 -3.76917,2.23942 -5.40556,3.89096 -2.97958,3.00716 -4.84512,6.72533 -5.51819,10.99825 -0.21897,1.39008 -0.21897,4.38194 0,5.77203 0.89722,5.69588 3.93473,10.44043 8.72488,13.62809 3.70102,2.4629 8.31251,3.61785 12.7025,3.18137 z m -3.08246,-7.93832 c -1.7946,-0.22395 -3.63727,-0.99296 -5.20303,-2.17139 -0.82884,-0.6238 -2.30621,-2.13829 -2.77581,-2.84557 -0.3148,-0.47413 -0.35558,-0.59925 -0.35697,-1.0953 -0.002,-0.73557 0.24112,-1.20577 0.80459,-1.55575 0.95239,-0.59154 1.88271,-0.34458 2.65279,0.70422 0.23618,0.32166 0.72452,0.86321 1.08518,1.20345 2.32117,2.18967 5.11365,2.74343 7.66503,1.51998 1.32552,-0.63561 2.35101,-1.48363 3.26888,-2.70321 0.77254,-1.02646 1.56403,-1.28994 2.48952,-0.82875 0.53672,0.26745 0.81515,0.60809 0.96987,1.1866 0.23532,0.87986 -0.29418,1.79668 -1.96971,3.4105 -1.86991,1.80105 -3.86946,2.82145 -6.1506,3.13872 -0.67038,0.0932 -1.88213,0.11108 -2.47974,0.0365 z m -7.64239,-15.67087 c -0.80823,-0.28548 -1.47375,-1.24878 -1.47375,-2.13317 0,-0.55338 0.27333,-1.19435 0.68474,-1.60575 0.89618,-0.89618 2.31532,-0.89618 3.21151,0 1.72387,1.72387 -0.11074,4.55544 -2.4225,3.73892 z m 16.03341,0 c -0.80823,-0.28548 -1.47375,-1.24878 -1.47375,-2.13317 0,-1.20793 1.08256,-2.29049 2.29049,-2.29049 0.55337,0 1.19434,0.27333 1.60576,0.68474 1.72387,1.72387 -0.11074,4.55544 -2.4225,3.73892 z"
       id="path2532" />
  </g>
</svg>
