<svg xmlns="http://www.w3.org/2000/svg" viewBox="0 0 64 64">
    <title>Digit Six</title>
    <circle cx="32" cy="32" r="30" fill="#4fd1d9"/>
    <path fill="#fff" d="M41.4 23.8l-5.6.6c-.1-1.2-.5-2.1-1.1-2.6-.6-.6-1.3-.9-2.2-.9-1.2 0-2.2.6-3.1 1.7-.8 1.1-1.4 3.5-1.6 7.1 1.4-1.8 3.2-2.7 5.3-2.7 2.4 0 4.5 1 6.2 2.9 1.7 1.9 2.6 4.4 2.6 7.4 0 3.2-.9 5.8-2.7 7.7s-4 3-6.8 3c-3 0-5.5-1.2-7.5-3.7C23 41.9 22 37.8 22 32.2c0-5.7 1-9.9 3-12.4s4.7-3.8 7.9-3.8c2.3 0 4.2.7 5.6 2 1.6 1.3 2.5 3.3 2.9 5.8m-13 13.1c0 2 .4 3.5 1.3 4.5.9 1.1 1.8 1.6 2.9 1.6 1.1 0 1.9-.4 2.7-1.3.7-.9 1.1-2.3 1.1-4.3s-.4-3.5-1.1-4.5c-.8-.9-1.7-1.4-2.9-1.4-1.1 0-2 .5-2.8 1.4-.8.9-1.2 2.2-1.2 4"/>
</svg>