<svg xmlns="http://www.w3.org/2000/svg" viewBox="0 0 64 64">
    <title>Digit Nine</title>
    <circle cx="32" cy="32" r="30" fill="#4fd1d9"/>
    <path fill="#fff" d="M22.6 40.2l5.6-.6c.1 1.2.5 2.1 1.1 2.6s1.3.9 2.3.9c1.2 0 2.2-.6 3-1.7.8-1.1 1.4-3.5 1.6-7.1-1.4 1.8-3.2 2.6-5.4 2.6-2.4 0-4.4-1-6.1-2.8-1.7-1.9-2.6-4.4-2.6-7.4 0-3.2.9-5.7 2.7-7.7 1.8-1.9 4.1-2.9 6.9-2.9 3 0 5.5 1.2 7.5 3.7 1.8 2.3 2.8 6.4 2.8 12 0 5.7-1 9.9-3 12.4S34.3 48 31.1 48c-2.3 0-4.2-.7-5.7-2s-2.4-3.2-2.8-5.8m13-13.1c0-1.9-.4-3.4-1.3-4.5s-1.8-1.6-3-1.6c-1.1 0-1.9.4-2.6 1.3-.7.9-1.1 2.3-1.1 4.3s.4 3.5 1.1 4.5c.8.9 1.7 1.4 2.9 1.4 1.1 0 2-.5 2.8-1.4.8-.9 1.2-2.2 1.2-4"/>
</svg>