<svg xmlns="http://www.w3.org/2000/svg" viewBox="0 0 64 64">
    <title>mahjong red dragon</title>
    <path fill="#b69467" d="M64 30.8v-8.4h-5.7v3L40.4 11c-.9-.8-2.5-.8-3.4 0L5.7 36v-2.8H0v8.5c.1.4.3.8.7 1.2l22.9 18.4c.9.8 2.5.8 3.4 0l36.2-29.1c.5-.4.8-.9.8-1.4"/>
    <path fill="#efdec2" d="M27.1 53c-.9.8-2.5.8-3.4 0L.7 34.6c-.9-.8-.9-2 0-2.8L36.9 2.7c.9-.8 2.5-.8 3.4 0l22.9 18.4c.9.8.9 2 0 2.8L27.1 53"/>
    <path fill="#b70000" d="M46.5 13.5c.8 2.1.3 4.2.3 6.3-1.8 2.1-3.7 0-5.5 2.5 3.8 2 9.1 6.4 6.6 10.5-4.1-.6-8.3-1.6-12.3.6 0-1.2-2-2.4-3.5-3.7C25.7 31.8 22.6 40 15.8 41c.3-4.6 11.3-9 13.4-13.6-1.6-2-3-1.1-4.6-2.8C28.8 21 21.5 17 28 13.5c2.1 1.6.1 3 1.3 4.5 2.5 1.5 4.9 1.9 7.4 3.3 3.8-2.6 3.2-5.3 5.3-7.9 1.5-.3 3.1.6 4.5.1M38 24c-1.6 1.3-3.2 2.6-4.9 3.9 3.6 2.2 7.1 1.5 10.6-.2-.2-2.1-3.8-3-5.7-3.7m-7.9-3.8c-.9 1.9-2.3 3.8.8 5.9 1.5-1.5 4.8-2.9 3.2-4.4-1.4.2-2.7-.9-4-1.5"/>
</svg>