<svg xmlns="http://www.w3.org/2000/svg" viewBox="0 0 64 64">
    <title>COOL button</title>
    <path fill="#4fd1d9" d="M62 52c0 5.5-4.5 10-10 10H12C6.5 62 2 57.5 2 52V12C2 6.5 6.5 2 12 2h40c5.5 0 10 4.5 10 10v40z"/>
    <g fill="#fff">
        <path d="M15 37.7c-1.4 0-2.5-1-2.5-2.3v-6.9c0-1.3 1.1-2.3 2.5-2.3s2.5 1 2.5 2.3H20c0-2.5-2.2-4.6-5-4.6s-5 2.1-5 4.6v6.9c0 2.5 2.2 4.6 5 4.6s5-2.1 5-4.6h-2.5c0 1.3-1.1 2.3-2.5 2.3M27 24c-2.8 0-5 2.1-5 4.6v6.9c0 2.5 2.2 4.6 5 4.6s5-2.1 5-4.6v-6.9c0-2.5-2.2-4.6-5-4.6m0 13.7c-1.4 0-2.5-1-2.5-2.3v-6.9c0-1.3 1.1-2.3 2.5-2.3s2.5 1 2.5 2.3v6.9c0 1.3-1.1 2.3-2.5 2.3M39 24c-2.8 0-5 2.1-5 4.6v6.9c0 2.5 2.2 4.6 5 4.6s5-2.1 5-4.6v-6.9c0-2.5-2.2-4.6-5-4.6m0 13.7c-1.4 0-2.5-1-2.5-2.3v-6.9c0-1.3 1.1-2.3 2.5-2.3s2.5 1 2.5 2.3v6.9c0 1.3-1.1 2.3-2.5 2.3M48.3 24H46v16h8v-2.3h-5.7z"/>
    </g>
</svg>