<svg xmlns="http://www.w3.org/2000/svg" viewBox="0 0 64 64">
    <title>flag: Cook Islands</title>
    <g fill="#2a5f9e">
        <path d="M32 2v30H2c0 16.6 13.4 30 30 30s30-13.4 30-30S48.6 2 32 2z"/>
        <path d="M12 12h21v21H12z"/>
    </g>
    <g fill="#fff">
        <path d="M18.9 8.1V14h-7.3L26 32h6v-7.5z"/>
        <path d="M11 18.9H5c-1.9 4-3 8.4-3 13.1h12V13.9h-3v5"/>
    </g>
    <path fill="#ed4c5c" d="M32 27.1L19 11h-6l17 21h2z"/>
    <path fill="#fff" d="M18.9 5v6H11v3h21V2c-4.7 0-9.1 1.1-13.1 3z"/>
    <path fill="#ed4c5c" d="M32 5H18.9c-6 2.9-11 7.9-13.9 13.9V32h6V11h21V5z"/>
    <g fill="#fff">
        <path d="M52 21.1l-.2 1.8 1.7.8-1.8.4-.2 1.8-1-1.6-1.8.4 1.3-1.4-1-1.6 1.7.8zM56.4 24.3l-.9 1.6 1.2 1.4-1.8-.4-.9 1.6-.2-1.8-1.8-.4 1.7-.8-.2-1.8 1.2 1.4zM59.2 29.1l-1.5 1.1.6 1.7-1.5-1-1.5 1 .5-1.7-1.4-1.1h1.8l.6-1.8.5 1.8zM59.8 34.6L58 35l-.2 1.8-1-1.6-1.8.4 1.3-1.4-.9-1.6 1.6.8 1.3-1.4-.2 1.8zM58.1 39.8l-1.8-.4-1 1.6-.2-1.8-1.8-.4 1.7-.7-.2-1.9 1.3 1.4 1.6-.7-.9 1.6zM54.4 43.9l-1.5-1.1-1.5 1.1.6-1.7-1.5-1.1h1.8l.6-1.8.5 1.8h1.9l-1.5 1.1zM49.3 46.2l-.9-1.6-1.8.4 1.2-1.4-.9-1.6 1.7.7 1.2-1.3-.2 1.8 1.7.8-1.8.3zM43.8 46.2l-.2-1.9-1.8-.3 1.7-.8-.2-1.8 1.2 1.3 1.7-.7-.9 1.6 1.2 1.4-1.8-.4zM38.8 43.9l.5-1.7-1.4-1.1h1.8l.6-1.8.5 1.8h1.9l-1.5 1.1.6 1.7-1.5-1.1zM35.1 39.8l1.2-1.3-.9-1.6 1.7.7 1.2-1.4-.2 1.9 1.7.7-1.8.4-.2 1.8-.9-1.6zM33.4 34.6l1.7-.8-.2-1.8 1.2 1.4 1.7-.8-.9 1.6 1.2 1.4-1.8-.4-.9 1.6-.2-1.8zM34 29.1h1.8l.6-1.8.5 1.8h1.9l-1.5 1.1.6 1.7-1.5-1-1.5 1 .6-1.7zM36.7 24.3l1.7.8 1.2-1.4-.2 1.8 1.7.8-1.8.4-.2 1.8-.9-1.6-1.8.4 1.2-1.4zM41.2 21.1l1.2 1.4 1.7-.8-.9 1.6 1.2 1.4-1.8-.4-.9 1.6-.2-1.8-1.8-.4 1.7-.8zM46.6 19.9l.5 1.8H49l-1.5 1.1.6 1.7-1.5-1.1-1.5 1.1.6-1.7-1.5-1.1H46z"/>
    </g>
</svg>