<svg xmlns="http://www.w3.org/2000/svg" xmlns:xlink="http://www.w3.org/1999/xlink" viewBox="0 0 64 64">
    <title>flag: Antigua &amp; Barbuda</title>
    <path fill="#ed4c5c" d="M56 14H8c-3.8 5-6 11.2-6 18 0 16.6 13.4 30 30 30s30-13.4 30-30c0-6.8-2.2-13-6-18"/>
    <path id="a" fill="#42ade2" d="M20.5 39h23l7-14h-37z"/>
    <use xlink:href="#a"/>
    <path fill="#3e4347" d="M50.5 25L56 14C50.5 6.7 41.8 2 32 2S13.5 6.7 8 14l5.5 11h37z"/>
    <path fill="#fff" d="M20.5 39L32 62l11.5-23z"/>
    <path fill="#ffce31" d="M36.2 22.2l5-6.4-6.4 5.1L37 13l-4 7.1-.9-8.1-1.1 8.1-3.9-7.1 2.1 7.8-6.4-5 5.1 6.4L20 20l7.1 4-8.1.9.4.1h25.2l-7.7-1 7.1-3.9z"/>
</svg>