<svg xmlns="http://www.w3.org/2000/svg" viewBox="0 0 64 64">
    <title>flag: Ascension Island</title>
    <defs>
        <linearGradient id="e" x1="-1706.416" x2="-1705.416" gradientTransform="matrix(1.972 -1.9014 -2.3361 -1.2306 7188.126 -1233.376)" gradientUnits="userSpaceOnUse">
            <stop stop-color="#288549"/>
            <stop offset="1" stop-color="#288549"/>
        </linearGradient>
        <linearGradient id="f" x1="-1426.487" x2="-1425.487" gradientTransform="matrix(4.2109 1.6428 -2.7757 3.3581 11406.147 -4099.373)" gradientUnits="userSpaceOnUse">
            <stop stop-color="#288549"/>
            <stop offset="1" stop-color="#288549"/>
        </linearGradient>
        <linearGradient id="d" x1="-1740.867" x2="-1739.866" gradientTransform="matrix(-.6286 -2.665 -2.2494 1.3805 3029.934 -7118.667)" gradientUnits="userSpaceOnUse">
            <stop stop-color="#288549"/>
            <stop offset="1" stop-color="#288549"/>
        </linearGradient>
        <linearGradient id="b" x1="47.56" x2="52.91" gradientTransform="matrix(1 0 0 -1 0 66)" gradientUnits="userSpaceOnUse">
            <stop stop-color="#288549"/>
            <stop offset="1" stop-color="#288549"/>
        </linearGradient>
        <linearGradient id="a" x1="-1458.591" x2="-1457.591" gradientTransform="rotate(45 10033.28 17957.933) scale(6.6516)" gradientUnits="userSpaceOnUse">
            <stop stop-color="#288549"/>
            <stop offset="1" stop-color="#288549"/>
        </linearGradient>
        <linearGradient id="c" x1="-1618.009" x2="-1617.009" gradientTransform="matrix(1.1995 -5.0853 4.2924 2.6342 -5986.943 -13088.627)" gradientUnits="userSpaceOnUse">
            <stop stop-color="#288549"/>
            <stop offset="1" stop-color="#288549"/>
        </linearGradient>
    </defs>
    <path fill="#2a5f9e" d="M11.9 12h20.8v20.8H11.9z"/>
    <path fill="#fff" d="M18.8 8.1V14h-7.3l14.4 18h6v-7.5z"/>
    <path fill="#2a5f9e" d="M31.9 2v30h-30c0 16.6 13.4 30 30 30s30-13.4 30-30-13.5-30-30-30"/>
    <path fill="#fff" d="M10.9 18.9h-6c-1.9 4-3 8.4-3 13.1h12V13.9h-3v5"/>
    <path fill="#ed4c5c" d="M31.9 27.1L18.9 11h-6l17 21h2z"/>
    <path fill="#fff" d="M18.8 5v6h-7.9v3h21V2c-4.7 0-9.2 1.1-13.1 3"/>
    <path fill="#ed4c5c" d="M31.9 5H18.8c-6.1 2.9-11 7.9-13.9 13.9V32h6V11h21V5"/>
    <g fill="#fff">
        <path d="M49.9 27.9c.6-1.5 1.9-2.4 3-2 .3.1.6.3.7.6-.1-.9-.5-1.7-1.2-2-1.1-.4-2.5.5-3 2-.4 1.1-.3 2.2.2 2.9.1-.4.1-.9.3-1.5M42.1 24.5c-1.1-.4-2.4.5-3 2-.3.7-.3 1.3-.2 1.9-.5.4-1.2.6-2 .7-.6 0-1.1 0-1.5-.2.5.7 1.6 1.1 2.7 1.1 1.6-.1 2.9-1.1 2.8-2.3 0-.4-.2-.8-.5-1.1.6-.6 1.5-.9 2.2-.7.3.1.6.3.7.6 0-1-.5-1.7-1.2-2M59.6 27.6c-1-1.1-2.3-1.4-2.9-.5-.2.2-.3.5-.3.8-.3-.9-.2-1.7.2-2.3.7-.8 2-.6 2.9.5.7.8 1 1.9.9 2.7-.2-.4-.5-.9-.8-1.2M36.2 27.1c.5-1.1.2-2.2-.6-2.4-.2-.1-.5 0-.8 0 .5-.5 1.2-.8 1.8-.6.9.2 1.1 1.3.6 2.4-.4.8-1.1 1.4-1.8 1.6.4-.2.7-.6.8-1"/>
    </g>
    <path d="M42.6 31.8s.1 5.1.1 5.5c.1.5.4 3.4 4.5 5.1 0 0 3.2-1.4 4-3.3.8-1.9.7-5.5.7-5.5v-2l-9.3.2"/>
    <path fill="#fff" d="M43 32.2s.1 4.7.1 5.1c.1.4.3 3.1 4.2 4.7 0 0 3-1.3 3.8-3 .8-1.8.6-5.1.6-5.1v-1.8l-8.7.1"/>
    <g fill="#1b81b6">
        <path d="M51.7 33.7l-1.2-.4-1.6.7-1.6-.5-1.4.5-1.7-.7-1.2.5v1.6l1.2-.5 1.7.7 1.4-.5 1.6.5 1.6-.7 1.3.4-.1-1.6M43.9 39.4c.1 0 2.1.6 2.1.6l1.4-.6 1.6.6s1.8-.7 2-.7c.5.1-2.7 2.7-3.6 2.7-.8.1-4-2.4-3.5-2.6M51.4 38c-.2-.1-1-.3-1-.3l-1.5.7-1.6-.6-1.4.6-1.6-.7s-.8.2-1 .4c-.1.1-.2-1.2-.2-1.2l1.2-.5 1.6.7 1.4-.6 1.6.6 1.5-.7 1.3.4c-.1 0-.2 1.3-.3 1.2"/>
    </g>
    <path fill="url(#a)" d="M50.7 39.7l-.1.1.1-.1m-3.2-5.5l-4.1 4.4c.2.4.4.8.7 1.3l3.4-3.5 3.2 3.4c.3-.4.6-.9.7-1.4l-3.9-4.2"/>
    <path d="M44.6 28.3l.6 1.4h4.2l.6-1.4-2.7-6.4z"/>
    <path fill="#7ed16d" d="M44.8 28.1l.6 1.4h3.8l.5-1.4-2.4-5.7z"/>
    <path fill="#93695a" d="M44.1 26.9l2.1 2.6 2.6-.1.5-1.8-1.8-.1-1.2.6z"/>
    <path fill="#6baaa7" d="M47.1 29.1l-3.2.9 1.5 1.8v1.7l1.6-.2s.8-1.5.9-1.5c.1 0 1.5.5 1.5.5l.3-.8 1.8-.6-3.1-.9.1-.8-1.4-.1"/>
    <path fill="url(#b)" d="M51.9 29.8c-.6.3-1.2.5-1.8.4.7-.1 1.4-.7 1.6-1.4.2-.8 0-1.6-.6-2.1.1.4.1.7 0 1.1-.3 1.1-1.5 1.9-2.6 1.4-.5-.2-.6-.9-.6-1.2-.3.7-.4 1.5 0 2.2-.1.1-.1.2-.2.3-.4 1 .1 2.1 1.1 2.4.7.3 1.5.1 2-.4-.3.1-.7 0-1-.1-.6-.2-1-.7-1.1-1.2.9.7 2.1.8 3.1.2.9-.6 1.3-1.6 1.2-2.6-.3.3-.6.7-1.1 1"/>
    <path fill="url(#c)" d="M42.6 25.9c.5 1.5.1 3.1-1 3.5-.3.1-.6.1-.9 0 .6.7 1.5 1 2.2.7 1.1-.4 1.6-1.9 1-3.5-.4-1.1-1.2-1.9-2-2.1.2.4.5.9.7 1.4"/>
    <path fill="url(#d)" d="M36.1 27.2c-.3.8 0 1.6.5 1.8.2.1.3.1.5 0-.3.4-.8.5-1.1.4-.6-.2-.8-1-.5-1.8.2-.6.6-1 1.1-1.1-.3.2-.4.4-.5.7"/>
    <path fill="url(#e)" d="M58 25.4c-.8.2-1.4.8-1.3 1.4 0 .2.1.3.2.4-.5-.1-.8-.4-.9-.8-.1-.6.5-1.2 1.3-1.4.6-.1 1.2 0 1.5.4H58"/>
    <path fill="url(#f)" d="M55.9 27.5c-1.3.3-2.5-.4-2.7-1.5-.1-.3 0-.6.1-.9-.6.5-1 1.3-.8 2.1.2 1.1 1.4 1.8 2.7 1.5.9-.2 1.7-.9 1.9-1.7-.3.1-.7.3-1.2.5"/>
    <path fill="#74948f" d="M36.1 43.3c-1.3-.5 2.9-2.7 4.7-2.6 1.4.1 4.2 2.5 3.2 2.8-4.9 1.3-4.8 1-7.9-.2"/>
    <path fill="#e5c9bd" d="M40.6 31.8c.1-.4.5-1.2.8-1.5.3-.3 1.1-.6 1.5-.5.3 0 1 .4.9.6h-.3c-.3.1-.4.9-.6 1.2-.2.2-.8.3-.9.5-.1.2.1 1 .1 1l-1.5.1s-.1-1 0-1.4"/>
    <path fill="#c6a397" d="M41 36.9c0 .1.7 1.8.9 2.5.3 1.2-1.6 3.3-1.5 2.3.2-1.3-.5-2.6-.5-2.6l1.1-2.2"/>
    <g fill="#e5c9bd">
        <path d="M40.5 37.9c-.1.1.1 1.9.1 2.6-.1 1.3-2.5 2.6-2.1 1.7.6-1.2.3-2.6.3-2.6l1.7-1.7M41.5 33.3c0 .1 1.6 1.1 2.1 1.5.9.9.5 3.6.1 2.7-.6-1.2-1.8-1.9-1.8-1.9l-.4-2.3"/>
    </g>
    <path fill="#d66b3c" d="M41 32.4c-1.2.1-2.9 2.5-3.4 3.6-.5 1.2-1.2 5-.5 5.2.9.3 3.9-2 4.6-3.3.6-1 .9-3.6.4-4.7 0-.2-.7-.8-1.1-.8"/>
    <path fill="#74948f" d="M58.6 43.3c1.3-.5-2.9-2.7-4.7-2.6-1.4.1-4.2 2.5-3.2 2.8 4.9 1.3 4.7 1 7.9-.2"/>
    <path fill="#e5c9bd" d="M54.1 31.8c-.1-.4-.5-1.2-.8-1.5-.3-.3-1.1-.6-1.5-.5-.3 0-1 .4-.9.6h.3c.3.1.4.9.6 1.2.2.2.8.3.9.5.1.2-.1 1-.1 1l1.5.1c-.1 0 .1-1 0-1.4"/>
    <path fill="#c6a397" d="M53.7 36.9c0 .1-.7 1.8-.9 2.5-.3 1.2 1.6 3.3 1.5 2.3-.2-1.3.5-2.6.5-2.6l-1.1-2.2"/>
    <g fill="#e5c9bd">
        <path d="M54.2 37.9c.1.1-.1 1.9-.1 2.6.1 1.3 2.5 2.6 2.1 1.7-.6-1.2-.3-2.6-.3-2.6l-1.7-1.7M53.2 33.3c0 .1-1.6 1.1-2.1 1.5-.9.9-.5 3.6-.1 2.7.6-1.2 1.8-1.9 1.8-1.9l.4-2.3"/>
    </g>
    <path fill="#d66b3c" d="M53.7 32.4c1.2.1 2.9 2.5 3.4 3.6.5 1.2 1.2 5 .5 5.2-.9.3-3.9-2-4.6-3.3-.6-1-.9-3.6-.4-4.7 0-.2.7-.8 1.1-.8"/>
</svg>