<svg xmlns="http://www.w3.org/2000/svg" viewBox="0 0 64 64">
    <title>flag: Bermuda</title>
    <path fill="#428bc1" d="M12 12h20v20H12z"/>
    <path fill="#fff" d="M18.9 8.1V14h-7.3L26 32h6v-7.5z"/>
    <path fill="#ed4c5c" d="M32 2v30H2c0 16.6 13.4 30 30 30s30-13.4 30-30S48.6 2 32 2z"/>
    <path fill="#fff" d="M11 18.9H5c-1.9 4-3 8.4-3 13.1h12V13.9h-3v5"/>
    <path fill="#ed4c5c" d="M32.5 27.6L19 11h-6l17.5 21.6h2z"/>
    <path fill="#fff" d="M18.9 5v6H11v3h21V2c-4.7 0-9.1 1.1-13.1 3z"/>
    <path fill="#ed4c5c" d="M33 5H18.9c-6 2.9-11 7.9-13.9 13.9V33h6V11h22V5z"/>
    <path fill="#3e4347" d="M47 47l-6.2-2.4c-1.3-.5-3.8-1.5-3.8-4.1V21.1h20v19.4c0 2.6-2.5 3.6-3.8 4.1L47 47z"/>
    <path fill="#fff" d="M38.4 22.5v18c0 1.5 1.4 2.2 2.9 2.8l5.7 2.2 5.7-2.2c1.5-.6 2.9-1.2 2.9-2.8v-18H38.4"/>
    <path fill="#83bf4f" d="M39.8 38.3v1.4c0 1.3 1.2 1.9 2.4 2.4L47 44l4.8-1.9c1.2-.5 2.4-1.1 2.4-2.4v-1.4H39.8"/>
    <g fill="#ed4c5c">
        <path d="M41.8 40.2c-.4-.2-.3-1.5.1-1.8.3-.2 1.4-.1 1.4-.1l.5-1.1 1.4.7-1 1.2s-.2.9-.5 1c-.1 0-.3-.4-.4-.3-.2 0-.3.8-.6.8s-.2-.9-.4-.9c-.1-.1-.3.6-.5.5M51.9 40.4c.4-.2.3-1.5-.1-1.8-.3-.2-1.4-.1-1.4-.1l-.4-1.2-1.4.7 1 1.2s.2.9.5 1c.1 0 .3-.4.4-.3.2 0 .3.8.6.8s.2-.9.4-.9c.1-.1.2.6.4.6M50.4 32.2s2.4.3 2.9.8c.6.6.9 2.8.3 3.3-.3.3-1.8-.4-1.8-.4v-.7l-1.9-1.6.5-1.4M43.1 31.7s-1.7.5-2.1.9c-.6.6-1.4 3.1-.6 3.6.4.2 1.5-.9 1.5-.9l1.7-1.1-.5-2.5"/>
    </g>
    <path fill="#42ade2" d="M43.4 33l-1.8-1.5s-.5-1.6.8-1.8c1.2-.2 4.8-.4 4.8-.4s4.5.1 4.8.3c1.1.7 0 2.2 0 2.2l-1.5 1.4 1.1 2.7-8.4-.2.2-2.7"/>
    <path fill="#ffce31" d="M42.8 34.8l.5-3.1 2.3-.8 1.7 2.5-.1 4z"/>
    <path fill="#3e4347" d="M45.2 35.8l.4-2.3 3.1-.8 1.7 3.2-2.7 1.9z"/>
    <path fill="#fff" d="M42.1 35.3l.8-.7s1.3 1 1.8 1.1c.3.1 1.1-.3 1.4-.1.2.2.1 1 .4 1.1.6.2 1.4-1.2 2-1.3.3-.1 1 .5 1.3.4.4-.2.8-1.7.8-1.7l1.2 1.1-.6 2.3-1.7.4-2.7 2-2.5-2.1-1.6-.4-.6-2.1"/>
    <path fill="#ed4c5c" d="M42.3 29.7s-.9-.5-.7-.7c.2-.4 1.4-.4 1.9-.2.2.1.5.6.5.6l1.2-.3.1-.8s-.6-.4-.5-.6c0-.3.9-.6.9-.6s-.9-.1-.9-.4c0-.2.7-.4.7-.4s-.5-.5-.3-.7c.1-.1.6.2.6.2s-.3-.6-.2-.8c.1-.2.5-.5.5-.5s0-.7.2-.8c.1 0 .8.2.8.2s.5-.5.6-.5c.2 0 .3.5.3.5l.6-.2c.1 0 .1.9.1.9s.4.2.5.3c0 .2-.3.6-.3.6s.7 0 .8.1c.1.2-.4.6-.4.6s.5.4.5.6c0 .2-.7.4-.7.4s.6.4.6.6c0 .2-.6.3-.6.3l.4.7.8.5s1.3-.5 1.7-.5c.2 0 .5.2.5.3.1.2-.5.5-.5.5l-.7.8-2.8-.9-3.2.1-2.1.9-.9-.8"/>
    <g fill="#3e4347">
        <ellipse cx="46.7" cy="25.3" rx=".3" ry=".2"/>
        <ellipse cx="47.8" cy="25.3" rx=".3" ry=".2"/>
    </g>
    <g fill="#ffce31">
        <path d="M42.3 29.7s.6 1.1 1.1 1.1c.5 0 2-.8 2-.8v.4c.5.5 2.5.6 2.9 0 .1-.1-.1-.6-.1-.6s2.2.9 2.9.8c.3 0 .7-.9.7-.9s-.6.4-1 .3c-.8-.1-2.2-1-3-.9-.2 0-.7.4-.7.4h-.8s-.6-.3-.8-.3c-.6 0-1.6.9-2.2 1-.3 0-1-.5-1-.5M52.5 31.5h-.9l-1.5 1.8.9 1.6.7.5-.6 1.8-.9.5-.5-.3-.7.1.3.5-1.2.7-.9.5-.2.6.5.4.4-.5-.1-.4 1.3-.4.6-.8 1 .1.7-.5.6-2.2.2-.4-.8-.5-.8-1.3 1.1-1.1.5.3.3-.2zM41.4 31.5h.9l1.5 1.8-.9 1.6-.7.5.6 1.8.9.5.5-.3.7.1-.3.5 1.2.7.9.5.2.6-.5.4-.4-.5.1-.4-1.3-.4-.6-.8-1 .1-.7-.5-.6-2.2-.2-.4.8-.5.8-1.3-1.1-1.1-.5.3-.4-.2z"/>
    </g>
</svg>