<svg xmlns="http://www.w3.org/2000/svg" viewBox="0 0 64 64">
    <title>flag: Belize</title>
    <g fill="#ed4c5c">
        <path d="M52.4 10C47 5 39.9 2 32 2c-7.9 0-15 3-20.4 8h40.8zM11.6 54c5.4 5 12.5 8 20.4 8 7.9 0 15-3 20.4-8H11.6"/>
    </g>
    <path fill="#428bc1" d="M2 32c0 8.7 3.7 16.5 9.6 22h40.8c5.9-5.5 9.6-13.3 9.6-22s-3.7-16.5-9.6-22H11.6C5.7 15.5 2 23.3 2 32z"/>
    <circle cx="32" cy="32" r="16" fill="#fff"/>
    <path fill="#89664c" d="M32 44.5c-6.9 0-12.5-5.6-12.5-12.5S25.1 19.5 32 19.5 44.5 25.1 44.5 32 38.9 44.5 32 44.5m0-24c-6.3 0-11.5 5.2-11.5 11.5S25.7 43.5 32 43.5 43.5 38.3 43.5 32 38.3 20.5 32 20.5"/>
    <g fill="#699635">
        <path d="M31 22v-1.3c.4 0 .7-.3.7-.7s-.3-.7-.7-.7V18c1.1 0 2 .9 2 2s-.9 2-2 2M28.5 22.6l-.3-1.3c.4-.1.6-.5.5-.8-.1-.4-.5-.6-.8-.5l-.3-1.3c1.1-.3 2.2.4 2.4 1.4.3 1.1-.4 2.2-1.5 2.5M26.3 23.7l-.6-1.2c.3-.2.4-.6.3-.9-.2-.3-.6-.4-.9-.3l-.6-1.2c1-.5 2.2-.2 2.7.8.4 1.1.1 2.3-.9 2.8M24.4 25.4l-.9-1c.3-.3.3-.7 0-.9-.3-.3-.7-.3-.9 0l-.9-1c.8-.8 2.1-.7 2.8.1.8.8.7 2-.1 2.8M23 27.5l-1.1-.7c.2-.3.1-.7-.2-.9-.3-.2-.7-.1-.9.2l-1.1-.7c.6-.9 1.8-1.2 2.8-.6.8.5 1.1 1.8.5 2.7M22.2 29.9l-1.3-.4c.1-.4-.1-.7-.4-.8-.4-.1-.7.1-.8.4l-1.3-.4c.3-1 1.5-1.6 2.5-1.3 1 .3 1.6 1.4 1.3 2.5M22 32.4l-1.3-.1c0-.4-.3-.7-.6-.7-.4 0-.7.3-.7.6l-1.4-.1c.1-1.1 1-1.9 2.1-1.9 1.1.1 1.9 1.1 1.9 2.2M22.4 34.9l-1.3.2c-.1-.4-.4-.6-.8-.5-.4.1-.6.4-.5.8l-1.3.2c-.2-1.1.5-2.1 1.6-2.3 1-.2 2.1.5 2.3 1.6M23.4 37.2l-1.2.6c-.2-.3-.6-.5-.9-.3-.3.1-.5.5-.3.8l-1.2.6c-.5-1 0-2.2 1-2.7.9-.5 2.1 0 2.6 1M24.9 39.1l-1 .8c-.2-.3-.7-.3-.9-.1-.3.2-.3.7-.1.9l-1 .9c-.7-.9-.6-2.1.3-2.8.8-.6 2-.5 2.7.3M26.9 40.7l-.8 1.1c-.3-.2-.7-.1-.9.1s-.1.7.1.9l-.8 1.1c-.9-.6-1.1-1.9-.4-2.8.7-.9 1.9-1.1 2.8-.4M29.2 41.7l-.5 1.2c-.3-.1-.7 0-.9.4-.1.3 0 .7.4.9l-.5 1.2c-1-.4-1.5-1.6-1.1-2.6s1.6-1.5 2.6-1.1M31.7 42l-.2 1.3c-.4 0-.7.2-.7.6 0 .4.2.7.6.7l-.2 1.4c-1.1-.1-1.9-1.1-1.7-2.2.1-1.1 1.1-1.9 2.2-1.8M34.2 41.8l.2 1.3c-.4 0-.6.4-.6.7 0 .4.4.6.7.6l.2 1.3c-1.1.1-2.1-.6-2.2-1.7-.1-1.1.7-2.1 1.7-2.2M36.6 40.9l.5 1.2c-.3.1-.5.5-.4.9.1.3.5.5.9.4l.5 1.2c-1 .4-2.2-.1-2.6-1.1-.4-1 .1-2.2 1.1-2.6M38.7 39.5l.8 1.1c-.3.2-.4.6-.1.9.2.3.6.4.9.1l.8 1.1c-.9.6-2.1.4-2.8-.4-.7-.9-.5-2.1.4-2.8M40.3 37.6l1 .8c-.2.3-.2.7.1.9.3.2.7.2.9-.1l1 .8c-.7.9-2 1-2.8.3-.7-.6-.9-1.8-.2-2.7M41.5 35.4l1.2.6c-.2.3 0 .7.3.9.3.2.7 0 .9-.3l1.2.6c-.5 1-1.7 1.4-2.7 1s-1.4-1.9-.9-2.8M42 32.9l1.3.2c-.1.4.2.7.5.8.4.1.7-.2.8-.5l1.3.2c-.2 1.1-1.3 1.8-2.3 1.6-1.1-.2-1.8-1.2-1.6-2.3M41.9 30.4l1.3-.1c0 .4.3.6.7.6.4 0 .6-.3.6-.7l1.3-.1c.1 1.1-.8 2.1-1.9 2.1-1 .1-1.9-.7-2-1.8M41.2 28l1.3-.4c.1.4.5.5.8.4.3-.1.5-.5.4-.8l1.3-.4c.3 1-.2 2.2-1.3 2.5s-2.2-.3-2.5-1.3M39.9 25.8l1.1-.7c.2.3.6.4.9.2.3-.2.4-.6.2-.9l1.1-.7c.6.9.3 2.2-.6 2.8-.9.5-2.1.2-2.7-.7M38.1 24l.9-1c.3.3.7.2.9 0 .3-.3.2-.7 0-.9l.9-1c.8.8.8 2 .1 2.8-.7.8-2 .9-2.8.1M35.9 22.8l.6-1.2c.3.2.7.1.9-.3.2-.3.1-.7-.3-.9l.6-1.2c1 .5 1.3 1.8.8 2.7-.4 1-1.6 1.4-2.6.9M33.5 22.1l.3-1.3c.4.1.7-.1.8-.5.1-.4-.1-.7-.5-.8l.3-1.3c1.1.3 1.7 1.4 1.4 2.4-.1 1.1-1.2 1.7-2.3 1.5"/>
        <ellipse cx="31.8" cy="38.7" rx="7.8" ry="1.6"/>
        <path d="M37.3 24.9c0-.7-1.1-1.2-2.4-1.2.2-.1.3-.3.3-.5 0-.5-.8-.9-1.9-.9-.5 0-1 .1-1.4.3-.2 0-.4-.1-.6-.1-.9 0-1.7.3-1.9.8H29c-1 0-1.9.4-1.9.9 0 .4.5.7 1.1.8-.5.2-.8.5-.8.9 0 .7 1.1 1.2 2.5 1.2.7 0 1.3-.1 1.7-.3 0 .1-.1.2-.1.3 0 .3.3.6.7.9-.1 0-.2.1-.2.1-.3-.5-.9-.8-1.7-.8-1 0-1.9.5-1.9 1.2s.8 1.2 1.9 1.2c.5 0 1-.2 1.4-.4.3.5.9.8 1.7.8 1 0 1.9-.5 1.9-1.2 0-.3-.1-.5-.3-.7.9-.2 1.6-.6 1.6-1.1 0-.4-.4-.8-1-1 .9-.2 1.7-.6 1.7-1.2m-4.7-.8h.3c-.4.2-.6.5-.6.8 0 .4.4.8 1 1-.4.1-.7.2-1 .3 0-.1.1-.2.1-.3 0-.6-.8-1.1-1.9-1.2.2-.1.3-.2.3-.4h.4c.5.1 1 0 1.4-.2"/>
    </g>
    <path fill="#ff8736" d="M28.6 29.9c.1-.4-.2-.8-.1-1.2.1-1-.3-.6-.8-1.2-.5-.4.1-.9 0-1.4-.1-.9-.6-.5-1.2-.5-.5 0 .5 1.6-.2 2-.9.5-1 .7-1.3 1.6-.1-.3-.2-.2-.1-.6 0 0-.6.3-.7.3-.2.1.1 1 .2 1.2.4.7 1.4.3 1.4-.5.3 1 .1 1 1.3 1.1.4 0 1.1 0 .9-.7.2 1.3.9.5 1.5.1-.2.1-.9-.1-.9-.2"/>
    <path d="M26.3 25.9c-.5-.4.7-.8.9-.7.4 0 .6.5.6.9-.1.8-.1-.1-.2.2 0-.2-.1-.4 0-.6-.5.2-1.1-.1-1.3.2"/>
    <path fill="#d0d0d0" d="M28.2 34.9c0-1.4-.3-2.9-.3-4.2-.6.3-1.9-.1-1.9-.1s-.6 2.9-.6 3.6c0 1.2-.6 2.8-.4 3.9.1.7 1 0 1.2-.1.2-.2.1-1 .1-1.3 0-1.2.1-2.2.5-3.3 0 .7.4 1.3.3 2.1v2.3c0 .1 1.1.2 1.2 0 .1-.9-.1-1.9-.1-2.9"/>
    <path fill="#89664c" d="M35.5 30c0 .1-.7.3-.8.3.6.5 1.3 1.2 1.5-.1-.2.7.4.7.8.7 1.2 0 1-.1 1.3-1.1 0 .8 1 1.1 1.4.5.1-.2.4-1 .2-1.2-.1 0-.7-.3-.7-.3.1.4-.1.3-.1.6-.3-1-.4-1.1-1.3-1.6-.7-.4.4-2-.2-2-.7 0-1.2-.4-1.2.5 0 .5.5.9 0 1.4-.6.5-.9.2-.8 1.2.1.3-.2.7-.1 1.1"/>
    <path d="M37.8 25.9c-.2-.2-.8 0-1.2-.2.1.2 0 .4 0 .6-.2-.3-.2.5-.2-.2 0-.4.1-.9.6-.9.1 0 1.3.3.8.7"/>
    <path fill="#d0d0d0" d="M35.9 35c0-1.4.3-2.9.3-4.2.6.3 1.9-.1 1.9-.1s.6 2.9.6 3.6c0 1.2.7 2.8.4 3.9-.1.7-1 0-1.2-.1-.2-.2-.1-1-.1-1.3 0-1.2-.1-2.2-.5-3.3 0 .7-.4 1.3-.3 2.1v2.3c0 .1-1.1.2-1.2 0 0-.9.1-1.9.1-2.9"/>
    <path fill="#9dd7ff" d="M35.5 30.2v4.2c0 .8-.1 4.1-3.4 5.4-3.3-1.3-3.4-4.6-3.4-5.4v-4.2h6.8"/>
    <path fill="#d0d0d0" d="M32.1 30.2v3.4L29 36.5c-.3-.9-.3-1.8-.3-2.1v-4.2h3.4"/>
    <path fill="#ffd83c" d="M32.1 30.2v3.4l3.1 2.9c.3-.9.3-1.8.3-2.1v-4.2h-3.4"/>
</svg>