<svg xmlns="http://www.w3.org/2000/svg" viewBox="0 0 64 64">
    <title>flag: Angola</title>
    <path fill="#3e4347" d="M32 62c16.6 0 30-13.4 30-30H2c0 16.6 13.4 30 30 30z"/>
    <path fill="#ed4c5c" d="M32 2C15.4 2 2 15.4 2 32h60C62 15.4 48.6 2 32 2z"/>
    <g fill="#ffe62e">
        <path d="M27.5 24.5l-1.3 4 3.4-2.5 3.5 2.5-1.3-4 3.4-2.5h-4.3l-1.3-4.1-1.3 4.1H24zM48 48.6c-.5-.8-1.1-1.4-1.9-2.1s-1.9-1.5-2.8-2.3L41.7 46c-.1.1 0 .3 0 .3 1.8.3 2.3.9 3 1.5 1 1 1.3 2.1 2 2.6 1.2.7 2.1-.6 1.3-1.8M33.8 41.7c-1.7.6-3.6.8-5.5.6-2.5-.3-4.8-1.2-6.7-2.8l-1.9 2.3c.8.7 1.7 1.2 2.5 1.7l-.6 1.2c1 .5 2 1 3.1 1.3l.4-1.2c1 .3 2 .5 3 .6l-.1 1.2c1.1.1 2.2.1 3.3 0l-.1-1.3c1-.1 2-.3 3-.6l.4 1.2c.5-.2 1-.3 1.6-.6l-.7-2.7-1.7-.9"/>
        <path d="M42.3 31c-.4 3.4-2 6.3-4.4 8.4l3.6 2.5c.5-.5.9-.9 1.3-1.4l-1-.8c.7-.8 1.2-1.7 1.7-2.5l1.2.6c.5-1 1-2 1.3-3.1l-1.2-.4c.3-1 .5-2 .6-3l1.3.1c.1-1.1.1-2.2 0-3.3l-1.3.1c-.1-1-.3-2-.6-3l1.2-.4c-.3-1.1-.7-2.1-1.3-3.1l-1.2.6c-.5-.9-1-1.8-1.7-2.6l1-.8c-.7-.9-1.5-1.6-2.4-2.4l-.8 1c-.8-.7-1.6-1.2-2.5-1.7l.6-1.2c-1-.5-2-1-3.1-1.3l-.4 1.3c-.9-.3-1.9-.5-2.9-.6l-.3 3c6.9.7 12 7 11.3 14M37.3 41.2c-3.4-2.4-6.8-4.8-9.8-7.6l.2-.2c2.9 2.7 6.4 5.2 9.7 7.5 1.7 1.2 3.4 2.4 5 3.6l.6-.5c-5.6-4-18.8-13.2-19-16.5-2.6 5.1.7 8.1 2.8 9.4 5.4 3.1 9 5.1 14.7 8.9l.8-.9c-1.6-1.4-3.3-2.6-5-3.7"/>
    </g>
</svg>