<svg xmlns="http://www.w3.org/2000/svg" viewBox="0 0 64 64">
    <title>flag: Burundi</title>
    <path fill="#fff" d="M45.2 38.8c1-2 1.6-4.3 1.6-6.8 0-2.4-.6-4.7-1.6-6.8l11-11c-1.9-2.5-4.1-4.8-6.7-6.6l-11 11c-2-1-4.3-1.6-6.7-1.6s-4.7.6-6.7 1.6L14.3 7.8c-2.5 1.9-4.8 4.1-6.6 6.7l10.7 10.7c-1 2-1.6 4.3-1.6 6.8 0 2.4.6 4.7 1.6 6.8L7.6 49.5c1.8 2.6 4.1 4.8 6.6 6.7L25 45.4c2 1 4.3 1.6 6.7 1.6s4.7-.6 6.7-1.6l11 11c2.6-1.8 4.8-4.1 6.7-6.6l-10.9-11"/>
    <path fill="#ed4c5c" d="M31.8 17c2.4 0 4.7.6 6.7 1.6l11-11C44.6 4.1 38.5 2 32 2c-6.6 0-12.8 2.2-17.7 5.8l10.8 10.8c2-1 4.3-1.6 6.7-1.6"/>
    <g fill="#83bf4f">
        <path d="M46.9 32c0 2.4-.6 4.7-1.6 6.8l11 11c3.6-5 5.8-11.1 5.8-17.7s-2.2-12.8-5.8-17.7l-11 11c1 1.9 1.6 4.2 1.6 6.6M16.8 32c0-2.4.6-4.7 1.6-6.8L7.6 14.5C4.1 19.4 2 25.5 2 32s2.1 12.6 5.6 17.5l10.7-10.7c-.9-2.1-1.5-4.4-1.5-6.8"/>
    </g>
    <g fill="#ed4c5c">
        <path d="M31.8 47c-2.4 0-4.7-.6-6.7-1.6L14.3 56.2c5 3.6 11.1 5.8 17.7 5.8 6.5 0 12.6-2.1 17.5-5.6l-11-11c-2 1-4.3 1.6-6.7 1.6M34.8 25h-2l-1-2-1 2h-2l1 2-1 2h2l1 2 1-2h2l-1-2 1-2M28.8 35h-2l-1-2-1 2h-2l1 2-1 2h2l1 2 1-2h2l-1-2 1-2M40.8 35h-2l-1-2-1 2h-2l1 2-1 2h2l1 2 1-2h2l-1-2 1-2"/>
    </g>
</svg>