<svg xmlns="http://www.w3.org/2000/svg" viewBox="0 0 64 64">
    <title>flag: South Georgia &amp; South Sandwich Islands</title>
    <defs>
        <linearGradient id="a" x1="-1760.792" x2="-1759.792" gradientTransform="matrix(-.5968 -1.5125 -1.2072 .7477 87.385 -3301.715)" gradientUnits="userSpaceOnUse">
            <stop stop-color="#d5dfff"/>
            <stop offset="1" stop-color="#fff"/>
        </linearGradient>
    </defs>
    <g fill="#2a5f9e">
        <path d="M32 2v30H2c0 16.6 13.4 30 30 30s30-13.4 30-30S48.6 2 32 2z"/>
        <path d="M12 12h21v21H12z"/>
    </g>
    <g fill="#fff">
        <path d="M18.9 8.1V14h-7.3L26 32h6v-7.5z"/>
        <path d="M11 18.9H5c-1.9 4-3 8.4-3 13.1h12V13.9h-3v5"/>
    </g>
    <path fill="#ed4c5c" d="M32 27.1L19 11h-6l17 21h2z"/>
    <path fill="#fff" d="M18.9 5v6H11v3h21V2c-4.7 0-9.1 1.1-13.1 3z"/>
    <path fill="#ed4c5c" d="M32 5H18.9c-6 2.9-11 7.9-13.9 13.9V32h6V11h21V5z"/>
    <path fill="#6a4c2d" d="M44.6 41.7c-.6.6-1.8 1.2-2.6.6-1.1.2-.5.5-1.5-.2-.7.2-.9.2-1.9-.2-.5.9-1.1 1.1-1.9.5.1-.2.3-.4.4-.6 0 .4-1.6.3-1.7.3.9-2.9 4.6-5.3 6.7-7.3 1 1.8 3.7 4.7 2.5 6.9"/>
    <path fill="#fff" d="M48.8 42h1.5l-.7-.3 5.9-.3-.8-.3-.8-1-3.6-.3-.3-.5-1.9-.2-1.1.8.8 2z"/>
    <path fill="#656263" d="M48.8 31.1c.1-.1.5-.2.4-.7 0-.5-.5-.6-.8-.6-.3 0-.5.2-.5.2l-.9-.5s.4-2.7.9-2.9c.4-.3.5-.5.5-.5l-.2-.3-2.8-.3-2.7.3s-.2.3-.2.4c0 .1 0 .3.5.6.5.4.9 2.7.9 2.7l-.8.3s-.3-.1-.4-.1-.5.2-.5.7c0 .5.4.8.4.8s2.6-.3 2.9.4c.5-.6 3-.3 3.3-.5"/>
    <path fill="#3e4347" d="M51.5 28.3c.2-.6.6-.6 1.2-.6 1.2 0 1.1.4 1.5 1.4.5 1.4 1.4 2.8 1.5 4.4.1 1.7.1 4-.7 5.5-.6 1.1.7 1.4 1.5 1.8l-.6-.2.6.5-.7-.3.4.4-1-.5.4.4-.8-.4c.1.2.3.3.4.5-.2-.1-.4-.2-.7-.3v.2c-.8-.6-2-.7-2.3-1.6-.4-1-1.2-2.5-1.1-3.6.3-2.3 1-5.3.4-7.6"/>
    <path fill="#00713d" d="M44 39.7l-.3 1 .4-.5v1l.3-.5v1.2l.3-.6v1.1l.3-.5.2 1 .3-.7.4.8.1-.6.6.7v-.7l.7.6v-.4l.7.3v-.4l.8.2-.5-.5h.5l-.8-.5h.4l-.7-.6h.5l-.8-.6.4-.1z"/>
    <path fill="#fff" d="M41.9 31.4h2.2s1.4 0 1.6.5c.3-.6 1.5-.6 1.5-.6.7 0 1.5-.1 2.2-.1v5.4c-.4 2.1-2 3.6-3.6 4.2-2-.6-3.3-2.3-3.7-4.2 0-1.8-.1-3.5-.2-5.2"/>
    <path fill="#006b00" d="M42.7 31.4l3.1 8.4 2.8-8.6c-.9.1-2.8-.1-3 .7-.3-.8-2.3-.5-2.9-.5"/>
    <g fill="#cdad56">
        <path d="M44 17.8l1.8-1.5.3-1.1-.4.2-.1-.5-.1-.1-.1.2-.2-.4-.3.4.5 1-.5.8-.2-.5.2-.6-.3.1v-.6l-.4.4-.1-.1.4 1.2-.3.4-.5-1.3-.1.3-.2-.2.1.7h-.2l.3.4-.3.4.6-.2-.2.4zM42.6 17.8L41 16.4l-.1-1 .2.2.2-.5.2.3.3-.4.2.3-.6.9.4.7.2-.5-.3-.4h.4v-.5l.3.3.2-.3-.5 1.3.2.3.4-1 .2.2.2-.2-.1.6h.2l-.1.4.1.3-.5-.2.1.4z"/>
    </g>
    <path fill="#ffc900" d="M48.2 32.6l-.3-.4.4-.5-.6.1-.1-.6-.3.8-.6-.3.4.5-1.1.8.3.1-.4.1.1.2-.3.1.2.1h-.8V33h.8l-.4-.8-.3.2-.2-.3-.7.2.4-.5-.6.3-.1-.7-.1.6-.6-.1.5.4-.4.5.5-.2.2.6.1-.4.3.2h.1l.1 2-.2.4.1-.1.3.7.1-.6.5-.2.3-.1.2.1.1.6-.5.7H45l-.2.3.6-.3v.3l.3-.3v.2l.2-.1-.5 1.4.5-.4v.6l.2-.4.2-.2.1.2v-.5l.2.1-.2-.7.3.2-.2-.9.8-.4v-.4H47l.2-.4.1-.6v.3-.5l.3.1-.2-.3.4-.2h-.2l.5-.5-1.3.9-.1 1.7-.4-1.9.2.3.2-.8.4.1-.2-.3.2.1-.3-.2.4-.1-.4-.3.5-.2v.6l.2-.6.7.2M45 34.8l.1-.7.8-.1-.9.8"/>
    <g fill="#ed4c5c">
        <path d="M38.8 48.8c.3-.1 2 .4 2.7 1.1-.1-1.3-.5-2.2-.5-2.2s-1-.3-1.2-.2c-.2.2-.8.9-1 1.3M38.2 43c-.1 0-.2.1-.4.3-.1.3-.2 1.2-.4 1.4s-.4.2-.4.4 0 .6.6.8c.5 0 1.4-.9 1.4-.9s.4-.5.6-1c-1 .3-1.7-.6-1.4-1M53.4 48.6c-.3-.1-2.1.4-2.7 1.1.1-1.3.5-2.2.5-2.2.1 0 1-.3 1.1-.2.2.2.8.9 1.1 1.3M53.8 42.8c.1 0 .2.2.3.4.1.3.3.8.5 1 .2.2.4.5.4.7s0 .4-.6.6c-.5 0-1.3-.7-1.3-.7s-.4-.5-.6-1c1 .4 1.7-.6 1.3-1"/>
    </g>
    <path fill="#ffce31" d="M52.3 45.4c.4-.4.7-.6.7-.6s-.5-.6-.6-1c1 .5 2.3-1.1.8-1.2-1 .1-1.9.9-2.5 1.9-3.1-1.5-6.7-1.4-9.6.1-.6-1-1.4-1.8-2.4-1.8-1.5.1-.1 1.7.8 1.2-.1.4-.6 1-.6 1s.3.1.7.5c-.8.6-1.5 1.3-2.1 2.2 0 0 1.1.7 1.1 1.1.5-.7 1.1-1.4 1.9-1.9.4.7.7 1.7.9 3.1 0 0 .6-1.6.9-1.6.2 0 0-1.1-.5-2.2 2.4-1.2 5.5-1.4 8.1-.2-.5 1.1-.6 2.1-.5 2.4.3 0 1 1.4 1 1.4.2-1.3.5-2.3.9-3 .7.5 1.3 1.1 1.9 1.8.6-.7 1.1-1 1.1-1-.5-.9-1.2-1.6-2-2.2"/>
    <g fill="#1e5aa6">
        <path d="M48.7 31.2h.4l-.8 1 .9 1.1-1.8 2.3 1.7 2c-.2.5-.4.9-.7 1.2l-1-1.1 1.8-2.2-1.4-1.6.9-2.7M42.6 31.4h-.5l.8.9-.9 1.1 1.9 2-1.5 2.1c.2.5.5 1 .7 1.3l.9-1.2-1.9-2.1 1.4-1.8-.9-2.3"/>
        <path d="M44.7 36.8l-.7.9 2.4 2.8c.4-.2.8-.5 1.1-.7l-1.2-1.4.5-1.5.7.8-2.3 2.9c-.4-.2-.8-.4-1.2-.7l1.2-1.5-.5-1.6M44 35.5l.4.5-.3-.7zM47.1 35.9l.4-.4-.2-.2z"/>
    </g>
    <path fill="#f5f5f5" d="M51.5 29.5c.2 0 1.4 0 1.4.2-.5.2-.8.5-1.1 1 .3.5.6.9.9 1.4.1 1-1.3 2-1.2 3.5.1 1.1.1 2.2 1 2.9 1.1 1 .6-2.1.7-2.4 0-.2 1.1 1 1.1 1.4-.1 1.1-.5.5-.5.8-.3 1.1-.3 1.8-1.3 1.8-1.4-.8-2.7-8.8-1-10.6"/>
    <g fill="#fff">
        <path d="M47.4 27.6s1.1 1.2 1.9 1.2c.1.4-.3.7-.5.8-.4-.1-.7 0-1.6-1 .1-.6.3-.9.2-1M49 24.8c.1-.5.4-.8.7-.8-.1-.3.5-1.9 2.3-2.4.1.8-.7 1.5-.7 1.5s2.6-.4 3.1-1.1c-.1.3-.6 2.1-3.3 2.1 1 1-.3 1.8-.9 1.5.9-.8-.5-1.3-1.2-.8"/>
    </g>
    <g fill="#00f">
        <path d="M48.8 29.7s1.4.4 1.6-1.6c-.3-.9-.7-2.8-.1-3.3-.6-.4-1.2 0-1.2 0 0 .1-.6.8.1 2.2-1.7-.4-1 1.2-1 1.2.1-.2 1-.5 1.2.8 0 .2-.7.7-.6.7"/>
        <path d="M50.3 28.1s1.5-.8 1.4-2.7c-1.3 0-1.7 1.7-1.7 1.7l.3 1"/>
    </g>
    <path fill="#fff" d="M43.7 28s-1.1 1-1.7.6c-.5.3-1-.2-1-.2s.6 2.3 2.9.6l-.2-1"/>
    <path fill="#00f" d="M42 28.6c.1-.5.5-.7.8-.3.4.1.8-1.6-.6-1.3.4-2.2-.8-3-.8-3s-.4 2.4-.2 2.9-.3-.8-1.9-1.2c0 1.8 1.8 2.7 1.8 2.7s.4.4.9.2"/>
    <path fill="#fff" d="M41.1 24.9s-1 0-.4 1.1c-.5.1-1.5-.5-.8-1.4-2.3-.1-3.3-1.2-3.3-2.2.7.7 2.3.4 2.9.9-.7-.7-.6-1.6-.6-1.6s2 .6 2.4 2.4c-.1.2-.2.8-.2.8"/>
    <path fill="#923f00" d="M42.9 24.3c-.1.2-.1.4-.2.5 1.9 0 3.7.1 5.6.1-.1-.6-.5-1.2-.7-1.7.1-.4.1-1.1.2-1.6s-.7-.6-.5-1.1c-.1.2.6 0 .6 0-.3 0-.4-1-.7-1.1-.7-.2-1 0-1.6 0-.8 0-2 0-1.8-1.2.4.1.9 0 1-.4-.1-.1-1.4-.3-1.6-.3-.2 0-1.6.4-1.7.5.4.5.8.4 1.2.8.2.2.3 1.1.1 1h.2c-.1.1-.2.2-.2.3h.4c-.1.2-.2.3-.3.5h.5c-.1.2-.1.3-.2.5.1 0 .2-.1.4-.1.4.9-.3 2.4-.7 3.3m4.2-1c.2-.1.2-.1 0 0m-.2-1.9c.8 0 .4 1.8.1 1.9-.8.1-.7-1.9-.1-1.9m-2 .6c-.3-1.6 2-1.1 1.3.1-.1.2-.6 1.3-.6 1.3-.6 0-.8-.9-.7-1.4m-1 1c.4-.5-.3-1.7.6-2 0 .7 0 1.7-.4 2.4-.1-.2-.2-.3-.4-.2.1 0 .2-.1.2-.2"/>
    <path fill="#b4b6b9" d="M42.7 26.4l2.8 1.8 2.5-1.7s.5-.3.5-.5-.2-.1-.3-.1l-2.6 1.8-2.7-1.7s-.2-.1-.2.1c-.1.2 0 .3 0 .3"/>
    <g fill="#ff7000">
        <path d="M52 39.8l-1 .1.3.3h1.3zM51.6 28.4l-1.3.7.3.3h1.3zM51.3 40.4l.6.4 1.7-.3-.5-.3z"/>
    </g>
    <path fill="url(#a)" d="M51 31.7c-.2-.1-.8-.2-1.6.3v1.7s1.1-.6 1.7-.5c0-.4 0-1.1-.1-1.5"/>
    <path fill="#8a9396" d="M40 30c-.3.8.7 2 1 2.7.7-.8 1-.9 1 .2 0 .3.1.7 0 1-.1.3-.8.1-.5.5.6 1 .5 1.6.2 2.6-.1.4-.5 2.5-1.1 2.6 0 0 .1-1.5 0-1.7-.1-.3-.6-1-.4-1.3-.2.3-1 1.5-1.5 1.1.2.5 0 .7-.1 1.2-.1.3-.1.7-.1 1-.1.4-.7.8-.6 1.4-2.1-.7-3.5-2.3-2.8-4.6.2-.5.4-1 .9-1.3.5-.4.6-1 .8-1.7.1-.2.3-.5.3-.8-.1-.6.3-.8.3-1.2.1-.7.2-1.5.2-2.2 0-1.1.4-1 1.3-1.5.3-.1 1.5.1 1.8.3.2.3-.5 1.5-.7 1.7"/>
    <path fill="#fff" d="M42.6 24.7h5.9v1.2h-5.9z"/>
</svg>