<svg xmlns="http://www.w3.org/2000/svg" viewBox="0 0 64 64">
    <title>flag: Haiti</title>
    <path fill="#f42f4c" d="M32 62c16.6 0 30-13.4 30-30H2c0 16.6 13.4 30 30 30z"/>
    <path fill="#2a5f9e" d="M32 2C15.4 2 2 15.4 2 32h60C62 15.4 48.6 2 32 2z"/>
    <path fill="#fff" d="M20 22v17.4c.3-.2 23.7 0 24 .1V22H20"/>
    <g fill="#699635">
        <path d="M39.2 37.5H24.7L20 39.4V42h24v-2.5l-4.8-2m-1.8 3.1s-1.9.7-5.5.7c-3.5 0-5.5-.7-5.5-.7v-.8s1.5.7 5.5.7 5.5-.7 5.5-.7v.8"/>
    </g>
    <g fill="#f42f4c">
        <path d="M31.5 35.4c0-.3 0-.5-.1-.8l-2-2.2c-.6.1-.3 1-.1 1.4l2.2 1.6M28.7 33.6c-.6.2-.4 1-.2 1.5l2.6 1.5c.1-.1.3-.1.5-.1 0-.1 0-.3-.1-.6l-2.8-2.3M30.9 36.8l-2.6-1.5c-.3.1-.3.3-.3.6l1.2 1.8 1.6.5.1-1.4M34.6 33.8c.2-.4.5-1.3-.1-1.4l-2 2.3c0 .3 0 .5-.1.8l2.2-1.7M35.5 35.1c.2-.5.5-1.3-.2-1.5l-3 2.3c0 .2 0 .4-.1.5.2 0 .4.1.6.2l2.7-1.5M36 35.9c0-.3-.1-.5-.3-.5L33 36.8l.1 1.4 1.6-.5 1.3-1.8"/>
    </g>
    <path fill="#699635" d="M32.3 27.8v.4c.2.5.4.9.8 1.2.2-.3.2-1.2 0-2 .3.4.8.7 1.2.8 0-.3-.2-.8-.5-1.2.6.3 1.3.5 2.1.4-.2-.3-.7-.6-1.2-.9.9.2 1.8.5 1.9.5-.1-.9-.5-.9-1.2-1.2h1.8c-.4-.8-1.9-.8-3.1-.6.7-.2 1.7-.5 1.8-.5-.3-.2-1.7-1.1-3.4.3 0 .5-.2 1-.5 1s-.5-.4-.5-1c-1.7-1.3-3-.5-3.3-.2.1 0 1.1.3 1.8.5-1.2-.2-2.7-.1-3.1.6h1.8c-.7.4-1.1.4-1.2 1.2 0 0 1-.3 1.9-.5-.5.3-1 .6-1.2.9.8.1 1.6-.2 2.1-.4-.3.4-.6.9-.5 1.2.4-.1.8-.4 1.2-.8-.2.8-.2 1.6 0 2 .3-.2.5-.5.6-.9v-.7h.7z"/>
    <path fill="#fff" d="M26.5 39.8v.8s2 .7 5.5.7 5.5-.7 5.5-.7v-.8s-1.5.7-5.5.7-5.5-.7-5.5-.7"/>
    <g fill="#2a5f9e">
        <path d="M29.5 32.4l-2.4-2.7c-.7.6-.7 1.5-.7 1.8l3 2.2c-.2-.3-.6-1.2.1-1.3M28.7 33.6l-3.6-2.8c-.5.6-.2 2.1-.1 2.4l3.5 1.9c-.2-.4-.5-1.3.2-1.5M23.9 34.3c0 .3-.1.6.1 1.2l3.9.4c0-.3.1-.5.3-.5l-4.5-2.5c-.2.5.1 1.3.2 1.4M37.6 31.5c0-.3 0-1.2-.7-1.8l-2.4 2.7c.6.1.3 1 .1 1.4l3-2.3M39 33.3c.1-.4.4-1.8-.1-2.4l-3.6 2.8c.6.2.4 1 .2 1.5l3.5-1.9M40.2 32.8l-4.5 2.5c.2.1.3.3.3.5l3.9-.4c.2-.6.1-.9.1-1.2.2 0 .5-.8.2-1.4M31.9 25.8c.3 0 .5-.4.5-1v-.1c0-.6-.2-1-.5-1s-.5.5-.5 1c0 .7.3 1.1.5 1.1"/>
    </g>
    <g fill="#ffe62e">
        <path d="M40.3 36.3l-.1-.8-1.7.2c-.2-.1-.5-.2-.8-.2-.4 0-.8.2-1.1.4l-2 .2.2.8.6-.1-.5.9-1.6.5V37H31v1.2l-1.6-.5-.5-.8-.1-.1.6.1.2-.8-2-.2c-.3-.3-.7-.4-1.1-.4-.3 0-.6.1-.8.2l-1.8-.2-.1.8 1.2.1c-.1.2-.2.5-.2.8 0 1 .8 1.8 1.8 1.8.8 0 1.5-.6 1.7-1.3l.3.4 2.5.7c0 .2.5.4 1.2.4.6 0 1.2-.2 1.2-.4l2.5-.7.3-.4c.2.8.9 1.3 1.7 1.3 1 0 1.8-.8 1.8-1.8 0-.3-.1-.6-.2-.8l.7-.1"/>
        <path d="M24.6 30.5c0 .1-.1.2-.1.3l.4.2.2-.2 6.5 5.1.1.5h.7l.1-.5 6.6-5.1.2.2.4-.2c-.1-.1-.1-.2-.2-.3h.3l.6-.8-1 .4v.2h-.1l-.2-.2-.3.3.2.2-6.4 4.7.1-.7 4.6-5.1.2.2.4-.3c-.1-.1-.1-.2-.2-.2l.3-.1.4-.9-.9.6V29.1c-.1-.1-.2-.1-.3-.2l-.3.4.2.2-2.8 2.9.5-1.1-.3-.1-1.3 2.3 1-2.8h-.4l-1.1 3 .7-2.9H33l-.5 1.9c0-1-.2-5-.2-5h-.9s-.1 3.6-.1 4.7l-.3-1.6h-.4l.7 2.9-1.1-3h-.4l1 2.8-1.3-2.3-.3.1.5 1.1-2.8-2.9.2-.2-.1-.4c-.1.1-.2.1-.3.2V28.8l-.9-.6.4.9.3.1-.2.2.4.3.2-.2 4.5 5.1.1.7-6.3-4.7.2-.2-.4-.3c-.1.1-.2.1-.2.2h-.1v-.2l-1-.4.6.8h.3M23.6 33l.1-.2 7.1 4 .6-.2-7.6-4 .1-.2-.4-.3c-.1.1-.1.2-.2.2h-.1l-.1-.2-1.1-.3.7.7h.4c-.1.1-.1.2-.1.3l.6.2M41 32.6l.7-.7-1.1.3-.1.2h-.1c-.1-.1-.1-.2-.2-.2l-.2.2.1.2-7.5 4 .5.2 2.6-1.5 4.5-2.5.1.2.5-.1c0-.1-.1-.2-.1-.3H41"/>
    </g>
    <ellipse cx="32" cy="37" fill="#2a5f9e" rx="1.2" ry=".6"/>
</svg>