<svg xmlns="http://www.w3.org/2000/svg" viewBox="0 0 64 64">
    <title>flag: Honduras</title>
    <g fill="#42ade2">
        <path d="M32 62c13.1 0 24.2-8.3 28.3-20H3.7C7.8 53.7 18.9 62 32 62zM32 2C18.9 2 7.8 10.3 3.7 22h56.6C56.2 10.3 45.1 2 32 2z"/>
    </g>
    <path fill="#f9f9f9" d="M60.3 42c1.1-3.1 1.7-6.5 1.7-10s-.6-6.9-1.7-10H3.7C2.6 25.1 2 28.5 2 32s.6 6.9 1.7 10h56.6z"/>
    <g fill="#42ade2">
        <path d="M32 33.6l1.9 1.4-.7-2.3 1.8-1.4h-2.3L32 29l-.7 2.3H29l1.8 1.4-.7 2.3zM22 28.6l1.9 1.4-.7-2.3 1.8-1.4h-2.3L22 24l-.7 2.3H19l1.8 1.4-.7 2.3zM42 28.6l1.9 1.4-.7-2.3 1.8-1.4h-2.3L42 24l-.7 2.3H39l1.8 1.4-.7 2.3zM22 38.6l1.9 1.4-.7-2.3 1.8-1.4h-2.3L22 34l-.7 2.3H19l1.8 1.4-.7 2.3zM42 38.6l1.9 1.4-.7-2.3 1.8-1.4h-2.3L42 34l-.7 2.3H39l1.8 1.4-.7 2.3z"/>
    </g>
</svg>