<svg xmlns="http://www.w3.org/2000/svg" viewBox="0 0 64 64">
    <title>flag: Eritrea</title>
    <path fill="#42ade2" d="M11 32v21.4c5.4 5.3 12.8 8.6 21 8.6 16.6 0 30-13.4 30-30H11"/>
    <path fill="#83bf4f" d="M11 32h51C62 15.4 48.6 2 32 2c-8.2 0-15.6 3.3-21 8.6V32"/>
    <path fill="#ed4c5c" d="M11 10.6C5.4 16 2 23.6 2 32s3.4 16 9 21.4L61.4 32 11 10.6z"/>
    <g fill="#ffce31">
        <path d="M17 23.4c1.2 0 2.3-1.2 2.3-2.6 0-1.4-1 .8-2.3.8-1.2 0-2.3-2.2-2.3-.8 0 1.5 1 2.6 2.3 2.6"/>
        <path d="M27 35.5c.3-.7.5-1.5.6-2.3.8-.4 1.4-1.3 1.4-2.4 0-1-.5-.1-1.3.4 0-.8-.1-1.6-.3-2.4.5-.7.7-1.7.3-2.7-.4-.9-.5 0-1 .8-.3-.7-.7-1.5-1.2-2.1.2-.8-.1-1.7-.7-2.4s-.5.1-.6 1c-.6-.5-1.2-1-2-1.4-.2-.8-.7-1.5-1.6-1.9-1.3-.5.3 1.3-.1 2.4-.5 1.2-2.9 1.3-1.6 1.8 1 .4 2.1.2 2.8-.5.5.3 1 .7 1.4 1.1-1 .3-2.3-.1-1.5.7.8.8 1.8 1 2.7.7.3.5.6 1 .8 1.5-1-.2-2-.9-1.5.1.4 1 1.2 1.6 2.1 1.7.1.5.2 1.1.2 1.6-.8-.6-1.3-1.5-1.3-.4 0 1 .5 1.8 1.2 2.3-.1.5-.2 1-.4 1.5-.4-.8-.6-1.7-1-.8-.3.9-.3 1.8.2 2.5l-.9 1.2c-.1-.8 0-1.6-.6-.9-.6.6-.9 1.5-.8 2.2-.4.3-.8.5-1.2.8.2-.8.6-1.3-.2-1-.8.3-1.3 1-1.5 1.7-.7.2-1.5.3-2.3.3-.8 0-1.6-.1-2.3-.3-.2-.7-.8-1.3-1.5-1.7-.8-.3-.5.2-.2 1-.4-.2-.8-.5-1.2-.8.1-.8-.2-1.6-.8-2.2-.6-.7-.5.1-.6.9l-.9-1.2c.4-.7.5-1.6.2-2.5-.4-.9-.5 0-1 .8-.2-.5-.3-1-.4-1.5.7-.4 1.2-1.3 1.2-2.3 0-1-.5-.1-1.3.4 0-.6.1-1.1.2-1.6.9-.1 1.7-.7 2.1-1.7.4-1-.6-.2-1.6-.1.2-.5.5-1 .9-1.5.9.3 1.9.1 2.7-.7.8-.8-.5-.4-1.5-.7.4-.4.9-.8 1.4-1.1.7.7 1.8.9 2.8.5 1.3-.5-1.1-.6-1.6-1.8-.5-1.2 1.2-3-.1-2.4-.8.4-1.4 1.1-1.6 1.9-.7.4-1.4.9-2 1.4-.1-.9.1-1.6-.6-.9-.7.7-.9 1.6-.7 2.4-.5.6-.9 1.4-1.2 2.1-.4-.8-.6-1.7-1-.8-.4 1-.2 2 .3 2.7-.2.8-.3 1.6-.3 2.4-1-.6-1.5-1.5-1.5-.5 0 1.1.6 2 1.4 2.4.2.8.4 1.6.6 2.3-1-.2-1.9-.9-1.5.1.4 1.1 1.4 1.7 2.4 1.7.4.7.9 1.3 1.4 1.9-1 .3-2.3-.1-1.5.7.8.9 2 1 2.9.6.6.5 1.3.8 1.9 1.2-.8.7-2.3.8-1.2 1.3 1.1.5 2.3.2 2.9-.7.1 0 .3.1.4.1-.4.5-.6 1.1-.6 1.8h5.6c0-.7-.2-1.3-.6-1.8.1 0 .3-.1.4-.1.6.8 1.8 1.2 2.9.7 1.1-.5-.4-.6-1.2-1.3.7-.3 1.3-.7 1.9-1.2.9.5 2.1.3 2.9-.6.8-.8-.5-.4-1.5-.7.5-.6 1-1.2 1.4-1.9 1 .1 1.9-.6 2.4-1.7.6-1-.4-.3-1.3-.1"/>
        <path d="M16 25.9v16c0 1.3 2 1.3 2 0v-16c0-1.3-2-1.3-2 0"/>
        <path d="M21 34s-2.7-.1-3.4.7c-.8.8-.8 2 0 2.7s2 .8 2.7 0S21 34 21 34M13 32s2.7-.1 3.4.7c.8.8.8 2 0 2.7s-2 .8-2.7 0S13 32 13 32M13 27s2.7-.1 3.4.7c.8.8.8 2 0 2.7s-2 .8-2.7 0S13 27 13 27M21 29s-2.7-.1-3.4.7c-.8.8-.8 2 0 2.7s2 .8 2.7 0S21 29 21 29M19 26s-1.3 0-1.7.3c-.4.4-.4 1 0 1.4s1 .4 1.4 0S19 26 19 26"/>
    </g>
</svg>