<svg xmlns="http://www.w3.org/2000/svg" viewBox="0 0 64 64">
    <title>flag: Guatemala</title>
    <g fill="#42ade2">
        <path d="M62 32c0-13.1-8.3-24.2-20-28.3v56.6C53.7 56.2 62 45.1 62 32M2 32c0 13.1 8.4 24.2 20 28.3V3.7C10.4 7.8 2 18.9 2 32z"/>
    </g>
    <path fill="#f9f9f9" d="M42 3.7C38.9 2.6 35.5 2 32 2s-6.9.6-10 1.7v56.6c3.1 1.1 6.5 1.7 10 1.7s6.9-.6 10-1.7V3.7z"/>
    <path fill="#699635" d="M27.1 25.9s-.7-.2-1.2-.2c.4-.7.6-1.9.6-1.9s-1.1.6-1.5 1.3c-.2-.5-.6-1-.6-1s-.5.6-.4 1.1.8 1.4.8 1.4 1 .3 1.6.1c.3-.1.7-.8.7-.8"/>
    <path fill="#83bf4f" d="M26.1 27.5s-.7 0-1.2.1c.2-.7.1-2 .1-2s-.9.9-1.1 1.6c-.3-.4-.9-.8-.9-.8s-.3.7-.1 1.2c.2.5 1.1 1.1 1.1 1.1s1.1 0 1.5-.3c.4-.2.6-.9.6-.9"/>
    <path fill="#699635" d="M25.5 29.3s-.7.2-1.2.4c0-.8-.5-1.9-.5-1.9s-.6 1.1-.6 1.8c-.4-.3-1-.5-1-.5s-.1.7.2 1.2c.3.4 1.4.8 1.4.8s1-.3 1.4-.7c.4-.4.3-1.1.3-1.1"/>
    <path fill="#83bf4f" d="M25.5 31.1s-.6.3-1 .7c-.2-.8-.9-1.7-.9-1.7s-.3 1.2-.1 1.9c-.5-.2-1.1-.2-1.1-.2s0 .7.5 1.1c.4.3 1.5.4 1.5.4s.9-.5 1.2-1c.1-.5-.1-1.2-.1-1.2"/>
    <path fill="#699635" d="M25.9 32.9s-.5.5-.8 1c-.4-.7-1.4-1.4-1.4-1.4s0 1.2.4 1.9c-.5 0-1.2.1-1.2.1s.2.7.8.9c.5.2 1.6 0 1.6 0s.8-.7.9-1.3-.3-1.2-.3-1.2"/>
    <path fill="#83bf4f" d="M26.8 34.5s-.4.6-.5 1.1c-.5-.6-1.7-1-1.7-1s.3 1.2.9 1.8c-.5.1-1.1.4-1.1.4s.4.6 1 .7c.6.1 1.5-.4 1.5-.4s.6-.9.5-1.5c0-.6-.6-1.1-.6-1.1"/>
    <path fill="#699635" d="M28 35.9s-.2.7-.2 1.2c-.7-.4-1.9-.6-1.9-.6s.6 1.1 1.3 1.5c-.5.2-1 .6-1 .6s.6.5 1.1.4 1.4-.8 1.4-.8.3-1 .1-1.6-.8-.7-.8-.7"/>
    <path fill="#83bf4f" d="M29.6 36.9s0 .7.1 1.2c-.7-.2-2-.1-2-.1s.9.9 1.6 1.1c-.3.3-.7.9-.7.9s.7.3 1.2.1c.5-.2 1.1-1.1 1.1-1.1s0-1.1-.3-1.5c-.2-.5-1-.6-1-.6"/>
    <path fill="#699635" d="M36.9 25.9s.7-.2 1.2-.2c-.4-.7-.6-1.9-.6-1.9s1.1.6 1.5 1.3c.2-.5.6-1 .6-1s.5.6.4 1.1-.8 1.4-.8 1.4-1 .3-1.6.1c-.3-.1-.7-.8-.7-.8"/>
    <path fill="#83bf4f" d="M37.9 27.5s.7 0 1.2.1c-.2-.7-.1-2-.1-2s.9.9 1.1 1.6c.3-.4.9-.8.9-.8s.3.7.1 1.2c-.2.5-1.1 1.1-1.1 1.1s-1.1 0-1.5-.3c-.4-.2-.6-.9-.6-.9"/>
    <path fill="#699635" d="M38.5 29.3s.7.2 1.2.4c0-.8.5-1.9.5-1.9s.6 1.1.7 1.8c.4-.3 1-.5 1-.5s.1.7-.2 1.2c-.3.4-1.4.8-1.4.8s-1-.3-1.4-.7c-.5-.4-.4-1.1-.4-1.1"/>
    <path fill="#83bf4f" d="M38.5 31.1s.6.3 1 .7c.2-.8.9-1.7.9-1.7s.3 1.2.1 1.9c.5-.2 1.1-.2 1.1-.2s0 .7-.5 1.1c-.4.3-1.5.4-1.5.4s-.9-.5-1.2-1c-.1-.5.1-1.2.1-1.2"/>
    <path fill="#699635" d="M38.1 32.9s.5.5.8 1c.4-.7 1.4-1.4 1.4-1.4s0 1.2-.4 1.9c.5 0 1.2.1 1.2.1s-.2.7-.8.9c-.5.2-1.6 0-1.6 0s-.8-.7-.9-1.3.3-1.2.3-1.2"/>
    <path fill="#83bf4f" d="M37.2 34.5s.4.6.5 1.1c.5-.6 1.7-1 1.7-1s-.3 1.2-.9 1.8c.5.1 1.1.4 1.1.4s-.4.6-1 .7c-.6.1-1.5-.4-1.5-.4s-.6-.9-.5-1.5c.1-.6.6-1.1.6-1.1"/>
    <path fill="#699635" d="M36 35.9s.2.7.2 1.2c.7-.4 1.9-.6 1.9-.6s-.6 1.1-1.3 1.5c.5.2 1 .6 1 .6s-.6.5-1.1.4-1.4-.8-1.4-.8-.3-1-.1-1.6c.1-.4.8-.7.8-.7"/>
    <path fill="#83bf4f" d="M34.4 36.9s0 .7-.1 1.2c.7-.2 2-.1 2-.1s-.9.9-1.6 1.1c.4.3.8.9.8.9s-.7.3-1.2.1c-.5-.2-1.1-1.1-1.1-1.1s0-1.1.3-1.5c.1-.5.9-.6.9-.6"/>
    <g fill="#94989b">
        <path d="M40 24.1L26 37l1.2 1.1z"/>
        <path d="M24 24.1L38 37l-1.2 1.1z"/>
    </g>
    <path fill="#ffdd7d" d="M29.2 33h4s1-1 1-4-1-4-1-4h-4s1 1 1 4-1 4-1 4"/>
    <path fill="#699635" d="M31 20.8v.2c0 .1 0 .3.1.6 0 .1.1.2.1.4.1.1.1.3.2.4.1.1.2.3.3.4.1.1.2.3.4.4.3.3.6.5 1 .8.2.1.4.3.6.4.2.2.4.3.7.5.5.5.9.9 1.3 1.5.2.3.4.5.5.8.2.3.3.6.4.9.2.6.4 1.3.4 2 .1.7-.1 1.3-.2 2-.2.6-.5 1.2-.8 1.7-.1.2-.4.4-.5.6-.2.2-.4.4-.6.5-.2.1-.4.3-.6.4l-.6.3c-.3.2-.7.3-.9.3-.5.1-.8.1-.8.1s.2-.2.6-.5c.2-.1.4-.4.7-.6.3-.2.5-.5.8-.8.1-.1.2-.3.3-.5.1-.2.2-.3.3-.6.2-.4.3-.8.4-1.3.1-.5.1-.9 0-1.4-.1-.5-.2-1-.4-1.4-.1-.2-.2-.5-.3-.7-.1-.2-.2-.5-.4-.7-.3-.4-.5-.9-.8-1.2-.4-.4-.7-.8-1.1-1.1-.2-.2-.4-.4-.5-.6-.1-.2-.3-.4-.4-.6l-.3-.6c-.1-.2-.2-.4-.2-.6 0-.2-.1-.4-.1-.6v-.5c0-.3.1-.5.2-.6.1-.2.2-.3.2-.3"/>
    <g fill="#594640">
        <path d="M25.4 39.9c-.3.3-.8.3-1.2 0-.3-.3-.3-.8 0-1.2l2.3-2.3c.3-.3.8-.3 1.2 0 .3.3.3.8 0 1.2l-2.3 2.3M38.6 39.9c.3.3.8.3 1.2 0 .3-.3.3-.8 0-1.2l-2.3-2.3c-.3-.3-.8-.3-1.2 0-.3.3-.3.8 0 1.2l2.3 2.3"/>
    </g>
</svg>