<svg xmlns="http://www.w3.org/2000/svg" viewBox="0 0 64 64">
    <title>flag: Andorra</title>
    <path fill="#2a5f9e" d="M2 32c0 11.5 6.5 21.5 16 26.5v-53c-9.5 5-16 15-16 26.5"/>
    <path fill="#c94747" d="M62 32c0-11.5-6.5-21.5-16-26.5v53.1c9.5-5.1 16-15.1 16-26.6"/>
    <path fill="#ffe62e" d="M32 2c-5.1 0-9.8 1.3-14 3.5v53.1c4.2 2.2 8.9 3.5 14 3.5s9.8-1.3 14-3.5V5.5C41.8 3.3 37.1 2 32 2z"/>
    <path fill="#c7b37f" d="M29.2 17c1.2 0 2 1.2 3.3.9 1-.2 2.5-1.7 3.3-.3.3.5.2 1.1 0 1.7-.2.5-.7 1.2-.2 1.6.7.6 2.2.4 2.9-.3-.6 0-1-.7-.5-1.1.2-.2.4-.1.6-.2.1 0 .2-.2.3-.3.1-.1.2-.1.4-.1s.4.2.5.2c.2 0 .6-.3.8.1.1.2.3.1.5 0 .3-.1.6.1.8.3.2.2.3.2.6.3.2.1.3.5.5.5.7.3.7.8.4 1.5-.4.9-2.5 2-1.7 3.2-.1-.8 1.1-.4.8.3 1.6-1 3.3 1.2 3.3 2.6 0 1.4-.6 2.5-2 2.8.4.2.8.6.5 1.1-.1.2-.3.3-.6.3-.4 0-.5-.3-.7.1-.5.8-.2 2.1.5 2.7.2-.3.7-.6 1-.2.2.2.2.7.4.9.2.3.4.6.1 1-.3.4-.6.2-1 .3.9.9 1.3 1.8.9 3.1-.3 1.2-1.3 2.1-2.5 2.6-1.2.4-2.5.5-3.8.5-1.3.1-2.6.1-3.5 1 .4.3.7.7.5 1.2-.1.2-.2.3-.4.5-.2.1-.5.1-.7.3-.3.5-1.1.3-1.4 0-.2-.2-.3.1-.5.3-.2.2-.5.5-.7.5-.2 0-.5-.2-.6-.4-.2-.2-.4-.5-.7-.4-.4.2-1.1.4-1.4 0 0-.1-.2 0-.4-.1s-.4-.3-.5-.6c-.2-.5.1-1 .6-1.2-.9-.9-2.1-.9-3.3-1-1.3-.1-2.8 0-4-.6-1-.5-1.9-1.2-2.4-2.2-.5-1.2-.3-2.4.7-3.3-.4-.1-.8-.1-1-.5-.2-.5.2-.7.2-1.1 0-.3.4-.7.6-.8.2-.1.5 0 .6.2.2.2.3 0 .5-.2.4-.7.7-1.9 0-2.6-.8.7-1.8-.9-.8-1.4-.3-.2-.7-.3-.9-.6-.2-.2-.4-.5-.6-.8-.4-.7-.4-1.5-.2-2.2.2-.7.6-1.4 1.2-1.8.7-.4 1.2-.3 1.9-.1-.1 0 .1-.6.2-.7.3-.3.6 0 .7.3.6-1.1-1.5-2.2-1.9-3.1-.2-.4-.3-1.4.4-1.4.2 0 .3-.3.5-.5.1-.1.3-.1.5-.2l.3-.3c.2-.2.5-.2.7-.2.4 0 .2.1.5 0s.5 0 .7 0c.2 0 .3-.3.7-.2.3.1.3.3.5.4.2.1.4.1.6.3.5.5.1 1-.4 1.2.5.4 1.1.6 1.8.5.5 0 1.4-.3 1.2-1-.2-.8-.6-1.3-.5-2.1.2-.8.7-1.2 1.3-1.2"/>
    <path fill="#c94747" d="M24 23.9h7.6v7.6H24z"/>
    <g fill="#fff">
        <path d="M27.5 29.9s0 .3-.1.5c-.1.3-.1.3-.2.4-.1.2-.2.3-.4.4-.2.1-.4.2-.6.2-.5 0-.7-.6-.9-1-.1-.5-.5-.7-.7-.6-.1.1-.1.3 0 .4.1.2.4.3.4.3l-.3.3s-.6-.1-.7-.7c0-.2.1-.7.5-.8.5-.2.8.2 1 .5.2.4.3 1.2.9 1 .3-.1.5-.5.5-.7l.2-.2h.4M28 29.9s0 .3.1.5c.1.3.1.3.2.4.1.2.2.3.4.4.2.1.4.2.6.2.5 0 .7-.6.9-1 .1-.5.5-.7.7-.6.1.1.1.3 0 .4-.1.2-.4.3-.4.3l.3.3s.6-.1.7-.7c0-.2-.1-.7-.5-.8-.5-.2-.8.2-1 .5-.2.4-.3 1.2-.9 1-.3-.1-.5-.5-.5-.7l-.2-.2H28"/>
    </g>
    <path fill="#ffce31" d="M28.5 26.7c.3-.3 1.2-.9 1.1-1.4-.5-.1 0-.2.1-.5h-.3c.1-.4 1-.7 1.5-.6 1 .4.3 2-.5 1.3.1-.4.7-.2.6-.6 0-.3-.4-.5-.7-.4-.4.3-.1.9-.5 1.2-.3.5-.9 1-1.3 1.4-1.2 1.3-2.5 2.7-3.7 4-.7-.4 1.1-1.8 1.4-2.1.7-.6 1.5-1.5 2.3-2.3"/>
    <path fill="#fff" d="M25.5 27.1s.2 1.2 1.1 3.1c.4-.2.7-.3 1.1-.3s.7.1 1.1.3c.9-1.9 1.1-3.1 1.1-3.1l-2.2-2.9-2.2 2.9"/>
    <g fill="#ffce31">
        <path d="M28 25.2l1.6 2s-.2 1-.8 2.4c-.2-.1-.5-.1-.7-.1l-.1-4.3M27.5 25.2l-1.6 2s.2 1 .8 2.4c.2-.1.5-.1.7-.1l.1-4.3M32.4 23.9H40v7.6h-7.6z"/>
    </g>
    <g fill="#c94747">
        <path d="M33.5 23.9h1.1v7.6h-1.1zM35.6 23.9h1.1v7.6h-1.1zM37.8 23.9h1.1v7.6h-1.1z"/>
    </g>
    <path fill="#ffce31" d="M24 38.2c0 .1.1.4.2.6.1.2.1.2.4.6.2.2.4.3.6.4.2.1.3.2.6.2.6.2 1 .2 1.5.1.4 0 .7-.1 1-.1.4 0 .6-.1 1-.1h.6c.2 0 .4 0 .7.1.5.1 1 .3 1 .3v-8H24v5.9"/>
    <g fill="#c94747">
        <path d="M24.9 39.6l.3.2.5.1v-7.5h-.8zM29.1 39.9v-7.5h-.8V40s.5-.1.8-.1M30.8 32.4H30V40c.3 0 .6.1.8.2v-7.8M27.4 32.4v7.7h-.9v-7.7h.9"/>
    </g>
    <path fill="#ffce31" d="M40 38.2c0 .1-.1.4-.2.6-.1.2-.1.2-.4.6-.2.2-.4.3-.6.4-.2.1-.3.2-.6.2-.6.2-1 .2-1.5.1-.4 0-.7-.1-1-.1-.4 0-.6-.1-1-.1h-.6c-.2 0-.4 0-.7.1-.5.1-1 .3-1 .3v-8H40v5.9"/>
    <g fill="#c94747">
        <path d="M34.3 33c-.3.2-.4.5-.7.7.2.4.6.3.9.5.2 0 .4.6.4.7-.3.3.1 1.2.2.9.1-.3-.4-.9.3-.7.2.1.3.8.1 1 .1.3.4.1.4-.2-.1-.5 0-.8.5-.8.6 0 .5.2.8.2h.3l.2-.2c0 .3-.4.7-.6.9.4.2 1-.6 1-.9.4.2.1.9-.1 1.1 1 .2.1-1.8.4-2 .9-.5-.5-.8-.9-.8-.8 0-1.9.4-2.6.1.2-.1.2-.2.3-.3-.2-.2-.6 0-.9-.2M34.3 36.4c-.3.2-.4.5-.7.7.2.4.6.3.9.5.2 0 .4.6.4.7-.3.3.1 1.2.2.9.1-.3-.4-.9.3-.7.2.1.3.8.1 1 .1.3.4.1.4-.2-.1-.5 0-.8.5-.8.6 0 .5.2.8.2h.3l.2-.2c0 .3-.4.7-.6.9.4.2 1-.6 1-.9.4.2.1.9-.1 1.1 1 .2.1-1.8.4-2 .9-.5-.5-.8-.9-.8-.8 0-1.9.4-2.6.1.2-.1.2-.2.3-.3-.2-.2-.6 0-.9-.2"/>
    </g>
</svg>