<svg xmlns="http://www.w3.org/2000/svg" viewBox="0 0 64 64">
    <title>flag: Azerbaijan</title>
    <path fill="#428bc1" d="M32 2C18.9 2 7.8 10.4 3.7 22h56.6C56.2 10.4 45.1 2 32 2z"/>
    <path fill="#83bf4f" d="M32 62c13.1 0 24.2-8.3 28.3-20H3.7C7.8 53.7 18.9 62 32 62z"/>
    <path fill="#ed4c5c" d="M3.7 22C2.6 25.1 2 28.5 2 32s.6 6.9 1.7 10h56.6c1.1-3.1 1.7-6.5 1.7-10s-.6-6.9-1.7-10H3.7z"/>
    <g fill="#fff">
        <path d="M31.6 40.2c-4.5 0-8.2-3.7-8.2-8.2 0-4.5 3.7-8.2 8.2-8.2 1.1 0 2.1.2 3 .6-1.6-1.2-3.6-2-5.8-2-5.3 0-9.5 4.3-9.5 9.6s4.3 9.6 9.5 9.6c2.2 0 4.2-.7 5.8-2-.9.4-1.9.6-3 .6M40.4 33.4l-2.2 1.5 1.4-2.3L37 32l2.6-.6-1.5-2.2 2.3 1.4.6-2.6.6 2.6 2.2-1.5-1.4 2.3 2.6.6-2.6.6 1.5 2.2-2.3-1.4L41 36z"/>
    </g>
</svg>