<svg xmlns="http://www.w3.org/2000/svg" viewBox="0 0 64 64">
    <title>flag: Dominican Republic</title>
    <g fill="#c94747">
        <path d="M38 2.6V26h23.4C59 14.2 49.8 5 38 2.6zM26 61.4V38H2.6C5 49.8 14.2 59 26 61.4z"/>
    </g>
    <g fill="#2a5f9e">
        <path d="M38 38v23.4C49.8 59 59 49.8 61.4 38H38zM2.6 26H26V2.6C14.2 5 5 14.2 2.6 26z"/>
    </g>
    <path fill="#f9f9f9" d="M61.4 26H38V2.6c-1.9-.4-3.9-.6-6-.6s-4.1.2-6 .6V26H2.6c-.4 1.9-.6 3.9-.6 6s.2 4.1.6 6H26v23.4c1.9.4 3.9.6 6 .6s4.1-.2 6-.6V38h23.4c.4-1.9.6-3.9.6-6s-.2-4.1-.6-6"/>
    <path fill="#699635" d="M29 29.3s-.4-.1-.8-.1c.3-.4.4-1.2.4-1.2s-.7.4-.9.8c-.1-.3-.4-.6-.4-.6s-.3.4-.3.7c0 .3.5.8.5.8s.6.2 1 .1c.3 0 .5-.5.5-.5"/>
    <path fill="#83bf4f" d="M28.4 30.3s-.4 0-.8.1c.1-.5 0-1.2 0-1.2s-.5.5-.7 1l-.5-.5s-.2.4-.1.7c.1.3.7.7.7.7s.7 0 1-.2c.3-.1.4-.6.4-.6"/>
    <path fill="#699635" d="M28.1 31.4s-.4.1-.7.3c0-.5-.3-1.2-.3-1.2s-.4.7-.4 1.1c-.3-.2-.6-.3-.6-.3s-.1.5.1.7c.2.3.8.5.8.5s.6-.2.9-.4c.2-.3.2-.7.2-.7"/>
    <path fill="#83bf4f" d="M28 32.5s-.4.2-.6.4c-.1-.5-.6-1.1-.6-1.1s-.2.7-.1 1.2c-.3 0-.7-.1-.7-.1s0 .5.3.7c.3.2.9.3.9.3s.6-.3.7-.6c.3-.3.1-.8.1-.8"/>
    <path fill="#699635" d="M28.3 33.6s-.3.3-.5.6c-.2-.4-.8-.9-.8-.9s0 .8.2 1.2h-.7s.1.4.5.6c.3.1 1 0 1 0s.5-.5.6-.8c-.1-.3-.3-.7-.3-.7"/>
    <path fill="#83bf4f" d="M28.8 34.6s-.2.4-.3.7c-.3-.4-1-.6-1-.6s.2.7.5 1.1c-.3.1-.7.2-.7.2s.3.4.6.4.9-.2.9-.2.3-.6.3-.9c.1-.4-.3-.7-.3-.7"/>
    <path fill="#699635" d="M29.6 35.5s-.1.4-.1.7c-.4-.3-1.2-.3-1.2-.3s.4.6.8.9c-.3.1-.6.4-.6.4s.4.3.7.3c.3 0 .8-.5.8-.5s.2-.6.1-1c-.1-.3-.5-.5-.5-.5"/>
    <path fill="#83bf4f" d="M30.6 36.1s0 .4.1.8c-.5-.1-1.2 0-1.2 0s.5.5 1 .7l-.5.5s.4.2.7.1c.3-.1.7-.7.7-.7s0-.7-.2-.9-.6-.5-.6-.5"/>
    <path fill="#699635" d="M35.1 29.3s.4-.1.8-.1c-.3-.4-.4-1.2-.4-1.2s.7.4.9.8c.1-.3.4-.6.4-.6s.3.3.3.7c0 .3-.5.8-.5.8s-.6.2-1 .1-.5-.5-.5-.5"/>
    <path fill="#83bf4f" d="M35.7 30.3s.4 0 .8.1c-.2-.5 0-1.2 0-1.2s.5.5.7 1l.5-.5s.2.4.1.7c-.1.3-.7.7-.7.7s-.7 0-1-.2c-.3-.1-.4-.6-.4-.6"/>
    <path fill="#699635" d="M36 31.4s.4.1.7.3c0-.5.3-1.2.3-1.2s.4.7.4 1.1c.3-.2.6-.3.6-.3s.1.5-.1.7c-.2.3-.8.5-.8.5s-.6-.2-.9-.4c-.2-.3-.2-.7-.2-.7"/>
    <path fill="#83bf4f" d="M36.1 32.5s.4.2.6.4c.1-.5.6-1.1.6-1.1s.2.7.1 1.2c.3-.1.7-.1.7-.1s0 .5-.3.7c-.3.2-.9.3-.9.3s-.6-.3-.7-.6c-.3-.3-.1-.8-.1-.8"/>
    <path fill="#699635" d="M35.8 33.6s.3.3.5.6c.2-.4.8-.9.8-.9s0 .8-.2 1.2h.7s-.1.4-.5.6c-.3.1-1 0-1 0s-.5-.5-.6-.8.3-.7.3-.7"/>
    <path fill="#83bf4f" d="M35.3 34.6s.2.4.3.7c.3-.4 1-.6 1-.6s-.2.7-.5 1.1c.3.1.7.2.7.2s-.3.4-.6.4-.9-.2-.9-.2-.3-.6-.3-.9c-.1-.4.3-.7.3-.7"/>
    <path fill="#699635" d="M34.5 35.5s.1.4.1.7c.4-.3 1.2-.3 1.2-.3s-.4.6-.8.9c.3.1.6.4.6.4s-.4.3-.7.3c-.3 0-.8-.5-.8-.5s-.2-.6-.1-1c.1-.3.5-.5.5-.5"/>
    <path fill="#83bf4f" d="M33.5 36.1s0 .4-.1.8c.5-.1 1.2 0 1.2 0s-.5.5-1 .7l.5.5s-.4.2-.7.1c-.3-.1-.7-.7-.7-.7s0-.7.2-.9c.2-.5.6-.5.6-.5"/>
    <path fill="#fff" d="M29 29.1v4.8c0 .4 0 .7.2 1 .2.2.4.4.7.5h1.2c.6 0 .6.1.8.4.2-.4.5-.4 1-.4h1c.3-.1.5-.2.6-.4.3-.3.3-.7.3-1.1v-4.6c0-.2 0-.2.1-.3l.7-.7h-7.4l.8.8"/>
    <path fill="#002d62" d="M31.3 31.2v-2.9h-3l.8.8v2.1z"/>
    <g fill="#ce1126">
        <path d="M32.6 31.2v-2.9h3.1l-.8.8v2.1zM31.3 32.4H29v1.9c.1.8.7 1.1 1.2 1.1h1.1v-3"/>
    </g>
    <g fill="#002d62">
        <path d="M32.6 32.4h2.3v1.9c-.1.8-.7 1.1-1.2 1.1h-1.1v-3M30.2 25.9c-.9 0-1.9.2-2.6.7-.4.2-.4.3-.2.7l-.5.2c-.3.1-.6.2-.9.4-.2.1-.2.2-.3.3l.7-.1-.1.2c-.1.2-.2.3-.3.5.2-.1.4-.3.6-.4.5-.3 1.5-.3 1.9-.7.1-.1 0-.2 0-.4.3-.1.4-.2.7-.2.9-.2 1.4 0 1.8-.1.1 0 .3-.1.3-.2l-.1-.4h1.4c0 .2-.2.6.2.7.4.1 1.2-.1 1.8.1l.7.2-.1.2v.2c.1.1.2.2.3.2.2.1.5.2.8.3.8.2.9.2 1.5.6 0-.1-.3-.5-.4-.7l.7.1c-.1-.2-.5-.4-.7-.5l-.9-.3c.1-.2.2-.3.1-.4-.1-.2-.9-.6-1.1-.6-.3-.1-.7-.2-1-.2-.3-.1-.9-.1-.9-.1s.1-.3-.1-.5c-.1-.1-.3-.1-.5-.1-.7-.1-1.6 0-2.3 0-.2 0-.3 0-.5.1v.2"/>
    </g>
    <path fill="#ce1126" d="M29 36.8c-.4.1-.6.2-1 .4-.1-.2-.3-.5-.5-.7l-.3-.3c-.2-.1-.3-.1-.4 0l-.1-.2c-.2-.3-.4-.5-.6-.7l-.1-.1-.1-.1c.1.3.1.5.2.8-.1-.1-.2-.1-.3-.2-.1 0-.3-.1-.4-.1l.1.1c.2.2.4.5.5.8.1.3.3.7.6.9 0 0 .2.2.3.2.3.1.3 0 .4-.1.2.4.3.5.6.8.3.3.7.3 1 .3.2 0 .3-.1.4-.2.5-.3.2-.5.2-.7.2 0 .8-.2 1-.3.8-.1 2.2-.2 3.1 0 .1 0 1 .3 1.1.3-.1.2-.1.2-.1.4s.2.2.3.3c.1.1.2.1.4.2h.5c.3-.1.5-.3.7-.4.2-.3.3-.5.5-.7l.1.1h.2c.1 0 .2-.1.3-.2.3-.2.5-.6.6-.9.1-.4.3-.6.6-.9-.4 0-.5.1-.7.2l.1-.4c0-.1.1-.3.1-.4-.2.2-.3.4-.5.6-.1.1-.2.2-.2.3-.2.2-.1.2-.2.3-.5-.3-.8.4-1.2.9-.7-.4-1.3-.5-2.1-.7-.2 0-.3 0-.5-.1-1-.1-2.1-.1-3.1 0-.7.3-1.1.4-1.5.5"/>
    <path fill="#eac102" d="M31.7 28.1v.6H31v.6h.7v2.4h.6v-2.4h.6v-.6h-.6v-.6z"/>
    <path fill="#201b18" d="M29.9 32.2l2.7-1.6 1.5 2.1-2.9 1.9z"/>
    <path fill="#c9c9c9" d="M30.2 31.7l2.3-1.3 1.2 1.7-2.4 1.6z"/>
</svg>