<svg xmlns="http://www.w3.org/2000/svg" viewBox="0 0 64 64">
    <title>flag: Ghana</title>
    <path fill="#c94747" d="M32 2C18.9 2 7.8 10.3 3.7 22h56.6C56.2 10.3 45.1 2 32 2z"/>
    <path fill="#699635" d="M32 62c13.1 0 24.2-8.3 28.3-20H3.7C7.8 53.7 18.9 62 32 62z"/>
    <path fill="#ffce31" d="M3.7 22C2.6 25.1 2 28.5 2 32s.6 6.9 1.7 10h56.6c1.1-3.1 1.7-6.5 1.7-10s-.6-6.9-1.7-10H3.7z"/>
    <path fill="#3e4347" d="M32 37.3l6.2 4.7-2.4-7.6 6.2-4.9h-7.6L32 22l-2.3 7.5H22l6.2 4.9-2.4 7.6z"/>
</svg>