<svg xmlns="http://www.w3.org/2000/svg" viewBox="0 0 64 64">
    <title>flag: St. Barthélemy</title>
    <circle cx="32" cy="32" r="30" fill="#f5f5f5"/>
    <path fill="#3e4347" d="M47.4 38.2l-.1-.2c-.3-.4-.4-.5-.7-.5h-.2l-.1.2c-.2.2-.1.4-.1.6 0 .1.1.3.1.6.1.5-3.2 1-4.2 1.1-.7.1-1.5.2-2.1.3h-.1c-.7.2-1.2.5-1.4.9-.1.3 0 .5.3 1s.8 1.3.8 1.9c-.1.1-.2.1-.3.2-2.5 1.4-4.5 1.9-7.3 1.9s-4.8-.5-7.3-1.9c-.1-.1-.2-.1-.3-.2.1-.6.6-1.4.8-1.9.3-.5.4-.7.3-1-.2-.5-.7-.8-1.4-.9H24c-.6-.1-1.3-.2-2.1-.3-1.1-.2-4.3-.6-4.2-1.1 0-.2.1-.4.1-.6 0-.2.1-.4-.1-.6l-.2-.2h-.2c-.3 0-.4.1-.7.5l-.1.1c-.3.4-.4.7-.3 1.1 0 .1.1.3.3.6.1.3.3.7.5 1.2.2.7.4 1.2.4 1.7 0 .7.9 1 1.4 1.2.4.1 1 .2 1.5.2 0 .4-.1.8-.2 1.2-.1.3 0 .8.2 1.1.2.3.5.5.8.7l.1.1c3.3 2.1 7.1 3.3 10.7 3.3 3.6 0 7.4-1.2 10.7-3.3l.1-.1c.3-.2.6-.4.8-.7.2-.3.3-.7.2-1.1-.1-.5-.2-.8-.2-1.2.5 0 1.1 0 1.5-.2.5-.2 1.3-.4 1.4-1.2 0-.5.2-1 .4-1.7.2-.5.4-.9.5-1.2.1-.3.2-.5.3-.6.2-.3.1-.7-.2-1"/>
    <path fill="#fff" d="M47 38.5c-.6-.8-.3-.5-.2.4.2 1.3-4.3 1.5-6.7 2H40c-.5.1-.9.3-1.1.7-.1.1 0 .3 0 .5.5.8 1.2 1.3 1.2 2.5-.2.1-.4.2-.5.3-2.7 1.5-4.8 1.9-7.6 1.9s-4.9-.5-7.6-1.9c-.2-.1-.4-.2-.5-.3 0-1.1.7-1.7 1.2-2.5.1-.1.1-.3 0-.5-.2-.3-.6-.6-1.1-.7h-.1c-2.5-.5-6.9-.7-6.7-2 .1-.9.3-1.2-.2-.4-.1.2-.2.4-.2.6.1.2.5.9.8 1.8.2.6.4 1.3.4 1.8 0 .3.4.5 1 .7.5.2 1.3.2 1.8.2 0 .5 0 1.1-.2 1.8-.1.2 0 .5.1.7.2.3.5.5.8.6 3.3 2.1 7.1 3.2 10.5 3.2 3.4 0 7.1-1.1 10.5-3.2.3-.2.6-.4.8-.6.1-.2.2-.4.1-.7-.2-.8-.2-1.3-.2-1.8.5 0 1.3 0 1.8-.2.6-.2 1-.4 1-.7 0-.6.2-1.2.4-1.8.3-.9.7-1.5.8-1.8.1-.2 0-.4-.2-.6"/>
    <path fill="#2a5f9e" d="M40.5 21.8h-17v8.7c0 2.8.2 4.9 1.4 6.6 1.5 2 3.9 3.5 7.1 5 3.2-1.4 5.6-2.9 7.1-5 1.2-1.7 1.4-3.9 1.4-6.6v-8.7"/>
    <path fill="#ed4c5c" d="M40.3 34c0-.7.2-1.1.2-1.8.1-1.4.1-2.9.1-4.3h-17c0 1.4 0 2.9.1 4.3 0 .7.2 1.1.2 1.8h16.4"/>
    <path fill="#ffce31" d="M21.6 17.3l1.9 4.5c5.2-1.6 11.6-1.5 17 0l2-4.6.6.2.7-1.6-1.3-.4-.3.8-.7-.2.3-.8-1.3-.3-.2.8-.6-.1.2-.8-1.3-.2-.2.8-.9-.1-.1.4h-.3l.1-.4-.7-.1-.1.4h-.3l.1-.4-.8-.2-.1.4h-.6l.1-1.2-1.3-.1v.8h-.6v-.8h-1.3v.8H31v-.8l-1.3.1.1 1.2h-.6l-.3-.4h-.7v.4h-.3l-.1-.4-.7.1.1.4h-.3l-.1-.4-.8.2-.2-.8-1.3.2.2.8-.6.1-.2-.8-1.3.3.3.7-.6.2-.3-.8-1.3.4.7 1.6.2.1"/>
    <path fill="#fff" d="M32.1 30.9l.8-2.1-.9.6-.9-.6.8 2.1-2-.9.6 1-.6.9 2-.9-.8 2.1.9-.6.9.6-.8-2.1 2.1.9-.7-.9.7-1z"/>
    <path fill="#3e4347" d="M23.8 31.9v-.5h-.4v-.2c.1-1.9-1.3-3.1-2.5-4.2-.3-.3-.7-.6-1-.9 1 .7 2 1.4 2.4 1.7l-.1.4.5.3h.1c.4 0 .7-.4.7-.6l.1-.1v-.1c-.1-.8-1.7-2.5-3.1-3.9 0-.5-.1-.8-.3-1.1-.2-.2-.4-.3-.6-.4.2-.2.4-.4.6-.5.2-.2.4-.3.4-.6-.1-.6-.8-.8-1.5-.3l-.2-.1c-.4-.2-.9-.1-1.3.4h-.1c-.2 0-.4 0-.6.3-.2.2-.3.4-.4.7h-.1c-.4.1-.9.4-.9 1.6-.3-.5-.5-.9-.6-1.2-.1-.3-.2-.6-.6-.6-.2 0-.4.1-.5.3-.1.1-.1.2-.2.5h-.1l-.1.1c-.2.2-.4.4-.4.7h-.1l-.4.1-.1.2c-.1.3-.1.7 0 1.1h-.3l-.1.2c-.1.2-.2.3.1 1l-.3.1c-.2.1-.3.4-.3.6 0 .2.1.5.3.7v.1c-.1.2-.2.4-.1.6 0 .2.2.4.4.6-.1.2-.1.4-.1.6.2.6 1.2 1.2 2.2 1.5-.5.6-.8 1.3-.8 1.6l.1.3.3.1h.2c.1 0 .2 0 .3-.1v.5c.1.2.3.4.5.5h.1c.4 0 .5-.3.8-.7v.2c-.3.4-1.1 1.3-1.3 1.6-.3.3-.2.6-.1.7-.3.3-.6.6-.8.7-.4.2-.3.5-.3.7l.2.4h.1l.1.1.1.1c.3.2.7.2 1 0l.1.1h.1c.2 0 .4-.1.6-.2l.3.1.2-.1c.2-.1.9-.7 1.4-1.1.1.4.3.9.3 1.2l.1.4V40l.2.2c.7.7 1 1.1 1.2 1.4.1.2.2.3.3.4l.4.5.4-.5c.1-.1.2-.2.4-.2h.1l.5.2.1-.6c.1-.3.5-.7.6-.8l1.1-.8-1.4-.1c-.8-.1-2.1-.4-2.4-.6 0-.1-.1-.4 0-1.2l1.4-1.4c.3.1.6.2.9.4l.1.1c.2.1.4.1.6 0h.2l.1-.1.2-.2c.1-.2.5-.6.7-.7l.6.1v-.6c-.2-.7-.3-3.5-.3-3.6M22.4 34c-.1.7-.3 1.3-.5 1.3 0 0-.1 0-.3-.2.4-.3.6-.7.8-1.1"/>
    <g fill="#ffce31">
        <path d="M18.9 37l-.8.5v2.6c1.1 1.1 1.2 1.5 1.5 1.8.4-.6 1.1-.4 1.1-.4.1-.6.8-1.1.8-1.1-1-.1-2.7-.6-2.8-.8-.4-.6.2-2.6.2-2.6M23.1 32.5c.1.8-.4 5.8-2.3 2.5L19 36.2s1.4-.6 2.7.4h.3c.3-.3.9-1.1 1.3-1V32c-.2.1-.2.5-.2.5M22.9 27.9l-.1.3c.2.1.3-.3.3-.3-.2-1-3.4-4-3.4-4l-1.4.3-.1.6c1.2.4 4.6 2.9 4.7 3.1"/>
    </g>
    <path fill="#fff" d="M18.6 25.7s-.5-1.4.4-.8c.7-.1.6-.8.6-.8h.4c.2-1.4-1.2-1.2-1.3-1.2.3-.9 1.3-1.5 1.3-1.5-.1-.7-1.4.4-2 1.1.2-.7.6-1.1.5-1.2-.4-.2-.9.5-1.2 1.1v-.6c-.5 0-.8 1.4-.8 2.1-.1-.5-.2-1-.2-1.1-.6.1-.5 1.3-.4 1.9l-.3-.3c-.1.1-.1.4 0 .6-1.1-1.1-1.3-2.4-1.4-2.4-.5 0-.1 1.5.1 2.1-.6-.8-.7-1.5-.8-1.4-.8.7 1 2.8 1.4 3.2-2-1.2-2.1-2.5-2.3-2.4-.5 1.3 2.5 3.6-.4 1.4-.5-.4.6 1.7.6 1.7.5.4-.7-.5-1-.5-.5.4 1.2 1.8 1.2 1.8.2.2-1-.6-1.2-.5-.4.5 1.4 1.6 1.4 1.6.8.4-1.1-.5-1.1-.4-.6.7 2.5 1.7 2.5 1.7-1 .8-1.3 1.7-1.1 1.8.2.1 1.1-.8 1.5-1-.6.8-.9 1.9-.6 1.9.2 0 .8-1.6 1.7-1.9-.3.6-.6 1.4-.4 2 0 0-1.2 1.4-1.4 1.8-.3.4.3.3.3.3s-1 1-1.4 1.3c-.4.3.7 0 1-.1-.2.1-.8.5-.8.6.3.2 1.1-.4 1.1-.4s-.2.3 0 .4c.3 0 .9-.5.9-.5s-.1.3 0 .3c.2-.2 1.7-1.3 1.8-1.5.4.6.7 1.8.7 1.8h.8s4.2-4 4.2-6.5c.1-2.4-2.6-3.4-4.3-5.5m.7 2.8c.2.4.2.8.1 1.2h-1.1c0-.5-.1-1.6 0-2.3.5.7 1 1.1 1 1.1m-2.2 3.6v.6l-.6.5c.2-.4.4-1 .6-1.1"/>
    <path fill="#3e4347" d="M40.1 35.5v.6l.6-.1c.1 0 .6.5.7.7l.2.2.1.1h.8l.1-.1c.3-.2.5-.3.9-.4.6.7 1.2 1.3 1.4 1.4.1.7.1 1.1 0 1.2-.3.2-1.6.5-2.4.6l-1.5.1 1.1.8c.2.1.6.5.6.8l.1.6.5-.2h.1c.1 0 .3.1.4.2l.4.5.4-.5c.1-.1.2-.3.3-.4.2-.3.5-.7 1.2-1.4l.2-.2v-.3-1.6l.1-.4c.1-.3.2-.8.3-1.2.5.4 1.2 1 1.4 1.1l.2.1.3-.1c.2.1.4.2.6.2h.1l.1-.1c.4.2.8.2 1 0l.1-.1.1-.1h.1l.2-.4c0-.1.1-.4-.3-.7-.2-.1-.5-.4-.8-.7.1-.1.1-.4-.1-.7-.2-.4-1-1.2-1.3-1.6v-.2c.3.4.5.7.8.7h.1c.2 0 .4-.2.5-.5.1-.1.1-.3 0-.5.1 0 .2.1.3.1h.2l.3-.1.1-.3c.1-.4-.2-1-.8-1.6.9-.4 2-.9 2.2-1.5.1-.2 0-.4-.1-.6.2-.2.3-.4.4-.6 0-.2 0-.4-.1-.6v-.1c.2-.2.3-.5.3-.7 0-.2-.1-.5-.3-.6l-.3-.1c.3-.7.2-.9.1-1L52 25h-.3c.1-.3.1-.7 0-1.1l-.1-.2-.4-.1h-.1c0-.3-.2-.6-.4-.7l-.1-.1h-.1c0-.3-.1-.4-.2-.5-.1-.2-.3-.3-.5-.3-.4 0-.5.3-.6.6-.1.3-.3.7-.6 1.2 0-1.1-.5-1.5-.9-1.6h-.1c-.1-.3-.2-.5-.4-.7-.2-.2-.5-.3-.6-.3h-.1c-.4-.5-.9-.6-1.3-.4H45c-.7-.4-1.4-.3-1.5.3 0 .3.2.5.4.6.1.1.4.3.6.5-.2.1-.5.2-.6.4-.2.3-.4.6-.3 1.1-1.4 1.3-3 3-3.1 3.9v.1l.1.1c.1.2.3.6.7.6h.1l.5-.3-.1-.4c.4-.3 1.4-1.1 2.4-1.7-.3.3-.6.6-1 .9-1.3 1.1-2.6 2.2-2.5 4.2v.2h-.4v.5c-.1.2-.2 3-.2 3.7m2.2-.3c-.2.2-.3.2-.3.2-.2-.1-.4-.7-.5-1.3.3.3.5.7.8 1.1"/>
    <g fill="#ffce31">
        <path d="M45.1 37l.8.5v2.6c-1.1 1.1-1.2 1.5-1.5 1.8-.4-.6-1.1-.4-1.1-.4-.1-.6-.8-1.1-.8-1.1 1-.1 2.7-.6 2.8-.8.4-.6-.2-2.6-.2-2.6M40.9 32.5c-.1.8.4 5.8 2.3 2.5l1.8 1.3s-1.4-.6-2.7.4H42c-.3-.3-.9-1.1-1.3-1v-3.6c.2 0 .2.4.2.4M41.1 27.9l.1.3c-.2.1-.3-.3-.3-.3.2-1 3.4-4 3.4-4l1.4.3.1.6c-1.2.4-4.6 2.9-4.7 3.1"/>
    </g>
    <path fill="#fff" d="M41.1 31.4c-.1 2.5 4.2 6.5 4.2 6.5h.8s.2-1.3.7-1.8c.1.1 1.6 1.3 1.8 1.5.1 0 0-.3 0-.3s.6.5.9.5c.2-.1 0-.4 0-.4s.8.6 1.1.4c0-.1-.5-.5-.8-.6.2.1 1.4.4 1 .1-.5-.3-1.4-1.3-1.4-1.3s.6.1.3-.3c-.2-.4-1.4-1.8-1.4-1.8.2-.5-.1-1.3-.4-2 .9.3 1.5 1.9 1.7 1.9.4-.1.1-1.2-.6-1.9.5.3 1.3 1.1 1.5 1 .2-.1-.2-.9-1.1-1.8 0 0 3.1-1.1 2.5-1.7 0-.1-1.9.9-1.1.4 0 0 1.8-1.1 1.4-1.6-.2-.1-1.3.7-1.2.5 0 0 1.8-1.4 1.2-1.8-.3-.1-1.5.9-1 .5 0 0 1.1-2.1.6-1.7-2.9 2.1.1-.1-.4-1.4-.2-.1-.3 1.2-2.3 2.4.4-.4 2.3-2.6 1.4-3.2-.1-.1-.2.6-.8 1.4.2-.6.6-2.2.1-2.1-.1 0-.3 1.2-1.4 2.4v-.6l-.3.3c.1-.5.2-1.8-.4-1.9 0 .1-.1.5-.2 1.1 0-.7-.3-2.1-.8-2.1v.6c-.3-.6-.8-1.3-1.2-1.1 0 0 .3.5.5 1.2-.6-.6-1.9-1.7-2-1.1 0 .1 1 .7 1.3 1.5-.1 0-1.5-.3-1.3 1.2h.4s-.1.7.6.8c.9-.6.4.8.4.8-1.7 1.9-4.4 2.9-4.3 5.5m4.6-3.9c.1.7 0 1.8 0 2.3-.5-.1-.9 0-1.1 0 0-.4 0-.9.1-1.2 0-.1.5-.5 1-1.1m1.8 5.7l-.6-.5v-.6c.2.1.4.7.6 1.1"/>
    <g fill="#ffce31">
        <path d="M37.6 22.6l-1.3 3.1.9.3-.4 1.1h1.6L38 26l.8-.3-1.2-3.1M26.5 22.6l-1.3 3.1.9.3-.4 1.1h1.5l-.3-1.1.8-.3-1.2-3.1M32 22.6l-1.2 3.1.8.3-.4 1.1h1.6l-.4-1.1.9-.3-1.3-3.1M30.9 37.3h-4v-3l1.2 1.5.8-1.5.7 1.5 1.3-1.5zM37.2 37.3h-4v-3l1.2 1.5.8-1.5.7 1.5 1.3-1.5zM34 40.8h-4v-3l1.3 1.5.7-1.5.8 1.5 1.2-1.5z"/>
    </g>
</svg>