<svg xmlns="http://www.w3.org/2000/svg" viewBox="0 0 64 64">
    <title>flag: European Union</title>
    <circle cx="32" cy="32" r="30" fill="#2a5f9e"/>
    <g fill="#ffce31">
        <path d="M32 11.8l.7 2.2H35l-1.8 1.4.7 2.2-1.9-1.4-1.9 1.4.7-2.2L29 14h2.3zM32 45.8l.7 2.2H35l-1.8 1.3.7 2.3-1.9-1.4-1.9 1.4.7-2.3L29 48h2.3zM40.4 43l.7 2.2h2.4l-1.9 1.4.7 2.2-1.9-1.4-1.9 1.4.8-2.2-1.9-1.4h2.3zM46.2 37.2l.7 2.2h2.4l-1.9 1.4.7 2.2-1.9-1.4-1.9 1.4.8-2.2-1.9-1.4h2.3zM49 28.8l.7 2.2H52l-1.9 1.4.7 2.2-1.8-1.4-1.9 1.4.7-2.2-1.9-1.4h2.3zM46.2 20.3l.7 2.3h2.4l-1.9 1.3.7 2.2-1.9-1.3-1.9 1.3.8-2.2-1.9-1.3h2.3zM40.4 14.5l.7 2.3h2.4l-1.9 1.3.7 2.2-1.9-1.3-1.9 1.3.8-2.2-1.9-1.3h2.3zM23.6 43l-.7 2.2h-2.4l1.9 1.4-.7 2.2 1.9-1.4 1.9 1.4-.8-2.2 1.9-1.4h-2.3zM17.8 37.2l-.7 2.2h-2.4l1.9 1.4-.7 2.2 1.9-1.4 1.9 1.4-.8-2.2 1.9-1.4h-2.3zM15 28.8l-.7 2.2H12l1.9 1.4-.7 2.2 1.8-1.4 1.9 1.4-.7-2.2 1.9-1.4h-2.3zM17.8 20.3l-.7 2.3h-2.4l1.9 1.3-.7 2.2 1.9-1.3 1.9 1.3-.8-2.2 1.9-1.3h-2.3zM23.6 14.5l-.7 2.3h-2.4l1.9 1.3-.7 2.2 1.9-1.3 1.9 1.3-.8-2.2 1.9-1.3h-2.3z"/>
    </g>
</svg>