<svg xmlns="http://www.w3.org/2000/svg" viewBox="0 0 64 64">
    <title>flag: Jamaica</title>
    <g fill="#699635">
        <path d="M53.1 10.7C41.4-.9 22.5-.9 10.8 10.7L32 27l21.1-16.3zM10.9 53.3c11.7 11.6 30.6 11.6 42.3 0L32 37 10.9 53.3z"/>
    </g>
    <g fill="#3e4347">
        <path d="M58 47c5.3-9.2 5.3-20.7 0-29.9L38.6 32 58 47zM6 17C.7 26.3.7 37.7 6 47l19.5-15L6 17z"/>
    </g>
    <path fill="#ffe62e" d="M53.1 10.7L32 27 10.9 10.7C9 12.6 7.3 14.7 6 17l19.4 15L6 47c1.3 2.3 3 4.5 4.9 6.3L32 37l21.1 16.3c1.9-1.9 3.5-4 4.9-6.3L38.6 32 58 17c-1.3-2.3-3-4.4-4.9-6.3z"/>
</svg>