<svg xmlns="http://www.w3.org/2000/svg" viewBox="0 0 64 64">
    <title>flag: Diego Garcia</title>
    <path fill="#fff" d="M26.8 6.1c-3.6 0-4.7-1-6.8-1.6-2.4 1-4.6 2.4-6.7 4 .8-.2 1.8-.3 3.1-.3 5.2 0 5.2 2 10.4 2s5.2-2 10.4-2 5.2 2 10.4 2c2 0 3.2-.3 4.3-.7C50.4 8.2 48.8 7 47 6c-4.7-.1-4.8-2-9.8-2-5.2.1-5.2 2.1-10.4 2.1"/>
    <g fill="#2a5f9e">
        <path d="M47.6 10.2c-5.2 0-5.2-2-10.4-2s-5.2 2-10.4 2-5.2 4.1 0 4.1 5.2-2 10.4-2 5.2 2 10.4 2c3.9 0 4.9-1.1 7.3-1.7-.9-1.1-2-2.1-3-3.1-1.1.4-2.3.7-4.3.7M37.2 4.1c5 0 5.2 1.8 9.9 2-4.4-2.6-9.6-4-15-4-4.3 0-8.8 4.1-5.2 4.1C32 6.1 32 4.1 37.2 4.1"/>
    </g>
    <path fill="#fff" d="M47.6 14.3c-5.2 0-5.2-2-10.4-2s-5.2 2-10.4 2-5.2-2-10.4-2c-4.5 0-5.1 1.5-8.6 1.9-1 1.3-1.8 2.7-2.6 4.2H6c5.2 0 5.2-2 10.4-2s5.2 2 10.4 2 5.2-2 10.4-2 5.2 2 10.4 2c5.1 0 5.2-1.9 10.1-2-.8-1.4-1.7-2.6-2.8-3.8-2.4.6-3.4 1.7-7.3 1.7"/>
    <path fill="#2a5f9e" d="M47.6 18.5c-5.2 0-5.2-2-10.4-2s-5.2 2-10.4 2-5.2 4.1 0 4.1 5.2-2 10.4-2 5.2 2 10.4 2 5.2-2 10.4-2c.7 0 1.3 0 1.8.1-.6-1.5-1.3-2.9-2.1-4.2-4.9.1-5 2-10.1 2"/>
    <path fill="#fff" d="M58 20.6c-5.2 0-5.2 2-10.4 2s-5.2-2-10.4-2-5.2 2-10.4 2-5.2-2-10.4-2-5.2 2-10.4 2c-1 0-1.8-.1-2.4-.2-.4 1.2-.8 2.5-1 3.8.9.3 2 .5 3.5.5 5.2 0 5.2-2 10.4-2s5.2 2 10.4 2 5.2-2 10.4-2 5.2 2 10.4 2 5.2-2 10.4-2c1.4 0 2.4.1 3.2.3-.4-1.5-.8-2.9-1.4-4.3-.6 0-1.2-.1-1.9-.1"/>
    <path fill="#2a5f9e" d="M58 24.8c-5.2 0-5.2 2-10.4 2s-5.2-2-10.4-2-5.2 2-10.4 2-5.2 4.1 0 4.1 5.2-2 10.4-2 5.2 2 10.4 2 5.2-2 10.4-2c1.8 0 2.9.2 3.9.5-.1-1.4-.3-2.9-.7-4.2-.8-.3-1.8-.4-3.2-.4"/>
    <path fill="#fff" d="M58 28.9c-5.2 0-5.2 2-10.4 2s-5.2-2-10.4-2-5.2 2-10.4 2-5.2-2-10.4-2-5.2 2-10.4 2c-1.8 0-3-.2-4-.5V32c0 .8 0 1.7.1 2.5 1 .3 2.1.6 3.9.6 5.2 0 5.2-2 10.4-2s5.2 2 10.4 2 5.2-2 10.4-2 5.2 2 10.4 2 5.2-2 10.4-2c1.8 0 3 .2 4 .5V32c0-.8 0-1.6-.1-2.5-1-.3-2.1-.6-3.9-.6"/>
    <path fill="#2a5f9e" d="M58 33.1c-5.2 0-5.2 2-10.4 2s-5.2-2-10.4-2-5.2 2-10.4 2-5.2-2-10.4-2-5.2 2-10.4 2c-1.8 0-2.9-.2-3.9-.5.1 1.4.3 2.9.7 4.2.8.2 1.8.4 3.2.4 5.2 0 5.2-2 10.4-2s5.2 2 10.4 2 5.2-2 10.4-2 5.2 2 10.4 2 5.2-2 10.4-2c1.5 0 2.6.2 3.5.4.2-1.3.4-2.6.5-3.9-1-.3-2.2-.6-4-.6"/>
    <path fill="#fff" d="M58 37.2c-5.2 0-5.2 2-10.4 2s-5.2-2-10.4-2-5.2 2-10.4 2-5.2-2-10.4-2-5.2 2-10.4 2c-1.4 0-2.4-.1-3.2-.3.4 1.5.8 2.9 1.4 4.3.5.1 1.1.1 1.8.1 5.2 0 5.2-2 10.4-2s5.2 2 10.4 2 5.2-2 10.4-2 5.2 2 10.4 2 5.2-2 10.4-2c1 0 1.8.1 2.4.2.4-1.2.8-2.5 1-3.8-.8-.3-1.9-.5-3.4-.5"/>
    <path fill="#2a5f9e" d="M58 41.4c-5.2 0-5.2 2-10.4 2s-5.2-2-10.4-2-5.2 2-10.4 2-5.2-2-10.4-2-5.2 2-10.4 2c-.7 0-1.3 0-1.8-.1.6 1.5 1.3 2.9 2.1 4.2 4.9-.1 5-2 10.1-2 5.2 0 5.2 2 10.4 2s5.2-2 10.4-2 5.2 2 10.4 2 5.2-2 10.4-2h.8c.6-1.3 1.2-2.6 1.7-3.9-.7-.2-1.5-.2-2.5-.2"/>
    <path fill="#fff" d="M58 45.5c-5.2 0-5.2 2-10.4 2s-5.2-2-10.4-2-5.2 2-10.4 2-5.2-2-10.4-2c-5.1 0-5.2 1.9-10.1 2 .8 1.4 1.7 2.6 2.8 3.8 2.5-.6 3.4-1.7 7.3-1.7 5.2 0 5.2 2 10.4 2s5.2-2 10.4-2 5.2 2 10.4 2c4.5 0 5.1-1.5 8.6-1.9 1-1.3 1.8-2.7 2.6-4.2H58"/>
    <path fill="#2a5f9e" d="M47.6 51.7c-5.2 0-5.2-2-10.4-2s-5.2 2-10.4 2-5.2-2-10.4-2c-3.9 0-4.9 1.1-7.3 1.7.9 1.1 2 2.2 3 3.1 1.1-.4 2.3-.7 4.3-.7 5.2 0 5.2 2 10.4 2s5.2-2 10.4-2 5.2 2 10.4 2c1.3 0 2.3-.1 3.1-.3 2.1-1.7 3.9-3.6 5.5-5.7-3.5.3-4.1 1.9-8.6 1.9"/>
    <path fill="#fff" d="M47.6 55.8c-5.2 0-5.2-2-10.4-2s-5.2 2-10.4 2-5.2-2-10.4-2c-2 0-3.2.3-4.3.7 1.5 1.3 3.1 2.5 4.8 3.5 4.6.1 4.8 2 9.8 2 5.2 0 5.2-2 10.4-2 3.6 0 4.7 1 6.8 1.6 2.4-1 4.6-2.4 6.7-4-.8.1-1.7.2-3 .2"/>
    <path fill="#2a5f9e" d="M26.8 59.9c-5 0-5.2-1.8-9.9-2 4.4 2.6 9.6 4 15 4 4.3 0 8.3-.9 12-2.5-2.1-.6-3.2-1.6-6.8-1.6-5.1.1-5.1 2.1-10.3 2.1"/>
    <path fill="#75a843" d="M54.4 24.6l3.9.1c-1-1.8-4.3-1.9-7-1.4 1.7-.5 3.7-1.1 4.1-1.2-.8-.6-4.3-2.8-8.7 1.6h-.1c-4.4-4.4-7.9-2.2-8.7-1.6.3.1 2.4.6 4.1 1.2-2.7-.4-6-.3-7 1.4l3.9-.1c-1.6.8-2.5.9-2.8 2.8.1 0 2.1-.6 4.2-1.1-1.1.6-2.2 1.3-2.6 2 1.9.1 3.5-.4 4.8-1-.8 1-1.2 2.1-1.2 2.7.9-.2 1.9-1 2.7-1.8-.5 1.8-.4 3.7.1 4.4.8-.6 1.3-1.6 1.7-2.7V31h1.7l-.1-1.5c.4 1.3 1 2.5 1.9 3.2.5-.8.6-2.6.1-4.4.8.8 1.7 1.6 2.7 1.8.1-.6-.4-1.7-1.2-2.7 1.2.6 2.9 1.1 4.8 1-.5-.7-1.5-1.4-2.6-2 2.1.6 4.1 1.1 4.2 1.1-.3-2-1.2-2.1-2.9-2.9"/>
    <path fill="#c94747" d="M45.4 28.2h2.7V50h-2.7z"/>
    <path fill="#f1bf31" d="M40.3 42.1l2.2 2.3h8.1l2.2-2.3.2-3.4-5.3-1.6.5-.4-1.7-1-1.7 1 .5.4-4.8 1.2-.2 3.8m11.5-2.8l-1.3 2-1.3-.5-1.6-.3v-2.9l4.2 1.7m-10.4 0l4.2-1.7v2.9l-1.6.3-1.3.5-1.3-2"/>
    <path fill="#2a5f9e" d="M11 11h21v21H11z"/>
    <g fill="#fff">
        <path d="M18.9 8.1V14h-7.3L26 32h6v-7.5z"/>
        <path d="M11 18.9H5c-1.9 4-3 8.4-3 13.1h12V13.9h-3v5"/>
    </g>
    <path fill="#ed4c5c" d="M32 27.1L19 11h-6l17 21h2z"/>
    <path fill="#fff" d="M18.9 5v6H11v3h21V2c-4.7 0-9.1 1.1-13.1 3z"/>
    <path fill="#ed4c5c" d="M32 5H18.9c-6 2.9-11 7.9-13.9 13.9V32h6V11h21V5z"/>
</svg>