<svg xmlns="http://www.w3.org/2000/svg" viewBox="0 0 64 64">
    <title>flag: Guernsey</title>
    <path fill="#f5f5f5" d="M38 2.6H26C14.3 5 5 14.2 2.6 26v12C5 49.8 14.3 59 26 61.4h12C49.8 59 59 49.7 61.4 38V26C59 14.2 49.7 5 38 2.6z"/>
    <path fill="#ed4c5c" d="M38 26V2.6c-1.9-.4-3.9-.6-6-.6s-4.1.2-6 .6V26H2.6c-.4 1.9-.6 3.9-.6 6s.2 4.1.6 6H26v23.4c1.9.4 3.9.6 6 .6s4.1-.2 6-.6V38h23.4c.4-1.9.6-3.9.6-6s-.2-4.1-.6-6H38"/>
    <path fill="#ffce31" d="M52 29.5H34.5V12L37 9.5H27l2.5 2.5v17.5H12L9.5 27v10l2.5-2.5h17.5V52L27 54.5h10L34.5 52V34.5H52l2.5 2.5V27z"/>
</svg>