<svg xmlns="http://www.w3.org/2000/svg" viewBox="0 0 64 64">
    <title>flag: Jersey</title>
    <path fill="#ed4c5c" d="M53.953 11.055L32 27.695 10.066 11.068a30.355 30.355 0 0 0-4.144 5.465l20.4 15.465L5.92 47.465a30.355 30.355 0 0 0 4.127 5.48L32 36.305l21.936 16.627a30.355 30.355 0 0 0 4.144-5.467L37.678 31.998l20.4-15.465a30.355 30.355 0 0 0-4.125-5.478z"/>
    <path fill="#f9f9f9" d="M32.001 1.646a30.355 30.355 0 0 0-21.936 9.423l21.936 16.627 21.953-16.64a30.355 30.355 0 0 0-21.953-9.41zM5.921 16.532A30.355 30.355 0 0 0 1.646 32 30.355 30.355 0 0 0 5.92 47.466l20.402-15.467zm52.158.002L37.68 32l20.4 15.467a30.355 30.355 0 0 0 4.275-15.467 30.355 30.355 0 0 0-4.275-15.465zm-26.078 19.77l-21.953 16.64A30.355 30.355 0 0 0 32 62.354a30.355 30.355 0 0 0 21.936-9.423z"/>
    <g>
        <path fill="#ed4c5c" d="M36.853 10.437c1.274 4.999.588 11.173-4.998 14.506-5.587-3.43-6.273-9.605-4.999-14.506 1.274-1.274 7.253-1.96 9.997 0"/>
        <path fill="#ffe62e" d="M36.838 12.839c0-.1-.1-.2-.2-.1-.4.1-1.5.1-1.8-.2.5.2 1.2-.2 1.2-.6 0-.4-.5-.8-1.6-.5-1 .2-2.3.1-2.3-.2 0-.3.9-.4 1.4-.3.5.1.8.1 1.7-.2-.2.1-.9.1-1.5 0-.5-.2-1.9-.2-1.9.6 0 .7 1.4.7 2.7.5.7-.1 1.1 0 1.1.2s-.7.3-1.2.3-1-.1-1.6.1c-1.1.4-2.3.1-2.7-.4v-.2c.1-.1.2-.2.2-.3.1-.3 0-.3-.3-.1-.1-.1-.3-.2-.6-.2s-.5.1-.6.2c-.3-.1-.4-.1-.3.1 0 .1.1.3.2.3 0 .4.4 1 .4 1-.6-.1-1.3-1.1-1.5-1.6-.1-.2-.3-.3-.4-.3-.1 0-.2.1-.1.2s.2.1.2.3c-.1-.2-.3-.2-.4-.1-.1.1 0 .2.1.2.2 0 .1.2.2.3-.2-.2-.3-.2-.4-.1-.1.1 0 .2.1.2.2 0 .8.9 2.3 1.7 0 .1-.3.1-.5.1-.4 0-.8 0-1.1-.3-.2-.2-.5-.4-.7-.3-.1.1 0 .2.1.2s.2 0 .3.1c-.2-.1-.3 0-.4 0-.1.1 0 .2.1.2s.3-.1.4 0c-.1 0-.3 0-.3.1s0 .2.1.2c.2 0 1.8 1 3.1-.2.2 0 1.5 0 2-.4.3.4.4.4.7.4.3.1.5.1.3.2-.1.1-.4 0-.6 0-.5 0-.8-.4-.9-.2-.1.1 0 .2.2.2-.2 0-.4 0-.3.2.1.3.3-.1.4.1-.1 0-.2 0-.2.1s.2.2.4 0c.1-.1.3-.1.4-.1.4 0 1.2.2 1.5-.1.1-.1 0-.2-.1-.3-.1-.1-.1-.2-.1-.5.3.1.7.1 1.3 0 .7-.1.9.1.9.4 0 .2-.1.2-.2.2-.4 0-.5-.1-.7-.1-.1 0-.2.2 0 .2-.1.1-.1.2 0 .2h.3c-.1.1-.3.2-.2.3 0 .1.2.1.3 0 .1-.1.3-.2.5-.3.6 0 .8-.9.6-1.4M36.543 17.239c0-.1-.1-.2-.2-.1-.4.1-1.4.1-1.7-.2.5.2 1.1-.2 1.1-.6 0-.4-.5-.7-1.5-.5-1 .2-2.2.1-2.2-.2 0-.3.9-.4 1.3-.3.4.1.8.1 1.6-.2-.2.1-.9.1-1.4 0-.5-.1-1.8-.1-1.8.5 0 .7 1.4.6 2.5.5.7-.1 1.1 0 1.1.2s-.6.3-1.1.2c-.5-.1-1-.1-1.6.1-1 .3-2.2.1-2.5-.4v-.2c.1-.1.1-.2.2-.3.1-.2 0-.3-.3-.1-.1-.1-.3-.2-.5-.2-.3 0-.4.1-.5.2-.3-.1-.4-.1-.3.1 0 .1.1.3.2.3 0 .4.4.9.4 1-.5-.1-1.2-1.1-1.4-1.5-.1-.2-.3-.3-.4-.3-.1 0-.1.1-.1.2s.2.1.2.3c-.1-.1-.3-.2-.4-.1-.1.1 0 .2.1.2.2 0 .1.2.2.3-.2-.2-.3-.2-.4-.1-.1.1 0 .2.1.2.2 0 .8.8 2.2 1.6 0 .1-.2.1-.4.1-.3 0-.8 0-1-.3-.2-.2-.5-.4-.7-.2-.1.1 0 .2.1.2s.2 0 .3.1c-.1-.1-.3 0-.4 0-.1.1 0 .2.1.2s.3-.1.4 0h-.3c-.1.1 0 .2.1.2.2 0 1.7 1 3-.2.2 0 1.4 0 1.9-.3.3.4.4.3.7.4.3.1.5.1.3.2-.1.1-.3 0-.6 0-.5 0-.7-.3-.9-.2-.1.1 0 .2.2.2-.2 0-.3 0-.3.1.1.3.3 0 .4.1-.1 0-.2 0-.2.1s.2.2.4 0c.1-.1.3-.1.4-.1.3 0 1.1.2 1.4-.1.1-.1 0-.2-.1-.3-.1-.1-.1-.2-.1-.5.3.1.7.1 1.2 0 .6-.1.8.1.8.4 0 .2-.1.2-.2.2-.3 0-.5-.1-.6-.1-.1 0-.1.2 0 .2-.1.1-.1.2 0 .2h.3c-.1.1-.3.2-.2.3 0 .1.2.1.3 0 .1-.1.3-.2.4-.2.3 0 .6-.8.4-1.3M35.214 21.039c0-.1-.1-.1-.2-.1-.3.1-1 0-1.3-.1.4.1.8-.2.8-.4 0-.3-.4-.5-1.1-.4-.7.2-1.6.1-1.6-.1s.6-.3 1-.2c.3 0 .6.1 1.2-.1-.1.1-.6.1-1 0s-1.3-.1-1.3.4 1 .5 1.9.3c.5-.1.8 0 .8.1 0 .2-.5.2-.8.2-.4 0-.7 0-1.1.1-.8.2-1.6.1-1.9-.3v-.2c.1-.1.1-.2.1-.2.1-.2 0-.2-.2-.1-.1-.1-.2-.1-.4-.1s-.3 0-.4.1c-.2-.1-.3-.1-.2.1 0 .1.1.2.1.2 0 .3.3.7.3.7-.4 0-.9-.8-1-1.1 0-.1-.2-.2-.3-.2-.1 0-.1.1 0 .1.1.1.2.1.2.2-.1-.1-.2-.1-.3-.1 0 0 0 .1.1.1s.1.1.1.2c-.1-.1-.2-.1-.3 0 0 0 0 .1.1.1s.6.6 1.6 1.2c0 .1-.2.1-.3.1-.2 0-.6 0-.7-.2-.1-.2-.4-.3-.5-.2-.1.1 0 .2.1.1s.1 0 .2.1h-.3c-.1.1 0 .2.1.1.1 0 .2-.1.3 0h-.2s0 .1.1.1c.2 0 1.3.7 2.2-.1.1 0 1.1 0 1.4-.3 0 .5.1.5.3.5.2 0 .3 0 .2.2h-.4c-.4 0-.5-.3-.6-.1-.1.1 0 .2.1.2-.1 0-.2 0-.2.1 0 .2.2 0 .3 0-.1 0-.2 0-.2.1s.1.1.3 0c.1-.1.2-.1.3-.1.3 0 .8.1 1-.1.1-.1 0-.1-.1-.2s-.1-.2-.1-.3h.9c.5-.1.6.1.6.3 0 .1-.1.2-.1.2-.3 0-.4-.1-.5-.1-.1 0-.1.1 0 .2-.1 0-.1.1 0 .1h.2c-.1 0-.2.1-.1.2 0 0 .1.1.2 0s.2-.2.3-.2c.3-.1.5-.7.3-1.1M31.705 9.239c2.1 0 4 .6 5.2 1.3.2-1.8 1-3.5 2-4.8-1 0-1.4.5-1.4 1-.2-.7-1.2-.7-1.5-.3 1.1.7.2 2-.7 1.7-.5-.1-.7-.4-.8-.9.3 0 .5-.3.5-.6s-.3-.5-.6-.5-.5.3-.5.6c0 .2.1.4.3.5-.3.5-.9.6-1.2.5-.5-.1-.7-.6-.7-1 0-1.1 1-1.2 1.3-1 0-.7-1.1-1.3-1.5-.7.4-.7.4-1.7-.3-2.3-.7.7-.7 1.6-.3 2.3-.3-.6-1.5 0-1.5.7.3-.2 1.3 0 1.3 1 0 .4-.2.9-.7 1-.4.1-.9 0-1.2-.5.3-.1.4-.4.3-.7-.1-.3-.4-.4-.7-.3-.3.1-.4.4-.3.7.1.2.3.3.5.3-.1.5-.3.8-.8.9-1 .3-1.8-1-.7-1.7-.3-.4-1.3-.4-1.5.3 0-.5-.4-1.1-1.4-1 .9 1.3 1.7 3.1 2 4.8.9-.7 2.8-1.3 4.9-1.3"/>
    </g>
</svg>