<svg xmlns="http://www.w3.org/2000/svg" viewBox="0 0 64 64">
    <title>flag: Cyprus</title>
    <circle cx="32" cy="32" r="30" fill="#f5f5f5"/>
    <g fill="#699635">
        <path d="M12.5 37s-.2 1.4.4 2c.6.6 1.9 1.4 2.4 1.5.5.1-.6-1.8-.6-1.8s-1.5-2-2.2-1.7M12.7 40.4s.2 1.3 1 1.5c.9.2 1.7.1 1.7.1s.1-1.5-2.7-1.6M15.6 37.8s.9.3.9 1.1-.1 1.6-.1 1.6-.6-.8-.6-1.2c0-.4-.2-1.5-.2-1.5M15.3 42.6s-.1.8.8.8.1-1-.8-.8M15.2 43.9s1-.3 2.1-.1c1.1.2 1.7 1.1 1.7 1.1s-1.2.3-2.6 0c-1.3-.3-1.2-1-1.2-1M15.9 41s1.4-.4 2.7 2.6c0 0-2.6-.6-2.7-2.6M17.3 40.4s1.5-.9 2.8 3.1c0 0-1.8-.7-2.8-3.1M19.4 44.1s1.5-.6 3.5 1.8c-3.3-.1-3.5-1.8-3.5-1.8M20.4 43s-.1.9.5.9.1-1.1-.5-.9M19.3 45.4s-.1.8.4.8 0-1.1-.4-.8M24 47.8s-.1.9.5.9.1-1.2-.5-.9M25.4 45.1s-.1.9.5.9.1-1.2-.5-.9M21.6 43.5s2.2-.6 3.1 2.2c-2.6-.4-3.1-2.2-3.1-2.2M19.7 46.6s2.5-.6 3.6.2-2.2 1.2-3.6-.2M24 46.6s1.7-.8 3.5 1c-3.5.4-3.5-1-3.5-1M26.8 45.5s1.7-.5 3.3 2.5c-3.7-.5-3.3-2.5-3.3-2.5M29.6 48.8s-1.8 1.3-4.1-.1c0 .1.8-1.5 4.1.1M51.5 36.9s.2 1.4-.4 2c-.6.6-1.9 1.4-2.4 1.5-.5.1.6-1.8.6-1.8s1.5-1.9 2.2-1.7M51.3 40.4s-.2 1.3-1.1 1.5c-.9.2-1.7.1-1.7.1s0-1.5 2.8-1.6M48.4 37.7s-.9.3-.9 1.1.1 1.6.1 1.6.6-.8.6-1.2.2-1.5.2-1.5M48.7 42.6s.1.8-.8.8-.1-1 .8-.8M48.8 43.8s-1-.3-2.1-.1c-1.1.2-1.7 1.1-1.7 1.1s1.2.3 2.6 0c1.3-.3 1.2-1 1.2-1M48.1 41s-1.4-.4-2.7 2.6c0 0 2.6-.7 2.7-2.6M46.7 40.4s-1.5-.9-2.8 3.1c0 0 1.8-.7 2.8-3.1M44.7 44.1s-1.5-.6-3.5 1.8c3.2-.2 3.5-1.8 3.5-1.8M43.6 43s.1.9-.5.9-.1-1.2.5-.9M44.7 45.3s.1.8-.4.8 0-1 .4-.8M40 47.8s.1.9-.5.9-.1-1.2.5-.9M38.6 45.1s.1.9-.5.9-.1-1.2.5-.9M42.4 43.5s-2.2-.6-3.1 2.2c2.6-.4 3.1-2.2 3.1-2.2M44.3 46.5s-2.5-.6-3.6.2c-1.1.9 2.2 1.3 3.6-.2M40 46.6s-1.7-.8-3.5 1c3.5.4 3.5-1 3.5-1M37.2 45.5s-1.7-.5-3.3 2.5c3.7-.5 3.3-2.5 3.3-2.5M34.4 48.8s1.8 1.3 4.1-.1c0 .1-.8-1.5-4.1.1M31.7 49.5s-1.3 1.7-1.3 1.5c0-.2-.9-.9-.9-.9L31 49l-.6-.3.3-.4 1.1.5M32 49.5s1.3 1.7 1.3 1.5c0-.2.9-.9.9-.9L32.7 49l.6-.3-.3-.4-1.1.5M31.6 49.6h.5"/>
    </g>
    <path fill="#ff8736" d="M18 29.5s.4 1.1.9 1.1 1.8.1 1.8.1.7-.1.9-.7c.2-.6.8-3.1 3.8-1.6s3.2-2.6 3.2-2.6l-.5-.7.1-1.4s1.6 1.1 2.7 1.1c1-.1 1.8.3 2.1.3.3 0 1.4.3 1.4.3l2.7.1s.4-.4.9-.3c.4.1.4-.3 1.3-.3.8 0 1.6-1 1.6-1s.2-.2 1.4 0c0 0 .8-.7 2-1 1.2-.4 1-.9 1-.9s.9-.2 1.3-.1.6-.7.6-.7l.9-.1.4-.5.9-.2s1.1-.8 1.3-1.3c.2-.5 1.4-.1 1.4-.1s.5-.5.6-.8c.1-.3.5-.1.5-.1l-.1.9-.6.3v.5h-.9l-.1.5-.8.1-.1.7-.2.3-.2.1h-.5l-.2.3-.5.6-.4.5-.8-.1-.5.7H47l-.5.8-.4.5-.2.3-.4.1-.1.4-.7.2-.8.2-.3.4s-.9 1.9.1 2.5c1 .7 1 1.4 1 1.4l.5.3.4.7.2.8s-.2.1-.4.1c-.3-.2-.7-.2-.7-.2l-.4-.4-.8-.1-.5.5s-.2.3-.2.5-.1.2-.4 0-.7-.4-.7-.4l-.6-.1-.1-.3-.4.2s-.1.3-.3.2c-.2-.1-.4-.1-.4-.1h-.4s-.9.7-.8 2.8l-1 .2-.5.4-.2.3h-.7l-.3.3-.7.3-.3.4-1 .1-.3.2-.2.4-.6-.4-.8-.2-.7.2-.4.2c-.2.2-.8.3-.8.3s-.4.1-.4.3c0 .2-.1.6-.1.6v.8s-.1.5-.5.5-.3 0-.5-.1-.2-.5-.2-.5v-.6l-.9-.8-.6-.2-.6.1-.5.3-.5.3s.1.4-.3.1-.7-.3-.7-.3l-.5-.3-.7-.2-.5-.6-1.3-.1-1.1-1.3-.3-.3-.1-1-.7-.1v-.5l-.3-.5.1-1-.7-.3-.3-.9v-1.4"/>
</svg>