<svg xmlns="http://www.w3.org/2000/svg" viewBox="0 0 64 64">
    <title>flag: Belarus</title>
    <g fill="#fff">
        <path d="M3.2 26.6v1h.6v1h.6v-1H5v-1h.6v-1h.6v-1h.6v-1h.6v-1h-.8v-1h-.5v-1H4.3v1h1.2v1h-.6v1h-.6v1h-.6v-1h-.5c-.2.8-.4 1.7-.6 2.5v.4h.6zM10.1 11.5l-.3.3h.3v-.3"/>
        <path d="M14.8 7.9h-.6v1h-.6v1H13v1h-.6v1h-.6v-1h-.6v-.5l-.6.6v.9h.6v1h.6v1h-.6v1h-.6v1H10v-1h-.5v-1H9v-1c-.2.2-.4.5-.6.7v.3h-.2c-.2.1-.3.2-.4.4v.5h-.4c-.1.1-.1.2-.2.3v.6h-.4c-.2.3-.4.7-.6 1h.5v1h.6v1h.6v1h.6v1H9v-1h.6v-1h.6v-1h.6v-1h.6v-1h.6v-1h.6v1h.4v1h.6v1h.6v1h.6v1h.6v-2h-.6v-1h.6v-2.9h-.6v1h-.6v1h-.6v-1H13v-1h-.6v-1h.6v-1h.6v-1h.6v1h.6v1h.6v-3h-.6v-1h.6V7.1c-.2.1-.4.3-.6.4v.4M9 17.7H8.4v-2H9v2M2.6 35.4v-1h.6v-1h.6v-1h.6v-1h-.7v-1h-.5v-1h-.6v-1h-.4C2.1 29.7 2 30.8 2 32c0 1.2.1 2.3.2 3.4h.4M14.8 29.5h-.6v1h-.6v1H13v1h.6v1h.6v1h.6v.9h.5v-6.8h-.5z"/>
        <path d="M9.5 12.1c-.2.2-.4.5-.6.7h.6v-.7M9.8 52.2l.3.3v-.3h-.3M9 51.2c.2.2.4.5.6.7v-.7H9"/>
        <path d="M14.8 55.1v-1h.6v-3h-.6v1h-.6v1h-.6v-1H13v-1h-.6v-1h.6v-1h.6v-1h.6v1h.6v1h.6v-3h-.6v-1h.6v-2h-.6v1h-.6v1h-.6v1H13v1h-.6v1h-.6v-1h-.6v-1h-.6v-1H10v-1h-.5v-1H9v-1H8.4v1h-.6v1h-.6v1h-.6v1h-.4c.2.3.4.7.6 1h.4v.6c.1.1.1.2.2.3h.4v.5c.1.4.2.5.4.7h.2v.3c.2.2.4.5.6.7v-1h.6v-1h.6v-1h.6v1h.6v1h.6v1h-.6v1h-.6v.9l.6.6v-.5h.6v-1h.6v1h.4v1h.6v1h.6v1h.6v.4c.2.1.4.3.6.4v-1.8l-.6-.1M9 48.2H8.4v-2H9v2M14.8 37.4h-.6v-1h-.6v-1H13v1h-.6v1h-.5v1h-.6v1h-.6v1h-.6v.9h.6v1h.6v1H13v-1h-1.1v-1h.5v-.9h.6v-1h.6v1h.6v.9h.6v1h.5v-1.9h-.5v-1h.5v-1h-.5zM14.8 22.7h-.6v.9h-.6v1H13v-1h-.6v-.9h-.5v-1H13v-1h-1.7v1h-.6v1h-.6v.9h.6v1h.6v1h.6v1h.5v1h.6v1h.6v-1h.6v-1h.6v-1h.5v-1h-.5v-1h.5v-1.9h-.5zM3.7 39.4h.6v1h.6v1h.6v1H4.3v1H6v-1h.6v-1h.6v-1h-.6v-1h-.5v-1h-.6v-1h-.6v-1h-.6v-1h-.6v1h-.5v1h-.6v.4c.2.9.4 1.7.6 2.5h.5v-.9M10.1 26.6h-.6v-1H9v-1H8.4v1h-.6v1h-.6v1h-.6v1h-.5v1h-.6v5h.6v1h.6v1h.6v1h.6v1h.6v1H9v-1h.6v-1h.6v-1h.6v-1h.6v-1h.6v-5h-.6v-1h-.6v-1h-.6l-.1-1m-3.5 5.3V32.5h-.5v-1h.6v.4zm4.1.2V31.5h.6v1h-.6v-.4m-2.3-5.5H9v1H8.4v-1M9 37.4H8.4v-1H9v1m1.1-6.9h-.6v1H9v1h.6v1h.6v2h-.7v-1H9v-1H8.4v1h-.6v1h-.6v-2h.6v-1h.6v-1h-.6v-1h-.6v-2h.6v1h.6v1H9v-1h.6v-1h.6l-.1 2"/>
    </g>
    <g fill="#c8313e">
        <path d="M7.2 15.1c-.1.2-.3.4-.4.6h.4v-.6M7.8 14.8v-.5c-.1.2-.2.3-.4.5h.4M8.4 13.8v-.3c-.1.1-.1.2-.2.3h.2M6.1 31.9V32.5h.5v-1h-.5zM14.8 16.8h.6v1h-.6zM9.5 13.8v1h.6v1h.6v-1h.6v-1h.6v-1h-.6v-1h-.6v-.9l-.6.6v.3h-.3l-.3.3v.7H9v1h.5M14.8 8.9h.6v1h-.6zM14.8 11.8h-.6v-.9h-.6v.9H13v1h-.6v1h.6v1h.6v1h.6v-1h.6v-1h.5v-1h-.5zM11.9 10.9v1h.6v-1h.5v-1h.6v-1h.6v-1h.6v-.4c-1.1.8-2.2 1.6-3.1 2.5-.1.1-.2.2-.4.3v.5h.6zM8.6 15.8h-.2v1.9H9v-1.9h-.3zM9.5 29.5H9v1H8.4v-1h-.6v-.9h-.6v1.9h.6v1h.6v1h-.6v1h-.6v1.9h.6v-.9h.6v-1H9v1h.5v.9h.6v-1.9h-.6v-1H9v-1h.5v-1h.6v-1.9h-.6zM14.8 23.6h.6v1h-.6z"/>
        <path d="M14.8 18.7h-.6v-1h-.6v-1H13v-1h-.6v-1h-.6v1h-.6v1h-.6v1H10v1h-.5v1H9v1H8.4v-1h-.6v-1h-.6v-1h-.6v-1h-.4c-.6 1-1.2 2.1-1.7 3.2-.5 1.2-.9 2.4-1.3 3.6h.5v1h.6v-1h.6v-1h.6v-1H4.3v-1H6v1h.6v1h.6v1h-.6v1h-.5v1h-.6v1h-.6v1h-.6v1h-.6v-1h-.5v-1h-.6v-.4c-.2.8-.3 1.6-.4 2.4h.4v1h.6v1h.6v1h.6v1h-.7v1h-.5v1h-.6v1h-.4c.1.8.2 1.6.4 2.4v-.4h.6v-1h.6v-1h.6v1H5v1h.6v1h.6v1h.6v1h.6v1h-.8v1h-.5v1H4.3v-1h1.2v-1h-.6v-1h-.6v-1h-.6v1h-.5c.4 1.1.8 2.3 1.3 3.5.5 1.1 1.1 2.2 1.7 3.2h.5v-1h.6v-1h.6v-1h.6v-1H9v1h.6v1h.6v1h.6v1h.6v1h.6v1h.6v-1h.4v-1h.6v-1h.6v-1h.6v-1h.6v-2h-.6v-1h-.6v-1h-.6v-1H13v1h-.6v1h-.6v1H13v1h-1.7v-1h-.6v-1h-.6v-1h.6v-1h.6v-1h.6v-1h.6v-1h.5v-1h.6v1h.6v1h.6v1h.6v-3h-.6v-1h-.6v-1h-.6v-1H13v-1h.6v-1h.6v-1h.6v-1h.6v-3h-.6v1h-.6v1h-.6v1H13v-1h-.6v-1h-.6v-1h-.6v-1h-.6v-1H10v-1h.6v-1h.6v-1H13v1h-1.2v1h.6v1h.6v1h.6v-1h.6v-1h.6v-1h.6v-2h-.6v-.5m-4.1 8.9v1h.6v1h.6v5h-.6v1h-.6v1h-.6v1h-.6v1H9v1H8.4v-1h-.6v-1h-.6v-1h-.6v-1h-.5v-1h-.6v-5h.6v-1h.6v-1h.6v-1h.6v-1h.6v-1H9v1h.6v1h.6v1h.5"/>
        <path d="M8.7 27.6H9v-1H8.4v1h.2zM7.2 48.2h-.4c.1.2.3.4.4.6v-.6M7.8 49.2h-.4c.1.2.2.3.4.5v-.5M8.4 50.2h-.2c.1.1.1.2.2.3v-.3M14.8 46.3h.6v1h-.6zM14.8 49.2h-.6v-1h-.6v1H13v1h-.6v1h.6v1h.6v.9h.6v-.9h.6v-1h.5v-1h-.5zM9.5 51.2v.7l.3.3h.3v.3l.6.6v-.9h.6v-1h.6v-1h-.6v-1h-.6v-1h-.6v1h-.6v1H9v1h.5M14.8 54.1h.6v1h-.6zM11.6 54c1 .9 2 1.8 3.1 2.5v-.4h-.6v-1h-.6v-1H13v-1h-.6v-1h-.6v1h-.6v.5l.4.4M8.6 46.3h-.2v1.9H9v-1.9h-.3zM14.8 39.4h.6v1h-.6zM11.3 32.1V31.5h-.6v1h.6zM8.6 36.4h-.2v1H9v-1h-.3z"/>
    </g>
    <path fill="#83bf4f" d="M15.3 44v12.9C20.1 60.1 25.8 62 32 62c7.9 0 15-3 20.4-8 3-2.8 5.5-6.2 7.1-10H15.3"/>
    <path fill="#c94747" d="M59.5 44c1.6-3.7 2.5-7.7 2.5-12s-.9-8.3-2.5-12c-1.7-3.8-4.1-7.2-7.1-10C47 5 39.9 2 32 2c-6.2 0-11.9 1.9-16.7 5.1V44h44.2"/>
</svg>