<svg xmlns="http://www.w3.org/2000/svg" viewBox="0 0 64 64">
    <title>flag: Dominica</title>
    <path fill="#699635" d="M40.9 3.4H23.1C13.7 6.3 6.3 13.7 3.4 23v18c2.9 9.3 10.3 16.7 19.7 19.6H41c9.3-2.9 16.7-10.3 19.6-19.7V23C57.7 13.7 50.3 6.3 40.9 3.4z"/>
    <path fill="#ffe62e" d="M23 60.6c1.9.6 3.9 1 6 1.2V2.2a29 29 0 0 0-6 1.2v57.2"/>
    <path fill="#3e4347" d="M29 61.9c1 .1 2 .1 3 .1s2-.1 3-.1V2.2c-1-.1-2-.2-3-.2s-2 .1-3 .2v59.7"/>
    <path fill="#fff" d="M35 61.9a29 29 0 0 0 6-1.2V3.4a29 29 0 0 0-6-1.2v59.7"/>
    <path fill="#ffe62e" d="M2.1 29h59.7a29 29 0 0 0-1.2-6H3.4c-.6 1.9-1 3.9-1.3 6"/>
    <path fill="#3e4347" d="M2 32c0 1 .1 2 .1 3h59.7c.1-1 .2-2 .2-3s-.1-2-.2-3H2.1c0 1-.1 2-.1 3"/>
    <path fill="#fff" d="M3.4 41h57.2a29 29 0 0 0 1.2-6H2.2a29 29 0 0 0 1.2 6"/>
    <circle cx="32" cy="32" r="15" fill="#c94747"/>
    <g fill="#699635">
        <path d="M32 21.6l1.4 1.1-.5-1.8 1.4-1.1h-1.7L32 18l-.6 1.8h-1.7l1.4 1.1-.5 1.8zM26.8 23l1.8.2-1.4-1.3.7-1.6-1.5.8-1.4-1.2.4 1.8-1.5.9 1.8.2.4 1.8zM23 26.8l1.6-.7-1.8-.4-.2-1.8-.9 1.5-1.8-.4 1.2 1.4-.8 1.5 1.6-.7 1.3 1.4zM21.6 32l1.1-1.4-1.8.5-1.1-1.4v1.7L18 32l1.8.6v1.7l1.1-1.4 1.8.5zM23 37.2l.2-1.8-1.3 1.4-1.6-.7.8 1.5-1.2 1.4 1.8-.4.9 1.5.2-1.8 1.8-.4zM26.8 41l-.7-1.6-.4 1.8-1.8.2 1.5.9-.4 1.8 1.4-1.2 1.5.8-.7-1.6 1.4-1.3zM32 42.4l-1.4-1.1.5 1.8-1.4 1.1h1.7L32 46l.6-1.8h1.7l-1.4-1.1.5-1.8zM37.2 41l-1.8-.2 1.4 1.3-.7 1.6 1.5-.8 1.4 1.2-.4-1.8 1.5-.9-1.8-.2-.4-1.8zM41 37.2l-1.6.7 1.8.4.2 1.8.9-1.5 1.8.4-1.2-1.4.8-1.5-1.6.7-1.3-1.4zM42.4 32l-1.1 1.4 1.8-.5 1.1 1.4v-1.7L46 32l-1.8-.6v-1.7l-1.1 1.4-1.8-.5zM41 26.8l-.2 1.8 1.3-1.4 1.6.7-.8-1.5 1.2-1.4-1.8.4-.9-1.5-.2 1.8-1.8.4zM37.2 23l.7 1.6.4-1.8 1.8-.2-1.5-.9.4-1.8-1.4 1.2-1.5-.8.7 1.6-1.4 1.3z"/>
    </g>
    <path fill="#ffe62e" d="M36 38h-6.5s1-3.4 6.5 0"/>
    <path fill="#c28fef" d="M31.8 26.2S24.5 34.4 36 38l-4.2-11.8"/>
    <path fill="#699635" d="M31.8 26.2S36 27.2 36 38c0 0-4.2-2.4-4.2-11.8"/>
    <path fill="#ffe62e" d="M29.5 26.4s-1.4.3-1.5 2.2c0 0 1.3-.7 2.6-.7 1.4 0-1.1-1.5-1.1-1.5"/>
    <path fill="#c28fef" d="M29.5 26.4s.9 2.9 4.4 1.6c0 0-1.5-3.1-4.4-1.6"/>
</svg>