<svg xmlns="http://www.w3.org/2000/svg" viewBox="0 0 64 64">
    <title>flag: Falkland Islands</title>
    <path fill="#2a5f9e" d="M11.1 11.3h21.3v21.4H11.1z"/>
    <path fill="#fff" d="M18.6 8.2V14h-7.3l14.4 18h6v-7.5z"/>
    <path fill="#2a5f9e" d="M31.7 2v30h-30c0 16.6 13.4 30 30 30s30-13.4 30-30-13.4-30-30-30"/>
    <path fill="#fff" d="M10.7 18.9h-6c-1.9 4-3 8.4-3 13.1h12V13.9h-3v5"/>
    <path fill="#ed4c5c" d="M31.7 27.1L18.7 11h-6l17 21h2z"/>
    <path fill="#fff" d="M18.6 5v6h-7.9v3h21V2C27 2 22.6 3.1 18.6 5z"/>
    <path fill="#ed4c5c" d="M31.7 5H18.6c-6 3-10.9 7.9-13.9 13.9V32h6V11h21V5z"/>
    <g fill="#89664c">
        <path d="M38.8 35.6c0-.1-.9-.3-1.4-.2-.4.1-1.2 2.2-1.3 2.3l.8 1s.5-.8 1.1-.9c.3 0 .5.2.8.4 0 0-.8 2.9-1.8 3.1h-.5c-.1-.1-.1-1.6-.1-1.6s-.2-.9-1-.8c-.8.1-.8.8-.8 1 0 .2 1.5 3.3 1.8 3.4.5.2 2.1-.5 3-1.6 1-1.1 1.2-4.1 1.2-4.2.1.1-1.8-1.9-1.8-1.9M55.1 40c0-.2 0-.9-.8-1-.8-.1-1 .8-1 .8s0 1.5-.1 1.6h-.5c-1-.2-1.8-3.1-1.8-3.1.2-.3.5-.5.8-.4.5.1 1.1.8 1.1.9 0 0 .8-.9.8-1 0 0-.8-2.2-1.3-2.3-.3-.2-1.3 0-1.3.1l-1.9 2c0 .1.2 3.1 1.2 4.2s2.5 1.7 3 1.6c.4-.1 1.8-3.2 1.8-3.4"/>
    </g>
    <path fill="#dbb471" d="M36.3 37.2c-.4.6-.7 1-.9 1.4-.2.3-.1.8.3 1.4.5.7 4.2 3.5 9.1 3.5 4.9 0 8.6-2.8 9.1-3.5.4-.7.5-1.1.3-1.4s-.4-.8-.9-1.4c0 .9-3.1 4-8.6 4-5.3 0-8.4-3.2-8.4-4"/>
    <path fill="#42ade2" d="M37.2 20.5v13c0 3.9 3.5 7 7.7 7s7.7-3.1 7.7-7v-13H37.2"/>
    <g fill="#fff">
        <path d="M52.6 30s-2.9-2-3.9-2-2.7 2-3.9 2-2.8-2-3.8-2-3.9 2-3.9 2v2s2.9-2 3.9-2 2.7 2 3.9 2 2.9-2 3.9-2 3.9 2 3.9 2v-2zM52.5 34.5s-2.8-2-3.8-2-2.7 2-3.9 2-2.9-2-3.9-2c-.9 0-3.8 2-3.8 2 .1.7.3 1.4.7 2 0 0 2.3-2 3.1-2 1 0 2.7 2 3.9 2 1.1 0 2.9-2 3.9-2 .8 0 3.1 2 3.1 2 .4-.6.6-1.3.7-2M50.1 38.7s-1-2-1.3-2c-1 0-2.7 2-3.9 2-1.1 0-2.9-2-3.9-2-.3 0-1.3 2-1.3 2 1.4 1.1 3.2 1.8 5.2 1.8s3.8-.7 5.2-1.8M42.7 23.4c0 1.1 0 2-2.2 2-1.2 0-2.2-2-2.2-2s1-2 2.2-2c2.2 0 2.2.9 2.2 2"/>
        <path d="M49.3 26.4c0 .6-.5 1-1.1 1h-6.6c-.6 0-1.1-.4-1.1-1v-2c0-.6.5-1 1.1-1h6.6c.6 0 1.1.4 1.1 1v2"/>
        <path d="M41.6 28c0 .2.5.4 1.1.4.6 0 1.1-.2 1.1-.4v-1.2c0-.2-.5-.4-1.1-.4-.6 0-1.1.2-1.1.4V28M46 28c0 .2.5.4 1.1.4.6 0 1.1-.2 1.1-.4v-1.2c0-.2-.5-.4-1.1-.4-.6 0-1.1.2-1.1.4V28"/>
    </g>
    <path fill="#89664c" d="M50.9 35.9v-.4l.2-.4-3.2.4v.7c-.1.1-.2.2-.4.3 0-1.2.1-6.1.1-6.2h-.3l-.1 6.4c-.6.4-1.5.8-2.4.8h-.5c0-1.2.1-7.4.1-7.4h-.3s-.1 6.1-.1 7.4c-1.2-.1-1.7-.4-2-.7-.4-.3-.8-.8-.8-.8v-5.5H41V36l-2-.7.1.7.8.2s.4 3.1 4.6 3c3.6-.1 5-2.3 5.3-3h1.1v-.3"/>
    <g fill="#ed4c5c">
        <path d="M41 30.6c-.1.1-2 .4-1.7.4.3 0 1.7.3 1.7.2v-.6M44.2 30.1c-.1 0-1.1.3-1.1.3s1.2.3 1.2.2-.1-.4-.1-.5M47.4 30.4c-.1 0-1.3.3-1.1.3.2 0 1.1.3 1.1.2s-.1-.5 0-.5"/>
    </g>
    <g fill="#ffe62e">
        <path d="M46.3 32.2s-.4.3-.3.8c.1.5.3.9.3.9s.4-.6.9-.6c.4 0 1.3.3 1.3.3s-.1-.7-.1-1.1c0-.3.7-.9.7-.9l-2.8.6M39.9 32.4s-.3.1-.2.6c.1.5.4.9.4.9s.3-.5.8-.6c.4-.1 1.2.3 1.2.3s-.1-.5 0-.9c.1-.5.5-.8.5-.8s-2.6.5-2.7.5M43.1 31.9c0 .1-.4.5-.3 1 .1.5.3.9.4.9 0 0 .6-.5 1.1-.6.5-.1 1.2.3 1.1.3 0 0-.2-.5-.2-.8s.6-1.4.6-1.4l-2.7.6"/>
    </g>
</svg>