<svg xmlns="http://www.w3.org/2000/svg" viewBox="0 0 64 64">
    <title>flag: Equatorial Guinea</title>
    <path fill="#ed4c5c" d="M60 42c-5.5 0-10-4.5-10-10H10.8v21.2C16.2 58.6 23.7 62 32 62c13.1 0 24.2-8.4 28.3-20H60"/>
    <path fill="#83bf4f" d="M60 22h.3C56.2 10.4 45.1 2 32 2c-8.3 0-15.8 3.4-21.2 8.8V32H50c0-5.5 4.5-10 10-10"/>
    <path fill="#f9f9f9" d="M60.3 22H10.8v20h49.5c1.1-3.1 1.7-6.5 1.7-10s-.6-6.9-1.7-10"/>
    <path fill="#42ade2" d="M10.8 10.8C5.4 16.2 2 23.7 2 32s3.4 15.8 8.8 21.2L21 32 10.8 10.8z"/>
    <g fill="#ffe62e">
        <path d="M33.7 24.1h-.6l-.3.5-.3-.5h-.6l.3-.5-.3-.5h.6l.3-.5.3.5h.6l-.3.5.3.5M31.2 24.3l-.6.1-.2.6-.4-.4-.6.1.2-.6-.4-.4.6-.1.2-.6.4.4.6-.1-.2.6.4.4M28.7 24.8l-.5.3v.6l-.5-.3-.5.3.1-.6-.5-.3.5-.3.1-.6.5.3.5-.3v.6l.3.3M34.4 24.1h.6l.3.5.3-.5h.6l-.3-.5.3-.5h-.6l-.3-.5-.3.5h-.6l.3.5-.3.5M36.9 24.3l.6.1.2.6.4-.4.6.1-.2-.6.4-.4-.6-.1-.2-.6-.4.4-.6-.1.2.6-.4.4M39.3 24.8l.5.3v.6l.5-.3.5.3v-.6l.5-.3-.5-.3v-.6l-.5.3-.5-.3.1.6-.6.3"/>
    </g>
    <path fill="#3e4347" d="M28.9 25.6h10.2v10.7c0 3.6-4.7.8-5.1 2.7-.7-2-5.1.9-5.1-2.9V25.6"/>
    <path fill="#fff" d="M29.3 26.1h9.4v9.8c0 3.3-4.3.8-4.7 2.5-.6-1.8-4.7.8-4.7-2.7v-9.6"/>
    <path fill="#89664c" d="M35.3 30l-.3-.3s-.3.1-.7.5c0-.2 0-.5.1-.7h-.5v.7c-.1-.1-.3-.4-.7-.5l-.1.4c.9.5.5 4.9-.5 6.8H35c-1-3.4-.8-6.3.3-6.9"/>
    <path fill="#83bf4f" d="M35.5 27.8c.2-.2.2-.2.5-.2.1-.4.7-.4.8.1.5-.1.6.2.4.5.5-.1 1 0 .8.6.9.2.6.9.2 1-.1.4-.4.5-.9.4-.6.5-1 .3-1.3-.2-.7.1-.8-.1-1.1-.5-.6.2-.7.2-1.1-.1 0 .4-.2.3-.4.2 0 .5-.2.7-.6.5.3.7-.5 1-.9.4-.4 0-.4-.1-.6-.2-.2.5-.7.5-.9.2-.7-.1-.7-.5-.1-.5.1-.4.4-.3.7-.3 0-.3.2-.2.3-.2-.1-.2 0-.3.2-.3-.3-.5-.1-.6.2-.8-.2-.4.1-.4.4-.4 0-.5.1-.5.6-.6-.1-.2 0-.3.3-.3-.2-.5.1-.6.5-.5.1-.7 1.5-.3 1.4.6.3.2.4.2.6.6"/>
    <path fill="#d3d3d3" d="M41.4 33.5c-.2 1.2-1.5 1.7-1.4 2.5.2.2.6 1.1.6 1.1-.3.4-.5.7-1.6 1.2-1.4.5-3.3.2-3.3.2l.1 1.3h-3.7l.1-1.3s-1.9.3-3.3-.2c-.9-.4-1.4-.9-1.7-1.3l.7-1c.2-.8-1.2-1.3-1.4-2.5-.1 2-1.1 2.7.2 3.3-.1.3-.2.7-.3.9.5 2.4 4.9 2.5 4.9 2.5v.5c0 .9 5.5.9 5.5 0v-.5s4.4-.1 4.9-2.5c-.2-.4-.3-.9-.3-.9 1.1-.6.1-1.3 0-3.3"/>
</svg>