<svg xmlns="http://www.w3.org/2000/svg" viewBox="0 0 64 64">
    <title>flag: Egypt</title>
    <path fill="#ed4c5c" d="M32 2C18.9 2 7.8 10.4 3.7 22h56.6C56.2 10.4 45.1 2 32 2z"/>
    <path fill="#3e4347" d="M32 62c13.1 0 24.2-8.3 28.3-20H3.7C7.8 53.7 18.9 62 32 62z"/>
    <path fill="#f9f9f9" d="M3.7 22C2.6 25.1 2 28.5 2 32s.6 6.9 1.7 10h56.6c1.1-3.1 1.7-6.5 1.7-10s-.6-6.9-1.7-10H3.7z"/>
    <g fill="#fff">
        <path d="M30.6 25.1c.3-.2.5 0 .7.2.1.2.1.8-.1 1.5-.1.4-.4.8-.6 1.1.4 0 .9-.1 1.4-.3.5.2.9.3 1.4.3-.2-.4-.4-1.2-.3-1.8 0-.9-.1-1.2-.3-1.4-.2-.2-.7-.3-1-.3-.2 0-.2.1-.2.1-.4-.1-.7-.1-.9 0-.2.2-.2.7-.1.6"/>
        <path d="M37.3 28.1c-.2-1.1-1.3-.8-2.2-.3-.4.2-.8.4-1.2.4h-.3c-.5 0-1.1-.1-1.6-.3-.5.2-1.1.3-1.6.3h-.2c-.5 0-.9-.2-1.3-.5-.8-.4-1.9-.7-2.2.3.2-.1.4-.3.5-.3l-.4 9.6.2-.2.4-9.3c.1.1.5.5.6.5l-.3 8.1.3-.3.3-7.7c.1.1.4.3.5.4l-.3 6.7.8-.7.8-2.7c-.7-1.5-.6-2.8-.6-2.8h.2c.5 0 1.6-.3 2.1-.6.1 0 .1-.1.2-.1 0 .1.1.1.2.2.5.3 1.6.6 2.1.6h.2s.1 1.3-.6 2.8l.7 2.6.8.7-.3-6.6c.1-.1.3-.3.5-.4l.3 7.5.3.3-.3-8c.1-.1.5-.4.6-.5l.4 9.2.2.2-.4-9.5c.1.1.4.3.6.4"/>
        <path d="M31.1 29.7v3.9s0 .1.1.1c.1.2.3.3.4.5l.3.3.3-.3.5-.5v-3.8c-.3-.1-.6-.2-.8-.4-.1-.1-.4 0-.8.2"/>
    </g>
    <path fill="#c09300" d="M36.3 37.9c0-.5-.5-.5-.9-.4-.1 0-.1 0-.2.1l-.6-2.2 3.3 3.2-.4-10.4c-.1-1.6-1.4-1.2-2.3-.6-.5.3-.9.5-1.4.5-.7-1.2-.3-2.8-.8-3.2-.2-.2-.9-.5-1.4-.5-.3 0-.2.2-.2.2-.5-.1-.9-.1-1.1.1-.2.1 0 1.1.1.9.3-.3.4-.2.6.1.2.3-.2 1.5-.7 2.4-.6 0-1.1-.2-1.6-.5-1-.6-2.3-.9-2.3.6L26 38.5l3.3-3.1-.6 2.1c-.1 0-.1 0-.2-.1-.4-.1-.9-.1-.9.4-.6-.1-.8.8-.2 1 0 .3 0 .5.4.5.9.3 2.5.4 4.1.4s3.2-.1 4.1-.4c.4-.1.4-.3.4-.5.8-.2.5-1.1-.1-.9m-5.1-4.3c0-.1 0-.1 0 0l-.1-.1v-3.8c.4-.1.7-.2.9-.4.2.2.5.3.8.4V33.5c-.2.2-.3.4-.5.5l-.3.3-.3-.3c-.2-.1-.3-.3-.5-.4m0-6.7c.2-.7.2-1.3.1-1.5-.2-.2-.4-.4-.7-.2-.1.1-.1-.4.1-.5.2-.1.5-.1.9 0 0 0 0-.2.2-.1.3 0 .9.2 1 .3.1.1.3.5.3 1.4 0 .6.1 1.4.3 1.8-.4 0-.9-.1-1.4-.3-.5.2-.9.3-1.4.3.2-.4.5-.8.6-1.2m-2.6 8.9l.3-6.7c-.1-.1-.3-.3-.5-.4l-.4 7.6-.3.3.3-8.1c-.1-.1-.5-.4-.6-.5l-.4 9.3-.2.2.4-9.6c-.1 0-.4.1-.5.3.3-1 1.4-.7 2.2-.2.4.3.9.4 1.3.5h.2c.5 0 1-.1 1.6-.3.6.2 1.1.3 1.6.3h.3c.4-.1.8-.2 1.2-.4.9-.5 2-.8 2.2.3-.2-.1-.5-.3-.6-.3l.4 9.5-.2-.2-.4-9.4c-.1.1-.5.5-.6.5l.3 8-.3-.3-.3-7.5c-.1.1-.4.3-.5.4l.3 6.6-.8-.7-.7-2.6c.7-1.5.6-2.8.6-2.8h-.2c-.5 0-1.6-.2-2.1-.6-.1 0-.1-.1-.2-.2 0 0-.1.1-.2.1-.5.3-1.6.6-2.1.6h-.2s-.1 1.3.6 2.8l-.8 2.7-.7.8m3.4 2h-1.1l.7-3.4c.1.1.2.2.4.3.1-.1.3-.2.4-.3l.8 3.4H32"/>
</svg>