<svg xmlns="http://www.w3.org/2000/svg" viewBox="0 0 64 64">
    <title>flag: China</title>
    <circle cx="32" cy="32" r="30" fill="#ed4c5c"/>
    <g fill="#ffe62e">
        <path d="M22 28.4l8 5.6-3-9.2 8-5.8h-9.9L22 10l-3 9H9l8 5.8-3 9.2zM35.3 35.3l-2.3.5 2.2.9V39l1.5-1.7 2.2.8-1.3-1.9 1.4-1.8-2.3.5-1.4-1.9zM38.7 28.5L37 30l2.3-.2 1 2.2.4-2.3 2.3-.2-2-1.2.5-2.3-1.7 1.5-2-1.2zM39.3 20.7L40 23l.7-2.2H43l-1.8-1.4.7-2.3-1.9 1.4-1.8-1.5.7 2.3-1.9 1.3zM35.3 12.7V15l1.4-1.9 2.3.5-1.4-1.8 1.3-1.9-2.2.9L35.2 9v2.3l-2.2.9z"/>
    </g>
</svg>