<svg xmlns="http://www.w3.org/2000/svg" viewBox="0 0 64 64">
    <title>flag: Costa Rica</title>
    <g fill="#2a5f9e">
        <path d="M52.4 10C47 5 39.9 2 32 2c-7.9 0-15 3-20.4 8h40.8zM11.6 54c5.4 5 12.5 8 20.4 8 7.9 0 15-3 20.4-8H11.6"/>
    </g>
    <path fill="#c94747" d="M2 32c0 4.3.9 8.3 2.5 12h55c1.6-3.7 2.5-7.7 2.5-12s-.9-8.3-2.5-12h-55C2.9 23.7 2 27.7 2 32"/>
    <g fill="#f9f9f9">
        <path d="M11.6 54h40.7c3-2.8 5.5-6.2 7.1-10h-55c1.8 3.8 4.2 7.2 7.2 10M52.4 10H11.6c-3 2.8-5.5 6.2-7.1 10h55c-1.7-3.8-4.1-7.2-7.1-10"/>
    </g>
</svg>