<svg xmlns="http://www.w3.org/2000/svg" viewBox="0 0 64 64">
    <title>flag: Croatia</title>
    <path fill="#ed4c5c" d="M32 2C18.9 2 7.8 10.4 3.7 22h56.6C56.2 10.4 45.1 2 32 2z"/>
    <path fill="#428bc1" d="M32 62c13.1 0 24.2-8.3 28.3-20H3.7C7.8 53.7 18.9 62 32 62z"/>
    <path fill="#f9f9f9" d="M3.7 22C2.6 25.1 2 28.5 2 32s.6 6.9 1.7 10h56.6c1.1-3.1 1.7-6.5 1.7-10s-.6-6.9-1.7-10H3.7z"/>
    <path fill="#fff" d="M42.9 25.2l2.6-6-2-3.2-3.3 1.2-2.3-2.7-3.1 1.8L32 14l-2.8 2.3-3.1-1.8-2.3 2.7-3.3-1.2-2 3.3 2.6 6c3.3-1.5 7-2.3 10.9-2.3 3.9-.2 7.6.7 10.9 2.2"/>
    <path fill="#428bc1" d="M34.7 16.5L32 14.3l-2.7 2.2.5 6.2c.7-.1 1.5-.1 2.2-.1.7 0 1.5 0 2.2.1l.5-6.2"/>
    <path fill="#ed4c5c" d="M32 50c6.2 0 11.3-5.1 11.3-11.3V25.3H20.7v13.4C20.7 44.9 25.8 50 32 50"/>
    <path fill="#fff" d="M32 49.8c6.1 0 11.1-5 11.1-11.1V25.5H20.9v13.2c0 6.1 5 11.1 11.1 11.1"/>
    <g fill="#ed4c5c">
        <path d="M25.6 25.9h-4.3v4.7h4.3v-4.7M25.6 35.3h4.3v-4.7h-4.3v4.7M21.3 38.7c0 .4 0 .8.1 1.3h4.2v-4.7h-4.3v3.4M34.1 35.3h-4.3V40h4.3v-4.7M34.1 44.7h4.3V40h-4.3v4.7M38.4 47.2c.9-.7 1.8-1.6 2.4-2.6h-2.4v2.6M25.6 44.7h4.3V40h-4.3v4.7M23.2 44.7c.7 1 1.5 1.8 2.4 2.6v-2.6h-2.4"/>
        <path d="M32.7 49.3c.5 0 .9-.1 1.4-.2v-4.5h-4.3v4.5c.5.1.9.2 1.4.2.5.1 1 .1 1.5 0M42.6 40c0-.4.1-.8.1-1.3v-3.4h-4.3V40h4.2M34.1 35.3h4.3v-4.7h-4.3v4.7M34.1 25.9h-4.3v4.7h4.3v-4.7"/>
        <path d="M42.6 30.6v-4.7h-4.3v4.7h4.3"/>
    </g>
    <path fill="#428bc1" d="M23.9 17.4l-3.3-1.2-1.9 3 .7 1.6 1.8 4.1c1.3-.6 2.7-1.1 4.2-1.4l-1.5-6.1"/>
    <path fill="#fff" d="M23.7 20.4c.1.2.2.5.2.8 0 .9-.7 1.6-1.6 1.6-.8 0-1.4-.6-1.6-1.3.3.5.8.8 1.4.8.9 0 1.6-.7 1.6-1.6v-.3"/>
    <path fill="#ffe62e" d="M22.2 18.1v.1l-.1.6.5.3v.1h-.1l-.5.2-.1.5v.1l-.1-.1-.4-.3-.6.2v-.1l.1-.5-.4-.4v-.1l.6-.2.1-.5v-.1.1l.4.3.6-.1z"/>
    <path fill="#2a5f9e" d="M29.3 16.5l-3.1-1.7-2.3 2.6 1.5 6c1.4-.4 2.9-.6 4.4-.7l-.5-6.2"/>
    <g fill="#ed4c5c">
        <path d="M25 21.9c1.5-.4 3-.6 4.6-.8l-.1-1.6c-1.7.1-3.3.4-4.9.8l.4 1.6M24.3 18.9c1.7-.4 3.4-.7 5.1-.9l-.1-1.5c-1.8.2-3.6.5-5.4.9l.4 1.5"/>
    </g>
    <g fill="#ffe62e">
        <path d="M32 19.3c-.2 0-.5.7-.9.2 0 0 .3.4.3.6l-.3-.1c0 2.1 1.9 2 1.9 0l-.3.1c0-.1.3-.6.3-.6-.5.5-.7-.1-1-.2M33.2 16.4c-.2 0-.5.7-.9.2 0 0 .3.4.3.6l-.3-.1c0 2.1 1.9 2 1.9 0l-.3.1c0-.1.3-.6.3-.6-.4.5-.7-.2-1-.2M30.7 16.4c-.2 0-.5.7-.9.2 0 0 .3.4.3.6l-.3-.1c0 2.1 1.9 2 1.9 0l-.3.1c0-.1.3-.6.3-.6-.4.5-.7-.2-1-.2"/>
    </g>
    <path fill="#2a5f9e" d="M40.1 17.4l-2.3-2.7-3.1 1.8-.5 6.2c1.5.1 3 .4 4.4.7l1.5-6"/>
    <path fill="#ffe62e" d="M35.3 17.8h.3c.2.1.2 0 .3-.1.2-.1.8-.2 1.4.1.1.1.7.1.7.1s-.5.2-1 0c.2.1.3.3.5.4.1 0 .8.2.8.2s-.6.3-1 0c-.3-.3-.6-.6-1.1-.5l.3.1c-.1.1-.4.2-.5.1 0 .3 1 1.3 2.2 1 .5-.2.2.2.1.4-.1.1-.5 2.3-1.6 1.8 0 0 .6-.2.6-.6l-.2-.2c-.4 0-.7 1.2-1.2.6 0 0 .6-.3.5-.8H36c-.3.1-.2 1.2-.8.9 0 0 .7-1 .3-1-.1.2-.3.4-.3.6.2.2-.5.2-.4 0 0-.1.5-.6.4-1.1-.2-.1 0-1 .1-1.2-.6 0-.2-.2-.1-.6.2 0 .1 0 .1-.2"/>
    <path fill="#428bc1" d="M42.8 24.9l2.5-5.7-1.9-3-3.3 1.2-1.5 6c1.4.4 2.8.9 4.2 1.5"/>
    <path fill="#fff" d="M39.6 19.6c1.7.4 3.3 1 4.8 1.7l-1 2.2c-1.4-.6-2.9-1.1-4.4-1.5l.6-2.4"/>
    <path fill="#ed4c5c" d="M43.5 23.1l.6-1.5c-1.5-.7-3.1-1.2-4.7-1.6l-.4 1.5c1.6.4 3.1.9 4.5 1.6"/>
    <path fill="#ffe62e" d="M42 17.4l.1.6-.4.4.6.2.1.6.5-.4.6.2-.1-.6.4-.4-.6-.2-.1-.6-.4.4-.7-.2"/>
</svg>