<svg xmlns="http://www.w3.org/2000/svg" viewBox="0 0 64 64">
    <title>flag: Mauritania</title>
    <circle cx="32" cy="32" r="30" fill="#699635"/>
    <g fill="#ffce31">
        <path d="M47.7 28.8c-1.5 7.3-7.9 12.8-15.7 12.8s-14.2-5.5-15.7-12.8c-.2 1-.3 2.1-.3 3.2 0 8.8 7.2 16 16 16s16-7.2 16-16c0-1.1-.1-2.2-.3-3.2"/>
        <path d="M26.6 32l5.4-3.8 5.4 3.8-2-6.1 5.4-3.9h-6.7L32 16l-2 6h-6.8l5.4 3.9z"/>
    </g>
    <g fill="#ed4c5c">
        <path d="M14 8h36c-5-3.8-11.2-6-18-6S19 4.2 14 8M32 62c6.8 0 13-2.2 18-6H14c5 3.8 11.2 6 18 6"/>
    </g>
</svg>