<svg xmlns="http://www.w3.org/2000/svg" viewBox="0 0 64 64">
    <title>flag: Namibia</title>
    <path fill="#2a5f9e" d="M17 6C6.3 12.2.9 23.9 2.2 35.3L49.8 7.9C40.5 1 27.6-.1 17 6m8.5 11.4l-3.2-.9.9 3.2-2.2-2.4-.8 3.2-.8-3.2-2.3 2.4.9-3.2-3.2.9 2.4-2.3-3.2-.8 3.2-.8-2.4-2.3 3.2.9-.9-3.2 2.3 2.4.8-3.2.8 3.2 2.3-2.4-.9 3.2 3.2-.9-2.4 2.3 3.2.8-3.2.8 2.3 2.3"/>
    <path fill="#83bf4f" d="M14.2 56.1c9.3 6.9 22.2 8 32.8 1.8 10.7-6.2 16.1-17.8 14.8-29.3L14.2 56.1"/>
    <path fill="#ed4c5c" d="M58 17c-1.4-2.4-3.1-4.5-5-6.4L3 39.5c.7 2.6 1.7 5.1 3 7.5 1.4 2.4 3.1 4.5 5 6.4l50-28.9c-.6-2.6-1.6-5.1-3-7.5"/>
    <g fill="#fff">
        <path d="M61.5 26.5c-.1-.7-.3-1.4-.5-2L11 53.4c.5.5 1 1 1.5 1.4.5.5 1.1.9 1.7 1.3l47.6-27.5-.3-2.1M51.5 9.2c-.5-.5-1.1-.9-1.7-1.3L2.2 35.3l.3 2.1c.1.7.3 1.4.5 2l50-28.8c-.5-.5-1-1-1.5-1.4"/>
    </g>
    <path fill="#ffce31" d="M23.2 13.5l2.3-2.3-3.1.9.9-3.1-2.3 2.3-.8-3.2-.8 3.2L17.1 9l.9 3.1-3.2-.9 2.4 2.3-3.2.8 3.2.8-2.4 2.3 3.2-.9-.9 3.2 2.3-2.4.8 3.2.8-3.2 2.3 2.4-.9-3.2 3.1.9-2.3-2.3 3.2-.8z"/>
</svg>