<svg xmlns="http://www.w3.org/2000/svg" viewBox="0 0 64 64">
    <title>flag: Panama</title>
    <path fill="#ed4c5c" d="M32 2v30h30C62 15.4 48.6 2 32 2"/>
    <path fill="#2a5f9e" d="M32 62V32H2c0 16.6 13.4 30 30 30z"/>
    <g fill="#f9f9f9">
        <path d="M32 62V32h30c0 16.6-13.4 30-30 30M32 2v30H2C2 15.4 15.4 2 32 2z"/>
    </g>
    <path fill="#2a5f9e" d="M17 20.7l3.1 2.3-1.2-3.8 3.1-2.4h-3.8L17 13l-1.2 3.8H12l3.1 2.4-1.2 3.8z"/>
    <path fill="#ed4c5c" d="M47 46.7l3.1 2.3-1.2-3.8 3.1-2.4h-3.8L47 39l-1.2 3.8H42l3.1 2.4-1.2 3.8z"/>
</svg>