<svg xmlns="http://www.w3.org/2000/svg" viewBox="0 0 64 64">
    <title>flag: Martinique</title>
    <path fill="#2a5f9e" d="M38 2.6H26C14.3 5 5 14.2 2.6 26v12C5 49.8 14.3 59 26 61.4h12C49.8 59 59 49.7 61.4 38V26C59 14.2 49.7 5 38 2.6z"/>
    <g fill="#fff">
        <path d="M38 26V2.6c-1.9-.4-3.9-.6-6-.6s-4.1.2-6 .6V26H2.6c-.4 1.9-.6 3.9-.6 6s.2 4.1.6 6H26v23.4c1.9.4 3.9.6 6 .6s4.1-.2 6-.6V38h23.4c.4-1.9.6-3.9.6-6s-.2-4.1-.6-6H38"/>
        <path d="M15.6 9.8c-.4.2-.7.5-.7.7 0 .2.2.2-.1.3-.3.1-1 .3-1.6.2-.2 0-.6-.1-.7-.1-.1 0 .6.3.3.3-.4-.1-.6-.2-.3.1.2.2.7.2 1.4.1.3 0 1-.2 1.2-.2.2 0 .2.2.3.2.9.1 2.5 0 3.2-.1.6-.1.8-.1 1 .2.3.4 0 .8-1 1.1-1.2.3-1.6.5-2.1 1.1-1.1 1.3.2 2.9 2.5 3.1 1.4.1 2.3.4 2.1.7-.1.1-1 .2-2 .3-2.3.2-3.3.6-4.1 1.5-.5.5-.6.9-.6 1.3 0 .6 0 .6-.9.6-.5 0-1.1-.1-1.4-.2-.5-.1-.5-.1-.4.1.3.5 1.3.9 2.1.9.6 0 .9.1 1.5.6 1.1.9 2.3 1.2 4.3 1.2 2.6 0 4.1-.8 4.1-2.2 0-1-1-1.6-3.1-1.8-1-.1-3.1.1-4 .4-.2.1 0-.1.4-.3.5-.3 1.3-.5 2.4-.6 2.4-.2 3.5-.8 3.5-2 0-1.1-1.1-1.7-3.3-2-2.2-.2-2.4-.7-.5-1.4 1.3-.5 2-1.1 2-2.1 0-1.4-.7-1.9-2.9-2-1.6-.4-2-.4-2.6 0m1.2.4c0 .1-.2.2-.3.2-.1 0-.1-.1-.1-.2s.2-.2.3-.2c.2 0 .2.1.1.2m4.8 10.7c.3.1.4.3.3.4-.3.3-2.1.6-3.2.5-1.2-.1-2.5-.6-2.2-.8 1.2-.5 4.1-.6 5.1-.1M44.6 9.8c-.4.2-.7.5-.7.7 0 .2.2.2-.1.3-.3.1-1 .3-1.6.2-.2 0-.6-.1-.7-.1-.1 0 .6.3.3.3-.4-.1-.6-.2-.3.1.2.2.7.2 1.4.1.3 0 1-.2 1.2-.2.2 0 .2.2.3.2.9.1 2.5 0 3.2-.1.6-.1.8-.1 1 .2.3.4 0 .8-1 1.1-1.2.3-1.6.5-2.1 1.1-1.1 1.3.2 2.9 2.5 3.1 1.4.1 2.3.4 2.1.7-.1.1-1 .2-2 .3-2.3.2-3.3.6-4.1 1.5-.5.5-.6.9-.6 1.3 0 .6 0 .6-.9.6-.5 0-1.1-.1-1.4-.2-.5-.1-.5-.1-.4.1.3.5 1.3.9 2.1.9.6 0 .9.1 1.5.6 1.1.9 2.3 1.2 4.3 1.2 2.6 0 4.1-.8 4.1-2.2 0-1-1-1.6-3.1-1.8-1-.1-3.1.1-4 .4-.2.1 0-.1.4-.3.5-.3 1.3-.5 2.4-.6 2.4-.2 3.5-.8 3.5-2 0-1.1-1.1-1.7-3.3-2-2.2-.2-2.4-.7-.5-1.4 1.3-.5 2-1.1 2-2.1 0-1.4-.7-1.9-2.9-2-1.7-.4-2-.4-2.6 0m1.2.4c-.1.1-.2.2-.3.2-.1 0-.1-.1-.1-.2.1-.1.2-.2.3-.2.1 0 .1.1.1.2m4.7 10.7c.3.1.4.3.3.4-.3.3-2.1.6-3.2.5-1.2-.1-2.5-.6-2.2-.8 1.2-.5 4.1-.6 5.1-.1M15.6 40.3c-.4.2-.7.5-.7.7 0 .2.2.2-.1.3-.3.1-1 .3-1.6.2-.2 0-.6-.1-.7-.1-.1 0 .6.3.3.3-.4-.1-.6-.2-.3.1.2.2.7.2 1.4.1.3 0 1-.2 1.2-.2.2 0 .2.2.3.2.9.1 2.5 0 3.2-.1.6-.1.8-.1 1 .2.3.4 0 .8-1 1.1-1.2.3-1.6.5-2.1 1.1-1.1 1.3.2 2.9 2.5 3.1 1.4.1 2.3.4 2.1.7-.1.1-1 .2-2 .3-2.3.2-3.3.6-4.1 1.5-.5.5-.6.9-.6 1.3 0 .6 0 .6-.9.6-.5 0-1.1-.1-1.4-.2-.5-.1-.5-.1-.4.1.3.5 1.3.9 2.1.9.6 0 .9.1 1.5.6 1.1.9 2.3 1.2 4.3 1.2 2.6 0 4.1-.8 4.1-2.2 0-1-1-1.6-3.1-1.8-1-.1-3.1.1-4 .4-.2.1 0-.1.4-.3.5-.3 1.3-.5 2.4-.6 2.4-.2 3.5-.8 3.5-2 0-1.1-1.1-1.7-3.3-2-2.2-.2-2.4-.7-.5-1.4 1.3-.5 2-1.1 2-2.1 0-1.4-.7-1.9-2.9-2-1.6-.4-2-.4-2.6 0m1.2.4c0 .1-.2.2-.3.2-.1 0-.1-.1-.1-.2s.2-.2.3-.2c.2 0 .2 0 .1.2m4.8 10.7c.3.1.4.3.3.4-.3.3-2.1.6-3.2.5-1.2-.1-2.5-.6-2.2-.8 1.2-.5 4.1-.6 5.1-.1M44.6 40.3c-.4.2-.7.5-.7.7 0 .2.2.2-.1.3-.3.1-1 .3-1.6.2-.2 0-.6-.1-.7-.1-.1 0 .6.3.3.3-.4-.1-.6-.2-.3.1.2.2.7.2 1.4.1.3 0 1-.2 1.2-.2.2 0 .2.2.3.2.9.1 2.5 0 3.2-.1.6-.1.8-.1 1 .2.3.4 0 .8-1 1.1-1.2.3-1.6.5-2.1 1.1-1.1 1.3.2 2.9 2.5 3.1 1.4.1 2.3.4 2.1.7-.1.1-1 .2-2 .3-2.3.2-3.3.6-4.1 1.5-.5.5-.6.9-.6 1.3 0 .6 0 .6-.9.6-.5 0-1.1-.1-1.4-.2-.5-.1-.5-.1-.4.1.3.5 1.3.9 2.1.9.6 0 .9.1 1.5.6 1.1.9 2.3 1.2 4.3 1.2 2.6 0 4.1-.8 4.1-2.2 0-1-1-1.6-3.1-1.8-1-.1-3.1.1-4 .4-.2.1 0-.1.4-.3.5-.3 1.3-.5 2.4-.6 2.4-.2 3.5-.8 3.5-2 0-1.1-1.1-1.7-3.3-2-2.2-.2-2.4-.7-.5-1.4 1.3-.5 2-1.1 2-2.1 0-1.4-.7-1.9-2.9-2-1.7-.4-2-.4-2.6 0m1.2.4c-.1.1-.2.2-.3.2-.1 0-.1-.1-.1-.2.1-.1.2-.2.3-.2.1 0 .1 0 .1.2m4.7 10.7c.3.1.4.3.3.4-.3.3-2.1.6-3.2.5-1.2-.1-2.5-.6-2.2-.8 1.2-.5 4.1-.6 5.1-.1"/>
    </g>
</svg>