<svg xmlns="http://www.w3.org/2000/svg" viewBox="0 0 64 64">
    <title>flag: Liechtenstein</title>
    <path fill="#ed4c5c" d="M32 62c16.6 0 30-13.4 30-30H2c0 16.6 13.4 30 30 30z"/>
    <path fill="#2a5f9e" d="M32 2C15.4 2 2 15.4 2 32h60C62 15.4 48.6 2 32 2z"/>
    <path fill="#ffce31" d="M28.7 20.9c0-2.8-.7-5.2-5.2-5.2-1.2 0-2 .3-2.8.5-.2-.3-3.2-.3-3.4 0-.8-.2-1.6-.4-2.7-.4-5.3 0-5.1 2.3-5.1 5.1 0 .4-.4 1.3-.4 1.3L11 29h16.1l1.9-6.8s-.3-.8-.3-1.3"/>
    <g fill="#3e4347">
        <ellipse cx="19" cy="29" rx="8" ry="1"/>
        <path d="M25.7 25h-1.1c0-1.3-.7-2.4-1.5-2.4s-1.5 1.1-1.5 2.4h-1.1c0-1.3-.7-2.4-1.5-2.4s-1.5 1.1-1.5 2.4h-1.1c0-1.3-.7-2.4-1.5-2.4s-1.5 1.1-1.5 2.4h-1.1c0-4-3.3-2.8-3.3-2.8.5-.8 1.1-1.2 1.8-1.2.8 0 1.6.6 2 1.6.5-1 1.2-1.6 2-1.6s1.6.6 2 1.6c.5-.9 1.2-1.6 2-1.6s1.6.6 2 1.6c.5-.9 1.2-1.6 2-1.6s1.6.6 2 1.6c.5-1 1.2-1.6 2-1.6.7 0 1.3.4 1.8 1.2.4 0-2.9-1.2-2.9 2.8"/>
    </g>
    <g fill="#ffce31">
        <ellipse cx="16.8" cy="15.9" rx=".5" ry=".5"/>
        <ellipse cx="15.6" cy="15.6" rx=".5" ry=".5"/>
        <ellipse cx="14.4" cy="15.4" rx=".5" ry=".5"/>
        <ellipse cx="13.2" cy="15.2" rx=".5" ry=".5"/>
        <ellipse cx="12" cy="15.3" rx=".5" ry=".5"/>
        <ellipse cx="10.9" cy="15.7" rx=".5" ry=".5"/>
        <ellipse cx="10" cy="16.4" rx=".5" ry=".5"/>
        <ellipse cx="9.3" cy="17.4" rx=".5" ry=".5"/>
        <ellipse cx="9" cy="18.6" rx=".5" ry=".5"/>
        <ellipse cx="9" cy="19.8" rx=".5" ry=".5"/>
        <ellipse cx="9.2" cy="20.9" rx=".5" ry=".5"/>
        <ellipse cx="21.2" cy="15.9" rx=".5" ry=".5"/>
        <ellipse cx="22.4" cy="15.6" rx=".5" ry=".5"/>
        <ellipse cx="23.6" cy="15.4" rx=".5" ry=".5"/>
        <ellipse cx="24.8" cy="15.2" rx=".5" ry=".5"/>
        <ellipse cx="26" cy="15.3" rx=".5" ry=".5"/>
        <ellipse cx="27.1" cy="15.7" rx=".5" ry=".5"/>
        <ellipse cx="28" cy="16.4" rx=".5" ry=".5"/>
        <ellipse cx="28.7" cy="17.4" rx=".5" ry=".5"/>
        <ellipse cx="29" cy="18.6" rx=".5" ry=".5"/>
        <ellipse cx="29" cy="19.8" rx=".5" ry=".5"/>
        <ellipse cx="28.8" cy="20.9" rx=".5" ry=".5"/>
        <path d="M18.3 11.2c.1.3.3.5.5.5l-.8 1.4.3.5c-.6.2-1 .7-1.1 1.2 0 .2-.1.3-.1.5 0 1 .8 1.8 1.8 1.8s1.8-.8 1.8-1.8c0-.2 0-.3-.1-.5-.2-.6-.6-1-1.1-1.2l.3-.5-.8-1.4c.3-.1.5-.2.5-.5l1.1.7L22 11l-1.4-.9-1.1.7c-.1-.2-.3-.4-.5-.5l.8-1.5-.8-1.6-.9 1.7.8 1.5c-.3 0-.5.2-.5.5l-1.1-.7-1.5.8 1.4.9 1.1-.7"/>
    </g>
    <g fill="#3e4347">
        <path d="M15.5 20.7c-.5.5-1.1.8-1.7.9.9.2 2 0 2.7-.7 1.1-1.1 1.1-3 0-4.1-.1-.1-.3-.2-.4-.3.7 1.4.5 3.1-.6 4.2M22.5 20.7c.5.5 1.1.8 1.7.9-.9.2-2 0-2.7-.7-1.1-1.1-1.1-3 0-4.1.1-.1.3-.2.4-.3-.7 1.4-.5 3.1.6 4.2"/>
        <ellipse cx="15" cy="25.5" rx=".4" ry="1.6" transform="rotate(-7.36 15.009 25.527)"/>
        <ellipse cx="11.2" cy="25.7" rx=".4" ry="1.6" transform="rotate(-16.116 11.231 25.745)"/>
        <ellipse cx="23" cy="25.5" rx="1.6" ry=".4" transform="rotate(-82.64 22.992 25.525)"/>
        <ellipse cx="26.8" cy="25.7" rx="1.6" ry=".4" transform="rotate(-73.883 26.768 25.745)"/>
        <ellipse cx="19" cy="25.4" rx=".4" ry="1.7"/>
        <circle cx="19" cy="20" r="1.1"/>
        <circle cx="19" cy="18" r="1"/>
        <circle cx="19" cy="16.4" r=".8"/>
    </g>
</svg>