<svg xmlns="http://www.w3.org/2000/svg" viewBox="0 0 64 64">
    <title>flag: North Macedonia</title>
    <path fill="#ed4c5c" d="M45.6 33l16.3 1.1c0-.7.1-1.4.1-2.1 0-5.4-1.4-10.4-3.9-14.8l-14.3 8.1-2.6-3.3 11-12.1C48 6 42.6 3.3 36.7 2.4l-2.6 16.2H30L27.3 2.4C21.4 3.3 16 6 11.7 9.9l11 12.1-2.6 3.2-14.2-8C3.4 21.6 2 26.6 2 32c0 .7 0 1.4.1 2.1L18.4 33l.9 4-15.1 6.2c2.2 5.5 6 10.2 10.8 13.5l9.3-13.4L28 45l-4.7 15.7c2.8.9 5.7 1.3 8.7 1.3 3 0 5.9-.4 8.7-1.3L36 45l3.7-1.8L49 56.7c4.8-3.3 8.6-8 10.8-13.5L44.7 37l.9-4"/>
    <g fill="#ffce31">
        <path d="M34.1 18.6l2.6-16.2C35.1 2.1 33.6 2 32 2s-3.1.1-4.7.4l2.6 16.2h4.2M43.8 25.2l14.3-8.1c-1.6-2.7-3.5-5.2-5.8-7.3L41.2 22l2.6 3.2M45.6 33l-.9 4 15.2 6.1c1.1-2.8 1.9-5.9 2.1-9.1l-16.4-1M36 45l4.7 15.7c3-.9 5.8-2.3 8.4-4l-9.3-13.4L36 45M24.3 43.2L15 56.7c2.5 1.8 5.4 3.1 8.4 4L28 45l-3.7-1.8zM18.4 33L2.1 34.1c.2 3.2.9 6.2 2.1 9.1L19.3 37l-.9-4M22.8 22l-11-12.1C9.5 12 7.5 14.5 6 17.2l14.3 8.1 2.5-3.3"/>
        <circle cx="32" cy="32" r="9"/>
    </g>
</svg>