<svg xmlns="http://www.w3.org/2000/svg" viewBox="0 0 64 64">
    <title>flag: Samoa</title>
    <path fill="#ed4c5c" d="M32 2v30H2c0 16.6 13.4 30 30 30s30-13.4 30-30S48.6 2 32 2z"/>
    <path fill="#2a5f9e" d="M32 2C15.4 2 2 15.4 2 32h30V2z"/>
    <g fill="#fff">
        <path d="M19 13.1l1.2.9-.4-1.5 1.2-1h-1.5L19 10l-.5 1.5H17l1.2 1-.4 1.5zM19 27.1l1.2.9-.4-1.5 1.2-1h-1.5L19 24l-.5 1.5H17l1.2 1-.4 1.5zM14 18.1l1.2.9-.4-1.5 1.2-1h-1.5L14 15l-.5 1.5H12l1.2 1-.4 1.5zM24 18.1l1.2.9-.4-1.5 1.2-1h-1.5L24 15l-.5 1.5H22l1.2 1-.4 1.5zM22 22.5l.6.5-.2-.8.6-.4h-.8L22 21l-.2.8H21l.6.4-.2.8z"/>
    </g>
</svg>