<svg xmlns="http://www.w3.org/2000/svg" viewBox="0 0 64 64">
    <title>flag: Oman</title>
    <path fill="#f9f9f9" d="M32 2c-3.5 0-6.9.6-10 1.7V22h38.3C56.2 10.4 45.1 2 32 2z"/>
    <path fill="#ed4c5c" d="M60.3 22H22V3.7C10.4 7.8 2 18.9 2 32s8.4 24.2 20 28.3V42h38.3c1.1-3.1 1.7-6.5 1.7-10s-.6-6.9-1.7-10z"/>
    <path fill="#699635" d="M22 42v18.3c3.1 1.1 6.5 1.7 10 1.7 13.1 0 24.2-8.3 28.3-20H22z"/>
    <path fill="#fff" d="M19.1 22.4l-.2.1-1.6-1.4-1.8-2c.1-.2.1-.7 0-1l.3-.3h.3c.1.2.3.4.6.4s.5-.1.6-.4h.4v.5h2.7v-1.5h-2.7v.5h-.4c-.1-.2-.3-.4-.5-.4l.1-.1 2.2-4.5-.3-.3-3.1 4.2.2.2-.2.4h-.5l-.1-.2h.4v-.3l-.3-.1v-.6h.4l.1-.3-.8-.2v-2l.6-.7-1-.7-1 .7.6.7v2l-.8.2.1.3h.4v.6l-.3.1v.3h.4l-.1.2h-.5l-.2-.4.2-.2-3.1-4.2-.2.1 2.2 4.5.1.1c-.2 0-.4.2-.5.4h-.4v-.5H8.5v1.5h2.7v-.5h.4c.1.2.3.4.6.4s.5-.1.6-.4h.3l.3.4v.2H13v.5l-2.4.2-.1-.2s-1.3.2-1.5.5v.3c.2.3 1.5.7 1.5.7v-.1s.9.2 1.9.3l-.6.7-1.6 1.4-.2-.1-1.4 1.4-.1.2 1.6-.5 1.1-.8-.2-.1 2.6-2.2h.2c.3 0 .9-.2 1.1-.4l.3.3 2.7 2.3-.2.1 1.1.8 1.6.5.1-.2-1.4-1.4"/>
</svg>