<svg xmlns="http://www.w3.org/2000/svg" viewBox="0 0 64 64">
    <title>flag: Pitcairn Islands</title>
    <g fill="#2a5f9e">
        <path d="M32 2v30H2c0 16.6 13.4 30 30 30s30-13.4 30-30S48.6 2 32 2z"/>
        <path d="M12 12h21v21H12z"/>
    </g>
    <g fill="#fff">
        <path d="M18.9 8.1V14h-7.3L26 32h6v-7.5z"/>
        <path d="M11 18.9H5c-1.9 4-3 8.4-3 13.1h12V13.9h-3v5"/>
    </g>
    <path fill="#ed4c5c" d="M32 27.1L19 11h-6l17 21h2z"/>
    <path fill="#fff" d="M18.9 5v6H11v3h21V2c-4.7 0-9.1 1.1-13.1 3z"/>
    <path fill="#ed4c5c" d="M32 5H18.9c-6 2.9-11 7.9-13.9 13.9V32h6V11h21V5z"/>
    <path fill="#ffce31" d="M38.5 26.7c.1-.5-.1-1.1-.4-1.4-.7-.6-1.5-.4-2 .1-.8-.4-1.2 1.1-2.1.8.2.5.4.7.8.5-.5.4 0 1-.6 1.5 1 .3 1.6-.2 1.5-1.2.4.3 1 .3 1.3-.1-.5-.2-.5-.6-.3-1.1.3-.5 1.8-.5 1.8.9"/>
    <path fill="#699635" d="M40.8 34.3c-1.2.6-3.3.3-3.5-1.2-.2-1.5 1.3-2.2 1.7-2.4.6-.3 1.1.2.9.9.7-.2.8-1 .5-1.5.9.1 1.7-.6 2.1-1.6-.3.3-1.2.1-1.9.1.2-.2.2-.7.2-.9-.7.8-1.8.4-3.2 2.6.2-.8.6-2.3.9-3.3 0-.1 0-.2.1-.3.1-1.4-1.4-1.5-1.8-.8.4.4.2.9 0 1.6-.2.8-.5 2.8-.8 3.5-.1-1-.8-1.1-.9-1.6-.2.1-.3.5-.3.7-.2-.3-1.1.1-1.4-.3-.3.7.2 1.3.7 1.6-.3 0-.4.4-.7.4.5.5.9.8 1.5.8s1 .2 1.3.9c.6 1.1 2.7 1.8 4.6.8"/>
    <path fill="#ffce31" d="M43.7 33c-.7 1.8-2.4 3.1-3.2 3.3-1.4.3-4.2 1.7-4.9 2.4-.1 0-.2-.1-.3-.1-.4-.3-.7-1.1 0-1.8 2-1.9 4.2-1.1 5.6-2.4-1.2.6-3.3.3-3.5-1.2 1.2.3 3.5.3 5.3-1.6.2.3.9 1.1 1 1.4"/>
    <g fill="#699635">
        <path d="M43 32.2c-.4.6-1.2 1.3-2 1.6.2-.2.2-.4.2-.7-1 .4-3.1.3-3.9 0 1.2.3 3.5.3 5.3-1.6.2.3.4.5.4.7M35.2 36.7c-1.7 1.6-.6 2.9.1 3.2-.2 1.1.8 1 .8 1.9.4-.2.5-.9.5-1.4.5.6 1.9-.1 2.1 1 .2-1.2-.7-2.3-1.8-2.2.5-.4.2-1.1-.2-1.3-.1.8-1 .8-1.4.6-.4-.2-.8-1.1-.1-1.8"/>
    </g>
    <path fill="#ffce31" d="M50.9 36.7c2.7 2.2 2.9 4 2.4 5.1-.2-1-1.3-2.5-2.5-2.9l.1-2.2"/>
    <path fill="#699635" d="M50.9 36.7c1.8 1.3 3.2 2.5 3.6 4.4.4 2 1.1 2.5 2 2-.2 1.1-1.4 1.3-2.3.4.1 1.3-.4 2.9-1.8 3.4-.1-.8.4-1.4.3-2-.1-.3-.1-.9.3-1.2-.7.2-1.9-.2-2-1.3.8.4 1.9.5 2.3-.6.5-1 .3-2.8-2.4-5.1"/>
    <path fill="#ffce31" d="M52.8 47c.1-.2.2-.4 0-.5-.2-.1-.4-.1-.5.2-.1.4-.9.4-.7 1.1-.2 0-.4.2-.6.4-.2.3-1 .7-1.3.8.1.1.4.3.6.2-.1.5.2.7.4.6 0 .2.2.5.4.4.1.3.5.4.7.2.2.2.6.1.8.1-.3 0-.3-.9-.2-1.3.1-.4 0-.7 0-.9.5-.4.2-1 .4-1.3"/>
    <path fill="#699635" d="M46.2 35.5h5v5.9c0 5-2.8 8-5.6 9.5-2.8-1.6-5.6-4.5-5.6-9.5v-5.9h3.5c0 .3 0 .8.4 1.2.7-.1 1.6-.7 2.3-1.2"/>
    <path fill="#006ec7" d="M51.1 35.5v5.9c0 1.5-.3 2.8-.7 4l-4.9-9-4.9 9c-.4-1.2-.7-2.5-.7-4v-5.9h11.2"/>
    <path fill="#ffce31" d="M50.6 44.9c-.1.3-.2.7-.4 1l-4.7-8.8-4.7 8.8c-.1-.3-.3-.7-.4-1l5.1-9.4 5.1 9.4"/>
    <path fill="#f7e017" d="M48.4 46.5c-.3.7-1.2.7-1.5 1.1.2.1.3.2.4.3-.3.3-1.1.9-1.5 1v-4.6c.5 0 1.3-.1 1.6-.1.1 0 .2-.2.2-.4s-.1-.4-.2-.4c-.4 0-1.2-.1-1.7-.1v-.9c0-.2 0-.5-.2-.5-.1 0-.2.1-.2.3-.1-.2-.2-.2-.3-.2-.4 0-.7.3-.7.6s.3.6.7.6c.1 0 .2 0 .3-.1v.1c-.5 0-1.4.1-1.7.1-.1 0-.2.2-.2.4s.1.4.2.4c.3 0 1.1.1 1.6.1v4.6c-.2-.7-1.2-.5-1.6-1.2.2 0 .4-.1.5 0-.3-1.1-1.2-1.2-1.4-1.5 0 .5-.2 1.5.1 2 .1-.1.2-.2.3-.2.4.8 2 .8 2.4 2.1.3-.5 1.4-1.1 2.2-1.9.1.1.4.2.5.2.3-.5.3-1.2.2-1.8M45 43.1c-.2 0-.4-.2-.4-.4s.2-.4.4-.4c.1 0 .2 0 .3.1v.6c-.1 0-.2.1-.3.1"/>
    <path fill="#fff" d="M44.5 39.3h1.9v2.1h-1.9z"/>
    <path fill="#ffce31" d="M39.5 37.2c-.8.7-1.6 1.7-1.8 2.7-.6 2.6-1.3 3.2-2.4 2.7 0 1.4 1.2 1.5 1.8.7 0 1.3.5 2.5 1.6 3.5.5.4.5.1.3-.3s-.2-1.9-.7-2.8c.7.5 1.7.2 1.6-1.2-.9.5-1.7.5-1.8-.8-.2-1.4.4-3.6 1.4-4.5"/>
    <path fill="#699635" d="M39.5 37.2c-1 .9-1.6 3-1.5 4.5 0 .4.1.7.3.8.1-.8.7-3 2.1-3.9 1.2-.8 3.2-2.6 3.9-4.7-.1-.4-.3-.6-.8-.9-.6 2-2.5 3-4 4.2"/>
    <path fill="#ffce31" d="M40.3 48.2c-.1-.2-.3-.3-.5-.3.2-.6-.5-.7-.6-1-.1-.3-.3-.3-.4-.2-.2.1-.2.3-.1.5.2.3-.1.8.4 1.1-.1 0-.1.3 0 .7 0 .3 0 1.1-.3 1.1.2.1.5.2.7 0 .1.2.5.2.6-.1.2.1.4-.1.4-.3.2.1.5 0 .4-.5.2.1.4-.1.5-.2-.3-.1-.9-.5-1.1-.8"/>
    <path fill="#96877d" d="M49 34.3c.3.3.4.7.2 1.1h-.4c.2-.5.1-1-.7-1.1-1.1-.1-2.4 2-4.3 2.3-.6-.7-.5-2 .2-2.6-.4-1.1-1.2-2.2-1.7-2.8-.4-.1-.8-.1-1-.1.3-.6 1.1-1.3 1.7-1.5.1-.2.2-.3.3-.4.1-.8 4.1-.4 4.9.1 0 1.1.4 4.2.8 5"/>
    <g fill="#699635">
        <path d="M53.3 26.5c.6-1.5 2-1.3 2.5-.7 1.5-.8 1.7 1 2.9.7 0 .3-.4.7-.9.7.5.4-.2 1.1.8 1.5-.9.4-2.1 0-2.4-1.2-.3.6-1.3.6-1.7.1.9-.2.8-1.1.3-1.4-.5-.4-1.4-.2-1.5.3M48.8 29.8c.4 1.3 1.2 2.5 2.2 3.4 1 1 2.6.7 3.5-.2 0 1.8-1.9 2-2.9 1.4-.5-.3-.8-.1-.4.3.7.6 2.2 1.1 3.9 1.4 3 .7 2 3.1 1.1 3 .3 0 .5-.3.1-.6-2.6-2.4-8-1.4-7.9-6.8-.6 1.4-2.9.8-1.8-.8.3.3 1.5.2 1.1-1.1h1.1"/>
    </g>
    <g fill="#ffce31">
        <path d="M51.6 34.4c1.3.8 2.7.8 4-.7.4-.5 1.1-.9 1.5-.9.5 0 .4-.5.8-.6-.2-.1-.3-.3-.6-.3.8-.3.6-.9 1-1.3-.3.1-.8-.4-1.3.3.1-.3 0-.6-.2-.8 0 .3-.6.4-.8 1.2-.1.5-.3.4-.4-.3 0-.5-.3-2-.6-2.7-.3-.7-.4-1.8 0-1.9l-.3-.3c-.5-.3-1.4-.2-1.6.4-.6 1.5 1 2.3.9 3.9-.1-1.1-2-1.4-2-2.6-.6.3-.5.8-.3 1.2-.4-.6-1.3.4-2-.4-.1 1.1.9 1.5 1.7 1.5-.4.7.1 1.3.7 1.5 0-1.2 2.5-.7 2.5 1.4-.1 1.8-2 1.9-3 1.4M55.1 36.1c3 .7 2 3.1 1.1 3-.6 0-1.1-.5-1.1-.9-.7.3-.5 1 0 1.3-1.4-.2-1.9.7-2 1.7.3-.5 1-.5 1.3-.4.3.1 1 .2 1.3-.2-.2.2.2.7-.2 1.1 1.1 0 1.6-1.1 1.4-1.6 1.5-1.3 1.2-3.5-1.8-4"/>
    </g>
    <path fill="#96877d" d="M48.8 29h-5.5l-.8-3 7.4-1.9z"/>
    <path fill="#ffce31" d="M43 28.7h5.9V30H43z"/>
</svg>