<svg xmlns="http://www.w3.org/2000/svg" viewBox="0 0 64 64">
    <title>flag: Lebanon</title>
    <path fill="#f9f9f9" d="M2 32c0 5.9 1.7 11.4 4.6 16h50.7c2.9-4.6 4.6-10.1 4.6-16s-1.7-11.4-4.6-16H6.6C3.7 20.6 2 26.1 2 32z"/>
    <g fill="#ed4c5c">
        <path d="M57.4 16C52.1 7.6 42.7 2 32 2S11.9 7.6 6.6 16h50.8zM6.6 48c5.3 8.4 14.7 14 25.4 14s20.1-5.6 25.4-14H6.6z"/>
    </g>
    <path fill="#83bf4f" d="M23.5 45s6.5-4.3 14.1-.5v-1.6s-6.4-4.2-1-4.8c5.4-.6 8.4 2.2 8.4 2.2v-1.4s-9.2-4.9-1.3-3v-1.4S36.6 32 40.9 32h1.8v-.9s-7.3-1-1.2-1.4V29s-11-5.1-2.8-3.1v-1s-4-.8-.9-1.2c0 0-1.6-2.1-4.2-2.1S31.4 19 31.4 19l-3.3 3.5s2.3-.2-1.4 1.7c0 0 3.1.3-3.9 4.4 0 0 2.6-1 2.6.7s-4.6 4-4.6 4l.4 1.1s3.2-2.5 3-.8c-.2 1.7-5.2 4.3-5.2 4.3l.5.8s4.1-2.4 4.2-1.4c0 0 .6.7-3.4 2l.5.8s6.1-3 7.7-.8-5.1 4.5-5.1 4.5l.1 1.2"/>
    <g fill="#f9f9f9">
        <ellipse cx="29.8" cy="26.6" rx=".9" ry=".9"/>
        <ellipse cx="33.4" cy="28.1" rx=".9" ry=".9"/>
        <ellipse cx="26" cy="32.9" rx=".9" ry=".9"/>
        <ellipse cx="36" cy="33.8" rx=".9" ry=".9"/>
        <ellipse cx="38.9" cy="34.7" rx=".9" ry=".9"/>
        <ellipse cx="27.1" cy="28.8" rx=".9" ry=".9"/>
        <ellipse cx="32.2" cy="32" rx=".9" ry=".9"/>
    </g>
</svg>