<svg xmlns="http://www.w3.org/2000/svg" viewBox="0 0 64 64">
    <title>flag: Trinidad &amp; Tobago</title>
    <g fill="#ed4c5c">
        <path d="M53.2 10.8C44.5 2.1 31.8-.1 21 4.1L59.9 43c4.2-10.8 2-23.5-6.7-32.2M10.8 53.2c8.7 8.7 21.4 10.9 32.2 6.7L4.1 21c-4.2 10.8-2 23.5 6.7 32.2"/>
    </g>
    <path fill="#3e4347" d="M10.8 10.8c-2 2-3.6 4.1-4.9 6.4l40.9 40.9c2.3-1.3 4.5-2.9 6.4-4.9 2-2 3.6-4.1 4.9-6.4L17.2 5.9c-2.3 1.3-4.5 2.9-6.4 4.9"/>
    <g fill="#fff">
        <path d="M4.9 19.1c-.3.6-.6 1.3-.9 2l39 38.8c.7-.3 1.3-.5 2-.9.6-.3 1.2-.6 1.8-1L5.9 17.2c-.3.6-.7 1.2-1 1.9M21 4.1c-.7.3-1.3.5-2 .9-.6.3-1.2.6-1.8 1l40.9 40.9c.3-.6.7-1.2 1-1.8.3-.7.6-1.3.9-2l-39-39"/>
    </g>
</svg>