<svg xmlns="http://www.w3.org/2000/svg" viewBox="0 0 64 64">
    <title>flag: Paraguay</title>
    <path fill="#428bc1" d="M32 62c13.1 0 24.2-8.3 28.3-20H3.7C7.8 53.7 18.9 62 32 62z"/>
    <path fill="#ed4c5c" d="M32 2C18.9 2 7.8 10.4 3.7 22h56.6C56.2 10.4 45.1 2 32 2z"/>
    <path fill="#f9f9f9" d="M60.3 42c1.1-3.1 1.7-6.5 1.7-10s-.6-6.9-1.7-10H3.7C2.6 25.1 2 28.5 2 32s.6 6.9 1.7 10h56.6z"/>
    <path fill="#3e4347" d="M32 41c-5 0-9-4-9-9s4-9 9-9 9 4 9 9-4 9-9 9m0-17.7c-4.8 0-8.7 3.9-8.7 8.7s3.9 8.7 8.7 8.7 8.7-3.9 8.7-8.7-3.9-8.7-8.7-8.7"/>
    <path fill="#ed4c5c" d="M32 24.4c-4.2 0-7.6 3.4-7.6 7.6 0 4.2 3.4 7.6 7.6 7.6 4.2 0 7.6-3.4 7.6-7.6s-3.4-7.6-7.6-7.6m0 13.3c-3.1 0-5.7-2.6-5.7-5.7s2.6-5.7 5.7-5.7 5.7 2.6 5.7 5.7-2.6 5.7-5.7 5.7"/>
    <path fill="#ffce31" d="M26 32c0-3.3 2.7-6 6-6s6 2.7 6 6h1.3c0-4-3.3-7.3-7.3-7.3S24.7 28 24.7 32H26z"/>
    <path fill="#428bc1" d="M34.9 31.7c0 1.6-1.3 2.9-2.9 2.9-1.6 0-2.9-1.3-2.9-2.9s1.3-2.9 2.9-2.9c1.6 0 2.9 1.3 2.9 2.9"/>
    <path fill="#ffce31" d="M33.6 33.6L32 32.5l-1.6 1.1.6-1.7-1.4-1.1h1.7l.6-1.7.6 1.7h1.7L33 31.9l.6 1.7"/>
    <path fill="#699635" d="M29.4 29.5s-.4-.1-.6-.1c.2-.3.3-1 .3-1s-.6.3-.8.7c-.1-.2-.3-.5-.3-.5s-.3.3-.2.6c0 .3.4.7.4.7s.5.2.8.1c.2-.2.4-.5.4-.5"/>
    <path fill="#83bf4f" d="M28.9 30.3s-.4 0-.6.1c.1-.4 0-1 0-1s-.5.5-.6.8c-.2-.2-.5-.4-.5-.4s-.2.4-.1.6.6.6.6.6.6 0 .8-.1.4-.6.4-.6"/>
    <path fill="#699635" d="M28.6 31.2s-.4.1-.6.2c0-.4-.2-1-.2-1s-.3.6-.3 1c-.2-.2-.5-.3-.5-.3s-.1.4.1.6c.2.2.7.4.7.4s.5-.1.7-.3c.2-.2.1-.6.1-.6"/>
    <path fill="#83bf4f" d="M28.6 32.2s-.3.2-.5.4c-.1-.4-.5-.9-.5-.9s-.2.6-.1 1c-.3-.1-.6-.1-.6-.1s0 .4.3.6c.2.2.8.2.8.2s.5-.3.6-.5 0-.7 0-.7"/>
    <path fill="#699635" d="M28.8 33.1s-.3.3-.4.5c-.2-.4-.7-.7-.7-.7s0 .6.2 1h-.6s.1.4.4.5c.3.1.8 0 .8 0s.4-.4.5-.7-.2-.6-.2-.6"/>
    <path fill="#83bf4f" d="M29.3 34s-.2.3-.3.6c-.3-.3-.9-.5-.9-.5s.2.6.4.9c-.3 0-.6.2-.6.2s.2.3.5.4c.3 0 .8-.2.8-.2s.3-.5.3-.8c.1-.4-.2-.6-.2-.6"/>
    <path fill="#699635" d="M29.9 34.7s-.1.4-.1.6c-.3-.2-1-.3-1-.3s.3.5.7.8c-.2.1-.5.3-.5.3s.3.3.6.2c.3 0 .7-.4.7-.4s.2-.5.1-.8c-.1-.2-.5-.4-.5-.4"/>
    <path fill="#83bf4f" d="M30.8 35.2s0 .4.1.6c-.4-.1-1 0-1 0s.5.4.8.6l-.4.4s.4.2.6.1c.3-.1.6-.6.6-.6s0-.6-.1-.8c-.3-.2-.6-.3-.6-.3"/>
    <path fill="#699635" d="M34.6 29.5s.4-.1.6-.1c-.2-.3-.3-1-.3-1s.6.3.8.7c.1-.2.3-.5.3-.5s.3.3.2.6c0 .3-.4.7-.4.7s-.5.1-.8 0c-.2-.1-.4-.4-.4-.4"/>
    <path fill="#83bf4f" d="M35.1 30.3s.4 0 .6.1c-.1-.4 0-1 0-1s.5.5.6.8c.2-.2.5-.4.5-.4s.2.4.1.6-.7.6-.7.6-.6 0-.8-.1-.3-.6-.3-.6"/>
    <path fill="#699635" d="M35.4 31.2s.4.1.6.2c0-.4.2-1 .2-1s.3.6.3 1c.2-.2.5-.3.5-.3s.1.4-.1.6c-.2.2-.7.4-.7.4s-.5-.1-.7-.3c-.2-.2-.1-.6-.1-.6"/>
    <path fill="#83bf4f" d="M35.4 32.2s.3.2.5.4c.1-.4.5-.9.5-.9s.2.6.1 1c.3-.1.6-.1.6-.1s0 .4-.3.6c-.2.2-.8.2-.8.2s-.5-.3-.6-.5c-.1-.3 0-.7 0-.7"/>
    <path fill="#699635" d="M35.2 33.1s.3.3.4.5c.2-.4.7-.7.7-.7s0 .6-.2 1h.6s-.1.4-.4.5c-.3.1-.8 0-.8 0s-.4-.4-.5-.7.2-.6.2-.6"/>
    <path fill="#83bf4f" d="M34.7 34s.2.3.3.6c.3-.3.9-.5.9-.5s-.2.6-.4.9c.3 0 .6.2.6.2s-.2.3-.5.4c-.3 0-.8-.2-.8-.2s-.3-.5-.3-.8c-.1-.4.2-.6.2-.6"/>
    <path fill="#699635" d="M34.1 34.7s.1.4.1.6c.3-.2 1-.3 1-.3s-.3.5-.7.8c.2.1.5.3.5.3s-.3.3-.6.2c-.3 0-.7-.4-.7-.4s-.2-.5-.1-.8c.1-.2.5-.4.5-.4"/>
    <path fill="#83bf4f" d="M33.2 35.2s0 .4-.1.6c.4-.1 1 0 1 0s-.5.4-.8.6l.4.4s-.4.2-.6.1c-.3-.1-.6-.6-.6-.6s0-.6.1-.8c.3-.2.6-.3.6-.3"/>
</svg>