<svg xmlns="http://www.w3.org/2000/svg" viewBox="0 0 64 64">
    <title>flag: Turks &amp; Caicos Islands</title>
    <g fill="#2a5f9e">
        <path d="M32 2v30H2c0 16.6 13.4 30 30 30s30-13.4 30-30S48.6 2 32 2z"/>
        <path d="M12 12h21v21H12z"/>
    </g>
    <g fill="#fff">
        <path d="M18.9 8.1V14h-7.3L26 32h6v-7.5z"/>
        <path d="M11 18.9H5c-1.9 4-3 8.4-3 13.1h12V13.9h-3v5"/>
    </g>
    <path fill="#ed4c5c" d="M32 27.1L19 11h-6l17 21h2z"/>
    <path fill="#fff" d="M18.9 5v6H11v3h21V2c-4.7 0-9.1 1.1-13.1 3z"/>
    <path fill="#ed4c5c" d="M32 5H18.9c-6 2.9-11 7.9-13.9 13.9V32h6V11h21V5z"/>
    <path fill="#fff" d="M58 26.5v9.3c0 7.6-3 14.6-11.9 18.8-8.9-4.2-11.9-11.2-11.9-18.8v-9.3H58"/>
    <path fill="#ffce31" d="M57.2 27.4V36c0 7.1-2.8 13.6-11.1 17.5C37.8 49.6 35 43.1 35 36v-8.6h22.2"/>
    <path fill="#ff9e3d" d="M41 31.2c-.5-.4-.4 0-.6-.6-.2-.4-.6-.5-.9-.7-.2-.1-1.2-1.5-1.5-1.4-.3.1-.4 1-.4 1.1-.2.6.1.5.2.9-.3 0 .1.4.2.4-.1.1-.1.2 0 .3-.6 0-1.1.6-1.5.9.3 0 .4-.2.7-.2.3 0 .5.3.8.2-.2.2-.5.4-.5.7-.1.6-.8.6-1 1.2.4.9 1.3 1 2.1 1.5.6.4 1 .8 1.4 1.4.4.7 1.3 1.7 2 .6.4-.7.2-2.2.2-3-.1-.8-.2-2.7-1.2-3.3"/>
    <path fill="#ff927f" d="M41.7 29.1c-.8.9-.7 1.4-.7 2.5s-.9 1.2-1.2 2.1c-.3 1 1 1.6 1.2 2.5.1.5.1 1 .4 1.4.2.3 1.1.2 1.4 0 .3-.2.1-.7.3-1 .2-.4.7-.3.9-.6.5-.7.5-2 .1-2.7-.2-.4.1-.9-.4-1.2-.4-.3-.2-.7-.6-1-.7-.6-.4-1.6-1.4-2"/>
    <path fill="#ff9ee1" d="M41.8 37.8c.9-.2.8-1.7.7-2.3s-.5-1.5-.2-2.2c.4-1-.5-1.9-.2-2.3.2-.4.2-.6.2-.7 0-.1-.2-.2-.2 0 0 .3-.1.3-.2.5s-.1.5 0 .9.4 1 0 1.7c-.4.8-.2 1.1-.1 1.5 0 .6.6 2.6 0 2.9"/>
    <g fill="#ff9e3d">
        <path d="M37.8 29.4c.1 0 .3 0 .3.1M37.6 30.1c.1-.1.3 0 .5-.1M37.8 30.6c.2 0 .4 0 .6-.2M38 31.1c.1 0 .4-.1.5-.3M38.1 31.4c.3 0 .7.1.7 0M38.1 32.3c.2-.2.7-.3.8-.5M38.6 29.3c.3.1.2.3.4.4.3.2 0 .5.3.5.2.1.2.1.2.4-.1.3.2.3.1.5M40.4 31c-.1 0-.5 0-.7.4M37.6 34.9c.2 0 .2-.1.3-.1 0-.1.1-.2.2-.2s.4 0 .4-.2.2 0 .4-.3c.1-.3.2-.6.6-.7"/>
    </g>
    <path fill="#699635" d="M48.1 40.7c.2.2 0 .5.2.6.3.1 0 .5.4.6.3.1 0 .5.3.7.3.2-.1.5.4.7s-.1.7.2.8-.1.6.3.8c.4.2-.2.5.2.8.3.3-.1.6.3.9s-.2.5.1.9c.3.3-.1.5.1.9.1.3-.1 1.3-.8 1.2-.3.4-1.2.8-1.6.7-.4.3-1.5.6-2.1.1-.6.6-1.7.2-2.1-.1-.4.1-1.3-.3-1.6-.7-.7.1-1-.9-.8-1.2.2-.4-.2-.6.1-.9.3-.3-.2-.6.1-.9s-.1-.6.3-.9c.3-.3-.2-.6.2-.8.4-.2-.1-.6.3-.8.3-.2-.2-.6.2-.8s.1-.6.4-.7c.3-.2 0-.5.3-.7.4-.1.1-.5.4-.6.3-.1.1-.3.3-.6.6.3 3 .5 3.9 0"/>
    <path fill="#ed4c5c" d="M48.2 40.5s-.1-.1-.2-.1c-.1-2.4-.5-3.3-1.9-3.3s-1.8.9-1.9 3.3c-.1 0-.1 0-.2.1-.2.2-.2.4.4.6.4.2 1.1.3 1.7.3.6 0 1.2-.1 1.7-.3.5-.2.5-.3.4-.6"/>
    <path fill="#b95a1e" d="M54.6 33.4v-.7l2.2-.2-2.2-.2V32l-.1-.6 2.2-.4-2.3.1-.3-.6 1.6-1.3-1.9 1-.8-.4-.8-1.2.1-.4-.8 1.8v.6l.1.4-.1-.6v-.6l-.8-1.8.1.4-.8 1.2-.8.4-1.9-1 1.6 1.3-.3.6-2.2.1 2.2.4-.1.6v.3l-2.2.2 2.2.2v.7l-2 .8 2-.5.2 4.3-.5 2.8.8-2.6-.1-4.5 1.1.3.2.5.1.6.2.5v.1l.1.6.1.6.1.5.2.2-.9.9-.1.8.6-.2.1.7.3-.1.2.3.4-.8.4.8.2-.3.3.1.1-.7.6.2-.1-.7-.9-.9.2-.2.1-.5.1-.6.1-.6v-.1l.2-.5.1-.6.2-.5 1.1-.3-.1 4.5.8 2.6-.6-2.9.2-4.3 2 .5-2-.8m-3.5-2.5l-.7-.8.7.5v.3m-.2.3l-.1.1-1.2-.9.6-.2.7 1m0-2.6l.4 1.3v.2l-.9-.3.5-1.2m-1.6 2.1l1.2.9-.1.2-1.1-.5-.2-.1.2-.5m-.4 1.3l.1-.5 1.2.6v.3l-.1.3-.8-.3-.4-.1V32m0 1.4v-.6l1.2.4v.5l-1-.2-.2-.1m3.5-2.1l-.1-.1.8-1 .6.2-1.3.9m-.3-.4v-.2l.7-.5-.7.7m.8.9l-.1-.2 1.2-.9.2.5H54l-1.1.6m-.5-3.2l.5 1.1-.9.4v-.2l.4-1.3m.6 3.5l1.2-.6.1.5v.3l-.3.1-.8.3-.2-.3v-.3m1.2 1.3l-1 .2v-.5l1.2-.4v.6l-.2.1"/>
</svg>