<svg xmlns="http://www.w3.org/2000/svg" viewBox="0 0 64 64">
    <title>flag: El Salvador</title>
    <g fill="#428bc1">
        <path d="M32 2C18.9 2 7.8 10.4 3.7 22h56.6C56.2 10.4 45.1 2 32 2zM32 62c13.1 0 24.2-8.3 28.3-20H3.7C7.8 53.7 18.9 62 32 62z"/>
    </g>
    <path fill="#f9f9f9" d="M3.7 22C2.6 25.1 2 28.5 2 32s.6 6.9 1.7 10h56.6c1.1-3.1 1.7-6.5 1.7-10s-.6-6.9-1.7-10H3.7z"/>
    <g fill="#428bc1">
        <path d="M35.5 27.9l-1.2 1.2c.4.5.6 1.2.6 1.9 0 1.7-1.3 3-3 3s-3-1.3-3-3c0-.7.2-1.3.6-1.9l-1.2-1.2c-.7.8-1.1 1.8-1.1 2.9 0 2.5 2.1 4.6 4.6 4.6s4.6-2.1 4.6-4.6c.2-1-.2-2.1-.9-2.9"/>
        <path d="M34 25.4l-.7.7c.2.3.4.7.4 1.1 0 1-.8 1.7-1.7 1.7s-1.7-.8-1.7-1.7c0-.4.1-.8.4-1.1l-.7-.7c-.4.5-.6 1-.6 1.7 0 1.5 1.2 2.6 2.6 2.6s2.6-1.2 2.6-2.6c0-.7-.2-1.2-.6-1.7"/>
    </g>
    <path fill="#699635" d="M28.4 29.5s-.5-.1-.9-.1c.3-.5.4-1.4.4-1.4s-.8.5-1.1.9c-.2-.3-.5-.7-.5-.7s-.3.4-.3.8c.1.4.6 1 .6 1s.8.2 1.2.1c.3-.1.6-.6.6-.6"/>
    <path fill="#83bf4f" d="M27.6 30.7s-.5 0-.9.1c.2-.5 0-1.4 0-1.4s-.6.6-.8 1.2l-.6-.6s-.2.5-.1.9c.2.4.8.8.8.8s.8 0 1.1-.2c.4-.3.5-.8.5-.8"/>
    <path fill="#699635" d="M27.2 32s-.5.1-.8.3c0-.6-.3-1.4-.3-1.4s-.4.8-.5 1.4c-.3-.2-.8-.4-.8-.4s-.1.5.1.9c.3.3 1 .6 1 .6s.8-.2 1-.5c.4-.4.3-.9.3-.9"/>
    <path fill="#83bf4f" d="M27.2 33.3s-.5.3-.7.5c-.1-.6-.7-1.3-.7-1.3s-.2.9-.1 1.4l-.8-.2s0 .6.4.8c.3.2 1.1.3 1.1.3s.7-.4.9-.7c.1-.3-.1-.8-.1-.8"/>
    <path fill="#699635" d="M27.5 34.6s-.4.4-.6.7c-.3-.5-1-1.1-1-1.1s0 .9.3 1.4h-.8s.2.5.6.7c.4.2 1.2 0 1.2 0s.6-.5.7-.9c-.1-.3-.4-.8-.4-.8"/>
    <path fill="#83bf4f" d="M28.1 35.8s-.3.4-.4.8c-.4-.4-1.2-.8-1.2-.8s.2.9.6 1.3c-.4.1-.8.3-.8.3s.3.5.7.5c.4 0 1.1-.3 1.1-.3s.4-.7.4-1.1c.1-.3-.4-.7-.4-.7"/>
    <path fill="#699635" d="M29.1 36.8s-.1.5-.1.9c-.5-.3-1.4-.4-1.4-.4s.5.8.9 1.1c-.3.2-.7.5-.7.5s.4.4.8.3 1-.6 1-.6.2-.8.1-1.1c-.1-.4-.6-.7-.6-.7"/>
    <path fill="#83bf4f" d="M30.2 37.5s0 .5.1.9c-.6-.2-1.5 0-1.5 0s.6.6 1.2.8c-.3.2-.6.6-.6.6s.5.2.9.1c.4-.2.8-.8.8-.8s0-.8-.2-1.1c-.1-.4-.7-.5-.7-.5"/>
    <path fill="#699635" d="M35.6 29.5s.5-.1.9-.1c-.3-.5-.4-1.4-.4-1.4s.8.5 1.1.9c.2-.3.5-.7.5-.7s.3.4.3.8c-.1.4-.6 1-.6 1s-.8.2-1.2.1c-.3-.1-.6-.6-.6-.6"/>
    <path fill="#83bf4f" d="M36.4 30.7s.5 0 .9.1c-.2-.5 0-1.4 0-1.4s.6.6.8 1.2l.6-.6s.2.5.1.9c-.2.4-.8.8-.8.8s-.8 0-1.1-.2c-.4-.3-.5-.8-.5-.8"/>
    <path fill="#699635" d="M36.8 32s.5.1.8.3c0-.6.3-1.4.3-1.4s.4.8.5 1.4c.3-.2.8-.4.8-.4s.1.5-.1.9c-.3.3-1 .6-1 .6s-.8-.2-1.1-.5c-.3-.4-.2-.9-.2-.9"/>
    <path fill="#83bf4f" d="M36.8 33.3s.5.3.7.5c.1-.6.7-1.3.7-1.3s.2.9.1 1.4l.8-.2s0 .6-.4.8c-.3.2-1.1.3-1.1.3s-.7-.4-.9-.7c-.1-.3.1-.8.1-.8"/>
    <path fill="#699635" d="M36.5 34.6s.4.4.6.7c.3-.5 1-1.1 1-1.1s0 .9-.3 1.4h.8s-.2.5-.6.7c-.4.2-1.2 0-1.2 0s-.6-.5-.7-.9c.1-.3.4-.8.4-.8"/>
    <path fill="#83bf4f" d="M35.9 35.8s.3.4.4.8c.4-.4 1.2-.8 1.2-.8s-.2.9-.6 1.3c.4.1.8.3.8.3s-.3.5-.7.5c-.4 0-1.1-.3-1.1-.3s-.4-.7-.4-1.1c-.1-.3.4-.7.4-.7"/>
    <path fill="#699635" d="M34.9 36.8s.1.5.1.9c.5-.3 1.4-.4 1.4-.4s-.5.8-.9 1.1c.3.2.7.5.7.5s-.4.4-.8.3-1-.6-1-.6-.2-.8-.1-1.1c.1-.4.6-.7.6-.7"/>
    <path fill="#83bf4f" d="M33.8 37.5s0 .5-.1.9c.6-.2 1.5 0 1.5 0s-.6.6-1.2.8c.3.2.6.6.6.6s-.5.2-.9.1c-.4-.2-.8-.8-.8-.8s0-.8.2-1.1.7-.5.7-.5"/>
    <path fill="#ffce31" d="M38 36H26l6-10 6 10m-10.2-1.1h8.3L32 28l-4.2 6.9"/>
    <path fill="#3e4347" d="M32.5 30.2l-.5.8-.5-.8v-2.4l.5-.8.5.8z"/>
    <circle cx="32" cy="31" r="2" fill="#c94747"/>
    <path fill="#ffc7ce" d="M32 29.5c-.8 0-1.5.7-1.5 1.5h3c0-.9-.7-1.5-1.5-1.5"/>
    <path fill="#fc0" d="M41.7 32.4c0-5.4-4.4-9.7-9.7-9.7s-9.7 4.4-9.7 9.7c0 3.8 2.2 7.1 5.5 8.7l.7-1.2c-2.8-1.3-4.8-4.2-4.8-7.5 0-4.6 3.7-8.3 8.3-8.3s8.3 3.7 8.3 8.3c0 3.4-2 6.3-4.9 7.6l.5 1.3c3.4-1.5 5.8-4.9 5.8-8.9"/>
</svg>