<svg xmlns="http://www.w3.org/2000/svg" viewBox="0 0 64 64">
    <title>flag: Vanuatu</title>
    <path fill="#ed4c5c" d="M32 2C22.8 2 14.6 6.1 9.1 12.7V32h52.1v-7C58 11.8 46.2 2 32 2z"/>
    <path fill="#83bf4f" d="M9.1 32v19.3C14.6 57.9 22.8 62 32 62c14.2 0 26-9.8 29.2-23v-7H9.1z"/>
    <g fill="#3e4347">
        <path d="M9.1 12.7c-.9 1.1-1.8 2.3-2.6 3.5v3.7h-2C2.9 23.6 2 27.7 2 32s.9 8.4 2.6 12.1h2v3.7c.8 1.2 1.6 2.4 2.6 3.5L28.4 32 9.1 12.7z"/>
        <path d="M61.9 34v-4c-.1-1.7-.4-3.4-.8-5h-52v14h52.1c.4-1.6.6-3.3.7-5"/>
    </g>
    <path fill="#ffce31" d="M6.5 16.2c-.7 1.2-1.4 2.4-2 3.7L16.7 32 4.6 44.1c.6 1.3 1.2 2.5 2 3.7L20.3 34h41.6c0-.7.1-1.3.1-2s0-1.3-.1-2H20.3L6.5 16.2"/>
    <g fill="#fdce12">
        <path d="M7.3 26.7c-1.1 0-4.6.8-4.6 4.4s3.4 4 4.1 4c.7 0 3.2-.6 2.9-3.3 0 .8-.9 2.4-2.7 2.4-1.8 0-3-1.4-3-2.7s1.1-3.1 3-3.1 3.3 1.7 3.3 3.4-1.4 3.9-3.5 3.9v2.1c1.8 0 5.3-1.4 5.3-5.8.1-4.5-3.7-5.3-4.8-5.3"/>
        <path d="M7.4 30.9c0-.1 0-.1 0 0v-.1c.1-.1.4-.1.5-.2.3-.2.5-.4.7-.9v-.1c-.5-.1-.9.1-1.1.4-.1.2-.2.4-.3.5 0 .1-.1.1-.1.1-.1 0-.1-.1-.1-.1-.1-.1-.2-.4-.3-.5-.2-.3-.6-.5-1.1-.4v.1c.2.4.4.7.7.9.2.1.4.1.5.2l.1.1h-.1c-.4.1-.7.4-.9.7-.2.3-.4.7-.3 1.1h.1c.4-.1.7-.4 1-.6.2-.3.4-.5.5-.9.1.3.3.6.5.9.3.2.5.5 1 .6h.1c0-.5-.1-.8-.3-1.1-.4-.3-.7-.6-1.1-.7"/>
    </g>
</svg>