<svg xmlns="http://www.w3.org/2000/svg" viewBox="0 0 64 64">
    <title>flag: Marshall Islands</title>
    <g fill="#2a5f9e">
        <path d="M39.8 3C23.8-1.3 7.3 8.2 3 24.2c-1.3 4.9-1.3 9.9-.3 14.5l43.6-33c-1.9-1.1-4.2-2-6.5-2.7M11.6 54c3.5 3.2 7.7 5.7 12.6 7 16 4.3 32.5-5.2 36.7-21.2.6-2.3.9-4.6 1-6.9L11.6 54"/>
    </g>
    <path fill="#ff8736" d="M58 17.1c-2.7-4.7-6.7-8.7-11.6-11.4l-43.6 33c.6 3 1.8 5.8 3.2 8.3l52-29.9"/>
    <g fill="#fff">
        <path d="M58 17.1L6 47c1.5 2.6 3.4 4.9 5.6 7L62 32.9c.2-5.6-1.3-11.1-4-15.8M19.6 18.1l6.7-.4-6.7-.4 3.7-1.4-3.9.7 3.2-2.3-3.6 1.6 2.5-3.1-3 2.5 1.6-3.6-2.3 3.2.6-3.9-1.4 3.7-.4-6.7-.4 6.7-1.4-3.7.6 3.9-2.3-3.2 1.6 3.6-3-2.5 2.5 3.1-3.6-1.6 3.2 2.3-3.9-.7 3.6 1.4-6.6.4 6.6.4-3.6 1.4 3.9-.6-3.2 2.3 3.6-1.6-2.5 3.1 3-2.5-1.6 3.6 2.3-3.2-.6 3.9 1.4-3.7.4 6.7.4-6.7 1.4 3.7-.6-3.9 2.3 3.2-1.6-3.6 3 2.5-2.5-3.1 3.6 1.6-3.2-2.3 3.9.6z"/>
    </g>
</svg>