<svg xmlns="http://www.w3.org/2000/svg" viewBox="0 0 64 64">
    <title>flag: French Polynesia</title>
    <path fill="#f9f9f9" d="M2 32c0 5.9 1.7 11.4 4.6 16h50.7c2.9-4.6 4.6-10.1 4.6-16s-1.7-11.4-4.6-16H6.6C3.7 20.6 2 26.1 2 32z"/>
    <g fill="#ed4c5c">
        <path d="M57.4 16C52.1 7.6 42.7 2 32 2S11.9 7.6 6.6 16h50.8zM6.6 48c5.3 8.4 14.7 14 25.4 14s20.1-5.6 25.4-14H6.6zM30.5 34.6c-1 1.6-4 1.2-4.6 0v-9.8h-1.5v10c.7 3.5 4.9 4.4 6.1-.2M37.8 24.8v9.8c-.7 1.1-3.5 1.6-4.5 0 1.2 4.6 5.4 3.7 6.1.2v-10h-1.6"/>
    </g>
    <g fill="#ffce31">
        <path d="M29 19.9l-.4-.6c-1 .3-1.9.6-2.8 1.1.7 1.5 2.6 5 2.6 5s.1-5.2.6-5.5M35 22.7v2.7c1-1.7 2-3.5 3.1-5.2-.2-.1-.5-.2-.8-.4-.5-.2-1-.4-1.5-.5-.3-.1-.5-.2-.8-.2h-.1c-.4 1.2-1.1 3.6-1.1 3.6H35"/>
    </g>
    <g fill="#2a5f9e">
        <path d="M34.5 42.4c-1.1 0-1.9 1.1-2.8 1-.9-.1-1.3-1.1-2.6-1.1H29c-.9 0-2.2.6-2.7.9 0 0 2.1 1.7 5.5 1.7s5.6-1.7 5.6-1.7-1.7-.8-2.9-.8M34.8 41c-1.3.1-1.7-.8-2.9-.7-1.2 0-1.9.7-2.8.8-.9 0-2.1-.9-2.8-.8-.6 0-2.3.7-2.9.9l.6.6h16c.1-.1.2-.2.3-.2-.5-.4-1.6-1.3-2.9-1.3-1.8-.2-1.3.5-2.6.7M40.1 38.1c-1 0-1.8 1-2.6 1s-1.8-1-2.8-1c-1 0-2 1-2.9 1s-1.7-1-2.9-1-1.8 1.1-2.7 1c-.9-.1-1.7-1.1-2.6-1.1-.6 0-1.5.6-2.1 1 .2.2.3.5.5.7h20c.1-.1.2-.3.3-.4-.2-.4-1.3-1.1-2.2-1.2M31.8 36.4c-1.4 0-2.4 1.4-2.3 1.4h4.7c0-.1-1.1-1.5-2.4-1.4M40.2 37.2c-.8 0-.7-.2-1.1-.5-.2.4-1.1 1-1.1 1h5.5c.1-.2.2-.5.3-.7-.4-.3-.8-.6-1.2-.6-.8 0-1.6.9-2.4.8M24.5 36.8c-.4.2-.3.4-1.1.5-.8 0-1.6-.9-2.4-.9-.3 0-.6.2-.8.4.1.3.3.7.5 1h5c-.1 0-1-.6-1.2-1M23.9 34.5c-1.2-.4-2.1.8-3 .9-.6 0-1.2-.4-1.5-.6.1.4.2.7.3 1.1h4.5c0-.1-.3-.7-.3-1.4M42.8 35.4c-.8 0-1.8-1.3-3-.9 0 .7-.3 1.3-.3 1.3H44l.5-1.3s-.9.9-1.7.9M30.6 35.8H33s0-.7-1.2-.7-1.1.7-1.2.7"/>
    </g>
    <path fill="#ed4c5c" d="M29.4 28.7l4.8 1.2v-6.5c-2.2.1-4.1-4-.1-4.2-3.8-.5-4.3.4-4.7 1.4v8.1"/>
    <g fill="#ffce31">
        <path d="M26.5 29.3v.8h2.1zM28.6 29.9v-1.1c-.6-.4-1.5-1.3-2.1-1.6v1.7l2.1 1M19 30.6v1c0 .7.1 1.3.1 1.9h4.4v-2.8l-4.5-.1M19.9 26.8c-.4.9-.7 1.9-.8 2.9l4.4.4v-2l-3.6-1.3M22 23.5c-.7.8-1.2 1.7-1.7 2.6l3.2 1.5v-2.8L22 23.5M26.5 26.4l2 1.9v-2l-3.6-5.4c-.8.5-1.6 1.2-2.3 1.9.4.5 1.1 1.1 1.4 1.5h2.5v2.1M45 30.5l-5 .4v2.7h4.8c-.1-.1.2-1.3.2-3.1M44.8 29.7c-.2-1.8-.8-3.1-.8-3.1l-4 1.6v2l4.8-.5M43.6 25.8c-.5-.9-1-1.7-1.7-2.5-.7.5-1.3.9-2 1.4v2.9c1.3-.6 2.5-1.2 3.7-1.8M35 30.2l2-.1v-.8zM35 28.9v.9l2-.9v-1.7c-.7.5-2 1.7-2 1.7M39.7 24.2l1.6-1.6c-.7-.7-1.6-1.4-2.5-1.9-1.3 1.9-2.5 3.7-3.8 5.6v2.2c.7-.6 1.4-1.2 2-1.9v-2.3l2.7-.1"/>
    </g>
    <g fill="#ed4c5c">
        <path d="M26.8 35.1H29c.9 0 1.3-1.2 1.3-1.2h-2c-1.1-.1-1.5 1.2-1.5 1.2M35.3 33.8h-2s.4 1.2 1.3 1.2h2.2c0 .1-.4-1.2-1.5-1.2M26.3 33.2h11v.4h-11zM31.1 32.7l.7-.6.7.6.2-.2-.7-.6.7-.7-.2-.2-.6.5v-.8h-.3v.8l-.5-.5-.2.2.7.7-.7.6zM37.3 31.2l-.2-.2-.6.5v-.8h-.3v.8l-.5-.5-.2.2.7.7-.7.6.2.2.7-.6.7.6.2-.2-.7-.6zM33.4 32.7l.7-.6.7.6.2-.2-.7-.6.7-.7-.2-.2-.6.5v-.8h-.3v.8l-.5-.5-.2.2.7.7-.7.6zM28.8 32.7l.7-.6.7.6.2-.2-.7-.6.7-.7-.2-.2-.6.5v-.8h-.3v.8l-.5-.5-.2.2.7.7-.7.6zM26.5 32.7l.7-.6.7.6.2-.2-.7-.6.7-.7-.2-.2-.6.5v-.8H27v.8l-.5-.5-.2.2.7.7-.7.6z"/>
    </g>
</svg>