<svg xmlns="http://www.w3.org/2000/svg" viewBox="0 0 64 64">
    <title>flag: Mongolia</title>
    <g fill="#c94747">
        <path d="M2 32c0 13.1 8.4 24.2 20 28.3V3.7C10.4 7.8 2 18.9 2 32zM62 32c0-13.1-8.3-24.2-20-28.3v56.6C53.7 56.2 62 45.1 62 32"/>
    </g>
    <path fill="#2872a0" d="M22 60.3c3.1 1.1 6.5 1.7 10 1.7s6.9-.6 10-1.7V3.7C38.9 2.6 35.5 2 32 2s-6.9.6-10 1.7v56.6z"/>
    <g transform="scale(5)">
        <circle cx="2.6" cy="4.8" r=".7" fill="#f9cf02"/>
        <circle cx="2.6" cy="4.4" r=".8" fill="#c94747"/>
        <g fill="#f9cf02">
            <circle cx="2.6" cy="4.6" r=".5"/>
            <path d="M2.3 3.6c0 .2.1.3.3.3.2 0 .4-.1.4-.3 0-.1-.1-.1-.1-.2v-.2V3.5s0 .1-.1.1-.1 0-.1-.1.1-.1.1-.2 0-.1-.1-.2c0-.1-.1-.1-.1-.2-.1 0 0 .2 0 .2s-.1.1-.1.2v.2s0 .1-.1.1-.1 0-.1-.1v-.1c0-.1-.1-.1 0-.2-.1.1 0 .1 0 .2v.2M1.2 5.6v3.1h.6V5.6h-.6m2.2 0v3.1h.7V5.6h-.7M2 6.1v.3h1.3v-.3H2m0 1.8v.3h1.3v-.3H2m0-2.3h1.3l-.7.4-.6-.4m0 2.7h1.3l-.7.4-.6-.4"/>
        </g>
    </g>
    <circle cx="13.2" cy="35.8" r="3.4" fill="#f9cf02"/>
    <g fill="#c94747">
        <path d="M13.2 39.5c-2 0-3.6-1.6-3.6-3.6s1.6-3.6 3.6-3.6 3.6 1.6 3.6 3.6-1.6 3.6-3.6 3.6m0-6.9c-1.8 0-3.3 1.5-3.3 3.3s1.5 3.3 3.3 3.3 3.3-1.5 3.3-3.3-1.5-3.3-3.3-3.3"/>
        <path d="M13.2 39.5c-1.1 0-1.9-.9-1.9-1.9s.9-1.9 1.9-1.9c.8 0 1.5-.7 1.5-1.5s-.7-1.5-1.5-1.5v-.4c1.1 0 1.9.9 1.9 1.9 0 1.1-.9 1.9-1.9 1.9-.8 0-1.5.7-1.5 1.5s.7 1.5 1.5 1.5v.4"/>
        <circle cx="13.2" cy="34.1" r=".7"/>
        <circle cx="13.2" cy="37.5" r=".6"/>
    </g>
</svg>