<svg xmlns="http://www.w3.org/2000/svg" viewBox="0 0 64 64">
    <title>flag: Uruguay</title>
    <path fill="#f9f9f9" d="M61.7 28h-1.4v-6c-1-2.9-2.5-5.6-4.3-8h-6V8c-5-3.8-11.2-6-18-6C15.4 2 2 15.4 2 32c0 1.4.1 2.7.3 4h1.4v6c1 2.9 2.5 5.6 4.3 8h6v6c5 3.8 11.2 6 18 6 6.8 0 13-2.2 18-6v-6h6c1.8-2.4 3.3-5.1 4.3-8v-6h1.4c.2-1.3.3-2.6.3-4s-.1-2.7-.3-4"/>
    <g fill="#428bc1">
        <path d="M3.7 42h56.6c.7-1.9 1.2-3.9 1.4-6H2.3c.2 2.1.7 4.1 1.4 6M8 50c1.7 2.3 3.7 4.3 6 6h36c2.3-1.7 4.3-3.7 6-6H8zM32 14h24c-1.7-2.3-3.7-4.3-6-6H32v6M32 28h29.7c-.3-2.1-.8-4.1-1.4-6H32v6"/>
    </g>
    <g fill="#fcd116" stroke="#000" stroke-miterlimit="20" stroke-width=".1">
        <path d="M16.7 24.8c0-.1 0 0 0 0l-1.4 1c-.8 1.9-.5 2.7-.4 3.4l-.7 1.7c2.7-.9.4-2.5 4.1-5.2l-.9-1.4-.7.5zM15.9 23.3l-.8-.1h0l-1.6-.3c-1.9.8-2.3 1.6-2.7 2.1l-1.8.6c2.5 1.3 2-1.5 6.6-.8l.3-1.5zM14.2 22.3l1.4-.9-.5-.7h.1s-.1 0-.1-.1l-.9-1.4c-1.9-.8-2.7-.5-3.4-.4L9 18.2c.9 2.6 2.5.3 5.2 4.1zM15.1 19.4l1.6.3.1-.8v0l.3-1.6c-.8-1.9-1.6-2.3-2.1-2.7l-.7-1.7c-1.3 2.5 1.5 2 .8 6.5zM21.8 13c-2.7.9-.4 2.5-4.1 5.2l.9 1.4 2.1-1.4c1.4-3.4-.5-3.6 1.1-5.2zM20.3 20.7l.8.1H21h.1l1.6.3c1.9-.8 2.3-1.6 2.7-2.1l1.7-.7c-2.5-1.3-2 1.5-6.6.8l-.2 1.6zM21.9 21.7l-1.4.9.5.7h-.1s.1 0 .1.1l.9 1.4c1.9.8 2.7.5 3.4.4l1.7.7c-.8-2.7-2.4-.4-5.1-4.2zM20.8 24.5l-1.6-.3-.2.8v-.1.1l-.3 1.6c.8 1.9 1.6 2.3 2.1 2.7l.7 1.7c1.3-2.5-1.5-2-.7-6.5z"/>
        <path d="M21 23.3l7-1.3-7-1.3 4.1-5.8-5.8 4.1-1.3-7-1.3 7-5.8-4.1 4 5.8L8 22l6.9 1.3-4 5.8 5.8-4L18 32l1.3-6.9 5.8 4z"/>
        <circle cx="18" cy="22" r="3.3"/>
    </g>
    <path d="M20.5 20.7c-.2.2-.3-.2-1.1-.2s-.9.5-1 .4.6-.6.9-.7c.2 0 .9.2 1.2.5m-.9.2c.2.2 0 .6-.2.6s-.6-.4-.4-.6"/>
    <path d="M18.6 21.2c0-.4.3-.4.8-.4s.7.4.9.5c-.2 0-.4-.3-.9-.3-.5-.1-.5-.1-.8.2m.1.1c.1-.2.3.2.6.2s.5-.1.7-.2c.2-.2-.3.4-.6.4-.4-.1-.8-.3-.7-.4"/>
    <path d="M19.7 21.5c.4-.2.2-.5 0-.6.1.1.3.4 0 .6M18 23.3c.2 0 .2-.1.5-.1s.8.3 1.2.2c-.7.3-.4.1-1.6.1h-.2m1.9.2c-.1-.2-.1-.2-.3-.5.2.2.2.3.3.5M18 24c.8 0 .6-.2 1.6-.6-.7.1-.9.3-1.6.3h-.2m.2-.8c.2 0 .3-.2.5-.2s.6.1.7.2c0 0-.1-.2-.3-.3-.2 0-.2-.4-.4-.5 0 .1.1.1.1.3 0 .2-.3.2-.3 0 .1.2-.1.2-.3.2M15.5 20.7c.2.2.3-.2 1.1-.2s.9.5 1 .4-.6-.6-.9-.7c-.2 0-.9.2-1.2.5m.9.2c-.2.2 0 .6.2.6s.6-.4.4-.6"/>
    <path d="M17.4 21.2c0-.4-.3-.4-.8-.4s-.7.4-.9.5c.2 0 .4-.3.9-.3s.5-.1.8.2m-.1.1c-.1-.2-.3.2-.6.2s-.5-.1-.7-.2c-.2-.2.3.4.6.4.4-.1.8-.3.7-.4"/>
    <path d="M16.3 21.5c-.4-.2-.2-.5 0-.6-.1.1-.3.4 0 .6m1.7 1.8c-.2 0-.2-.1-.5-.1s-.8.3-1.2.2c.7.3.4.1 1.6.1h.2m-1.9.2c.1-.2.1-.2.3-.5-.2.2-.2.3-.3.5m1.8.3c-.8 0-.6-.2-1.6-.6.7.1.9.3 1.6.3h.2m-.2-.8c-.2 0-.3-.2-.5-.2s-.6.1-.7.2c0 0 .1-.2.3-.3.2 0 .2-.4.4-.5 0 .1-.1.1-.1.3 0 .2.3.2.3 0-.1.2.1.2.3.2M18 24.3c-.2 0-.5.1 0 0"/>
</svg>