<svg xmlns="http://www.w3.org/2000/svg" viewBox="0 0 64 64">
    <title>flag: San Marino</title>
    <path fill="#a0cfeb" d="M32 62c16.6 0 30-13.4 30-30H2c0 16.6 13.4 30 30 30z"/>
    <path fill="#f9f9f9" d="M32 2C15.4 2 2 15.4 2 32h60C62 15.4 48.6 2 32 2z"/>
    <path fill="#699635" d="M22.9 24.6l-2.3-.4h.1l1-3.5-2.7 2.4-1.2-1.8-.8 2.1 1.5 2.5 2.8.2z"/>
    <path fill="#83bf4f" d="M21.1 27.5l-2.3.2h.1L19 24l-2.1 3-1.6-1.4-.2 2.2 2 2 2.9-.4z"/>
    <path fill="#699635" d="M20.1 30.7l-2.1.8-.8-3.5-1.2 3.3-1.9-.9.3 2.2 2.5 1.4 2.6-1.2z"/>
    <path fill="#83bf4f" d="M20 34.1l-1.8 1.3h-.1l-1.7-3.2-.3 3.6-2-.4.9 1.9 2.8.8 2.2-1.8z"/>
    <path fill="#699635" d="M20.8 37.4l-1.5 1.8v-.1l-2.5-2.6.7 3.5-2.1.1 1.4 1.7 2.9.1 1.6-2.4z"/>
    <path fill="#83bf4f" d="M22.4 40.4l-.9 2.1-.1-.1-3.1-1.9 1.6 3.3-2 .6 1.8 1.3 2.8-.7 1-2.7z"/>
    <g fill="#699635">
        <path d="M24.7 42.9l-.3 2.2h-.1L20.8 44l2.4 2.8-1.8 1.1 2.1.8 2.5-1.4.3-2.9zM41.1 24.6l2.3-.4h-.1l-1-3.5 2.7 2.4 1.2-1.8.8 2.1-1.5 2.5-2.8.2z"/>
    </g>
    <path fill="#83bf4f" d="M42.9 27.5l2.3.2h-.1L45 24l2.1 3 1.6-1.4.2 2.2-2 2-2.9-.4z"/>
    <path fill="#699635" d="M43.9 30.7l2.1.8.8-3.5 1.2 3.3 1.9-.9-.3 2.2-2.5 1.4-2.6-1.2z"/>
    <path fill="#83bf4f" d="M44 34.1l1.8 1.3h.1l1.7-3.2.2 3.6 2.1-.4-.9 1.9-2.8.8-2.2-1.8z"/>
    <path fill="#699635" d="M43.2 37.4l1.5 1.8v-.1l2.5-2.6-.7 3.5 2.1.1-1.4 1.7-2.9.1-1.6-2.4z"/>
    <path fill="#83bf4f" d="M41.6 40.4l.9 2.1.1-.1 3.1-1.9-1.6 3.3 2 .6-1.8 1.3-2.8-.7-1-2.7z"/>
    <path fill="#699635" d="M39.3 42.9l.3 2.2h.1l3.5-1.1-2.4 2.8 1.8 1.1-2.1.8-2.5-1.4-.3-2.9z"/>
    <g fill="#f1bf31">
        <path d="M25.7 16.1l2.2 2.3H36l2.2-2.3.2-3.4-5.2-1.7.5-.4-1.7-1-1.7 1 .5.4-4.8 1.2-.3 3.9m11.5-2.8l-1.3 2-1.3-.5-1.6-.3v-2.9l4.2 1.7m-10.4 0l4.2-1.7v2.9l-1.6.3-1.3.5-1.3-2M31.1 7.4h.6v.1l-.1 1.1h.8l-.1-1.1v-.1h.6l.3-.3-.3-.4-.6.1.1-.6-.4-.4-.4.4.1.6-.6-.1-.3.4z"/>
    </g>
    <path fill="#a0cfeb" d="M31.8 22.5c1.9 0 9.8-1.4 9.8 9.7C41.6 42.8 32 47 32 47s-9.6-4.1-9.6-15.6c0-10.3 9.4-8.9 9.4-8.9"/>
    <path fill="#83bf4f" d="M35 39c.6-.3 1.2-.5 1.9-.5 1.1 0 2.1.5 2.9 1.2-2.8 5.1-7.7 7.2-7.7 7.2s-4.8-2-7.6-7.2c.7-.7 1.7-1.2 2.8-1.2.8 0 1.5.2 2.1.6.7-.8 1.7-1.2 2.9-1.2 1 0 1.9.4 2.7 1.1"/>
    <path fill="#f1bf31" d="M43.5 29.5c-.3-3.9-1.4-6.4-2.9-7.8-1.4-1.2-3-1.5-4.2-1.1h-.1l-3.6 1.6c-.2-.2-.4-.3-.7-.3s-.5.1-.7.3l-3.6-1.6h-.1c-1.2-.4-2.8-.2-4.2 1-1.5 1.3-2.7 3.8-2.9 7.8-.5 6.3 2.2 10.9 5.2 13.6 1.6 1.4 4.1 3.2 6.3 4 2.2-.8 4.7-2.5 6.3-4 3-2.7 5.7-7.3 5.2-13.5m-20.2 1c.2-4.3 1.4-5.7 2-6.2.2.7.9 1.1 1.5 1.1.5 0 4.4-2.2 4.4-2.2.1.2.4.4.7.4s.6-.2.7-.4c0 0 3.7 2.2 4.4 2.2.6 0 1.3-.4 1.5-1.1.6.5 1.8 1.8 2 6.2.4 8.1-6.7 15.7-8.7 15.7-1.8 0-8.8-7.6-8.5-15.7"/>
    <g fill="#fff">
        <path d="M31.9 37.9h.3c.5 0 .9.1 1.4.2l-.5-1.9v-3.8l.5-.7v-1.3l-.7-.2v.8l-.5-.1V30l-.4-.1-.4.2v.8l-.5.2v-.8l-.7.3v1.3l.5.6v3.8l-.5 2.1c.3-.3.9-.5 1.5-.5M36.6 38.5h.2c.5 0 1 .1 1.5.3l-.4-1.8v-3.8l.5-.7v-1.3l-.8-.2v.8l-.5-.2v-.8l-.4-.1-.4.1v.8l-.5.2V31l-.8.2v1.3l.5.7V37l-.5 2c.5-.3 1-.5 1.6-.5M27.1 38.5h.2c.5 0 1 .1 1.5.3l-.5-1.8v-3.8l.5-.7v-1.3l-.7-.2v.8l-.5-.2v-.8l-.4-.1-.4.1v.8l-.5.2V31l-.7.2v1.3l.5.7V37l-.6 2c.5-.3 1-.5 1.6-.5M27 27.2c.5-.1.7.4.8.8.8-.5.5-1.6-.5-1.6-.1 0-.3 0-.4.1-.3.1-.6.5-.7.8-.3 1.1.8 1.8.8 3 .9-.5.1-2.5 0-3.1M32.7 27.2c.8-.5.5-1.6-.5-1.6-.1 0-.3 0-.4.1-.3.1-.6.5-.7.8-.3 1.1.8 1.8.8 3 .8-.4 0-2.4-.1-3 .6-.2.8.3.9.7M36.7 27.2c.5-.1.7.4.8.8.8-.5.5-1.6-.5-1.6-.1 0-.3 0-.4.1-.3.1-.6.5-.7.8-.3 1.1.8 1.8.8 3 .8-.5 0-2.5 0-3.1M45.9 51.9s1.1-1 1.2-2.2c-1 .7-2 .9-3 .9s-1.6-.6-2.9-.8c.1-.4.2-.9.3-1.5.1-.7-.1-1.2-1.1-1.4-2.2-.3-4.3 1-8.1 1.1-3.9-.1-6.5-1.3-8.7-1.1-1 .1-1.2.7-1.1 1.4.1.6.2 1.1.3 1.5-1.3.2-1.9.8-2.9.8s-2-.1-3-.9c.1 1.3 1.2 2.2 1.2 2.2-1.5.1-3-.2-3-.2 2 2.2 4.4 3.4 7.7 1.8 1.5-.8 3 .1 4.5.1 2 0 1.5-1.6 1.2-2.4 1.1.2 2.4.3 3.7.3 1.2 0 2.2-.1 3.2-.3-.2.8-.7 2.4 1.2 2.4 1.4 0 3-.9 4.5-.1 3.2 1.7 5.7.5 7.7-1.8 0 0-1.4.3-2.9.2"/>
    </g>
</svg>