<svg xmlns="http://www.w3.org/2000/svg" viewBox="0 0 64 64">
    <title>flag: Niue</title>
    <g fill="#fff">
        <path d="M42.3 3.8c-1.4-.5-2.8-.9-4.2-1.2L17.8 12.8h-6.1v-1L31.2 2c-1.1 0-2.2.1-3.3.3l-16.2 8.1v-.5c-.3.3-.7.6-1 1-.5.5-1 1-1.4 1.6v1.4c.5.4 1 .9 1.4 1.4h31.7v-2.4H28.8L42.3 6V3.8M21.2 22.6H10.7c-.4.5-.9 1-1.4 1.4V37.4h2.4v-9.8l19.7 9.8h11L17.8 25H26l16.3 8.1v-1.4L28.8 25h13.5v-2.4H21.2"/>
    </g>
    <g fill="#ed4c5c">
        <path d="M8.5 13.4c.3.2.5.3.8.5v-1.4c-.3.2-.5.5-.8.9M17.8 25l24.5 12.3v-4.1L26.1 25zM38.1 2.6c-2-.4-4-.6-6.1-.6h-.8l-19.4 9.7v1h6.1L38.1 2.6M23.9 15.2H10.6c.2.3.4.6.5.9.4.8.7 1.8.7 2.8 0 1-.2 2-.7 2.8-.2.3-.3.6-.5.9H42.2v-7.4H23.9m5.3 7L27 20.7l-2.2 1.6.8-2.5-1.1-.8-1.1-.8h2.7l.8-2.5.8 2.5h2.7l-1.1.8-1.1.8 1 2.4M6.9 25c-.4.1-.8.1-1.3.1-.4 0-.9 0-1.3-.1-.5-.1-.9-.3-1.4-.5-.1.4-.2.9-.3 1.3-.4 2-.6 4-.6 6.1 0 1.8.2 3.6.5 5.3H9.3V24c-.7.5-1.5.8-2.4 1m.9 9.5l-2.2-1.6-2.2 1.6.8-2.5L2 30.4h2.7l.8-2.5.8 2.5H9L6.8 32l1 2.5"/>
    </g>
    <g fill="#2872a0">
        <path d="M28.8 12.8h13.5V6zM11.7 9.9v.5l16.2-8.1c-6.2.8-11.8 3.6-16.2 7.6M11.7 37.3h19.7l-19.7-9.9zM42.3 31.8V25H28.8zM11.5 17l-2.7 1.9-1 .7.2.5L9.3 24c.5-.4 1-.9 1.4-1.4.2-.3.4-.6.5-.9.4-.8.7-1.8.7-2.8-.1-.7-.2-1.3-.4-1.9M10.6 15.2c-.4-.5-.9-1-1.4-1.4-.2-.2-.5-.3-.8-.5-.7.8-1.3 1.7-1.8 2.6L7 17h4.6c-.1-.3-.2-.6-.4-.9-.2-.3-.3-.6-.6-.9"/>
        <path d="M3.4 22.9c-.2.5-.3 1-.4 1.4 0 .1 0 .2-.1.2.4.2.9.4 1.4.5.4.1.8.1 1.3.1s.9 0 1.3-.1c.9-.2 1.7-.6 2.4-1.1l-3.7-2.7-2.2 1.7"/>
    </g>
    <g fill="#ffce31">
        <path d="M44.4 4.7c-.7-.3-1.4-.6-2.1-.8v33.4H2.5c.6 3.2 1.6 6.2 3.1 9 .6 1.1 1.3 2.2 2 3.3C13.1 57.1 22 62 32 62c16.6 0 30-13.4 30-30 0-12.1-7.2-22.6-17.6-27.3M9.3 24L8 20.1l-.2-.5 1-.7 2.7-1.9H7l-.3-1c-.2.3-.4.7-.6 1-.2.3-.3.5-.4.8-.2.3-.3.6-.5.9 0 .1-.1.2-.1.2-.1.1-.1.3-.2.4-.2.4-.3.7-.5 1.1-.4.8-.7 1.6-1 2.5l2.2-1.6L9.3 24"/>
        <path d="M25.7 19.7l-.8 2.5 2.1-1.5 2.2 1.5-.8-2.5 1-.8 1.1-.8h-2.7l-.8-2.5-.8 2.5h-2.7l1.1.8zM3.4 34.5l2.2-1.6 2.2 1.6-.9-2.6 2.2-1.5H6.4l-.8-2.6-.8 2.6H2.1l2.2 1.5z"/>
    </g>
</svg>