<svg xmlns="http://www.w3.org/2000/svg" viewBox="0 0 64 64">
    <title>flag: Slovakia</title>
    <path fill="#f9f9f9" d="M32 2C18.9 2 7.8 10.4 3.7 22h56.6C56.2 10.4 45.1 2 32 2z"/>
    <path fill="#ed4c5c" d="M32 62c13.1 0 24.2-8.3 28.3-20H3.7C7.8 53.7 18.9 62 32 62z"/>
    <path fill="#428bc1" d="M3.7 22C2.6 25.1 2 28.5 2 32s.6 6.9 1.7 10h56.6c1.1-3.1 1.7-6.5 1.7-10s-.6-6.9-1.7-10H3.7z"/>
    <path fill="#f9f9f9" d="M33.9 19H14v13.8c0 9.2 9.6 12 10 12.2.4-.2 10-3 10-12.2V19h-.1"/>
    <path fill="#ed4c5c" d="M16 21v11.9c0 5.6 4.3 8.6 8 10.1 3.7-1.5 8-4.5 8-10.1V21H16z"/>
    <g fill="#f9f9f9">
        <path d="M23 23h2v14h-2z"/>
        <path d="M19 29h10v2H19zM21 25h6v2h-6z"/>
    </g>
    <path fill="#428bc1" d="M24 35c-1.3 0-2.5.6-3.2 1.6-.5-.4-1.1-.6-1.8-.6-.8 0-1.6.3-2.1.9 1.4 3.1 4.4 5 7.1 6.1 2.7-1.1 5.7-3 7.1-6.1-.5-.6-1.3-.9-2.1-.9-.7 0-1.3.2-1.8.6-.7-1-1.9-1.6-3.2-1.6"/>
</svg>