<svg xmlns="http://www.w3.org/2000/svg" viewBox="0 0 64 64">
    <title>flag: Mexico</title>
    <path fill="#ed4c5c" d="M62 32c0-13.1-8.3-24.2-20-28.3v56.6C53.7 56.2 62 45.1 62 32"/>
    <path fill="#75a843" d="M2 32c0 13.1 8.4 24.2 20 28.3V3.7C10.4 7.8 2 18.9 2 32z"/>
    <path fill="#fff" d="M42 3.7C38.9 2.6 35.5 2 32 2s-6.9.6-10 1.7v56.6c3.1 1.1 6.5 1.7 10 1.7s6.9-.6 10-1.7V3.7"/>
    <g fill="#75a843">
        <path d="M40.7 31.7c-.1-.3-.2.1-.2.2 0-.3-.1-.5-.3-.8-.3.3-.4.7-.4 1.1-.1-.3-.2-.6-.5-.7.2.3.1.5.1.8 0 .4.3.7.3 1.1 0 .4-.2.7-.5 1v-.3c-1 .4-.8.9-.8 1.8s-.5.7-1.1 1.2c.1-.2.1-.5 0-.7 0 .6-.8.6-.9 1.1-.1.2 0 .6-.3.7-.2.1-.5.3-.5.5-.2-.1-.4-.1-.7-.1.1-.1.2-.1.3-.2-1-.5-1.3.6-2.2.7-.3 0-1-.4-1 0 .9 0 1.3.8 2 .8.6 0 1.1-.5 1.7-.5-.1 0-.4-.2-.7-.2.5-.3.8-.9 1.4-.9 1 0 1.5-.2 1.8-1.2-.1 0-.2 0-.3.1 0-.4.4-.9.8-1.1 1-.2.9-1 1.5-1.7-.2 0-.4.1-.6.3 0-.6-.1-1.2.4-1.6 1-.5.9-.7.7-1.4m-2.3 5M23.3 31.7c-.2.8-.3 1 .5 1.5.6.4.4 1 .4 1.6-.2-.2-.3-.3-.6-.3.6.6.5 1.5 1.5 1.7.3.2.8.7.8 1.1-.1 0-.2-.1-.3-.1.3 1 .8 1.2 1.8 1.2.6 0 .9.6 1.4.9-.3 0-.6.1-.7.2.6 0 1.1.6 1.7.5.7 0 1.2-.8 2-.8 0-.4-.7 0-1 0-.8-.2-1.1-1.2-2.2-.8.1.1.2.2.3.2-.2 0-.5-.1-.7.1-.1-.2-.3-.4-.5-.5-.2-.2-.2-.5-.3-.7-.2-.5-.9-.6-.9-1.1-.1.2-.1.5 0 .7-.6-.5-1.1-.3-1.1-1.2 0-.8.2-1.4-.8-1.8v.3c-.3-.3-.5-.5-.5-1 0-.4.4-.7.3-1.1 0-.3-.1-.5.1-.8-.3.1-.4.4-.5.7 0-.4-.1-.8-.4-1.1-.1.2-.2.5-.3.8.1-.2 0-.5 0-.2m2.3 5"/>
    </g>
    <path fill="#428bc1" d="M34.7 37.7c-.2 0-.3-.2-.4-.3 0-.2.8-.4.9-.4v-.2c-1.3.4-5.2.7-6-.7-.4.6-1.1.2-1.8-.3.1.2.5 1.2.5 1.1.2.1 1.5.4 1.5.7l-.3.3c2.1.7 3.4.9 5.6-.2"/>
    <path fill="#ed4c5c" d="M33.4 37.7c.1-.1.1-.2.1-.4l-.1-.3c.2-.2 0-.7-.3-.6-.2.1-.1.1-.3 0-.1 0-.1-.1-.2-.1H30.8c-.2 0-.2-.1-.4-.1-.2-.1-.3.1-.4.2 0 .2.1.2.1.3 0 .1-.1.2-.1.4s.1.3.2.4c-.4.3 0 .8.4.5.1.2.4.2.7.2h1.1c.2 0 .6.1.7-.2.3.5.7-.1.3-.3"/>
    <path fill="#428bc1" d="M36.6 35.1c-.8-1-1.2.5-2.1.4.2-1.2-1.6-.8-2.1-.5.1-.1.2-.3.3-.5-.4 0-.9.2-1.2-.1-.6-.4-1.4-.6-1.9.1-.4-.6-1.5-1.2-2.1-.6 0-.6-.6-1.5-1.3-1.4-.8.1-.5 1.1-.1 1.5.3.3.7.4 1.1.4 0 .2.1.3.2.4.5.4 1.5.5 2 .1 0 1 2 1 2.5.5-.2.5-.4 1.5.3 1.5.6 0 .4-.6.9-.8.4-.2.9-.3 1.3-.1.7.4 2.9.3 2.2-.9"/>
    <g fill="#75a843">
        <path d="M28.4 32.6c-.1-.2-.3-.4-.3-.4-.4.1-.4-.2-.5-.5-.1-.5-.8-.7-.8-1.1 0-.4.4-.8.1-1.2-.3-.4-.8-.6-.8-.4-.1.2.4.2.4.7 0 .6-.6 1.1.1 1.6.4.6.4 1.7 1.1 1.7.3 0 .6-.1.7-.4"/>
        <path d="M29.9 32.1c-.2-.4 0-1-.4-1.3-.5-.4-1.5.4-1.6-.6 0-.2 1.1-1.4 1.3-1.5.3-.4.2-1.1-.1-1.3-.4-.2-.5 0-.8.4.1.1.5.3.5.4-.3.7-1.2.8-1.4 1.5-.2.5-.1 1.3.4 1.6.3.2.5.2.8.2.9-.1.4.1.5.3 0 .2.3.9.8.3M26.9 27.2c0 .6.6.5 1 .4 0-.2 0-.4.1-.6-.2.1-.5.1-.6 0-.3-.2.7-.6.6-.6 0 0-1 .5-.6-.1.1-.2.3-.4.4-.6.1-.2-.3 0-.3 0-.1 0-.2 0-.3.1-.6.5-.4.8-.3 1.4"/>
    </g>
    <path fill="#89664c" d="M37.5 27.2c-.5-.7-2.4-3-5.1-3.2-.3 0-1.1.3-1.4.4-.9.6 1 1.1 1.1 1.5 0 .2.1.3.1.5-.3-.5-.6-.8-.7-1-.5.2-1.3-.1-1.4-.6-.1.2-.1.3-.3.5 0-.3-.1-.3-.2-.5 0 .3 0 .7-.3.8.1-.2 0-.4-.1-.6 0 .3 0 .5-.2.7.1-.2-.1-.3-.1-.5-.1.8-1.2 1.1-.1 1.4.4.1.6 0 1 .2.1.1.3.3.3.2 0 .1-.4.5-.1.6-.1.1-.4.7-.4.7.3 0 .1.2-.1.4-.3.5 0 1 .1 1.6 0-.2.3.1.3.4 0 .4.4.6.5.9-.5-.5-.6 0 0 .3-.5 0-.6.3-.1.5-1.2 0-.2.5 0 .6.8.2 1.4-.4 1.4-.5 0 0 1.6 1.6 1.7 1.6.1 0 .9-.4 1.1-.2.2.3.4 0 .6.1.2.2 1 0 1.2-.1.1 0 1.1-.2.9-.4-.5-.4-1.1-.8-1.6-1.2-.5-.4-1-.7-1.4-1.1-.2-.2-.2-.6-.3-.9.9.9 1.8 1.4 1.7-.3.6.5 1.8 3.3 1.9 3.3.3 0 0-3 0-3.3.4.4.4 3.7.5 3.7.5.1 1.2-4.3-.5-6.5"/>
    <g fill="#ffce31">
        <path d="M30.3 32.3c-.1 0-.6-.7-.6-.8.3 1.2-.9.5-.6 0-.4-.1-1.4.5-1 1.1-.2.4 1.4.1 1.5-.1.4.9 1.4-.1.7-.2M35 35.3c.5-.7-1.6-.9-1.4-1.7-.3.2-.7.9-1.1.7-.2-.1-1 .4-.6.7 0-.4.2-.1.5-.2-.1.3-.4.6.1.8-.2-.6.6-.3.5-.6-.2-.2.7-.2.8-.2.3 0 1.3.3.9.6 0 0 .2 0 .3-.1M28.3 26.7c-.1.2-.5.5-.5.8 0 .2.5.7.7.4-.6-.4.1-.7.4-.7.1 0 .1.2.1.2.1.1.9-.2.8-.4.1-.4-1.2-.4-1.5-.3m0 0"/>
    </g>
</svg>