<svg xmlns="http://www.w3.org/2000/svg" viewBox="0 0 64 64">
    <title>flag: Tristan da Cunha</title>
    <path fill="#2a5f9e" d="M12 12h21v21H12z"/>
    <path fill="#fff" d="M18.9 8.1V14h-7.3L26 32h6v-7.5z"/>
    <path fill="#2a5f9e" d="M32 2v30H2c0 16.6 13.4 30 30 30s30-13.4 30-30S48.6 2 32 2z"/>
    <path fill="#fff" d="M11 18.9H5c-1.9 4-3 8.4-3 13.1h12V13.9h-3v5"/>
    <path fill="#ed4c5c" d="M32 27.1L19 11h-6l17 21h2z"/>
    <path fill="#fff" d="M18.9 5v6H11v3h21V2c-4.7 0-9.1 1.1-13.1 3z"/>
    <path fill="#ed4c5c" d="M32 5H18.9c-6 2.9-11 7.9-13.9 13.9V32h6V11h21V5z"/>
    <path fill="#bfe5e8" d="M48.3 24l-3.7 1.2.1-3.8.8-1.3 2.8 3.9m-6.8.5l2.9-2.9v3.6l-2.9-.7"/>
    <path fill="#c7e8eb" d="M42.6 25.2c0 .6.2.7.2.7h5.4s.2-.5.2-.7c-1.5.4-3.7.7-5.8 0"/>
    <path fill="#00a3d6" d="M49 26.2c0-.2.1-.3.1-.5.1-.3-.1-.4-.1-.7v-.5c-.2-.1-.4-.1-.6-.1-.2 0-.4-.1-.5.2h.9c-.6.5-1.7.5-2.4.6-.6 0-1.3.1-1.9 0-.3 0-.8-.1-1.1-.2-.2 0-.5-.1-.7-.2 0-.3 0-.3-.3-.3 0 .3-.2 1.5.4 1.3-.1-.2-.1-.6-.1-.8 1.2.4 3.4.8 6.1 0 0 .3-.1.6-.2.8 0 .1.2.2.4.4"/>
    <path fill="#bc7e22" d="M44.6 20.9s0-.1 0 0c-.2-.1-.2 0-.2 0l-.1 4.4h.2l.1-4.4"/>
    <path fill="#00a3d6" d="M39.2 27.5c.8-.4 1.7-.2 2 .5.2 1-.3 1.8-1 2.5l.1.1c.4-.5.9-.9 1.8-.9-.1.3-.4 1.5-.5 1.7h.4c.1.1.2.2.2.3-.4.1-.8 0-1.2-.1-.6-.3-1.1-.4-1.5.2-.2-.4-.3-.7-.2-1.1.2-.5.4-.9.5-1.4.4-1.2 0-1.7-.6-1.8m0 3.5c-.1.4 0 .9.1 1.3-.5-.1-1-.1-1.4.1 0-.4.2-.6.4-.8-.8-.2-1.4.1-1.7.9.1-.5.2-1 .2-1.5.6-.5 1.5-.4 2.4 0"/>
    <g fill="#9ec1ff">
        <path d="M35.4 28.8c.1.3.4.6.9.9.3.3.5.3.7.3.7-.2 1.1-.6 1.5-1 .2-.3.4-.6.5-.8 0-.1.2-.1.1.1-.2.2-.3.5-.4.8-.1.3-.2.6 0 .9 0-.2.3-.4.5-.5.2-.2.4-.4.4-.7 0-.4 0-.7.3-.8-.1-.4-.3-.5-.7-.6-.3-.3-.7-.4-1.2-.4s-1 .3-1.5.1c.1.4.4.8 1.6.9-.4.4-.9.8-1.8 1.1-.4 0-.7-.1-.9-.3M39.2 31.1c.1 1 1.8 1.7 2.7.9-1.5.1-1.4-.2-2.1-.4.2-.2.5-.3 1.2.1.3.1.7.1 1 .1l.1-.1c0-.2-.1-.2-.2-.3h.4c.3.5.6 1.1 1 1.6-.6.8-1.3 1.3-1.9 1.5 0-.5.2-.9.4-1.2-1.8.6-3-1-2.6-2.2M36.9 32c.1.5.5.8 1.1.8-.3.8-1.5.5-1.4-.2.1-.2.2-.5.3-.6"/>
    </g>
    <g fill="#00a3d6">
        <path d="M50.6 28.1c.3-1 1.1-1.1 2-.9.3-.1.6-.3 1.2-.2.4.1.8.1 1.2 0-.3.5-.8.8-1.7.8.6.5 1.2.9 1.9.9.1.3-.1.6-.4.9-.6 0-1.2-.3-1.7-1 .1.4.1.7 0 1.1-.3-.3-.7-.5-.8-.8-.2-.2-.2-.6-.2-1-.1-.8-1.3-.4-1.5.2M46.8 30c.4-.3.7-.6.9-.9h.4l.6.3c.1.2.2.4.5.6.3.4.6.7 1.4.6-.2.1-.4.2-.5.3l-.2-.1.1.2v.1c.8.3 1.6.6 2.3.1.1.7-.2 1.2-.7 1.4-1.1.2-2.1-.5-2.5-1.5.1.5 0 1-.2 1.6-.4-.4-.7-.9-.7-1.9-.1.5-.3.9-.5 1.3-.4-.8-.4-1.5-.1-2.1-.4.1-.6.1-.8 0"/>
    </g>
    <path fill="#9ec1ff" d="M49 29.8c.3.2.7 0 1.2.1-.2-.2-.4-.4-.4-.6.4-.1.8 0 1.2.3-.4-.5-.6-1.1-.4-1.5.3-.5.7-.8 1.3-.6-.2.3-.2.8-.1 1.2.1.6.4 1.2.6 1.8.4-.2.8-.4 1.2-.5.3-.1.5 0 .8.2.3.4.4.8.2 1.3-.2-.5-.7-.5-1.2-.4.3.2.4.4.3.8-.4-.2-.8-.2-1.1-.1 0 0-.4-.8-1-.9-.3 0-.6.2-.9.3-.3.1-.5 0-.7-.1.1-.3.4-.4.6-.5-.9.2-1.4-.1-1.6-.8m5.7-1.7c.2.2.5.4.5.7.1.3-.1.6-.5.9.3 0 .5-.2.8-.5.2-.2.3-.4.5-.6 0-.8-.9-.9-1.3-.5"/>
    <g fill="#d8a322">
        <path d="M45.1 26.9c0-.5 0-1 .1-1-.9-.8-1.8 0-1.8 0l.4 2.1s-.8-1.3-.4-2.1c0 0-2.1-.5-2.5 1-.1.5.9 1.8.9 1.8 1.6-.9 3.4-.9 3.4-.9 0 .1-.1-.3-.1-.9M49.5 27c-.5-1.5-2.5-1-2.5-1 .4.8-.4 2.1-.4 2.1L47 26s-.9-.8-1.8 0c.1 0 .1.4.1 1 0 .5 0 1-.1 1 0 0 1.8-.1 3.4.9.1-.1 1.1-1.4.9-1.9"/>
    </g>
    <path fill="#fff" d="M45.7 50c1 0 2-.2 2.9-.7.4-.2.9-.5 1.3-.8.1-.1.4-.4.6-.4.1 0 .5.3.6.3.7.2 1.5.1 1.7-.7.1-.3-.1-.7 0-1.1 0-.1.2-.2.2-.3.1-.2.1-.1 0-.3l-.1-.2c-.4-.4-1-.4-1.6-.2-.1 0-.3.2-.4.2-.1 0-.4-.2-.5-.3-.3-.1-.6-.2-1-.1-.6.1-1 .6-1.5 1-.4.3-1.1.5-.7 1.1.3.5 1.1 0 1.5-.1-1.8 1.3-4.1 1.2-5.9 0 .2 0 .4.1.6.1.2 0 .4.3.6.2.6-.1.5-.8.1-1-.5-.3-.8-.7-1.3-1-.7-.4-1.2-.2-2 .1-.2.1-.2.1-.4 0-.1-.1-.3-.1-.5-.2-.3-.1-.6-.1-.8 0-.2.1-.5.3-.6.5-.1.2 0 .2.2.4.1.1.1.2.1.4 0 .7-.1 1.5.9 1.6.4 0 .8-.1 1.2-.3.3-.2.3-.1.6.1.2.2.4.3.6.5 1 .7 2.3 1.2 3.6 1.2"/>
    <path fill="#007dd4" d="M40.7 34.7h9.9v5.9c0 4.1-1.5 5.5-5 6.4-3.6-1-4.9-2.4-4.9-6.5v-5.8"/>
    <path fill="#1799f8" d="M41 34.9h9.5v5.6c0 3.9-1.4 5.2-4.8 6.1-3.4-.9-4.7-2.3-4.7-6.1v-5.6"/>
    <g fill="#fff">
        <path d="M50.4 40.5c0 3.9-1.4 5.2-4.8 6.1-3.4-.9-4.7-2.3-4.7-6.1h9.5M47.5 40.5l-1.8-3.4-1.9 3.4z"/>
    </g>
    <path fill="#1799f8" d="M43.8 40.5l1.9 3.5 1.8-3.5"/>
    <g fill="#fff">
        <path d="M49.3 38.6c-.1-.1-.5-.5-1-.5 0 0 0-.1-.2-.1-.4-.1-.2-.4-.1-.6.1-.2.1-.5-.4-.8s-.9-.2-1.3-.6c-.1.3.7.6.6.7-.1.2.6.9 0 .7-.1-.1-.5-.1-.8 0 .5.1.8.9 1.7 1.1 0 .1.1.3.2.3 0 0 .4.1.6.6.1-.3-.2-.6-.3-.7 0 0 .4-.1.5.2.2.6.9 1.2 1.2 1.3-.3-.6-.5-1.2-.7-1.6M42.1 38.6c.1-.1.5-.5 1-.5 0 0 0-.1.2-.1.4-.1.2-.4.1-.6-.1-.2-.1-.5.4-.8.5-.3.9-.2 1.3-.6.1.3-.7.6-.6.7.1.2-.6.9 0 .7.1-.1.5-.1.8 0-.5.1-.8.9-1.7 1.1 0 .1-.1.3-.2.3 0 0-.4.1-.6.6-.1-.3.2-.6.3-.7 0 0-.4-.1-.5.2-.2.6-.9 1.2-1.2 1.3.3-.6.5-1.2.7-1.6"/>
    </g>
    <g fill="#1799f8">
        <path d="M42.1 42.6c.1.1.5.5 1 .5 0 0 0 .1.2.1.4.1.2.4.1.6-.1.2-.1.5.4.8.5.3.9.2 1.3.6.1-.3-.7-.6-.6-.7.1-.2-.6-.9 0-.7.1.1.5.1.8 0-.5-.1-.8-.9-1.7-1.1 0-.1-.1-.3-.2-.3 0 0-.4-.1-.6-.6-.1.3.2.6.3.7 0 0-.4.1-.5-.2-.2-.6-.9-1.2-1.2-1.3.3.6.5 1.2.7 1.6M49.3 42.6c-.1.1-.5.5-1 .5 0 0 0 .1-.2.1-.4.1-.2.4-.1.6.1.2.1.5-.4.8s-.9.2-1.3.6c-.1-.3.7-.6.6-.7-.1-.2.6-.9 0-.7-.1.1-.5.1-.8 0 .5-.1.8-.9 1.7-1.1 0-.1.1-.3.2-.3 0 0 .4-.1.6-.6.1.3-.2.6-.3.7 0 0 .4.1.5-.2.2-.6.9-1.2 1.2-1.3-.3.6-.5 1.2-.7 1.6"/>
    </g>
    <g fill="#d8a322">
        <path d="M50.4 39.5c-.4-.4.8-2.2 1-2 .3.3.7 1 .9 1.3.4.5-1-1-1.3-.5-.1.1-1.4 2.9.1 3.6-.7-1.9.2-3.9 1.5-1.9.4.6-.3.2-.5 0-1-.8-1 1.8-.1 2.7-.8-3 .4-2.1 1.5-1.1.6.5-1.3 2.7-1.3 2.6-.2-.3-.6-1-1-1-.5 0-1 1.1-.8 1.7.3.7 1.5.7 2.1.6 4.3-1.4 4.8-7.9 3.6-10.1-.2-.3.9-1.1 1.1-.8 2.3 2.9.1 9.3-.2 9.7 3.2-4.6 2.6-10.9-1-10.6-.7 0-2.1.4-3 2.3 0 0 .1-1.5-.9-1.3-.8.2-2.2.9-1.8 1.6.1-.2 1.4-1.1 1.8-1.2.3 0 .3 1.7.1 1.2-.1-.3-.5-.8-.8-.5-.3.2-1.9 1.4-1.1 2.2-.1-.8.9-1.6 1.2-1.8.3-.2 1.1 1.5 1 1.8-.1 0-1-1.3-1.4-1.1-.2.1-1.3 1.9-.7 2.6M41 39.5c.4-.4-.8-2.2-1-2-.3.3-.7 1-.9 1.3-.4.5 1-1 1.3-.5.1.1 1.4 2.9-.1 3.6.7-1.9-.2-3.9-1.5-1.9-.4.6.3.2.5 0 1-.8 1 1.8.1 2.7.8-3-.4-2.1-1.5-1.1-.6.5 1.3 2.7 1.3 2.6.2-.3.6-1 1-1 .5 0 1 1.1.8 1.7-.3.7-1.5.7-2.1.6-4.3-1.4-4.8-7.9-3.6-10.1.2-.3-.9-1.1-1.1-.8-2.3 2.9-.1 9.3.2 9.7-3.2-4.6-2.6-10.9 1-10.6.7 0 2.1.4 3 2.3 0 0-.1-1.5.9-1.3.8.2 2.2.9 1.8 1.6-.1-.2-1.4-1.1-1.8-1.2-.3 0-.3 1.7-.1 1.2.1-.3.5-.8.8-.5.3.2 1.9 1.4 1.1 2.2.1-.8-.9-1.6-1.2-1.8-.3-.2-1.1 1.5-1 1.8.1 0 1-1.3 1.4-1.1.2.1 1.3 1.9.7 2.6"/>
    </g>
    <path fill="#8ca8c2" d="M47.8 33.6c.2.3.3.6.2 1h-.4c.2-.5.1-.9-.6-1-1-.1-2.1 1.8-3.8 2-.5-.6-.5-1.7.2-2.2-.3-.9-1-2-1.5-2.4H41c.2-.5 1-1.1 1.5-1.3.1-.1.2-.3.3-.4.1-.7 3.5-.4 4.3.1 0 .8.4 3.5.7 4.2"/>
    <path fill="#d8a322" d="M42.5 29.7c1.8-.8 3.9-.8 5.7 0 .1-.2.3-.5.4-.7-2.1-.9-4.5-.9-6.5 0 .1.3.2.5.4.7"/>
</svg>