<svg xmlns="http://www.w3.org/2000/svg" viewBox="0 0 64 64">
    <title>flag: Vatican City</title>
    <path fill="#f9f9f9" d="M62 32C62 15.4 48.6 2 32 2v60c16.6 0 30-13.4 30-30"/>
    <path fill="#ffe62e" d="M2 32c0 16.6 13.4 30 30 30V2C15.4 2 2 15.4 2 32z"/>
    <path fill="#fff" d="M49 21.3c0 2.9 0 3.8-3 3.8s-3-.9-3-3.8 1.3-5.3 3-5.3 3 2.4 3 5.3"/>
    <g fill="#dbb471">
        <path d="M47.5 17.8L46 16.6l-1.5 1.2-1.5-1.2.5 2.4h5l.5-2.4zM47.5 20.6L46 19.2l-1.5 1.4-1.5-1.4V22h6v-2.8zM47.5 23.5L46 22l-1.5 1.5L43 22v3h6v-3z"/>
        <ellipse cx="46" cy="15.1" rx=".5" ry="1.5"/>
    </g>
    <g fill="#fff">
        <ellipse cx="46" cy="25" rx="3" ry=".7"/>
        <path d="M41.9 32.6c-1.4 0-2.5-2.1-2.6-2.8-.2-1 .3-2 .8-3.1.3-.5.7-1.6.7-1.9-.1-.4-1.2-1.5-2.3-2.3l1.2-1.6c.8.6 2.7 2.3 3 3.4.2 1-.3 2-.8 3.2-.3.6-.7 1.5-.7 1.9.1.3.4.8.7 1.1.5-.5 1.3-2.9 1.7-5.3l2 .3c-.4 2.5-1.4 6.7-3.4 7-.1.1-.2.1-.3.1M50.1 32.6h-.2c-2.1-.3-3-4.5-3.4-7l2-.3c.4 2.3 1.1 4.6 1.7 5.2.3-.3.6-.8.7-1.1.1-.3-.4-1.3-.7-1.9-.5-1.1-1-2.2-.8-3.2.3-1.2 2.2-2.8 3-3.4l1.2 1.6c-1.1.9-2.2 2-2.3 2.3-.1.3.4 1.3.7 1.8.5 1.1 1 2.2.8 3.1-.3.8-1.3 2.9-2.7 2.9"/>
    </g>
    <path fill="#dbb471" d="M41.5 36.6c-1.4-.9-3.2-.7-4.5.6-1.4 1.6-1.4 4.1 0 5.6 1.4 1.6 3.8 1.6 5.2 0 1.2-1.3 1.4-3.3.6-4.8l9.6-10.2 1.3 1.4 1.3-1.4-2.6-2.8-10.9 11.6"/>
    <path fill="#fff" d="M40.3 39.4c.3-.3.3-.8 0-1.2s-.8-.3-1.2 0c-.3.3-.3.8 0 1.2-.3-.3-.8-.3-1.2 0-.3.3-.3.8 0 1.2.3.3.8.3 1.2 0-.3.3-.3.8 0 1.2.3.3.8.3 1.2 0s.3-.8 0-1.2c.3.3.8.3 1.2 0 .3-.3.3-.8 0-1.2-.4-.3-.9-.3-1.2 0"/>
    <path fill="#d0d0d0" d="M50.5 36.6c1.4-.9 3.2-.7 4.5.6 1.4 1.6 1.4 4.1 0 5.6-1.4 1.6-3.8 1.6-5.2 0-1.2-1.3-1.4-3.3-.6-4.8l-9.6-10.2-1.3 1.4-1.3-1.4 2.6-2.8 10.9 11.6"/>
    <path fill="#fff" d="M51.7 39.4c-.3-.3-.3-.8 0-1.2.3-.3.8-.3 1.2 0 .3.3.3.8 0 1.2.3-.3.8-.3 1.2 0 .3.3.3.8 0 1.2-.3.3-.8.3-1.2 0 .3.3.3.8 0 1.2-.3.3-.8.3-1.2 0s-.3-.8 0-1.2c-.3.3-.8.3-1.2 0-.3-.3-.3-.8 0-1.2.4-.3.9-.3 1.2 0"/>
    <g fill="#ed4c5c">
        <path d="M50.4 39.8c-2.9.4-5.9.4-8.8 0-.6-.1-.8.6-.2.7 3.1.5 6.2.5 9.3 0 .6-.2.3-.8-.3-.7"/>
        <path d="M50.3 39.2c-1.8-1.3-3.4-2.9-4.7-4.7-.3-.4-.8-.1-.5.2 1.4 1.9 3.1 3.6 5 5 .3.3.6-.2.2-.5"/>
        <path d="M46.4 34.5c-1.3 1.8-2.9 3.4-4.7 4.7-.4.3-.1.8.2.5 1.9-1.4 3.6-3.1 5-5 .3-.3-.2-.5-.5-.2"/>
        <path d="M45.5 31h1v13h-1z"/>
        <path d="M43.481 33.436l.708-.707 2.404 2.404-.707.708z"/>
        <path d="M45.411 35.062l2.404-2.404.707.707-2.404 2.404z"/>
    </g>
    <g fill="#ff717f">
        <path d="M45.5 42.7c-.6 0-1 .4-1 1v3h2v-3c0-.5-.4-1-1-1"/>
        <path d="M46.5 41.8c-.6 0-1 .4-1 1v3h2v-3c0-.6-.4-1-1-1"/>
    </g>
    <g fill="#94989b">
        <circle cx="42.6" cy="37.1" r="1.2"/>
        <circle cx="36.8" cy="42.9" r="1.2"/>
        <circle cx="36.8" cy="37.1" r="1.2"/>
        <circle cx="42.6" cy="42.9" r="1.2"/>
    </g>
    <g fill="#dbb471">
        <circle cx="55.2" cy="37.1" r="1.2"/>
        <circle cx="49.4" cy="42.9" r="1.2"/>
        <circle cx="49.4" cy="37.1" r="1.2"/>
        <circle cx="55.2" cy="42.9" r="1.2"/>
        <path d="M38.1 20.9h2v2.2h-2zM51.9 20.9h2v2.2h-2zM43.577 28.624l.607-2.218.58.158-.608 2.219z"/>
        <path d="M43.386 27.408l.16-.579 1.542.425-.159.578zM47.2 26.532l.578-.158.608 2.218-.58.158z"/>
        <path d="M46.95 27.212l1.543-.424.16.579-1.543.424z"/>
    </g>
    <g fill="#fff">
        <path d="M52.5 28.1l-1.7 1.5-1.1-3.1 1.7-.9zM39.5 28.1l1.7 1.5 1.1-3.1-1.7-.9z"/>
    </g>
    <g fill="#dbb471">
        <path d="M41.5 26.5l-.6-.2-.1.5-.4-.1-.2.6.4.1-.2 1.1.5.2.3-1.1.5.1.1-.6-.4-.1zM51.8 27.3l-.2-.6-.4.1-.1-.5-.6.2.1.5-.4.1.1.6.5-.1.3 1.1.5-.2-.2-1.1z"/>
    </g>
</svg>