<svg xmlns="http://www.w3.org/2000/svg" viewBox="0 0 64 64">
    <title>flag: U.S. Virgin Islands</title>
    <circle cx="32" cy="32" r="30" fill="#f5f5f5"/>
    <g fill="#ffce31">
        <path d="M28.7 24.6c-.2.5-.6.7-.6.7s7.9.7 7.6 0c-.3-.7-.9-1.2-.9-1.2s.6-.1.8-.3c-1-.5-1.6-1.5-1.6-1.5.3.1.7 0 .7 0-1.1-1.6-.6-2-1-3s-1.1-1.2-1.3-1.3c-.2-.1-1.3-.2-1.8 0-.4.2-.5.5-.5.5s-.4-.1-.5.3v.1H29c-1.1.1-.9 1.5-.9 1.5.1-.1.3-.5.7-.4.4.1.5 0 .7 0 .7 0 .8.7.8.9 0 0-.1.1-.1.2-.3.4-.3.6-.3.6-.2 1.2-.9 1.3-.9 1.3.4.2.5.1.6.1-.4.2-.9.8-.9.8-.3.5-.6.4-.6.4.3.4.6.3.6.3M57.1 17c-.4-.8-1.7.1-3.2.6 0 0-3.6 1.1-5.7 1.6-.2 0-.4.1-.4.1-5.8 1.5-7.4 2.4-7.4 2.4-1.1.7-.8 2.3-.1 2.8.3.2.3.6.1.8-.3.2-.6 0-.6 0-1-.5-1.5-.1-1.5-.1s-.9 4.3.2 4.9l-.2 1.4s.8.7 1.6 0c0 0 .3.3.9.2.6-.1.7-.4.7-.6 0 0 .5.3.9.1.4-.2.4-.6.4-.6s.7.1 1.1-.4c.4-.5.1-1-.1-1 0 0 .8.2 1-.5.2-.6-.2-.9-.2-.9s1.7 0 2.3-.5c0 0 .6-.4.2-.7 0 0 1.5-.2 1.9-.8 0 0 .2-.2.1-.5 0 0 0-.2-.2-.2 0 0 1.7-.3 2.2-.8 0 0 .2-.3.1-.6 0 0 0-.1-.1-.2 0 0 1.6-.3 2.3-1 0 0 .4-.4.2-.9 0 0 2.6-.7 2-1.9 0 0 1.2-.4.8-1.5.1.1 1.1-.4.7-1.2M19.3 28.8c.2.7 1 .5 1 .5-.2.1-.4.5-.1 1 .4.5 1.1.4 1.1.4s0 .3.4.6c.4.2.9-.1.9-.1.1.2.1.5.7.6.6.1.9-.2.9-.2.7.7 1.6 0 1.6 0l-.2-1.4c1.1-.6.2-4.9.2-4.9s-.5-.4-1.5.1c0 0-.3.2-.6 0-.2-.2-.2-.6.1-.8.7-.5 1-2.1-.1-2.8 0 0-1.6-.9-7.4-2.4s-.2-.1-.4-.1c-2.1-.4-5.7-1.6-5.7-1.6-1.5-.4-2.8-1.3-3.2-.6-.4.8.6 1.3.6 1.3-.4 1.1.8 1.5.8 1.5-.6 1.1 2 1.9 2 1.9-.2.5.2.9.2.9.8.7 2.3 1 2.3 1 0 .1-.1.2-.1.2-.1.3.1.6.1.6.5.6 2.2.8 2.2.8-.2 0-.2.2-.2.2-.1.3.1.5.1.5.4.6 1.9.8 1.9.8-.3.4.2.7.2.7.7.5 2.3.5 2.3.5s-.3.2-.1.8M26.1 37.4s.2-.6 1.1-1.1c0 0 1.1-.4 1.1-.9S25.9 32 25.9 32s-.2.9-1.6 2.1c0 0-1.1.9-1 2 0 1.1-.2 1.2-.6 1.6h.3c-.3.4-.8.9-1.4 1 0 0-1.4-.2-1.9.2-.3.3-.6.5-.7 1.2-.1.7.2.8.3.8 0 0 .1.5.5.4 0 0 0 .5.9.3.8-.2 1.2-.2 1.3-1 .2-.8.3-.8.5-.9.2-.1.6-.3.9-.4.2-.1 1-.5 1.4-.6 0 .1 0 .2.1.3 0 0 .1-.2.4-.3 0-.3.6-.4.8-1.3M44.3 38.9c-.4-.4-1.9-.2-1.9-.2-.6 0-1.1-.6-1.4-1h.3c-.4-.4-.6-.5-.6-1.6s-1-2-1-2c-1.4-1.2-1.6-2.1-1.6-2.1s-2.4 2.9-2.4 3.4 1.1.9 1.1.9c1 .5 1.1 1.1 1.1 1.1.2.9.8 1 .8 1 .3.1.4.3.4.3 0-.1.1-.2.1-.3.4.1 1.2.5 1.4.6.3.2.7.3.9.4.1.1.3.1.5.9s.5.8 1.3 1c.8.2.9-.3.9-.3.5.1.5-.4.5-.4.1 0 .4-.2.3-.8-.2-.5-.5-.7-.7-.9M36.1 36.8c0-.2-.1-.5-.5-1-1-1.1-2.6 1.3-3 2-.1-.2-.3-.3-.5-.3s-.4.1-.5.3c-.5-.7-2-3.1-3-2-.4.5-.5.8-.5 1-3.9 3.6-2 3.9-2 3.9 0 .9.8.7.8.7-.1 1 .7.9.7.9 0 1.1.8.9.8.9.1 1.2 1 .7 1 .7 0 1 .6 1.1.6 1.1.7.1 1-.7 1.1-.9v.5c.1.8.5 1.4 1.1 1.4.6 0 1-.7 1.1-1.4v-.5c.1.3.4 1 1.1.9 0 0 .6-.1.6-1.1 0 0 .9.5 1-.7 0 0 .8.2.8-.9 0 0 .8.1.7-.9 0 0 .8.2.8-.7-.2.1 1.7-.2-2.2-3.9"/>
    </g>
    <path fill="#0081c6" d="M47.3 33.9l.8.4-4 4.6.5.5 3.9-4.7.5.8 1.9-4z"/>
    <g fill="#428bc1">
        <path d="M47.6 32.2l.6.7 1-4.4-3 3.2.8.2-2.7 5.3.8-3.7.8.5-.1-4.5-2.2 3.9h.9l-1.3 5.4.6.4.1-.2.1.1zM43.4 42.3l-.4-.6.1-.5.3-.4c0-.1 0-.2-.1-.3-.1-.1-.2-.2-.3-.2-.1-.1-.3-.1-.3-.1l-.5 1h-1l-.4.8-.3-.1-2.8 3.3 1.5.1.3 1.5 1-1.2-.3 1.1 1.4-.6.9 1.2 1-4.3-.4-.4.3-.3"/>
    </g>
    <g fill="#83bf4f">
        <path d="M20.9 39.1s0-.3.6-.6.7-1.1.5-1.7c0 0-.3.6-.7.7 0 0-.6.3-.7 1 0 0 0 .2-.1.4 0 .1-.3-.8.2-1.5.6-.7.7-1.2.3-2.3 0 0 0 .7-.5 1-.4.4-.5.4-.5 1.3 0 0 0 .3-.2.4 0 0-.3-.5-.4-.8-.1-.3-.1-.5.3-.8 0 0 1.2-.8.3-2.5 0 0 0 .6-.5 1-.4.4-.4.6-.4 1.2s-.1.6-.1.7c0 0-.8-1.4-.2-2.2.6-.8.9-.9.3-2.3 0 0 0 .7-.5 1.1-.5.4-.4 1.2-.4 1.2s0 .3-.1.5c0 0-.8-1.5 0-2.3.6-.7.6-1.1.3-2.1 0 0 0 .4-.4.7-.3.2-.6.5-.5 1.4 0 0 0 .6-.1.8 0 0-.3-.6-.4-1s-.1-.6.1-1 1.2-1.5.1-3.1c0 0 0 .5-.3 1s-.1 1-.1 1.4c.1.4-.1.8-.1.8s-.5-.9-.4-1.9c.1-1-.3-1.8-1.2-2.4 0 0-.7 1.6.2 2.4 0 0 .8.8 1 1.7 0 0-.6-.1-1.1-1.1-.5-1.1-1.7-.9-1.7-.9s.2 1.6 1.9 2.1c0 0 1.1.2 1.3 1 0 0 .2.6.3.8 0 0-.3-.1-.7-.6-.3-.5-.3-.5-1.4-.6 0 0-.4 0-.7-.4 0 0 .5 1.7 1.6 1.7 0 0 1.1-.1 1.7 1.3 0 0-.1-.1-.3-.2-.2-.1-.6-.3-1.3-.2-.8.1-1 0-1.2-.1 0 0 .8 1.5 1.9 1 1.1-.4 1.7 1.1 1.7 1.2 0 0-.2-.1-.3-.3-.2-.2-.6-.4-1.4-.2 0 0-.6.2-1.1 0 0 0 .5 1.1 1.8.9 1.3-.2 1.6.9 1.6.9s-.2-.1-.3-.2c-.1-.1-.5-.3-1.5-.1-.9.3-1.3 0-1.3 0s.5.9 1.5 1c0 0 .5 0 .8-.1.2-.1.8-.2 1.3.4 0 0-.1 0-.3-.1 0 0-.7-.2-1.2.2 0 0-.4.5-1.1.4 0 0 .8.8 2.1.1 0 0 .4-.3.8-.1.5.4 1.2 0 1.2 0M20.8 41s0-.6.7-.6l2.2 3s-.1.2-1.1.2c0 0-.1 0-.2.1 0 .2-1.6-2.7-1.6-2.7"/>
    </g>
    <path fill="#fff" d="M31.9 38.4s6.6-2.9 6.6-9.7H25.3c0 6.8 6.6 9.7 6.6 9.7"/>
    <g fill="#ed4c5c">
        <path d="M26.3 28.7V33s.5 1 1 1.6v-5.9h-1M28.4 28.7v7.1s.6.6 1 .9v-8h-1M30.4 28.7v8.8s.7.5 1 .6v-9.4h-1M37.5 28.7V33s-.5 1-1 1.6v-5.9h1M35.5 28.7v7.1s-.6.6-1 .9v-8h1M33.5 28.7v8.8s-.7.5-1 .6v-9.4h1"/>
    </g>
    <g fill="#428bc1">
        <path d="M38.5 23.8s-3.2 1.7-6.6-.1c-3.4 1.8-6.6.1-6.6.1v4.9h13.2v-4.9M8.4 36.4c.4-.1.6-.3.6-.6 0-.1 0-.3-.1-.5l-2.1-6.6c-.1-.4-.2-.6-.3-.7-.1-.2-.3-.3-.5-.4h2.8c-.3.1-.6.3-.6.6 0 .1 0 .3.1.5l1.6 5.2 1.6-5.2c.1-.2.1-.4.1-.5 0-.3-.3-.4-.6-.6H13.7c-.2.1-.4.2-.5.4 0 .1-.1.3-.3.7l-2.1 6.6c-.1.3-.1.5-.1.5s-.1.4.6.6H8.4M54.2 35.7v-7.4c0-.1 0-.2-.1-.3 0-.1-.2-.3-.5-.4H56.1c-.3.1-.4.3-.5.4s-.1.2-.1.3v7.4c0 .1 0 .2.1.3 0 .1.2.2.5.4H53.6c.3-.1.4-.3.5-.4.1-.1.1-.2.1-.3"/>
    </g>
</svg>