<svg xmlns="http://www.w3.org/2000/svg" viewBox="0 0 64 64">
    <title>flag: Kazakhstan</title>
    <circle cx="32" cy="32" r="30" fill="#00afca"/>
    <g fill="#ffe62e">
        <path d="M56.7 33.1c-.7-.4-1.5.1-1.5.8-.3 4.9-8.9 6.2-13 6.2-4.1.1-12.9-1.4-13.2-6.2 0-.7-.8-1.1-1.5-.8-2.1 1.1-2.8 3.2-2.3 5.3.9 3.8 5.6 6.5 9.6 7.7-.3.7-.4 1.4-.5 2.1-.1.8 1.1 1.1 1.7.6 2.3-1.7 5.9-2.4 8.9-2.4 1.3 0 1.3-1.8 0-1.8-2.7 0-5.6.5-8 1.6.9-2.1 3-4.2 5.3-4.3h.1c4.8.1 12.5-1.6 14.5-6.1.3.8.3 1.7 0 2.5-1 3.2-4.5 4.5-7.8 5.4-1.2.3-.7 2.1.5 1.7 4.2-1.1 7.5-2.8 9.2-6.6.8-2 0-4.4-2-5.7M35.6 44.4c-3.3-.9-5.8-2.5-7.8-5.1-.8-1.1-1.1-2.6-.4-3.7 1.5 3.5 6.4 5.3 10.8 5.9-1 .8-1.9 1.8-2.6 2.9"/>
        <circle cx="42" cy="27" r="7.7"/>
        <path d="M42 18.3c.5 0 .6-.3.6-.6 0-.5-.6-2.6-.6-2.6s-.6 2.2-.6 2.6c0 .3.1.6.6.6"/>
    </g>
    <g fill="#ffe62e">
        <path d="M45.3 18.9c.4.2.7 0 .8-.3.2-.4.4-2.7.4-2.7s-1.4 1.8-1.6 2.2c0 .3 0 .7.4.8M50.1 30.3c-.2.4 0 .7.3.8.4.2 2.7.4 2.7.4s-1.8-1.4-2.2-1.6c-.3 0-.7 0-.8.4M38.7 35.1c-.4-.2-.7 0-.8.3-.2.4-.4 2.7-.4 2.7s1.4-1.8 1.6-2.2c0-.3 0-.7-.4-.8M33.9 23.7c.2-.4 0-.7-.3-.8-.4-.2-2.7-.4-2.7-.4s1.8 1.4 2.2 1.6c.3 0 .7 0 .8-.4M48.2 20.8c.3.3.7.2.9 0 .3-.3 1.4-2.3 1.4-2.3s-2 1.1-2.3 1.4c-.3.3-.3.6 0 .9M48.2 33.2c-.3.3-.2.6 0 .9.3.3 2.3 1.4 2.3 1.4s-1.1-2-1.4-2.3c-.3-.3-.6-.3-.9 0M35.8 33.2c-.3-.3-.7-.2-.9 0-.3.3-1.4 2.3-1.4 2.3s2-1.1 2.3-1.4c.3-.3.3-.6 0-.9M35.8 20.8c.3-.3.2-.7 0-.9-.3-.3-2.3-1.4-2.3-1.4s1.1 2 1.4 2.3c.3.3.6.3.9 0M50.1 23.7c.2.4.5.5.8.3.4-.2 2.2-1.6 2.2-1.6s-2.3.3-2.7.4c-.3.2-.5.4-.3.9M45.3 35.1c-.4.2-.5.5-.3.8.2.4 1.6 2.2 1.6 2.2s-.3-2.3-.4-2.7c-.2-.3-.4-.5-.9-.3M33.9 30.3c-.2-.4-.5-.5-.8-.3-.4.2-2.2 1.6-2.2 1.6s2.3-.3 2.7-.4c.3-.2.5-.4.3-.9M38.7 18.9c.4-.2.5-.5.3-.8-.2-.4-1.6-2.2-1.6-2.2s.3 2.2.4 2.7c.2.3.4.5.9.3M43.7 18.4c.4.1.7-.2.7-.5.1-.4-.1-2.7-.1-2.7s-1 2-1.1 2.5c-.1.3.1.6.5.7M50.6 28.7c-.1.4.2.7.5.7.4.1 2.7-.1 2.7-.1s-2-1-2.5-1.1c-.3-.1-.6.1-.7.5M40.3 35.6c-.4-.1-.7.2-.7.5-.1.4.1 2.7.1 2.7s1-2 1.1-2.5c.1-.3-.1-.6-.5-.7M33.4 25.3c.1-.5-.2-.7-.5-.7-.4-.1-2.7.1-2.7.1s2 1 2.5 1.1c.3.1.6-.1.7-.5M46.9 19.7c.4.2.7.1.9-.2.3-.4.9-2.5.9-2.5s-1.7 1.5-2 1.8c-.2.3-.2.7.2.9M49.3 31.9c-.2.4-.1.7.2.9.4.3 2.5.9 2.5.9s-1.5-1.7-1.8-2c-.3-.2-.7-.2-.9.2M37.1 34.3c-.4-.2-.7-.1-.9.2-.2.3-.9 2.5-.9 2.5s1.7-1.5 2-1.8c.2-.3.2-.7-.2-.9M34.7 22.1c.2-.4.1-.7-.2-.9-.3-.2-2.5-.9-2.5-.9s1.5 1.7 1.8 2c.3.2.7.2.9-.2M49.3 22.1c.3.4.6.4.9.2.4-.3 1.8-2 1.8-2s-2.2.7-2.5.9c-.3.3-.5.6-.2.9M46.9 34.3c-.4.3-.4.6-.2.9.3.4 2 1.8 2 1.8s-.7-2.2-.9-2.5c-.3-.3-.6-.5-.9-.2M34.7 31.9c-.3-.4-.6-.4-.9-.2-.4.3-1.8 2-1.8 2s2.2-.7 2.5-.9c.3-.3.5-.6.2-.9M37.1 19.7c.4-.3.4-.6.2-.9-.3-.4-2-1.8-2-1.8s.7 2.2.9 2.5c.3.3.6.5.9.2M50.6 25.3c.1.4.4.6.7.5.4-.1 2.5-1.1 2.5-1.1s-2.3-.2-2.7-.1c-.4 0-.6.2-.5.7M43.7 35.6c-.4.1-.6.4-.5.7.1.4 1.1 2.5 1.1 2.5s.2-2.3.1-2.7c0-.4-.2-.6-.7-.5M33.4 28.7c-.1-.4-.4-.6-.7-.5-.4.1-2.5 1.1-2.5 1.1s2.3.2 2.7.1c.4 0 .6-.2.5-.7M40.3 18.4c.4-.1.6-.4.5-.7-.1-.4-1.1-2.5-1.1-2.5s-.2 2.3-.1 2.7c0 .4.2.6.7.5M16.5 51.6h-1.1v3.7h-2.2c1.1.9 2.2 1.6 3.4 2.4v-6.1zM15.4 8.7v3.7h1.1V6.3c-1.2.7-2.3 1.5-3.4 2.4h2.3M12.9 8.8c-.3.2-.6.5-.9.8l3 6.5h-2.5v-3.7h-1.1v3.7H8.9l2.9-6.3c-.8.7-1.6 1.5-2.3 2.4l-2.3 4.9 3.9 8.4H8.6v-3.7H7.5v9.8h1.1v-4.1h2.6L9.7 32l1.5 4.4H8.6v-4.1H7.5v9.8h1.1v-3.7h2.5l-3.9 8.4 2.3 4.9c.7.8 1.5 1.6 2.3 2.4l-2.9-6.3h2.5v3.7h1.1v-3.7H15l-3 6.5c.3.3.6.5.9.8l3.8-8.3-3.9-8.4h2.5v3.7h1.1v-9.8h-1.1v4.1h-2.6l1.5-4.4-1.5-4.4h2.6v4.1h1.1v-9.8h-1.1v3.7h-2.5l3.9-8.4-3.8-8.4m2.2 37.1h-2.5v-3.7h-1.1v3.7H8.9l3.1-6.6 3.1 6.6M12 35.2l-.8-2.3h1.6l-.8 2.3m.8-4.1h-1.6l.8-2.3.8 2.3m-.8-6.3l-3.1-6.6h2.5v3.7h1.1v-3.7H15l-3 6.6"/>
    </g>
</svg>