<svg xmlns="http://www.w3.org/2000/svg" viewBox="0 0 64 64">
    <title>flag: Serbia</title>
    <path fill="#ed4c5c" d="M32 2C18.9 2 7.8 10.4 3.7 22h56.6C56.2 10.4 45.1 2 32 2z"/>
    <path fill="#f9f9f9" d="M32 62c13.1 0 24.2-8.3 28.3-20H3.7C7.8 53.7 18.9 62 32 62z"/>
    <path fill="#2872a0" d="M3.7 22C2.6 25.1 2 28.5 2 32s.6 6.9 1.7 10h56.6c1.1-3.1 1.7-6.5 1.7-10s-.6-6.9-1.7-10H3.7z"/>
    <path fill="#ed4c5c" d="M15.5 21.7v16.2C15.5 43.5 20.2 48 26 48s10.5-4.5 10.5-10.1V21.7h-21"/>
    <path fill="#fff" d="M29.8 46.3l-.2-.9-.8-1.4.3-.2-.2-.9-.7-1.1.2-.1-.2-.9-.5-1 .8-1.5.5 1.6.4-.6.6.9.2-.6.6.3-.1-1.2 1.4.4-1-1.3h.1l-.8-1.6.2-.6.5 1 .2-.4.8 2.2v-.1l.4.8.2-.4.8 1.6.3-.9 1.2.9s-.1-3-.1-3.9c.2-2.6 1.1-7.9.4-10.3-.3-1.2-2.7-4.1-2.7-4.1s-.1 3.5-.7 4.6c-.2.4-2 1.5-2 1.5l-.7-.1.3-.1-1.3-1.3.5-2.6 1.3-1.9-2 .1-1.5.4.4.6-.9 3.2-.9-3.1.4-.6-1.5-.5-2-.1 1.3 1.9.5 2.6-1.3 1.3.3.1-.8.2s-1.8-1.1-2-1.5c-.6-1-.7-4.6-.7-4.6s-2.4 2.9-2.7 4.1c-.7 2.5.3 7.8.4 10.3.1 1-.1 3.9-.1 3.9l1.2-.9.3.9.8-1.6.2.4.4-.8v.1l.8-2.2.2.4.5-1 .2.6-.8 1.6h.1l-1 1.3 1.4-.4V40l.6-.3.2.6.6-.9.4.6.5-1.6.8 1.5-.5 1-.2.9.2.1-.7 1.1-.2.9.3.2-.7 1.5-.2.9 7.5-.2"/>
    <g fill="#ffce31">
        <path d="M20 41.7l.2-.4.9-.4.6-.2h.4l.1-.1-.6-.3-.1-.1-.5.2-.4.3.8-1 .7-1.6-1.1.7-1 1.8-.4.2h-1l-.5-.1-.6.3.1.1h.4l.4.2.9-.1-1 .3-.2.4v.6h.1l.1-.3h.5l.9-.8-.7 1.1-.1.5.3.7.2-.1v-.5l.4-.4zM31.9 41.7l-.1-.4-.9-.4-.6-.2h-.4l-.1-.1.6-.3.1-.1.5.2.4.3-.8-1-.7-1.6 1.1.7 1 1.8.4.2h1l.5-.1.6.3-.1.1H34l-.4.2-.9-.1 1 .3.2.4v.6h-.1l-.1-.3h-.5l-.9-.8.7 1.1.1.5-.3.7-.2-.1v-.5l-.4-.4zM21.4 22.2c-1 .1-.9.8 0 1.7.2.2.2.2.3 0 .1-.3.4-.5.6-.3.1.2.1.3.5.2.1.1.3.2.4.3-.1 0-.5.1-1.1.2-.5.1-.8-.1-1.2-.5.1.5 1.3.8 1.2.8.1.2.1.3.2.3.4.1.8-.2 1.2-.1.9.2-.6-2.3-.5-2.4.1-.2-1.3-.6-1.6-.2M29.6 25c.1 0 .1 0 .2-.3-.1 0 1.1-.3 1.2-.8-.3.4-.7.6-1.2.5-.6-.1-1-.3-1.1-.2.1-.1.2-.2.4-.3.4.1.4 0 .5-.2.2-.2.5-.1.6.3 0 .2.1.2.3 0 .9-.9 1-1.6 0-1.7-.2-.4-1.6 0-1.5.3 0 .1-1.4 2.6-.5 2.4.3-.2.7 0 1.1 0"/>
    </g>
    <path fill="#ed4c5c" d="M21.6 28.6v7.3c0 2.2 2 4 4.4 4s4.4-1.8 4.4-4v-7.3h-8.8"/>
    <g fill="#fff">
        <path d="M24.8 27.3h2.5v15h-2.5z"/>
        <path d="M19.1 32.3h13.8v2.5H19.1zM24 30.4l-1 1 .3-1-.3-.9zM24 36.7l-1 1 .3-1-.3-1zM28 30.4l1 1-.2-1 .2-.9zM28 36.7l1 1-.2-1 .2-1z"/>
    </g>
    <path fill="#428bc1" d="M27 11.7h-2v2h2z"/>
    <g fill="#ffce31">
        <path d="M25.1 10.4l.2.1.2-.1h.3v1.2H25v.4h2v-.4h-.8v-1.2h.3l.2.1.2-.1.2-.2-.2-.2-.2-.2-.2.2h-.3v-.4l.2-.2-.2-.2L26 9l-.2.2-.2.2.2.2v.4h-.3l-.2-.2-.2.2-.2.2zM32.5 14.4c-1.3-.7-2.1-.9-2.4-.4 0 0 0 .1-.1.1-1.6-.8-2.8-.9-4-.4-1.2-.5-2.3-.4-4 .4 0-.1 0-.1-.1-.1-.3-.5-1.1-.4-2.4.4-1.3.7-2.5 1.7-2.2 2.1.1.7.5 1.3 1.2 2 .8.4 2.4.5 4.1.4 2.2-.1 4.5-.1 6.7 0 1.7.1 3.3 0 4.1-.4.7-.7 1.1-1.3 1.2-2 .4-.3-.9-1.3-2.1-2.1"/>
    </g>
    <g fill="#ed4c5c">
        <path d="M27.4 17.2c.8-.7 1.3-1.4 1.7-2.1-.7-.2-1.4-.3-2-.2.1.8.2 1.6.3 2.3M24.6 17.2c.1-.8.2-1.6.4-2.4-.6-.1-1.3 0-2 .2.2.8.8 1.5 1.6 2.2M32.6 15.8c-.1-.1-.3-.3-.6-.4-.3-.1-.6-.2-.8-.2-.1.8-.4 1.6-1.1 2.4.3 0 .6-.1.8-.2.8-.4 1.3-.9 1.7-1.3.1-.1.1-.2 0-.3M20.8 15.1c-.2 0-.5.1-.8.2-.5.2-.8.6-.6.7.4.4.9.8 1.7 1.3.2.1.5.1.8.2-.7-.8-1-1.5-1.1-2.4"/>
    </g>
    <path fill="#ffce31" d="M18.6 18.5h14.8v2H18.6z"/>
    <g fill="#428bc1">
        <path d="M18.6 18.9l-.4.7.5.5.7-.7zM33.4 18.9l-.8.5.7.7.5-.5zM26 18.4l-.8.7.8.6.8-.6z"/>
    </g>
    <g fill="#ed4c5c">
        <path d="M22.3 19.8l.7-.7-.8-.5-.7.6zM29.7 19.8l.8-.6-.7-.6-.8.5z"/>
    </g>
</svg>