<svg xmlns="http://www.w3.org/2000/svg" viewBox="0 0 64 64">
    <title>flag: Moldova</title>
    <path fill="#ed4c5c" d="M62 32c0-13.1-8.3-24.2-20-28.3v56.6C53.7 56.2 62 45.1 62 32"/>
    <path fill="#2a5f9e" d="M2 32c0 13.1 8.4 24.2 20 28.3V3.7C10.4 7.8 2 18.9 2 32z"/>
    <path fill="#ffe62e" d="M42 3.7C38.9 2.6 35.5 2 32 2s-6.9.6-10 1.7v56.6c3.1 1.1 6.5 1.7 10 1.7s6.9-.6 10-1.7V3.7"/>
    <path fill="#997361" d="M41.2 30.9h.1v-1l-.8.6.1.1-.1.1v.1H40c-.1.1-.1.2-.1.4v.4c0 .2-.1.3-.1.3l-.1.1v-6.9c0-.6-1.9-2.4-1.9-2.4l-1.9 1.5.1 1.2c-.4 0-1.9.9-2.1.9-1.6-.9-.5-2.9-.5-3l.2.2s.2-.8-.2-1.4l.8-.2s-1.9-1.4-3.7-.7c0-.2 0-.3-.1-.4l-.2-.2-.1.3c0 .1-.1.1-.2.1h-.2v-.2c0-.1 0-.1.1-.2l.3-.1-.1-.1c-.2-.2-.7-.2-.9 0l-.2.2.3.1c.1 0 .1.1.1.2v.1h-.2c-.1 0-.1 0-.2-.1l-.1-.2-.2.2c-.1.1-.1.3-.1.4 0 .2 0 .3.1.4l.2.2.1-.2c0-.1.1-.1.2-.1h.2V23c0 .1 0 .1-.1.1l-.5.2.6.1c.1 0 .2.2.2.3l.1.4.1-.4c0-.1.1-.3.2-.3l.6-.1c0 .2.3 2.1-.8 2.9-.2-.1-1.7-.9-2.1-.9l.1-1.2-1.9-1.5s-1.9 1.8-1.9 2.4v4.8l-.1-.1-.1.2s-.1.1-.1.2c-.2-.2-.4-.3-.5-.3l-.1-.1v.2s-.1.5 0 .8h-.4v.2s.1.5.5.8c.2.2.5.2.6.2l.2.4v.1c-.2-.1-.4-.1-.5-.1H23l.1.2s.1.1.1.2H23l.1.1s.3.5.7.6h.2c0 2.4-.3 6.8-.3 6.8l2.8-2.5s-.5.7-.6 1c-.1.4.2 1.3 1.3.9l-.1.5.9.5c-.1.1-.7.3-.7.3l4.4 2.9 4.4-2.9s-2.4-.9-3.2-4.1l.7-.3c.3.2 2.3 2.8 2.3 2.8l-.1.1h-.1c-.1 0-.1.1-.1.9v.2l.2-.1c.7-.5.7-.5.7-.6 0 0 0-.1-.1-.1h.1c.1 0 .6-.2.7-.4.5-.7.2-1.3.2-1.3.2.3 2.4 2.2 2.4 2.2s-.3-4.3-.3-6.6l.5-.9h.1l.1-.1v-.1s.1 0 .1-.1c.1-.1.1-.1.1-.2s0-.1.2-.3c.1-.1.2-.2.3-.2.2-.1.3-.2.3-.3 0 0 0-.1-.2-.4l.1-.1c.1.1.1 0 .1 0m-11.1-9.3c-.1 0-.2 0-.2.1v-.1h.2c0-.1.1 0 0 0m6.3 16.1c-.1-.2-.8-1.6-1-1.9.1-.1.2-.1.4-.2s.4-.3.5-.4c.2.7.5 1.7.8 2.3 0 0-.7.3-.7.2m-9.3.1l-.1-.3c.1-.1.4-.3.5-.5.2-.4.1-.8.1-.9v-.2l-.3.1c0-.1.1-.7.2-1 .1.1.3.3.5.4.1.1.2.1.4.2-.2 1.2-1.3 2.2-1.3 2.2M30 23.2c-.1 0-.1-.1-.1-.1v-.4c.3.1.5.3.6.7l-.5-.2m-1.6 16.4l-.6-.4c0-.1 1.9-2.3 2.1-2.6l.7.3c-.3.7-1.4 2.9-2.4 3.7l.2-1"/>
    <g fill="#ffd200">
        <path d="M27.5 39.2l.7.4-.2.9-.7-.5z"/>
        <path d="M24 31.2l-.3.1 3 6.7h.3l-3-6.8m3.6 7.9l-.2.2.1.3.3-.1-.2-.4"/>
    </g>
    <g fill="#699635">
        <path d="M24.9 36.5l.4.6-.4.1 1.1.5.6-.2-.1-.4-1.6-.6M26.9 35.5l-.5.7.4 1.3.6-.5.1-.8-.4.2-.2-.9M25.7 35.4l-.8.1-.7-.3.5-.2-.4-.5h.6l.8.9"/>
        <path d="M25.9 33.4l.1.6.3-.2v1.1l-.6.6-.5-.9.1-.6.6-.6M23.2 32.3l.8.1.6.8h-.8l-.6-.6.4-.1-.4-.2M24.6 31.5l.2.5.3-.3.2 1-.4.7-.6-1.4.3-.5M23.1 29.9l.1.7.2.3-.6-.2.4.7.7.2.3-.8-.4-.9-.1.5-.6-.5"/>
    </g>
    <path fill="#ffd200" d="M40.7 30.5l.1.1-.1.1v.2h-.6v.7l-.3.4.1.2-.1.1v.3l-2.1 4-.5.5.1.5-.3.1.1.4.4-.1-.1-.3.4-.2.1-.7 2.1-4 .2-.2v-.1l.2-.1.2-.5.5-.4-.2-.5.2-.1v-.2h.1v-.6l-.5.4m-4.5 9v.1H36v.8l.6-.5-.1-.2.1-.1-.1-.2h-.1l-.2.1"/>
    <path fill="#f5d402" d="M36.3 27.3c0-.3.4-.6.4-.6h-9.8s.4.3.4.6v7.3c0 .2.1.3.2.4.1.1.3.3.5.4.6.4 1.7.9 2.5 1.2.7.3 1 .4 1.3.9.4-.4.6-.6 1.3-.9.8-.4 1.9-.8 2.5-1.2.2-.1.4-.3.5-.4.1-.1.2-.2.2-.4v-7.3"/>
    <path fill="#ed4c5c" d="M27.6 31.4v-4.1c0-.2-.1-.4-.1-.4h8.8s-.1.1-.1.4v4.1l-4.3 1.3-4.3-1.3"/>
    <path fill="#428bc1" d="M36.1 31.4h-8.4v3.2c0 .2.2.5 1.1 1 1.6.8 2.8 1.1 3.1 1.6.4-.4 1.6-.8 3.1-1.6 1-.5 1.1-.8 1.1-1v-3.2"/>
    <g fill="#ffe62e">
        <path d="M28.9 33.3l-.8 1 .7 1.1 1.3-.3.1-1.3-1.3-.5M33.5 34.5c0 .4.4.8.8.9-.1-.1-.1-.3-.1-.4-.1-.5.3-.9.9-.9h.3c-.2-.3-.6-.5-1-.5-.5 0-.9.4-.9.9M29.6 29.2l1.4 1.5.4-.2.5.2.5-.2.4.2 1.4-1.5-.5-1.6 1.1 1.7-1.5 1.9.3.8-.8.3-.1 2.9.4.4-1.2.7-1.2-.7.4-.4-.1-2.9-.8-.3.3-.8-1.5-1.9 1.1-1.7-.5 1.6"/>
        <path d="M31.8 27.7l.2.5.5-.2-.2.5.5.2-.5.2.2.5-.5-.4-.2.5-.1-.5-.5.2.2-.5-.5-.2.5-.2-.2-.5.5.2.1-.3M29.7 31.4l-.8.6-.9-.6.9-.5.8.5M35.6 31.4l-.8.6-.8-.6.8-.5.8.5"/>
    </g>
</svg>