<svg xmlns="http://www.w3.org/2000/svg" viewBox="0 0 64 64">
    <title>flag: Cayman Islands</title>
    <path fill="#2a5f9e" d="M12 12h20.6v20.6H12z"/>
    <path fill="#fff" d="M18.9 8.1V14h-7.3L26 32h6v-7.5z"/>
    <path fill="#2a5f9e" d="M32 2v30H2c0 16.6 13.4 30 30 30s30-13.4 30-30S48.6 2 32 2z"/>
    <path fill="#fff" d="M11 18.9H5c-1.9 4-3 8.4-3 13.1h12V13.9h-3v5"/>
    <path fill="#ed4c5c" d="M32 27.1L19 11h-6l17 21h2z"/>
    <path fill="#fff" d="M18.9 5v6H11v3h21V2c-4.7 0-9.1 1.1-13.1 3z"/>
    <path fill="#ed4c5c" d="M32 5H18.9c-6 2.9-11 7.9-13.9 13.9V32h6V11h21V5z"/>
    <path fill="#fff" d="M37.9 28.5v11.7c0 1.2 1 1.7 2.1 2.1l4.3 1.7 4.2-1.7c1.1-.4 2.1-1 2.1-2.1V28.5H37.9"/>
    <path fill="#42ade2" d="M50.7 37s-1.3-.9-3.2-.9c-1.8 0-2.1.9-3.2.9-1.3 0-1.3-.9-3.2-.9s-3.2.9-3.2.9v-1.8s1.3-.9 3.2-.9 1.9.9 3.2.9c1.1 0 1.3-.9 3.2-.9 1.8 0 3.2.9 3.2.9V37"/>
    <path fill="#ed4c5c" d="M37.9 27.4v6s1.3-1.5 3.2-1.5 1.9 1.5 3.2 1.5c1.1 0 1.3-1.5 3.2-1.5 1.8 0 3.2 1.5 3.2 1.5v-6H37.9"/>
    <g fill="#42ade2">
        <path d="M50.7 40.2s-1.3-.8-3.2-.8c-1.8 0-2.1.8-3.2.8-1.3 0-1.3-.8-3.2-.8s-3.2.8-3.2.8v-1.7s1.3-.8 3.2-.8 1.9.8 3.2.8c1.1 0 1.3-.8 3.2-.8 1.8 0 3.2.8 3.2.8v1.7M41.1 41.2c-.9 0-1.7.2-2.2.5.3.2.7.4 1.2.6l4.3 1.7 4.2-1.7c.4-.2.8-.3 1.2-.6-.6-.3-1.3-.5-2.2-.5-1.8 0-2.1 1.1-3.2 1.1-1.4 0-1.4-1.1-3.3-1.1"/>
    </g>
    <g fill="#ed4c5c">
        <path d="M34.8 46.5l-1.1-2.3c1-.7 2.2-1.3 3.5-1.8l.7 2.6c-1.2.4-2.2.9-3.1 1.5M53.8 46.5c-.9-.6-1.9-1.2-3.1-1.6l.7-2.6c1.3.5 2.5 1.1 3.5 1.8l-1.1 2.4"/>
    </g>
    <g fill="#83bf4f">
        <path d="M44.3 40.2l1.3 1-.5-1.6 1.3-1h-1.6l-.5-1.6-.5 1.6h-1.6l1.3 1-.5 1.6zM41.1 36l1.3 1-.5-1.6 1.3-1.1h-1.6l-.5-1.6-.5 1.6H39l1.3 1.1-.5 1.6zM47.5 36l1.3 1-.5-1.6 1.3-1.1H48l-.5-1.6-.5 1.6h-1.6l1.3 1.1-.5 1.6z"/>
    </g>
    <g fill="#ffe62e">
        <path d="M44.3 47.7c-2.8 0-5.4-1.2-7.5-3.4l1.5-2c1.7 1.8 3.8 2.7 6 2.7s4.4-1 6.1-2.8l1.5 2c-2.1 2.3-4.8 3.5-7.6 3.5"/>
        <path d="M35.9 48.6l-1.1-2.3c1-.7 2.2-1.3 3.5-1.8l.6 2.6c-1.1.4-2.1.9-3 1.5M52.7 48.7c-.9-.6-1.9-1.2-3.1-1.6l.7-2.6c1.3.5 2.5 1.1 3.5 1.8l-1.1 2.4M49.6 30.1c0-.1-.1-.2-.3-.1-.4.1-1.6.1-1.9-.2.6.2 1.3-.2 1.3-.6 0-.4-.5-.8-1.7-.5-1.1.2-2.5.1-2.5-.2 0-.3 1-.4 1.5-.3.5.1.9.1 1.8-.2-.2.1-1 .1-1.5 0-.6-.2-2-.2-2 .6 0 .7 1.5.7 2.9.5.8-.1 1.2 0 1.2.2s-.7.3-1.3.3c-.5-.1-1.1-.1-1.8.1-1.2.4-2.5.1-2.8-.4v-.2c.1-.1.2-.2.2-.3.1-.3 0-.3-.3-.1-.1-.1-.3-.2-.6-.2s-.5.1-.6.2c-.3-.1-.4-.1-.3.1 0 .1.1.3.2.3 0 .4.5 1 .5 1-.6-.1-1.4-1.1-1.5-1.6-.1-.2-.3-.3-.4-.3-.1 0-.2.1-.1.2s.2.1.3.3c-.1-.2-.3-.2-.4-.1-.1.1 0 .2.1.2.2 0 .1.2.2.3-.2-.2-.3-.2-.4-.1-.1.1 0 .2.1.2.2 0 .9.9 2.5 1.7 0 .1-.3.1-.5.1-.4 0-.9 0-1.1-.3-.2-.2-.5-.4-.8-.3-.1.1 0 .2.1.2s.2 0 .3.1h-.4c-.1.1 0 .2.1.2s.3-.1.4 0h-.3c-.1.1 0 .2.1.2.2 0 1.9 1 3.3-.2.2 0 1.6 0 2.2-.4.4.4.4.3.7.4.3.1.5.1.3.2-.1.1-.4 0-.6 0-.6 0-.8-.4-1-.2-.1.2 0 .2.2.2-.2 0-.4 0-.3.2.1.3.4-.1.5.1-.1 0-.2 0-.2.1s.2.2.5 0c.1-.1.3-.1.4-.1.4 0 1.3.2 1.6-.1.1-.1 0-.2-.1-.3-.1-.1-.1-.2-.1-.5.3.1.8.1 1.3 0 .7-.1.9.1.9.4 0 .2-.1.2-.2.2-.4 0-.6-.1-.7-.1-.1 0-.2.2 0 .2-.1.1-.1.2 0 .2h.3c-.1.1-.3.2-.2.3.1.1.2.1.3 0 .1-.1.3-.2.5-.3 0 0 .3-.8.1-1.3M48.5 20.6h-2.3l2-2-2.5 1 .6-2.9-1.7 2.3-.9-2.5-.2 2.7-1.7-1.9.9 3.1H41s1.8 1.3 2.2 1.7H46c.6-.8 2.5-1.5 2.5-1.5"/>
    </g>
    <g fill="#83bf4f">
        <path d="M41.1 23.2c0 .6-1.5 1.1-2.1 1.1-.6 0-1.1-.5-1.1-1.1s.5-1.1 1.1-1.1c.6 0 2.1.5 2.1 1.1"/>
        <ellipse cx="41.1" cy="26.4" rx=".5" ry="1.1"/>
        <ellipse cx="45.4" cy="26.4" rx=".5" ry="1.1"/>
        <ellipse cx="47.5" cy="26.4" rx=".5" ry="1.1"/>
        <path d="M48.6 23.8c0 2.3-1.9 2.4-4.2 2.4-2.3 0-4.3-.2-4.3-2.4 0-1.4 1.9-2.7 4.3-2.7 2.3-.1 4.2 1 4.2 2.7"/>
    </g>
</svg>