<svg xmlns="http://www.w3.org/2000/svg" viewBox="0 0 64 64">
    <title>flag: Philippines</title>
    <path fill="#ed4c5c" d="M33 32L11.3 53.7C16.7 58.8 24 62 32 62c16.6 0 30-13.4 30-30H33z"/>
    <path fill="#428bc1" d="M62 32C62 15.4 48.6 2 32 2c-8 0-15.3 3.2-20.7 8.3L33 32h29z"/>
    <path fill="#f9f9f9" d="M11.3 10.3C5.6 15.8 2 23.5 2 32s3.6 16.2 9.3 21.7L33 32 11.3 10.3z"/>
    <g fill="#ffce31">
        <path d="M13 13.6l-.8 1.4 1.1 1.1-1.5-.2-.8 1.4-.2-1.5-1.5-.2 1.4-.8-.2-1.5 1.1 1.1zM13.2 48l-1.1 1.2.8 1.3-1.4-.6-1.1 1.2.2-1.6-1.5-.6 1.6-.3.2-1.6.8 1.4zM30.5 32l-1.5.5V34l-1-1.2-1.5.4 1-1.2-1-1.2 1.5.4 1-1.2v1.5zM23.7 30.5l-.6-.5-6.5 1.4h.1l6.1-1.6-.8-.5-5.2 2 4.3-3.6-.1-.9-4.5 4.6h-.1l4.5-5-.1-.7-.7.1-4 5.2v-.1l3.7-5.3-.9.1-2.7 4.9 1-5.6-.6-.6-.6 6.5v.1l.2-6.8-.5-.5-.5.5.2 6.8v-.1l-.5-6.4-.6.6 1 5.6-2.7-4.9-.9-.1 3.7 5.3v.1l-4.1-5.4-.7-.1-.1.7 4.5 5h-.1l-4.5-4.6-.1.9 4.3 3.6-5.2-2-.7.5 6.1 1.6h.1L8.3 30l-.6.4.4.6 6.6.9h-.1l-6.3-.6.5.7 5.6-.1L9.2 34l-.2.9 5.7-2.8h.1l-5.9 3.2-.2.7.7.2 5.7-3.6v.1l-5.2 3.7.8.2 4.2-3.7-2.9 4.9.4.8 2.6-5.8.1-.1-2.5 6.3.3.7.7-.3 2.1-6.5v.1L14 39.2l.8-.4.9-5.6.9 5.6.8.4-1.7-6.2v-.1l2.1 6.5.7.3.3-.7-2.5-6.3.1.1 2.6 5.8.4-.8-2.8-4.9 4.2 3.7.8-.2-5.2-3.7v-.1l5.7 3.6.7-.2-.2-.7-5.9-3.2h.1l5.7 2.8-.3-.9-5.3-1.9 5.6.1.5-.7-6.3.6h-.1l6.6-.9.5-.7m-7.2 1.6"/>
        <circle cx="15.7" cy="32" r="4.5"/>
    </g>
</svg>