<svg xmlns="http://www.w3.org/2000/svg" viewBox="0 0 64 64">
	<title>Soviet Union flag</title><desc>yellow hammer and sickle in top left on red canvas</desc>
    <circle fill="#ed4c5c" cx="32" cy="32" r="30"/>
    <path fill="#ffe62e" transform="scale(0.05) translate(96,0)" d="m84.174 829.33c-21.725-14.91-49.038-32.88-49.038-32.88s2.1446-3.7044 13.601-17.625c7.8957-9.5937 47.858-58.244 88.805-108.11 40.947-49.868 77.433-90.668 77.433-90.668s12.374 5.6542 23.851 12.565c31.503 18.97 57.403 27.463 90.272 29.601 38.707 2.5181 82.382-1.0261 110.99-21.739l34.85-25.231-46.735-43.853-44.777-46.5-13.174 15.866c-7.2457 8.7263-18.124 21.46-24.175 28.297l-11.001 12.431-43.964-31.274c-24.18-17.201-44.06-32.202-44.06-32.202s24.114-29.561 50.776-59.678l48.476-54.758 62.575 2.3422c34.416 1.2882 63.246 3.0139 64.067 3.8348 0.8209 0.82086-10.775 16.745-25.769 35.386-14.994 18.642-27.137 37.074-27.137 37.074l103.81 78.713s7.6621-14.417 13.297-29.732c9.4013-25.552 12.936-49.467 13.392-76.322 0.43962-25.855-4.3609-51.225-11.345-68.604-22.84-56.837-74.104-104.61-131.7-122.73-19.509-6.1382-33.897-7.9369-62.989-7.8748-40.17 0.0858-60.699 7.3996-92.61 20.523-5.6923 2.341-17.641 8.589-17.641 8.589s26.941-24.497 52.798-37.926c36.828-19.127 66.237-26.198 107.72-25.9 70.128 0.50279 126.21 23.98 176.58 73.921 81.146 80.455 97.386 203.8 40.318 306.21l-12.439 22.324 43.199 34.409c23.76 18.925 43.199 37.014 43.199 37.014l-64.389 63.474s-4.544-4.9782-39.244-39.172l-38.899-38.332-26.584 14.195c-82.062 43.818-162.92 45.788-241.76 5.8915l-30.396-15.382-47.414 88.465c-65.93 123.01-66.099 124.12-66.099 124.12s-24.959-13.843-46.683-28.752z"/>
</svg>