<svg xmlns="http://www.w3.org/2000/svg" viewBox="0 0 64 64">
    <title>flag: Eswatini</title>
    <g fill="#2a5f9e">
        <path d="M32 2C21.7 2 12.7 7.1 7.3 15h49.4C51.3 7.1 42.3 2 32 2zM32 62c10.3 0 19.3-5.1 24.7-13H7.3c5.4 7.9 14.4 13 24.7 13z"/>
    </g>
    <path fill="#c94747" d="M59 19H5c-1.9 3.9-3 8.3-3 13s1.1 9.1 3 13h54c1.9-3.9 3-8.3 3-13s-1.1-9.1-3-13"/>
    <g fill="#ffce31">
        <path d="M5 45c.7 1.4 1.5 2.7 2.3 4h49.4c.9-1.3 1.7-2.6 2.3-4H5M59 19c-.7-1.4-1.5-2.7-2.3-4H7.3c-.9 1.3-1.7 2.6-2.3 4h54M58.4 31.6H5.6c-.3 0-.5.2-.5.4s.2.4.5.4h52.8c.3 0 .5-.2.5-.4s-.2-.4-.5-.4M12.4 28.5h38.8l1.8.6 2.7-.9-2.7-.9-1.8.6H12.4c-.2 0-.3.1-.3.3s.2.3.3.3"/>
        <path d="M9.9 30.2h38.8l1.8.6 2.7-.9-2.7-.9-1.8.6H9.9c-.2 0-.3.1-.3.3s.1.3.3.3"/>
    </g>
    <path fill="#fff" d="M47.5 32c-3.2 2.9-7.4 8.8-15.8 8.8-7.4 0-4.9-8.8-4.9-8.8s-2.5-8.8 4.9-8.8c8.4 0 12.7 5.9 15.8 8.8"/>
    <path fill="#3e4347" d="M30.6 26.3c.8.9.1 1.2 1 1.3.9.1.4.9 1.2 1 .6 0-.1 2.1.5 2.7.5.7 1 .2 1 .7 0 .5-1.5.5-1.5 2.1 0 .9-1.3 1-1.3 1.6-.1.6 2.4.9 2.3 1.4s-2.6.4-2.8 1c0 .4 3.7.9 4 2.3-.5.2-2.1.3-3.3.3-7.4 0-12.6-5.8-15.8-8.8 3.2-2.9 8.4-8.8 15.8-8.8 0 .1-2.2 2-1.1 3.2"/>
    <g fill="#fff">
        <path d="M21.8 28.9h.8v2.3h-.8zM21.8 32.8h.8v2.3h-.8zM23.3 28.9h.8v2.3h-.8zM23.3 32.8h.8v2.3h-.8zM24.9 28.9h.8v2.3h-.8zM24.9 32.8h.8v2.3h-.8zM26.4 28.9h.8v2.3h-.8zM26.4 32.8h.8v2.3h-.8zM27.9 28.9h.8v2.3h-.8zM27.9 32.8h.8v2.3h-.8zM29.5 28.9h.8v2.3h-.8zM29.5 32.8h.8v2.3h-.8z"/>
    </g>
    <g fill="#3e4347">
        <path d="M33.4 28.9h.8v2.3h-.8zM33.4 32.8h.8v2.3h-.8zM34.9 28.9h.8v2.3h-.8zM34.9 32.8h.8v2.3h-.8zM36.5 28.9h.8v2.3h-.8zM36.5 32.8h.8v2.3h-.8zM38 28.9h.8v2.3H38zM38 32.8h.8v2.3H38zM39.5 28.9h.8v2.3h-.8zM39.5 32.8h.8v2.3h-.8zM41.1 28.9h.8v2.3h-.8zM41.1 32.8h.8v2.3h-.8z"/>
    </g>
    <g fill="#428bc1">
        <path d="M29.2 25.8c-3.8-2.6-4.9 1.2-4.6 2.8.5-.5 2.8 1.6 4.2 1.8-1.1-.7 2.4-3.2.4-4.6M56.5 36.3c2.8-3.5-1.3-4.5-3.1-4.2.6.4-1.7 2.6-1.9 3.9.8-1.1 3.5 2.1 5 .3M9.2 31.8c-4.6.8-2.4 4.1-.8 5.1-.1-.7 3.2-.8 4.3-1.7-1.4.2-1.1-3.9-3.5-3.4"/>
    </g>
</svg>