<svg xmlns="http://www.w3.org/2000/svg" viewBox="0 0 64 64">
    <title>flag: Papua New Guinea</title>
    <path fill="#3e4347" d="M32 62c9.8 0 18.5-4.7 24-12L8 14c-3.8 5-6 11.2-6 18 0 16.6 13.4 30 30 30z"/>
    <path fill="#c94747" d="M62 32C62 15.4 48.6 2 32 2 22.2 2 13.5 6.7 8 14l48 36c3.8-5 6-11.2 6-18"/>
    <path fill="#ffce31" d="M53 29.7c-.2-2.8-1.1-3.2-1.3-3.6-.1-.4.2.1.5.2s-.1-.6-.1-.9c-.1-.3.9.7 1.2.7.3.1-.6-2.3-.9-2.5-.3-.2.3.1.4.1S51.2 21 50.9 21s.3-.1.5-.1-2-1.8-2.4-1.8.8-.5.9-.5c.2 0-2.5-1.5-5 0-.1-.1 1.2-1 1.2-1.4 0-.1-.4-.3-.5-.4 0-.1.7-.5.7-.7 0-.2-.3-.1-.5-.1 0-.2.6-.7.5-1 0-.1-.5-.2-.6-.1s.3-.6.2-.8c-.1-.1-.3 0-.5 0-.1 0 .7-1.3.6-1.4-.2-.2-2.6 1.3-3.5 2.9-.9 1.6-.2 2.9-.3 3.4-.1.5-.3 1.1-.6 1.1-.4 0-1.2-.6-1.5-.9s-.3-.5-.7-.6c-.4-.1-1.3.2-1.7.3-.3 0-1.7-.3-1.8-.2-.1.1 1.3.6 1.6.8.3.2.3.4.6.5.2.1 2.4.8 1.7 1.7-.5.6-1.6-.6-3-.7-1.4 0-2.3 1.3-2.7 1.8-.4.5-1.7 2.9-1.7 3.1 0 .3.8-.7 1.1-.9 0 .3-.3.7-.2.9.1.1 1-.7 1.3-.7.1.2-.2.5-.1.8.1.1.6-.6 1-.7.1.3-.3.7-.1 1.1.1 0 1-1 1.3-1.1.3-.1-.1.9 0 1 .3-.2 1.1-1.1 1.3-1.2.3-.1 0 1.2.1 1.2.3-.2 1.1-1.3 1.2-1.5.1-.2-.1 1.7.8 2.6s2.2 2.1 2.4 2.1c.2-.3-.1-1 .1-.9.4.4 1.1 1.1 1.3 1.1s-.1-.7.1-.7c.5.4 1.8 2.1 4.3 2.9-.2-.5-.5-.9-.6-1.1.2 0 .8.3.9.3.1 0-1.3-1.7-1.2-1.9.3 0 .5.2.6 0-.1-.2-1.3-1.6-1.3-1.9 0-.3.4.1.5 0 .1-.1-.5-1.3-.3-1.4.1-.1 1.4.8 1.7.8.1 0 .2-.2.2-.4.9.7 2.5 2 3.7 3.7 0 .4-.1.7-.2 1.1-.9 2.1-2.6 3.2-5.1 2.3.1.2 1.5 1.3 2.9.9 1.2-.3 2.7-1.2 3-3.2.3.7.5 1.5.5 2.3 0 3.8-3.4 3.7-4.3 3.5 1.1.9 5.2.7 5.2-3.5-.1-1.3-.7-2.6-1.5-3.7m-4.3-4.1c0-.1 0-.2.1-.2.1-.1 1.2.6 1.4.6s.2-.5.3-.4c.1 0 1.4 1.4 1.8 3.2-1.4-1.6-2.9-2.8-3.6-3.2"/>
    <g fill="#fff">
        <path d="M19.4 41.2L19 40l-.4 1.2h-1.2l1 .8-.4 1.2 1-.8 1 .8-.4-1.2 1-.8zM14.4 26.6l-.7 2.3 1.9-1.4 2 1.5-.8-2.4 2-1.5h-2.4l-.8-2.5-.7 2.5h-2.5zM8.9 34.7l-.8-2.4-.7 2.4H4.9l2 1.5-.7 2.4 1.9-1.5 2 1.5-.8-2.4 2-1.5zM24.3 35.5l2-1.5h-2.4l-.8-2.4-.7 2.4h-2.5l2 1.5-.7 2.4 1.9-1.5 2 1.5zM16.4 47.7l-.8-2.5-.7 2.5h-2.5l2 1.5-.7 2.3 1.9-1.4 2 1.5-.8-2.4 2-1.5z"/>
    </g>
</svg>