<svg xmlns="http://www.w3.org/2000/svg" viewBox="0 0 64 64">
    <title>flag: Mozambique</title>
    <path fill="#ffe62e" d="M10.8 42v11.2C16.2 58.6 23.7 62 32 62c12.3 0 22.9-7.4 27.5-18H11.8c-.4-.7-.7-1.3-1-2"/>
    <path fill="#007168" d="M11.8 20h47.7C54.9 9.4 44.3 2 32 2c-8.3 0-15.8 3.4-21.2 8.8V22c.3-.7.6-1.3 1-2"/>
    <path fill="#3e4347" d="M62 32c0-2.8-.4-5.5-1.1-8H10.8v16h50.1c.7-2.5 1.1-5.2 1.1-8"/>
    <g fill="#f9f9f9">
        <path d="M10 24h.8v-2c-.3.7-.5 1.3-.8 2M10 40c.2.7.5 1.3.8 2v-2H10"/>
    </g>
    <g fill="#fff">
        <path d="M60.3 22c-.2-.7-.5-1.4-.8-2H11.8c-.4.7-.7 1.3-1 2v2h50.1c-.2-.7-.4-1.3-.6-2M60.3 42c.2-.7.4-1.3.6-2H10.8v2c.3.7.6 1.4 1 2h47.7c.3-.7.5-1.3.8-2"/>
    </g>
    <path fill="#ed4c5c" d="M10.8 10.8C5.4 16.2 2 23.7 2 32s3.4 15.8 8.8 21.2L32 32 10.8 10.8z"/>
    <path fill="#ffe62e" d="M20.6 42l-6.5-4.8L7.6 42l2.5-7.7-6.5-4.7h8.1l2.5-7.7 2.5 7.7h8.1l-6.5 4.7 2.3 7.7"/>
    <path fill="#fff" d="M8.5 36.7h4.7c.4.4 1.2.6 2 0 1.5-.8 4.3 0 4.3 0l.6-.6-1.4-4.5-.5-.5s-1.1-.6-3-.4c-2 .2-2.7-.1-2.7-.1s-1.8.2-2.2.5c-.1 0-.6.6-.6.6l-1.2 5"/>
    <path fill="#3e4347" d="M5.4 37.2l1.1 1.3c.1.1.2.1.4 0l1.6-2 .7-.9c.1-.1.1-.3.1-.4l1.3-1.2h.3c-.1 0-.2-.1-.1-.2l.3-.2.2.3s-.3.4-.4.4h-.4l-.6.7.3.3.5 1.2.6-.4-.4-1.3.8-.9-.3-.5.2-.3s2.7 1.7 3.8 1.3l.1-1.2s-2.8-.3-2.9-.9c-.1-.6.6-.6.6-.6l-.3-.4.1-.2.5.6 1.1-.9 6.5 7.5c.4-.1.4-.2.5-.6l-6.4-7.4.5-.5c.1-.1.1-.2.1-.3l.8-.7c.2.1.4.2.5.4l2.1-1.8c.1.1.2.1.3 0l3.4-3.3-3.7 2.6-.1-.1c0-.1.1-.1 0-.3-.1-.2-.4.2-.4.2s-.5-.2-.6-.4v.6l-.9.9h-.7l-1 1-.5.5.2.3-.6.5s-.1-.1-.1-.2l.5-.4V29l-.2-.2s-.7.7-.7.6c-.1-.1-1.8-2-1.8-2l.1-.4-1.1-1.2c-.4-.1-1-.2-1.2.7-.1.2-.9 0-.9 0l-.5.1-2.6 3.7L7.5 32l2.9-3.7.1-1.1.6.7c.2 0 .4 0 .6-.1l1.7 1.9-.3.3.3.3c.1-.1.2-.1.3-.2 0 0 .1.1.1.2-.1.1-.2.2-.4.3-.2-.2-.5-.3-.4-.6l-1 .8v.2l-2.9 2.4h-.3l.2.8 1.9-1.6v-.2l.2.2 1.5-1.2.1.1-1.3 1.2v.1l-.4.2-.1-.1-1.8 1.6h-.2l-1 1c-.3 0-.5 0-.7.2l-1.8 1.5"/>
</svg>