<svg xmlns="http://www.w3.org/2000/svg" viewBox="0 0 64 64">
    <title>Japanese “no vacancy” button</title>
    <path fill="#ff5a79" d="M62 52c0 5.5-4.5 10-10 10H12C6.5 62 2 57.5 2 52V12C2 6.5 6.5 2 12 2h40c5.5 0 10 4.5 10 10v40z"/>
    <path fill="#fff" d="M19.6 32c-1.6-1.4-5-3.1-7.6-4.2l2.7-3.9c2.6.8 6 2.4 7.7 3.8L19.6 32m-6.5 16.5c1.9-3.3 4.7-8.7 6.8-13.7l4 3c-1.9 4.6-4.1 9.5-6.4 13.7l-4.4-3M17 12.3c2.5 1.2 5.7 3 7.4 4.6l-3.2 4c-1.5-1.5-4.6-3.6-7.2-4.9l3-3.7m22.8 15.2v2.6H51v17c0 2.2-.4 3.4-1.9 4.1-1.5.7-3.5.7-6.4.7-.1-1.2-.6-3-1.2-4.2 1.6.1 3.4.1 4 .1.6 0 .7-.2.7-.7V34.5h-7.1v6.8h2.1v-5.1h2.9v10.2h-2.9V45h-7.7v2.5h-3V36.3h3v5.1h1.9v-6.8h-6.7V52h-4.5V30.1H35v-2.6H23.1V23h6.8v-3.2h-5.5v-4.4h5.5V12h4.7v3.5h5.7V12h4.9v3.5h5.6v4.4h-5.6v3.2H52v4.5H39.8zm-5.2-4.4h5.7v-3.2h-5.7v3.2"/>
</svg>