<svg xmlns="http://www.w3.org/2000/svg" viewBox="0 0 64 64">
    <title>Japanese “not free of charge” button</title>
    <path fill="#eda454" d="M62 52c0 5.5-4.5 10-10 10H12C6.5 62 2 57.5 2 52V12C2 6.5 6.5 2 12 2h40c5.5 0 10 4.5 10 10v40z"/>
    <path fill="#fff" d="M29 23c-.5 1-1 2-1.6 3h18.2v19c0 2.3-.4 3.5-2 4.2-1.6.8-3.8.8-7 .8-.2-1.3-.8-3.2-1.4-4.4 2 .1 4.3.1 4.9.1.7 0 .9-.2.9-.8v-2.3H26.9V50h-4.6V33.2c-1.6 1.7-3.3 3.2-5.2 4.5-.7-1-2.2-2.7-3.1-3.5 4.2-2.7 7.4-6.8 9.8-11.2h-8.6v-4.3h10.6c.6-1.6 1.1-3.1 1.5-4.7l4.8 1.1c-.4 1.2-.8 2.4-1.3 3.6H50V23H29m12 7H26.9v2.5H41V30m0 8.8v-2.5H26.9v2.5H41"/>
</svg>