<svg xmlns="http://www.w3.org/2000/svg" viewBox="0 0 64 64">
    <title>Japanese “bargain” button</title>
    <g fill="#ff5a79">
        <path d="M32 2C15.4 2 2 15.4 2 32s13.4 30 30 30 30-13.4 30-30S48.6 2 32 2m0 54C18.7 56 8 45.3 8 32S18.7 8 32 8s24 10.7 24 24-10.7 24-24 24"/>
        <path d="M23.2 22.8c-1.9 3.3-5.2 6.6-8.2 8.8.7 1.2 1.8 3.9 2 5 1.1-.9 2.1-1.8 3.2-2.9v15.1h4.4V28.6c1.1-1.4 2-2.8 2.8-4.2l-4.2-1.6M26.8 16.8l-4.2-1.7c-1.5 2.4-4.5 5.2-7 6.9.6 1 1.6 2.9 2 3.9 3.1-2.1 6.7-5.8 9.2-9.1M44.3 35.8V34h3.8v-3.8H27.3V34h12.3v1.8H26.4v3.9H31l-2.5 1.6c1.5 1.5 3.3 3.6 4.1 5l3.4-2.4c-.7-1.2-2.2-2.8-3.6-4.2h7.2v4.5c0 .5-.2.6-.7.6-.5 0-2 0-3.5-.1.6 1.2 1.2 2.9 1.4 4.1 2.6 0 4.4-.1 5.7-.7 1.4-.7 1.8-1.8 1.8-3.9v-4.6H49v-3.9l-4.7.1M47.3 16.2H28.8v12.5h18.6V16.2zm-4.9 9.5h-8.9v-1.8h8.9v1.8m0-4.7h-8.9v-1.7h8.9V21"/>
    </g>
</svg>