<svg xmlns="http://www.w3.org/2000/svg" viewBox="0 0 64 64">
    <title>sun behind rain cloud</title>
    <g fill="#ffce31">
        <circle cx="20" cy="20" r="8.4"/>
        <path d="M23.4 10.2L20 2l-3.4 8.2c1.1-.2 2.2-.3 3.4-.3 1.2 0 2.3.1 3.4.3M16.6 29.8L20 38l3.4-8.2c-1.1.2-2.2.3-3.4.3-1.2 0-2.3-.1-3.4-.3M29.8 23.4L38 20l-8.2-3.4c.2 1.1.3 2.2.3 3.4 0 1.2-.1 2.3-.3 3.4M10.2 16.6L2 20l8.2 3.4c-.2-1.1-.3-2.2-.3-3.4 0-1.2.1-2.3.3-3.4M29.3 15.5l3.4-8.2-8.2 3.4c.9.6 1.8 1.3 2.6 2.2.9.8 1.6 1.7 2.2 2.6M10.7 24.5l-3.4 8.2 8.2-3.4c-.9-.6-1.8-1.3-2.6-2.2-.9-.8-1.6-1.6-2.2-2.6M24.5 29.3l8.2 3.4-3.4-8.2c-.6.9-1.3 1.8-2.2 2.6-.8.9-1.6 1.6-2.6 2.2M15.5 10.7L7.3 7.3l3.4 8.2c.6-.9 1.3-1.8 2.2-2.6.8-.9 1.7-1.6 2.6-2.2"/>
    </g>
    <path fill="#fff" d="M24 33.5c-.8 0-1.7-.1-2.5-.4-3.2-1.1-5.4-4.1-5.4-7.5 0-2.3 1-4.4 2.7-5.9.4-.4.9-.7 1.4-1l.5-1.8C22 12.4 26.2 9.2 31 9.2c.5 0 1 0 1.5.1.4.1.9.2 1.3.3l.2-.4c1.9-3.4 5.6-5.6 9.5-5.6 6 0 10.9 4.8 10.9 10.8v1.1c.5.2.9.4 1.3.6 2.9 1.7 4.7 4.8 4.7 8.1 0 4.4-3 8.1-7.3 9.1-.7.2-1.4.2-2.1.2H24"/>
    <path fill="#b6c1d1" d="M43.6 5.1c5.1 0 9.3 4.1 9.3 9.2v.7c-2.1.2-4.1 1-5.6 2.3 1.1-.7 2.5-1 3.9-1 .5 0 1 .1 1.5.1.8.2 1.6.5 2.4.9 2.3 1.3 3.9 3.8 3.9 6.7 0 3.7-2.6 6.8-6 7.5-.6.1-1.1.2-1.7.2H24c-.7 0-1.4-.1-2-.3-2.5-.8-4.3-3.2-4.3-6 0-1.9.8-3.6 2.2-4.7.6-.5 1.3-.9 2.1-1.2.7-.2 1.4-.4 2.1-.4 2 0 3.9 1 5 2.5h.1c-1.3-2.5-3.9-4.2-6.8-4.5 1.1-3.8 4.6-6.6 8.8-6.6.4 0 .9 0 1.3.1.8.1 1.7.4 2.4.7 2.8 1.2 4.9 3.9 5.3 7v-.1c0-3.6-1.8-6.7-4.6-8.5 1.4-2.6 4.5-4.6 8-4.6m0-3.1c-4.3 0-8.2 2.2-10.5 5.7h-.3c-.7-.1-1.2-.1-1.8-.1-5.5 0-10.3 3.6-11.8 8.9l-.4 1.2c-.4.2-.8.5-1.1.8-2.1 1.8-3.3 4.4-3.3 7.1 0 4.1 2.6 7.7 6.5 9 1 .3 2 .5 3 .5H51c.8 0 1.6-.1 2.5-.3 5-1.1 8.5-5.5 8.5-10.6 0-3.9-2.1-7.5-5.5-9.4-.2-.1-.3-.2-.5-.3v-.1C56 7.6 50.4 2 43.6 2z"/>
    <g fill="#75d6ff">
        <path d="M28.8 46c-.6 1.6-.1 3.2 1.1 3.6s2.6-.5 3.2-2.1c.7-1.8.7-4.4.3-7.3-2.3 2-4 4-4.6 5.8M41.9 47.6c.7-1.8.7-4.4.3-7.3-2.2 1.9-3.8 3.9-4.5 5.8-.6 1.6-.1 3.2 1.1 3.6s2.5-.6 3.1-2.1M51 40.3c-2.2 1.9-3.8 3.9-4.5 5.8-.6 1.6-.1 3.2 1.1 3.6s2.6-.5 3.2-2.1c.6-1.9.6-4.4.2-7.3M19.9 46c-.6 1.6-.1 3.2 1.1 3.6s2.6-.5 3.2-2.1c.7-1.8.7-4.4.3-7.3-2.3 2-3.9 4-4.6 5.8M21.8 58.3c-.6 1.6-.1 3.2 1.1 3.6s2.6-.5 3.2-2.1c.7-1.8.7-4.4.3-7.3-2.3 1.9-3.9 3.9-4.6 5.8M34.9 59.8c.7-1.8.7-4.4.3-7.3-2.2 1.9-3.8 3.9-4.5 5.8-.6 1.6-.1 3.2 1.1 3.6s2.5-.5 3.1-2.1M44 52.5c-2.2 1.9-3.8 3.9-4.5 5.8-.6 1.6-.1 3.2 1.1 3.6s2.6-.5 3.2-2.1c.6-1.8.7-4.4.2-7.3M13 58.3c-.6 1.6-.1 3.2 1.1 3.6s2.6-.5 3.2-2.1c.7-1.8.7-4.4.3-7.3-2.3 1.9-4 3.9-4.6 5.8"/>
    </g>
</svg>