<svg xmlns="http://www.w3.org/2000/svg" viewBox="0 0 64 64">
    <title>sheaf of rice</title>
    <g fill="#75a843">
        <path d="M10.7 27.5c-.6 3-.9 6.1-.8 9.1.1 3 .7 6 1.6 8.8 1 2.8 2.3 5.5 4 8.1.8 1.3 1.7 2.5 2.7 3.7 1 1.2 2 2.3 3.1 3.4-1.3-.8-2.5-1.8-3.6-2.9-1.1-1.1-2.2-2.3-3.1-3.5-1.9-2.5-3.4-5.3-4.4-8.3-1-3-1.5-6.2-1.4-9.3.1-3.2.7-6.3 1.9-9.1M51.3 28c-3.2 1.8-6.3 3.8-9.2 6-2.9 2.2-5.6 4.7-8 7.4-2.4 2.7-4.6 5.6-6.4 8.7-.9 1.6-1.8 3.2-2.5 4.8-.8 1.7-1.4 3.4-2 5.1.2-1.8.7-3.6 1.3-5.4.6-1.8 1.3-3.5 2.2-5.1 1.7-3.3 3.9-6.4 6.4-9.2 2.5-2.8 5.3-5.2 8.4-7.3 3.1-2 6.4-3.8 9.8-5"/>
    </g>
    <g fill="#f4bc58">
        <path d="M28.5 14.7c-1.5 1.8-4.1 1.2-4.1 1.2s-1-2.5.4-4.3c1.5-1.8 5-2.3 5-2.3s.1 3.7-1.3 5.4M23.2 15.1c.4 1.8-1.2 3.2-1.2 3.2s-2.1-.6-2.6-2.4c-.4-1.8 1-4.4 1-4.4s2.3 1.8 2.8 3.6M26 20.1c-1.8.4-3.2-1.2-3.2-1.2s.6-2.1 2.4-2.6 4.4 1 4.4 1-1.8 2.3-3.6 2.8M20.2 19.6c.6 1.7-.8 3.4-.8 3.4s-2.2-.3-2.8-2c-.6-1.7.4-4.5.4-4.5s2.6 1.4 3.2 3.1M23.6 24.2c-1.7.6-3.4-.8-3.4-.8s.3-2.2 2-2.8c1.7-.6 4.5.4 4.5.4s-1.4 2.6-3.1 3.2M18.2 24.4c.9 1.7-.5 3.6-.5 3.6s-2.3-.1-3.2-1.8c-.9-1.7 0-4.7 0-4.7s2.9 1.1 3.7 2.9M22.2 28.8c-1.7.9-3.6-.5-3.6-.5s.1-2.3 1.8-3.2c1.7-.9 4.7 0 4.7 0s-1.1 2.8-2.9 3.7M16.4 30c1.2 1.7.1 4 .1 4s-2.5.4-3.7-1.4c-1.2-1.7-.9-5.1-.9-5.1s3.3.8 4.5 2.5M21.6 34.1c-1.7 1.2-4 .1-4 .1s-.4-2.5 1.4-3.7 5.1-.9 5.1-.9-.8 3.2-2.5 4.5M15.3 36.7c1.5 1.6.6 4.2.6 4.2s-2.6.7-4.1-.9-1.6-5.2-1.6-5.2 3.6.2 5.1 1.9M21.2 40.2c-1.6 1.5-4.2.6-4.2.6s-.7-2.6.9-4.1 5.2-1.6 5.2-1.6-.2 3.6-1.9 5.1"/>
        <path d="M24.5 15.8c-2.5 3.1-4.3 6.7-5.4 10.4-.5 1.9-1 3.8-1.3 5.7-.3 1.9-.5 3.9-.6 5.9-.1 2-.1 3.9-.1 5.9 0 2 .2 3.9.3 5.9.2 2 .4 3.9.7 5.9.3 2 .6 3.9 1 5.9-.6-1.9-1.1-3.8-1.5-5.8-.4-1.9-.8-3.9-1-5.9-.3-2-.4-4-.5-6-.1-2-.1-4 0-6s.3-4 .7-6c.4-2 .8-3.9 1.5-5.8.6-1.9 1.5-3.7 2.5-5.5 1-1.6 2.2-3.2 3.7-4.6"/>
    </g>
    <g fill="#fc6">
        <path d="M51.7 8.7c-2.4 1.7-5.6.1-5.6.1s-.4-3.5 2-5.2c2.4-1.7 7.1-1.2 7.1-1.2S54.1 7 51.7 8.7M45 7.4c-.1 2.4-2.7 3.6-2.7 3.6s-2.5-1.4-2.4-3.8C40 4.8 42.6 2 42.6 2s2.5 3 2.4 5.4"/>
        <path d="M46.8 14.5c-2.4-.1-3.6-2.7-3.6-2.7s1.4-2.5 3.8-2.4c2.4.1 5.2 2.7 5.2 2.7s-3 2.5-5.4 2.4M39.7 12c.2 2.4-2.2 3.9-2.2 3.9s-2.6-1.1-2.9-3.5c-.2-2.4 2-5.5 2-5.5s2.9 2.7 3.1 5.1M42.4 18.9c-2.4.2-3.9-2.2-3.9-2.2s1.1-2.6 3.5-2.9c2.4-.2 5.5 2 5.5 2s-2.7 2.9-5.1 3.1M35.6 17.3c.5 2.5-1.9 4.3-1.9 4.3s-2.9-.9-3.3-3.3c-.5-2.5 1.5-5.9 1.5-5.9s3.2 2.4 3.7 4.9M39.1 24.2c-2.5.5-4.3-1.9-4.3-1.9s.9-2.9 3.3-3.3c2.5-.5 5.9 1.5 5.9 1.5s-2.4 3.2-4.9 3.7M31.4 23.8c1 2.6-1.2 5-1.2 5s-3.2-.4-4.2-3 .6-6.7.6-6.7 3.9 2.1 4.8 4.7M36.5 30.6c-2.6 1-5-1.2-5-1.2s.4-3.2 3-4.2 6.7.6 6.7.6-2.1 3.8-4.7 4.8M27.8 31.7c1.4 2.6-.6 5.4-.6 5.4s-3.5 0-4.8-2.6-.2-7.1-.2-7.1 4.2 1.7 5.6 4.3M34 38.2c-2.6 1.4-5.4-.6-5.4-.6s0-3.5 2.6-4.8c2.6-1.4 7.1-.2 7.1-.2s-1.7 4.2-4.3 5.6"/>
        <path d="M46.4 8.8c-4.2 3-7.6 6.9-10.3 11.2-1.3 2.2-2.5 4.4-3.5 6.8-1 2.3-1.9 4.7-2.7 7.1-.8 2.4-1.5 4.9-2.1 7.4-.6 2.5-1.1 5-1.6 7.5-.4 2.5-.8 5.1-1.2 7.6-.3 2.5-.6 5.1-.8 7.7-.1-2.6-.1-5.2.1-7.7.2-2.6.4-5.2.7-7.7.3-2.6.8-5.1 1.4-7.6.6-2.5 1.2-5 2-7.5s1.8-4.9 2.9-7.3c1.1-2.4 2.4-4.6 3.8-6.8 1.5-2.2 3.1-4.2 5-6 1.9-1.9 4-3.5 6.3-4.7"/>
    </g>
    <path fill="#83bf4f" d="M39.4 39.5c-2.5.5-4.9 1.2-7.1 2.2-2.2 1-4.2 2.4-6 4.1-1.7 1.7-3.1 3.7-4.3 5.9-.6 1.1-1.1 2.2-1.5 3.4-.4 1.2-.8 2.4-1.1 3.6 0-1.3.1-2.5.4-3.8.3-1.2.6-2.5 1.1-3.7 1-2.4 2.4-4.6 4.3-6.4 1.9-1.8 4.1-3.2 6.6-4.1 2.5-.9 5.1-1.3 7.6-1.2"/>
</svg>