<svg xmlns="http://www.w3.org/2000/svg" viewBox="0 0 64 64">
    <title>melon</title>
    <path fill="#f5f0ae" d="M61.3 29.2C57.8 14.7 41.8 5.4 25.6 8.6 9.4 11.8-.8 26.2 2.7 40.8c3.5 14.6 19.5 23.8 35.7 20.6 16.2-3.2 26.4-17.6 22.9-32.2"/>
    <g fill="#d0d18b">
        <path d="M29.3 8.3c-.2-.1-.3-.1-.5-.2-1.1.1-2.1.3-3.2.5s-2.1.5-3.1.8c-.1.1-.3.2-.4.4 1.3.5 2.7 1.1 4.2 1.8 1-1.2 2.1-2.3 3-3.3M23.4 16.8l4.8 2.7 3.2-4.3-4.8-2.5zM25.3 25.8l5.3 3.3 3.2-5-5.2-3.1zM27.7 35.9l5.3 3.4 3.3-5.1-5.3-3.5zM38.7 44.2l-5.3-3.3-3.2 5 5.2 3.2zM40.6 53.3l-4.8-2.8-3.2 4.3 4.8 2.5zM34.7 61.7c.2.1.3.1.5.2 1.1-.1 2.2-.3 3.2-.5s2.1-.5 3.2-.8c.1-.1.2-.2.4-.3-1.3-.5-2.7-1.1-4.2-1.8-1.1 1.1-2.1 2.2-3.1 3.2M33.6 14.1l2.8-3.7-4.7-2-2.9 3.3zM31 19.7l5.2 3.2 2.9-4.5-5.1-3zM41.8 27.8l-5.2-3.3-3.2 4.9 5.3 3.4zM44.3 37.9l-5.2-3.4-3.2 5.1 5.2 3.3zM46.2 47.5l-4.8-3-3.2 4.8 4.8 2.8zM43.2 53.4l-3.3 4 4.2 1.9 3.4-3.6zM38.9 8.7c-1.4-.3-2.8-.5-4.2-.6 1.2.5 2.3 1 3.5 1.5.2-.3.5-.6.7-.9M35.9 14.4l5.1 2.9 2.6-3.9-5-2.7zM38.6 23.3l5.1 3.3 2.8-4.6-5.1-3.2zM44.2 28.2l-3.1 5 5.1 3.4 2.9-5zM51.2 41.4l-4.7-3.2-3.1 5 4.7 3zM52.5 50.3l-4.1-2.6-3.3 4.5 4.2 2.4zM46.9 58.4c1.2-.6 2.4-1.4 3.5-2.1-.3-.2-.7-.4-1.1-.5-.7.9-1.5 1.8-2.4 2.6M46.4 11.3c-1.7-.8-3.4-1.5-5.2-2-.1.2-.3.4-.4.6 1.6.8 3.3 1.7 4.9 2.7.1-.5.4-.9.7-1.3M46.1 13.8l-2.5 3.9 4.9 3.3 2.3-4.1zM53.6 25.8L49 22.5 46.4 27l4.8 3.4zM51.6 32l-2.8 4.9 4.5 3.1 2.6-4.8zM57.5 44.4l-3.9-2.8-3 4.8 4 2.6zM51.6 54.6c.2.1.4.2.7.4 1.4-1.2 2.7-2.4 3.8-3.8-.4-.3-.8-.5-1.3-.8-1.1 1.4-2.1 2.8-3.2 4.2M52.6 15.4c-1.4-1.2-2.9-2.2-4.5-3.2-.2.3-.3.5-.5.8 1.6 1 3.1 2 4.6 3.1.2-.2.3-.4.4-.7M55.1 24.9l1.8-4-4.2-3.4-2.1 4zM59.3 29.6l-3.8-3.3-2.3 4.5 4.2 3.3zM55.2 40.3l3.8 2.8 2.2-4.6-3.5-2.9zM56.4 49.1c.3.2.5.3.8.5 1-1.4 1.9-3 2.6-4.6-.2-.2-.4-.3-.7-.5-.8 1.6-1.7 3.1-2.7 4.6M60.9 27.9c-.6-2-1.5-3.9-2.5-5.7-.4 1-.8 2-1.3 3.1 1.3 1.1 2.5 2.2 3.6 3.3.1-.2.1-.5.2-.7M61.6 30.6L61 30c-.5 1.4-1.1 2.8-1.7 4.3.9.8 1.8 1.6 2.6 2.3.2-1.9.1-3.9-.3-6M20.8 16.6l3.2-4-4.1-1.9-3.4 3.6zM17.8 22.5l4.8 3 3.2-4.8-4.8-2.8zM19.7 32.1l5.2 3.4 3.2-5.1-5.2-3.3zM30.6 40.6l-5.3-3.5-3.1 5 5.2 3.4zM33 50.2l-5.2-3.1-2.9 4.5 5.1 3zM30.3 55.9l-2.8 3.6 4.8 2.1 2.9-3.3zM17 11.6c-1.2.6-2.4 1.3-3.4 2.1.3.2.7.3 1 .5.8-.9 1.6-1.8 2.4-2.6M11.5 19.7l4.1 2.6 3.3-4.6-4.2-2.3zM12.8 28.6l4.6 3.2 3.2-5-4.7-3.1zM19.8 41.7l3.1-4.9-5.1-3.4-2.9 4.9zM25.4 46.7l-5.1-3.4-2.8 4.6 5.1 3.3zM28.1 55.6l-5.1-3-2.6 4 5 2.6zM25.1 61.3c1.4.3 2.9.5 4.4.6-1.2-.5-2.4-1-3.6-1.6-.3.4-.6.7-.8 1M12.4 15.4c-.2-.1-.4-.2-.6-.4-1.4 1.2-2.7 2.4-3.8 3.8.4.3.8.5 1.3.8 1-1.4 2-2.8 3.1-4.2M6.5 25.6l3.9 2.8 3-4.8-4-2.6zM12.4 38l2.8-4.9-4.5-3.2-2.6 4.8zM17.6 43l-4.8-3.4-2.4 4.5 4.6 3.4zM17.9 56.2l2.5-3.9-5-3.3-2.2 4zM17.6 58.7c1.7.8 3.4 1.5 5.2 2 .2-.2.3-.4.5-.6-1.6-.8-3.3-1.7-4.9-2.7-.3.5-.5.9-.8 1.3M7.6 20.9c-.3-.2-.5-.3-.8-.5-1 1.4-1.9 3-2.6 4.6.2.2.4.3.7.5.8-1.6 1.7-3.1 2.7-4.6M8.8 29.7L5 26.8l-2.2 4.7 3.5 2.9zM4.7 40.3l3.8 3.3 2.3-4.5-4.2-3.2zM8.9 45.1l-1.8 4 4.1 3.4 2.2-4zM11.3 54.6c1.4 1.2 2.9 2.3 4.5 3.2.2-.3.3-.5.5-.8-1.6-1-3.1-2-4.6-3.1-.1.2-.2.4-.4.7M2.1 33.3c-.1 2 0 4 .3 6.1l.6.6c.5-1.4 1.1-2.8 1.7-4.3-1-.9-1.8-1.7-2.6-2.4M3.1 42.1c.6 2 1.5 3.9 2.5 5.7.4-1 .8-2 1.3-3.1-1.3-1.1-2.5-2.2-3.6-3.3-.1.2-.2.4-.2.7"/>
    </g>
    <path fill="#8cc63e" d="M35.6 11.8H24.3c.6-.7 2.7-1.7 6.2-1.7 3.1 0 5.1.8 5.1 1.7"/>
    <g fill="#64892f">
        <path d="M35.6 11.8c.1 1-2.5 2.5-5.7 2.8-3.2.3-5.9-.8-6-1.7-.1-1 1.4-3 6.1-1.5 3.1 1 5.6-.5 5.6.4"/>
        <path d="M29.3 12.5C28.7 9 28.1 8 27.4 6.7c-.2-.4-.5-.9-.8-1.5l1.9-1 .7 1.4c.8 1.5 1.5 2.6 2.1 6.5l-2 .4"/>
    </g>
    <g fill="#8cc63e">
        <path d="M26.6 5.5l2.2.2c.8 1.5-.2 3 .5 6.9 0-.1-2-5.8-2.7-7.1"/>
        <path d="M32 6.4c-2.5.2-5-.3-7.7-.9-3-.7-6.8-1.3-10.6-1.3-1.6 0-1.7-2.2-.1-2.2 4.9 0 8 .6 11.1 1.3 3.7.8 6.8 1.6 9.9.2l.7 2c-1.1.6-2.2.8-3.3.9"/>
    </g>
    <ellipse cx="34.9" cy="4.6" fill="#ceff80" rx=".7" ry="1.1" transform="rotate(-19.78 34.927 4.607)"/>
</svg>