<svg xmlns="http://www.w3.org/2000/svg" viewBox="0 0 64 64">
    <title>rice cracker</title>
    <path fill="#a87451" d="M62 32c0 1.2-1.2 2.3-1.4 3.5-.1 1.2.8 2.6.5 3.7-.3 1.2-1.8 2-2.2 3.1-.4 1.1.2 2.7-.4 3.7-.6 1.1-2.2 1.5-2.8 2.4-.7 1-.5 2.7-1.3 3.5-.8.9-2.5.9-3.3 1.7-.9.8-1.1 2.5-2.1 3.1-1 .7-2.6.3-3.6.8-1 .6-1.6 2.1-2.8 2.5-1.1.4-2.6-.4-3.7-.1-1.1.3-2.1 1.7-3.3 1.8-1.2.1-2.4-1-3.6-1s-2.5 1.1-3.6 1c-1.2-.1-2.1-1.5-3.3-1.8-1.2-.3-2.6.5-3.7.1s-1.7-2-2.8-2.5c-1.1-.6-2.7-.2-3.6-.8-1-.7-1.2-2.3-2.1-3.1-.9-.8-2.6-.8-3.3-1.7-.8-.9-.6-2.6-1.3-3.5-.7-1-2.3-1.4-2.8-2.4-.5-1.1 0-2.6-.4-3.7s-1.9-1.9-2.2-3.1c-.3-1.1.7-2.5.5-3.7C3.2 34.3 2 33.2 2 32s1.2-2.3 1.4-3.5c.1-1.2-.8-2.6-.5-3.7.3-1.2 1.8-2 2.2-3.1.4-1.1-.2-2.7.3-3.7.6-1.1 2.2-1.5 2.8-2.4.7-1 .5-2.7 1.3-3.5.8-.9 2.5-.9 3.3-1.7S14 7.8 15 7.1c1-.7 2.6-.3 3.6-.8 1-.6 1.6-2.1 2.8-2.5 1.1-.4 2.6.4 3.7.1 1.1-.3 2.1-1.7 3.3-1.8 1.2-.1 2.4 1 3.6 1s2.5-1.1 3.6-1c1.2.1 2.1 1.5 3.3 1.8 1.2.3 2.6-.5 3.7-.1s1.7 2 2.8 2.5c1.1.6 2.7.2 3.6.8 1 .7 1.2 2.3 2.1 3.1s2.6.8 3.3 1.7.6 2.6 1.3 3.5c.7 1 2.3 1.4 2.8 2.4.5 1.1 0 2.6.4 3.7s1.9 1.9 2.2 3.1c.3 1.1-.7 2.5-.5 3.7.2 1.4 1.4 2.5 1.4 3.7"/>
    <g fill="#8e6244">
        <ellipse cx="32" cy="8.4" rx="1.2" ry="3.6"/>
        <ellipse cx="32" cy="18.2" rx="1.2" ry="3.6"/>
        <ellipse cx="32" cy="27.9" rx="1.2" ry="3.6"/>
        <ellipse cx="32" cy="37.7" rx="1.2" ry="3.6"/>
        <ellipse cx="26.6" cy="9.9" rx="1.2" ry="3.6"/>
        <ellipse cx="26.6" cy="19.6" rx="1.2" ry="3.6"/>
        <ellipse cx="26.6" cy="29.4" rx="1.2" ry="3.6"/>
        <ellipse cx="21.3" cy="8.4" rx="1.2" ry="3.6"/>
        <ellipse cx="21.3" cy="18.2" rx="1.2" ry="3.6"/>
        <ellipse cx="21.3" cy="27.9" rx="1.2" ry="3.6"/>
        <ellipse cx="21.3" cy="37.7" rx="1.2" ry="3.6"/>
        <ellipse cx="15.9" cy="11.9" rx="1.3" ry="3.6"/>
        <ellipse cx="15.9" cy="21.6" rx="1.3" ry="3.6"/>
        <ellipse cx="15.9" cy="31.4" rx="1.3" ry="3.6"/>
        <ellipse cx="11.6" cy="18.2" rx="1.2" ry="3.6"/>
        <ellipse cx="10.6" cy="27.9" rx="1.2" ry="3.6"/>
        <ellipse cx="11.6" cy="37.7" rx="1.2" ry="3.6"/>
        <ellipse cx="10.6" cy="47.4" rx="1.2" ry="3.6"/>
        <ellipse cx="5.2" cy="31.7" rx="1.2" ry="3.6"/>
        <ellipse cx="7.2" cy="22.2" rx="1.3" ry="3.6"/>
        <ellipse cx="7.2" cy="41.1" rx="1.3" ry="3.6"/>
        <ellipse cx="37.3" cy="9.9" rx="1.2" ry="3.6"/>
        <ellipse cx="37.3" cy="19.6" rx="1.2" ry="3.6"/>
        <ellipse cx="37.3" cy="29.4" rx="1.2" ry="3.6"/>
        <ellipse cx="42.7" cy="8.4" rx="1.2" ry="3.6"/>
        <ellipse cx="42.7" cy="18.2" rx="1.2" ry="3.6"/>
        <ellipse cx="42.7" cy="27.9" rx="1.2" ry="3.6"/>
        <ellipse cx="42.7" cy="37.7" rx="1.2" ry="3.6"/>
        <ellipse cx="48" cy="11.9" rx="1.2" ry="3.6"/>
        <ellipse cx="48" cy="21.6" rx="1.2" ry="3.6"/>
        <ellipse cx="48" cy="31.4" rx="1.2" ry="3.6"/>
        <ellipse cx="52.4" cy="18.2" rx="1.2" ry="3.6"/>
        <ellipse cx="53.4" cy="27.9" rx="1.2" ry="3.6"/>
        <ellipse cx="52.4" cy="37.7" rx="1.2" ry="3.6"/>
        <ellipse cx="53.4" cy="47.4" rx="1.2" ry="3.6"/>
        <ellipse cx="58.7" cy="31.7" rx="1.2" ry="3.6"/>
        <ellipse cx="56.7" cy="22.2" rx="1.2" ry="3.6"/>
        <ellipse cx="56.7" cy="41.1" rx="1.2" ry="3.6"/>
    </g>
    <path fill="#334037" d="M49 59.9c0 2.8-34.1 2.8-34.1 0V36.8H49v23.1z"/>
    <g fill="#3f4f44">
        <path d="M19.8 47.3l-1.1 1.6 1.1 1.5 1.1-1.5zM32.2 47.3l-1.1 1.6 1.1 1.5 1.1-1.5zM44.6 47.3l-1.1 1.6 1.1 1.5 1.1-1.5zM19.8 38.2l-1.1 1.5 1.1 1.5 1.1-1.5zM32.2 38.2l-1.1 1.5 1.1 1.5 1.1-1.5zM44.6 38.2l-1.1 1.5 1.1 1.5 1.1-1.5zM19.8 56.5L18.7 58l1.1 1.6 1.1-1.6zM32.2 56.5L31.1 58l1.1 1.6 1.1-1.6zM44.6 56.5L43.5 58l1.1 1.6 1.1-1.6zM38.4 51.9l-1.1 1.6 1.1 1.5 1.1-1.5zM26 51.9l-1.1 1.6L26 55l1.1-1.5zM38.4 42.8l-1.1 1.5 1.1 1.5 1.1-1.5zM26 42.8l-1.1 1.5 1.1 1.5 1.1-1.5z"/>
    </g>
</svg>