<svg xmlns="http://www.w3.org/2000/svg" viewBox="0 0 64 64">
    <title>meat on bone</title>
    <g fill="#ddd">
        <path d="M26.5 42.6l-5.7-5.2s-6.3 6.4-8.1 6.7c-2 .2-5.9-2.1-9.1 1.1-2.2 2.2-2.2 5.8 0 8 1.5 1.5 3.8 2 5.7 1.4-.6 1.9-.1 4.2 1.4 5.7 2.2 2.2 5.8 2.2 8 0 3.2-3.2.8-7.1 1.1-9.1 0-2.2 6.7-8.6 6.7-8.6M42.6 26.5l-5.2-5.7s6.4-6.3 6.7-8.1c.2-2-2.1-5.9 1.1-9.1 2.2-2.2 5.8-2.2 8 0 1.5 1.5 2 3.8 1.4 5.7 1.9-.6 4.2-.1 5.7 1.4 2.2 2.2 2.2 5.8 0 8-3.2 3.2-7.1.8-9.1 1.1-2.2 0-8.6 6.7-8.6 6.7"/>
    </g>
    <path fill="#a86332" d="M31.9 10.6c-3.2.8-20.5 18.1-21.2 21.2-1.2 4.9 16.6 22.7 21.5 21.5 3.1-.8 20.5-18.1 21.2-21.2 1.2-4.9-16.6-22.7-21.5-21.5"/>
    <g fill="#e6b858">
        <path d="M14.6 31.9l-1 1 1 1 1-1-1-1M17.9 33.3l-1 1 1 1 1-1-1-1M36.607 19.814l.99-.99.99.99-.99.99z"/>
    </g>
    <path fill="#e6d0a3" d="M32.854 15.169l1.485-1.485 1.484 1.485-1.485 1.485z"/>
    <path fill="#e6b858" d="M32.072 18.996l.99-.99.99.99-.99.99z"/>
    <g fill="#e6d0a3">
        <path d="M30.92 13.67l.99-.99.99.99-.99.99zM21.001 24.518l.99-.99.99.99-.99.99z"/>
    </g>
    <g fill="#e6b858">
        <path d="M24.05 28.63l1.485-1.486 1.485 1.485-1.485 1.485zM27.044 30.2l.99-.99.99.99-.99.99z"/>
    </g>
    <g fill="#804c26">
        <path d="M44.2 38.8l-1 1 1 1 1-1-1-1M40.9 40.1l-1.5 1.5 1.5 1.5 1.5-1.5-1.5-1.5M39.2 36.1l-1 1 1 1 1-1-1-1M30.8 47.4l-1.5 1.5 1.5 1.5 1.5-1.5-1.5-1.5M28.5 42.9l-1 1 1 1 1-1-1-1M27.9 46.4l-1 1 1 1 1-1-1-1M47.5 29.2l-1 1 1 1 1-1-1-1M50.6 29.9l-1 1 1 1 1-1-1-1M42.9 35.6l-1 1 1 1 1-1-1-1"/>
    </g>
    <g fill="#e6b858">
        <path d="M49.8 37.5L22.9 17.8l1.6-1.6 26.2 20.4zM37.4 49.7l-23-23 .7-.9L39 48.5z"/>
    </g>
    <g fill="#804c26">
        <path d="M38.8 48.9l-24-23 .8-.8 25.9 20.7zM49.2 38.1L20.7 19.4l2.4-2.4 27.1 20.5z"/>
    </g>
    <g fill="#fff">
        <path d="M11.6 59.8c-.6-3 .6-5.9 2.8-7.6h-.2c-2.5.5-4.1 3-3.6 5.6.2.9.6 1.6 1.1 2.3 0-.1 0-.2-.1-.3M4 50.9c-.4-2.2.4-4.2 2-5.5h-.1c-1.8.4-3 2.2-2.6 4 .1.6.4 1.2.8 1.6-.1 0-.1 0-.1-.1M59.8 11.4c-3-.6-5.9.6-7.6 2.8V14c.5-2.5 3-4.1 5.6-3.6.9.2 1.6.6 2.3 1.1-.1 0-.2-.1-.3-.1M50.9 3.7c-2.2-.4-4.2.4-5.5 2v-.1c.3-1.8 2.2-3 4-2.6.6.1 1.2.4 1.6.8.1 0 0-.1-.1-.1" opacity=".4"/>
    </g>
</svg>