<svg xmlns="http://www.w3.org/2000/svg" viewBox="0 0 64 64">
    <title>pizza</title>
	<g transform="rotate(90 32,32)">
		<path fill="#f6da77" d="M62.3 47.1C62.2 22.7 41.5 2.1 17.1 2L2.3 62l60-14.9"/>
		<path fill="#860d16" d="M54.5 49l2.1-.4c-1-19-14.6-38.9-41-40.9l-.3 2C35.5 12.3 52 28.7 54.5 49"/>
		<path fill="#c98e52" d="M56.5 48.6l5.7-1.4C62.3 22.8 41.5 2 16.9 2l-1.4 5.7c23.5 2.2 38.8 17.6 41 40.9z"/>
		<g fill="#83bf4f">
			<path d="M13.5 41.7c-1.7 0-3.2-.6-4.4-1.8-.5-.5-.5-1.3 0-1.7.5-.5 1.3-.5 1.7 0 1.4 1.4 3.9 1.4 5.3 0 .7-.7 1.1-1.6 1.1-2.6s-.4-1.9-1.1-2.6c-.5-.5-.5-1.3 0-1.7.5-.5 1.3-.5 1.7 0 1.2 1.2 1.8 2.7 1.8 4.4 0 1.7-.6 3.2-1.8 4.4-1.1.9-2.7 1.6-4.3 1.6M38.6 21.9v.5c-.1.3-.2.5-.5.7-.3.2-.6.2-.8.1-.8-.2-1.6 0-2.3.4-.7.4-1.2 1.1-1.4 1.9-.4 1.6.7 3.3 2.3 3.7.6.1 1 .8.8 1.3-.1.6-.7 1-1.3.8-2-.5-3.5-2-4-4-.2-.8-.2-1.6 0-2.3.3-1.4 1.2-2.5 2.4-3.3 1.2-.8 2.6-1 4-.7.3.2.7.5.8.9M43.9 50.9h-.5c-.3-.1-.5-.2-.6-.5-.1-.2-.2-.5-.1-.8.2-.7.1-1.5-.3-2.2-.4-.7-1-1.2-1.8-1.4-1.5-.4-3.2.6-3.6 2-.1.5-.8.9-1.3.7-.6-.2-.9-.7-.7-1.3.5-1.8 2-3.3 3.9-3.6.7-.1 1.5-.1 2.2.1 1.3.3 2.4 1.2 3 2.3.7 1.2.8 2.5.5 3.8 0 .5-.3.8-.7.9"/>
		</g>
		<g fill="#b21725">
			<path d="M37.1 36.2c1.4 4.1-.8 8.5-5 9.9-4.2 1.4-8.7-.8-10-4.9-1.4-4.1.8-8.5 5-9.9 4.1-1.4 8.6.8 10 4.9M49.6 37c.8 2.5-.5 5.1-3 6-2.5.8-5.2-.5-6-3-.8-2.5.5-5.1 3-6 2.4-.8 5.1.5 6 3M29 19c1.1 3.3-.7 7-4.1 8.1-3.4 1.1-7.1-.7-8.2-4-1.1-3.3.7-7 4.1-8.1 3.4-1.1 7.1.7 8.2 4M34.4 54l-9.7 2.4c-.9-2.6.9-5.7 3.5-6.4 3.2-.8 5.3 1.5 6.2 4M19.6 47c1.2 3.4-.7 7.2-4.2 8.3-3.5 1.2-7.3-.7-8.5-4.2-1.2-3.4.7-7.2 4.2-8.3 3.5-1.1 7.3.8 8.5 4.2"/>
		</g>
		<path fill="#e0a763" d="M15.5 7.7c5.3.1 10.6 1.1 15.6 3.1 5 1.9 9.7 4.9 13.5 8.8 3.8 3.8 6.8 8.5 8.8 13.5 2 5 3 10.3 3.1 15.6-.9-5.2-2.3-10.3-4.5-15-2.2-4.7-5.1-9.1-8.8-12.7-3.6-3.7-8-6.6-12.7-8.7-4.7-2.3-9.8-3.7-15-4.6"/>
		<g fill="#ffab41">
			<path d="M16.794 13.436l1.98-1.98 1.98 1.98-1.98 1.98zM29.72 19.044l1.98-1.98 1.98 1.98-1.98 1.98zM12.908 26.448l1.98-1.98 1.98 1.98-1.98 1.98zM19.748 32.135l1.98-1.98 1.98 1.98-1.98 1.98zM37.545 32.39l1.98-1.98 1.98 1.98-1.98 1.98zM49.024 46.541l1.98-1.98 1.98 1.98-1.98 1.98zM19.617 44.652l1.98-1.98 1.98 1.98-1.98 1.98zM21.034 51.903l1.98-1.98 1.98 1.98-1.98 1.98zM4.338 58.241l1.98-1.98 1.98 1.98-1.98 1.98zM13.97 17.328l1.485-1.485 1.485 1.485-1.485 1.485zM26.552 27.893l1.485-1.485 1.485 1.485-1.485 1.485zM40.075 27.955l1.485-1.485 1.485 1.485-1.485 1.485zM13.436 36.164l1.485-1.485 1.485 1.485-1.485 1.485zM7.36 42.1l1.485-1.485 1.485 1.484-1.485 1.485zM5.03 54.485L6.515 53 8 54.485 6.515 55.97zM17.876 55.286l1.485-1.485 1.485 1.486-1.485 1.484zM30.778 48.346l1.485-1.485 1.485 1.485-1.485 1.485zM37.042 50.896l1.485-1.485 1.485 1.485-1.485 1.484zM45.376 45.17l1.485-1.484 1.485 1.485-1.485 1.485z"/>
		</g>
	</g>
</svg>