<svg xmlns="http://www.w3.org/2000/svg" viewBox="0 0 64 64">
    <title>doughnut</title>
    <path fill="#ffd170" d="M2 33.3C2 46.4 15.4 57 32 57s30-10.6 30-23.7S48.6 9.6 32 9.6 2 20.2 2 33.3m18.9 2.2c0-3.8 5-6.9 11.1-6.9s11.1 3.1 11.1 6.9c0 3.8-5 6.9-11.1 6.9s-11.1-3.1-11.1-6.9"/>
    <path fill="#ff4085" d="M2 26.9c0 1.9.2 3.7.7 5.4.6 2.3 1 6.2 2.3 8.1.7.9 2.2-.3 3.4-.3 2.2 0 2.6 4.9 5.3 4.9 4 0 2.1 3.3 7.6 3.3 2.9 0 4.2-2.7 5.7-2.7 3.8 0 3.6 5.1 7.3 5.1 3.8 0 3.6-6 7.1-6 3.4 0 4.1 3.1 6.7 3.1 2.8 0 2.1-9.2 5.2-9.2 3.6 0 5.6-1.4 6.4-2.7 1.5-2.6 2.3-5.6 2.3-8.9C62 16.4 48.6 7 32 7S2 16.4 2 26.9m18.9.3c0-1.2 1.3-2.1 2.2-3.1.7-.7 1.2-2.6 2.2-3.2 1.9-1 3.6 2.5 6.3 2.5 1.4 0 4.3-2.4 5.5-2.2 2 .5 1.2 1.8 2.4 2.9 1.3 1.1 3.5 1.6 3.5 3.1 0 3.8-2.4 6.9-11.1 6.9-8.5 0-11-3.1-11-6.9"/>
    <g fill="#63b6e6">
        <path d="M40.5 38.9l-5.8 3c-.9.5-1.8-1.1-.8-1.5l5.8-3c.9-.6 1.7 1 .8 1.5M51.3 19.8l-6.1-2.1c-1-.3-.4-2 .6-1.7l6.2 2.1c.9.4.3 2-.7 1.7"/>
    </g>
    <g fill="#9729cc">
        <path d="M17.5 33.1l-6.2 2.1c-1 .3-1.6-1.3-.6-1.7l6.2-2.1c1-.3 1.6 1.4.6 1.7M28.9 15.6l-6-2.4c-1-.4-.3-2 .6-1.6l6 2.4c1 .4.4 2-.6 1.6"/>
    </g>
    <g fill="#fff">
        <path d="M12.6 26.9L6.8 24c-.9-.5-.2-2 .8-1.6l5.8 2.9c.9.5.2 2.1-.8 1.6M57 24.8l-6.2 2.1c-1 .3-1.6-1.3-.6-1.7l6.2-2.1c1.1-.3 1.6 1.3.6 1.7"/>
    </g>
    <g fill="#fff080">
        <path d="M25.4 40.4l-6.5.3c-1 0-1.1-1.7-.1-1.8l6.5-.3c1.1 0 1.2 1.8.1 1.8M42.8 11.9l-6.3 1.8c-1 .3-1.5-1.4-.5-1.7l6.3-1.8c1-.2 1.5 1.4.5 1.7"/>
    </g>
    <g fill="#84e060">
        <path d="M46.6 32.8l6.5.3c1 0 1 1.8-.1 1.8l-6.5-.3c-1.1-.1-1-1.8.1-1.8M18.6 17.3L12.3 19c-1 .3-1.5-1.4-.4-1.7l6.3-1.7c1-.2 1.4 1.4.4 1.7"/>
    </g>
</svg>