<svg xmlns="http://www.w3.org/2000/svg" viewBox="0 0 64 64">
    <title>shaved ice</title>
    <path fill="#f0154f" d="M18.7 13.5c0-1.8 1.7-1.8 1.7-3.7 0-1.8-.6-1.8-.6-3.7v-.6c-.2.2-.5.3-.7.5-.4.4-.5 1.1-.9 1.5-.4.4-.6.9-1 1.3s-1.1.5-1.5 1c-.3.4-.3 1.1-.6 1.6s-1 .7-1.3 1.2c-.2.5-.2 1.1-.4 1.6s-.7 1-.8 1.5c-.1.5-.2 1.1-.3 1.6-.1.5-.2 1.1-.3 1.6 0 .5.5 1.1.5 1.7 0 .6-.2 1.1-.1 1.6s-.2 1.1-.1 1.7c.1.5.5 1 .7 1.6.1.5.1 1.1.3 1.6.2.5.7.9 1 1.4.2.5 4.4 1.3 4.4-.5s1.5-1.8 1.5-3.7.2-1.8.2-3.7c0-1.8-1.3-1.8-1.3-3.7s-.4-1.6-.4-3.4"/>
    <path fill="#f27a52" d="M27.8 9.9c0-1.8-1.6-1.8-1.6-3.7 0-1.8 1.7-1.8 1.7-3.7v-.4c-.4 0-.7.1-1 .2-.6.1-1 .7-1.5.9-.5.2-1.1.2-1.6.5-.5.2-.9.7-1.4 1-.6.3-1.4.1-1.9.4-.2.2-.5.3-.7.5v.6c0 1.8.6 1.8.6 3.7 0 1.8-1.7 1.8-1.7 3.7s.3 1.8.3 3.7 1.3 1.8 1.3 3.7c0 1.8-.2 1.8-.2 3.7s-1.5 1.8-1.5 3.7 7.7 1.8 7.7 0-.4-1.8-.4-3.7 1.4-1.8 1.4-3.7c0-1.8-.4-1.8-.4-3.7s1.1-1.8 1.1-3.7-.2-1.9-.2-3.7"/>
    <path fill="#fad85c" d="M34.6 28.1c0-1.8.3-1.8.3-3.7s1.2-1.8 1.2-3.7c0-1.8-1.5-1.8-1.5-3.7s.8-1.8.8-3.7-.8-1.8-.8-3.7c0-1.8.5-1.8.5-3.7 0-1.8-.8-1.8-.8-3.7v-.4h-.6c-.5.3-1.1.2-1.7.2s-1.1.1-1.7.2c-.5 0-1-.1-1.5-.1h-.3c-.2 0-.5.1-.7.1v.4c0 1.8-1.7 1.8-1.7 3.7 0 1.8 1.6 1.8 1.6 3.7 0 1.8.1 1.8.1 3.7s-1.1 1.8-1.1 3.7.4 1.8.4 3.7c0 1.8-1.4 1.8-1.4 3.7s.4 1.8.4 3.7 8.5 1.5 8.5-.4"/>
    <path fill="#8cc63e" d="M42.7 28.1c0-1.8 1-1.8 1-3.7s-.5-1.8-.5-3.7c0-1.8.6-1.8.6-3.7s-1.4-1.8-1.4-3.7 1.3-1.8 1.3-3.7c0-1.8-.6-1.8-.6-3.7V4.8l-1.2-.6c-.5-.3-.9-.7-1.4-.9-.5-.2-1-.5-1.6-.7-.4-.1-.8-.4-1.1-.6-.1-.1-.3-.1-.5-.2-.6-.1-1.2.2-1.8.1-.4-.1-.8-.1-1.1-.1v.4c0 1.8.8 1.8.8 3.7 0 1.8-.5 1.8-.5 3.7 0 1.8.8 1.8.8 3.7s-.8 1.8-.8 3.7 1.5 1.8 1.5 3.7c0 1.8-1.2 1.8-1.2 3.7s-.3 1.8-.3 3.7 8 1.9 8 0"/>
    <path fill="#42ade2" d="M51.6 19.1c0-.5.3-1.1.2-1.7-.1-.5-.4-1.1-.6-1.6-.1-.5-.2-1.1-.4-1.6s-.7-.9-1-1.4c-.2-.5-.2-1.2-.5-1.6-.3-.5-.6-.9-1-1.4-.3-.4-.6-1-.9-1.4-.4-.4-1.1-.6-1.5-1l-1.1-1.1-.1-.1c-.4-.4-.9-.6-1.4-.9-.1-.1-.2-.1-.4-.2v1.1c0 1.8.6 1.8.6 3.7 0 1.8-1.3 1.8-1.3 3.7s1.4 1.8 1.4 3.7-.6 1.8-.6 3.7c0 1.8.5 1.8.5 3.7s-1 1.8-1 3.7 7 1 7.2.5c.2-.5.8-.9 1-1.4.2-.5.1-1.1.3-1.6.1-.5.1-1.1.2-1.6s.3-1.1.3-1.6.2-1.1.2-1.6 0-1.5-.1-2"/>
    <path fill="#e0e1e5" d="M13.9 30.6L32 62l18.1-31.4z"/>
    <path fill="#c1c4cb" d="M52 29.7c0 1-.8 1.8-1.9 1.8 0 0-9.1-.5-18.1-.5s-18.1.5-18.1.5c-1 0-1.9-.8-1.9-1.8s.8-1.8 1.9-1.8c0 0 9.1-.5 18.1-.5s18.1.5 18.1.5c1.1 0 1.9.8 1.9 1.8"/>
</svg>