<svg xmlns="http://www.w3.org/2000/svg" viewBox="0 0 64 64">
    <title>ice cream</title>
    <ellipse cx="32" cy="57.8" fill="#c1c9cb" rx="14.4" ry="4.2"/>
    <path fill="#acafb5" d="M37.2 55.7c3.5 3.3-13.8 3.3-10.3 0 5.4-5.1 5.2-31.4 5.2-31.4s-.2 26.3 5.1 31.4"/>
    <g fill="#839391">
        <path d="M23.2 18.1S13.1 6.6 12.2 5.5c-1-1.2-3.1-3.3-5.8-3.3-6 0-5.8 4 0 4.2 3.8.2 13.7 14 13.7 14l3.1-2.3M59.6 27.2v0"/>
    </g>
    <path fill="#dfe9eb" d="M62 25.8c0 15.6-13.4 23.9-30 23.9S2 41.4 2 25.8c0-10.6 13.4-14.5 30-14.5s30 3.9 30 14.5"/>
    <ellipse cx="32" cy="16.2" fill="#ff78b5" rx="15" ry="14.2"/>
    <ellipse cx="44.4" cy="26.4" fill="#bedd4b" rx="15" ry="14.2"/>
    <ellipse cx="19.6" cy="26.4" fill="#9b5c54" rx="15" ry="14.2"/>
    <path fill="#dfe9eb" d="M59 18.4v5.2C59 30.8 46.9 34 32 34S5 30.8 5 23.6v-5.2c-1.9 2-3 4.4-3 7.4 0 15.6 13.4 23.9 30 23.9s30-8.3 30-23.9c0-3-1.1-5.4-3-7.4"/>
    <g fill="#fff">
        <path d="M60.8 27.9c.1 1.1-.4 2.1-1.1 3-.7.8-1.6 1.5-2.5 2.1-1.8 1.2-3.8 2.1-5.8 2.8-4.1 1.4-8.3 2.1-12.6 2.5-4.3.3-8.5.3-12.8-.3-4.2-.5-8.4-1.4-12.4-2.9 4.2.7 8.3 1.2 12.5 1.4 4.2.2 8.3.2 12.5-.2 4.1-.3 8.3-1 12.3-2 2-.6 4-1.2 5.8-2.1.9-.5 1.8-1 2.6-1.7.7-.7 1.4-1.5 1.5-2.6"/>
        <path d="M24.867 21.77l1.485-1.485 1.485 1.486-1.485 1.484zM23.397 17.722l.99-.99.99.991-.99.99zM28.328 19.996l.99-.99.99.991-.99.99zM26.903 25.586l.99-.99.99.99-.99.99zM20.345 23.8l.99-.99.99.99-.99.99zM27.877 18.262l.495-.495.495.496-.496.494zM20.562 15.375l.495-.494.495.495-.496.495zM20.08 16.768l.495-.494.494.495-.495.495zM28.763 23.289l.496-.495.494.496-.495.494zM21.837 25.226l.495-.495.495.496-.496.494zM26.39 27.956l.496-.495.495.496-.496.494zM48.842 22.3l1.485-1.484 1.485 1.485-1.486 1.485zM47.445 18.323l.99-.99.99.99-.99.99zM41.795 15.57l.99-.99.99.991-.99.99zM45.002 28.388l.99-.99.99.99-.99.99zM52.305 20.525l.99-.99.99.99-.99.99zM45.496 21.475l.99-.99.99.99-.99.99zM51.851 18.793l.496-.494.494.495-.495.495zM47.98 15.132l.496-.494.494.495-.495.495zM52.878 23.819l.496-.494.494.495-.495.494zM46.934 26.38l.495-.494.495.495-.496.495zM42.729 18.364l.495-.494.495.495-.496.495zM48.353 28.692l.495-.494.495.495-.496.495zM33.839 6.292l.99-.99.99.991-.99.99zM34.963 9.184l.99-.99.99.991-.99.99zM32.794 12.611l.99-.99.99.99-.99.99zM36.458 5.611l.496-.494.494.495-.495.495zM38.964 7.715l.495-.494.495.495-.496.495zM33.361 8.209l.496-.495.494.496-.495.494zM32.338 10.719l.496-.495.494.495-.495.495zM28.76 5.29l.495-.494.494.496-.495.494zM31.83 4.222l.496-.495.494.496-.495.494z" opacity=".3"/>
    </g>
</svg>