<svg xmlns="http://www.w3.org/2000/svg" viewBox="0 0 64 64">
    <title>cookie</title>
    <path fill="#dda85f" d="M36.9 22.7l2.5-18.6C37 3.5 34.6 2 32 2c-2.6 0-5 1.5-7.5 2.2-2.5.6-5.3.5-7.5 1.8s-3.6 3.8-5.4 5.6C9.8 13.4 7.3 14.8 6 17c-1.3 2.2-1.2 5-1.9 7.5C3.5 27 2 29.4 2 32c0 2.6 1.5 5 2.2 7.5.6 2.5.5 5.3 1.8 7.5s3.8 3.6 5.6 5.4c1.8 1.8 3.1 4.3 5.4 5.6 2.2 1.3 5 1.2 7.5 1.9 2.5.6 4.9 2.1 7.5 2.1 2.6 0 5-1.5 7.5-2.2 2.5-.7 5.3-.6 7.5-1.9 2.2-1.3 3.6-3.8 5.4-5.6 1.8-1.8 4.3-3.1 5.6-5.4 1.3-2.2 1.2-5 1.9-7.5.6-2.4 2.1-4.8 2.1-7.4 0-2.6-2.1-8.1-2.1-8.1l-23-1.2"/>
    <path fill="#f2cb7d" d="M59.4 22.4c-1 .3-2.4.2-3.9-.4-2.1-.8-3.4-2.5-3.8-4.5-1 .3-3.4 0-5-1-2.4-1.5-2.9-5.7-2.9-5.7-2.7-.8-4.7-4-4.4-6.7-2.2-.6-5-.5-7.4-.5-2.4 0-4.6 1.4-6.8 2-2.3.6-4.9.5-6.9 1.7s-3.3 3.5-4.9 5.1c-1.7 1.7-4 2.9-5.1 4.9-1.2 2-1.1 4.6-1.7 6.9-.6 2.2-2 4.4-2 6.8 0 2.4 1.4 4.6 2 6.8.6 2.3.5 4.9 1.7 6.9s3.5 3.3 5.1 4.9c1.7 1.7 2.9 4 4.9 5.1 2 1.2 4.6 1.1 6.9 1.7 2.2.6 4.4 2 6.8 2 2.4 0 4.6-1.4 6.8-2 2.3-.6 4.9-.5 6.9-1.7s3.3-3.5 4.9-5.1c1.7-1.7 4-2.9 5.1-4.9 1.2-2 1.1-4.6 1.7-6.9.6-2.2 3-4 3.3-6.4.8-3.9-1.2-8.3-1.3-9"/>
    <g fill="#dda85f">
        <path d="M50.1 10.8l-1.4 1.4-1.3-1.4 1.3-1.3zM55.8 17.8l-.6.7-.7-.7.7-.7zM50.8 13.2l-.7.7-.7-.7.7-.7zM44.6 7.1l-.7.7-.7-.7.7-.7zM57.2 20.3l-.7.7-.7-.7.7-.7zM57.8 17.8l-.7.7-.7-.7.7-.7z"/>
    </g>
    <path fill="#6d4934" d="M11.8 20.6c-1 1.7.5 4.8 2.5 5.7 2.9 1.2 4.6 1.4 6.4-1.7.6-1.1 1.4-4 1.1-4.7-.4-1-2.1-3-3.2-3-3.1.1-6.1 2.5-6.8 3.7"/>
    <path fill="#a37f6a" d="M12.3 20.6c-.7 1.2 1.1 4.8 3.5 4.5 3.3-.4 3-7.2 1.6-7.2-2.4 0-4.6 1.8-5.1 2.7"/>
    <path fill="#6d4934" d="M45.2 39.1c1.4-.4 2.4-2.9 1.8-4.4-.9-2.3-1.8-3.3-4.4-2.6-.9.3-3 1.4-3.2 1.9-.3.8-.5 2.8.1 3.4 1.7 1.7 4.7 2 5.7 1.7"/>
    <path fill="#a37f6a" d="M43.8 36.7c1.1-.3 2.8-3.7 1-3.9-3.1-.5-5.5 1-5.2 2.7.3 1.7 3.4 1.4 4.2 1.2"/>
    <path fill="#6d4934" d="M24.9 44.5c-.3-1.2-2.5-2.1-3.9-1.5-2 .8-2.9 1.5-2.2 3.8.2.8 1.2 2.6 1.7 2.7.7.3 2.4.4 2.9-.1 1.5-1.4 1.7-4 1.5-4.9"/>
    <path fill="#a37f6a" d="M23.2 43.6c-.2-.9-4.4.4-4 2 .8 2.7.8 3.1 1.6 3 1.5-.4 2.5-4.3 2.4-5"/>
    <path fill="#6d4934" d="M51.1 25.5c-1.2.3-2.1 2.5-1.5 3.9.8 2 2.7 2.3 4.8 1.2 1.8-.9 1.9-4.1 1.4-4.7-1.5-1.5-3.8-.6-4.7-.4"/>
    <path fill="#a37f6a" d="M50.6 26.6c-.6.7-1.1 3.5.4 3.1 2.7-.8 4.6-3.5 3.4-3.9-1.5-.5-3.1 0-3.8.8"/>
    <path fill="#6d4934" d="M22.74 16.112l1.98-1.98 1.98 1.98-1.98 1.98z"/>
    <g fill="#dda85f">
        <path d="M14.706 33.483l1.979-1.98 1.98 1.979-1.979 1.98zM34.698 44.811l1.98-1.98 1.98 1.98-1.98 1.98zM32.038 39.289l2.687-2.687 2.687 2.687-2.687 2.687zM24.696 9.827l2.687-2.687 2.687 2.687-2.687 2.687z"/>
    </g>
    <g fill="#6d4934">
        <path d="M41.122 46.347l1.98-1.98 1.98 1.98-1.98 1.98zM49.076 35.215l1.98-1.98 1.98 1.98-1.98 1.98zM41.812 24.637l.99-.99.99.99-.99.99zM13.726 38.266l.99-.99.99.99-.99.99z"/>
    </g>
</svg>