<svg xmlns="http://www.w3.org/2000/svg" viewBox="0 0 64 64">
    <title>candy</title>
	<g transform="rotate(90 32,32)">
		<path fill="#f2b5b5" d="M22.8 41.2c5.4 5.4 3.3 16.3-.3 20-3.7 3.7-3.2-5.6-8.6-11-5.4-5.4-14.7-5-11-8.6 3.6-3.7 14.5-5.8 19.9-.4"/>
		<path fill="#ffe6e8" d="M2.8 41.5s6.1.3 7.1 5.1c.6 2.4-.7 4.6 1.1 6.4 1.8 1.8 4 .5 6.3 1.1 4.8 1.1 5.1 7.1 5.1 7.1 3.7-3.7 5.8-14.6.3-20-5.3-5.4-16.2-3.3-19.9.3"/>
		<path fill="#f2b5b5" d="M41.2 22.8c-5.4-5.4-3.3-16.3.3-20 3.7-3.7 3.2 5.6 8.6 11 5.4 5.4 14.7 5 11 8.6-3.6 3.7-14.5 5.8-19.9.4"/>
		<path fill="#ffe6e8" d="M61.2 22.5s-6.1-.3-7.1-5.1c-.5-2.3.8-4.5-1-6.3-1.8-1.8-4-.5-6.3-1C42 9 41.7 3 41.7 3c-3.7 3.7-5.8 14.6-.3 20 5.2 5.2 16.1 3.1 19.8-.5"/>
		<g fill="#f0154f">
			<path d="M32 32c-2.8 2-6.8 1.7-9.3-.8-2.2-2.2-2.7-5.4-1.5-8.1-3.5 4.3-4.1 10.2-1.7 15C28 40.2 30.4 33.9 32 32"/>
			<path d="M32 32c-2-2.8-1.7-6.8.9-9.3 2.2-2.2 5.4-2.7 8-1.5-4.3-3.5-10.2-4.1-15-1.7C23.7 28 30.1 30.4 32 32"/>
			<path d="M32 32c2.9-1.9 6.8-1.7 9.3.8 2.2 2.2 2.7 5.3 1.6 8 3.4-4.3 4-10.1 1.7-14.9-8.6-2.1-11 4.2-12.6 6.1"/>
			<path d="M32.1 32.2c1.9 2.8 1.6 6.7-.9 9.2-2.2 2.2-5.3 2.7-8 1.6 4.3 3.5 10.1 4 14.9 1.7 2.1-8.6-4-11-6-12.5"/>
		</g>
		<path fill="#ffe6e8" d="M41.7 21.9c-.3-.3-.6-.5-.9-.8-2.7-1.1-5.8-.6-8 1.5-2.5 2.6-2.8 6.5-.8 9.4-1.9-1.5-8.2-3.9-6.1-12.5-.4.2-.7.4-1.1.6-1 .6-1.9 1.3-2.7 2.1l-.2.2c-.3.3-.5.6-.8.9-1.2 2.7-.7 5.9 1.5 8.1 2.5 2.5 6.5 2.8 9.3.8-1.5 1.8-3.9 8.2-12.5 6.1.2.4.4.8.6 1.1.6.9 1.3 1.8 2.1 2.6l.2.2c.3.3.6.5.9.8 2.7 1.1 5.8.6 8-1.6 2.5-2.5 2.8-6.4.9-9.2 2 1.5 8.1 4 6 12.4.4-.2.7-.4 1.1-.6 1-.6 1.9-1.3 2.7-2.1l.2-.2c.3-.3.6-.6.8-.9 1.1-2.6.6-5.8-1.6-8-2.5-2.5-6.4-2.8-9.3-.8 1.5-1.9 4-8.2 12.6-6.1-.2-.3-.3-.7-.5-1-.6-1-1.3-1.9-2.2-2.8l-.2-.2"/>
	</g>
</svg>