<svg xmlns="http://www.w3.org/2000/svg" viewBox="0 0 64 64">
    <title>lollipop</title>
    <path fill="#f29a2e" d="M57.7 61.3c1.1 1.1 2.5.8 3.5-.2s1.2-2.4.1-3.4L32.6 28.9c-1.1-1.1-2.7-1.1-3.7-.1s-.9 2.7.1 3.7l28.7 28.8"/>
    <path fill="#fbbf67" d="M28.9 28.8c-.7.7-.5 2.2.6 3.3l28.7 28.8c1.1 1.1 2.3 1 3 .3.7-.7.7-1.9-.3-3L32.1 29.3c-1-1-2.5-1.3-3.2-.5"/>
    <path fill="#b2f25e" d="M37.8 34.1c2 4.2 3.2 9.2 2.6 14.7.8-.5 1.5-1 2.2-1.5 2.1-1.6 3.1-3.5 3.4-5.2.3-1.7-.1-3.2-.9-4.4-.8-1.2-2-2.1-3.3-2.7-1.3-.6-2.7-.9-4-.9"/>
    <path fill="#a93feb" d="M33.7 35.4c-.1.1-.3.2-.4.3.7 2.6.9 5.3.5 8.2-.4 2.8-1.3 5.7-2.9 8.5 3.4-.5 6.6-1.8 9.4-3.5.6-5.5-.5-10.5-2.6-14.7-1.5-.1-2.8.3-4 1.2"/>
    <path fill="#b2f25e" d="M29.3 37.5c-.3 2.6-1.1 5.2-2.6 7.7-1.4 2.5-3.4 4.8-5.9 6.7 3.2.8 6.7 1 10.1.5 1.6-2.8 2.5-5.7 2.9-8.5.4-2.8.1-5.6-.5-8.2-1.3.9-2.6 1.5-4 1.8"/>
    <path fill="#a93feb" d="M25.1 37.5c-2.6 4.6-7.3 8.3-13.1 10.3 2.6 1.8 5.7 3.3 8.9 4.1 2.5-1.9 4.5-4.2 5.9-6.7 1.4-2.5 2.3-5.1 2.6-7.7-1.4.3-2.9.3-4.3 0"/>
    <path fill="#b2f25e" d="M20.9 35.9c-1 .8-2.1 1.6-3.3 2.2l-1.8.9c-.6.3-1.3.5-2 .7-2.7.8-5.8.9-8.9.2.8 1.6 1.9 3.1 3.1 4.5.6.7 1.3 1.3 2 1.9l.5.4.5.4c.3.2.6.5 1 .7 5.8-2 10.6-5.7 13.1-10.3-1.4-.2-2.9-.8-4.2-1.6"/>
    <path fill="#a93feb" d="M18 33.2c-2.4.8-5.2.8-7.9.2-2.8-.6-5.5-1.9-8.1-3.7.2 3.4 1.1 6.9 2.8 10.1 3.1.7 6.2.6 8.9-.2.7-.2 1.3-.4 2-.7l1.8-.9c1.2-.6 2.3-1.4 3.3-2.2-.6-.4-1.4-1-1.8-1.3-.3-.3-.6-.8-1-1.3"/>
    <path fill="#b2f25e" d="M16.8 29.5c-5.1-1-10-4.5-13.4-9.8-1 3.2-1.5 6.6-1.3 10 2.6 1.8 5.3 3.1 8.1 3.7 2.7.6 5.5.5 7.9-.2-.7-1-1.2-2.3-1.3-3.7"/>
    <path fill="#a93feb" d="M17.1 25.1c-4.3-3-7.6-8-9-14.2-2.1 2.6-3.7 5.6-4.8 8.8 3.4 5.3 8.3 8.8 13.4 9.8-.1-1.4 0-2.9.4-4.4"/>
    <path fill="#b2f25e" d="M19 21c-1.5-2.2-2.5-4.7-3.1-7.5-.6-2.8-.5-5.9.3-9-1.6.8-3.1 1.7-4.4 2.9-.7.6-1.3 1.2-1.9 1.8-.7.5-1.2 1.1-1.8 1.8 1.3 6.2 4.7 11.2 9 14.2.4-1.5 1.1-2.9 1.9-4.2"/>
    <path fill="#a93feb" d="M22.1 18.2c-.6-2.5-.5-5.3.2-8.1s2-5.5 3.9-8.1c-3.4.1-6.8.9-9.9 2.4-.8 3.1-.8 6.2-.3 9 .6 2.8 1.7 5.4 3.1 7.5.2-.3.5-.6.7-.9.2-.3.5-.6.8-.8.4-.3.9-.7 1.5-1"/>
    <path fill="#b2f25e" d="M25.9 17c1.2-5.1 4.7-10 10-13.4-3.1-1.1-6.4-1.7-9.8-1.5-1.9 2.5-3.2 5.3-3.9 8.1-.7 2.8-.8 5.6-.2 8.1 1.2-.8 2.5-1.2 3.9-1.3"/>
    <path fill="#a93feb" d="M30.3 17.4c3-4.3 8-7.6 14.1-8.9-2.5-2.2-5.4-3.9-8.5-5-5.2 3.4-8.8 8.3-10 13.4 1.4 0 3 .1 4.4.5"/>
    <path fill="#b2f25e" d="M34.4 19.5c1.1-.7 2.3-1.4 3.5-1.9 1.3-.5 2.5-.9 3.9-1.2 2.8-.5 5.8-.3 8.9.6-.7-1.7-1.6-3.2-2.7-4.7-.5-.7-1.1-1.4-1.7-2-.6-.6-1.2-1.2-1.8-1.7-6.1 1.3-11 4.6-14.1 8.9 1.4.4 2.8 1.1 4 2"/>
    <path fill="#a93feb" d="M37 22.5c2.5-.5 5.2-.4 7.9.5 2.7.8 5.3 2.4 7.7 4.6.2-3.5-.5-7.2-1.9-10.5-3.1-.9-6.1-1.1-8.9-.6-1.4.2-2.7.7-3.9 1.2-1.2.5-2.4 1.2-3.5 1.9.3.2.6.5.9.7l.4.4c.1.1.2.2.3.4.3.3.7.8 1 1.4"/>
    <path fill="#b2f25e" d="M37.9 26.2c4.9 1.4 9.5 5.5 12 11.4 1.6-3.1 2.5-6.6 2.7-10.1-2.3-2.2-5-3.7-7.7-4.6-2.7-.9-5.4-1-7.9-.5.6 1.2.9 2.5.9 3.8"/>
    <path d="M7.6 32.8c.6 4.1 2.4 7.9 5.1 11 .3.4.7.8 1 1.1.3.3.7.7 1.1 1 .7.7 1.5 1.3 2.3 1.8 1.6 1.1 3.4 2 5.2 2.7 3.7 1.4 7.6 1.3 11.3.5 4.7-1 10.2-4.7 11.9-7.3l1.9-10c1-3.4 1.2-7.1.6-10-.4-2.4-1.4-4.8-2.7-7-.7-1.1-1.5-2.1-2.4-3.1-.4-.5-.9-.9-1.4-1.3l-.4-.2-.3-.2c-.2-.2-.4-.3-.6-.5-3.4-2.5-7.6-3.9-11.8-3.9-4.2 0-8.4 1.3-11.9 3.7-.9.6-1.7 1.3-2.4 2-.8.7-1.4 1.5-2 2.3-1.3 1.6-2.3 3.4-3.1 5.3-1.6 3.8-2.1 8-1.4 12.1m16.5-7c.2-.2.3-.5.5-.7l.3-.3.3-.3c.7-.6 1.6-1 2.6-1.1 1-.1 2 .1 2.8.6.2.1.4.3.6.4 2.3-.4 5 .1 7.5 1.6 0 1.4-.3 2.9-.8 4.2-.3.7-.7 1.3-1.1 1.9-.2.3-.4.6-.7.9-.1.1-.2.3-.4.4-.1.1-.2.2-.4.3-1 .9-2.1 1.5-3.3 1.7-1.2.3-2.6.3-3.8-.1-1.2-.3-2.3-1-3.3-1.9-.8-.8-1.4-1.8-1.7-2.9-.3-1.1-.2-2.3.1-3.4.3-.3.5-.9.8-1.3" opacity=".1"/>
    <g fill="#b2f25e">
        <path d="M34.8 33.4c1.1 2.3 1.6 5.1 1.4 7.9-.2 2.9-1.2 5.8-2.9 8.6 3.6-.5 7-2 9.9-4.2.1-1.6 0-3.2-.3-4.7s-.7-2.9-1.2-4.2c-1.1-2.6-2.7-4.9-4.6-6.6-.3.6-.6 1.2-1 1.8-.2.3-.4.6-.6.8-.1.1-.2.3-.4.4-.1 0-.2.1-.3.2M28.2 35c-2.6 4.4-8 7.6-14.5 7.7.3.4.6.7 1 1 .3.3.6.6 1 .9.7.6 1.4 1.2 2.1 1.7 1.5 1 3.1 1.9 4.8 2.5 2.8-1.6 5-3.8 6.6-6.2 1.5-2.4 2.4-5 2.5-7.6-1.2.3-2.4.3-3.5 0M23.6 30.5c-2.5 0-5.1-.8-7.5-2.4-2.3-1.6-4.4-4-5.8-7-1.5 3.6-1.9 7.5-1.3 11.3 2.8 1.8 5.7 2.7 8.6 2.8 2.8.1 5.4-.6 7.6-2-.9-.8-1.4-1.7-1.6-2.7M25.3 24.7c-1.2-2.2-1.6-5-1.2-7.8.5-2.8 1.9-5.7 4.1-8.2-3.9 0-7.8 1.2-11 3.5-.2 1.7-.2 3.3 0 4.8s.7 2.9 1.2 4.2c1.2 2.6 3 4.7 5.1 6 .2-.5.4-1 .7-1.4.1-.2.3-.4.5-.6l.3-.3c.2 0 .2-.1.3-.2M30.3 24.3c.4-.5.9-.9 1.4-1.3.5-.4 1.1-.7 1.6-1.1 1.1-.7 2.4-1.2 3.9-1.3 2.9-.3 6.4.9 9.4 3.4-.4-2.3-1.3-4.5-2.6-6.5-.6-1-1.4-2-2.2-2.8-.4-.4-.9-.9-1.3-1.2l-.3-.3-.3-.2c-.2-.1-.4-.3-.6-.4-3.3.7-6.1 2.2-8 4.2-2 2-3.2 4.5-3.5 7.1.9-.3 1.8-.1 2.5.4"/>
    </g>
    <g fill="#a93feb">
        <path d="M37.1 30.1c1.9 1.7 3.5 4 4.6 6.6.5 1.3 1 2.7 1.2 4.2.3 1.5.4 3.1.3 4.7l2.1-1.8c.6-.6 1.2-1.3 1.8-1.9 1.1-1.3 2.1-2.8 2.9-4.4-2.5-5.9-7-10-12-11.4-.1 1.4-.3 2.8-.9 4M31.7 35.1c-.1 2.6-1 5.2-2.5 7.6-1.5 2.4-3.8 4.5-6.6 6.2 3.4 1.3 7.1 1.6 10.7 1.1 1.7-2.8 2.7-5.7 2.9-8.6.2-2.9-.3-5.6-1.4-7.9-.9.7-2 1.3-3.1 1.6M25.1 33.2c-2.2 1.3-4.8 2.1-7.6 2-2.8-.1-5.8-1-8.6-2.8.6 3.8 2.3 7.4 4.7 10.3 6.5 0 11.9-3.2 14.5-7.7-1.1-.4-2.1-1-3-1.8M23.7 27.3c-2.2-1.3-4-3.4-5.1-6-.6-1.3-1-2.7-1.2-4.2-.2-1.5-.2-3.2 0-4.8-.8.6-1.6 1.2-2.3 1.9-.7.7-1.3 1.4-1.9 2.1-1.2 1.5-2.1 3.2-2.9 4.9 1.4 3 3.5 5.4 5.8 7 2.3 1.6 5 2.4 7.5 2.4-.3-1.2-.3-2.3.1-3.3M27.8 23.7c.3-2.5 1.5-5 3.5-7.1 2-2 4.8-3.6 8-4.2-3.2-2.3-7.1-3.6-11-3.6-2.3 2.5-3.7 5.4-4.1 8.2-.5 2.8 0 5.6 1.2 7.8.6-.7 1.5-1 2.4-1.1"/>
        <path d="M30.9 24.7c2.6-.5 5.7.4 8.6 2.7 2.4 2.1 4.2 5.4 4.9 9.1 2.1-3.5 3-8 2.2-12.5-3-2.5-6.4-3.6-9.4-3.4-1.5.1-2.8.6-3.9 1.3-.5.4-1.1.7-1.6 1.1-.5.4-1 .8-1.4 1.3.2.1.4.2.6.4"/>
    </g>
    <path d="M14.8 38.2c2.2 3.5 5.6 6.1 9.5 7.4 3.9 1.3 8.1 1.2 12-.3 3.8-1.5 8.6-5 11.2-12 0 0-.8-1.2-1.2-1.5-.8 2.7-1.9 4.7-1.9 4.7l-4.9-9.1c-.8-4.9-4.3-9-8.9-10.3-4.7-1.3-13.7 1.5-16.6 9.3-1.5 3.8-1.4 8.4.8 11.8m16.7-13.7h-.3c-.3-.1-.1-.1.3 0" opacity=".1"/>
    <g fill="#b2f25e">
        <path d="M30.9 24.7c2.7 1.9 5 5.2 6.2 9.4.5 3.2 0 6.7-1.4 9.9 3.6-1.4 6.7-4 8.8-7.6-.7-3.7-2.5-7-4.9-9.1-2.9-2.3-6.1-3.1-8.7-2.6"/>
        <path d="M30.9 24.7c-1 4.3-3.4 8.3-6.8 11.1-2.4 1.3-5.3 1.9-8.4 1.6 2 3.2 5.2 5.7 8.8 6.8 2.8-1.7 5.1-4 6.4-6.7 1.4-4.4 1.3-9 0-12.8"/>
        <path d="M30.3 25.4c-2.5.5-4.5 0-5.3-.9-.7-.5-1.3-1.1-1.8-2-.5-.9-.8-1.9-.7-3.2-.9.5-6.4 3.2-7.7 8 4.6 5.6 12.2 1.7 15.5-1.9"/>
    </g>
    <g fill="#a93feb">
        <path d="M30.9 24.7c1.3 3.8 1.4 8.4 0 12.9-1.4 2.7-3.6 5-6.4 6.7 3.6 1.2 7.6 1.1 11.1-.3 1.5-3.2 2-6.7 1.4-9.9-1.1-4.2-3.4-7.5-6.1-9.4"/>
        <path d="M30.9 24.7c-3 3-10.7 6.2-16.2 2.6-.8 3.7-.6 7 1 10.2 3.1.3 6-.4 8.4-1.6 3.4-2.9 5.8-6.9 6.8-11.2"/>
        <path d="M30.3 25.4c-1.1-.6 7.5 2.1 8.3 3.8.1-.5.1-1.2 0-1.9l-.1-.6v-.3l-.1-.3c-.1-.4-.2-.9-.4-1.4-.4-1-1-2-1.9-3.1-.5-.5-1-1-1.6-1.5l-.9-.6c-.3-.2-.6-.4-1-.5-.7-.3-1.3-.5-2-.7-.6-.2-1.2-.3-1.8-.3-1.1-.1-2 0-2.8.1-1.6.3-2.6.8-3.5 1.3-.1 1.3.2 2.4.7 3.2.5.9 1.1 1.5 1.8 2 .8.8 2.8 1.3 5.3.8"/>
    </g>
    <path d="M25.9 36c1.4 1.4 3.3 2 5.6 1.5 2.9-.7 8.4-2.8 8-10.1-.4-.3-1-.7-1-.7s.3 1.4.1 2.6L25.3 32c-.6 1.3-.5 3 .6 4" opacity=".1"/>
    <path fill="#b2f25e" d="M30.3 25.4c.3 0 .8.3 1.3.9.5.5 1 1.4 1.4 2.5 1.1 2.7.3 5.7-1.7 8 1.8-.3 3.6-1.2 4.9-2.5.7-.7 1.2-1.4 1.6-2.2.4-.8.7-1.7.8-2.8-2-8.4-10.4-5-8.3-3.9"/>
    <path fill="#a93feb" d="M30.3 25.4c1.7 3.3-1.7 6.1-5.2 7.2-.2.8-.1 1.8.9 2.8.5.5 1.1.9 1.9 1.2.1 0 .2.1.3.1 0 0 .2 0 .2.1h.2c.2 0 .4.1.7.1h1.4c.2 0 .3 0 .5-.1 2-2.3 2.8-5.3 1.7-8-.3-1.1-.9-1.9-1.4-2.5-.5-.6-.9-.9-1.2-.9"/>
    <path fill="#b2f25e" d="M30.3 25.4c-1.4 3.8-4.7 4.4-5.2 7.2 2.4-.3 7.6-3.2 5.2-7.2"/>
</svg>