<svg xmlns="http://www.w3.org/2000/svg" viewBox="0 0 64 64">
    <title>fried shrimp</title>
    <path fill="#f46c6c" d="M27.7 12.2c-3.8 5.2-23.1 9.6-23.1 9.6S7.4 16.4 15 13c0 0-8 3.3-13 1.5 0 0 7.7-8.7 24-10.2l1.7 7.9"/>
    <path fill="#f8bd17" d="M58.2 43.9"/>
    <path fill="#f8d317" d="M60.9 27.1c-.7-2.8.6-5.8-1.7-6.9-1.1-.5-1.8-2.1-2-3.3-.3-1.3-.1-2.3-1.1-3.2-1-.9-2.7-1.5-3.7-2.4-.9-.9-.6-2.2-1.3-3.2-.9-1.3-2.1-1.7-3.6-1.9-1.4-.2-2.5-.7-3.6-1.6-1.1-.9-2.2-1.9-3.7-1.8-1.2 0-2.4.6-3.6.5-1.4 0-2.3-1.3-3.7-1.3-1.1.1-1.9 1.1-2.8 1.5-1.1.5-2.2-.1-3.4 0-1.1.1-1.7 1.1-2.2 2-.7 1.3-1.9 1.4-3 2.3-.7.5-.9 1.7 0 3.3.8 1.3.6 3.2 1.7 4.4 1.1 1.2 3.5-.6 4.8.1 1.6.8 2.1 1.7 4 2 1.2.2 2.9 2.7 3.7 3.2 1.2.6 3 1.8 3.7 2.8.6.9 1.1 3 1.3 4.1.2 1.3-.6 3.3-1.4 3.9-1.2.8-2.6 2.3-3.6 3.3-1.7 1.6-3.7-.3-5.6.3-1.2.3-2.1 1.2-3.3 1.2-1.3 0-2.5-.7-3.9-.8-1.6-.1-3.9 1.6-5 2.5-1.4 1.2-2.9 1.3-4.5 2-1.5.7-2 2.1-2.4 3.7-.4 1.5-2.3 1.6-2.7 2.4-.9 1.5 1.3 3.5 2.3 6.9 1.2 3.8 1.7 1.6 4.8 3.3 1.2.6 1.9 2.4 3.4 3 1.7.7 3.3-.5 4.9.5 1.1.7 1.6 2.5 3 2.2 1.3-.3 2.5-2.3 3.9-1.8 3.5 1.2 3.3-.5 6.5-.4 1.7 0 3.6 1.7 5.1.3 1.4-1.2 2.3-3.1 4.1-3.3 3.5-.3 3.7-3.1 6.4-4.6 3.6-2.1 4.9-6.2 5.5-8.3.8-2.8 1.2-5.9 3.3-9.7 1.2-2.5 0-4.8-.6-7.2"/>
    <g fill="#f8b100">
        <path d="M21.8 42.1c-1 1.1-2.1 1.9-3.2 2.3 1.5 1.1 3.6.8 4.9-.7 1.3-1.5 1.4-3.7.3-5.2-.3 1.2-1 2.4-2 3.6M32.3 46.7c-1 1.1-2.1 1.9-3.2 2.3 1.5 1.1 3.6.8 4.9-.7 1.3-1.5 1.4-3.7.3-5.2-.4 1.2-1 2.5-2 3.6M25.3 54.7c-1 1.1-2.1 1.9-3.2 2.3 1.5 1.1 3.6.8 4.9-.7 1.3-1.5 1.4-3.7.3-5.2-.3 1.2-1 2.5-2 3.6M39.9 53.2c-1 1.1-2.1 1.9-3.2 2.3 1.5 1.1 3.6.8 4.9-.7 1.3-1.5 1.4-3.7.3-5.2-.3 1.3-1 2.5-2 3.6M52.6 45.5c-1 1.1-2.1 1.9-3.2 2.3 1.5 1.1 3.6.8 4.9-.7 1.3-1.5 1.4-3.7.3-5.2-.3 1.3-1 2.5-2 3.6M38 37.5c-1 1.1-2.1 1.9-3.2 2.3 1.5 1.1 3.6.8 4.9-.7s1.4-3.7.3-5.2c-.4 1.2-1.1 2.4-2 3.6M45.5 40.4c-1 1.1-2.1 1.9-3.2 2.3 1.5 1.1 3.6.8 4.9-.7 1.3-1.5 1.4-3.7.3-5.2-.4 1.3-1 2.5-2 3.6M48.7 28.4c-1 1.1-2.1 1.9-3.2 2.3 1.5 1.1 3.6.8 4.9-.7 1.3-1.5 1.4-3.7.3-5.2-.4 1.2-1 2.4-2 3.6M41.3 19.1c-1 1.1-2.1 1.9-3.2 2.3 1.5 1.1 3.6.8 4.9-.7 1.3-1.5 1.4-3.7.3-5.2-.4 1.2-1 2.4-2 3.6M51 17.5c-1 1.1-2.1 1.9-3.2 2.3 1.5 1.1 3.6.8 4.9-.7 1.3-1.5 1.4-3.7.3-5.2-.4 1.2-1 2.5-2 3.6M41.1 10.1c-1 1.1-2.1 1.9-3.2 2.3 1.5 1.1 3.6.8 4.9-.7 1.3-1.5 1.4-3.7.3-5.2-.4 1.2-1 2.4-2 3.6M31.6 10.4c-1.1 1-2.4 1.6-3.5 1.9 1.4 1.3 3.5 1.3 5 0s1.9-3.5 1-5.1c-.6 1.1-1.4 2.3-2.5 3.2M15.6 41.1l-1 1 1 1.1 1-1.1zM16.5 48.3l-1 1 1 1 1-1zM29.7 39.2l-1 1 1 1 1.1-1zM39.7 44.4l-1 1 1 1 1-1zM43.8 33.8l-1 1 1 1 1-1zM54.4 33.2l-1.1 1 1.1 1 1-1zM50.8 39.5l-1 1 1 1 1-1zM47.2 50.2l-1 1 1 1 1.1-1zM33.1 53.4l-1 1 1 1 1-1zM18.6 52.7l-1 1 1 1 1-1zM11.9 48.3l-1 1 1 1 1-1zM58.2 36.2l-1 1 1 1 1-1zM25.1 10.9l-1 1 1 1 1-1zM55 22l-1 1 1 1.1 1.1-1.1zM45.5 23.8l-1 1 1 1 1-1zM49.3 13l-1 1 1 1 1-1zM36.7 15.8l-1 1 1 1.1 1-1.1zM39.1 5l-1 1 1 1 1-1zM29.7 5.5l-1 1 1 1 1.1-1zM24.6 46.2l-1 1 1 1 1-1zM56.1 27.1l-1.1 1 1.1 1 1-1zM46.5 8.2l-1 1 1 1 1-1z"/>
    </g>
</svg>