<svg xmlns="http://www.w3.org/2000/svg" viewBox="0 0 64 64">
    <title>popcorn</title>
    <path fill="#edd8b4" d="M51 11.9c1.9-5.8-5.4-9-8.4-5.8-3.9-6.4-12.2-1.8-12.2-1.8s-4.5-5-10.3-.4c-2.1-2.1-8.4-2.6-8.2 7.6-7 .6-6.9 10.4-3.7 11.9l46.2 4c4.5-1.8 6.2-13.8-3.4-15.5"/>
    <path fill="#fff8d6" d="M21.8 4.8C22.3.5 14 1.3 15.3 6c-3.1 1.1-.9 5.8 1.6 4.6.1 3.7 6.3 2.8 5.4-1.1 2.3 1 4.3-5.2-.5-4.7"/>
    <path fill="#edd8b4" d="M20.7 6.1c.9-1.6-2.1-3.4-2.3-.5-1.8-1.5-4.1 2.7-.9 2.8-1.5 2.3 2.4 3.7 3.1 1.5 3.1-.3 2.2-4.3.1-3.8"/>
    <path fill="#c9ae81" d="M20.8 7.7c-1.2-.3-1-.4-.9-1.3.2-1.7-.8-1.7-.7-.1.1 1-.1 1.4-1.1.6-1.3-.9-1.4.1-.2.5 1.1.5.7.2.7 1.6 0 1.1.6 1.4.7 0 .1-1.4 0-1.3 1.1-.6 1.1.6 1.5-.4.4-.7"/>
    <path fill="#fff8d6" d="M17.9 15.8c2.3-2-3.3-7.4-5.4-1.9-4.4-2.7-6.5 5.4-2.2 7.7 2.1 1.2 14.2.4 7.6-5.8"/>
    <path fill="#edd8b4" d="M13.3 15.8c-1.2-1.8-4.8.5-1.9 2.3-6.3 2.9 11.4 5 5.9-.3 1.4-3.6-3.3-4.6-4-2"/>
    <path fill="#c9ae81" d="M15.1 16.5c-1 1.1-1 .9-1.9.4-1.7-1.1-2.3.6-.4 1.4 1.1.4 1 .6 2.5 1.4 1.2.6 1.8 0 .3-.8s-1.4-.6 0-1.5c1.3-1.1.4-2-.5-.9"/>
    <path fill="#fff8d6" d="M55.6 18.6c2.1-1.8-2.9-6.6-4.8-1.7-3.9-2.4-7.3 6-2 6.9-.4 3.6 5.2 3.6 5.2.6 3.6 1.7 5.9-4.8 1.6-5.8"/>
    <path fill="#edd8b4" d="M51.5 18.6c-1.1-1.6-4.4.4-1.7 2-2.4 1.1.6 5.2 2.3 2.1 1.6 2.5 4.8-.7 3.1-2.4 1.1-3.1-3.1-4-3.7-1.7"/>
    <path fill="#c9ae81" d="M53.1 19.2c-.9 1-.9.8-1.7.3-1.5-1-2.1-.1-.4.6 1 .4 1.3.7 0 1.4-1.5.8-.5 1.4.4.5 1-1 .5-.7 1.8 0 1.1.5 1.6 0 .3-.7s-1.3-.6 0-1.4c1.2-.8.4-1.7-.4-.7"/>
    <path fill="#fff8d6" d="M35.8 7c2.2-1.9-3.1-6.9-5-1.8-4.1-2.5-7.6 6.2-2.1 7.2-.4 3.7 5.4 3.8 5.5.6 3.7 1.8 6-5 1.6-6"/>
    <path fill="#edd8b4" d="M31.5 7c-1.1-1.7-4.5.4-1.8 2.1-2.5 1.1.6 5.4 2.4 2.2 1.6 2.6 5-.7 3.2-2.5 1.3-3.3-3.2-4.2-3.8-1.8"/>
    <path fill="#c9ae81" d="M33.1 7.6c-1 1.1-.9.9-1.8.4-1.6-1-2.2-.1-.4.6 1 .4 1.3.8.1 1.4-1.6.9-.6 1.5.4.5s.5-.7 1.9 0c1.1.6 1.7 0 .3-.7-1.4-.8-1.3-.6 0-1.4 1.2-.9.4-1.7-.5-.8"/>
    <path fill="#fff8d6" d="M27.6 16.1c.6-2.9-7-4-5.3 1.6-5 .4-2.9 7.4 2.9 7.4 8.2-.1 6.7-10.9 2.4-9"/>
    <path fill="#edd8b4" d="M23.2 18.8c-1.6 7.9 9.9 5 5.1-.8-1-3.6-4.5-1.8-5.1.8"/>
    <path fill="#c9ae81" d="M25.7 18.2c-.1 1.5-1.2.8-2 1.5-2.3 2 3.9 3.9 4.9.3.2-.9-2.6.1-2.1-1.4.6-1.5-.6-1.7-.8-.4"/>
    <path fill="#fff8d6" d="M45.3 9.3c.6-2.9-6.9-3.9-5.2 1.6-4.9.4-2.3 9.7 2.8 7.2 2 3.3 6.8-.1 4.9-2.7 4.1-.9 1.8-7.9-2.5-6.1"/>
    <path fill="#edd8b4" d="M41.8 11.9c-2-.7-3.4 3.1-.1 2.8-1.3 2.4 3.9 4.1 3.3.4 3 1.2 3.7-3.6 1.1-3.9-1.1-3.6-5.3-1.7-4.3.7"/>
    <path fill="#c9ae81" d="M43.6 11.4c-.1 1.5-.2 1.3-1.2 1.3-1.9.1-1.8 1.2 0 .8 1.1-.3 1.6-.2.9 1.2-.8 1.7.5 1.6.7.1.2-1.5 0-.9 1.5-1.1 1.3-.2 1.4-1-.2-.8-1.6.2-1.4.3-.9-1.2.5-1.4-.7-1.6-.8-.3"/>
    <path fill="#ed4c5c" d="M7.8 22.4L15.7 62h6.5l-5.3-39.6c-.4-5.6-9.9-5.6-9.1 0"/>
    <path fill="#f9f9f9" d="M16.9 22.4L22.2 62h6.5L26 22.4c0-5.6-9.5-5.6-9.1 0"/>
    <path fill="#ed4c5c" d="M26 22.4L28.7 62h6.5V22.4c.3-5.6-9.2-5.6-9.2 0"/>
    <path fill="#f9f9f9" d="M35.2 22.4V62h6.4l2.7-39.6c.6-5.6-8.8-5.6-9.1 0"/>
    <path fill="#c94747" d="M41.6 62l4.1-2.8 1.9-35.5c.6-4.3-3-5.9-3.4-1.3L41.6 62"/>
    <path fill="#e8e8e8" d="M49.2 56.8L51.1 25c.7-4-2.8-5.6-3.4-1.3l-1.9 35.5 3.4-2.4"/>
    <path fill="#c94747" d="M52.1 54.9l2.3-28.5c.8-3.7-2.6-5.3-3.3-1.3l-1.9 31.8 2.9-2"/>
    <path fill="#e8e8e8" d="M54 53.6l2.3-26c.2-2.9-1.6-3.9-1.9-1.2l-2.3 28.5 1.9-1.3"/>
</svg>