<svg xmlns="http://www.w3.org/2000/svg" xmlns:xlink="http://www.w3.org/1999/xlink" viewBox="0 0 64 64">
    <title>bento box</title>
    <path id="a" fill="#3e4347" d="M62 55.6c0 .8-.6 1.4-1.4 1.4H3.4c-.8 0-1.4-.6-1.4-1.4V8.4C2 7.6 2.6 7 3.4 7h57.2c.8 0 1.4.6 1.4 1.4v47.2"/>
    <use xlink:href="#a"/>
    <g fill="#ff5760">
        <path d="M36.1 36.8c0-1.5-1.2-2.7-2.8-2.7H8.9c-1.5 0-2.8 1.2-2.8 2.7v13.3c0 1.5 1.2 2.7 2.8 2.7h24.5c1.5 0 2.8-1.2 2.8-2.7-.1 0-.1-13.3-.1-13.3M23.7 13.9c0-1.5-1.2-2.7-2.8-2.7h-12c-1.5 0-2.8 1.2-2.8 2.7v13.3c0 1.5 1.2 2.7 2.8 2.7H21c1.5 0 2.8-1.2 2.8-2.7-.1 0-.1-13.3-.1-13.3M30.6 11.1c-1.5 0-2.8 1.2-2.8 2.7v13.3c0 1.5 1.2 2.7 2.8 2.7h24.5c1.5 0 2.8-1.2 2.8-2.7V13.9c0-1.5-1.2-2.7-2.8-2.7H30.6z"/>
    </g>
    <path fill="#fff" d="M33.5 41.4c0-1.1-.9-2.1-2.1-2.1 1.1 0 2.1-.9 2.1-2.1 0-1.1-.9-2.1-2.1-2.1-1.1 0-2.1.9-2.1 2.1 0-1.1-.9-2.1-2.1-2.1-1.1 0-2.1.9-2.1 2.1 0-1.1-.9-2.1-2.1-2.1-1.1 0-2.1.9-2.1 2.1 0-1.1-.9-2.1-2.1-2.1S17 36.2 17 37.3c0-1.1-.9-2.1-2.1-2.1-1.1 0-2.1.9-2.1 2.1 0-1.1-.9-2.1-2.1-2.1-1.1 0-2.1.9-2.1 2.1 0 1.1.9 2.1 2.1 2.1-1.1 0-2.1.9-2.1 2.1 0 1.1.9 2.1 2.1 2.1-1.1 0-2.1.9-2.1 2.1 0 1.1.9 2.1 2.1 2.1-1.1 0-2.1.9-2.1 2.1 0 1.1.9 2.1 2.1 2.1 1.1 0 2.1-.9 2.1-2.1 0 1.1.9 2.1 2.1 2.1 1.1 0 2.1-.9 2.1-2.1 0 1.1.9 2.1 2.1 2.1s2.1-.9 2.1-2.1c0 1.1.9 2.1 2.1 2.1 1.1 0 2.1-.9 2.1-2.1 0 1.1.9 2.1 2.1 2.1 1.1 0 2.1-.9 2.1-2.1 0 1.1.9 2.1 2.1 2.1 1.1 0 2.1-.9 2.1-2.1 0-1.1-.9-2.1-2.1-2.1 1.1 0 2.1-.9 2.1-2.1 0-1.1-.9-2.1-2.1-2.1.9-.1 1.8-1.1 1.8-2.2"/>
    <circle cx="21.1" cy="43.5" r="2.1" fill="#ff5760"/>
    <ellipse cx="14.9" cy="20.5" fill="#3e4347" rx="8" ry="8"/>
    <ellipse cx="14.9" cy="20.5" fill="#c94747" rx="6.4" ry="6.4"/>
    <path fill="#dae3ea" d="M57.1 19.8c0-.4-.6-.6-.7-.9.1-.4.5-.5.6-.8.2-.4-.4-.7-.6-1-.3-.4.3-.9 0-1.3-.2-.4-.8-.2-1.1-.5-.3-.3-.1-.9-.5-1.1-.4-.2-.8.2-1.2.1-.4-.1-.6-.9-1.1-.7-.3.2-.5.7-1 .7-.3 0-.9-.4-1.1 0-.2.3-.1.9-.5 1-.4.2-1.1.1-.9.7.1.4.3.8-.1 1.1-.3.3-.7.6-.3 1 .2.2.7.5.5.8-.3.3-.9.6-.5 1.1.2.2.7.5.5.9-.2.3-.8.6-.6 1 .1.2.7.5.6.9-.1.4-.9.6-.6 1.1.2.3.7.5.7 1 0 .3-.4.9 0 1.1.3.2.9.1 1.1.5.2.4.1 1.1.7.9.4-.1.8-.3 1.1.1.3.3.6.7 1 .3.3-.3.5-.6 1-.5.5.1.9.2 1-.4.1-.5.3-.7.8-.8.5-.1.6-.3.5-.8-.2-.5-.1-.7.3-1.1.5-.5.3-.7-.2-1.1-.7-.7.9-1 .3-1.7-.2-.2-.6-.4-.5-.7.2-.4.8-.5.8-.9"/>
    <g fill="#839391">
        <path d="M50.3 16.7c.2-.4 0-1 .4-1.2.3-.2.9.2 1.1.1.4-.2.6-.7 1.1-.7.4 0 .7.7 1 .7.4 0 .8-.3 1.2 0 .4.2.2.9.4 1.2-.3-.3-.3-.7-.6-1-.2-.1-.8.3-1.1.2-.4-.1-.6-.7-.9-.7-.1 0-.6.6-.8.7-.4.1-.8-.2-1.2-.2-.3.1-.3.7-.6.9M50.3 20.7c.2-.4 0-1 .4-1.2.3-.2.9.2 1.1.1.4-.2.6-.8 1.1-.7.4 0 .7.7 1 .7.4 0 .8-.3 1.2 0 .4.2.2.9.4 1.2-.3-.3-.3-.7-.6-1-.2-.1-.8.3-1.1.2-.4-.1-.6-.7-.9-.7-.1 0-.6.6-.8.7-.4.1-.8-.2-1.2-.2-.3.1-.3.7-.6.9M50.3 18.7c.2-.4 0-1 .4-1.2.3-.2.9.2 1.1.1.4-.2.6-.7 1.1-.7.4 0 .7.7 1 .7.4 0 .8-.3 1.2 0 .4.2.2.9.4 1.2-.3-.3-.3-.7-.6-1-.2-.1-.8.3-1.1.2-.4-.1-.6-.7-.9-.7-.1 0-.6.6-.8.7-.4.1-.8-.2-1.2-.2-.3.1-.3.7-.6.9"/>
    </g>
    <g fill="#fc97b2">
        <path d="M55.3 24.4s0 .1 0 0M55.3 24.5c0 .1 0 .1 0 0M51.6 24.7c-.9-1.1-.3-3.1 1.3-2.9 1.3.2 1.7 2.4.3 2.2-.6-.1-1-.9-.3-1.2.6-.3.7.4.7.8.8-.6-.4-1.6-1.1-1-.7.5-.4 1.5.3 1.9 1.9 1 3-2.5.8-3-2-.5-3.2 2.1-2.1 3.6s3.5 1.1 4.1-.7c-.6.3-.9 1-1.7 1.1-1.1.1-1.8-.2-2.3-.8"/>
    </g>
    <path id="b" fill="#fc97b2" d="M55.3 24.5"/>
    <use xlink:href="#b"/>
    <g fill="#83bf4f">
        <path d="M45.4 18c-4.2-1.3-8.7-1.3-13 0-1.7.6-3-2.4-.9-3.1 4.8-1.5 10-1.5 14.8 0 2.1.7.8 3.7-.9 3.1"/>
        <path d="M45.4 22.6c-4.2-1.3-8.7-1.3-13 0-1.7.6-3-2.4-.9-3.1 4.8-1.5 10-1.5 14.8 0 2.1.7.8 3.7-.9 3.1"/>
        <path d="M45.4 27.2c-4.2-1.3-8.7-1.3-13 0-1.7.6-3-2.4-.9-3.1 4.8-1.5 10-1.5 14.8 0 2.1.7.8 3.7-.9 3.1"/>
    </g>
    <path fill="#ff5760" d="M43 34.1c-1.5 0-2.8 1.2-2.8 2.7v13.3c0 1.5 1.2 2.7 2.8 2.7h12.1c1.5 0 2.8-1.2 2.8-2.7V36.8c0-1.5-1.2-2.7-2.8-2.7H43"/>
    <path fill="#fbbf67" d="M54.8 37.1c0-1.1-1.3-1.8-1.9-1.9-.5-.1-1.6.1-1.9.3-.3-.2-1.4-.5-1.9-.5s-1.8.3-2.1.5c-.3-.2-1.3-.3-1.8-.3-.7.1-1.9.9-1.9 1.9-1.1 0-1.9.9-1.9 1.9s.9 1.9 1.9 1.9c0 1.1 1.3 1.8 1.9 1.9.4.1 1.5-.1 1.8-.3.3.2 1.5.3 2.1.3.5 0 1.7-.2 1.9-.3.3.2 1.4.3 1.9.3.7-.1 1.9-.9 1.9-1.9 1.1 0 1.9-.9 1.9-1.9s-.8-1.9-1.9-1.9"/>
    <g fill="#89664c">
        <path d="M51.6 36.5h1v5h-1zM45.6 36.5h1v5h-1zM48.6 36.5h1v5h-1z"/>
    </g>
    <path fill="#fbbf67" d="M54.8 46.1c0-1.1-1.3-1.8-1.9-1.9-.5-.1-1.6.1-1.9.3-.3-.2-1.4-.5-1.9-.5s-1.8.3-2.1.5c-.3-.2-1.3-.3-1.8-.3-.7.1-1.9.9-1.9 1.9-1.1 0-1.9.9-1.9 1.9s.9 1.9 1.9 1.9c0 1.1 1.3 1.8 1.9 1.9.4.1 1.5-.1 1.8-.3.3.2 1.5.3 2.1.3.5 0 1.7-.2 1.9-.3.3.2 1.4.3 1.9.3.7-.1 1.9-.9 1.9-1.9 1.1 0 1.9-.9 1.9-1.9s-.8-1.9-1.9-1.9"/>
    <g fill="#89664c">
        <path d="M51.6 45.5h1v5h-1zM45.6 45.5h1v5h-1zM48.6 45.5h1v5h-1z"/>
    </g>
</svg>