<svg xmlns="http://www.w3.org/2000/svg" viewBox="0 0 64 64">
    <title>fork and knife with plate</title>
	<circle cx="32.8" cy="32" r="22" fill="#dae3ea"/>
	<path fill="#acb8bf" d="M32.7 17.1c-8.6 0-15.7 6.6-16 14.9v-.5c0-8.5 7.2-15.5 16-15.5s16 6.9 16 15.5v.5c-.3-8.3-7.3-14.9-16-14.9"/>
	<path fill="#fff" d="M32.7 46.9c8.6 0 15.7-6.6 16-14.9v.5c0 8.5-7.2 15.5-16 15.5s-16-6.9-16-15.5V32c.4 8.3 7.4 14.9 16 14.9"/>
	<g fill="#acb8bf">
		<path id="fork" d="M3.5 7.4c.2-.9.7 0 .7 0s.2 9.7 1.2 9.8c1.1.2.3-10 1.6-10.2 1.2-.2.5 10.4 1.6 10.3 1.1-.1 1.3-9.9 1.3-9.9s.5-.9.7 0c2.9 11.5.6 16.2.6 16.2s-.4 1-1.4 1c-.1 0 0 27.3 0 31 0 1.8-5.5 1.7-5.5 0 0-3.7.1-31 0-31-1 0-1.4-1-1.4-1s-2.4-4.7.6-16.2"/>
		<path id="knife" d="M55.6 7c1.2 0 6.4 3.7 6.4 17.5 0 4.4-2.4 4.4-2.4 7.2v24.6S57 58 55 56.1V7.4s0-.4.6-.4" transform="scale(-1,1) translate(-117,0)"/>
	</g>
</svg>