<svg xmlns="http://www.w3.org/2000/svg" viewBox="0 0 64 64">
    <title>wine glass</title>
    <path fill="#961623" d="M15.1 22.1C16 30.1 23.3 37 32 37c9.4 0 17.1-8 17.1-16.7v-.2c-9.8-1.3-22.1 5.8-34 2"/>
    <path fill="#a1b8c7" d="M54 20.4C54 9 48.3 2 48.3 2H15.7S10 9.1 10 20.4c0 10.8 9.3 20.9 20.9 21.5-.1 6.3-.7 12.8-2.2 15.1-2.2 3.2-9.8 1.6-9.8 5h26.2c0-3.4-7.6-1.8-9.8-5-1.5-2.3-2.1-8.8-2.2-15.1C44.7 41.3 54 31.3 54 20.4M32 39.3c-9.8 0-17.9-7.8-18.9-16.7-.1-.6-.1-1.3-.1-1.9 0-9.9 4.9-15.9 4.9-15.9h28.2s4.8 6 4.9 15.7v.2c0 9.6-8.5 18.6-19 18.6" opacity=".8"/>
</svg>