<svg xmlns="http://www.w3.org/2000/svg" viewBox="0 0 64 64">
    <title>shortcake</title>
    <g fill="#d3976e">
        <path d="M57.7 54.7L2 62V51.6l55.7-7.5zM57.8 33.2L2 40.9v-11L57.8 22z"/>
    </g>
    <path fill="#fff" d="M57.7 44.1L2 51.6V40.9l55.8-7.7z"/>
    <path fill="#ef4d3c" d="M20.8 39.7c.2 4.4-3.5 8.4-8.3 9.1-4.8.6-8.9-2.3-9.1-6.7l17.4-2.4"/>
    <path fill="#ff717f" d="M18.6 40c.1 3.3-2.6 6.3-6.2 6.8s-6.6-1.7-6.8-5l13-1.8"/>
    <path fill="#ef4d3c" d="M56.2 34.9c0 4.4-3.9 8.5-8.8 9.2-4.8.7-8.8-2.4-8.9-6.8l17.7-2.4"/>
    <path fill="#ff717f" d="M53.9 35.2c0 3.3-2.9 6.4-6.5 6.9s-6.6-1.8-6.6-5l13.1-1.9"/>
    <path fill="#ef4d3c" d="M21.2 47.6c-.2-4.3 3.6-8.5 8.4-9.1 4.9-.7 8.9 2.4 9 6.7l-17.4 2.4"/>
    <path fill="#ff717f" d="M23.4 47.3c-.1-3.2 2.7-6.3 6.3-6.8 3.6-.5 6.6 1.8 6.7 5l-13 1.8"/>
    <g fill="#c98659">
        <path d="M3 34.7l2.7 2.1L8.2 34l-2.8-2zM20.8 34.2l2.7 2.1 2.5-2.8-2.7-2zM47.5 31.5l2.6 2.1 2.6-2.8-2.6-2.1zM25.6 30.6l2.2 1.7 2-2.3-2.2-1.6zM45.6 27.9l-2.1 2.2 2.1 1.6 2.1-2.2zM18.7 28.2l-2 2.2 2.1 1.6 2.1-2.2zM8.5 36.4l2.4 1.8 2.2-2.4-2.4-1.8zM14.3 31.3l-1.4 1.6 1.6 1.1 1.4-1.5zM30.8 32.4l1.5 1.1 1.4-1.6-1.5-1.1zM35.1 28.8l1.6 1.2 1.4-1.6-1.5-1.2zM39.7 32.1l1.5 1.1 1.4-1.5-1.5-1.2zM49.6 25.4l-1.5-1.2-1.4 1.6 1.5 1.2zM34.1 34.2l1.5 1.2 1.4-1.6-1.5-1.1zM16.1 36.7l1.5 1.1 1.4-1.5-1.5-1.1zM10.5 30.8L9 29.6l-1.4 1.6 1.5 1.1zM54.6 24.2l-1.5 1.6 1.5 1.2 1.4-1.6zM56 50.1l-2.6-2-2.5 2.7 2.6 2zM38.6 50.6l-2.6-2-2.6 2.7 2.7 1.9zM12.5 53.2l-2.6-2-2.5 2.7 2.7 1.9zM33.8 54l-2.1-1.5-2 2.1 2.1 1.5zM14.5 56.6l1.9-2.1-2.1-1.5-1.9 2.1zM40.5 56.3l2-2.1-2.1-1.5-2 2.1zM50.7 48.5l-2.3-1.7-2.2 2.3 2.2 1.7zM44.8 53.4l1.4-1.5-1.5-1.1-1.4 1.5zM28.8 52.4l-1.5-1.1-1.4 1.5 1.5 1.1zM24.6 55.7l-1.5-1-1.4 1.4 1.5 1.1zM20.1 52.6l-1.5-1.1-1.4 1.5 1.5 1.1zM10.7 58.9l1.5 1.1 1.3-1.5-1.5-1.1zM25.5 50.6L24 49.5 22.7 51l1.5 1.1zM43.2 48.2l-1.4-1.1-1.5 1.5 1.5 1.1zM48.5 53.9l1.4 1.1 1.4-1.5-1.4-1.1zM6 60l1.4-1.5-1.5-1.1-1.4 1.5z"/>
    </g>
    <path fill="#8f6453" d="M62 21.6c0-4.3-17.8-8.7-21.7-8.2C23.6 15.6 2 29.9 2 29.9c16.6-2.2 50.1-6.5 53-6.8 1.5-.2 2.4.1 2.4 1.3v30.3l4.6-.6V21.6"/>
    <path fill="#724e41" d="M55.9 20.9c8.5-1.2-15.5-7.7-19.2-7.2-15.9 2.1-32 14.4-32 14.4s49.2-6.9 51.2-7.2"/>
    <path fill="#8cc63e" d="M42.3 10l1.9-2.7-4.4-.4-.5-4.1-2.9 1.8L32.9 2l-1 11 13.1.2z"/>
    <path fill="#ef4d3c" d="M39.8 18.5c-4.1 3.8-13.2 4.3-15.1 2.5-2-1.8-1.5-10.1 2.7-14 3.1-2.8 7.7-1.5 10.9 1.4 3.1 3 4.5 7.3 1.5 10.1"/>
    <g fill="#ffffc4">
        <path d="M29.2 16.4l-.7.7.7.7.8-.7zM39.5 12.4l-.7.6.7.7.7-.7zM36.1 13l-.7.7.7.7.7-.7zM32.8 12.4l-.7.6.7.7.7-.7zM36.5 9.7l-.7.7.7.6.8-.6zM34.5 6.9l-.7.6.7.7.7-.7zM32.1 9.3l-.7.7.7.6.7-.6zM29.1 12.2l-.7.6.7.7.7-.7zM33 16l-.8.7.8.7.7-.7zM38.2 16.1l-.7.7.7.7.7-.7zM35.4 18.8l-.8.7.8.6.7-.6zM30.7 19.5l-.7.6.7.7.7-.7zM26.2 18.1l-.7.7.7.7.7-.7zM25.7 14.7l-.7.7.7.6.8-.6zM27.9 8.2l-.7.6.7.7.7-.7zM26.2 11.2l-.7.7.7.6.7-.6zM30.9 6l-.7.7.7.6.7-.6z"/>
    </g>
</svg>