<svg xmlns="http://www.w3.org/2000/svg" viewBox="0 0 64 64">
    <title>bottle with popping cork</title>
    <path fill="#b2c1c0" d="M18.3 26.8s1.7-2.2 5.6-3.2c3.1-.9 2.3-3.7 3.8-5.2l1.3 4.2-1 4.2.6 1.5s-1.7-1.2-2.4-1.3c-2.6-.3-7.5.2-7.9-.2"/>
    <path fill="#3e4347" d="M18.3 26.8s1.7-2.2 5.6-3.2c3.1-.9 2.3-3.7 3.8-5.2l1.3 4.2-1 4.2.6 1.5s-1.7-1.2-2.4-1.3c-2.6-.3-7.5.2-7.9-.2"/>
    <path fill="#46732f" d="M38.3 30.7c-6.2-2.6-6.7-2.9-8.6-4.8l-1.2-2.6c-.3-.3-.3-1.1-.9-1.7-.6-.6-2.8-1.3-3.4-2 0 0 .2-.4-.1-.7-.3-.3-1.3.3-2.9 2-1.6 1.6-2.3 2.6-2 2.9.3.3.7.1.7.1.6.6 1.4 2.8 2 3.4.6.6 1.4.6 1.7.9l2.6 1.2c1.9 1.9 2.1 2.4 4.7 8.7 2.2 5.3 3.6 11.1 6.9 16 1.9 2.9 5.3 6.5 9.2 7.7.6.2 1.8.5 2.6-.3l11.8-11.9c.8-.8.5-2.1.3-2.7-1.1-3.8-4.8-7.3-7.6-9.3-4.7-3.3-10.6-4.7-15.8-6.9"/>
    <path fill="#ffe791" d="M39.9 31.3c-.5-.2-1.1-.4-1.7-.7-6.1-2.6-9.2-6.8-9.2-6.8l-1 2.7.7 1.9-1.4-1-3.6.8s4.5 3.4 7.3 9.9c.2.6.4 1.1.7 1.6l1.7-1.7.7 1.7 2.7-1.8 1.1-.3.3-1.1 1.8-2.7-1.7-.7 1.6-1.8"/>
    <path fill="#3e4347" d="M28.7 28.4s-2.4-2.1-5.1-.2l1.7 1.5c.9-.6 2.3-1 3.9-.7 0 0-.6-2.1.9-3.9l-.9-1c-.6.7-1.8 2.9-.5 4.3" opacity=".5"/>
    <g fill="#ffe791">
        <path d="M25.9 26.3c-.8-.4-2.4-.3-3.9.4 0 0 0-.8-.6-.8-.5-.1-2.1.8-3.2.9 0 0 .7.9.6 1.7-.1.8 1.6-.9 2.4-1.1 0 0-.3 1.1-.4 2.2-.1 1 6-3 7.8-1.2.1 0-1.5-1.6-2.7-2.1M28.7 28.4s-1.4-1.4-1.1-3.9c0 0 1.2-.4.8-.8-.4-.4-1.6.4-1.4-1.4.2-1.8 1-2.6.7-3.9 0 0 1.7-.3 1.9 1 .1 1.3-.5 2.5.2 2.4 1-.1 2.1.5.5 2.1-1.7 1.6-2.2 3.2-1.6 4.5M59.7 45.5l-14 14c-2.5-1.6-4.6-3.7-6.2-6.2l14-14C56 41 58 43 59.7 45.5"/>
    </g>
    <g fill="#ede2d1">
        <path d="M18.5 22.7c.2-1.2-7.9-.7-10.4-.3-5.1.7-4.5 6.7.2 3.5 4.3-2.9 10.2-2.9 10.2-3.2M24.2 12.5c.2.3 4.3-8 2.9-7.5-1.1.6-3 7.2-2.9 7.5M21.2 20.4c.3-1.1-5.5-17.4-7.1-18.2-1.6-.8-3.9.7 2.6 10.9 2.8 4.4 3.9 9.3 4.5 7.3M16.9 24.3c-1.9.4-5.1 3.7-3.4 3 1.7-.6 4.6-3.3 3.4-3M23.1 18.3c1.3-1.2 4.4-4.6 2.8-4.1-1.4.3-4.1 5.3-2.8 4.1M21.8 8.3c-1 1.2-.7 7.7.1 9.8.8 2.2.8-11.1-.1-9.8M11.6 20.3c3.9-1.9-11.5-2.2-9.4-.4 2.1 1.8 7.6 1.2 9.4.4"/>
        <ellipse cx="9.2" cy="27.7" rx="1.3" ry=".9" transform="rotate(-21.956 9.231 27.669)"/>
        <ellipse cx="26.2" cy="11.6" rx=".8" ry=".5" transform="rotate(-48.523 26.177 11.602)"/>
        <ellipse cx="12.3" cy="28.7" rx="1" ry=".7" transform="rotate(-35.217 12.332 28.66)"/>
        <ellipse cx="19.1" cy="4.8" rx="1.1" ry="1.6" transform="rotate(-20.022 19.065 4.78)"/>
        <ellipse cx="24" cy="6.3" rx=".5" ry=".8" transform="rotate(-10.857 23.95 6.34)"/>
    </g>
    <path fill="#d3976e" d="M8.9 10.1l-2.3 3.5c-.7 1.1-.4 2.6.7 3.4l1 .7c.8.6 1.9.5 2.7 0l2.2 1.5c1.1.7 2.6.4 3.4-.7l.7-1c.7-1.1.4-2.6-.7-3.4l-2.2-1.5c.2-.9-.2-2-1-2.5l-1-.7c-1.3-.7-2.8-.4-3.5.7"/>
    <path fill="#89664c" d="M8.9 10.1s1.3-.8 2.6.1c.4.2.7.5 1 .7.2.2.8 1-.3 2.7-1.3 2-1.5 3.3-1.5 3.3s1.9-3.8 4-2.7c1.5.8 3.4 1.9 1.9 4.2l.7-1c.7-1.1.4-2.6-.7-3.4l-2.2-1.5c.2-.9-.2-2-1-2.5l-1-.7c-1.3-.6-2.8-.3-3.5.8"/>
</svg>