<svg xmlns="http://www.w3.org/2000/svg" viewBox="0 0 64 64">
    <title>carp streamer</title>
    <g fill="#3e4347">
        <path d="M16.3 21.6L4.5 18.4l11.8-3.3.3 1-8.2 2.3 8.1 2.2zM16.3 46.1L4.5 43l11.8-3.3.3 1L8.4 43l8.1 2.1z"/>
    </g>
    <g fill="#6adbc6">
        <path d="M58.1 18.2S48.8 28 37.3 28s-20.8-4.4-20.8-9.8 9.3-9.8 20.8-9.8 20.8 9.8 20.8 9.8"/>
        <path d="M51.2 18.2c0-5.4 3.9-9.8 8.7-9.8 4.8 0-.4 9.8-.4 9.8s5.2 9.8.4 9.8-8.7-4.4-8.7-9.8"/>
    </g>
    <path fill="#428bc1" d="M16.7 14.6c-.9 0-1.7.8-1.7 1.9 0 1 .7 1.9 1.7 1.9-.9 0-1.7.8-1.7 1.9 0 1 .7 1.9 1.7 1.9.9 0 3-3.8 3-3.8s-2.1-3.8-3-3.8"/>
    <path fill="#fff" d="M27.4 15.6c0 1.8-1.3 3.3-2.9 3.3-1.6 0-2.9-1.5-2.9-3.3s1.3-3.3 2.9-3.3c1.6 0 2.9 1.5 2.9 3.3"/>
    <ellipse cx="24.5" cy="15.6" fill="#231f20" rx="1.5" ry="1.7"/>
    <g fill="#428bc1">
        <path d="M30.4 12.6c1.5 2.4 2 5.3 1.3 8.2-.6 2.5-2.2 4.5-4.2 5.7-.5.3-.1 1.2.5.9 2.2-1.3 3.9-3.6 4.6-6.3.8-3 .2-6.4-1.4-9-.4-.6-1.2 0-.8.5M35.5 26.6c2.2 0 3.9-2 3.9-4.4s-1.8-4.4-3.9-4.4v1c2.2 0 3.9-2 3.9-4.4 0-2.4-1.8-4.4-3.9-4.4-.6 0-.6 1 0 1 1.7 0 3 1.5 3 3.4s-1.4 3.4-3 3.4c-.6 0-.6 1 0 1 1.7 0 3 1.5 3 3.4s-1.4 3.4-3 3.4c-.5 0-.5 1 0 1M47 24c1.6 0 2.8-1.4 2.8-3.1 0-1.7-1.3-3.1-2.8-3.1v1c1.6 0 2.8-1.4 2.8-3.1 0-1.7-1.3-3.1-2.8-3.1-.6 0-.6 1 0 1 1 0 1.9.9 1.9 2.1 0 1.2-.9 2.1-1.9 2.1-.6 0-.6 1 0 1 1 0 1.9.9 1.9 2.1 0 1.2-.9 2.1-1.9 2.1-.6 0-.6 1 0 1M41.2 25.6c1.9 0 3.5-1.8 3.5-3.9 0-2.2-1.6-3.9-3.5-4v1c1.9 0 3.5-1.8 3.5-3.9 0-2.2-1.6-3.9-3.5-4-.6 0-.6 1 0 1 1.4 0 2.6 1.3 2.6 2.9s-1.2 2.9-2.6 2.9c-.6 0-.6 1 0 1 1.4 0 2.6 1.3 2.6 2.9 0 1.6-1.2 2.9-2.6 2.9-.6.2-.6 1.2 0 1.2"/>
    </g>
    <g fill="#ff717f">
        <path d="M58.1 42.8s-9.3 9.8-20.8 9.8-20.8-4.4-20.8-9.8S25.8 33 37.3 33s20.8 9.8 20.8 9.8"/>
        <path d="M51.2 42.8c0-5.4 3.9-9.8 8.7-9.8 4.8 0-.4 9.8-.4 9.8s5.2 9.8.4 9.8-8.7-4.4-8.7-9.8"/>
    </g>
    <path fill="#c94747" d="M16.7 39.2c-.9 0-1.7.8-1.7 1.9s.7 1.9 1.7 1.9c-.9 0-1.7.8-1.7 1.9 0 1 .7 1.9 1.7 1.9.9 0 3-3.8 3-3.8s-2.1-3.8-3-3.8"/>
    <path fill="#fff" d="M27.4 40.2c0 1.8-1.3 3.3-2.9 3.3-1.6 0-2.9-1.5-2.9-3.3 0-1.8 1.3-3.3 2.9-3.3 1.6 0 2.9 1.5 2.9 3.3"/>
    <ellipse cx="24.5" cy="40.2" fill="#231f20" rx="1.5" ry="1.7"/>
    <g fill="#c94747">
        <path d="M30.4 37.2c1.5 2.4 2 5.3 1.3 8.2-.6 2.5-2.2 4.5-4.2 5.7-.5.3-.1 1.2.5.9 2.2-1.3 3.9-3.6 4.6-6.3.8-3 .2-6.4-1.4-9-.4-.6-1.2-.1-.8.5M35.5 51.1c2.2 0 3.9-2 3.9-4.4 0-2.5-1.8-4.4-3.9-4.4v1c2.2 0 3.9-2 3.9-4.4 0-2.4-1.8-4.4-3.9-4.4-.6 0-.6 1 0 1 1.7 0 3 1.5 3 3.4s-1.4 3.4-3 3.4c-.6 0-.6 1 0 1 1.7 0 3 1.5 3 3.4s-1.4 3.4-3 3.4c-.5 0-.5 1 0 1M47 48.5c1.6 0 2.8-1.4 2.8-3.1 0-1.7-1.3-3.1-2.8-3.1v1c1.6 0 2.8-1.4 2.8-3.1 0-1.7-1.3-3.1-2.8-3.1-.6 0-.6 1 0 1 1 0 1.9.9 1.9 2.1 0 1.2-.9 2.1-1.9 2.1-.6 0-.6 1 0 1 1 0 1.9.9 1.9 2.1 0 1.2-.9 2.1-1.9 2.1-.6 0-.6 1.1 0 1M41.2 50.1c1.9 0 3.5-1.8 3.5-4s-1.6-3.9-3.5-3.9v1c1.9 0 3.5-1.8 3.5-3.9 0-2.2-1.6-3.9-3.5-4-.6 0-.6 1 0 1 1.4 0 2.6 1.3 2.6 2.9 0 1.6-1.2 2.9-2.6 2.9-.6 0-.6 1 0 1 1.4 0 2.6 1.3 2.6 2.9 0 1.6-1.2 2.9-2.6 2.9-.6.2-.6 1.3 0 1.2"/>
    </g>
    <path fill="#f2b200" d="M3.5 11.3h2.9V62H3.5z"/>
    <path fill="#ffce31" d="M4.9 12.6h.9V62h-.9z"/>
    <path fill="#f2b200" d="M7.9 11.3c0 1.8-1.3 3.3-2.9 3.3s-3-1.5-3-3.3S3.3 8 4.9 8s3 1.5 3 3.3"/>
    <path fill="#ffce31" d="M6.4 10.5c0-.5-.3-.8-.7-.8-.4 0-.7.4-.7.8 0 .5.3.8.7.8.4 0 .7-.4.7-.8"/>
</svg>