<svg xmlns="http://www.w3.org/2000/svg" viewBox="0 0 64 64">
    <title>Japanese dolls</title>
    <path fill="#ce95a0" d="M47 19.7L33.7 58h26.6z"/>
    <g fill="#d51c46">
        <path d="M36.9 48.7h3V58h-3zM42.6 48.7h3V58h-3zM48.4 48.7h3V58h-3zM54.1 48.7h3V58h-3zM51 42.6c0 3.5-7.9 3.5-7.9 0s4-9.3 4-9.3 3.9 5.8 3.9 9.3"/>
    </g>
    <path fill="#f0c0c6" d="M61.9 42.4c-.2-1.8-5.6-10.4-11-12-1.2-.4 1.6 5.8 1.3 7.7-.2 1.3-3.2 4.5-2.2 4.8h-6c1-.3-1.9-3.4-2.1-4.7-.3-1.9 2.5-8.1 1.3-7.7-5.4 1.7-10.8 10.2-11 12-.5 4.6.5 9.3 2 11.3-.3 1.3-.4 2.7-.4 4.2 0 0 7.4-7.7 13.3-7.7S60.3 58 60.3 58c0-1.5-.2-2.9-.4-4.2 1.5-2.1 2.5-6.7 2-11.4"/>
    <path fill="#ce95a0" d="M33.9 52.1c.2.7 2.9.1 3.1-.8 2.5-9.1 7.3-8.2 6.7-8.6-2.5-1.9-11.5 2-9.8 9.4"/>
    <path fill="#fee8d8" d="M43.1 43.4c-1.5-2.2-8.3 1.9-7.7 3.6 1.3 3.2 6.5 4.4 6.3-1.2.1 0 2.8-.3 1.4-2.4"/>
    <path fill="#ce95a0" d="M60.1 52.1c-.2.7-2.9.1-3.1-.8-2.5-9.1-7.3-8.2-6.7-8.6 2.5-1.9 11.5 2 9.8 9.4"/>
    <path fill="#fee8d8" d="M50.9 43.4c1.5-2.2 8.3 1.9 7.7 3.6-1.3 3.2-6.5 4.4-6.3-1.2-.1 0-2.8-.3-1.4-2.4"/>
    <path fill="#258399" d="M17 19.7L3.7 58h26.6z"/>
    <g fill="#d7d16f">
        <path d="M6.9 48.7h3V58h-3zM12.6 48.7h3V58h-3zM18.4 48.7h3V58h-3zM24.1 48.7h3V58h-3zM21 42.6c0 3.5-7.9 3.5-7.9 0s4-9.3 4-9.3 3.9 5.8 3.9 9.3"/>
    </g>
    <path fill="#3baacf" d="M31.9 42.4c-.2-1.8-5.6-10.4-11-12-1.2-.4 1.6 5.8 1.3 7.7-.2 1.3-3.2 4.5-2.2 4.8h-6c1-.3-1.9-3.4-2.1-4.7-.3-1.9 2.5-8.1 1.3-7.7-5.4 1.7-10.8 10.2-11 12-.5 4.6.5 9.3 2 11.3-.3 1.3-.4 2.7-.4 4.2 0 0 7.4-7.7 13.3-7.7S30.3 58 30.3 58c0-1.5-.2-2.9-.4-4.2 1.5-2.1 2.5-6.7 2-11.4"/>
    <path fill="#258399" d="M3.9 52.1c.2.7 2.9.1 3.1-.8 2.5-9.1 7.3-8.2 6.7-8.6-2.5-1.9-11.5 2-9.8 9.4"/>
    <path fill="#fee8d8" d="M13.1 43.4c-1.5-2.2-8.3 1.9-7.7 3.6 1.3 3.2 6.5 4.4 6.3-1.2.1 0 2.8-.3 1.4-2.4"/>
    <path fill="#258399" d="M30.1 52.1c-.2.7-2.9.1-3.1-.8-2.5-9.1-7.3-8.2-6.7-8.6 2.5-1.9 11.5 2 9.8 9.4"/>
    <path fill="#fee8d8" d="M20.9 43.4c1.5-2.2 8.3 1.9 7.7 3.6-1.3 3.2-6.5 4.4-6.3-1.2-.1 0-2.8-.3-1.4-2.4"/>
    <path fill="#89664c" d="M2 58h60v4H2v-4z"/>
    <path fill="#454749" d="M28 18.3c0-1.7-1.7-4.4-5-5.9-.4-.9-1.1-1.7-1.9-2.3.7-1.3 1.1-2.7 1.1-3.6 0-6-10.3-6-10.3 0 0 .9.4 2.3 1.1 3.6-.9.7-1.6 1.5-2 2.4-3 1.4-4.9 3.7-4.9 5.8v6.2h22l-.1-6.2"/>
    <path fill="#fee8d8" d="M26.9 25.6s2.1.4 2.1-1.8c0-1.7-2.1-1.6-2.1-1.6v-1.6c-5.8-1.9-14-1.9-19.8 0v1.6S5 22 5 23.8c0 2.2 2.1 1.8 2.1 1.8 0 9.1 19.8 9.8 19.8 0"/>
    <g fill="#454749">
        <path d="M24.2 25.8c0 1.2-4.6 1.2-4.6 0 .1-3.1 4.6-3.1 4.6 0M14.3 25.8c0 1.2-4.6 1.2-4.6 0 .1-3.1 4.6-3.1 4.6 0M14.2 28.9c0 3.1 5.7 3.1 5.7 0 0 0-1.4.5-2.8.5-1.6 0-2.9-.5-2.9-.5M51.2 9.2c.4-1 .7-2 .7-2.7 0-6-9.7-6-9.7 0 0 .7.2 1.7.7 2.7-8.5 1.4-16 7.5-6.1 19.8 1.3 1.6 19.3 1.5 20.6 0 9.8-12.5 2.4-18.4-6.2-19.8"/>
    </g>
    <path fill="#fee8d8" d="M57.8 22.7c-.9 1.3-10-2.7-10.8-3.3-.8.6-10 4.6-10.8 3.2-.3.2-.5.6-.5 1.1 0 2.2 2 1.8 2 1.8 0 9.1 18.6 9.8 18.6 0 0 0 2 .4 2-1.8-.1-.4-.3-.8-.5-1"/>
    <g fill="#454749">
        <path d="M53.8 25.8c0 1.2-4.3 1.2-4.3 0 0-3.1 4.3-3.1 4.3 0M44.5 25.8c0 1.2-4.3 1.2-4.3 0 0-3.1 4.3-3.1 4.3 0"/>
    </g>
    <path fill="#d33b23" d="M46.5 28.4c-.3-.2-2.2.5-2.2.5 0 3.1 5.3 3.1 5.3 0 0 0-1.9-.7-2.2-.5l-.5.5s-.2-.4-.4-.5"/>
</svg>