<svg xmlns="http://www.w3.org/2000/svg" viewBox="0 0 64 64">
    <title>Christmas tree</title>
    <path fill="#d3976e" d="M36.4 62h-8.8l1.9-20.8h5z"/>
    <path fill="#699635" d="M62 48.7C42.9 48.7 32 17 32 17S21.1 48.7 2 48.7c0 0 9.3 6.5 18.7-1.7 0 0-2.4 5.6-5.6 12.1 0 0 7.3.9 12.3-11.2 1 3.5 2.4 7.4 4.6 11.2 2.1-3.8 3.6-7.7 4.6-11.2 5 12 12.3 11.2 12.3 11.2-3.2-6.4-5.6-12.1-5.6-12.1 9.4 8.2 18.7 1.7 18.7 1.7"/>
    <path fill="#75a843" d="M52 33.4c-12.7 0-20-21.2-20-21.2s-7.3 21.2-20 21.2c0 0 6.2 4.3 12.5-1.1 0 0-1.6 3.7-3.7 8 0 0 4.9.6 8.2-7.5.6 2.3 1.6 4.9 3 7.5 1.4-2.5 2.4-5.2 3-7.5 3.3 8 8.2 7.5 8.2 7.5-2.1-4.3-3.7-8-3.7-8 6.3 5.4 12.5 1.1 12.5 1.1"/>
    <path fill="#83bf4f" d="M45.3 23.2C36.9 23.2 32 9.1 32 9.1s-4.9 14.1-13.3 14.1c0 0 4.1 2.9 8.3-.7 0 0-1.1 2.5-2.5 5.4 0 0 3.3.4 5.5-5 .4 1.5 1.1 3.3 2 5 .9-1.7 1.6-3.4 2-5 2.2 5.4 5.5 5 5.5 5-1.4-2.9-2.5-5.4-2.5-5.4 4.2 3.6 8.3.7 8.3.7"/>
    <path fill="#ffce31" d="M32 2l2 4 4.4.6-3.2 3.1.7 4.4L32 12l-3.9 2.1.7-4.4-3.2-3.1L30 6z"/>
    <circle cx="32" cy="21.4" r="3.3" fill="#ed4c5c"/>
    <circle cx="32" cy="40.6" r="3.3" fill="#f2b200"/>
    <circle cx="38.7" cy="30.9" r="3.3" fill="#9450e0"/>
    <circle cx="25.9" cy="30.9" r="3.3" fill="#6aced8"/>
    <circle cx="20.2" cy="47" r="3.3" fill="#83bf4f"/>
    <circle cx="41.2" cy="47.2" r="3.3" fill="#ff717f"/>
</svg>