<svg xmlns="http://www.w3.org/2000/svg" viewBox="0 0 64 64">
    <title>pine decoration</title>
    <path fill="#699635" d="M14.2 20.6h10.2V55H14.2z"/>
    <ellipse cx="19.3" cy="20.6" fill="#fed0ac" rx="5.1" ry="6.3"/>
    <path fill="#d3976e" d="M16 22.5c.8 2.1 2.8 3 4.5 2 1.7-1 2.4-3.5 1.6-5.6L16 22.5"/>
    <path fill="#83bf4f" d="M14.2 32.1h10.2v1.5H14.2z"/>
    <g fill="#699635">
        <path d="M39.6 30.8h10.2v22.1H39.6zM26.9 8.3h10.2V55H26.9z"/>
    </g>
    <g fill="#83bf4f">
        <path d="M26.9 19.8h10.2v1.5H26.9zM26.9 32.1h10.2v1.5H26.9z"/>
    </g>
    <ellipse cx="32" cy="8.3" fill="#fed0ac" rx="5.1" ry="6.3"/>
    <path fill="#d3976e" d="M28.7 10.2c.8 2.1 2.8 3 4.5 2 1.7-1 2.4-3.5 1.6-5.6l-6.1 3.6"/>
    <ellipse cx="44.7" cy="30.8" fill="#fed0ac" rx="5.1" ry="6.3"/>
    <path fill="#d3976e" d="M41.5 32.7c.8 2.1 2.8 3 4.5 2 1.7-1 2.4-3.5 1.6-5.6l-6.1 3.6"/>
    <g fill="#83bf4f">
        <path d="M14.2 51.9h2.2c0-12.8-1.1-16.1-1.1-16.1s-1.1 3.4-1.1 16.1"/>
        <path d="M16.4 51.9h2.2c0-12.8-1.1-16.1-1.1-16.1s-1.1 3.4-1.1 16.1M19.8 35.9c0 .1-1.1 3.4-1.1 16.1h2.2c0-12.7-1.1-16.1-1.1-16.1M22 35.9c0 .1-1.1 3.4-1.1 16.1h2.2c0-12.7-1.1-16.1-1.1-16.1M23.1 51.9h2.2c0-12.8-1.1-16.1-1.1-16.1s-1.1 3.4-1.1 16.1"/>
        <path d="M26.4 35.9c0 .1-1.1 3.4-1.1 16.1h2.2c0-12.7-1-16.1-1.1-16.1M27.5 51.9h2.2c0-12.8-1.1-16.1-1.1-16.1s-1.1 3.4-1.1 16.1M29.8 51.9H32c0-12.8-1.1-16.1-1.1-16.1s-1.1 3.4-1.1 16.1M32 51.9h2.2c0-12.8-1.1-16.1-1.1-16.1S32 39.2 32 51.9zM34.2 51.9h2.2c0-12.8-1.1-16.1-1.1-16.1s-1.1 3.4-1.1 16.1M36.5 51.9h2.2c0-12.8-1.1-16.1-1.1-16.1s-1.1 3.4-1.1 16.1"/>
        <path d="M39.8 35.9c0 .1-1.1 3.4-1.1 16.1h2.2c0-12.7-1.1-16.1-1.1-16.1M40.9 51.9h2.2c0-12.8-1.1-16.1-1.1-16.1s-1.1 3.4-1.1 16.1M43.1 51.9h2.2c0-12.8-1.1-16.1-1.1-16.1s-1.1 3.4-1.1 16.1M46.5 35.9c0 .1-1.1 3.4-1.1 16.1h2.2c0-12.7-1.1-16.1-1.1-16.1M48.7 35.9s-1.1 3.3-1.1 16.1h2.2c0-12.8-1.1-16.1-1.1-16.1"/>
    </g>
    <path fill="#c7b299" d="M12.1 44.6h39.8v16.2H12.1z"/>
    <path fill="#d3976e" d="M10 60.1h44V64H10z"/>
    <path fill="#af1734" d="M11.6 52.8h40.8v3.9H11.6z"/>
    <g fill="#ffce31">
        <path d="M10.4 45.5s-.4 5 2.5 7.9c2.9 2.8 7.9 2.5 7.9 2.5s.4-5-2.5-7.9c-2.8-2.9-7.9-2.5-7.9-2.5M53.6 45.5s-5.1-.4-7.9 2.5c-2.9 2.8-2.5 7.9-2.5 7.9s5.1.4 7.9-2.5c2.9-2.9 2.5-7.9 2.5-7.9"/>
    </g>
    <path fill="#ffdd7d" d="M44.9 45.1c-2.3-2.2-7-1.2-10.6 2.4-.9.9-1.7 1.9-2.2 2.9-.6-1-1.3-2-2.2-2.9-3.6-3.6-8.4-4.7-10.6-2.4-2.3 2.2-1.2 7 2.4 10.5 3.5 3.5 8.1 4.6 10.4 2.6 2.3 2 6.9.9 10.4-2.6 3.5-3.6 4.6-8.3 2.4-10.5"/>
    <path fill="#af1734" d="M43.4 60.5c-.7 0-1.2.4-1.5.9-1.4-.1-3.3-.6-4-2.7-1.4-4.5-5.3-6.5-5.4-6.6l-.5.7-.5-.9c-.2.1-4.1 2.2-5.4 6.6-.6 2.1-2.6 2.6-4 2.7-.3-.5-.9-.9-1.5-.9-1 0-1.8.8-1.8 1.8s.8 1.8 1.8 1.8c.6 0 1.1-.3 1.5-.7 2.2-.1 5-1 5.9-4 .8-2.7 2.9-4.5 3.9-5.1.9.6 3.2 2.3 4.2 5.3.9 3.1 3.7 3.9 5.9 4 .3.5.8.7 1.4.7 1 0 1.8-.8 1.8-1.8s-.8-1.8-1.8-1.8"/>
    <path fill="#c9243c" d="M39.2 48.8c-1.2 0-2.4.2-3.2.4-2 .5-3.3 1.5-4 2.2-.7-.8-2-1.8-4-2.2-.8-.2-1.9-.4-3.2-.4-3.3 0-5.2 1.7-5.2 4.7 0 2.9.9 4.3 2.7 4.3 1.3 0 2.7-.8 4.4-1.6 1.6-.8 3.4-1.7 5.2-2.1 1.8.4 3.6 1.3 5.2 2.1 1.7.9 3.2 1.6 4.5 1.6 1.8 0 2.7-1.4 2.7-4.3.1-2.9-1.8-4.7-5.1-4.7m-13.3 5.7c-1.4.7-2.8 1.4-3.6 1.4-.2 0-.8 0-.8-2.4 0-1.3.4-2.8 3.3-2.8 1 0 2 .2 2.7.4 1.3.3 2.2.9 2.8 1.4-1.5.5-3 1.3-4.4 2m15.7 1.4c-.8 0-2.1-.7-3.6-1.4-1.3-.7-2.8-1.5-4.4-2 .6-.5 1.5-1.1 2.8-1.4.7-.2 1.7-.4 2.7-.4 2.9 0 3.3 1.5 3.3 2.8 0 2.4-.6 2.4-.8 2.4"/>
    <ellipse cx="32" cy="52.7" fill="#ed4c5c" rx="2.7" ry="2.7"/>
</svg>