<svg xmlns="http://www.w3.org/2000/svg" viewBox="0 0 64 64">
    <title>fireworks</title>
    <g fill="#6adbc6">
        <path d="M32 30.8s-1.7-10.7-1.7-11.5.8-1.3 1.7-1.3 1.7.6 1.7 1.4S32 30.8 32 30.8M32 33.3s1.7 10.7 1.7 11.5c0 .7-.8 1.4-1.7 1.4s-1.7-.6-1.7-1.4c0-.8 1.7-11.5 1.7-11.5M30.7 32S20 33.7 19.2 33.7c-.7 0-1.4-.8-1.4-1.7s.6-1.7 1.4-1.7c.8 0 11.5 1.7 11.5 1.7M33.3 32s10.7-1.7 11.5-1.7c.7 0 1.4.8 1.4 1.7s-.6 1.7-1.4 1.7S33.3 32 33.3 32M31.1 31.1s-8.8-6.4-9.3-6.9-.4-1.5.3-2.2c.7-.7 1.6-.8 2.2-.3.4.7 6.8 9.4 6.8 9.4M32.9 32.9s8.8 6.4 9.3 6.9.4 1.5-.3 2.2c-.7.7-1.6.8-2.2.3-.4-.6-6.8-9.4-6.8-9.4M31.1 32.9s-6.4 8.8-6.9 9.3-1.5.4-2.2-.3c-.7-.7-.8-1.6-.3-2.2.6-.4 9.4-6.8 9.4-6.8M32.9 31.1s6.4-8.8 6.9-9.3 1.5-.4 2.2.3c.7.7.8 1.6.3 2.2-.6.5-9.4 6.8-9.4 6.8"/>
    </g>
    <g fill="#ffce31">
        <path d="M31.2 29.9s-8.8-17.3-9.3-18.5-.2-2.5.7-2.9 2 .4 2.5 1.6 6.1 19.8 6.1 19.8M32.8 34.1s8.8 17.3 9.3 18.5c.5 1.2.2 2.5-.7 2.9-.9.4-2-.4-2.5-1.6s-6.1-19.8-6.1-19.8M29.9 32.9s-17.3 8.8-18.5 9.3c-1.2.5-2.5.2-2.9-.7-.4-.9.4-2 1.6-2.5 1.3-.5 19.8-6.1 19.8-6.1M34.1 31.2s17.3-8.8 18.5-9.3c1.2-.5 2.5-.2 2.9.7.4.9-.4 2-1.6 2.5l-19.8 6.1M29.9 31.1s-18.4-6-19.7-6.5-1.9-1.6-1.5-2.5c.4-.9 1.7-1.1 2.9-.6 1.2.5 18.3 9.6 18.3 9.6M34.1 32.9s18.4 6 19.7 6.5c1.2.5 1.9 1.7 1.6 2.5-.4.9-1.7 1.1-2.9.6-1.3-.5-18.4-9.6-18.4-9.6M31.1 34.1s-6 18.4-6.5 19.7c-.5 1.2-1.7 1.9-2.5 1.6-.9-.4-1.1-1.7-.6-2.9.5-1.3 9.6-18.4 9.6-18.4M32.9 30s6-18.4 6.5-19.7c.5-1.3 1.6-2 2.5-1.6.9.4 1.1 1.7.6 2.9C42 12.9 32.9 30 32.9 30"/>
    </g>
    <g fill="#42ade2">
        <path d="M32 47.1s1.7 12.5 1.7 13.4c0 .9-.8 1.6-1.7 1.6-.9 0-1.7-.7-1.7-1.6 0-.9 1.7-13.4 1.7-13.4M32 16S30.3 4.3 30.3 3.5c0-.8.7-1.5 1.7-1.5s1.7.7 1.7 1.5S32 16 32 16zM42.7 42.7s10 7.6 10.7 8.2c.6.6.6 1.7-.1 2.3s-1.7.7-2.3.1c-.7-.6-8.3-10.6-8.3-10.6M20.7 20.7s-9.5-7-10-7.6c-.6-.6-.5-1.6.2-2.3.7-.7 1.7-.7 2.3-.2.4.6 7.5 10.1 7.5 10.1M42.7 21.3s7.6-10 8.2-10.7c.6-.6 1.7-.6 2.3.1.7.7.7 1.7.1 2.3-.6.7-10.6 8.3-10.6 8.3M20.7 43.3s-7 9.5-7.6 10c-.6.6-1.6.5-2.3-.2s-.8-1.6-.2-2.1c.6-.6 10.1-7.7 10.1-7.7M47.1 32s12.5-1.7 13.4-1.7S62 31 62 32c0 .9-.7 1.7-1.6 1.7-.8 0-13.3-1.7-13.3-1.7M16 32S4.3 33.7 3.5 33.7C2.7 33.7 2 33 2 32s.7-1.7 1.5-1.7S16 32 16 32z"/>
        <circle cx="20.7" cy="5.1" r="1.8"/>
        <circle cx="43.5" cy="5.1" r="1.8"/>
        <circle cx="20.2" cy="59" r="1.8"/>
        <circle cx="43" cy="59" r="1.8"/>
        <circle cx="4.9" cy="43.2" r="1.8"/>
        <circle cx="4.9" cy="20.4" r="1.8"/>
        <circle cx="58.8" cy="43.7" r="1.8"/>
        <circle cx="58.8" cy="20.9" r="1.8"/>
    </g>
</svg>