<svg xmlns="http://www.w3.org/2000/svg" viewBox="0 0 64 64">
    <title>film frames</title>
    <path fill="#3e4347" d="M62 27.9l-5.8-5.8-6.5 6.5c-.3.3-.8.3-1 0L35.4 15.3c-.3-.3-.3-.8 0-1l6.5-6.5L36.1 2 2 36.1l5.8 5.8 6.3-6.3c.3-.3.8-.3 1 0l13.2 13.2c.3.3.3.8 0 1L22 56.1l5.8 5.8 34.2-34m-7.7 0c-.3-.3-.3-.7 0-.9l2-2c.3-.3.7-.3.9 0l2 2c.3.3.3.7 0 .9l-2 2c-.3.3-.7.3-.9 0l-2-2M34.1 7.7c-.3-.3-.3-.7 0-.9l2-2c.3-.3.7-.3.9 0l2 2c.3.3.3.7 0 .9l-2 2c-.3.3-.7.3-.9 0l-2-2M9.6 36.1c.3.3.3.7 0 .9l-2 2c-.3.3-.7.3-.9 0l-2-2c-.3-.3-.3-.7 0-.9l2-2c.3-.3.7-.3.9 0l2 2m32 8.4c.3.3.3.7 0 .9l-2 2c-.3.3-.7.3-.9 0l-2-2c-.3-.3-.3-.7 0-.9l2-2c.3-.3.7-.3.9 0l2 2m5.8-5.9c.3.3.3.7 0 .9l-2 2c-.3.3-.7.3-.9 0l-2-2c-.3-.3-.3-.7 0-.9l2-2c.3-.3.7-.3.9 0l2 2M28.2 13.5c-.3-.3-.3-.7 0-.9l2-2c.3-.3.7-.3.9 0l2 2c.3.3.3.7 0 .9l-2 2c-.3.3-.7.3-.9 0l-2-2m20.2 20.2c-.3-.3-.3-.7 0-.9l2-2c.3-.3.7-.3.9 0l2 2c.3.3.3.7 0 .9l-2 2c-.3.3-.7.3-.9 0l-2-2m-26-14.3c-.3-.3-.3-.7 0-.9l2-2c.3-.3.7-.3.9 0l2 2c.3.3.3.7 0 .9l-2 2c-.3.3-.7.3-.9 0l-2-2m-5.9 5.9c-.3-.3-.3-.7 0-.9l2-2c.3-.3.7-.3.9 0l2 2c.3.3.3.7 0 .9l-2 2c-.3.3-.7.3-.9 0l-2-2m1.8 7.2c-.3-.3-.3-.8 0-1l13.2-13.2c.3-.3.8-.3 1 0l13.2 13.2c.3.3.3.8 0 1L32.5 45.7c-.3.3-.8.3-1 0L18.3 32.5m-7.7-1.4c-.3-.3-.3-.7 0-.9l2-2c.3-.3.7-.3.9 0l2 2c.3.3.3.7 0 .9l-2 2c-.3.3-.7.3-.9 0l-2-2m20.2 20.2c-.3-.3-.3-.7 0-.9l2-2c.3-.3.7-.3.9 0l2 2c.3.3.3.7 0 .9l-2 2c-.3.3-.7.3-.9 0l-2-2m-5.9 5.9c-.3-.3-.3-.7 0-.9l2-2c.3-.3.7-.3.9 0l2 2c.3.3.3.7 0 .9l-2 2c-.3.3-.7.3-.9 0l-2-2"/>
</svg>