<svg xmlns="http://www.w3.org/2000/svg" viewBox="0 0 64 64">
    <title>admission tickets</title>
    <path fill="#fbbf67" d="M64 41.7l-.9-2.5c-.7.3-1.5-.1-1.7-.8-.3-.7.1-1.5.8-1.7l-1-2.7c-.7.3-1.5-.1-1.7-.8-.3-.7.1-1.5.8-1.7l-.9-2.5c-.7.3-1.5-.1-1.7-.8-.3-.7.1-1.5.8-1.7l-.9-2.5c-.7.2-1.4-.1-1.7-.7-2.7.3-5.4-1.2-6.3-3.9L12.2 32.8c1.1 3.1-.5 6.5-3.6 7.7l7.3 19.9c3.1-1.1 6.5.5 7.7 3.6l37.3-13.6c-1-2.7.1-5.6 2.4-7.1-.3-.6 0-1.4.7-1.6"/>
    <path fill="#f55" d="M56.6 46.7L24.4 58.4c-1.7.6-3.6-.3-4.3-2l-5.7-15.7c-.6-1.7.3-3.6 2-4.3l32.2-11.7c1.7-.6 3.6.3 4.3 2l5.7 15.7c.6 1.8-.3 3.7-2 4.3M17 38.1c-.9.3-1.3 1.3-1 2.1l5.7 15.7c.3.9 1.3 1.3 2.1 1L56 45.2c.9-.3 1.3-1.3 1-2.1l-5.7-15.7c-.3-.9-1.3-1.3-2.1-1L17 38.1"/>
    <g fill="#89664c">
        <path d="M30.9 43.1l-.9.3c-.1 0-.2 0-.2-.1l-.5-1-.6.2.3 1.1c0 .1 0 .2-.1.2l-.9.3c-.1 0-.1 0-.2-.1l-1.7-6.9c0-.1 0-.2.1-.2l1.3-.5c.1 0 .2 0 .2.1l3.2 6.4c.1.1.1.2 0 .2m-2.1-1.9l-1.2-2.6h-.1l.8 2.7.5-.1M32.8 37.1l1.2 3.4c.2.7-.1 1.4-.8 1.7l-1.5.5c-.1 0-.2 0-.2-.1l-2-5.6c0-.1 0-.2.1-.2l1.5-.5c.7-.2 1.5.1 1.7.8m-1.1.5c0-.1-.2-.2-.3-.2l-.4.1 1.4 3.8.3-.1c.1 0 .2-.2.1-.3l-1.1-3.3M37 34.3l2.1 5.6c0 .1 0 .2-.1.2l-.9.3c-.1 0-.2 0-.2-.1l-1-2.6.2 2.6c0 .1-.1.1-.1 0l-1.5-2.1 1 2.6c0 .1 0 .2-.1.2l-.9.3c-.1 0-.2 0-.2-.1l-2.1-5.6c0-.1 0-.2.1-.2l.8-.3c.1 0 .2 0 .2.1l1.9 2.8-.3-3.3c0-.1 0-.2.1-.2l.8-.3c.1 0 .2 0 .2.1M41.1 39.2c0 .1 0 .2-.1.2l-.9.3c-.1 0-.2 0-.2-.1l-2-5.6c0-.1 0-.2.1-.2l.9-.3c.1 0 .2 0 .2.1l2 5.6M42.6 32.3l.3.9c0 .1 0 .2-.1.2l-.7.3 1.7 4.6c0 .1 0 .2-.1.2l-.9.3c-.1 0-.2 0-.2-.1L41 34l-.7.3c-.1 0-.2 0-.2-.1l-.3-.9c0-.1 0-.2.1-.2l2.5-.9c.1 0 .2 0 .2.1M35.7 50.3l-.4.1c-.7.2-1.4-.1-1.7-.8L32 45c-.2-.7.1-1.4.8-1.7l.4-.1c.7-.2 1.4.1 1.7.8l1.7 4.6c.2.6-.2 1.4-.9 1.7m-2.3-6c-.2.1-.3.2-.2.4l1.6 4.5c0 .1.2.2.3.1h.1c.1 0 .2-.2.2-.3l-1.6-4.5c-.1-.2-.3-.2-.4-.2M38.8 42.5l2.1 5.6c0 .1 0 .2-.1.2l-.6.2c-.1 0-.2 0-.2-.1l-2-2.2.9 2.6c0 .1 0 .2-.1.2l-.9.3c-.1 0-.2 0-.2-.1l-2.1-5.6c0-.1 0-.2.1-.2l.7-.2c.1 0 .2 0 .2.1l2.1 2.5-1-2.9c0-.1 0-.2.1-.2l.9-.3s.1 0 .1.1M43.8 46.1l.3.9c0 .1 0 .2-.1.2l-2.1.8c-.1 0-.2 0-.2-.1l-2.1-5.6c0-.1 0-.2.1-.2l2.1-.8c.1 0 .2 0 .2.1l.3.9c0 .1 0 .2-.1.2l-1.1.4.4 1.1 1-.4c.1 0 .2 0 .2.1l.3.9c0 .1 0 .2-.1.2l-1 .4.5 1.3 1.1-.4c.2-.1.3-.1.3 0"/>
    </g>
    <g fill="#947151" opacity=".5">
        <path d="M25.4 54.8l30.4-25.5c-1.5-1.8-1.7-4.1-.9-6.1-2.4-.1-4.5-1.6-5.4-3.9L12.2 32.8c1.1 3.1-.5 6.5-3.6 7.7l2.3 6.4 6 7.2c2.6-2.2 6.3-1.8 8.5.7"/>
        <path d="M25.4 54.8l30.4-25.5c-1.5-1.8-1.7-4.1-.9-6.1-2.4-.1-4.5-1.6-5.4-3.9L12.2 32.8c1.1 3.1-.5 6.5-3.6 7.7l2.3 6.4 6 7.2c2.6-2.2 6.3-1.8 8.5.7" opacity=".5"/>
    </g>
    <path fill="#fbbf67" d="M52.5 16.1L50.8 14c-.6.5-1.4.4-1.9-.2-.5-.6-.4-1.4.2-1.9l-1.7-2.1c-.6.5-1.4.4-1.9-.2-.5-.6-.4-1.4.2-1.9L44 5.6c-.6.5-1.4.4-1.9-.2-.7-.4-.6-1.2-.1-1.7l-1.7-2.1c-.6.5-1.4.4-1.9-.1C36 2.7 33 2.2 31.1 0L.7 25.5c2.2 2.6 1.8 6.4-.7 8.5l13.6 16.3c2.5-2.1 6.3-1.8 8.4.7l30.4-25.5c-1.8-2.2-1.8-5.3-.2-7.5-.3-.6-.2-1.4.3-1.9"/>
    <path fill="#f55" d="M47.2 23.4L21 45.4c-1.4 1.2-3.5 1-4.7-.4L5.6 32.2c-1.2-1.4-1-3.5.4-4.7l26.2-22c1.4-1.2 3.5-1 4.7.4l10.7 12.8c1.2 1.4 1 3.5-.4 4.7M7.1 28.8c-.7.6-.8 1.6-.2 2.3L17.6 44c.6.7 1.6.8 2.3.2l26.2-22c.7-.6.8-1.6.2-2.3L35.6 7c-.6-.7-1.6-.8-2.3-.2l-26.2 22"/>
    <g fill="#89664c">
        <path d="M21.9 28.8l-.7.6c-.1.1-.2 0-.2 0l-.8-.8-.6.4.7.9v.2l-.7.6c-.1.1-.1 0-.2 0l-3.9-5.9v-.2l1.1-.9c.1-.1.2-.1.2 0l5.1 4.9v.2m-2.6-1.1l-2-2.1-.1.1 1.7 2.3.4-.3M21.6 22.5l2.3 2.8c.5.6.4 1.4-.2 1.9l-1.2 1c-.1.1-.2 0-.2 0l-3.9-4.6c-.1-.1 0-.2 0-.2l1.2-1c.7-.5 1.5-.5 2 .1m-.9.8c-.1-.1-.3-.1-.4 0l-.3.2 2.6 3.1.3-.2c.1-.1.1-.2 0-.4l-2.2-2.7M24.6 18.4l3.9 4.6c.1.1 0 .2 0 .2l-.8.6c-.1.1-.2 0-.2 0l-1.8-2.1 1.1 2.4c0 .1 0 .1-.1.1l-2.1-1.5 1.8 2.1c.1.1 0 .2 0 .2l-.8.6c-.1.1-.2 0-.2 0L21.5 21c-.1-.1 0-.2 0-.2l.7-.6c.1-.1.2 0 .2 0l2.7 1.9-1.4-3v-.2l.7-.6c.1.1.2.1.2.1M30.2 21.6c.1.1 0 .2 0 .2l-.7.6c-.1.1-.2 0-.2 0l-3.9-4.6c-.1-.1 0-.2 0-.2l.7-.6c.1-.1.2 0 .2 0l3.9 4.6M29.2 14.6l.6.7c.1.1 0 .2 0 .2l-.6.5 3.2 3.8c.1.1 0 .2 0 .2l-.7.6h-.2l-3.2-3.8-.6.5c-.1.1-.2 0-.2 0l-.6-.7c-.1-.1 0-.2 0-.2l2.1-1.7c0-.1.1-.1.2-.1M28.9 33.9l-.3.3c-.6.5-1.4.4-1.9-.2l-3.1-3.7c-.5-.6-.4-1.4.2-1.9l.3-.3c.6-.5 1.4-.4 1.9.2l3 3.7c.5.6.4 1.4-.1 1.9m-4.3-4.8c-.2.1-.2.3-.1.4l3.1 3.6c.1.1.2.1.4 0l.1-.1c.1-.1.1-.3 0-.4L25 29.1c-.1-.1-.3-.1-.4 0M29.1 25.5l3.9 4.6c.1.1 0 .2 0 .2l-.5.4c-.1.1-.2.1-.2 0l-2.6-1.4 1.8 2.1c.1.1 0 .2 0 .2l-.7.6c-.1.1-.2 0-.2 0l-3.9-4.6c-.1-.1 0-.2 0-.2l.5-.4c.1-.1.2-.1.2 0l2.8 1.6-2-2.3c-.1-.1 0-.2 0-.2l.7-.6h.2M35 27.2l.6.7c.1.1 0 .2 0 .2l-1.7 1.5c-.1.1-.2 0-.2 0L29.8 25c-.1-.1 0-.2 0-.2l1.7-1.5c.1-.1.2 0 .2 0l.6.7c.1.1 0 .2 0 .2l-.9.8.8.9.8-.7c.1-.1.2 0 .2 0l.6.7c.1.1 0 .2 0 .2l-.8.7.9 1.1.9-.8c.1 0 .2 0 .2.1"/>
    </g>
</svg>