<svg xmlns="http://www.w3.org/2000/svg" viewBox="0 0 64 64">
    <title>Bouquet Of Flowers</title>
    <path fill="#83bf4f" d="M20.8 26.8c.9 6-5.9 16.5-5.9 16.5l-1.5-.8c4.3-13.6 2.1-29 2.1-29s4.4 6.6 5.3 13.3"/>
    <path fill="#75a843" d="M35 3.3L13.3 42.8l4.5 2.1z"/>
    <path fill="#aa1f65" d="M24.2 11.8c-2.5 5.1-1.2 8.4 1.7 9.9s6.4.5 8.9-4.6c2.6-5.1.2-13.8.2-13.8s-8.3 3.4-10.8 8.5"/>
    <path fill="#d33777" d="M29.2 11.3c-8.9.9-7.3 9.3-3.5 11.2 3.9 1.9 8.9-.5 11.4-5.4 2.4-4.9.6-10.8.6-10.8s-2 4.4-8.5 5"/>
    <path fill="#e84d88" d="M32.2 12.8c4.7 7.7-3 11.5-6.8 9.5s-5-7.5-2.6-12.4 8.2-7 8.2-7-2.2 4.3 1.2 9.9"/>
    <path fill="#83bf4f" d="M34.3 38.9c-4.6 3.9-17.1 3.7-17.1 3.7l-.2-1.7c13.7-3.5 25.5-13.6 25.5-13.6s-3.1 7.2-8.2 11.6"/>
    <path fill="#75a843" d="M62 35.4l-44.6 1.8.4 5z"/>
    <path fill="#aa1f65" d="M49.1 30.6c-5.6.5-7.7 3.4-7.4 6.7.3 3.3 3 5.7 8.6 5.2S62 35.4 62 35.4s-7.3-5.3-12.9-4.8"/>
    <path fill="#d33777" d="M52.2 34.6c-5.4-7.1-11.7-1.3-11.3 3 .4 4.3 5.2 7.4 10.6 6.8s9.4-5.2 9.4-5.2-4.7.6-8.7-4.6"/>
    <path fill="#e84d88" d="M52.5 38c-4 8-11.2 3.6-11.7-.8-.4-4.3 3.7-8.2 9.1-8.8s10.3 3.4 10.3 3.4-4.8.3-7.7 6.2"/>
    <g fill="#83bf4f">
        <path d="M35.1 40c-5.2-3-17.5-.3-17.5-.3l.2 1.7c14.1.8 27.6 8.4 27.6 8.4s-4.5-6.5-10.3-9.8"/>
        <path d="M30.2 28.9c-1.8 5.8-12.5 12.3-12.5 12.3l-1-1.4C26.4 29.5 31 14.7 31 14.7s1.2 7.7-.8 14.2"/>
    </g>
    <path fill="#75a843" d="M51.7 16.4L14.9 41.9l3.1 3.9z"/>
    <path fill="#aa1f65" d="M38.3 19.3c-4.5 3.5-4.7 7.1-2.7 9.7 2 2.6 5.5 3.2 10-.2 4.5-3.5 6.1-12.3 6.1-12.3s-8.9-.7-13.4 2.8"/>
    <path fill="#d33777" d="M43 21c-8.4-3.1-10.6 5.2-8 8.6s8.3 3.5 12.6.1c4.3-3.4 5.2-9.4 5.2-9.4s-3.6 3-9.8.7"/>
    <path fill="#e84d88" d="M45.1 23.7c.9 8.9-7.6 9-10.3 5.6-2.6-3.4-1.3-8.9 3.1-12.3 4.3-3.4 10.4-2.7 10.4-2.7s-3.9 2.9-3.2 9.4"/>
    <path fill="#83bf4f" d="M5.6 58.2l1.9 1.9 2.5-2.5-2-1.9z"/>
    <path fill="#75a843" d="M4.2 56.8l2 2 2.4-2.5-1.9-2z"/>
    <path fill="#83bf4f" d="M2.9 55.5l1.9 1.9 2.5-2.5L5.4 53z"/>
    <path fill="#42ade2" d="M41.2 47.8s-17.1-2.9-25.3 5.3C14.1 54.9 13 61 13 61L2 49.9s6.1-1.1 7.9-2.9c8.2-8.2 5.3-25.4 5.3-25.4l26 26.2"/>
    <path fill="#ff506e" d="M6 46.9L16 57l3.7-3.8-10-10z"/>
</svg>