<svg xmlns="http://www.w3.org/2000/svg" viewBox="0 0 64 64">
    <title>studio microphone</title>
    <path fill="#3e4347" d="M14 28h36v1H14z"/>
    <g fill="#94989b">
        <path d="M46 24.5v14.7c0 10.5-6.7 14.9-14 14.9s-14-4.4-14-14.9V24.5h-2V39c0 12 7.7 17 16 17s16-5 16-17V24.5h-2M30 56h4v4h-4z"/>
    </g>
    <g fill="#3e4347">
        <path d="M21 25v13c0 6.2 4.8 11 11 11s11-4.8 11-11V25H21zM29 52h6v5h-6z"/>
    </g>
    <path fill="#94989b" d="M32 2c-6.2 0-11 3.8-11 10v13h22V12c0-6.2-4.8-10-11-10"/>
    <path fill="#d0d0d0" d="M32 2.8c-5.7 0-10.1 3.7-10.1 9.7V25h20.2V12.5c0-6-4.4-9.7-10.1-9.7"/>
    <path fill="#3e4347" d="M46 62H18s6.3-3 14-3 14 3 14 3"/>
    <path fill="#b0b8b8" d="M20 25h24v7H20z"/>
    <g fill="#3e4347">
        <path d="M19 24.5h26v2H19zM19 27.5h26v2H19zM19 30.5h26v2H19zM13 25.5h2v6h-2zM49 25.5h2v6h-2z"/>
    </g>
    <g fill="#94989b">
        <path d="M25.3 22.5c0 .7-.6 1.2-1.3 1.2-.7 0-1.3-.5-1.3-1.1 0-.6.6-1.1 1.3-1.2.7 0 1.3.5 1.3 1.1M30.7 22.5c0 .7-.6 1.3-1.3 1.3-.7 0-1.3-.6-1.4-1.3 0-.7.6-1.3 1.3-1.3.7 0 1.4.5 1.4 1.3M36 22.5c0 .7-.6 1.3-1.4 1.3-.7 0-1.3-.6-1.3-1.3 0-.7.6-1.3 1.4-1.3.7 0 1.3.6 1.3 1.3M41.4 22.6c0 .6-.6 1.1-1.3 1.1s-1.3-.5-1.3-1.2.6-1.2 1.3-1.1c.7.1 1.3.6 1.3 1.2M25.2 16.2c0 .7-.6 1.3-1.3 1.4-.7.1-1.3-.2-1.3-.8 0-.6.6-1.3 1.3-1.5.7-.2 1.3.2 1.3.9M30.6 15.6c0 .7-.6 1.3-1.4 1.4-.8 0-1.4-.5-1.4-1.2s.6-1.3 1.4-1.4c.8-.1 1.4.4 1.4 1.2M36.1 15.8c0 .7-.6 1.2-1.4 1.2-.8 0-1.4-.6-1.4-1.4 0-.7.6-1.3 1.4-1.2.8 0 1.4.7 1.4 1.4M41.4 16.8c0 .6-.6 1-1.3.8-.7-.1-1.3-.8-1.3-1.4 0-.7.6-1.1 1.3-.9.7.2 1.3.9 1.3 1.5M27.9 19.1c0 .7-.6 1.3-1.3 1.3-.7 0-1.3-.4-1.4-1.1s.6-1.3 1.3-1.4c.8 0 1.4.5 1.4 1.2M33.4 19c0 .7-.6 1.3-1.4 1.3-.7 0-1.4-.6-1.4-1.3 0-.7.6-1.3 1.4-1.3.8 0 1.4.6 1.4 1.3M38.7 19.4c0 .7-.6 1.1-1.4 1.1-.7 0-1.3-.6-1.3-1.3 0-.7.6-1.2 1.4-1.1.8 0 1.4.6 1.3 1.3M27.8 12.4c0 .7-.6 1.3-1.3 1.5-.7.1-1.3-.3-1.3-.9 0-.7.6-1.4 1.3-1.6.7-.2 1.3.3 1.3 1M33.4 12.1c0 .7-.6 1.3-1.4 1.3-.8 0-1.4-.5-1.4-1.3 0-.7.6-1.3 1.4-1.3.8 0 1.4.6 1.4 1.3M38.8 13c0 .7-.6 1-1.3.9-.7-.1-1.3-.8-1.3-1.5s.6-1.2 1.4-1c.7.2 1.3.9 1.2 1.6M25.1 9.8c0 .7-.6 1.4-1.3 1.7-.7.3-1.2.1-1.2-.6 0-.6.5-1.4 1.2-1.8.7-.3 1.3 0 1.3.7M30.6 8.7c0 .7-.6 1.3-1.4 1.4-.8.1-1.4-.4-1.4-1 0-.7.6-1.4 1.4-1.5.7-.2 1.4.4 1.4 1.1M36.2 9c0 .7-.6 1.1-1.4 1-.8 0-1.4-.6-1.4-1.3 0-.7.6-1.3 1.4-1.1.8 0 1.4.7 1.4 1.4M41.4 10.9c0 .6-.5.8-1.2.6-.7-.3-1.3-1-1.3-1.7s.6-1 1.3-.6c.6.3 1.2 1.1 1.2 1.7M27.7 5.7c0 .7-.6 1.4-1.3 1.6-.7.2-1.3-.1-1.3-.7 0-.7.6-1.5 1.3-1.7.7-.3 1.3.1 1.3.8M33.4 5.2c0 .7-.6 1.2-1.4 1.2-.8 0-1.4-.5-1.4-1.2s.6-1.4 1.4-1.4c.8.1 1.4.7 1.4 1.4M38.9 6.6c0 .7-.6.9-1.3.7-.7-.2-1.4-.9-1.3-1.6 0-.7.6-1.1 1.4-.8.7.2 1.2 1 1.2 1.7"/>
    </g>
</svg>