<svg xmlns="http://www.w3.org/2000/svg" viewBox="0 0 64 64">
    <title>backpack</title>
    <g fill="#5f6262">
        <path d="M40.7 10.9h4.1c-.3-14.5-20-14.5-20.3 0h4.1c.3-9.3 11.7-9.3 12.1 0M45.5 10.8v2.7c7.3 1.3 13.8 7.3 13.8 18.1v14.8c0 5-6.5 6-13.8 6v2.4c8.2 0 18.5-1.1 18.5-6.7V31.5c0-13.6-9.2-20.5-18.5-20.7"/>
    </g>
    <path fill="#428bc1" d="M34 6.3c-3.8 0-15 2.2-15 2.2S9.6 19.9 9.6 32.6v21.1c0 6.1 6.1 8 14.2 8.4l.9 1.8s32.5.7 32.5-10.3v-21C57.2 15.4 46.1 6.3 34 6.3"/>
    <path fill="#42ade2" d="M47.6 55.4c0 7.2-8.4 8.6-18.9 8.6h-9.9C8.4 64 0 62.6 0 55.4V34.3C0-.8 47.6-.8 47.6 34.3v21.1z"/>
    <path fill="#5f6262" d="M47.6 45.2l-38 8.6c0 6.1 6.1 8 14.2 8.4l.9 1.8s32.5.7 32.5-10.3V43.4l-9.6 1.8"/>
    <path fill="#7e8484" d="M47.6 55.4c0 7.2-8.4 8.6-18.9 8.6h-9.9C8.4 64 0 62.6 0 55.4V45.2h47.6v10.2z"/>
    <path fill="#428bc1" d="M44 52.4c0 2.9-2.4 5.3-5.3 5.3H7.9c-2.9 0-5.3-2.4-5.3-5.3V34.2c0-2.9 2.4-5.3 5.3-5.3h30.9c2.9 0 5.3 2.4 5.3 5.3v18.2z"/>
    <path fill="#42ade2" d="M43 52c0 2.8-2.2 5.1-5 5.1H8.6c-2.8 0-5-2.3-5-5.1V34.6c0-2.8 2.2-5.1 5-5.1H38c2.8 0 5 2.3 5 5.1V52"/>
    <path fill="#428bc1" d="M43 43.3H3.6v-4.7H43"/>
    <path fill="#93ced6" d="M3.6 39.2h39.5v3.4H3.6z"/>
    <path fill="#42ade2" d="M3.6 39.9h39.5v2H3.6z"/>
    <g fill="#93ced6">
        <path d="M4.4 37.2h2.3v.7H4.4zM7.6 37.2h2.3v.7H7.6zM10.8 37.2h2.3v.7h-2.3zM14 37.2h2.3v.7H14zM17.3 37.2h2.3v.7h-2.3zM20.5 37.2h2.3v.7h-2.3zM23.7 37.2H26v.7h-2.3zM27 37.2h2.3v.7H27zM30.2 37.2h2.3v.7h-2.3zM33.4 37.2h2.3v.7h-2.3zM36.7 37.2H39v.7h-2.3zM39.9 37.2h2.3v.7h-2.3zM4.4 44h2.3v.7H4.4zM7.6 44h2.3v.7H7.6zM10.8 44h2.3v.7h-2.3zM14 44h2.3v.7H14zM17.3 44h2.3v.7h-2.3zM20.5 44h2.3v.7h-2.3zM23.7 44H26v.7h-2.3zM27 44h2.3v.7H27zM30.2 44h2.3v.7h-2.3zM33.4 44h2.3v.7h-2.3zM36.7 44H39v.7h-2.3zM39.9 44h2.3v.7h-2.3z"/>
    </g>
    <ellipse cx="33.1" cy="41.1" fill="#fff" rx="2.3" ry="1.9"/>
    <g fill="#c9c9c9">
        <path d="M33.1 43.3c-1.4 0-2.6-1-2.6-2.2 0-1.2 1.2-2.2 2.6-2.2 1.4 0 2.6 1 2.6 2.2 0 1.3-1.2 2.2-2.6 2.2m0-3.7c-1.1 0-2 .7-2 1.5s.9 1.5 2 1.5 2-.7 2-1.5-.9-1.5-2-1.5"/>
        <path d="M32.6 40.3h2.8v1.6h-2.8z"/>
    </g>
    <path fill="#fff" d="M35.2 47.4c.1.8-.2 1.6-.9 1.6H33c-.6 0-1-.8-.9-1.6l.6-3.4c0-.3.3-.5.6-.5h.7c.3 0 .6.2.6.5l.6 3.4"/>
    <path fill="#c9c9c9" d="M34.3 49.3H33c-.3 0-.6-.2-.9-.4-.3-.4-.4-1-.3-1.6l.6-3.4c.1-.4.5-.8 1-.8h.6c.5 0 .9.3 1 .8l.6 3.4c.1.6 0 1.2-.3 1.6-.3.3-.6.4-1 .4m-1-5.5c-.2 0-.3.1-.3.2l-.6 3.4c-.1.4 0 .8.2 1 .1.1.2.2.4.2h1.3c.1 0 .3-.1.4-.2.2-.2.3-.6.2-1l-.6-3.4c0-.1-.1-.2-.3-.2h-.7"/>
    <path fill="#9b9596" d="M33.4 40.1h.6v4.1h-.6z"/>
    <path fill="#c9c9c9" d="M40.895 16.954l1.131-1.132 1.98 1.98-1.13 1.131z"/>
    <path fill="#fff" d="M43.8 24.5c.1.8-.2 1.6-.9 1.6h-1.3c-.6 0-1-.8-.9-1.6l.6-3.4c0-.3.3-.5.6-.5h.6c.3 0 .6.2.6.5l.7 3.4"/>
    <path fill="#c9c9c9" d="M42.9 26.5h-1.3c-.3 0-.6-.2-.9-.4-.3-.4-.4-1-.3-1.6l.6-3.4c.1-.4.5-.8 1-.8h.6c.5 0 .9.3 1 .8l.6 3.4c.1.6 0 1.2-.3 1.6-.4.2-.7.4-1 .4m-1-5.6c-.2 0-.3.1-.3.2l-.6 3.4c-.1.4 0 .8.2 1 .1.1.2.2.4.2h1.3c.1 0 .3-.1.4-.2.2-.2.3-.6.2-1l-.6-3.4c0-.1-.1-.2-.3-.2h-.7"/>
    <path fill="#9b9596" d="M41.9 17.2h.6v4.1h-.6z"/>
</svg>