<svg xmlns="http://www.w3.org/2000/svg" viewBox="0 0 64 64">
    <title>Beamed Ascending Musical Notes</title>
    <path d="M 50.75 2.3242188 L 22.25 11.724609 L 22.25 54.023438 C 22.25 56.1642 23.585614 58.064509 25.523438 59.533203 L 28.75 46.324219 L 28.75 40.410156 L 28.75 31.324219 L 28.75 23.824219 L 28.75 19.925781 L 28.75 17.625 L 44.25 12.224609 L 44.25 15.388672 L 44.25 18.523438 L 44.25 26.125 L 44.25 32.695312 L 44.25 46.724609 L 50.75 39.023438 L 50.75 2.3242188 z " fill="#4d5357"/>
    <path d="m 23.530897,46.323823 c -0.963578,-0.4 -2.970404,-0.599609 -4.174876,-0.599609 -10.920549,0 -10.920549,16.599609 0,16.599609 4.737591,0 9.394256,-3.698828 9.394256,-8.298828 z" fill="#4d5357"/>
    <rect y="46.323822" x="22.249451" height="7.7011719" width="6.5008249" fill="#4d5357"/>
    <rect y="39.023163" x="44.249451" height="7.6992192" width="6.5" fill="#4d5357"/>
    <path fill="#4d5357" d="m 45.530072,39.02121 c -0.963578,-0.4 -2.970404,-0.599609 -4.174876,-0.599609 -10.920549,0 -10.920549,16.599609 0,16.599609 4.737591,0 9.394256,-3.698828 9.394256,-8.298828 z"/>
</svg>