<svg xmlns="http://www.w3.org/2000/svg" viewBox="0 0 64 64">
    <title>Beamed Descending Musical Notes</title>
  <path d="M 25.400391 2 L 25.400391 38.699219 C 24.200391 38.299219 21.699219 38.099609 20.199219 38.099609 C 6.5992188 38.099609 6.5992188 54.699219 20.199219 54.699219 C 26.099219 54.699219 31.900391 51.000391 31.900391 46.400391 L 31.900391 32 L 31.900391 25.800781 L 31.900391 18.199219 L 31.900391 14.779297 L 31.900391 11.900391 L 47.400391 17.300781 L 47.400391 20.203125 L 47.400391 23.5 L 47.400391 31 L 47.400391 37.017578 L 47.400391 46 C 46.200391 45.6 43.699219 45.400391 42.199219 45.400391 C 28.599219 45.400391 28.599219 62 42.199219 62 C 48.099219 62 53.900391 58.299219 53.900391 53.699219 L 53.900391 11.400391 L 25.400391 2 z " fill="#4d5357"/>
</svg>