<svg xmlns="http://www.w3.org/2000/svg" viewBox="0 0 64 64">
    <title>moon viewing ceremony</title>
    <path fill="#3e4347" d="M0 0h64v64H0z"/>
    <circle cx="49.4" cy="14.4" r="9.6" fill="#d0d0d0"/>
    <g fill="#94989b">
        <circle cx="42.7" cy="13.4" r=".9"/>
        <circle cx="49.3" cy="10.6" r="1.5"/>
        <circle cx="47" cy="18.1" r="1.6"/>
        <circle cx="55.8" cy="12.1" r=".7"/>
        <circle cx="53.8" cy="18.6" r=".6"/>
    </g>
    <path fill="#699635" d="M15.2 41.7c1 3.4 1.8 6.8 2.3 10.3v.4c.2 3.2.5 8 .7 11.6h1.1c.1-4.1.4-9.4 1-13 .7-4.1 1.6-8.3 3.1-12.2 1-2.9 2.3-5.6 3.6-8.4.1-.2.1-.5-.2-.7-.2-.1-.6-.1-.7.2-1.8 3.7-3.5 7.5-4.7 11.5-.6 2.1-1.2 4.2-1.6 6.4.1-1.3.3-2.6.4-3.9.7-5.2 1.7-10.5 3.2-15.5 1-3.5 2.3-6.9 3.6-10.3.1-.3-.1-.5-.3-.6-.3-.1-.5.1-.6.3-1.8 4.9-3.6 9.8-4.8 14.9-1.2 5.2-2 10.5-2.5 15.8l-.3 4.2c0-.2-.1-.4-.1-.7v-.3c-.2-2.9-.4-5.8-.5-8.8-.1-2.1-.2-4.1-.2-6.2v-4c0-.7 0-1.4.1-2.1V30c0-.3-.2-.5-.5-.5s-.5.2-.5.5v.7c0 .7-.1 1.5-.1 2.2V37c0 2.1.1 4.2.2 6.4 0 .4 0 .9.1 1.3v-.1c-.5-2-1.1-4.1-1.8-6-1.1-3-2.4-5.9-3.8-8.8-.1-.2-.5-.3-.7-.2-.2.1-.3.4-.2.7 1.8 3.7 3.5 7.4 4.7 11.4"/>
    <g fill="#ffdd7d">
        <path d="M27.6 20.1c.4-.6.9-1.2 1.5-1.8 0 0-.5.2-1.3.6.4-.7.9-1.2 1.6-2 0 0-.5.2-1.3.6.4-.7.9-1.2 1.6-2 0 0-.5.2-1.3.7.4-.7.9-1.3 1.7-2.1 0 0-.5.2-1.3.6.4-.7.9-1.3 1.7-2.1 0 0-.5.2-1.2.6.4-.6.8-1.1 1.4-1.7 0 0-.5.2-1.2.6.4-.6.9-1.2 1.5-1.8 0 0-.5.2-1.3.6.4-.7.9-1.2 1.6-2 0 0-.5.2-1.3.6.4-.7.9-1.2 1.6-2 0 0-.5.2-1.3.7.4-.7.9-1.3 1.7-2.1 0 0-.5.2-1.3.6.4-.7.9-1.3 1.7-2.1 0 0-4.3.6-5.2 4.4l-4.5 18c2.4-4.2 6-7.6 6-7.6s-.3.3-1.1.7M28.2 32.5c.5-.5 1-1 1.8-1.5 0 0-.5.1-1.3.4.5-.6 1.1-1.1 1.9-1.7 0 0-.5.1-1.3.4.5-.6 1.1-1.1 1.9-1.7 0 0-.6.1-1.4.4.5-.7 1.1-1.2 2-1.8 0 0-.5.1-1.4.4.5-.7 1.1-1.2 2-1.8 0 0-.5.1-1.3.4.5-.5 1-.9 1.7-1.4 0 0-.5.1-1.3.4.5-.5 1-1 1.8-1.6 0 0-.5.1-1.3.4.5-.6 1.1-1.1 1.9-1.7 0 0-.5.1-1.3.4.5-.6 1.1-1.1 1.9-1.7 0 0-.6.1-1.4.4.5-.7 1.1-1.2 2-1.8 0 0-.5.1-1.3.4.5-.7 1.1-1.2 2-1.8 0 0-4.3-.1-5.8 3.5-1.9 4.5-5 11.8-7.2 17.1 3-3.8 7.1-6.6 7.1-6.6s-.9.3-1.7.5M13.4 29.5c-.1-.7 0-1.4.1-2.4 0 0-.3.5-.6 1.3-.1-.8-.1-1.5 0-2.5 0 0-.3.5-.6 1.3-.1-.8-.1-1.5 0-2.5 0 0-.3.5-.6 1.3-.1-.8-.1-1.6 0-2.7 0 0-.3.5-.6 1.3-.1-.8-.1-1.6 0-2.7 0 0-.3.4-.6 1.2-.1-.7 0-1.4.1-2.2 0 0-.3.4-.6 1.2-.1-.7 0-1.4.1-2.4 0 0-.3.5-.6 1.3-.1-.8-.1-1.5 0-2.5 0 0-.3.5-.6 1.3-.1-.8-.1-1.5 0-2.5 0 0-.3.5-.6 1.3-.1-.8-.1-1.6 0-2.7 0 0-.3.5-.6 1.3-.1-.8-.1-1.6 0-2.7 0 0-3 3.1-1.3 6.7 2 4.5 5.3 11.6 7.7 16.9-.8-4.8-.1-9.7-.1-9.7s-.3.4-.6 1.1M19.4 32.1c.2-.7.5-1.4.9-2.2 0 0-.4.3-1 1 .2-.8.5-1.5 1-2.3 0 0-.4.3-1 1 .2-.8.5-1.5 1-2.3 0 0-.5.3-1.1 1 .2-.8.5-1.6 1-2.5 0 0-.4.3-1 1 .2-.8.5-1.5 1-2.5 0 0-.4.3-1 .9.2-.6.5-1.3.9-2 0 0-.4.3-1 .9.2-.7.5-1.4.9-2.2 0 0-.4.3-1 1 .2-.8.5-1.5 1-2.3 0 0-.4.3-1 1 .2-.8.5-1.5 1-2.3 0 0-.5.3-1.1 1 .2-.8.5-1.6 1-2.5 0 0-.4.3-1 1 .2-.8.5-1.5 1-2.5 0 0-3.9 1.8-3.7 5.7.2 4.9.6 12.8.9 18.5 1.1-4.8 3.5-9 3.5-9s-.6 0-1.2.6"/>
    </g>
    <g fill="#fff">
        <circle cx="44.3" cy="43.5" r="3.4"/>
        <circle cx="49.5" cy="43.4" r="3.4"/>
        <circle cx="54.5" cy="43.4" r="3.4"/>
        <circle cx="46.8" cy="39.4" r="3.4"/>
        <circle cx="52" cy="39.3" r="3.4"/>
        <circle cx="49.4" cy="35.9" r="3.4"/>
    </g>
    <g fill="#fed0ac">
        <path d="M38.8 44.8h21.1v4.1H38.8z"/>
        <path d="M40.9 46.9H58V64H40.9z"/>
    </g>
    <g fill="#d3976e">
        <path d="M38.8 44.8h2.1v4.1h-2.1zM57.8 44.8h2.1v4.1h-2.1zM40.9 48.9H43V64h-2.1zM56 48.9h2.1V64H56z"/>
    </g>
    <g fill="#89664c">
        <path d="M40.9 48.9H43V51h-2.1zM56 48.9h2.1V51H56z"/>
    </g>
    <path fill="#d3976e" d="M42.9 48.9h13V51h-13z"/>
    <path fill="#3e4347" d="M50.9 54.6v-.1c0-.7 0-1.3-1.5-1.3s-1.5.6-1.5 1.3v.1c-1.5.4-1.5 1.4-1.5 2.6 0 1.5 2.1 2.7 3.1 2.7 1.1 0 3.1-1.2 3.1-2.7-.2-1.2-.2-2.3-1.7-2.6"/>
    <g fill="#d0d0d0">
        <path d="M48.4 40.8h-.3c-.5 0-1 .2-1.3.6-.3-.4-.8-.6-1.3-.6h-.4c.2.6.7 1.1 1.3 1.2v.4c0 .4.2.8.4 1.1.2-.3.4-.7.4-1.1 0-.1 0-.3-.1-.4.7-.1 1.2-.6 1.3-1.2M53.6 40.7h-.3c-.5 0-1 .2-1.3.6-.3-.4-.8-.6-1.3-.6h-.4c.2.6.7 1.1 1.3 1.2v.4c0 .4.2.8.4 1.1.2-.3.4-.7.4-1 0-.1 0-.3-.1-.4.7-.2 1.2-.7 1.3-1.3M51 36.6h-.3c-.5 0-1 .2-1.3.6-.3-.4-.8-.6-1.3-.6h-.4c.2.6.7 1.1 1.3 1.2v.4c0 .4.2.8.4 1.1.2-.3.4-.7.4-1.1 0-.1 0-.3-.1-.4.7 0 1.2-.5 1.3-1.2"/>
    </g>
</svg>