<svg xmlns="http://www.w3.org/2000/svg" viewBox="0 0 64 64">
    <title>fishing pole</title>
    <path fill="#d0d0d0" d="M12.7 16.9h1v5.5h-1z"/>
    <path fill="#94989b" d="M52.6 44.3c0-.1-2.2-8.2-8-26.8C41.2 6.6 32.4 2.9 25.2 4.2c-5.9 1.1-11.6 5.7-11 13.6l-2 .1c-.6-7.8 4.6-14.2 12.6-15.7 8.1-1.5 18 2.5 21.8 14.7 5.8 18.6 8 26.8 8 26.8l-2 .6"/>
    <g fill="#3e4347">
        <path d="M51.6 44.9c-.3-.9.3-1.8 1.3-2.1l.5-.1c.9-.2 1.9.3 2.2 1.2L60 59.8c.3.9-.3 1.8-1.3 2.1l-.5.1c-.9.2-1.9-.3-2.2-1.2l-4.4-15.9"/>
        <path d="M52.1 40.7c1.7 3.4.1 7.5-3.4 9.1-3.5 1.6-7.7.1-9.4-3.3-1.7-3.4-.1-7.5 3.4-9.1 3.5-1.6 7.8-.1 9.4 3.3"/>
    </g>
    <path fill="#94989b" d="M48.9 42.2c.8 1.7.1 3.7-1.7 4.5-1.8.8-3.9.1-4.7-1.7-.8-1.7-.1-3.7 1.7-4.5 1.8-.8 3.9 0 4.7 1.7"/>
    <path fill="#d0d0d0" d="M35.5 55.2l-1.8-1.6 11.7-11.3 1.7 1.7z"/>
    <path fill="#3e4347" d="M32.9 52.8h5.8v2.4h-5.8z"/>
    <path fill="#c7e755" d="M18 53.2c2.3-3.4 4.7-8.1 4.6-13.4-.1-10.2-4.4-18.5-9.6-18.5-5.1.1-9.1 8.5-9 18.7.1 5.2 2.6 10 5 13.3-2.8 1.4-4.8 3.9-4.7 6.9.1 4.3 9.3-.4 9.3-.4s9.4 4.5 9.3.2c-.1-2.9-2.1-5.5-4.9-6.8"/>
    <path fill="#428bc1" d="M9.7 21.6c0-.8.8-1.5 1.8-1.5s1.8.6 1.8 1.5c0-.8.8-1.5 1.8-1.5s1.8.6 1.8 1.5c0 .8-3.5 2.7-3.5 2.7s-3.7-1.8-3.7-2.7"/>
    <path fill="#fff" d="M10.8 31.2c1.7 0 3.1-1.2 3.1-2.7 0-1.4-1.4-2.6-3.2-2.6-1.7 0-3.1 1.2-3.1 2.7 0 1.4 1.4 2.6 3.2 2.6"/>
    <path fill="#231f20" d="M10.7 29.9c.9 0 1.6-.6 1.5-1.3 0-.7-.7-1.3-1.6-1.3-.9 0-1.6.6-1.5 1.3.1.7.8 1.3 1.6 1.3"/>
    <g fill="#428bc1">
        <path d="M7.9 33.8c2.3 1.3 5.1 1.8 7.7 1.1 2.3-.6 4.3-2 5.4-3.8.3-.5 1.1-.1.8.4-1.2 2-3.4 3.5-5.9 4.2-2.9.7-6.1.3-8.5-1.2-.5-.3 0-1 .5-.7M21.2 38.3c0 1.9-1.8 3.5-4.1 3.6-2.3.1-4.2-1.6-4.2-3.5h1c0 1.9-1.8 3.5-4.1 3.6-2.3.1-4.2-1.6-4.3-3.5 0-.5 1-.5 1 0 .1 1.5 1.5 2.7 3.3 2.7 1.8 0 3.2-1.3 3.2-2.7 0-.5.9-.5 1 0 .1 1.5 1.5 2.7 3.3 2.7 1.8 0 3.2-1.3 3.2-2.7-.3-.7.7-.7.7-.2M18.9 48.6c0 1.4-1.3 2.5-2.9 2.5-1.6.1-2.9-1.1-3-2.5h1c0 1.4-1.3 2.5-2.9 2.5C9.3 51.2 8 50 8 48.7c0-.5.9-.5 1 0 0 .9.9 1.6 2 1.7 1.1 0 2-.8 2-1.7 0-.5.9-.5 1 0 0 .9.9 1.6 2 1.7 1.1 0 2-.8 2-1.7-.1-.7.9-.7.9-.1M20.3 43.4c0 1.7-1.6 3.1-3.7 3.2-2.1.1-3.7-1.4-3.8-3.1h1c0 1.7-1.6 3.1-3.7 3.2-2.1.1-3.7-1.4-3.8-3.1 0-.5.9-.5 1 0 0 1.3 1.3 2.3 2.8 2.3 1.5 0 2.7-1.1 2.7-2.3 0-.5.9-.5 1 0 0 1.3 1.3 2.3 2.8 2.3 1.5 0 2.7-1.1 2.7-2.3.1-.7 1-.8 1-.2"/>
    </g>
</svg>