<svg xmlns="http://www.w3.org/2000/svg" viewBox="0 0 64 64">
    <title>roller coaster: light skin tone</title>
    <g fill="#870014">
        <path d="M39.5 30.9h3.8V61h-3.8zM28.2 61h-3.7V40.5l3.7-1zM9.5 50h3.8v11H9.5zM54.5 30.9h3.8V61h-3.8z"/>
    </g>
    <path fill="#ed4c5c" d="M2 53.1v7.8C15.5 48 34.3 33.5 62 32.5v-5.8c-21.6 0-46.1 11.8-60 26.4"/>
    <g fill="#94989b">
        <path d="M36.7 31.3c-1 .4-2 .7-3.1 1.1 1-.4 2.1-.8 3.1-1.1M18.1 40.5l.9-.6s-.1 0-.1.1c-.3.1-.5.3-.8.5"/>
    </g>
    <g fill="#ffe1bd">
        <path d="M15.8 26.4l3-1.6 1.2 2.3-3 1.6zM7.6 24.5c-1.4-.8-1.6-.5-1.8-.1-.2.4-.3.8 1.1 1.6l.7-1.5"/>
    </g>
    <g fill="#384044">
        <path d="M31.4 31.8l-.4-1.1 8-3.1.4 1.2zM17 42.3c.5 1 .1 2.2-.9 2.7s-2.2.1-2.7-.9 3.1-2.8 3.6-1.8M30.9 35c.5 1 .1 2.2-.9 2.7s-2.2.1-2.7-.9 3.1-2.8 3.6-1.8M25.1 26.5s-1.4.7-.7 3.2l.7 2.5 2.2-1.2-2.2-4.5"/>
    </g>
    <path fill="#83bf4f" d="M26.9 24.2l-2.4 1.2 2 4.1c.4.8.1 1.8-.7 2.2L17 36.3c-.8.4-1.7.1-2.1-.7l-2-4.1-3.5 1.8c-.5.3-.7 1.1-.4 1.7l.4 9.6c.3.6 1.1.9 1.7.6l20.9-11c.6-.3.9-1.1.5-1.7l-3.9-7.8c-.3-.6-1.1-.8-1.7-.5"/>
    <g fill="#384044">
        <path d="M36.4 29.2c-.2-.6-.9-1-1.5-.8-.6.2-1 .9-.8 1.6.2.7.9 1 1.5.8.6-.2 1-.9.8-1.6M25 32.1l-2-6 .8-9-1.7-.3-1 8.2-1.7 1c.2.5-.2 1.2-1.1 1.7-.8.4-1.7.4-2-.1l-1.7.9-7.1-4-.7 1.5 7.5 4.6 3.6 5.2 7.1-3.7"/>
    </g>
    <g fill="#ffe1bd">
        <path d="M22.1 16.9c.2-1.6.6-1.6 1.1-1.6.5.1.9.2.7 1.8l-1.8-.2M47.1 15.4l3.3-.6.5 2.6-3.4.6zM39.9 11c-1.1-1.2-1.4-1-1.8-.6-.3.3-.6.7.5 1.9l1.3-1.3"/>
    </g>
    <g fill="#384044">
        <path d="M43.7 30.5c.2 1.1-.6 2.1-1.6 2.3-1.1.2-2.1-.6-2.3-1.7-.2-1 3.7-1.7 3.9-.6M58.7 28.1c.2 1.1-.6 2.1-1.6 2.3-1.1.2-2.1-.6-2.3-1.7-.2-1.1 3.7-1.8 3.9-.6M56 18.3s-1.5.3-1.6 2.8l-.1 2.6 2.4-.4-.7-5"/>
    </g>
    <path fill="#c28fef" d="M58.3 16.7l-2.6.4.7 4.5c.1.9-.4 1.7-1.3 1.8L45.4 25c-.9.1-1.7-.4-1.8-1.3l-.7-4.5-3.9.8c-.7.1-1.1.8-1 1.5l.4 8.8c.1.7.8 1.2 1.4 1.1L60.1 28c.7-.1 1.1-.8 1-1.5l-1.4-8.6c0-.8-.7-1.3-1.4-1.2"/>
    <path fill="#89664c" d="M54.1 17.5l3.3-8.4-1.6-.8-3.3 7.5-1.9.3c.1.5-.6 1.1-1.5 1.3-.9.2-1.7-.2-1.8-.7l-1.9.3-5.5-6-1.2 1.2 5.9 6.9 1.8 5.9 7.8-1.3-.1-6.2"/>
    <path fill="#ffe1bd" d="M55.9 8.3c.7-1.5 1-1.4 1.5-1.2.4.2.7.5.1 2l-1.6-.8"/>
    <path fill="#594640" d="M41.9 10.3l.8 1 10.6-1.7.3-1.3c-.7-4.3-1.9-5.9-6.7-5.2-4.8.8-5.7 2.8-5 7.2"/>
    <path fill="#ffe1bd" d="M53.2 8.5c0 .3 0 .5-.1.6-.1.3-.3.4-.3.4s0-.5-.1-1.1c-.9-3.9-.8-2-5.2-1.3-4.3.7-4.9-1.2-4.5 2.8.1.7.2 1.1.2 1.1s-.3-.1-.4-.3c-.1-.1-.2-.3-.3-.6-.4 0-.9.1-.8 1.3.1.7.5 1.3 1.4 1.2.7 2.4 4.2 3.5 5.7 3.3 1.5-.2 4.5-2.4 4.4-4.9.9-.2 1.1-.9 1-1.6-.1-1.1-.7-1.1-1-.9"/>
    <g fill="#91774f">
        <circle cx="45.8" cy="10.9" r=".9"/>
        <circle cx="50.3" cy="10.2" r=".9"/>
        <path d="M49.9 13.1c-.8.9-1.9 1-2.9.5-.1-.1-.2.1-.1.2.4.5 1 .9 1.7.7s1.2-.7 1.4-1.2c.1-.2 0-.3-.1-.2"/>
    </g>
    <path fill="#594640" d="M9.2 22.7l1 .8 9.8-4.3v-1.3c-1.7-4-3.4-5.2-7.8-3.3-4.5 1.8-4.8 4.1-3 8.1"/>
    <path fill="#ffe1bd" d="M19.6 18.1c.1.2.1.5.1.6 0 .3-.2.5-.2.5s-.1-.5-.4-1.1c-1.8-3.5-1.3-1.7-5.3.1s-5 .1-3.6 3.9l.5 1s-.3 0-.5-.2c-.1-.1-.3-.3-.4-.5-.4.1-.9.4-.4 1.5.3.7.8 1.1 1.7.8 1.3 2.1 5 2.3 6.4 1.7 1.4-.6 3.7-3.5 3-5.9.8-.4.8-1.1.5-1.8-.6-1-1.1-.9-1.4-.6"/>
    <g fill="#91774f">
        <circle cx="13.1" cy="22.3" r=".9"/>
        <circle cx="17.2" cy="20.5" r=".9"/>
        <path d="M17.6 23.4c-.6 1.1-1.5 1.5-2.7 1.2-.1 0-.2.1 0 .2.5.4 1.2.6 1.9.3s1-1 1.1-1.6c0-.1-.2-.2-.3-.1"/>
    </g>
</svg>