<svg xmlns="http://www.w3.org/2000/svg" xmlns:xlink="http://www.w3.org/1999/xlink" viewBox="0 0 64 64">
    <title>ferris wheel</title>
    <path fill="#d0d0d0" d="M32 2C18.2 2 7 13.2 7 27s11.2 25 25 25 25-11.2 25-25S45.8 2 32 2m0 47c-12.1 0-22-9.8-22-22S19.9 5 32 5s22 9.9 22 22-9.8 22-22 22"/>
    <path id="b" fill="#d0d0d0" d="M8 26h48v2H8z"/>
    <path id="a" fill="#d0d0d0" d="M31 3h2v48h-2z"/>
    <use transform="rotate(-45.001 32 27)" xlink:href="#a"/>
    <use transform="rotate(-45.001 32 27)" xlink:href="#b"/>
    <circle cx="32" cy="27" r="8.2" fill="#3e4347"/>
    <circle cx="32" cy="27" r="5.5" fill="#94989b"/>
    <path fill="#ed4c5c" d="M34.9 2.8h-2.1c0-.4-.4-.8-.8-.8s-.8.4-.8.8h-2.1c-1.5 0-2.6 1.2-2.6 2.6v5.8c0 1.5 1.2 2.6 2.6 2.6h5.8c1.5 0 2.6-1.2 2.6-2.6V5.4c0-1.4-1.1-2.6-2.6-2.6M36 8.3h-8V5.4c0-.6.5-1.1 1.1-1.1h5.8c.6 0 1.1.5 1.1 1.1v2.9"/>
    <path fill="#3e4347" d="M26.5 9.9h11.1v1.6H26.5z"/>
    <path fill="#ed4c5c" d="M34.9 50.9h-2.1c0-.4-.3-.8-.8-.8s-.8.3-.8.8h-2.1c-1.5 0-2.6 1.2-2.6 2.6v5.8c0 1.5 1.2 2.6 2.6 2.6h5.8c1.5 0 2.6-1.2 2.6-2.6v-5.8c0-1.4-1.1-2.6-2.6-2.6m1.1 5.6h-8v-2.9c0-.6.5-1.1 1.1-1.1h5.8c.6 0 1.1.5 1.1 1.1v2.9"/>
    <path fill="#3e4347" d="M26.5 58h11.1v1.6H26.5z"/>
    <path fill="#f2b200" d="M10.4 26.9H8.3c0-.4-.3-.8-.8-.8s-.8.4-.8.8H4.6C3.2 26.9 2 28 2 29.5v5.8c0 1.5 1.2 2.6 2.6 2.6h5.8c1.5 0 2.6-1.2 2.6-2.6v-5.8c.1-1.5-1.1-2.6-2.6-2.6m1.1 5.5h-8v-2.9c0-.6.5-1.1 1.1-1.1h5.8c.6 0 1.1.5 1.1 1.1v2.9"/>
    <path fill="#3e4347" d="M2 33.9h11.1v1.6H2z"/>
    <path fill="#42ade2" d="M59.4 26.9h-2.1c0-.4-.3-.8-.8-.8s-.8.4-.8.8h-2.1c-1.5 0-2.6 1.2-2.6 2.6v5.8c0 1.5 1.2 2.6 2.6 2.6h5.8c1.5 0 2.6-1.2 2.6-2.6v-5.8c0-1.5-1.2-2.6-2.6-2.6m1 5.5h-8v-2.9c0-.6.5-1.1 1.1-1.1h5.8c.6 0 1.1.5 1.1 1.1v2.9"/>
    <path fill="#3e4347" d="M50.9 33.9H62v1.6H50.9z"/>
    <path fill="#42ade2" d="M17.9 9.8h-2.1c0-.4-.3-.8-.8-.8-.4 0-.8.4-.8.8h-2.1c-1.5 0-2.6 1.2-2.6 2.6v5.8c0 1.5 1.2 2.6 2.6 2.6h5.8c1.5 0 2.6-1.2 2.6-2.6v-5.8c0-1.4-1.2-2.6-2.6-2.6m1.1 5.6h-8v-2.9c0-.6.5-1.1 1.1-1.1h5.8c.6 0 1.1.5 1.1 1.1v2.9"/>
    <path fill="#3e4347" d="M9.4 16.9h11.1v1.6H9.4z"/>
    <path fill="#f2b200" d="M51.9 43.9h-2.1c0-.4-.3-.8-.8-.8-.4 0-.8.3-.8.8h-2.1c-1.5 0-2.6 1.2-2.6 2.6v5.8c0 1.5 1.2 2.6 2.6 2.6h5.8c1.5 0 2.6-1.2 2.6-2.6v-5.8c.1-1.4-1.1-2.6-2.6-2.6m1.1 5.5h-8v-2.9c0-.6.5-1.1 1.1-1.1h5.8c.6 0 1.1.5 1.1 1.1v2.9"/>
    <path fill="#3e4347" d="M43.5 51h11.1v1.6H43.5z"/>
    <path fill="#83bf4f" d="M17.6 44.1h-2.1c0-.4-.3-.8-.8-.8-.4 0-.8.3-.8.8h-2.1c-1.5 0-2.6 1.2-2.6 2.6v5.8c0 1.5 1.2 2.6 2.6 2.6h5.8c1.5 0 2.6-1.2 2.6-2.6v-5.8c.1-1.4-1.1-2.6-2.6-2.6m1.1 5.6h-8v-2.9c0-.6.5-1.1 1.1-1.1h5.8c.6 0 1.1.5 1.1 1.1v2.9"/>
    <path fill="#3e4347" d="M9.2 51.2h11.1v1.6H9.2z"/>
    <path fill="#83bf4f" d="M52.2 9.6h-2.1c0-.4-.3-.8-.8-.8s-.8.3-.8.8h-2.1c-1.5 0-2.6 1.2-2.6 2.6V18c0 1.5 1.2 2.6 2.7 2.6h5.8c1.5 0 2.6-1.2 2.6-2.6v-5.8c-.1-1.4-1.2-2.6-2.7-2.6m1.1 5.5h-8v-2.9c0-.6.5-1.1 1.1-1.1h5.8c.6 0 1.1.5 1.1 1.1v2.9"/>
    <path fill="#3e4347" d="M43.7 16.7h11.1v1.6H43.7z"/>
    <g fill="#ed4c5c">
        <circle cx="32" cy="27" r="2.8"/>
        <path d="M33 26.4l-1.1.6-.9-.5L10.6 64h2.6L32 29.2 50.8 64h2.6z"/>
    </g>
</svg>