<svg xmlns="http://www.w3.org/2000/svg" viewBox="0 0 64 64">
    <title>clapper board</title>
    <path fill="#686b6d" d="M16.1 31.2l-10.9-.7V17z"/>
    <g fill="#333">
        <path d="M4.9 11.7l6 9.8 5.4-.6-6.4-10.1zM3.2 22.3l2.7-.3-3.4-5.7zM15.3 9.8l7 10.4 6.5-.7-7.6-10.8zM27.7 7.5L36 18.7l7.9-.8-9-11.7zM59.3 16.2l-.6-4.4-7.1-8.7-8.8 1.6 9.9 12.2z"/>
    </g>
    <g fill="#fff">
        <path d="M21.2 8.7l7.6 10.8 7.2-.8-8.3-11.2zM9.9 10.8l6.4 10.1 6-.7-7-10.4zM42.8 4.7l-7.9 1.5 9 11.7 8.8-1zM2 12.2l.5 4.1L5.9 22l5-.5-6-9.8zM58.3 8.2L57.6 2l-6 1.1 7.1 8.7z"/>
    </g>
    <path fill="#ebf2f2" d="M58.7 11.8l2.9 4.1-1.7-13.7-2.3-.2z"/>
    <path fill="#686b6d" d="M59.3 16.2l-.6-4.4 2.9 4.1z"/>
    <path fill="#333" d="M3 22.8v8.9l56.7 3.7V22.8z"/>
    <g fill="#fff">
        <path d="M22.8 33l6.5.4 7.1-10.6h-7.2zM11.3 32.3l5.5.3 5.9-9.8h-6zM36.6 33.9l8 .5 8.7-11.6h-8.9zM6.2 22.8L3 28.9v2.8l3.2.2 5-9.1zM59.7 26.7L53.4 35l6.3.4z"/>
    </g>
    <path fill="#ebf2f2" d="M59.7 26.7l2.3-3.9V35l-2.3.4z"/>
    <path fill="#686b6d" d="M59.7 22.8v3.9l2.3-3.9z"/>
    <path fill="#333" d="M3 31.7v18L59.7 62V35.4z"/>
    <g fill="#fff">
        <path d="M59.7 36.9L3 32.7v-1.2l56.7 3.7zM59.7 53.1L3 43.7v-1l56.7 8.9zM59.7 45.7L3 38.7v-1l56.7 6.6z"/>
        <path d="M13.8 45l-1-.2v-5.4l1 .1z"/>
    </g>
    <path fill="#181919" d="M13.4 32.4l-11-.7V18.3z"/>
    <g fill="#fff">
        <path d="M4.6 22.2c0 .6-.4 1-.9 1s-.8-.4-.8-1 .4-1 .8-1c.5 0 .9.5.9 1M4.6 29.9c0 .6-.4 1-.9 1s-.8-.5-.8-1c0-.6.4-1 .8-1 .5 0 .9.5.9 1M10.2 30.2c0 .6-.4 1-.9 1s-.9-.5-.9-1.1.4-1 .9-1c.4 0 .9.5.9 1.1"/>
    </g>
    <path fill="#686b6d" d="M62 60.5L59.7 62V36.9l2.3-.4z"/>
    <g fill="#ebf2f2">
        <path d="M62 35l-2.3.4v1.5l2.3-.4zM62 43.7l-2.3.6v1.4l2.3-.6zM62 50.7l-2.3 1v1.4l2.3-1z"/>
    </g>
</svg>