<svg xmlns="http://www.w3.org/2000/svg" viewBox="0 0 64 64">
    <title>carousel horse</title>
    <path fill="#ed4c5c" d="M26 2h4v60h-4z"/>
    <path fill="#181f27" d="M44.6 28.7c.3-2.4 1.4-6.5 5.1-9.3 4.7-3.6 9.3-3.2 9.7-7.5 0 0 6.4 7.7-.9 13.3-5.3 4.1-8.7 1.5-10.8 3.3l-3.1.2"/>
    <path fill="#d4daf4" d="M40.3 39.8s4.1 6 9.6 6 5.5.2 6.4 4.9c1 4.6 3.6 8.1 3.6 8.1l2.1-4.5s-2.3-1.2-2.6-7c-.3-5.8-2.3-4.9-5-6-2.7-1.1-4.7-5.3-4.7-5.3s3.9-10.1-7-11.8c-10.9-1.7-11.9 7.6-22.1-1.8C10.4 13 4.7 17.3 4.7 17.3l1.8 1.3S5 27.1 3 28.6c-2.3 1.8.1 3.9 2 4 .2 0 1.9-2.6 2.4-2.4 1.2.5-.4 2.5-.1 2.6.8.4 1.6-1 1.6-2.3 0 0 2.8-1.7 3.9-4.9 0 0-1.1 7.8 3.6 11.8 0 0-.7 2.2-1.8 2.7-7.8 3.7-7.1 3.8-7.1 9.7 0 5.9-1.6 8.2-1.6 8.2s.8.8 4.1.8c0 0 1.3-4.3 1-9.2-.3-5 4.4-5.1 6.8-5.1 3.8 0 5.7-2.9 5.7-2.9s4.7 4.6 16.8-1.8"/>
    <g fill="#7e93a4">
        <path d="M40.3 39.8s4.1 6 9.6 6c1.9 0 3.1 0 4 .2.1.4.1.9.1 1.5.2 4.6 2.1 5.6 2.1 5.6l-1.7 3.6s-2.1-2.7-2.9-6.5c-.8-3.7-.7-3.9-5.1-3.9-3.7 0-6.6-4.5-7.4-5.9.4-.2.9-.4 1.3-.6M12.7 45.4c1.5-1 3.6-1 5-1 3.8 0 5.7-2.9 5.7-2.9s.5.4 1.5.9c-.6 1-2 2.8-4.2 2.8-1.9 0-5.7.1-5.4 4.1.3 4-.8 7.4-.8 7.4-2.6 0-3.3-.6-3.3-.6s1.2-1.8 1.2-6.5c0-2.1-.1-3.3.3-4.2"/>
    </g>
    <g fill="#181f27">
        <path d="M8.6 22.5c0-.4-.5-.8-1.1-.8-.6 0-1.1.3-1.1.8s.5.8 1.1.8c.6-.1 1.1-.4 1.1-.8M3.1 30.5c.2.4.6.5.8.4s.3-.5 0-.9c-.2-.4-.6-.5-.8-.4-.2.2-.2.6 0 .9M14.9 54.7c-.2 1.2-.5 2-.5 2-2.6 0-3.3-.6-3.3-.6s.4-.5.7-1.8c1.5.4 2.5.4 3.1.4M54.9 51.5c.6 1.2 1.2 1.6 1.2 1.6l-1.7 3.6s-.8-1.1-1.6-2.7c1-.7 1.7-1.8 2.1-2.5M10.5 56.2c-.3 1.6-.6 2.5-.6 2.5-3.2 0-4.1-.8-4.1-.8s.5-.7.9-2.2c1.7.6 3.1.6 3.8.5M60.5 52.2c.7 1.5 1.5 2 1.5 2l-2.1 4.5s-1-1.3-2-3.4c1.3-.9 2.1-2.2 2.6-3.1"/>
    </g>
    <path fill="#6c3c78" d="M13.1 26.4l-1.5-4.1.6-7.2-.9-.1-.5 5.9-5-.5-.1.9 4.8.6L7 30.2l.8.3 3.1-7.3 1.3 3.5z"/>
    <ellipse cx="11" cy="21.8" fill="#a35cff" rx="1.4" ry="1.3"/>
    <path fill="#181f27" d="M5.6 17.9c-1.5.1-2.3 2.5-.6 3.3 1.7.8 5.5-1.2 5.8-1.9.3-.8-2 .7-4.4-.8l-.8-.6"/>
    <path fill="#a35cff" d="M14.6 36.6h36v-2.9h-37z"/>
    <path fill="#6c3c78" d="M13.9 34.3L26 30l-1.1-2.7-12.1 4.3z"/>
    <path fill="#a35cff" d="M26.3 48.7c2.2 2.3 7.7 2.2 10 0 1.4-1.3-2-3.5-4.1-4.7v-3.3h-1.7V44c-2.2 1.3-5.6 3.3-4.2 4.7m1.7-.4c-.4-.5 2.9-2.6 3.3-2.8.4.2 3.7 2.2 3.3 2.7-.5 1-6 1-6.6.1"/>
    <path fill="#6c3c78" d="M37.2 23.2v13.1c0 3.1-2.7 5.7-5.9 5.7-3.3 0-5.9-2.5-5.9-5.7V24.9c4.6 1.8 7.6-.2 11.8-1.7"/>
    <path fill="#a35cff" d="M28.9 36.3V25.6c1.7 0 3.2-.4 4.7-1v11.7c0 1.2-1.1 2.3-2.4 2.3-1.2-.1-2.3-1.1-2.3-2.3"/>
    <path fill="#181f27" d="M7.5 16.2c-.5-1.6 1.5-4 8-4.3 6.3-.2.3 2-.3 3.1 0 0 4.1-.8 8.2 1.6 2.5 1.5-1.9 1.2-1.9 2.7 0 0 3.7.8 4.2 3 .2 1-1.4-.4-1.9 1 0 0 5.8 1.1 2.8 5.3-2.5 3.4-5 2.5-5.6 2.2-.6-.3.7-2.8.6-3.7-.2-.8-.6-1.1-1.3.4-.2.4-1.6-1.8-.6-5.2 0 0-7.9.4-6.6-3.4C14 16 8 18 7.5 16.2"/>
</svg>