<svg xmlns="http://www.w3.org/2000/svg" viewBox="0 0 64 64">
    <title>headphone</title>
    <path fill="#454749" d="M47.5 45.1c-6.6 12.1-6.5 13.1-9.6 11.3-3.1-1.8-4.3-3.4 2.4-15.4S48.9 29.1 52 30.9c3 1.7 2.1 2.2-4.5 14.2"/>
    <path fill="#258399" d="M53.7 48.7c-4.2 7.7-9.4 11.4-11.9 10-3.1-1.8-1.5-1.8 5.1-13.9s5.8-13.5 8.9-11.7c2.5 1.4 2.1 7.9-2.1 15.6"/>
    <path fill="#454749" d="M16.5 45.1c6.6 12.1 6.5 13.1 9.6 11.3 3.1-1.8 4.3-3.4-2.4-15.4S15.1 29.1 12 30.9c-3 1.7-2.1 2.2 4.5 14.2"/>
    <path fill="#258399" d="M10.3 48.7c4.2 7.7 9.4 11.4 11.9 10 3.1-1.8 1.5-1.8-5.1-13.9s-5.8-13.5-8.9-11.7c-2.5 1.4-2.1 7.9 2.1 15.6"/>
    <path fill="#3baacf" d="M11.3 57.7s5.4 1.4 5.8 0c2.5-8.1-11.4-12.9-11.4-22.1C5.7 20.8 17.5 8.8 32 8.8s26.3 12 26.3 26.8c0 9.2-13.9 14-11.4 22.1.4 1.4 5.8 0 5.8 0 5.7-5.6 9.3-13.4 9.3-22.1C62 18.7 48.6 5 32 5S2 18.7 2 35.6c0 8.7 3.6 16.5 9.3 22.1"/>
    <path fill="#454749" d="M14.9 17.6c3.5-.7 8-5.7 17.1-5.7 9.1 0 13.7 5.1 17.1 5.7 1.4.3 3.8-1.9 3.8-1.9-5.5-6.3-12-9.5-20.9-9.5-8.9 0-15.4 3.2-20.9 9.5 0 .1 2.4 2.2 3.8 1.9"/>
</svg>