<svg xmlns="http://www.w3.org/2000/svg" viewBox="0 0 64 64">
    <title>video game</title>
    <path fill="#333" d="M61.9 44.2l-4.4-22.1c-1-5.1-5.4-9-10.7-9.1H17.3c-5.4 0-9.9 3.9-10.8 9.1L2.1 44.2c-.1.4-.1.8-.1 1.2C2 48.5 4.5 51 7.5 51c2 0 3.7-1 4.7-2.6l7.2-9c1.2 1.1 2.7 1.8 4.4 1.8 3.6 0 6.5-2.9 6.5-6.6h3.5c0 3.6 2.9 6.6 6.5 6.6 1.7 0 3.2-.6 4.4-1.7l7.2 9c1 1.6 2.7 2.6 4.7 2.6 3 0 5.5-2.5 5.5-5.6-.1-.5-.1-.9-.2-1.3"/>
    <g fill="#94989b">
        <path d="M20.9 25.2c.7.7 1.5.5 1.8-.5v-3.1c-.3-1-1.1-1.2-1.8-.5l-.7.7c-.7.7-.7 1.9 0 2.6l.7.8M15.8 17.8c-1 .3-1.2 1.1-.5 1.8l.7.7c.7.7 1.9.7 2.6 0l.7-.7c.7-.7.5-1.5-.5-1.8h-3M13.8 21.2c-.7-.7-1.5-.5-1.8.5v3.1c.3 1 1.1 1.2 1.8.5l.7-.7c.7-.7.7-1.9 0-2.6l-.7-.8M18.9 28.7c1-.3 1.2-1.1.5-1.8l-.7-.7c-.7-.7-1.9-.7-2.6 0l-.7.7c-.7.7-.5 1.5.5 1.8h3"/>
    </g>
    <g fill="#f2b200">
        <path d="M49.5 23.2c-1 0-1.8.8-1.8 1.8s.8 1.8 1.8 1.8 1.8-.8 1.8-1.8-.8-1.8-1.8-1.8M44.2 25.1c-1 0-1.8.8-1.8 1.8s.8 1.8 1.8 1.8 1.8-.8 1.8-1.8c.1-1-.8-1.8-1.8-1.8M49.3 21.4c1 0 1.8-.8 1.8-1.8s-.8-1.8-1.8-1.8-1.8.8-1.8 1.8c0 .9.8 1.8 1.8 1.8M44.1 23.2c1 0 1.8-.8 1.8-1.8s-.8-1.8-1.8-1.8-1.8.8-1.8 1.8.8 1.8 1.8 1.8"/>
    </g>
    <g fill="#94989b">
        <ellipse cx="40.3" cy="34.5" rx="4.3" ry="4.4"/>
        <path d="M23.8 30.1c-2.4 0-4.3 2-4.3 4.4 0 2.4 1.9 4.4 4.3 4.4s4.3-2 4.3-4.4c.1-2.4-1.9-4.4-4.3-4.4"/>
    </g>
</svg>