<svg xmlns="http://www.w3.org/2000/svg" viewBox="0 0 64 64">
    <title>guitar</title>
    <path fill="#e27c17" d="M29 31.4l.9.9.2.2s0 .1-.1.1c-.7 1-1.7 2.6-1.5 4.6.2 2 .7 3.4 1.6 4.4.7.7 1.5 1 2.2 1.1-.1 0-.2.1-.3.1-1.8.7-4.2 1.7-5.1 4.5-.3 1-.5 2.2-.7 3.4-.4 2.4-.9 5.1-2.3 6.5-2 2-4.4 2.9-7.1 2.5-2.6-.4-5.5-1.9-7.9-4.4-2.5-2.5-4-5.3-4.4-7.9-.4-2.7.5-5.1 2.5-7.1 1.4-1.4 3.4-2.1 6.6-2.3 5.9-.4 7.3-3.9 8.2-6.1.7-1.8.9-2.4 2.7-2.5 1.7-.3 3 .5 4.5 2m1.5-1.6c-1.6-1.6-3.5-3.1-6.4-2.8-6.7.5-2.3 8.1-10.8 8.7-3.1.2-5.9.9-8 3C-.1 44 1.6 51.3 7.2 56.8c5.6 5.6 12.9 7.3 18.2 1.9C28.1 56 28.1 51 29 47.9c1.2-3.9 7.5-2.6 7.2-6.9 0-.4-.1-.7-.3-.8-.8-.8-3 1.1-4.3-.2-.5-.5-.8-1.4-1-3-.2-2.4 2.8-4.2 1.7-5.3-.6-.6-1.2-1.2-1.8-1.9z"/>
    <path fill="#ff9d27" d="M26.1 50.7c.2-1.2.4-2.3.7-3.4.9-2.8 3.3-3.8 5.1-4.5.1 0 .2-.1.3-.1-.7-.1-1.5-.4-2.2-1.1-.9-.9-1.4-2.3-1.6-4.4-.2-2 .9-3.5 1.5-4.6 0 0 0-.1.1-.1l-.2-.2-.9-.9c-1.5-1.5-2.7-2.3-4.7-2.2-1.7.1-2 .7-2.7 2.5-.9 2.3-2.2 5.7-8.2 6.1-3.2.2-5.2.9-6.6 2.3-2 2-2.9 4.4-2.5 7.1.4 2.6 1.9 5.5 4.4 7.9 2.5 2.5 5.3 4 7.9 4.4 2.7.4 5.1-.5 7.1-2.5 1.6-1.3 2.1-4 2.5-6.3"/>
    <g fill="#3e4347">
        <path d="M19.81 39.223l2.474-2.476 4.951 4.949-2.474 2.475zM15.022 44.03l2.476-2.475 4.949 4.95-2.476 2.475zM12.042 48.178l1.414-1.414 3.889 3.89-1.415 1.414zM28.8 39.7l-4.5-4.5 25.5-24.1 3.1 3.1z"/>
        <circle cx="22.6" cy="53.7" r="2.3"/>
        <circle cx="17.1" cy="56.5" r="1.8"/>
        <path d="M52.6 19.2c-.7.7-1 1.3-.5 1.9.6.6 1.2.2 1.9-.5s1-1.3.5-1.9c-.5-.5-1.2-.1-1.9.5"/>
        <path d="M51.17 18.477l.706-.707 1.556 1.556-.707.707zM56.1 15.8c-.7.7-1 1.3-.5 1.9.6.6 1.2.2 1.9-.5s1-1.3.5-1.9c-.6-.5-1.3-.1-1.9.5"/>
        <path d="M54.68 15.024l.708-.707 1.555 1.555-.707.707zM59.5 12.4c-.7.7-1 1.3-.5 1.9.6.6 1.2.2 1.9-.5s1-1.3.5-1.9c-.6-.6-1.2-.2-1.9.5"/>
        <path d="M58.05 11.57l.707-.707 1.556 1.556-.708.707zM44.8 11.4c-.7.7-1.3 1-1.9.5-.6-.6-.2-1.2.5-1.9s1.3-1 1.9-.5c.5.5.1 1.2-.5 1.9"/>
        <path d="M43.969 11.275l.708-.706 1.554 1.557-.708.706zM48.2 7.9c-.7.7-1.3 1-1.9.5-.6-.6-.2-1.2.5-1.9s1.3-1 1.9-.5c.5.6.1 1.3-.5 1.9"/>
        <path d="M47.483 7.823l.707-.707 1.555 1.556-.707.707zM51.6 4.5c-.7.7-1.3 1.1-1.9.5-.6-.6-.2-1.2.5-1.9s1.3-1.1 1.9-.5c.6.6.2 1.2-.5 1.9"/>
        <path d="M50.85 4.369l.708-.707 1.555 1.555-.707.707z"/>
        <path d="M54.8 15.9c-5.4 5.4-6.9 6.8-10.2 3.5-3.3-3.3-1.9-4.8 3.5-10.2C55.3 2 55.2-.1 59.7 4.3c4.4 4.5 2.3 4.4-4.9 11.6"/>
    </g>
    <g fill="#8a959b">
        <circle cx="53.8" cy="6.6" r="1.3"/>
        <circle cx="50.3" cy="10.1" r="1.3"/>
        <circle cx="46.9" cy="13.5" r="1.3"/>
        <circle cx="57.4" cy="10.2" r="1.3"/>
        <path d="M54.9 14.6c-.5.5-1.3.5-1.8 0s-.5-1.3 0-1.8 1.3-.5 1.8 0 .5 1.3 0 1.8"/>
        <circle cx="50.5" cy="17.1" r="1.3"/>
    </g>
</svg>