<svg xmlns="http://www.w3.org/2000/svg" viewBox="0 0 64 64">
    <title>tennis</title>
    <circle cx="13" cy="13" r="11" fill="#c7e755"/>
    <g fill="#fff">
        <path d="M10.6 15.4C8.3 13 5.1 11.9 2 12.1v1.2c2.8-.2 5.6.8 7.7 3 2.1 2.1 3.1 5 3 7.7h1.2c.2-3.1-.9-6.3-3.3-8.6M24 12.7c-2.8.1-5.6-.8-7.7-3-2.1-2.1-3.1-5-3-7.7h-1.2c-.1 3.1 1 6.2 3.3 8.6 2.4 2.4 5.5 3.5 8.6 3.3v-1.2"/>
    </g>
    <path fill="#d0d0d0" d="M52.8 34.8l1-1-2.3-2.3 4-4L57 29l1-1-1.5-1.5 3.8-3.8-1-1-3.8 3.8-3.2-3.2 4-4 3.1 3.1 1-1-3.1-3.1 2.5-2.5-1-1-2.5 2.5-3.1-3.3 3.5-3.5-1-1-3.5 3.5L49 8.8l2.5-2.5-1-1L48 7.8l-3.1-3.1-1 1L47 8.8l-4 4-3.2-3.2 3.8-3.8-1-1-3.8 3.8-1.5-1.5-1 1 1.5 1.5-4 4-2.3-2.3-1 1 2.3 2.3-4 4-1.5-1.5-1 1 1.5 1.5-3.8 3.8 1 1 3.8-3.8 3.2 3.2-4 4-3.1-3.1-1 1 3.1 3.1-2.5 2.5 1 1 2.5-2.5 3.2 3.2-3.5 3.5 1 1 3.5-3.5 3.2 3.2-2.5 2.5 1 1 2.5-2.5 3.1 3.1 1-1-3.1-3.1 4-4 3.2 3.2-3.8 3.8 1 1 3.7-3.8 1.5 1.5 1-1-1.5-1.5 4-4 2.3 2.4m1.7-8.3l-4 4-3.2-3.2 4-4 3.2 3.2m-13.2 4.8l-3.2-3.2 4-4 3.2 3.2-4 4m-3.4-11.4l3.2 3.2-4 4-3.2-3.2 4-4m5-5l3.2 3.2-4 4-3.2-3.2 4-4m.2 8.2l4-4 3.2 3.2-4 4-3.2-3.2m12.2-5.8l-4 4-3.2-3.2 4-4 3.2 3.2m-7.4-7.4l3.2 3.2-4 4-3.1-3.3 3.9-3.9m-9.2.8l3.2 3.2-4 4-3.2-3.2 4-4m-9 9l4-4 3.2 3.2-4 4-3.2-3.2m-.8 9.2l4-4 3.2 3.2-4 4-3.2-3.2m7.3 7.4L33 33.1l4-4 3.2 3.2-4 4m9.3-.8l-3.2-3.2 4-4 3.2 3.2-4 4"/>
    <g fill="#ff717f">
        <path d="M57.7 7.5c-6.8-6.8-19.4-5.4-28 3.2-8.6 8.6-10 21.1-3.2 28 6.9 6.8 19.4 5.4 28-3.2 8.6-8.6 10-21.1 3.2-28M29 36.2c-5.8-5.8-4.6-16.3 2.7-23.6C39 5.3 49.5 4.1 55.3 9.9c5.8 5.8 4.6 16.3-2.7 23.6-7.3 7.3-17.9 8.5-23.6 2.7"/>
        <path d="M38.1 42.9c.7 0-5.8-2.3-5.8-2.3s-8.2 3.7-9.8 2.1c-1.6-1.6 2.1-9.8 2.1-9.8s-2.3-6.5-2.4-5.8c-.4 6.5-1.4 12.9-4.5 16.5-.4.5-1 1-1 1l1.9 1.9 1.9 1.9s.5-.6 1-1c3.7-3 10.1-4.1 16.6-4.5"/>
    </g>
    <g fill="#4d4f59">
        <path d="M3.53 56.721l13.646-13.647 4.88 4.879L8.407 61.6z"/>
        <path d="M10 50.2l3.4 6.3 2.1-2.1-3.4-6.4zM5.7 54.5l3.4 6.4 2.1-2.2-3.4-6.3z"/>
    </g>
    <g fill="#5f606c">
        <path d="M3.5 56.7l4.8 4.9.8-.7-3.4-6.4zM7.8 52.4l3.4 6.3 2.2-2.2-3.4-6.3zM17.2 43l-.7.7 3.3 6.4 2.2-2.2z"/>
    </g>
    <path fill="#4d4f59" d="M14.3 45.9l3.4 6.3 2.1-2.1-3.3-6.4z"/>
    <path fill="#5f606c" d="M12.1 48l3.4 6.4 2.2-2.2-3.4-6.3z"/>
    <g fill="#4d4f59">
        <path d="M3.056 56.263l1.556-1.555 5.727 5.728-1.556 1.555zM15.17 44.169l1.556-1.556 5.726 5.73-1.556 1.555z"/>
    </g>
</svg>