<svg xmlns="http://www.w3.org/2000/svg" viewBox="0 0 64 64">
    <title>skis</title>
    <path fill="#287700" d="M50.4 33.4c-.5-.5-2.4.2-3-.3-1-.7-.8-4-1.9-4.3-8.3-2.6-23.4 13.9-27.1 21.8-.5 1-.7 4.2.2 4.7l3.2-1.8-.5-.9L31 47l.5.9 7.3-4.2-1.3-2.2 9.7-5.6 1.3 2.2 2-1.2c.4-.9.5-2.9-.1-3.5"/>
    <g fill="#3e4347">
        <path d="M21.268 52.495l9.786-5.651.55.952-9.786 5.651zM37.508 41.407l9.788-5.647 1.3 2.253-9.788 5.646z"/>
    </g>
    <path fill="#79c600" d="M44.7 24.5c-2-2.6-4.8-5-6.9-5.3-4.1-.6-13.1 5.3-13.7 9.5-.6 4.2-4.5 9.9-6.8 14.2l7.8 7.2c3.9-3.2 8.3-8.2 11-10.1 1.6-1.1 5.1-2.3 6.8-3.6-.4-4-.2-8.6 1.8-11.9"/>
    <g fill="#b6ef00">
        <path d="M16.5 44.4c-1.4 3-1.9 5.3-.8 6.6.8 1 3.4 2.1 4.7 1.8 1.4-.4 3-1.5 4.7-2.9l-7.8-7.2c-.3.6-.6 1.2-.8 1.7M47.1 29.3c-.2-1.3-1.2-3.1-2.5-4.8-2 3.4-2.1 7.9-1.7 11.7.2-.1.3-.2.4-.4 1.4-1.3 4.1-4.7 3.8-6.5M26.5 2.4C24.4 13.6 17 13.1 17 13.1c-2.1 1.1-4.9 2.1-4.9 3.7s9.1 12.5 11.2 13.7c1.4.8 12.1-1.3 13.7-2.9 1.6-1.5 2.7-6.3 2.4-8.5-.3-1.6-10.6-14.5-12.9-16.7"/>
    </g>
    <g fill="#3e4347">
        <path d="M26.1 2.1c-.5-.1-1.1 0-1.8.2-1.3.5-2.8 1.5-3.3 2.3-.7 1.1-.8 2.7-1.1 4.3-.2 1-.4 2-.9 2.7-.4.5-1.1 1-1.9 1.5 0 0 7.4.6 9.5-10.7-.3-.2-.4-.3-.5-.3"/>
        <circle cx="34" cy="24.6" r="2.6"/>
        <path d="M17 25.6l3.1 3.6 7.5-6-3-3.6zM12.5 20.3l3.1 3.6 7.4-6-2.9-3.6z"/>
    </g>
    <path fill="#287700" d="M23.8 13.5l.8 1.1-2.5 2-.8-1.1 2.5-2m.1-1.1l-3.7 2.9 1.8 2.3 3.7-2.9-1.8-2.3z"/>
    <path fill="#60aa00" d="M22.4 13.4l2.1 2.6-3.2 2.6-2.2-2.6 3.3-2.6m.1-1.1L18 15.8l3.1 3.9 4.5-3.6-3.1-3.8z"/>
    <path fill="#287700" d="M28.3 18.8l.8 1.1-2.5 2-.8-1.1 2.5-2m.1-1.1l-3.7 2.9 1.8 2.3 3.7-2.9-1.8-2.3z"/>
    <path fill="#60aa00" d="M26.8 18.7l2.1 2.6-3.2 2.6-2.1-2.6 3.2-2.6m.2-1.1l-4.5 3.6 3.1 3.9 4.5-3.6-3.1-3.9z"/>
    <path fill="#287700" d="M19.5 36.5l7.5 5.1 2.2-3.3-7.4-5.2z"/>
    <path fill="#b6ef00" d="M30 40.4l-.8 1.1-2.6-1.8.8-1.1 2.6 1.8m1.1-.2l-3.9-2.8-1.7 2.4 3.9 2.8 1.7-2.4z"/>
    <path fill="#3e4347" d="M29.7 39l-2 2.7-3.4-2.4 2-2.7 3.4 2.4m1.2-.2l-4.7-3.3-2.9 4 4.7 3.3 2.9-4z"/>
    <path fill="#287700" d="M16.2 41.5l6.8 4.6 1.9-3-6.6-4.6z"/>
    <path fill="#b6ef00" d="M25.7 45.1l-.7 1-2.3-1.6.7-1 2.3 1.6m1-.2l-3.4-2.5-1.5 2.2 3.4 2.5 1.5-2.2z"/>
    <path fill="#3e4347" d="M25.4 43.8l-1.8 2.4-3-2.2 1.8-2.4 3 2.2m1-.2l-4.2-3-2.6 3.6 4.2 3 2.6-3.6z"/>
    <path fill="#42ade2" d="M13.9 57.5c-4.5 2.6-8.2-.2-10.3-2.1.1.9.5 1.9 1 2.7 1.8 3.1 5.8 5.3 10.4 2.6 3.2-1.8 49-28.1 49-28.1v-3.8L13.9 57.5"/>
</svg>