<svg xmlns="http://www.w3.org/2000/svg" xmlns:xlink="http://www.w3.org/1999/xlink" viewBox="0 0 64 64">
    <title>person golfing: dark skin tone</title>
    <g fill="#3b946f">
        <path d="M35.3 31.9c-.2-1 .6-2 1.6-2.2l9.3-3.1.6 3.8-9.3 3.1c-1 .1-2-.6-2.2-1.6"/>
        <path d="M46.3 30.4a2 2 0 0 1-1.4-2.3l2.9-9.2 3.8 1-2.9 9.1c-.2 1-1.3 1.6-2.4 1.4"/>
    </g>
    <path fill="#705041" d="M49.7 19.8l-1.9-.3c-.7-.1-1.1-.7-1-1.4l.1-.9c.1-.5.4-.8.9-1 .3-1.2 1-2.7 3.2-2.3.4.1 2.4.4 2 2.8-.5 3.6-.5 3.6-3.3 3.1"/>
    <path fill="#999" d="M12.7 2.1l-.6 1.6 31.6 10.7.5-1.6z"/>
    <path fill="#3e4347" d="M56.2 16.3c.6.2.9.9.7 1.5l-.2.5c-.2.6-.9.9-1.5.7l-13.9-4.7c-.6-.2-.9-.9-.7-1.5l.2-.5c.2-.6.9-.9 1.5-.7l13.9 4.7"/>
    <path id="a" fill="#d0d0d0" d="M10.6 2.6c-1.3 1.2-4.1 5-3.6 6 .5 1 8.1 3.1 7.7-2.9-.1-2.1-1-3.3-1.9-3.6-.4-.1-1.2-.4-2.2.5"/>
    <use xlink:href="#a"/>
    <g fill="#d3976e">
        <path d="M44.1 62h7.1c0-1.4-1.1-2.6-2.6-2.6h-5.5c-.1 1-.1 1.6-.1 1.6 0 .5.5 1 1.1 1M33.9 59.4h-5.5c-.3 1-.4 1.6-.4 1.6 0 .6.5 1.1 1.1 1.1h7.1c0-1.5-1-2.6-2.3-2.7"/>
    </g>
    <path fill="#3e4347" d="M34 43.7l-5.5 15.6H34s2.7-6.3 4.6-10.1c.2-.4.5-.7 1-.7s.8.5 1 1c1.9 5.8 2.6 9.8 2.6 9.8h5.5l-3.5-15.6H34"/>
    <path fill="#8a6859" d="M35.4 24l-3.1-.7 2.7 9.1 5.9-1.8z"/>
    <path fill="#705041" d="M40.6 27c-1.4 1.6.3 3.7.3 3.7-2.4.7-5.5-3.5-6.4-6.4l6.1 2.7"/>
    <path fill="#8a6859" d="M29.9 12.6l11.6.4c2.1 2 1.6 3.6 1.9 4.6.2.5 1.4 1 2 1.3 1.4.7-.2 2-.9 2.1-.1 1.2 1.4 1.4-1.9 1.7 0 0 3.6.4 1.5 1.7.6 1.2 1.6 3.5-5.7 3-2.2-.1-3.9-3.3-3.9-3.3l-3.5.6-1.1-12.1"/>
    <path fill="#231f20" d="M37.1 9.5c-7.6-.2-10.3 4.6-10.4 6.3-.5 4.8 2.5 9 6.8 11.6 0 0 1.3-1.1 1-3.1 0 0-1.5 1.3-3.3-2.1-1.6-2.9 1.2-5.5 4.1-1.8l.4-.1c.3-2.4-2.2-4.5 0-6.1 1.9-1.4 6.3-.7 6.3-.7.3-1.5-1.8-4-4.9-4"/>
    <path fill="#594640" d="M40.9 18.5c.2.7.7 1.1 1.2.9.5-.1.4-.7.2-1.4s-.5-1.2-1-1c-.4.2-.6.9-.4 1.5"/>
    <path fill="#705041" d="M34.5 21.4c-.4-1.3-1.8-2.1-2.9-1.7 0 0 2.3 1 2.5 3.2 0-.1.7-.6.4-1.5"/>
    <path fill="#594640" d="M41.5 22.9s1.6.6 2.1.6c1.1.2 1.1-.2.5-.4-.5-.2-1.4-.3-1.4-.3l-1.2.1"/>
    <g fill="#47b892">
        <path d="M43 30.7h-8.3c-1.2 0-1.3 1.7-1.2 3.3l.6 9.9h11.2L43 30.7"/>
        <path d="M38.5 32.8c-.2-1 .6-2 1.6-2.2l9.3-3.1 1.3 3.7-10 3.2c-1.1.2-2.1-.6-2.2-1.6"/>
        <path d="M49.5 31.3a2 2 0 0 1-1.4-2.3l2.9-9.2 3.8 1-2.9 9.2c-.3.9-1.4 1.6-2.4 1.3"/>
    </g>
    <path fill="#8a6859" d="M52.9 20.7l-1.9-.3c-.7-.1-1.1-.7-1-1.4l.1-.9c.1-.5.4-.8.9-1 .3-1.2 1-2.7 3.2-2.3.4.1 2.4.4 2 2.8-.5 3.6-.5 3.6-3.3 3.1"/>
</svg>