<svg xmlns="http://www.w3.org/2000/svg" viewBox="0 0 64 64">
    <title>person swimming: medium-dark skin tone</title>
    <path fill="#b47d56" d="M40.3 12.3c6.1 7.6 7.7 11.6 7.2 18.3 7.6 0 9.4 6.2 14.4 6.2v9.8H32.4s1.1-1.7-.1-4.1l1.1-8.4s1.9 2.6 5 .9c0 0-3.5-2.7-1.4-6.9-1.2-2.6-1.3-3.7-.9-7.6-6.6-2.7-12.7-2.2-19.3-1.8C14.7 22 8.6 23.5 6 23c-1.5-.3 4-1.6 3-2.1 0 0-2.8.9-6.8.3-.5-.1 1-3.8 2.2-4.7 1.1-.8 4-2.4 6.7-2.3 1.7.1 3.4 1 4.8 1 1.7.1 3.9-.8 6.1-1.3 5.7-1.5 10.8-2.4 18.3-1.6"/>
    <g fill="#935e3e">
        <path d="M37 28.1s2.9 4.3 8.9 3.2c-5.3-.9-8.9-3.2-8.9-3.2M39.9 23.4s-2.1-5.2-8.1-4.2c4.7 1 8.1 4.2 8.1 4.2M52.3 42.5s1.9-9.2-5.2-11c5.7 2.5 5.2 11 5.2 11M32.9 34.5l-.9 7.9c3.9.6 7.3-.1 7.3-.1-2.5-6.4-6.4-7.8-6.4-7.8"/>
        <ellipse cx="49.3" cy="39" rx="1.2" ry=".9" transform="rotate(-83.662 49.265 38.99)"/>
    </g>
    <path fill="#b47d56" d="M8.4 36.7c-.8 6.5 4.7 12.5 12.2 13.4 3.3.4 7-1.1 9.6-2.6 3.2-1.8 5.3-6.4 5.4-7.6.1-1.2-.8-6.1-3.5-8.6-2.2-2-5.4-4.3-8.7-4.7-7.5-.9-14.2 3.6-15 10.1"/>
    <path fill="#f15744" d="M20.7 38.2c1.1-9.4 6.1-10.6 6.1-10.6s-1.1-.8-3.5-1.1c-7.5-.9-14.2 3.6-15 10.1C7.5 43.1 13 49.1 20.5 50c2.4.3 3.6-.2 3.6-.2 0 .1-4.5-2.2-3.4-11.6"/>
    <path fill="#231f20" d="M25.1 40c-1.4-.5-3.1.9-3.8 3-.7 2.1-.1 4.2 1.3 4.7 1.4.5 3.1-.9 3.8-3 .7-2.2.2-4.3-1.3-4.7"/>
    <path fill="#44618b" d="M24.9 41.1c-1-.3-2.2.6-2.7 2.1s-.1 2.9.9 3.3c1 .3 2.2-.6 2.7-2.1s.1-3-.9-3.3"/>
    <path fill="#231f20" d="M24.7 37.9c-1.5-.1-2.5-2-2.4-4.2.2-2.2 1.5-3.9 3-3.8 1.5.1 2.5 2 2.4 4.2-.2 2.2-1.5 3.9-3 3.8"/>
    <path fill="#44618b" d="M24.8 36.7c-1.1-.1-1.8-1.4-1.7-3 .1-1.6 1.1-2.8 2.1-2.7 1.1.1 1.8 1.4 1.7 3-.1 1.6-1.1 2.8-2.1 2.7"/>
    <g fill="#428bc1">
        <path d="M24.2 37.2l-.2 3.2h1.2l.3-3.1zM26 30.5l1.4-2.5-1.1-.6-1.7 2.6z"/>
    </g>
    <path fill="#935e3e" d="M27.3 40.1c.6.1 1.2-.4 1.3-1 .1-.6-.4-1.2-1-1.3l-.3 2.3"/>
    <path fill="#574137" d="M32.6 36.9c1 .1.6 1.3.4 2.7s0 2.7-1 2.6c-1-.1-1.7-1.4-1.5-2.9.1-1.4 1.1-2.5 2.1-2.4"/>
    <g fill="#44618b">
        <path d="M24.073 40.682l.056-.598.995.092-.055.598zM24.346 37.53l.04-.599.998.067-.04.599zM24.685 30.17l.254-.544 1.087.508-.254.544z"/>
    </g>
    <path fill="#75d6ff" d="M2 42h60v20H2z"/>
    <g fill="#42ade2">
        <path d="M23.8 55.8c-1.5.2-3.3.1-4.7-.4-1.9-.6-3.6-1.7-5.6-2-2.7-.5-5.6 0-8.1 1 3.3-.2 6.4-.5 9.6.7 2.7 1 5.8 2.1 8.8.7M35.4 48.1c-1.4.2-3.4.2-4.7-.4-1.9-.6-3.6-1.7-5.6-2-2.7-.5-5.6-.1-8.1 1 3.3-.2 6.4-.5 9.6.7 2.7 1 5.9 2.1 8.8.7M47 55.8c-1.4.2-3.4.2-4.7-.4-1.9-.6-3.6-1.7-5.6-2-2.7-.5-5.6 0-8.1 1 3.3-.2 6.4-.5 9.6.7 2.7 1 5.9 2.1 8.8.7M58.7 48.1c-1.4.2-3.4.2-4.7-.4-1.9-.6-3.6-1.7-5.6-2-2.7-.5-5.6-.1-8.1 1 3.3-.2 6.4-.5 9.6.7 2.7 1 5.9 2.1 8.8.7"/>
    </g>
</svg>