<svg xmlns="http://www.w3.org/2000/svg" viewBox="0 0 64 64">
    <title>snowboarder</title>
    <path fill="#badede" d="M18.9 38.8L35.8 62H2z"/>
    <path fill="#d6eef0" d="M18.9 38.8l4.8 6.6-4.8 6.6-4.8-6.6z"/>
    <path fill="#badede" d="M35.4 45.1L47.7 62H23.1z"/>
    <path fill="#d6eef0" d="M35.4 45.1l3.5 4.8-3.5 4.8-3.5-4.8z"/>
    <path fill="#44618b" d="M33.2 15.1l18.3-4 1 5.3L33.7 19z"/>
    <path fill="#86d0bf" d="M52.3 9.2l2.1-.4c.5-.1 1 .2 1 .7v.2c1.7-.1 3.8.3 4.2 3.3.1.5.4 3.4-2.9 3.8-4.9.7-4.9.7-5.4-3.2l-.3-2.5c-.2-.9.4-1.7 1.3-1.9"/>
    <path fill="#44618b" d="M54.8 9.9c-.2.2-.3.4-.5.5-.2.1-.5.2-.7.2-.4.1-.8.1-1.3.2-.3.1-.2.6.1.5.4-.1.9-.1 1.3-.2.3 0 .6-.1.9-.2.3-.2.5-.4.7-.7.2-.2-.3-.5-.5-.3"/>
    <path fill="#b6ef00" d="M62 56.4c0 7.1-9.3 7.1-9.3 0V19.3c0-7.1 9.3-7.1 9.3 0v37.1"/>
    <path fill="#3e4347" d="M55.9 36.6v-6.3h-8.1l-2.1-2.8L37.6 40l2.4 3.3c1.6 2.1 3.1 3 4.8 3H55V40h-8.1l-2.1-2.8-.7-.9c.5.2 1 .3 1.5.3h10.3"/>
    <g fill="#86d0bf">
        <path d="M55 46.4c0 1.9 1.6 3.5 3.7 3.5v-9.8L55 40v6.4"/>
        <path d="M55 36.6c0 1.9 1.6 3.5 3.7 3.5v-9.8H55v6.3"/>
    </g>
    <g fill="#44618b">
        <path d="M25.1 33.3l-11.7-4.6-2.2 4.9 11.7 4.6z"/>
        <path d="M27.5 20l-6.6 11.8 2 6.4L32.3 22z"/>
    </g>
    <path fill="#86d0bf" d="M13.1 26.7l-2-.9c-.5-.2-1 0-1.2.5v.2c-1.6-.5-3.8-.7-4.9 2.2-.1.4-1.1 3 2 4.3 4.6 1.9 4.6 1.9 6-1.8l.9-2.4c.4-.8 0-1.7-.8-2.1"/>
    <g fill="#44618b">
        <path d="M10.5 26.7c.1.3.2.5.4.6.2.2.4.3.7.4.4.2.8.3 1.2.5.3.1.1.6-.2.5-.4-.2-.8-.3-1.2-.5-.3-.1-.5-.3-.8-.5-.3-.2-.4-.5-.5-.8-.2-.3.2-.5.4-.2M47.7 27.3l-9.4 13.9-13.9-11.7c-.9-.9-1.1-2.1-.2-3.1L34 16.3c.9-.9 2.4-.9 3.3 0l10.4 11"/>
    </g>
    <path fill="#86d0bf" d="M45.1 31.2l-16.9 1.5-7.8-6.5 22.9-3.6 4.4 4.7z"/>
    <path fill="#44618b" d="M32.9 24.1l-1.1 1.2 9.1 9.2 1.5-1.8z"/>
    <g fill="#86d0bf">
        <path d="M52 30.2h3.8v6.7H52zM52 40h3.8v6.7H52z"/>
    </g>
    <g fill="#44618b">
        <ellipse cx="54.8" cy="32.1" rx=".9" ry=".9"/>
        <ellipse cx="54.8" cy="41.9" rx=".9" ry=".9"/>
        <path d="M58.1 30.2h.6v19.6h-.6zM55.1 37.5l-.7-.4s-.3-1.1.3-2l.9.2c-.7 1.1-.5 2.2-.5 2.2"/>
        <path d="M55.8 38.7l-.8-.8s-.2-1 .5-2l.9.2c-.7 1.2-.6 2.6-.6 2.6M55.1 47.3l-.7-.3s-.3-1.1.3-2l.9.2c-.7 1.1-.5 2.1-.5 2.1"/>
        <path d="M55.8 48.6l-.8-.8s-.2-1 .5-2l.9.2c-.7 1.2-.6 2.6-.6 2.6"/>
    </g>
    <path fill="#ffdd67" d="M33.2 9.4c-6.9-6.4-7 .2-11.3 4.6-4.3 4.4-10.9 4.3-4.7 11.4 0 0 2.7 2.8 4 1.7 4.4 3.4 7.7 1.7 11.4-2.1s5.4-7.2 2-11.6c1.2-1.4-1.4-4-1.4-4"/>
    <path fill="#594640" d="M26.7 24.1c.9 1 2.9.6 4.3-.9s1.8-3.4.9-4.4c0 0-1.3 1.5-2.5 2.7-1.2 1.3-2.7 2.6-2.7 2.6"/>
    <path fill="#86d0bf" d="M17.6 3.3c1.7 1.8 1.7 4.7 0 6.5-1.7 1.8-4.5 1.8-6.3 0-1.7-1.8-1.7-4.7 0-6.5 1.7-1.7 4.5-1.7 6.3 0"/>
    <path fill="#44618b" d="M29.7 4.8c3.7 3.8-3.2 4.4-7.9 9.2-4.7 4.8-5.2 11.9-9 8.1-3.7-3.8-3-10.8 1.7-15.6C19.2 1.7 26 1 29.7 4.8"/>
    <path fill="#86d0bf" d="M32.3 8.5c-6 4.5-11.4 9.9-15.9 16-.9 1.2-4.7-1.1-3.7-2.4 4.9-6.5 10.7-12.4 17.2-17.3 1.3-1 3.6 2.8 2.4 3.7"/>
    <path fill="#79c600" d="M29.2 8.8c-1.9 0-4.1 1.6-7.5 5s-5 5.6-5 7.5c0 2.4 3 5 5.2 5 1.7 0 6.2-4.5 4.5-6.1-.8-.8-1.7-1.5-.8-2.4s1.6-.1 2.4.8c1.6 1.6 6.1-2.9 6.1-4.5.1-2.3-2.5-5.3-4.9-5.3"/>
    <g fill="#3e4347">
        <path d="M15.892 24.19l.99-.99 2.474 2.476-.99.99zM31.194 9.214l.99-.99 2.475 2.474-.99.99z"/>
    </g>
    <g fill="#b6ef00">
        <path d="M21.7 13.8l-1.3 1.3V26c.5.2 1 .3 1.5.3.2 0 .4 0 .6-.1V13.1c-.3.2-.6.5-.8.7M29.2 8.8c-.5 0-1 .1-1.6.3v9l.4.4c.4.4 1 .4 1.7.2V8.8h-.5"/>
    </g>
    <path fill="#3e4347" d="M32.6 17.3c-1.5 1.5-3.7 2.8-4.9 1.6l-.3-.3c-.4-.4-.8-.8-1-.8-.1 0-.3.1-.5.3-.2.2-.3.4-.3.5 0 .3.4.7.8 1l.3.3c1.2 1.2-.1 3.4-1.6 4.9-.9.9-2.3 1.9-3.2 1.9-1.2 0-2.6-.6-3.8-1.7-1.2-1.1-1.9-2.5-1.9-3.7 0-1.9 1.4-4.1 5.2-7.8 3.8-3.8 5.9-5.2 7.8-5.2 1.2 0 2.6.7 3.7 1.9s1.7 2.6 1.7 3.8c0 1-1 2.3-2 3.3m-7.3.2c.4-.4.7-.5 1.1-.5.6 0 1.1.5 1.7 1 .1.1.2.2.2.3.7.7 2.4-.3 3.7-1.6 1.1-1.1 1.7-2.2 1.7-2.6 0-1-.6-2.2-1.5-3.2s-2.1-1.6-3.1-1.6c-1.7 0-3.7 1.4-7.2 4.9S17 19.7 17 21.4c0 1 .6 2.1 1.6 3.1 1 .9 2.2 1.5 3.2 1.5.5 0 1.5-.6 2.6-1.7 1.3-1.3 2.3-3 1.6-3.7-.1-.1-.2-.2-.3-.2-.5-.5-1-1-1-1.7.1-.5.3-.9.6-1.2"/>
</svg>