<svg xmlns="http://www.w3.org/2000/svg" viewBox="0 0 64 64">
    <title>chequered flag</title>
    <path fill="#333" d="M18.7 13c-3.7.5-7.1 1.8-10 4.6l-3-8.1c2.9-2.8 6.3-4.1 10-4.6l3 8.1"/>
    <path fill="#fff" d="M30.3 12.9c-4-.2-8-.4-11.7.1l-3-8.1c3.7-.5 7.7-.3 11.7-.1l3 8.1"/>
    <path fill="#333" d="M42 12.8c-3.7.5-7.7.3-11.7.1l-3-8.1c4 .2 8 .4 11.7-.1 1 2.6 2 5.3 3 8.1"/>
    <g fill="#fff">
        <path d="M52 8.1c-2.9 2.8-6.3 4.1-10 4.6l-3-8.1c3.7-.5 7.1-1.8 10-4.6l3 8.1M21.7 21.1c-3.7.5-7.1 1.8-10 4.6l-3-8.1c2.9-2.8 6.3-4.1 10-4.6l3 8.1"/>
    </g>
    <path fill="#333" d="M33.3 21c-4-.2-8-.4-11.7.1l-3-8.1c3.7-.5 7.7-.3 11.7-.1l3 8.1"/>
    <path fill="#fff" d="M45 20.9c-3.7.5-7.7.3-11.7.1l-3-8.1c4 .2 8 .4 11.7-.1l3 8.1"/>
    <g fill="#333">
        <path d="M55 16.3c-2.9 2.8-6.3 4.1-10 4.6l-3-8.1c3.7-.5 7.1-1.8 10-4.6 1 2.6 2 5.3 3 8.1M24.7 29.3c-3.7.5-7.1 1.8-10 4.6l-3-8.1c2.9-2.8 6.3-4.1 10-4.6l3 8.1"/>
    </g>
    <path fill="#fff" d="M36.4 29.1c-4-.2-8-.4-11.7.1l-3-8.1c3.7-.5 7.7-.3 11.7-.1.9 2.7 2 5.4 3 8.1"/>
    <path fill="#333" d="M48 29c-3.7.5-7.7.3-11.6.1l-3-8.1c4 .2 8 .4 11.7-.1.9 2.7 1.9 5.4 2.9 8.1"/>
    <g fill="#fff">
        <path d="M58 24.4c-2.9 2.8-6.3 4.1-10 4.6l-3-8.1c3.7-.5 7.1-1.8 10-4.6l3 8.1M27.7 37.4c-3.7.5-7.1 1.8-10 4.6l-3-8.1c2.9-2.8 6.3-4.1 10-4.6l3 8.1"/>
    </g>
    <path fill="#333" d="M39.4 37.3c-4-.2-8-.4-11.7.1l-3-8.1c3.7-.5 7.7-.3 11.7-.1l3 8.1"/>
    <path fill="#fff" d="M51 37.1c-3.7.5-7.7.3-11.7.1l-3-8.1c4 .2 8 .4 11.6-.1 1.1 2.7 2.1 5.4 3.1 8.1"/>
    <g fill="#333">
        <path d="M61 32.5c-2.9 2.8-6.3 4.1-10 4.6L48 29c3.7-.5 7.1-1.8 10-4.6l3 8.1M25.9 64H24L3 7.3l1.7-.6z"/>
    </g>
    <!--g fill="#3e4347">
        <circle cx="5.168" cy="13.336" r="2.168"/>
        <path d="M7.04 14.49l-2.56.929L22.186 64h2.896z"/>
        <path d="M3.688 15.602l4.076-1.48.37 1.017-4.077 1.48z"/>
    </g-->
</svg>