<svg xmlns="http://www.w3.org/2000/svg" viewBox="0 0 64 64">
    <title>person lifting weights: light skin tone</title>
    <path fill="#594640" d="M22.6 19.9l1 1.8h16.9l.7-1.9c0-6.8-1.6-9.7-9.1-9.8-7.6-.1-9.5 3-9.5 9.9"/>
    <path fill="#ffe1bd" d="M40.5 19.8c-.1.4-.1.8-.3 1-.2.4-.6.6-.6.6s.1-.8.1-1.8c-.4-6.3-.8-3.3-7.7-3.3s-7.3-3-7.7 3.3c0 1.1.1 1.8.1 1.8s-.4-.2-.6-.6c-.1-.2-.2-.6-.3-1-.7-.2-1.5 0-1.5 1.9 0 1.2.4 2.1 1.9 2.2.5 3.9 5.8 6.5 8.1 6.5 2.4 0 7.6-2.6 8.1-6.5 1.5-.1 1.9-1.1 1.9-2.2 0-1.9-.8-2.1-1.5-1.9"/>
    <g fill="#664e27">
        <circle cx="28.4" cy="21.8" r="1.5"/>
        <circle cx="35.5" cy="21.8" r="1.5"/>
        <path d="M34.3 26.3c-1.5 1.2-3.2 1.2-4.6 0-.2-.1-.3.1-.2.3.5.8 1.4 1.6 2.5 1.6 1.2 0 2.1-.7 2.5-1.6.2-.2 0-.5-.2-.3"/>
    </g>
    <g fill="#ffe1bd">
        <path d="M30.4 29.9v.9c0 .5-.4.9-.8 1.1h-4.8v11s2.5 1.4 7.3 1.4 7.3-1.4 7.3-1.4v-11h-4.9c-.5-.1-.8-.6-.8-1.1v-.9h-3.3M49.2 9.4c-1.7-.5-2.3.6-2.7 1.5-.3.1-.6.3-.7.7l-.2.7c-.1.5.1 1 .6 1.2h.1l-2.7 10.9 2.9.6 2.7-10.9c.6-.1.8-.7 1.3-2.4.5-1.8-1-2.2-1.3-2.3M17.7 13.4c.5-.1.8-.7.6-1.2l-.2-.7c-.1-.4-.4-.6-.7-.7-.3-.9-1-2-2.7-1.5-.3.1-1.8.5-1.3 2.3.5 1.7.7 2.3 1.3 2.4l2.8 11 2.9-.6-2.7-11"/>
    </g>
    <path fill="#94989b" d="M5.5 15.4v-1.8S14.3 9.1 32 9.1s26.5 4.5 26.5 4.5v1.8s-8.8-4.5-26.5-4.5-26.5 4.5-26.5 4.5"/>
    <path fill="#ffe1bd" d="M46.9 11.4c.1-.3-.1-.5-.3-.6-.3-.1-.5.1-.6.4l-.3 1.2.9.2.3-1.2"/>
    <path fill="#e6b796" d="M46.6 11.1c.1.1.1.2.1.4 0 .1 0 .3-.1.4-.1.2-.1.5-.2.7 0 .2.2.2.3.1.1-.2.1-.5.2-.7 0-.2.1-.3.1-.5s-.1-.4-.2-.5c-.1-.1-.3 0-.2.1"/>
    <path fill="#ffe1bd" d="M17.1 11.4c-.1-.3.1-.5.3-.6.3-.1.5.1.6.4l.3 1.2-.9.2-.3-1.2"/>
    <path fill="#e6b796" d="M17.4 11.1c-.1.1-.1.2-.1.4 0 .1 0 .3.1.4.1.2.1.5.2.7 0 .2-.2.2-.3.1-.1-.2-.1-.5-.2-.7 0-.2-.1-.3-.1-.5s.1-.4.2-.5c.1-.1.3 0 .2.1"/>
    <path fill="#428bc1" d="M24.7 42.4V44v-1.6"/>
    <g fill="#3e4347">
        <path d="M56.9 22l-3.7-1.4 5.1-14.2L62 7.8z"/>
        <path d="M52.8 23.6l-5.2-1.9L54.7 2l5.2 1.9zM7.1 22l3.7-1.4L5.7 6.4 2 7.8z"/>
        <path d="M11.2 23.6l5.2-1.9L9.3 2 4.1 3.9z"/>
    </g>
    <path fill="#47b892" d="M46.5 25l-2.8-1.2-5.6 8h-2.9c-.4 1.5-1.7 2.6-3.2 2.6s-2.9-1.1-3.2-2.6h-2.9l-5.6-8-2.8 1.2 7.3 10.3v8.6s2.5 1.4 7.3 1.4 7.3-1.4 7.3-1.4v-8.6L46.5 25"/>
    <g fill="#d3976e">
        <path d="M20.2 59.3c-1.4 0-2.5 1.2-2.5 2.7h7v-2.7h-4.5M43.8 59.3c1.4 0 2.5 1.2 2.5 2.7h-7v-2.7h4.5"/>
    </g>
    <path fill="#f2b200" d="M24.7 41.9v1.7-1.7"/>
    <path fill="#3e4347" d="M41.7 48.3l-2.4-1.8v-2.9s-2.5 1.5-7.3 1.5-7.3-1.5-7.3-1.5v2.9l-2.4 1.8c-1.5 1.2-2.1 2.2-2.1 3.5v7.5h4.5v-5.9l3.8-3c.5-.4 1.1-.7 1.8-.7h3.4c.9 0 1.9.8 1.9.8l3.7 2.9v5.9h4.5v-7.5c0-1.3-.6-2.4-2.1-3.5"/>
</svg>