<svg xmlns="http://www.w3.org/2000/svg" viewBox="0 0 64 64">
    <title>cityscape</title>
    <path fill="#fbbf67" d="M49 30H36c-1.8 0-3 .9-3 2.7V64h20V34c0-2.2-1.8-4-4-4"/>
    <g fill="#d3976e">
        <path d="M36.2 35h-.4c-.4 0-.8.4-.8 1v28h2V36c0-.6-.4-1-.8-1M41.2 35h-.4c-.4 0-.8.4-.8 1v28h2V36c0-.6-.4-1-.8-1"/>
    </g>
    <path fill="#6adbc6" d="M13 34H4c-2.2 0-4 1.8-4 4v26h13V34z"/>
    <g fill="#fff">
        <path d="M9.5 42c0 .5-.4 1-1 1h-3c-.6 0-1-.5-1-1v-2c0-.6.4-1 1-1h3c.6 0 1 .4 1 1v2M9.5 50c0 .5-.4 1-1 1h-3c-.6 0-1-.5-1-1v-2c0-.6.4-1 1-1h3c.6 0 1 .4 1 1v2M9.5 58c0 .5-.4 1-1 1h-3c-.6 0-1-.5-1-1v-2c0-.6.4-1 1-1h3c.6 0 1 .4 1 1v2"/>
    </g>
    <g fill="#d6eef0">
        <path d="M15 11c-2 0-3.8 1-4.9 2.5-.6-.3-1.3-.5-2.1-.5-2.4 0-4.4 1.7-4.9 4H3c-1.7 0-3 1.3-3 3s1.3 3 3 3h12c3.3 0 6-2.7 6-6s-2.7-6-6-6M36 10c.4 0 .7.1 1.1.2C37.5 7.8 39.5 6 42 6c2 0 3.7 1.2 4.5 2.9.7-.6 1.6-.9 2.5-.9 2.2 0 4 1.8 4 4s-1.8 4-4 4H36c-1.7 0-3-1.3-3-3s1.3-3 3-3"/>
    </g>
    <path fill="#d3976e" d="M31.6 17.9l-7.2-7.3c-.8-.8-2.1-.8-2.8 0l-7.2 7.3c-.8.8-1.4 2.3-1.4 3.5V64h20V21.3c0-1.1-.6-2.7-1.4-3.4"/>
    <g fill="#ffdd7d">
        <path d="M30 34c0 .5-.5 1-1 1H17c-.5 0-1-.5-1-1v-2c0-.6.5-1 1-1h12c.5 0 1 .4 1 1v2M30 42c0 .5-.5 1-1 1H17c-.5 0-1-.5-1-1v-2c0-.6.5-1 1-1h12c.5 0 1 .4 1 1v2M30 50c0 .5-.5 1-1 1H17c-.5 0-1-.5-1-1v-2c0-.6.5-1 1-1h12c.5 0 1 .4 1 1v2M30 58c0 .5-.5 1-1 1H17c-.5 0-1-.5-1-1v-2c0-.6.5-1 1-1h12c.5 0 1 .4 1 1v2M30 26c0 .5-.5 1-1 1H17c-.5 0-1-.5-1-1v-2c0-.6.5-1 1-1h12c.5 0 1 .4 1 1v2"/>
    </g>
    <path fill="#6adbc6" d="M60 19v-5c0-1.1-.9-2-2-2h-3V1c0-.6-.4-1-1-1s-1 .4-1 1v11h-3c-1.1 0-2 .9-2 2v5c-2.2 0-4 1.8-4 4v41h20V23c0-2.2-1.8-4-4-4"/>
    <g fill="#fff">
        <path d="M52.5 25c0 .5-.5 1-1 1h-3c-.5 0-1-.5-1-1v-2c0-.6.5-1 1-1h3c.5 0 1 .4 1 1v2M60.5 25c0 .5-.5 1-1 1h-3c-.5 0-1-.5-1-1v-2c0-.6.5-1 1-1h3c.5 0 1 .4 1 1v2M52.5 32c0 .5-.5 1-1 1h-3c-.5 0-1-.5-1-1v-2c0-.6.5-1 1-1h3c.5 0 1 .4 1 1v2M60.5 32c0 .5-.5 1-1 1h-3c-.5 0-1-.5-1-1v-2c0-.6.5-1 1-1h3c.5 0 1 .4 1 1v2M52.5 39c0 .5-.5 1-1 1h-3c-.5 0-1-.5-1-1v-2c0-.6.5-1 1-1h3c.5 0 1 .4 1 1v2M60.5 39c0 .5-.5 1-1 1h-3c-.5 0-1-.5-1-1v-2c0-.6.5-1 1-1h3c.5 0 1 .4 1 1v2M52.5 46c0 .5-.5 1-1 1h-3c-.5 0-1-.5-1-1v-2c0-.6.5-1 1-1h3c.5 0 1 .4 1 1v2M60.5 46c0 .5-.5 1-1 1h-3c-.5 0-1-.5-1-1v-2c0-.6.5-1 1-1h3c.5 0 1 .4 1 1v2M52.5 53c0 .5-.5 1-1 1h-3c-.5 0-1-.5-1-1v-2c0-.6.5-1 1-1h3c.5 0 1 .4 1 1v2M60.5 53c0 .5-.5 1-1 1h-3c-.5 0-1-.5-1-1v-2c0-.6.5-1 1-1h3c.5 0 1 .4 1 1v2M52.5 60c0 .5-.5 1-1 1h-3c-.5 0-1-.5-1-1v-2c0-.6.5-1 1-1h3c.5 0 1 .4 1 1v2M60.5 60c0 .5-.5 1-1 1h-3c-.5 0-1-.5-1-1v-2c0-.6.5-1 1-1h3c.5 0 1 .4 1 1v2"/>
    </g>
</svg>