<svg xmlns="http://www.w3.org/2000/svg" viewBox="0 0 64 64">
    <title>desert</title>
    <path fill="#b4d7ee" d="M0 0h64v64H0z"/>
    <path fill="#f9f3d9" d="M64 27s-11.9-3-16-3-10.8 3-16 3c-4.3 0-11.7-4-16-4-4.8 0-16 1-16 1v25h64V27"/>
    <path fill="#ffdd7d" d="M0 34.7S16 29 32 29c8 0 32 7.5 32 7.5V64H0V34.7z"/>
    <path fill="#dbb471" d="M0 47.8S6.9 45 11 45s16.9 6.9 21 6.6c4.3-.3 19.7-3.7 24-3.8 4.2-.1 8 .9 8 .9V64H0V47.8"/>
    <g fill="#699635">
        <path d="M21.2 35.5c0 1.1.9 1.9 1.9 1.9 1.1 0 1.9-.9 1.9-1.9v-7.7c0-1.1-.9-1.9-1.9-1.9-1.1 0-1.9.9-1.9 1.9v7.7"/>
        <path d="M15.5 33.6c-1.1 0-1.9.9-1.9 1.9 0 1.1.9 1.9 1.9 1.9h7.7c1.1 0 1.9-.9 1.9-1.9 0-1.1-.9-1.9-1.9-1.9h-7.7"/>
    </g>
    <path fill="#83bf4f" d="M15.8 17c-1.6 0-2.9 1.3-2.9 2.9v32.2c0 2.9 1.3 2.9 2.9 2.9s2.9 0 2.9-2.9V19.9c0-1.6-1.3-2.9-2.9-2.9"/>
    <g fill="#699635">
        <path d="M10.1 42c0 .8-.6 1.4-1.4 1.4-.8 0-1.4-.6-1.4-1.4v-5.8c0-.8.6-1.4 1.4-1.4.8 0 1.4.6 1.4 1.4V42"/>
        <path d="M14.4 40.6c.8 0 1.4.6 1.4 1.4 0 .8-.6 1.4-1.4 1.4H8.7c-.8 0-1.4-.6-1.4-1.4 0-.8.6-1.4 1.4-1.4h5.7"/>
    </g>
    <path fill="#f9f3d9" d="M3 52.5c0 1.1 1.3 1 3 1s3 .1 3-1-1.3-2-3-2-3 .9-3 2"/>
    <path fill="#ffdd7d" d="M16.3 60.1c0 1.1 1.3 1 3 1s3 .1 3-1-1.3-2-3-2-3 .9-3 2"/>
    <g fill="#89664c">
        <path d="M26 56.5c0 1.1 1.3 1 3 1s3 .1 3-1-1.3-2-3-2-3 .9-3 2M57.3 52.3c-2.7.8-5.4.3-8.2.5-.2-.6-.4-1.2-.7-1.8-.3-.7-1.4-.4-1.1.3.2.5.4 1.1.6 1.6-.4.1-.9.1-1.3.3-1.4.4-2.9.8-4.3 1.3 1.3-1.3 2.7-2.5 4.3-3.5.9-.5 2-.8 3.2-.9h.1c.6-.1 1.3-.1 1.9-.1l1.5 2.1c.4.6 1.5 0 1-.6-.3-.5-.7-.9-1-1.4 1 0 1.9.1 2.7.1.8 0 .8-1.2 0-1.2-1.5 0-3.3-.2-5-.1.3-.5.7-1 1-1.4.4-.6-.6-1.3-1-.6-.5.7-1 1.4-1.5 2.2-1.1.1-2.2.4-3.1.8-1.8.9-3.4 2.3-4.9 3.8 1-2 2.2-3.9 3.9-5 3.3-2 6.7-3.1 10.4-2.4.7.1 1.1-1.1.3-1.2-3.7-.7-6.5.3-9.8 1.8.2-.4.5-.9.7-1.3.4-.7-.6-1.3-1-.6-.5 1-1.1 2-1.6 3-1.7 1.2-2.8 3.1-3.8 5 .3-2.1.7-4.2 1.9-5.6 1.6-2 3.4-3.2 5.4-3.9.7.5 1.5 1 2.2 1.5.6.4 1.2-.6.6-1.1-.4-.3-.9-.6-1.3-.9 1.1-.3 2.3-.4 3.6-.4.8 0 .8-1.2 0-1.2-1.6 0-3.4 0-4.9.5-2.3.7-4.2 2.5-5.9 4.2-2.4 2.4-2.7 6.4-3 9.8-.3.1-.5.2-.8.3-.7.2-.4 1.4.3 1.2.4-.1.8-.3 1.2-.4 2.7 2.2 4.6 2.7 8.1 2.4 3.6-.3 5.7-.9 8.4-3.4.6-.5-.3-1.4-.8-.9-1 1-2 1.6-3 2.1-.4-.6-.8-1.2-1.1-1.9-.4-.7-1.4 0-1 .6.3.5.7 1.1 1 1.7-1 .3-2.1.4-3.4.6-.6 0-1.2.1-1.9.1.4-.7.7-1.3 1.1-2 .4-.7-.6-1.3-1-.6-.5.9-.9 1.7-1.4 2.6-.6-.1-1.1-.2-1.6-.5-.7-.4-1.3-.8-1.9-1.3 1.9-.6 3.7-1.2 5.6-1.7 3.5-1 7.1.2 10.7-.8.6-.7.3-1.9-.4-1.7"/>
    </g>
    <path fill="#ffce31" d="M46 11c0 3.3 2.7 6 6 6s6-2.7 6-6-2.7-6-6-6-6 2.7-6 6"/>
    <g fill="#fff">
        <path d="M47.8 2.9c-2.5 1.4-4.2 3.6-4.5 6.6-.1.4.6.6.6.2.4-2.9 1.9-4.9 4.2-6.2.4-.2.1-.8-.3-.6M59.9 13.2c-.9 3.2-2.6 5.5-5.6 6.5-.4.1-.2.8.2.7 3.2-1 5.2-3.6 6.1-7 0-.4-.6-.6-.7-.2M44.2 13c.5 2.9 1.7 4.9 4.1 6.4.4.2.7-.4.3-.6-2.2-1.5-3.3-3.3-3.8-6-.1-.4-.7-.2-.6.2M58.6 6.1c-1-1.7-3-3.8-5.1-3.6-.4 0-.4.7 0 .7C55.3 3 57.1 5 58 6.5c.3.4.8 0 .6-.4"/>
    </g>
    <g fill="#d6eef0">
        <path d="M50.8 21.3c-2.4 0-4.5-.8-6.3-2.5-.3-.3-.8.2-.5.5 2 1.8 4.1 2.7 6.7 2.7.5 0 .5-.7.1-.7M60.4 16.7c-.6 1.5-1.7 3.5-3.2 4.2-.4.2-.2.8.2.7 1.7-.7 2.9-2.8 3.6-4.5.1-.4-.4-.8-.6-.4M43.2 4c-2.3 2.3-1.9 7-.7 9.8.2.4.7.1.6-.3-1.1-2.5-1.5-6.9.6-8.9.2-.4-.2-.9-.5-.6M58.2 2.6c1.8 1.8 2.6 3.9 2.7 6.5 0 .4.6.4.6 0 0-2.8-.9-5.1-2.9-7-.3-.3-.7.2-.4.5"/>
    </g>
</svg>