<svg xmlns="http://www.w3.org/2000/svg" viewBox="0 0 64 64">
    <title>houses</title>
    <path fill="#83bf4f" d="M36.4 54.7c0-1.2-.9-2.1-2.1-2.1-.2 0-.5 0-.7.1-.3-.5-.8-.9-1.4-.9-.4 0-.7.1-1 .3v-.3c0-.9-.7-1.6-1.6-1.6-.8 0-1.4.6-1.5 1.3-.2-.2-.4-.2-.7-.2-.6 0-1.1.5-1.1 1.1v6.3h8.4c.9 0 1.6-.7 1.6-1.6 0-.4-.2-.8-.4-1.1.3-.4.5-.9.5-1.3"/>
    <g fill="#699635">
        <path d="M36.4 57c0-.4-.2-.8-.4-1.1.3-.4.4-.8.4-1.3 0-1.2-.9-2.1-2.1-2.1-.2 0-.5 0-.7.1-.2-.3-.4-.6-.8-.8-.6.2-.9.8-.9 1.4 0 .2 0 .3.1.4-.1-.1-.3-.1-.5-.1-.6 0-1.1.5-1.1 1.1 0 .4.2.7.6.9-.2.3-.4.7-.4 1.1 0 1 .8 1.8 1.8 1.8h2.4c.9.2 1.6-.5 1.6-1.4M30.2 57.3c0 .6-.5-.2-1.1-.2s-1.1.8-1.1.2c0-.6.5-1.1 1.1-1.1s1.1.5 1.1 1.1M27.9 55.5c0 .3-.2 0-.5 0s-.5.3-.5 0 .2-.5.5-.5c.2-.1.5.2.5.5"/>
    </g>
    <g fill="#83bf4f">
        <path d="M28.8 53.9c0 .3-.2-.1-.5-.1s-.5.4-.5.1.2-.5.5-.5.5.2.5.5M33.2 56.5c0 .4-.3-.2-.7-.2s-.7.6-.7.2.3-.7.7-.7.7.3.7.7M35.2 54.5c0 .6-.5-.3-1.1-.3-.6 0-1.1.9-1.1.3s.5-1.1 1.1-1.1c.6.1 1.1.6 1.1 1.1M35.2 57c0 .3-.2 0-.5 0s-.5.3-.5 0 .2-.5.5-.5.5.2.5.5M30.5 52.8c0 .4-.3-.2-.7-.2-.4 0-.7.6-.7.2s.3-.7.7-.7c.4 0 .7.3.7.7M2 58.3h60V62H2z"/>
    </g>
    <path fill="#d0d0d0" d="M53.3 12h2.4v4.6h-2.4z"/>
    <path fill="#94989b" d="M55.8 12h1.6v4.6h-1.6z"/>
    <path fill="#d0d0d0" d="M52.5 10.4h4.1V12h-4.1z"/>
    <path fill="#94989b" d="M56.6 10.4h1.6V12h-1.6z"/>
    <g fill="#f9f3d9">
        <path d="M34.8 39.8H61v18.5H34.8zM37.6 18.9h20.6v17.2H37.6z"/>
    </g>
    <path fill="#ed4c5c" d="M62 39.8H33.8l3.8-3.7h20.6z"/>
    <path fill="#89664c" d="M39.5 46.3h6.6v12h-6.6z"/>
    <path fill="#dbb471" d="M38.5 44.4h8.4v1.9h-8.4z"/>
    <ellipse cx="44.6" cy="52.3" fill="#f9f3d9" rx=".6" ry=".6"/>
    <path fill="#ed4c5c" d="M47.9 9.5l-14.1 9.4H62z"/>
    <path fill="#d6eef0" d="M50.5 45.3h7.7V53h-7.7z"/>
    <path fill="#89664c" d="M49.5 44.4V54h9.6v-9.6h-9.6m8.7.9v3.4h-3.4v-3.4h3.4m-4.3 0v3.4h-3.4v-3.4h3.4M50.5 53v-3.4h3.4V53h-3.4m4.3 0v-3.4h3.4V53h-3.4"/>
    <path fill="#d6eef0" d="M44.1 23.5h7.7v7.7h-7.7z"/>
    <path fill="#89664c" d="M43.1 22.6v9.6h9.6v-9.6h-9.6m8.7.9v3.4h-3.4v-3.4h3.4m-4.4 0v3.4H44v-3.4h3.4m-3.3 7.7v-3.4h3.4v3.4h-3.4m4.3 0v-3.4h3.4v3.4h-3.4"/>
    <path fill="#d0d0d0" d="M21.5 12h2.4v4.6h-2.4z"/>
    <path fill="#94989b" d="M24 12h1.6v4.6H24z"/>
    <path fill="#d0d0d0" d="M20.7 10.4h4.1V12h-4.1z"/>
    <path fill="#94989b" d="M24.8 10.4h1.6V12h-1.6z"/>
    <g fill="#f9f3d9">
        <path d="M3 39.8h26.2v18.5H3zM5.8 18.9h20.6v17.2H5.8z"/>
    </g>
    <path fill="#89664c" d="M7.7 46.3h6.6v12H7.7z"/>
    <path fill="#dbb471" d="M6.7 44.4h8.4v1.9H6.7z"/>
    <ellipse cx="12.8" cy="52.3" fill="#f9f3d9" rx=".6" ry=".6"/>
    <path fill="#ed4c5c" d="M16.1 9.5L2 18.9h28.2z"/>
    <path fill="#d6eef0" d="M12.2 23.5h7.7v7.7h-7.7z"/>
    <path fill="#89664c" d="M11.3 22.6v9.6h9.6v-9.6h-9.6m8.6.9v3.4h-3.4v-3.4h3.4m-4.3 0v3.4h-3.4v-3.4h3.4m-3.4 7.7v-3.4h3.4v3.4h-3.4m4.4 0v-3.4H20v3.4h-3.4"/>
    <path fill="#d6eef0" d="M18.7 45.3h7.7V53h-7.7z"/>
    <path fill="#89664c" d="M17.7 44.4V54h9.6v-9.6h-9.6m8.7.9v3.4H23v-3.4h3.4m-4.4 0v3.4h-3.4v-3.4H22M18.7 53v-3.4H22V53h-3.3m4.3 0v-3.4h3.4V53H23"/>
    <path fill="#ed4c5c" d="M30.2 39.8H2l3.8-3.7h20.6z"/>
</svg>