<svg xmlns="http://www.w3.org/2000/svg" viewBox="0 0 64 64">
    <title>volleyball</title>
    <circle cx="32" cy="32" r="30" fill="#e8e8e8"/>
    <path fill="#b2c1c0" d="M28.4 18c-.1-3.1.3-5.9.9-8.4 14.5.3 25.2 7.1 30.5 11.3-.5-1.2-1.1-2.4-1.7-3.6-6-4.2-15.8-9.2-28.3-9.6.7-2.5 1.6-4.4 2.2-5.7h-.1c-.7 0-1.4 0-2.1.1-2.4 5.2-6.8 18 1 30-2 4-4.8 6.9-7.7 9-10-18.3-5.5-32.4-4-36.2-.9.4-1.7.9-2.5 1.4-1.9 5.9-4.3 19.1 5 35.9-2.6 1.6-5.3 2.7-7.8 3.4-7-12.7-6.5-25.4-5.5-32.1-.8 1-1.6 2.1-2.3 3.3-.4 7.3.1 18.2 6 29.3-2.5.6-4.7.8-6 .9.4.6.7 1.2 1.1 1.8 5.7-.5 19-3.1 25.5-15.8 4.5-.2 8.4.7 11.7 2.2C33.5 53 19 56.2 15 56.7l2.4 1.5c6-1.3 18.7-5.8 28.6-22.3 2.7 1.4 5 3.2 6.8 5-7.5 12.4-18.7 18.3-25.1 20.8 1.3.2 2.6.3 4 .3 6.6-3.1 15.9-9.1 22.4-19.7 1.8 1.9 3 3.6 3.8 4.8.4-.6.7-1.2 1-1.9-3.3-4.7-12.2-14.9-26.4-14.2-2.4-3.7-3.6-7.6-4-11.2 20.9.4 30.8 11.3 33.4 14.6.1-.8.1-1.6.1-2.4v-.5C57.9 26.9 47.6 18.3 28.4 18"/>
</svg>