<svg xmlns="http://www.w3.org/2000/svg" viewBox="0 0 64 64">
    <title>snow-capped mountain</title>
    <path fill="#b4d7ee" d="M0 0h64v64H0z"/>
    <g fill="#62727a">
        <path d="M64 33.6l-13 2.6-9-4.7-29.8 4.9-12.2-3v30.1h64z" opacity=".33"/>
        <path d="M0 43.6l10 3.6 12-5.7 36.8 5.9 5.2-4v20.1H0z" opacity=".33"/>
        <path d="M55.8 49.7L45 41.2 34 23l-6.2 9.1-8.8 6-4.5 9.4-4.5 2.2L0 64h64z"/>
    </g>
    <g fill="#fff">
        <path d="M34 23l-1.7 7.5 4.5 6.1-5.5-.3 8 5.7-6 3.8-5.6 12.6 1.5-9L18 47.1l12.5-4-2.7-11zM51 46l-5.5 6.1-8 6.3L49 53.7l6.8-4zM14.5 47.5L10 49.7l8 6.4zM43.9 19.6c-.2-.3-.3-.6-.3-1 0-.9.7-1.6 1.6-1.6.8 0 1.5.6 1.6 1.4.5-.2 1-.3 1.5-.3 1.5 0 2.8.9 3.5 2.1.3-.4.9-.7 1.5-.7.3 0 .6.1.9.2.6-1 1.6-1.7 2.9-1.7 1.3 0 2.5.8 3 1.9h.3c1 0 1.8.8 1.8 1.7s-.8 1.7-1.8 1.7c-.3 0-.5-.1-.7-.2-.8.9-1.7 1.4-2.7 1.4h-.1c-.2.7-.8 1.2-1.6 1.2-.2 0-.4 0-.6-.1-.5.9-1.4 1.4-2.5 1.4s-2.1-.6-2.6-1.6c-.4.2-.9.2-1.3.2-1.3 0-2.4-.6-3.1-1.6-.2.1-.5.1-.8.1-1.3 0-2.4-1.1-2.4-2.4 0-1 .8-1.9 1.9-2.1"/>
    </g>
    <path fill="#b4d7ee" d="M59.8 22.1c-.2 0-.5 0-.7-.1-.6.6-1.4 1-2.4 1h-.1c-.2.6-.8 1-1.5 1-.2 0-.4 0-.6-.1-.5.7-1.4 1.2-2.4 1.2-1.1 0-2-.5-2.4-1.3-.4.1-.8.2-1.3.2-1.2 0-2.3-.5-3-1.3-.2.1-.5.1-.7.1-.5 0-.9-.1-1.2-.3.3.7 1.1 1.2 1.9 1.2.2 0 .5 0 .7-.1.6.8 1.6 1.3 2.7 1.3.4 0 .8-.1 1.2-.2.4.8 1.2 1.3 2.2 1.3.9 0 1.7-.5 2.2-1.2.2.1.4.1.5.1.7 0 1.2-.4 1.4-1h.1c.9 0 1.7-.4 2.2-1 .2.1.4.1.6.1.7 0 1.2-.4 1.4-1-.3.1-.6.1-.8.1"/>
    <path fill="#fff" d="M28.3 8.6c.3-.4.5-.8.5-1.3 0-1.2-1-2.2-2.3-2.2-1.1 0-2.1.8-2.3 1.9-.6-.3-1.3-.4-2.1-.4-2.1 0-4 1.2-4.8 3-.5-.6-1.2-1-2-1-.5 0-.9.1-1.3.3-.8-1.4-2.3-2.3-4-2.3-1.9 0-3.5 1.1-4.2 2.7h-.4c-1.3-.1-2.4.9-2.4 2.3S4.1 14 5.5 14c.4 0 .7-.1 1-.2.8 1 2.1 1.7 3.6 1.7h.1c.3 1 1.1 1.7 2.2 1.7.3 0 .6-.1.9-.2.7 1.2 2 2 3.5 2 1.6 0 2.9-.9 3.6-2.2.6.2 1.2.3 1.9.3 1.8 0 3.4-.9 4.4-2.2.3.1.7.2 1.1.2 1.9 0 3.4-1.5 3.4-3.3-.2-1.6-1.3-2.9-2.9-3.2"/>
    <path fill="#b4d7ee" d="M27.1 12.2c-.4 0-.7-.1-1-.2-.9 1.1-2.4 1.8-4.2 1.8-.6 0-1.2-.1-1.8-.3-.6 1.1-1.9 1.8-3.4 1.8-1.4 0-2.7-.7-3.3-1.7-.3.1-.5.1-.8.1-1 0-1.9-.6-2.1-1.4h-.1C9 12.5 7.8 11.9 7 11c-.3.1-.6.2-1 .2s-.7-.1-1-.2c.1 1 1 1.9 2.1 1.9.3 0 .6-.1.9-.2.7.9 1.8 1.4 3.1 1.4h.1c.2.8 1 1.4 1.9 1.4.3 0 .5-.1.8-.1.6 1 1.7 1.7 3 1.7 1.4 0 2.5-.7 3.1-1.8.5.2 1 .3 1.6.3 1.5 0 2.9-.7 3.8-1.8.3.1.6.2.9.2 1.4 0 2.6-.9 2.9-2.2-.7.2-1.4.4-2.1.4"/>
</svg>