<svg xmlns="http://www.w3.org/2000/svg" viewBox="0 0 64 64">
    <title>classical building</title>
    <g fill="#acb8bf">
        <path d="M2 60.1h60V62H2zM5.5 56.4h53v1.9h-53z"/>
    </g>
    <g fill="#dae3ea">
        <path d="M3.8 58.2h56.5v1.9H3.8zM7.2 54.5h49.5v1.9H7.2z"/>
    </g>
    <path fill="#94989b" d="M4.8 27.8h54.4v1.9H4.8z"/>
    <path fill="#dae3ea" d="M2 29.6h60v1.9H2z"/>
    <path fill="#94989b" d="M32 4.8L2 21.2 4.5 25 32 6.7 59.5 25l2.5-3.8z"/>
    <g fill="#dae3ea">
        <path d="M32 2L2 21.2v2.9L32 4.8l30 19.3v-2.9z"/>
        <path d="M32 6.7L2 25.9v1.9h60v-1.9z"/>
    </g>
    <path fill="#acb8bf" d="M32 9.5L7.1 25.9h49.8z"/>
    <g fill="#94989b">
        <path d="M32.8 22.6l-.4.2c0-.1-.1-.2-.2-.2h-.3c-.1 0-.2.1-.2.2l-.4-.2-1-.6v2.2l1-.6.4-.2c0 .1.1.2.2.2h.3c.1 0 .2-.1.2-.2l.4.2 1 .6V22l-1 .6M30.5 19.5c.2.3.4.4.6.6.3.1.6.2.9.2.3 0 .6-.1.9-.2.3-.1.5-.3.6-.6 0 .3-.1.6-.4.8-.3.2-.7.4-1.1.4-.4 0-.8-.1-1.1-.4-.3-.2-.4-.5-.4-.8"/>
        <path d="M36.3 16.6v-.2c-.1 0-.1-.1-.2-.1h-.2c-.6-1.5-2.1-2.6-3.9-2.6-1.7 0-3.2 1.1-3.9 2.6h-.2c-.1 0-.1 0-.2.1v.2c0 .2 0 .1.1.2 0 0 .1 0 .1.1-.1.4-.2.7-.2 1.1 0 2.3 1.9 4.2 4.2 4.2s4.2-1.9 4.2-4.2c0-.4-.1-.8-.2-1.1l.1-.1c.3-.1.3-.1.3-.2M32 14.2c1.4 0 2.7.8 3.3 2h-1.4c-.5 0-1 .2-1.3.3-.3.2-.8.2-1.2 0-.4-.2-.8-.3-1.3-.3h-1.4c.6-1.2 1.9-2 3.3-2m0 7.5c-2.1 0-3.7-1.7-3.7-3.7v-.1c.1.5.4.8.9 1 .5.2 1 .2 1.5 0 .3-.1.5-.3.7-.5.3-.5.2-.8.4-1.2.1-.3.5-.3.7 0 .2.4.1.7.4 1.2.2.3.4.4.7.5.5.2 1 .2 1.5 0 .4-.2.7-.5.9-1v.1c-.3 2-1.9 3.7-4 3.7"/>
    </g>
    <path fill="#dae3ea" d="M8.5 33.2h6v19.6h-6z"/>
    <g fill="#94989b">
        <path d="M7.8 52.8h7.5v1.8H7.8zM7.8 31.5h7.5v1.7H7.8z"/>
    </g>
    <g fill="#c8d0d6">
        <path d="M9.1 34h.7v18h-.7zM13.2 34h.7v18h-.7zM11.8 34h.7v18h-.7zM10.5 34h.7v18h-.7z"/>
    </g>
    <path fill="#dae3ea" d="M22.2 33.2h6v19.6h-6z"/>
    <g fill="#94989b">
        <path d="M21.4 52.8h7.5v1.7h-7.5zM21.4 31.5h7.5v1.7h-7.5z"/>
    </g>
    <g fill="#c8d0d6">
        <path d="M22.8 34h.7v18h-.7zM26.9 34h.7v18h-.7zM25.5 34h.7v18h-.7zM24.1 34h.7v18h-.7z"/>
    </g>
    <path fill="#dae3ea" d="M35.8 33.2h6v19.6h-6z"/>
    <g fill="#94989b">
        <path d="M35.1 52.8h7.5v1.7h-7.5zM35.1 31.5h7.5v1.7h-7.5z"/>
    </g>
    <g fill="#c8d0d6">
        <path d="M36.4 34h.7v18h-.7zM40.5 34h.7v18h-.7zM39.2 34h.7v18h-.7zM37.8 34h.7v18h-.7z"/>
    </g>
    <path fill="#dae3ea" d="M49.5 33.2h6v19.6h-6z"/>
    <g fill="#94989b">
        <path d="M48.8 52.8h7.5v1.8h-7.5zM48.8 31.5h7.5v1.7h-7.5z"/>
    </g>
    <g fill="#c8d0d6">
        <path d="M50.1 34h.7v18h-.7zM54.2 34h.7v18h-.7zM52.8 34h.7v18h-.7zM51.5 34h.7v18h-.7z"/>
    </g>
</svg>