<svg xmlns="http://www.w3.org/2000/svg" viewBox="0 0 64 64">
    <title>Japanese castle</title>
    <path fill="#b2c1c0" d="M56 48H8L0 64h64z"/>
    <g fill="#f9f3d9">
        <path d="M8 40h48v8H8zM13 24h38v8H13zM18 8h28v8H18z"/>
    </g>
    <g fill="#d33b23">
        <path d="M18 16c0 2.2-4.7 4-8 4-3 0-5-1-5-1 0 2.2 2.9 5 6.5 5H32v-8H18zM13 32c0 2.2-4.7 4-8 4-3 0-5-1-5-1 0 2.2 2.9 5 6.5 5H32v-8H13zM51 32c0 2.2 4.7 4 8 4 3 0 5-1 5-1 0 2.2-2.9 5-6.5 5H32v-8h19zM46 16c0 2.2 4.7 4 8 4 3 0 5-1 5-1 0 2.2-2.9 5-6.5 5H32v-8h14zM41 0c0 2.2 4.7 4 8 4 3 0 5-1 5-1 0 2.2-2.9 5-6.5 5H32V0h9zM23 0c0 2.2-4.7 4-8 4-3 0-5-1-5-1 0 2.2 2.9 5 6.5 5H32V0h-9z"/>
    </g>
    <g fill="#3e4347">
        <path d="M24 26h1v4h-1zM27 26h1v4h-1zM36 26h1v4h-1zM30 26h1v4h-1zM33 26h1v4h-1zM25.5 42h1v4h-1zM19.5 42h1v4h-1zM22.5 42h1v4h-1zM28.5 42h1v4h-1zM26 10h2v4h-2zM36 10h2v4h-2zM31 10h2v4h-2z"/>
    </g>
    <g fill="#fed0ac">
        <path d="M8 40h8v8H8zM48 40h8v8h-8zM13 24h8v8h-8zM43 24h8v8h-8z"/>
    </g>
    <g fill="#3e4347">
        <path d="M51 42h2v4h-2zM11 42h2v4h-2z"/>
    </g>
    <path fill="#f15744" d="M32 16l-11 8h22z"/>
    <g fill="#d3976e">
        <path d="M18 8h28v2H18zM21 24h22.1v2H21z"/>
    </g>
    <g fill="#3e4347">
        <path d="M46 26h2v4h-2zM16 26h2v4h-2z"/>
    </g>
    <path fill="#d3976e" d="M16 40h32v2H16z"/>
    <g fill="#89664c">
        <path d="M8 40h8v2H8zM48 40h8v2h-8zM13 24h8v2h-8zM43 24h8v2h-8z"/>
    </g>
    <path fill="#fed0ac" d="M40.1 24L32 18.1 23.9 24z"/>
    <g fill="#3e4347">
        <path d="M26.5 24h11L32 20zM37.5 42h1v4h-1zM31.5 42h1v4h-1zM34.5 42h1v4h-1zM40.5 42h1v4h-1zM43.5 42h1v4h-1z"/>
    </g>
    <path fill="#f15744" d="M41 36c-2.7-1.7-3.2-4-9-4s-6.6 2.4-9 4c-6.1 4-12.2 4-13 4h44c-.8 0-6.7 0-13-4"/>
    <path fill="#fed0ac" d="M39.1 37c-1.9-1.3-2.9-3-7.1-3-4.2 0-5.3 1.8-7.1 3-4.4 3-8.3 3-8.9 3h32c-.6 0-4.3 0-8.9-3"/>
    <g fill="#3e4347">
        <path d="M37.3 38c-1.2-.8-2.7-2-5.3-2-2.6 0-4.2 1.2-5.3 2-2.8 2-4.3 2-4.7 2h20c-.3 0-1.9 0-4.7-2M39 26h1v4h-1z"/>
    </g>
    <path fill="#f15744" d="M37.7 5c-1.7-1.3-2-3-5.7-3s-4.2 1.8-5.7 3c-3.9 3-7.8 3-8.3 3h28c-.5 0-4.3 0-8.3-3"/>
    <path fill="#fed0ac" d="M36.5 5.8c-1.2-.9-1.8-2.2-4.5-2.2S28.6 5 27.5 5.8C24.6 8 22.2 8 21.8 8h20.4c-.4 0-2.8 0-5.7-2.2"/>
    <path fill="#3e4347" d="M35.3 6.5c-.5-.4-1.1-1.1-2-1.3-.4 0-1.3.2-1.3 1.3 0-1.2-1-1.3-1.4-1.3-.9.2-1.5.9-2 1.3C26.8 8 25.9 8 25.6 8h12.8c-.3 0-1.2 0-3.1-1.5"/>
    <g fill="#62727a">
        <path d="M28.5 51.5h-7l-2-3.5h7zM17.5 55.5h-6.7l-1-3h6.7zM27.5 60.1h-4l-3-4.1h10zM47 56h-6l-2-4.1h10zM8.1 64H17l2.1-3.9h-8.9zM43 64h-8.1L33 60.1h8.1zM54 60.1h8L60 56h-8z" opacity=".5"/>
    </g>
    <g fill="#e8e8e8">
        <path d="M57.1 64h-7.8l1.5-4h8.5zM16 60H5.5L8 56h6zM36 60h-8.5l2.5-4h8zM43 52h-8.5l2.5-4h8z" opacity=".5"/>
        <path d="M53.2 59.5h-6.9l-1.6-3h6.9l1.6 3m-32.4-3l1.6 3h-6l-1.6-3h6m1 0h7.5l-1.6 3h-4.2l-1.7-3m8.4 0h7l-1.6 3h-7l1.6-3m8 0h5.5l1.6 3h-8.8l1.7-3m16.6-4l1.7 3h-9l1.7-3h5.6m-6.6 0l-1.7 3h-5l-1.7-3h8.4m-9.4 0l1.7 3h-6l-1.7-3h6m-7 0l1.7 3h-10l1.7-3h6.6m-7.6 0l-1.7 3h-4l-1.7-3h7.4m-14.4 0h6l1.7 3h-6l-1.7-3m-1.6 4h5.5l1.6 3H6.6l1.6-3m54 4l-.5-1h-7.5l-1.6-3h7.6l-.5-1h-2.2l-1.7-3h2.5l-.5-1h-4.2l-2-3.5h-1l2 3.5h-9l2-3.5h-1l-2 3.5h-7l2-3.5h-1l-2 3.5h-5l-2-3.5h-1l2 3.5h-7l-2-3.5h-1l2 3.5h-9l2-3.5h-1l-2 3.5H6.2l-.5 1h3l1.7 3H4.2l-.5 1h3.5l-1.6 3H2.2l-.5 1h7.6L7.5 64h1l1.9-3.5h8L16.5 64h1l1.9-3.5h5.2l1.9 3.5h1l-1.9-3.5h7l1.9 3.5h1l-1.9-3.5h7l1.9 3.5h1l-1.9-3.5h8.8L48.5 64h1l1.9-3.5h7L56.5 64h1l1.9-3.5h2.8"/>
    </g>
</svg>