<svg xmlns="http://www.w3.org/2000/svg" viewBox="0 0 64 64">
    <title>hotel</title>
    <path fill="#62727a" d="M63 60H1c-.6 0-1 .5-1 1v2c0 .5.4 1 1 1h62c.5 0 1-.5 1-1v-2c0-.5-.5-1-1-1"/>
    <path fill="#ed4c5c" d="M40 64H24l4-4h8z"/>
    <g fill="#e8e8e8">
        <path d="M51 36H13c-2.2 0-4 1.8-4 4v20h46V40c0-2.2-1.8-4-4-4M40 22H24c-2.2 0-4 1.8-4 4v10h24V26c0-2.2-1.8-4-4-4"/>
    </g>
    <g fill="#62727a">
        <path d="M19 44h26v6H19zM21.1 37.6v1.9H23v-1.9h1.1v4.8H23v-2h-1.8v2H20v-4.8h1.1zM30.3 40c0 1.6-1 2.5-2.4 2.5-1.5 0-2.3-1.1-2.3-2.5 0-1.5.9-2.5 2.4-2.5s2.3 1.1 2.3 2.5m-3.6 0c0 .9.5 1.6 1.2 1.6.8 0 1.2-.7 1.2-1.6 0-.9-.4-1.6-1.2-1.6-.7 0-1.2.7-1.2 1.6M32.5 38.5h-1.3v-.9H35v.9h-1.3v3.9h-1.1v-3.9zM39.2 40.4h-1.8v1.1h2v.9h-3.1v-4.8h3v.9h-1.9v1h1.8v.9M40.9 37.6H42v3.9h2v.9h-3.1v-4.8"/>
    </g>
    <g fill="#ffdd7d">
        <path d="M34 46.5h-1.5L32 45l-.5 1.5H30l1.2 1-.4 1.5 1.2-.9 1.2.9-.4-1.5zM29 46.5h-1.5L27 45l-.5 1.5H25l1.2 1-.4 1.5 1.2-.9 1.2.9-.4-1.5zM39 46.5h-1.5L37 45l-.5 1.5H35l1.2 1-.4 1.5 1.2-.9 1.2.9-.4-1.5zM44 46.5h-1.5L42 45l-.5 1.5H40l1.2 1-.4 1.5 1.2-.9 1.2.9-.4-1.5zM24 46.5h-1.5L22 45l-.5 1.5H20l1.2 1-.4 1.5 1.2-.9 1.2.9-.4-1.5z"/>
    </g>
    <g fill="#b2c1c0">
        <path d="M21 50h4v10h-4zM39 50h4v10h-4z"/>
    </g>
    <path fill="#42ade2" d="M28 50h8v10h-8z"/>
    <path fill="#e8e8e8" d="M31 50h2v10h-2z"/>
    <g fill="#428bc1">
        <path d="M28 50h3v2h-3zM33 50h3v2h-3z"/>
    </g>
    <g fill="#b2c1c0">
        <path d="M31 50h2v2h-2zM33 1c0-.6-.5-1-1-1-.6 0-1 .4-1 1v9c0 .6.4 1 1 1 .5 0 1-.4 1-1V1"/>
    </g>
    <path fill="#e8e8e8" d="M36.3 12.3l-1.6-1.6c-.4-.4-1.2-.7-1.7-.7h-2c-.6 0-1.3.3-1.7.7l-1.6 1.6c-.4.4-.7 1.1-.7 1.7v8h10v-8c0-.6-.3-1.3-.7-1.7"/>
    <g fill="#42ade2">
        <path d="M16 39h-4c-.6 0-1 .5-1 1v2c0 .5.4 1 1 1h4c.5 0 1-.5 1-1v-2c0-.5-.5-1-1-1M34 24h-4c-.6 0-1 .5-1 1v8c0 .5.4 1 1 1h4c.5 0 1-.5 1-1v-8c0-.5-.5-1-1-1M52 39h-4c-.6 0-1 .5-1 1v2c0 .5.4 1 1 1h4c.5 0 1-.5 1-1v-2c0-.5-.5-1-1-1M16 46h-4c-.6 0-1 .5-1 1v2c0 .5.4 1 1 1h4c.5 0 1-.5 1-1v-2c0-.5-.5-1-1-1M52 46h-4c-.6 0-1 .5-1 1v2c0 .5.4 1 1 1h4c.5 0 1-.5 1-1v-2c0-.5-.5-1-1-1M16 53h-4c-.6 0-1 .5-1 1v2c0 .5.4 1 1 1h4c.5 0 1-.5 1-1v-2c0-.5-.5-1-1-1M52 53h-4c-.6 0-1 .5-1 1v2c0 .5.4 1 1 1h4c.5 0 1-.5 1-1v-2c0-.5-.5-1-1-1M31 15c0-.6-.5-1-1-1-.6 0-1 .4-1 1v4c0 .5.4 1 1 1 .5 0 1-.5 1-1v-4M35 15c0-.6-.5-1-1-1-.6 0-1 .4-1 1v4c0 .5.4 1 1 1 .5 0 1-.5 1-1v-4M23 24c-.6 0-1 .5-1 1v2c0 .5.4 1 1 1h3c.5 0 1-.5 1-1v-2c0-.5-.5-1-1-1h-3M23 30c-.6 0-1 .5-1 1v2c0 .5.4 1 1 1h3c.5 0 1-.5 1-1v-2c0-.5-.5-1-1-1h-3M38 24c-.6 0-1 .5-1 1v2c0 .5.4 1 1 1h3c.5 0 1-.5 1-1v-2c0-.5-.5-1-1-1h-3M38 30c-.6 0-1 .5-1 1v2c0 .5.4 1 1 1h3c.5 0 1-.5 1-1v-2c0-.5-.5-1-1-1h-3"/>
    </g>
    <path fill="#ed4c5c" d="M33 1.4v5.1c2.7 1.5 3.3-1.5 6 0V1.4c-2.7-1.5-3.3 1.6-6 0"/>
    <path fill="#dbb471" d="M10 39.5H8.8S7.4 46.9 8.6 60h3.1c-.1 0-1.7-8.4-1.7-20.5"/>
    <g fill="#83bf4f">
        <path d="M10 38.3s-4.3-8.5-10-1.7c0 0 4.3-1.9 9.3 4l.7-2.3"/>
        <path d="M8.2 38.7l2.2 1.2c5.3-6 9.7-2.1 9.7-2.1-5.3-6.9-11.9.9-11.9.9"/>
        <path d="M9.2 38.7s-7.1.2-6 9c0 0 .1-6.2 7.2-6.9l-1.2-2.1"/>
        <path d="M9.2 38.3v2.5c7.8 1.7 6.6 7.4 6.6 7.4 3.4-8-6.6-9.9-6.6-9.9"/>
    </g>
    <g fill="#89664c">
        <path d="M8.2 57.2s1.5 2.2 3.4 0H8.2M7.9 53.8s1.5 2.2 3.4 0H7.9M7.7 50.4s1.2 2.2 2.9 0H7.7M7.7 47s1.2 2.2 2.9 0H7.7M7.9 43.6s1 2.2 2.4 0H7.9"/>
    </g>
    <path fill="#dbb471" d="M54 39.5h1.2s1.4 7.4.2 20.5h-3.1c.1 0 1.7-8.4 1.7-20.5"/>
    <g fill="#83bf4f">
        <path d="M54 38.3s4.3-8.5 10-1.7c0 0-4.3-1.9-9.3 4l-.7-2.3"/>
        <path d="M55.8 38.7l-2.2 1.2c-5.3-6-9.7-2.1-9.7-2.1 5.3-6.9 11.9.9 11.9.9"/>
        <path d="M54.8 38.7s7.1.2 6 9c0 0-.1-6.2-7.2-6.9l1.2-2.1"/>
        <path d="M54.8 38.3v2.5c-7.8 1.7-6.6 7.4-6.6 7.4-3.4-8 6.6-9.9 6.6-9.9"/>
    </g>
    <g fill="#89664c">
        <path d="M55.8 57.2s-1.5 2.2-3.4 0h3.4M56.1 53.8s-1.5 2.2-3.4 0h3.4M56.3 50.4s-1.2 2.2-2.9 0h2.9M56.3 47s-1.2 2.2-2.9 0h2.9M56.1 43.6s-1 2.2-2.4 0h2.4"/>
    </g>
</svg>