<svg xmlns="http://www.w3.org/2000/svg" viewBox="0 0 64 64">
    <title>house</title>
    <path fill="#d0d0d0" d="M32.4 4.3h3.4v6.5h-3.4z"/>
    <path fill="#94989b" d="M35.8 4.3h2.3v6.5h-2.3z"/>
    <path fill="#d0d0d0" d="M31.2 2h5.7v2.3h-5.7z"/>
    <path fill="#94989b" d="M36.9 2h2.3v2.3h-2.3z"/>
    <path fill="#ed4c5c" d="M24.2 2L2.7 14.3h43.1z"/>
    <path fill="#f9f3d9" d="M8.8 14.3h30.9v19H8.8z"/>
    <path fill="#d6eef0" d="M20.4 20h7.7v7.7h-7.7z"/>
    <path fill="#89664c" d="M19.4 19v9.6H29V19h-9.6m8.7 1v3.4h-3.4V20h3.4m-4.3 0v3.4h-3.4V20h3.4m-3.4 7.7v-3.4h3.4v3.4h-3.4m4.3 0v-3.4h3.4v3.4h-3.4"/>
    <path fill="#f9f3d9" d="M6.4 40.9H52v19.3H6.4z"/>
    <path fill="#d6eef0" d="M36.9 46.6h7.7v7.7h-7.7z"/>
    <g fill="#89664c">
        <path d="M35.9 45.7v9.6h9.6v-9.6h-9.6m8.7.9V50h-3.4v-3.4h3.4m-4.4 0V50h-3.4v-3.4h3.4m-3.3 7.7V51h3.4v3.4h-3.4zm4.3 0V51h3.4v3.4h-3.4zM18.4 48.3h8.4v11.8h-8.4z"/>
    </g>
    <path fill="#dbb471" d="M17.6 46.6h10.1v1.7H17.6z"/>
    <circle cx="25.4" cy="53.4" r=".6" fill="#f9f3d9"/>
    <path fill="#83bf4f" d="M2 60.1h60V62H2z"/>
    <path fill="#ed4c5c" d="M49.6 33.4H8.7L2 40.9h54.4z"/>
    <path fill="#83bf4f" d="M62 56.2c0-1.2-.9-2.1-2.1-2.1-.2 0-.5 0-.7.1-.3-.5-.8-.9-1.4-.9-.4 0-.7.1-1 .3v-.3c0-.9-.7-1.6-1.6-1.6-.8 0-1.4.6-1.6 1.3-.2-.2-.4-.2-.7-.2-.6 0-1.1.5-1.1 1.1v6.3h8.4c.9 0 1.6-.7 1.6-1.6 0-.4-.2-.8-.4-1.1.4-.4.6-.8.6-1.3"/>
    <g fill="#699635">
        <path d="M62 58.5c0-.4-.2-.8-.4-1.1.3-.4.4-.8.4-1.3 0-1.2-.9-2.1-2.1-2.1-.2 0-.5 0-.7.1-.2-.3-.4-.6-.8-.8-.6.2-.9.8-.9 1.4 0 .2 0 .3.1.4-.1-.1-.3-.1-.5-.1-.6 0-1.1.5-1.1 1.1 0 .4.2.7.6.9-.2.3-.4.7-.4 1.1 0 1 .8 1.8 1.8 1.8h2.4c.9.2 1.6-.5 1.6-1.4M55.8 58.8c0 .6-.5-.2-1.1-.2-.6 0-1.1.8-1.1.2 0-.6.5-1.1 1.1-1.1.6 0 1.1.5 1.1 1.1M53.5 57c0 .3-.2 0-.5 0s-.5.3-.5 0 .2-.5.5-.5c.2-.1.5.2.5.5"/>
    </g>
    <g fill="#83bf4f">
        <path d="M54.4 55.4c0 .3-.2-.1-.5-.1s-.5.4-.5.1.2-.5.5-.5.5.2.5.5M58.8 58c0 .4-.3-.2-.7-.2-.4 0-.7.6-.7.2 0-.4.3-.7.7-.7.3 0 .7.3.7.7M60.8 56.1c0 .6-.5-.3-1.1-.3-.6 0-1.1.9-1.1.3s.5-1.1 1.1-1.1c.6 0 1.1.5 1.1 1.1M60.8 58.6c0 .3-.2 0-.5 0s-.5.3-.5 0 .2-.5.5-.5.5.2.5.5M56.1 54.3c0 .4-.3-.2-.7-.2-.4 0-.7.6-.7.2s.3-.7.7-.7c.4 0 .7.3.7.7M12 56.2c0-1.2-.9-2.1-2.1-2.1-.2 0-.5 0-.7.1-.3-.5-.8-.9-1.4-.9-.4 0-.7.1-1 .3v-.3c0-.9-.7-1.6-1.6-1.6-.8 0-1.4.6-1.5 1.3-.2-.2-.4-.2-.7-.2-.6 0-1 .5-1 1.1v6.3h8.4c.9 0 1.6-.7 1.6-1.6 0-.4-.2-.8-.4-1.1.2-.4.4-.8.4-1.3"/>
    </g>
    <g fill="#699635">
        <path d="M12 58.5c0-.4-.2-.8-.4-1.1.3-.4.4-.8.4-1.3 0-1.2-.9-2.1-2.1-2.1-.2 0-.5 0-.7.1-.2-.3-.4-.6-.8-.8-.6.2-.9.8-.9 1.4 0 .2 0 .3.1.4-.1-.1-.3-.1-.5-.1-.6 0-1.1.5-1.1 1.1 0 .4.2.7.6.9-.2.3-.4.7-.4 1.1 0 1 .8 1.8 1.8 1.8h2.4c.9.2 1.6-.5 1.6-1.4M5.8 58.8c0 .6-.5-.2-1.1-.2s-1.1.8-1.1.2c0-.6.5-1.1 1.1-1.1.6 0 1.1.5 1.1 1.1M3.5 57c0 .3-.2 0-.5 0s-.5.3-.5 0 .2-.5.5-.5c.2-.1.5.2.5.5"/>
    </g>
    <g fill="#83bf4f">
        <path d="M4.4 55.4c0 .3-.2-.1-.5-.1s-.5.4-.5.1.2-.5.5-.5c.2 0 .5.2.5.5M8.8 58c0 .4-.3-.2-.7-.2-.4 0-.7.6-.7.2 0-.4.3-.7.7-.7.3 0 .7.3.7.7M10.8 56.1c0 .6-.5-.3-1.1-.3-.6 0-1.1.9-1.1.3S9.2 55 9.7 55c.6 0 1.1.5 1.1 1.1M10.8 58.6c0 .3-.2 0-.5 0s-.5.3-.5 0 .2-.5.5-.5c.3-.1.5.2.5.5M6.1 54.3c0 .4-.3-.2-.7-.2-.4 0-.7.6-.7.2s.3-.7.7-.7c.4 0 .7.3.7.7"/>
    </g>
</svg>