<svg xmlns="http://www.w3.org/2000/svg" viewBox="0 0 64 64">
    <title>bank</title>
    <path fill="#4d4d4d" d="M9.5 31.5h45v24.9h-45z"/>
    <g fill="#acb8bf">
        <path d="M2 60.1h60V62H2zM9.5 56.4h45v1.9h-45zM17 52.6h30v1.9H17z"/>
    </g>
    <path fill="#89664c" d="M41 36.9h7v12h-7z"/>
    <path fill="#b4d7ee" d="M42 37.9h5v10h-5z"/>
    <g fill="#89664c">
        <path d="M44 37.4h1v11h-1zM16 36.9h7v12h-7z"/>
    </g>
    <path fill="#b4d7ee" d="M17 37.9h5v10h-5z"/>
    <path fill="#89664c" d="M19 37.4h1v11h-1z"/>
    <g fill="#dae3ea">
        <path d="M5.8 58.2h52.5v1.9H5.8zM13.2 54.5h37.5v1.9H13.2z"/>
    </g>
    <path fill="#94989b" d="M4.8 27.8h54.4v1.9H4.8z"/>
    <path fill="#dae3ea" d="M2 29.6h60v1.9H2z"/>
    <path fill="#94989b" d="M32 4.8L2 21.2 4.5 25 32 6.7 59.5 25l2.5-3.8z"/>
    <g fill="#dae3ea">
        <path d="M32 2L2 21.2v2.9L32 4.8l30 19.3v-2.9z"/>
        <path d="M32 6.7L2 25.9v1.9h60v-1.9z"/>
    </g>
    <path fill="#acb8bf" d="M32 9.5L7.1 25.9h49.8z"/>
    <path fill="#fff" d="M32 17.4c-1 0-1.8-.7-1.8-1.6s.8-1.6 1.8-1.6 1.8.7 1.8 1.6h1.8c0-1.5-1.1-2.7-2.7-3v-.9h-1.8v.9c-1.5.4-2.7 1.6-2.7 3 0 1.7 1.6 3.1 3.6 3.1 1 0 1.8.7 1.8 1.6 0 .9-.8 1.6-1.8 1.6s-1.8-.7-1.8-1.6h-1.8c0 1.5 1.1 2.7 2.7 3v.9h1.8v-.9c1.5-.4 2.7-1.6 2.7-3 0-1.7-1.6-3.1-3.6-3.1"/>
    <path fill="#dae3ea" d="M6.5 33.5h6v22.7h-6z"/>
    <g fill="#94989b">
        <path d="M5.8 56.2h7.5v2H5.8zM5.8 31.5h7.5v2H5.8z"/>
    </g>
    <g fill="#c8d0d6">
        <path d="M7.1 34.4h.7v21h-.7zM11.2 34.4h.7v21h-.7zM9.8 34.4h.7v21h-.7zM8.5 34.4h.7v21h-.7z"/>
    </g>
    <path fill="#dae3ea" d="M51.5 33.5h6v22.7h-6z"/>
    <g fill="#94989b">
        <path d="M50.8 56.2h7.5v2h-7.5zM50.8 31.5h7.5v2h-7.5z"/>
    </g>
    <g fill="#c8d0d6">
        <path d="M52.1 34.4h.7v21h-.7zM56.2 34.4h.7v21h-.7zM54.8 34.4h.7v21h-.7zM53.5 34.4h.7v21h-.7z"/>
    </g>
    <path fill="#89664c" d="M26.6 42.3v9.8h10.7v-9.8c.1-7.3-10.7-7.1-10.7 0"/>
    <path fill="#594640" d="M27.4 42.7v9.4h9.2v-9.4c0-6.7-9.2-6.6-9.2 0"/>
    <path fill="#a37d64" d="M27.6 42.8v9.3h8.9v-9.3c-.1-6.7-8.9-6.6-8.9 0"/>
    <path fill="#94989b" d="M26.1 52.1H38v.6H26.1z"/>
    <g fill="#594640">
        <path d="M32.6 42.5h3.1c-.1-2.2-1.5-3.4-3.1-3.7v3.7M31.6 42.5v-3.7c-1.5.2-3 1.5-3.1 3.7h3.1"/>
    </g>
    <g fill="#89664c">
        <path d="M32.5 42.5h3.1c-.1-2.2-1.5-3.4-3.1-3.7v3.7M31.5 42.5v-3.7c-1.5.2-3 1.5-3.1 3.7h3.1"/>
    </g>
    <g fill="#594640">
        <path d="M32.6 43.5h3.1v3h-3.1zM28.5 43.5h3.1v3h-3.1z"/>
    </g>
    <g fill="#89664c">
        <path d="M32.5 43.5h3.1v3h-3.1zM28.4 43.5h3.1v3h-3.1z"/>
    </g>
    <g fill="#594640">
        <path d="M32.6 47.9h3.1v3h-3.1zM28.5 47.9h3.1v3h-3.1z"/>
    </g>
    <g fill="#89664c">
        <path d="M32.5 47.8h3.1v3h-3.1zM28.4 47.8h3.1v3h-3.1z"/>
    </g>
    <path fill="#dae3ea" d="M34.9 44.8h1.3v2.6h-1.3z"/>
    <path fill="#acb8bf" d="M35 44.9h1.1v2.4H35z"/>
    <path fill="#3e4347" d="M35.7 47.1l-.1-.5.1-.1c0-.1-.1-.2-.2-.2s-.2.1-.2.2 0 .1.1.1l-.1.5h.4"/>
    <circle cx="35.5" cy="45.6" r=".5" fill="#94989b"/>
    <circle cx="35.5" cy="45.5" r=".5" fill="#dae3ea"/>
</svg>