<svg xmlns="http://www.w3.org/2000/svg" xmlns:xlink="http://www.w3.org/1999/xlink" viewBox="0 0 64 64">
    <title>Japanese post office</title>
    <path fill="#b2c1c0" d="M63 60H1c-.6 0-1 .5-1 1v2c0 .5.4 1 1 1h62c.5 0 1-.5 1-1v-2c0-.5-.5-1-1-1"/>
    <path fill="#e8e8e8" d="M6 14h52v46H6z"/>
    <path fill="#3e4347" d="M64 16H0L5 0h54z"/>
    <g fill="#62727a">
        <path d="M11 24h8v14h-8zM45 24h8v14h-8z"/>
    </g>
    <g fill="#b4d7ee">
        <path d="M13 26h4v10h-4zM47 26h4v10h-4z"/>
    </g>
    <g fill="#62727a">
        <path d="M11.8 30h6.5v2h-6.5zM45.8 30h6.5v2h-6.5z"/>
    </g>
    <g fill="#fff">
        <path d="M11 44h42v16H11z"/>
        <path d="M32 41l13.5 6H50l-18-8-18 8h4.5z"/>
    </g>
    <g fill="#f15744">
        <path d="M24 22h16v4H24zM24 28h16v4H24z"/>
        <path d="M30 30h4v6h-4z"/>
    </g>
    <path fill="#62727a" d="M64 16L59.5 1.5 57 4l-3-3 1-1h-3l1 1-3 3-3-3 1-1h-3l1 1-3 3-3-3 1-1h-3l1 1-3 3-3-3 1-1h-4l1 1-3 3-3-3 1-1h-3l1 1-3 3-3-3 1-1h-3l1 1-3 3-3-3 1-1H9l1 1-3 3-2.5-2.5L0 16h5l-1-1 3-3 3 3-1 1h3l-1-1 3-3 3 3-1 1h3l-1-1 3-3 3 3-1 1h18l-1-1 3-3 3 3-1 1h3l-1-1 3-3 3 3-1 1h3l-1-1 3-3 3 3-1 1h5M7 11L4 8l3-3 3 3-3 3m7 0l-3-3 3-3 3 3-3 3m7 0l-3-3 3-3 3 3-3 3m22 0l-3-3 3-3 3 3-3 3m7 0l-3-3 3-3 3 3-3 3m7 0l-3-3 3-3 3 3-3 3"/>
    <circle cx="32" cy="12" r="8" fill="#e8e8e8"/>
    <circle cx="32" cy="12" r="6" fill="#3e4347"/>
    <g fill="#b4d7ee">
        <path d="M13 46h6v14h-6zM21 46h6v14h-6zM29 46h6v14h-6zM37 46h6v14h-6zM45 46h6v14h-6z"/>
    </g>
    <g fill="#62727a">
        <path d="M13 46h6v4h-6zM21 46h6v4h-6zM37 46h6v4h-6zM45 46h6v4h-6zM29 46h6v4h-6z"/>
    </g>
    <path id="a" fill="#b2c1c0" d="M9 21.5c0 .3-.2.5-.5.5h-3c-.3 0-.5-.2-.5-.5v-3c0-.3.2-.5.5-.5h3c.3 0 .5.2.5.5v3"/>
    <path fill="#b2c1c0" d="M7 27.5c0 .3-.2.5-.5.5h-1c-.3 0-.5-.2-.5-.5v-3c0-.3.2-.5.5-.5h1c.3 0 .5.2.5.5v3"/>
    <use xlink:href="#a"/>
    <g fill="#b2c1c0">
        <path d="M7 39.5c0 .3-.2.5-.5.5h-1c-.3 0-.5-.2-.5-.5v-3c0-.3.2-.5.5-.5h1c.3 0 .5.2.5.5v3M9 33.5c0 .3-.2.5-.5.5h-3c-.3 0-.5-.2-.5-.5v-3c0-.3.2-.5.5-.5h3c.3 0 .5.2.5.5v3M7 51.5c0 .3-.2.5-.5.5h-1c-.3 0-.5-.2-.5-.5v-3c0-.3.2-.5.5-.5h1c.3 0 .5.2.5.5v3M9 45.5c0 .3-.2.5-.5.5h-3c-.3 0-.5-.2-.5-.5v-3c0-.3.2-.5.5-.5h3c.3 0 .5.2.5.5v3M9 57.5c0 .3-.2.5-.5.5h-3c-.3 0-.5-.2-.5-.5v-3c0-.3.2-.5.5-.5h3c.3 0 .5.2.5.5v3"/>
    </g>
    <path id="b" fill="#b2c1c0" d="M55 21.5c0 .3.2.5.5.5h3c.3 0 .5-.2.5-.5v-3c0-.3-.2-.5-.5-.5h-3c-.3 0-.5.2-.5.5v3"/>
    <path fill="#b2c1c0" d="M57 27.5c0 .3.2.5.5.5h1c.3 0 .5-.2.5-.5v-3c0-.3-.2-.5-.5-.5h-1c-.3 0-.5.2-.5.5v3"/>
    <use xlink:href="#b"/>
    <g fill="#b2c1c0">
        <path d="M57 39.5c0 .3.2.5.5.5h1c.3 0 .5-.2.5-.5v-3c0-.3-.2-.5-.5-.5h-1c-.3 0-.5.2-.5.5v3M55 33.5c0 .3.2.5.5.5h3c.3 0 .5-.2.5-.5v-3c0-.3-.2-.5-.5-.5h-3c-.3 0-.5.2-.5.5v3M57 51.5c0 .3.2.5.5.5h1c.3 0 .5-.2.5-.5v-3c0-.3-.2-.5-.5-.5h-1c-.3 0-.5.2-.5.5v3M55 45.5c0 .3.2.5.5.5h3c.3 0 .5-.2.5-.5v-3c0-.3-.2-.5-.5-.5h-3c-.3 0-.5.2-.5.5v3M55 57.5c0 .3.2.5.5.5h3c.3 0 .5-.2.5-.5v-3c0-.3-.2-.5-.5-.5h-3c-.3 0-.5.2-.5.5v3"/>
    </g>
</svg>