<svg xmlns="http://www.w3.org/2000/svg" viewBox="0 0 64 64">
    <title>department store</title>
    <path fill="#d0d0d0" d="M0 60h64v4H0z"/>
    <path fill="#62727a" d="M2 32h60v28H2z"/>
    <path fill="#d6eef0" d="M6 42h14v18H6z"/>
    <path fill="#3e4347" d="M2 27h60v6H2z"/>
    <path fill="#83bf4f" d="M0 27c0 2.2 1.8 4 4 4s4-1.8 4-4H0"/>
    <path fill="#d33b23" d="M8 27c0 2.2 1.8 4 4 4s4-1.8 4-4H8"/>
    <path fill="#83bf4f" d="M16 27c0 2.2 1.8 4 4 4s4-1.8 4-4h-8"/>
    <path fill="#c7e755" d="M16 18h8v9h-8z"/>
    <path fill="#d33b23" d="M24 27c0 2.2 1.8 4 4 4s4-1.8 4-4h-8"/>
    <path fill="#f15744" d="M24 18h8v9h-8z"/>
    <path fill="#c7e755" d="M0 18h8v9H0z"/>
    <path fill="#f15744" d="M8 18h8v9H8z"/>
    <path fill="#c7e755" d="M48 18h8v9h-8z"/>
    <path fill="#f15744" d="M56 18h8v9h-8z"/>
    <path fill="#83bf4f" d="M32 27c0 2.2 1.8 4 4 4s4-1.8 4-4h-8"/>
    <path fill="#c7e755" d="M32 18h8v9h-8z"/>
    <path fill="#d33b23" d="M40 27c0 2.2 1.8 4 4 4s4-1.8 4-4h-8"/>
    <path fill="#f15744" d="M40 18h8v9h-8z"/>
    <path fill="#83bf4f" d="M48 27c0 2.2 1.8 4 4 4s4-1.8 4-4h-8"/>
    <path fill="#d33b23" d="M56 27c0 2.2 1.8 4 4 4s4-1.8 4-4h-8"/>
    <path fill="#fff" d="M13 33c-5 0-9 4-9 9h18c0-5-4-9-9-9"/>
    <path fill="#62727a" d="M6.3 40h13.4c-.9-2.9-3.5-5-6.7-5s-5.8 2.1-6.7 5"/>
    <g fill="#fff">
        <path d="M6 42h2v18H6zM18 42h2v18h-2z"/>
    </g>
    <path fill="#b4d7ee" d="M8 42h10v2H8z"/>
    <path fill="#fff" d="M27 33h30v20H27z"/>
    <path fill="#3e4347" d="M59 56c0 .5-.5 1-1 1H26c-.5 0-1-.5-1-1v-2c0-.5.5-1 1-1h32c.5 0 1 .5 1 1v2"/>
    <path fill="#d6eef0" d="M29 35h26v16H29z"/>
    <path fill="#b4d7ee" d="M29 35h26v2H29z"/>
    <path fill="#62727a" d="M16 47c-.6 0-1 .6-1 1.3v2c0 .7.4 1.7.8 2.1l.4.4c.4.4.8.2.8-.5v-3.9c0-.8-.5-1.4-1-1.4"/>
    <path fill="#3e4347" d="M64 18H0V2C0 .9.9 0 2 0h60c1.1 0 2 .9 2 2v16"/>
    <path fill="#e8e8e8" d="M3 2c-.5 0-1 .5-1 1v12c0 .6.5 1 1 1h58c.5 0 1-.4 1-1V3c0-.5-.5-1-1-1H3"/>
    <g fill="#3e4347">
        <path d="M17.5 5.1c-2.3-1-4.9-1.5-7.4-.8-2.4.7-2.7 3.6-.7 5 1.9 1.2 4.3.2 6.3 1.2.8.4.2 1.1-.3 1.3-.7.2-1.3.2-1.9.2-1.3 0-2.9-.2-4-.9s-2.1 1-1 1.7c1.9 1.2 4.9 1.4 7 .9 2.2-.5 3.4-3.1 1.5-4.7-1.6-1.4-4.1-.8-6.1-1.3-.6-.1-1.4-.6-.8-1.3.6-.5 1.9-.4 2.5-.4 1.3 0 2.9.4 3.9.9 1.2.5 2.2-1.3 1-1.8M50 13V5l-1 1c.8 0 6.1-.2 4.9 1.4-.8 1-3.7.6-4.9.6-1.3 0-1.3 2 0 2 2.2 0 6.7.4 7-2.7.3-3.8-4.5-3.3-7-3.3-.5 0-1 .5-1 1v8c0 1.3 2 1.3 2 0M22 5v8c0 1.3 2 1.3 2 0V5c0-1.3-2-1.3-2 0M30 5v8c0 1.3 2 1.3 2 0V5c0-1.3-2-1.3-2 0"/>
        <path d="M23 10h8c1.3 0 1.3-2 0-2h-8c-1.3 0-1.3 2 0 2"/>
    </g>
    <circle cx="40" cy="9" r="4" fill="none" stroke="#3e4347" stroke-miterlimit="10" stroke-width="2"/>
    <g fill="#3e4347">
        <circle cx="5" cy="9" r="1"/>
        <circle cx="59" cy="9" r="1"/>
    </g>
</svg>