<svg xmlns="http://www.w3.org/2000/svg" viewBox="0 0 64 64">
    <title>house with garden</title>
    <path fill="#c94747" d="M39 38l14.8 4.1H42.5L27 38z"/>
    <path fill="#f9f3d9" d="M5 22h22v38H5z"/>
    <path fill="#dbb471" d="M27 22h12v16H27z"/>
    <path fill="#ed4c5c" d="M21 8L1.1 22H27z"/>
    <path fill="#d0d0d0" d="M29 10h3v8h-3z"/>
    <path fill="#94989b" d="M32 10h2v9h-2z"/>
    <path fill="#c94747" d="M21 8l22 14H27z"/>
    <path fill="#d0d0d0" d="M28 8h5v2h-5z"/>
    <path fill="#94989b" d="M33 8h2v2h-2z"/>
    <path fill="#d6eef0" d="M12.8 27.8h6.4v6.4h-6.4z"/>
    <path fill="#89664c" d="M12 27v8h8v-8h-8m7.2.8v2.8h-2.8v-2.8h2.8m-3.6 0v2.8h-2.8v-2.8h2.8m-2.8 6.4v-2.8h2.8v2.8h-2.8m3.6 0v-2.8h2.8v2.8h-2.8"/>
    <path fill="#d6eef0" d="M30.6 27.4h4.8v7.2h-4.8z"/>
    <g fill="#89664c">
        <path d="M30.2 27v8h5.6v-8h-5.6m.8.8h1.6v2.8H31v-2.8m0 6.4v-2.8h1.6v2.8H31m4 0h-1.6v-2.8H35v2.8m0-3.6h-1.6v-2.8H35v2.8M13.7 49.1h6.2V60h-6.2zM19.2 47.5h1.6v1.6h-1.6z"/>
    </g>
    <path fill="#594640" d="M12.1 49.1h1.6V60h-1.6z"/>
    <path fill="#dbb471" d="M11.4 47.5h7.8v1.6h-7.8z"/>
    <circle cx="18.6" cy="53.8" r=".6" fill="#f9f3d9"/>
    <path fill="#83bf4f" d="M.1 60h52v4H.1z"/>
    <path fill="#dbb471" d="M39.9 42.1h9.3V60h-9.3z"/>
    <path fill="#f9f3d9" d="M27 42.1h12.9V60H27z"/>
    <path fill="#ed4c5c" d="M27 38H5l-5 4.1h42.5z"/>
    <path fill="#d6eef0" d="M28.3 47.8h6.4v6.4h-6.4z"/>
    <path fill="#89664c" d="M27.5 47v8h8v-8h-8m7.2.8v2.8h-2.8v-2.8h2.8m-3.6 0v2.8h-2.8v-2.8h2.8m-2.8 6.4v-2.8h2.8v2.8h-2.8m3.6 0v-2.8h2.8v2.8h-2.8"/>
    <path fill="#d6eef0" d="M42.1 47.4h4.8v7.2h-4.8z"/>
    <path fill="#89664c" d="M41.7 47v8h5.6v-8h-5.6m.8.8h1.6v2.8h-1.6v-2.8m0 6.4v-2.8h1.6v2.8h-1.6m4 0h-1.6v-2.8h1.6v2.8m0-3.6h-1.6v-2.8h1.6v2.8"/>
    <path fill="#699635" d="M51.9 60h12v4h-12z"/>
    <path fill="#d3976e" d="M52.2 34h4v26h-4z"/>
    <path fill="#89664c" d="M56.2 34h-1.5v.5c0 2.3-.8 2.3-.8 4.6s.8 2.3.8 4.5c0 2.3-.8 2.3-.8 4.6s.8 2.3.8 4.5c0 2.3-.8 2.3-.8 4.5 0 1.4.2 2 .4 2.7h1.8c.1.1.1-25.9.1-25.9"/>
    <path fill="#83bf4f" d="M53.2 2.9C51.3 5.6 49 .7 46 4.9s-1.4 7.9-.5 10.6c1.8 5.5-1.9 7.2.6 11.8 2.4 4.6-1.1 6.8 3.5 9.3s2.3-2.9 7 .3c4.7 3.2 5.3-2.2 4.8-4.2-1-3.7 1.7-4.6 2.5-7.7 1.3-5.5-3.1-8.5-1.7-13.7 1.2-5.1-3.3-16.7-9-8.4"/>
    <path fill="#699635" d="M62 11.4C63.1 7.5 60.8 0 57.2 0c0 0 2.4 3.2-1 7.2s2.9 6 0 9.7c-2.9 3.7 2.7 7.3.5 10.2-2.7 3.6-7 3.1-4.5 10v.1c1-.6 1.1-2.3 4.2-.2 4.7 3.2 5.3-2.2 4.8-4.2-1-3.7 1.7-4.6 2.5-7.7 1.4-5.5-3-8.5-1.7-13.7"/>
    <g fill="#83bf4f">
        <path d="M57.8 11.2c-.7 0 .4-.6.4-1.4s-1.1-1.4-.4-1.4c.7 0 1.4.6 1.4 1.4s-.6 1.4-1.4 1.4M59.6 23.3c-1.1 0 .6-.9.6-2s-1.7-2-.6-2 2 .9 2 2-.9 2-2 2M57.8 33.5c-.8 0 0-.7 0-1.5s-.8-1.5 0-1.5 1.5.7 1.5 1.5-.7 1.5-1.5 1.5M49.3 12.1c.8 0-.2.7-.2 1.5s1.1 1.5.2 1.5-1.5-.7-1.5-1.5.7-1.5 1.5-1.5M52.6 6.4c1.1 0-.5.9-.5 2s1.7 2 .5 2c-1.1 0-2-.9-2-2s.8-2 2-2"/>
    </g>
    <g fill="#699635">
        <path d="M51.7 21.6c1.7 0-.7 1.3-.7 3s2.3 3 .7 3c-1.7 0-3-1.3-3-3s1.3-3 3-3M52.6 16.1c.8 0 0 .7 0 1.5s.8 1.5 0 1.5-1.5-.7-1.5-1.5.7-1.5 1.5-1.5"/>
    </g>
    <path fill="#83bf4f" d="M58.1 57h.4v3h-.4z"/>
    <path fill="#c94747" d="M57.2 53.9v2.3c0 .4.3.8.8.8h.8v-1.6c-.1-1.1-1.6-1.5-1.6-1.5"/>
    <path fill="#ed4c5c" d="M59.5 53.9v2.3c0 .4-.3.8-.8.8h-.8v-1.6c0-1.1 1.6-1.5 1.6-1.5"/>
    <path fill="#83bf4f" d="M62.5 54.7h.4V60h-.4z"/>
    <path fill="#c94747" d="M61.6 51.5v2.3c0 .4.3.8.8.8h.8V53c-.1-1-1.6-1.5-1.6-1.5"/>
    <path fill="#ed4c5c" d="M63.9 51.5v2.3c0 .4-.3.8-.8.8h-.8V53c0-1 1.6-1.5 1.6-1.5"/>
    <path fill="#f2b200" d="M58.7 50.2v2.3c0 .4.3.8.8.8h.8v-1.6c0-1-1.6-1.5-1.6-1.5"/>
    <path fill="#ffce31" d="M61.1 50.2v2.3c0 .4-.3.8-.8.8h-.8v-1.6c0-1 1.6-1.5 1.6-1.5"/>
    <path fill="#83bf4f" d="M59.7 53.4h.4V60h-.4z"/>
    <path fill="#f2b200" d="M55.5 51.4v2.3c0 .4.4.8.8.8h.7V53c0-1.2-1.5-1.6-1.5-1.6"/>
    <path fill="#ffce31" d="M57.8 51.4v2.3c0 .4-.3.8-.8.8h-.8V53c0-1.2 1.6-1.6 1.6-1.6"/>
    <g fill="#83bf4f">
        <path d="M56.4 54.5h.4V60h-.4zM49 57h.4v3H49z"/>
    </g>
    <path fill="#c94747" d="M48 53.9v2.3c0 .4.3.8.8.8h.8v-1.6c0-1.1-1.6-1.5-1.6-1.5"/>
    <path fill="#ed4c5c" d="M50.4 53.9v2.3c0 .4-.3.8-.8.8h-.8v-1.6c0-1.1 1.6-1.5 1.6-1.5"/>
    <path fill="#83bf4f" d="M53.4 54.7h.4V60h-.4z"/>
    <path fill="#c94747" d="M52.4 51.5v2.3c0 .4.3.8.8.8h.8V53c0-1-1.6-1.5-1.6-1.5"/>
    <path fill="#ed4c5c" d="M54.8 51.5v2.3c0 .4-.3.8-.8.8h-.8V53c0-1 1.6-1.5 1.6-1.5"/>
    <path fill="#f2b200" d="M49.6 50.2v2.3c0 .4.3.8.8.8h.8v-1.6c0-1-1.6-1.5-1.6-1.5"/>
    <path fill="#ffce31" d="M51.9 50.2v2.3c0 .4-.3.8-.8.8h-.8v-1.6c.1-1 1.6-1.5 1.6-1.5"/>
    <path fill="#83bf4f" d="M50.6 53.4h.4V60h-.4z"/>
    <path fill="#c94747" d="M46.3 51.4v2.3c0 .4.3.8.8.8h.8V53c0-1.2-1.6-1.6-1.6-1.6"/>
    <path fill="#ed4c5c" d="M48.7 51.4v2.3c0 .4-.3.8-.8.8h-.8V53c0-1.2 1.6-1.6 1.6-1.6"/>
    <path fill="#83bf4f" d="M47.3 54.5h.4V60h-.4z"/>
</svg>