<svg xmlns="http://www.w3.org/2000/svg" viewBox="0 0 64 64">
    <title>label</title>
    <path fill="#f2b200" d="M29.1 12.9H19L12.9 19v10.1L43.8 64 64 43.8 29.1 12.9m-6.4 9.8c-.9.9-2.4.9-3.4 0-.9-.9-.9-2.4 0-3.4.9-.9 2.4-.9 3.4 0 .9 1 .9 2.5 0 3.4"/>
    <path fill="#94989b" d="M21.9 20.8c-.3-1.3-.9-2.6-1.6-3.7-1.7-2.8-4.1-5.1-6.9-6.8C9.6 8.1 5.3 7.1.9 6.7c-.5 0-.9.5-.9.9 0 .5.4.9.9.9 4.7.4 9.5 1.7 13.4 4.5 1.1.8 2.4 2.1 3.3 3.3.2.2-.1-.2 0 .1 0 .1.1.1.1.2.1.1.2.3.3.4.2.3.4.5.5.8.3.5.5.9.8 1.4.1.1.1.3.2.4 0 .1.1.1.1.2.1.2.2.5.2.7.1.2.1.4.2.6.3 1.4 2.2.9 1.9-.3"/>
    <path fill="#3e4347" d="M15.3 16.6l-.1-.1c-.5-.4-.9-.8-1.3-1.3-.9-1-1.7-2.3-2.3-3.6C9.9 8.3 9 4.6 8.7 1c-.1-.6-.5-1-1.1-1-.5 0-1 .4-.9.9.3 4 1.4 8 3.2 11.6.7 1.4 1.6 2.8 2.6 4 .4.5.9 1 1.4 1.4l1.4-1.3"/>
</svg>