<svg xmlns="http://www.w3.org/2000/svg" viewBox="0 0 64 64">
    <title>rosette</title>
    <path fill="#a01a5d" d="M46.5 31.2l-2.8-8.3S52.2 10.6 49 8.3c-3.2-2.3-12.6 9.5-12.6 9.5h-9S18 6.1 14.8 8.3s5.3 14.6 5.3 14.6l-2.8 8.3S3 36.3 4.2 40c1.2 3.7 15.9-.4 15.9-.4l7.3 5.2s.5 14.9 4.5 14.9 4.5-14.9 4.5-14.9l7.3-5.2s14.7 4.1 15.9.4c1.3-3.7-13.1-8.8-13.1-8.8"/>
    <g fill="#e84d88">
        <path d="M41.8 9.9c0 10-4.4 18.2-9.9 18.2S22 20 22 9.9s7.2-4.2 9.9-4.2 9.9-5.8 9.9 4.2M13 16.5c9.8 3.1 16.4 9.7 14.7 14.8-1.7 5.1-11 6.6-20.8 3.5-9.8-3.1-1.9-8-1.1-10.5.8-2.4-2.6-10.9 7.2-7.8"/>
        <path d="M10.5 45.3c6-8.1 14.5-12.2 18.9-9 4.4 3.1 3.1 12.2-3 20.4-6 8.1-8.4-.7-10.5-2.2-2.1-1.6-11.5-1.1-5.4-9.2"/>
        <path d="M37.8 56.5c-6-8.1-7.4-17.2-3-20.4 4.4-3.1 12.9.9 18.9 9 6 8.1-3.3 7.6-5.4 9.1-2.1 1.6-4.5 10.4-10.5 2.3"/>
        <path d="M57.1 34.6c-9.8 3.1-19.1 1.5-20.8-3.5-1.6-5.1 5-11.7 14.7-14.8 9.8-3.1 6.4 5.4 7.2 7.9.8 2.4 8.7 7.3-1.1 10.4"/>
    </g>
    <ellipse cx="32" cy="32.4" fill="#ffce31" rx="3.8" ry="3.7"/>
</svg>