<svg xmlns="http://www.w3.org/2000/svg" viewBox="0 0 64 64">
    <title>badminton</title>
    <path fill="#e8e8e8" d="M39.6 25.3l1.8 1.8-1.8 1.8c.4.2.9.4 1.3.5l1.4-1.4 1.8 1.8c.7 0 1.3-.1 2-.2l1.6-1.6.9.9c.4-.1.9-.3 1.3-.5l-1.3-1.3 1.8-1.8 1.9 1.9c.4-.2.7-.5 1.1-.7l-2.1-2.1 1.8-1.8 2.2 2.2c.2-.1.3-.3.5-.4.2-.2.3-.3.4-.5L54 21.7l1.8-1.8 2.1 2.1c.3-.4.5-.7.7-1.1l-2-1.9 1.8-1.8 1.3 1.3c.2-.4.4-.9.5-1.3l-.9-.9 1.6-1.6c.1-.7.2-1.3.2-2L59.3 11l1.4-1.4c-.1-.5-.3-.9-.5-1.3l-1.8 1.8-1.8-1.8 2.2-2.2c-.1-.2-.3-.3-.4-.5-.2-.2-.3-.3-.5-.4l-2.2 2.2-1.8-1.8 1.8-1.8c-.4-.2-.9-.4-1.3-.5L53 4.7l-1.8-1.8c-.7 0-1.3.1-2 .2l-1.6 1.6-.9-.9c-.4.1-.9.3-1.3.5l1.3 1.3L45 7.4l-1.9-1.9c-.4.2-.7.5-1.1.7l2.1 2.1-1.8 1.8L40 7.9c-.2.1-.3.3-.5.4s-.3.3-.4.5l2.2 2.2-1.8 1.8-2.1-2.1c-.3.4-.5.7-.7 1.1l1.9 1.9-1.8 1.8-1.3-1.3c-.2.4-.4.9-.5 1.3l.9.9-1.5 1.6c-.1.7-.2 1.3-.2 2l1.8 1.8-1.4 1.4c.1.5.3.9.5 1.3l1.8-1.8 1.8 1.8-2.2 2.2c.1.2.3.3.4.5.2.1.3.3.5.4l2.2-2.3m18.8-13.4l1.8 1.8-1.8 1.8-1.8-1.8 1.8-1.8m-2.7 2.7l1.8 1.8-1.8 1.8-1.8-1.8 1.8-1.8M53 17.3l1.8 1.8-1.8 1.7-1.8-1.8 1.8-1.7m-2.7 2.6l1.8 1.8-1.8 1.8-1.8-1.8 1.8-1.8m-2.7 2.7l1.8 1.8-1.8 1.8-1.8-1.8 1.8-1.8M45 25.3l1.8 1.8-1.8 1.8-1.8-1.8 1.8-1.8M55.7 9.2l1.8 1.8-1.8 1.8-1.8-1.8 1.8-1.8M53 11.9l1.8 1.8-1.8 1.8-1.8-1.8 1.8-1.8m-2.7 2.7l1.8 1.8-1.8 1.8-1.8-1.8 1.8-1.8m-2.7 2.7l1.8 1.8-1.8 1.8-1.8-1.9 1.8-1.7M45 19.9l1.8 1.8-1.8 1.8-1.8-1.8 1.8-1.8m-2.7 2.7l1.8 1.8-1.8 1.8-1.8-1.8 1.8-1.8m-5.4-1.8L35.1 19l1.8-1.8 1.8 1.8-1.8 1.8m2.7-2.7l-1.8-1.8 1.8-1.8 1.8 1.8-1.8 1.8m2.7-2.6l-1.8-1.8 1.8-1.8 1.8 1.8-1.8 1.8m2.7-2.7L43.2 11 45 9.2l1.8 1.8-1.8 1.8m2.6-2.7l-1.8-1.8 1.8-1.8 1.8 1.8-1.8 1.8m2.7-2.7l-1.8-1.8 1.8-1.8 1.8 1.8-1.8 1.8M39.6 23.5l-1.8-1.8 1.8-1.8 1.8 1.8-1.8 1.8m2.7-2.7L40.5 19l1.8-1.8 1.8 1.8-1.8 1.8m2.7-2.7l-1.8-1.8 1.8-1.8 1.8 1.8-1.8 1.8m2.6-2.6l-1.8-1.8 1.8-1.8 1.8 1.8-1.8 1.8m2.7-2.7L48.5 11l1.8-1.8 1.8 1.8-1.8 1.8m2.7-2.7l-1.8-1.8L53 6.5l1.8 1.8-1.8 1.8"/>
    <g fill="#b2c1c0">
        <path d="M36 28c-5.2-5.2-4.4-13.5 1.8-19.7C44.5 1.6 54.5 0 59.3 4.7c4.8 4.8 3.1 14.8-3.6 21.5-6.2 6.2-14.5 7-19.7 1.8M57.5 6.5c-3.7-3.7-12.3-2-17.9 3.6-5.2 5.2-5.9 12-1.8 16.1 4.2 4.1 10.9 3.4 16.1-1.8 5.6-5.6 7.3-14.1 3.6-17.9"/>
        <path d="M19.974 42.16l16.06-16.041 1.767 1.768-16.06 16.043z"/>
    </g>
    <path fill="#3e4347" d="M7.3 61.4s.8-1.9 1.3-2.4l9.8-9.8 3.4-5.1-1.8-1.9-5.1 3.4-9.8 9.8c-.5.5-2.4 1.3-2.4 1.3-.6.3-.7.9-.3 1.4L6 61.7c.4.5 1 .4 1.3-.3"/>
    <g fill="#b2c1c0">
        <path d="M35.3 25.1l-2.7 2.7c-1 1-1 2.6 0 3.6s2.6 1 3.6 0l2.7-2.7-3.6-3.6"/>
        <path d="M13 47.4l-.8.9 5.3 1.8zM11.3 49.2l-.9.9 5.3 1.7zM9.5 51l-.9.8 5.3 1.8zM7.7 52.7l-.9.9 5.4 1.8zM5.9 54.5l-.9.9 5.4 1.8zM16.6 47.4L15.3 46l5.1-3.3.9.9z" opacity=".5"/>
    </g>
    <path fill="#e8e8e8" d="M39.3 39.3c-1.9 1.9-1.9 5 0 7l7-7c-1.9-1.9-5-1.9-7 0"/>
    <path fill="#ed4c5c" d="M39.385 46.317l7-7 1.768 1.768-7 7z"/>
    <path fill="#e8e8e8" d="M49.8 42.8l-1.7-1.7-7 7 1.7 1.7L48.1 62l1.7-1.7-1-2.4 1.7-1.7 1.5 2 1.7-1.7-1.5-2 1.7-1.7 1.9 1.6 1.7-1.7-1.9-1.6 2.1-2.1 2.4 1 1.7-1.7-12-5.5m-1.6 5.1l-.4.4-1.5-2 1.9 1.6m.8 6.2l-1.3 1.3-1-2.4.9-.9 1.4 2m-2.9-4l-.4.4-1-2.4 1.4 2m4.7 2.2l-1.5-2 .9-.9 1.9 1.6-1.3 1.3m-2.7-7.7l2.4 1-.5.5-1.9-1.5m5.7 4.7l-1.9-1.6 1-1 2.4 1-1.5 1.6"/>
</svg>