<svg xmlns="http://www.w3.org/2000/svg" viewBox="0 0 64 64">
    <title>flag: Wales</title>
    <path fill="#f9f9f9" d="M32 2C15.4 2 2 15.4 2 32h60C62 15.4 48.6 2 32 2"/>
    <path fill="#699635" d="M32 62c16.6 0 30-13.4 30-30H2c0 16.6 13.4 30 30 30z"/>
    <path fill="none" d="M45.251 33.155s.59.556.962.833c1.212.9 2.914 1.256 4.013 2.291.643.606 1.388 2.256 1.388 2.256-.945-.584-1.89-1.159-2.776-1.388 0 0 .338 1.073.289 2.422-.046 1.247-.71 3.42-.692 4.105.024 1.003.407.999 1.517.942.17.034.484.199.484.199s-.26.15-.313.511c-.045.299 0 .902 0 .902s-.273.298-.504.285c-.191-.011-.412-.238-.597-.285-.212-.052-.453.057-.654-.028-.234-.1-.483-.504-.483-.504-.173.034-.213.197-.59.028-1.085.784-1.671.46-2.578.39 0 0-.302.603-.59.711-.232.088-.51-.066-.739.029-.205.085-.29.317-.511.34-.353.037-.42-.227-.42-.227-.069-.864-.363-.835-.568-1.158l.525-.393s-.388-.074-.553-.033c-.176.044-.353.306-.532.279-.25-.016-.32-.395-.32-.395.458-.453.01-.764-.23-1.047 0 0 .22-.315.4-.338.243-.032.597.08.895.173.304.093.364.067.547.085.625.06 1.195.192 1.805.042.53-.13 1.362-.634 1.607-1.091.187-.35.36-.76.36-.76-.308-.069-.564-.91 0-1.362-.408-.371-.61-.78-.174-1.304-.36-.297-.499-.689-.319-1.217-.384-.09-.672-.262-.521-.811-.642.154-1.076.075-1.101-.464-.58.483-1.16.464-1.74-.058-1.057.691-1.929.327-2.201-.203-1.145.375-1.98-.18-2.029-.956-1.042.06-1.493-.864-1.403-1.407-.487.21-1.06.643-1.837.419-.508.333-1.318.522-1.847.405-.611.445-1.215 1.237-2.358 1.385-.19.356-.806 1.427-2.238 1.385-1.077 1.098-1.838 1.132-2.586.902-1.04.99-1.898.72-2.23.32.11 1.054.066 2.108-.334 3.161-.202-.997-.481-1.972-.938-2.905-.885 1.584-1.963 3.293-3.8 5.513 0 0 .443.099.958.085.406-.011.852-.146 1.158-.085.17.033.483.199.483.199s-.258.15-.312.511c-.045.299 0 .902 0 .902s-.273.297-.505.284c-.19-.01-.411-.238-.596-.284-.212-.052-.454.057-.654-.028-.235-.1-.483-.505-.483-.505-.173.035-.213.198-.59.029-1.085.784-1.671.46-2.578.39 0 0-.302.603-.59.711-.232.087-.51-.066-.739.028-.206.085-.29.318-.511.341-.353.037-.42-.227-.42-.227-.069-.864-.363-.835-.568-1.158l.525-.394s-.388-.073-.553-.032c-.176.044-.353.306-.532.279-.25-.016-.32-.395-.32-.395.458-.453.01-.764-.23-1.047 0 0 .22-.315.4-.339.242-.03.597.082.895.173.304.094.363.068.547.086.625.06 1.195.192 1.804.042.53-.13 1.022-.451 1.421-.824.471-.44 1.158-1.563 1.158-1.563-.003-.626-.002-1.25.597-1.676-.2-.76-.125-1.023.37-1.421-.232-.347-.156-.574-.143-.824-1.092-.212-1.761-1.467-1.563-2.344-1.237-.456-1.43-2.272-.788-2.998-.792-1.011-.427-2.652.298-3.005-.565-.917-.136-2.22.561-2.394-.109-.774.118-1.408.846-1.82-.251-1.168.173-1.784.966-2.102-.352-.496-.197-1.411.582-1.648.046-.17.088-.343.121-.512.17-.865.168-1.7-.114-2.514l3.794-2.771c.65.316 1.102.795 1.407 1.378.926.434 2.024.71 2.898 1.783-.49-.189-1.639-.239-2.408-.078.025.204.047.406.057.618.788.513 1.553.847 2.4 2.004-.509-.228-1.771-.332-2.542-.17-.035.238-.074.487-.114.738.81.592 1.603.917 2.45 2.167-.549-.27-2.006-.424-2.741-.213-.02.161-.035.322-.05.483.799.577 1.579.913 2.415 2.145-.482-.237-1.664-.38-2.444-.27.138 1.38.713 2.49 2.252 2.891 2.916.76 7.066-1.295 10.074-1.342 2.024-.032 3.045.171 5.03.59 1.036.218 1.931.658 3.076.794.796.095 1.602.102 2.39-.046.463-.087.933-.24 1.318-.511.286-.203.7-.736.7-.736-2.19.946-4.47-.178-4.363-2.104.08-1.46 1.6-2.647 3.572-2.647 1.974 0 3.395 1.477 3.5 3.229.136 2.255-.97 3.742-2.377 4.716-1.307.906-2.986 1.34-4.681 1.452z"/>
    <g>
        <path fill="#c94747" d="M32.11 35.915s.555-3.91-.038-5.724c-.329-1.004-1.628-1.539-1.855-2.571-.276-1.251.733-3.774.733-3.774l11.303-13.108c-1.57 3.223-1.117 5.753 1.348 5.929-5.028 5.456-2.946 6.098-2.176 7.728-2.333 2.114-3.942 4.414-1.774 6.754-2.325.774-5.409 3.033-4.696 6.577z"/>
        <path fill="#ed4c5c" d="M32.163 33.434c-1.582.354-3.13.577-4.432.238-1.54-.4-2.115-1.513-2.252-2.892.78-.11 1.961.033 2.444.27-.836-1.232-1.616-1.568-2.415-2.145.015-.16.03-.322.05-.483.734-.21 2.192-.057 2.741.213-.848-1.25-1.64-1.575-2.45-2.167.04-.251.078-.5.113-.739.771-.161 2.034-.057 2.543.17-.847-1.156-1.613-1.49-2.401-2.002a8.137 8.137 0 0 0-.057-.619c.77-.16 1.92-.11 2.409.079-.874-1.074-1.972-1.35-2.899-1.783a3.397 3.397 0 0 0-.258-.42c.134-.052.292-.088.49-.1-.94-.887-.18-1.382.682-1.853-.472-.087-.839-.145-.98-.395-.364-.642.289-1.548-.059-2.562 0 0-.384.985-1.089 1.599-.485.422-1.387.804-1.669 1.202-.297.42-.253.83-.253.83-1.69-.775-4.585-.824-4.77.398-.429-.116-1.153-.095-1.44.452-.355-.189-1.11-.1-1.29.606-1.242-.034-1.95.375-2.807.937 1.183-.052 1.795-.086 2.906.143 0 0-.065.909.777 1.149.444.126.995-.127.995-.127l.293.319c-.536.129-1.09.225-1.644.265-1.153.083-2.259.092-3.176-.078.401-.15.637-.466.91-.682-2.216.041-3.162-.662-4.057-1.293-.016-.027.253 1.19 1.577 2.224.704.549 1.855 1.837 1.855 1.925.012-.866-.209-1.278-.484-1.62 1.115.259 2.418.288 3.481.2 1.584-.133 3.206-.447 4.54-.786 0 .13-.024.247-.083.332-.263.376-.87.01-1.178.048-.334.04-.63.17-.887.465-.169-.054-.86-.193-.86-.193s.01.462.111.781c-.297-.124-.89-.186-.89-.186s.17.358.354.729c.005.675-.246 1.373.444 2.626.286-.885.301-1.848.977-2.621-.14.378-.096.757 0 1.136.31-.474.755-1.159 1.156-1.31.417-.16.821-.017 1.22-.148-.03.141-.063.284-.101.426-.78.237-.935 1.153-.583 1.648-.793.318-1.217.934-.966 2.103-.728.41-.954 1.045-.845 1.819-.697.174-1.127 1.477-.562 2.394-.725.353-1.09 1.994-.298 3.005-.186.21-.3.514-.34.848l-.006.002c-.524-.533-1.049-.554-1.573-.469-.137-.51-.423-.872-1.004-.937-.019-.665-.35-.964-.904-1.004 0 0 .05-.519 0-.736-.169-.738-.853-1.977-.853-1.977a3.887 3.887 0 0 0-.221-.387c-.16-2.384 1.372-2.87 1.282-3.562l-.024.013c.119-.708-.21-1.482-.802-1.81.158.601.176 1.143.004 1.493-.003-.015-.01-.028-.011-.044 0 0-.257-.063-.354.026-.137.125.068.396-.024.558-.092.16-.285.225-.47.299a1.42 1.42 0 0 1 .093-.385c.105-.294.233-.643.213-.887-.015-.18-.32-.415-.32-.415l-.069.057c-.146-.71-.747-1.315-1.426-1.4.443.595.67 1.184.516 1.594-.026-.023-.05-.039-.077-.068 0 0-.382.053-.41.302-.034.178.22.367.255.545.034.166-.057.55-.057.55l-.37-.541c-.016.009-.027.02-.042.029-.191-.706-.84-1.276-1.53-1.311.523.604.8 1.223.599 1.648l.12.118c-.093.015-.199.027-.329.032 0 0-.267.055-.246.408.014.223.242.317.318.527.084.233-.081.503-.004.739.095.293.683.621.683.621-.11.903-.46 1.474.276 2.593-.186.369-.025.416.002.59 0 0-.416.23-.526.46-.094.197.005.443-.057.652-.055.183-.292.394-.311.584-.024.23.261.517.261.517s.226-.005.468.003l-.013.01c.163.442-.168 1.034-.743 1.59.72.027 1.442-.531 1.665-1.262l.022.034s.178-.305.22-.474c.074-.302-.041-.755-.034-1.16.01-.516.162-.62.162-.62.226.768.24 1.636.627 2.404.955 1.891 2.615 3.716 4.181 5.607.396.915.217 1.83 0 2.744 1.022-.85 1.379-1.85 1.606-2.878 1.045.001 1.566-.172 1.92-.413-.02.208-.044.416.15.709-.493.398-.568.662-.369 1.421-.599.426-.6 1.05-.597 1.677 0 0-.686 1.122-1.158 1.562a4.225 4.225 0 0 1-.333.28c-2.42.254-2.95-1.287-3.645-1.177.01.012.014.026.022.039-.718-.098-1.49.268-1.794.88.58-.181 1.112-.227 1.47-.082-.008.001-.014.005-.022.006 0 0-.055.258.036.352.13.134.394-.079.559.009.164.088.234.28.313.464a1.418 1.418 0 0 1-.377-.074c-.298-.092-.653-.202-.896-.17-.18.022-.397.333-.397.333l.06.067c-.704.177-1.284.804-1.338 1.487.575-.47 1.154-.72 1.57-.584-.021.027-.037.053-.065.081 0 0 .07.375.32.39.179.028.356-.232.532-.276.165-.04.555.036.555.036l-.527.39c.01.016.02.027.03.04-.696.224-1.236.898-1.24 1.588.58-.55 1.186-.854 1.62-.671l.112-.126c.02.094.036.198.047.327 0 0 .066.265.419.228.221-.023.306-.256.512-.341.23-.095.506.058.739-.029.288-.108.59-.71.59-.71.907.07 1.492.393 2.578-.391.376.169.416.007.59-.028 0 0 .248.404.483.504.2.085.441-.024.653.029.185.046.406.273.597.284.232.013.504-.284.504-.284s-.015-.225-.017-.468l.01.013c.434-.183 1.04.121 1.62.67-.004-.719-.593-1.415-1.333-1.606l.033-.023s-.313-.166-.484-.2c-.305-.06-.751.075-1.157.086-.516.014-.96-.085-.96-.085 1.839-2.22 2.917-3.93 3.801-5.513.457.933.737 1.908.938 2.905.4-1.053.444-2.107.334-3.16.332.4 1.19.668 2.23-.32.748.229 1.51.196 2.587-.902.445.013.812-.082 1.11-.23-.13.688.006 1.547.926 1.986.265.765.81 1.68 2.353 1.259.378.215.757.338 1.135.363-.414.156-.815.325-1.043.667-.425.101-.9.152-.962.617-.366.07-.73.144-.911.583a4.18 4.18 0 0 1-.315.175c-2.77.48-3.323-1.232-4.055-1.116.01.012.014.026.022.039-.718-.097-1.489.269-1.793.881.58-.181 1.11-.227 1.468-.083-.008.002-.013.005-.02.006 0 0-.056.258.036.352.13.134.394-.078.558.01.156.082.226.26.3.435a1.436 1.436 0 0 1-.364-.074c-.298-.091-.653-.204-.895-.173-.18.024-.4.339-.4.339.023.028.053.058.08.087-.712.171-1.301.805-1.356 1.493.566-.463 1.137-.714 1.552-.592-.017.02-.027.038-.047.059 0 0 .07.379.32.395.18.027.356-.235.532-.28.165-.04.554.034.554.034l-.525.393c.015.024.032.043.048.064-.705.217-1.255.895-1.26 1.591.581-.55 1.188-.853 1.622-.671 0 0 .062-.068.117-.132a2.7 2.7 0 0 1 .041.306s.067.264.42.228c.221-.024.305-.256.511-.341.23-.095.506.058.739-.03.288-.108.59-.71.59-.71.907.07 1.493.394 2.578-.39.377.169.417.006.59-.028 0 0 .248.404.483.504.2.085.442-.025.654.028.185.046.405.274.596.285.232.013.505-.285.505-.285s-.014-.208-.018-.439l.01.012c.435-.182 1.041.122 1.621.672-.004-.728-.607-1.431-1.359-1.613.033-.027.059-.045.059-.045s-.314-.166-.484-.2c-.306-.06-.752.075-1.158.086-.515.014-.732-.086-.732-.086 2.332-.68 4.015-1.859 5.242-3.845.874.05 1.414.054 2.188.906 0 0 .006-.998-1.056-1.85-.906-.726-2.45-.48-3.208-1.358a1.223 1.223 0 0 1-.264-1.02c.138-.598.776-1.302 1.329-1.824.233.234.566.398 1.019.371.048.776.887 1.334 2.031.96.272.528 1.144.89 2.202.198.58.522 1.154.54 1.734.057.025.54.459.623 1.1.469-.15.549.142.72.526.81-.18.528-.04.918.32 1.215-.436.524-.237.936.171 1.307-.564.452-.308 1.288 0 1.357 0 0-.175.41-.362.76-.122.227-.39.467-.692.666-2.269.162-2.793-1.296-3.47-1.188.009.012.014.026.021.039-.718-.098-1.49.267-1.794.88.58-.181 1.111-.227 1.469-.082-.007.001-.013.005-.02.006 0 0-.056.258.035.352.13.134.394-.079.559.009.13.07.199.21.262.355a1.548 1.548 0 0 1-.327-.071c-.298-.092-.653-.202-.895-.17-.18.023-.398.334-.398.334.043.05.094.104.144.157-.74.147-1.364.793-1.42 1.503.543-.445 1.093-.699 1.503-.609 0 .002.07.375.32.39.179.028.356-.233.532-.277.165-.04.555.036.555.036l-.526.39a.883.883 0 0 0 .103.131c-.73.199-1.308.89-1.313 1.603.58-.55 1.186-.854 1.62-.672 0 0 .067-.07.128-.143.012.072.023.149.03.24 0 0 .067.264.42.227.221-.023.305-.256.511-.341.23-.095.506.059.739-.029.288-.108.59-.71.59-.71.907.07 1.492.393 2.578-.39.376.168.416.006.59-.029 0 0 .248.405.483.504.2.085.442-.024.654.029.185.046.405.273.596.284.232.013.505-.284.505-.284s-.012-.163-.017-.362l.01.012c.435-.182 1.041.122 1.621.671-.005-.749-.643-1.472-1.425-1.627a.693.693 0 0 1 .123-.108s-.313-.165-.483-.199c-1.11.058-1.496.059-1.52-.945-.017-.684.65-2.852.696-4.099.049-1.348-.292-2.422-.292-2.422.887.229 1.832.8 2.778 1.385 0 0-.742-1.646-1.385-2.252-1.099-1.035-2.802-1.395-4.014-2.295-.372-.276-.966-.83-.966-.83 1.695-.114 3.374-.551 4.682-1.457 1.407-.974 2.515-2.455 2.38-4.71-.02-.34-.092-.67-.206-.98a30.08 30.08 0 0 0 .926-4.132c.516 1.203.908 1.856 1.678 2.573-.76-3.127-1.089-5.274-1.118-7.943-1.509 2.961-2.682 4.71-4.624 6.414 1.031.072 1.952-.516 2.983-1.23-.297.981-.552 2.054-.817 2.915a3.509 3.509 0 0 0-2.325-.85c-1.973 0-3.493 1.191-3.573 2.65-.106 1.926 2.27 3.072 4.46 2.126 0 0-.508.507-.794.71-.385.271-.852.424-1.315.51-.788.148-1.597.145-2.394.05-1.144-.136-2.039-.577-3.076-.796-1.984-.418-3.006-.621-5.03-.59a8.35 8.35 0 0 0-.738.052c-3.12.071-3.21.414-4.903 1.054zM19.3 22.575c.132.076.249.183.353.303-.437.186-.93.377-1.464.553.289-.653.94-.807 1.11-.856zm-1.696.649l.364.28c-.197.062-.4.118-.605.172zm31.283 6.42c.07-.003.14-.003.206 0 .633.026 1.195.296 1.499.724-.416.481-1.516.774-2.26.554-.234-.075-.529-.358-.511-.603.035-.49.573-.657 1.066-.676z"/>
        <path fill="#f9f9f9" d="M20.4 20.852c-.05.392-.509.896-1.068.82-.66-.09-1.175-.717-.96-1.076.203-.339.59-.19 1.15-.119.56.07.927-.017.877.375z"/>
        <path fill="#ed4c5c" d="M31.264 35.95s1.842-3.494 1.897-5.401c.03-1.057-1.013-1.999-.878-3.047.163-1.27 1.964-3.304 1.964-3.304l15.066-8.523c-2.567 2.504-2.995 5.038-.734 6.036-6.574 3.439-4.832 4.746-4.657 6.54-2.91 1.202-5.201 2.824-3.95 5.758-2.45-.056-6.116 1.03-6.641 4.605z"/>
    </g>
</svg>