<svg xmlns="http://www.w3.org/2000/svg" viewBox="0 0 64 64">
    <title>
        Northern Ireland
    </title>
    <path fill="#f9f9f9" d="M32 1.898a30.101 30.101 0 0 0-21.186 8.737L32 26.938l21.178-16.3A30.101 30.101 0 0 0 32 1.899zm-21.186 8.737a30.101 30.101 0 0 0-4.882 6.367 30.101 30.101 0 0 1 4.882-6.367zm-4.882 6.367A30.101 30.101 0 0 0 1.898 32a30.101 30.101 0 0 0 4.043 14.992L25.421 32zm.01 29.99a30.101 30.101 0 0 0 1.574 2.455 30.101 30.101 0 0 1-1.575-2.455zm47.244-36.346a30.101 30.101 0 0 1 1.142 1.217 30.101 30.101 0 0 0-1.142-1.217zm1.523 1.65a30.101 30.101 0 0 1 1.666 2.104 30.101 30.101 0 0 0-1.666-2.103zm1.775 2.257a30.101 30.101 0 0 1 1.575 2.455 30.101 30.101 0 0 0-1.575-2.455zm1.575 2.455L38.579 32l19.49 14.998A30.101 30.101 0 0 0 62.101 32a30.101 30.101 0 0 0-4.043-14.992zm.01 29.99a30.101 30.101 0 0 1-4.883 6.367 30.101 30.101 0 0 0 4.882-6.367zm-4.883 6.367L32 37.062l-21.178 16.3A30.101 30.101 0 0 0 32 62.101a30.101 30.101 0 0 0 21.186-8.737zM7.625 49.6a30.101 30.101 0 0 0 1.666 2.103A30.101 30.101 0 0 1 7.625 49.6zm2.047 2.537a30.101 30.101 0 0 0 1.142 1.217 30.101 30.101 0 0 1-1.142-1.217z"/>
    <path fill="#ed4c5c" d="M32 1.898a30.101 30.101 0 0 0-2.576.131A30.101 30.101 0 0 1 32 1.9zm2.672.133a30.101 30.101 0 0 1 1.746.233 30.101 30.101 0 0 0-1.746-.233zm-6.693.174a30.101 30.101 0 0 0-1.547.234 30.101 30.101 0 0 1 1.547-.234zm9.662.244a30.101 30.101 0 0 1 1.85.436 30.101 30.101 0 0 0-1.85-.436zm-12.536.287a30.101 30.101 0 0 0-1.658.426 30.101 30.101 0 0 1 1.658-.426zm15.416.412a30.101 30.101 0 0 1 2.026.698 30.101 30.101 0 0 0-2.026-.698zm-18.197.387a30.101 30.101 0 0 0-1.732.633 30.101 30.101 0 0 1 1.732-.633zm20.996.594a30.101 30.101 0 0 1 2.159.994 30.101 30.101 0 0 0-2.159-.994zm-23.744.494a30.101 30.101 0 0 0-1.726.836 30.101 30.101 0 0 1 1.726-.836zm26.434.758a30.101 30.101 0 0 1 2.193 1.289 30.101 30.101 0 0 0-2.193-1.29zm-29.067.598a30.101 30.101 0 0 0-1.69 1.037 30.101 30.101 0 0 1 1.69-1.037zm31.633.92a30.101 30.101 0 0 1 2.184 1.599 30.101 30.101 0 0 0-2.184-1.6zm-34.11.681a30.101 30.101 0 0 0-1.642 1.25 30.101 30.101 0 0 1 1.643-1.25zm36.51 1.082a30.101 30.101 0 0 1 2.112 1.897 30.101 30.101 0 0 0-2.111-1.897zM11.948 9.6a30.101 30.101 0 0 0-1.13 1.033 30.101 30.101 0 0 1 1.13-1.033zm-1.133 1.035a30.101 30.101 0 0 0-.007.008 30.101 30.101 0 0 0-1.69 1.859 30.101 30.101 0 0 0-.928 1.17 30.101 30.101 0 0 0-.896 1.21 30.101 30.101 0 0 0-1.361 2.12L25.422 32 5.942 46.992A30.101 30.101 0 0 0 7.624 49.6a30.101 30.101 0 0 0 .002.004 30.101 30.101 0 0 0 1.662 2.095 30.101 30.101 0 0 0 .002.004 30.101 30.101 0 0 0 .38.434 30.101 30.101 0 0 0 .005.004 30.101 30.101 0 0 0 1.135 1.209 30.101 30.101 0 0 0 .003.003 30.101 30.101 0 0 0 .008.008L32 37.062l21.186 16.303a30.101 30.101 0 0 0 .002-.002 30.101 30.101 0 0 0 1.695-1.865 30.101 30.101 0 0 0 .933-1.176 30.101 30.101 0 0 0 .89-1.199 30.101 30.101 0 0 0 1.362-2.125L38.578 32l19.48-14.992a30.101 30.101 0 0 0-1.683-2.608 30.101 30.101 0 0 0-.002-.004 30.101 30.101 0 0 0-1.654-2.087 30.101 30.101 0 0 0-.39-.446 30.101 30.101 0 0 0-.02-.021 30.101 30.101 0 0 0-1.104-1.176 30.101 30.101 0 0 0-.03-.025L32 26.938zm47.254 36.363a30.101 30.101 0 0 0 1.278-2.492 30.101 30.101 0 0 1-1.278 2.492zm0 0a30.101 30.101 0 0 1-1.363 2.125 30.101 30.101 0 0 1-.234.367 30.101 30.101 0 0 0 1.597-2.492zm-2.252 3.324a30.101 30.101 0 0 1-.933 1.176 30.101 30.101 0 0 1-.237.299 30.101 30.101 0 0 0 1.676-2.113 30.101 30.101 0 0 1-.506.638zm-2.63 3.043a30.101 30.101 0 0 1-1.122 1.026 30.101 30.101 0 0 0 1.122-1.026zM5.94 46.992a30.101 30.101 0 0 1-1.607-3.215 30.101 30.101 0 0 0 1.607 3.215zm-.01-29.99a30.101 30.101 0 0 0-1.267 2.47 30.101 30.101 0 0 1 1.268-2.47zm0 0a30.101 30.101 0 0 1 1.362-2.12 30.101 30.101 0 0 1 .238-.37 30.101 30.101 0 0 0-1.6 2.49zm2.258-3.33a30.101 30.101 0 0 1 .928-1.17 30.101 30.101 0 0 1 .237-.297 30.101 30.101 0 0 0-1.674 2.111 30.101 30.101 0 0 1 .51-.644zm49.874 3.342a30.101 30.101 0 0 1 1.619 3.246 30.101 30.101 0 0 0-1.62-3.246zM4.53 19.748a30.101 30.101 0 0 0-.935 2.389 30.101 30.101 0 0 1 .935-2.389zm55.168.549a30.101 30.101 0 0 1 .944 2.562 30.101 30.101 0 0 0-.944-2.562zm-56.267 2.29a30.101 30.101 0 0 0-.637 2.267 30.101 30.101 0 0 1 .637-2.266zm57.334.645a30.101 30.101 0 0 1 .593 2.297 30.101 30.101 0 0 0-.593-2.297zM2.619 25.543a30.101 30.101 0 0 0-.355 2.035 30.101 30.101 0 0 1 .355-2.035zm58.902.709a30.101 30.101 0 0 1 .311 2.014 30.101 30.101 0 0 0-.31-2.014zm-59.41 2.334a30.101 30.101 0 0 0-.129 1.719 30.101 30.101 0 0 1 .13-1.72zm59.85.76A30.101 30.101 0 0 1 62.1 32a30.101 30.101 0 0 0-.14-2.654zM1.898 32a30.101 30.101 0 0 0 .141 2.654A30.101 30.101 0 0 1 1.9 32zm60.12 1.697a30.101 30.101 0 0 1-.13 1.721 30.101 30.101 0 0 0 .13-1.72zM2.17 35.737a30.101 30.101 0 0 0 .309 2.017 30.101 30.101 0 0 1-.31-2.018zm59.568.683a30.101 30.101 0 0 1-.357 2.033 30.101 30.101 0 0 0 .357-2.033zm-59.1 2.039a30.101 30.101 0 0 0 .594 2.305 30.101 30.101 0 0 1-.593-2.305zm58.563.701a30.101 30.101 0 0 1-.633 2.254 30.101 30.101 0 0 0 .633-2.254zM3.365 41.164a30.101 30.101 0 0 0 .928 2.523 30.101 30.101 0 0 1-.928-2.523zm57.04.7a30.101 30.101 0 0 1-.94 2.396 30.101 30.101 0 0 0 .94-2.397zM10.854 53.39a30.101 30.101 0 0 0 2.166 1.947 30.101 30.101 0 0 1-2.166-1.947zm40.317 1.785a30.101 30.101 0 0 1-1.613 1.228 30.101 30.101 0 0 0 1.613-1.228zm-37.914.342a30.101 30.101 0 0 0 2.152 1.576 30.101 30.101 0 0 1-2.152-1.576zm35.476 1.476a30.101 30.101 0 0 1-1.67 1.026 30.101 30.101 0 0 0 1.67-1.026zm-32.884.37a30.101 30.101 0 0 0 2.14 1.257 30.101 30.101 0 0 1-2.14-1.258zm30.3 1.179a30.101 30.101 0 0 1-1.726.836 30.101 30.101 0 0 0 1.726-.836zm-27.629.336a30.101 30.101 0 0 0 2.157.994 30.101 30.101 0 0 1-2.157-.994zm24.887.955a30.101 30.101 0 0 1-1.732.633 30.101 30.101 0 0 0 1.732-.633zm-21.96.318a30.101 30.101 0 0 0 2.048.705 30.101 30.101 0 0 1-2.049-.705zm19.107.686a30.101 30.101 0 0 1-1.71.437 30.101 30.101 0 0 0 1.71-.437zm-16.135.256a30.101 30.101 0 0 0 1.96.463 30.101 30.101 0 0 1-1.96-.463zm13.182.46a30.101 30.101 0 0 1-1.65.253 30.101 30.101 0 0 0 1.65-.252zm-10.036.182a30.101 30.101 0 0 0 1.739.23 30.101 30.101 0 0 1-1.739-.23zm7.038.233a30.101 30.101 0 0 1-2.604.133 30.101 30.101 0 0 0 2.604-.133z"/>
</svg>