<svg xmlns="http://www.w3.org/2000/svg" viewBox="0 0 64 64">
    <title>castle</title>
    <g fill="#3e4347">
        <path d="M26.5 43v20s.6 1 1 1 1-1 1-1V43h-2M31.5 43h-1v20s.6 1 1 1 1-1 1-1V43h-1M34.5 43v20s.6 1 1 1 1-1 1-1V43h-2"/>
        <path d="M23 51h17v2H23zM23 47h17v2H23zM23 55h17v2H23zM23 59h17v2H23zM12.5 11c0 .6-.4 1-1 1s-1-.4-1-1V1c0-.6.4-1 1-1s1 .4 1 1v10M32.5 11c0 .6-.5 1-1 1s-1-.4-1-1V1c0-.6.5-1 1-1s1 .4 1 1v10M52.5 11c0 .6-.5 1-1 1s-1-.4-1-1V1c0-.6.5-1 1-1s1 .4 1 1v10"/>
    </g>
    <g fill="#b2c1c0">
        <path d="M22 22h18v16H22zM6 18h10v20H6zM46 18h10v20H46z"/>
    </g>
    <g fill="#42ade2">
        <path d="M31.5 10l-12 12h24zM11.5 10l-8 8h16zM51.5 10l-8 8h16z"/>
    </g>
    <g fill="#3e4347">
        <circle cx="31.5" cy="29" r="3"/>
        <path d="M28.5 29h6v9h-6z"/>
    </g>
    <path fill="#dae3ea" d="M57.5 32h-4c-.5 0-1 .5-1 1v4c0 .5-.5 1-1 1h-4c-.5 0-1-.5-1-1v-4c0-.5-.5-1-1-1h-4c-.5 0-1 .5-1 1v4c0 .5-.5 1-1 1h-4c-.5 0-1-.5-1-1v-4c0-.5-.5-1-1-1h-4c-.5 0-1 .5-1 1v4c0 .5-.5 1-1 1h-4c-.5 0-1-.5-1-1v-4c0-.5-.5-1-1-1h-4c-.5 0-1 .5-1 1v4c0 .5-.5 1-1 1h-4c-.6 0-1-.5-1-1v-4c0-.5-.4-1-1-1h-4c-.6 0-1 .5-1 1v4c0 .5.3 1.3.7 1.7l.6.6c.4.4.7 1.2.7 1.7v22c0 .5.4 1 1 1h16V52c0-4.4 3.6-8 8-8s8 3.6 8 8v12h16c.5 0 1-.5 1-1V41c0-.5.3-1.3.7-1.7l.6-.6c.4-.4.7-1.2.7-1.7v-4c0-.5-.5-1-1-1"/>
    <g fill="#3e4347">
        <path d="M9.5 22h4v6h-4z"/>
        <circle cx="11.5" cy="22" r="2"/>
        <path d="M49.5 22h4v6h-4z"/>
        <circle cx="51.5" cy="22" r="2"/>
    </g>
    <path fill="#b2c1c0" d="M10 44H6c-.6 0-1 .5-1 1v2c0 .5.4 1 1 1h4c.6 0 1-.5 1-1v-2c0-.5-.4-1-1-1"/>
    <g fill="#42ade2">
        <path d="M20.5 6.6c-2.7-1.5-5.3 1.5-8 0V1.5c2.7 1.5 5.3-1.5 8 0-.7.5-1.3 1.2-2 2.1.7.8 1.3 1.7 2 3M40.5 6.6c-2.7-1.5-5.3 1.5-8 0V1.5c2.7 1.5 5.3-1.5 8 0-.7.5-1.3 1.2-2 2.1.7.8 1.3 1.7 2 3M60.5 6.6c-2.7-1.5-5.3 1.5-8 0V1.5c2.7 1.5 5.3-1.5 8 0-.7.5-1.3 1.2-2 2.1.7.8 1.3 1.7 2 3"/>
    </g>
    <g fill="#b2c1c0">
        <path d="M13 50H9c-.6 0-1 .5-1 1v2c0 .5.4 1 1 1h4c.6 0 1-.5 1-1v-2c0-.5-.4-1-1-1M21.8 60h-4c-.5 0-1 .5-1 1v2c0 .5.5 1 1 1h4c.5 0 1-.5 1-1v-2c0-.5-.5-1-1-1M19.7 55h-4c-.6 0-1 .5-1 1v2c0 .5.4 1 1 1h4c.5 0 1-.5 1-1v-2c0-.5-.5-1-1-1M21.8 47h-4c-.5 0-1 .5-1 1v2c0 .5.5 1 1 1h4c.5 0 1-.5 1-1v-2c0-.5-.5-1-1-1M19 39.9h-4c-.6 0-1 .5-1 1v2c0 .5.4 1 1 1h4c.5 0 1-.5 1-1v-2c0-.5-.5-1-1-1M10 56H6c-.6 0-1 .5-1 1v2c0 .5.4 1 1 1h4c.6 0 1-.5 1-1v-2c0-.5-.4-1-1-1M57 50h-4c-.5 0-1 .5-1 1v2c0 .5.5 1 1 1h4c.5 0 1-.5 1-1v-2c0-.5-.5-1-1-1M54 56h-4c-.5 0-1 .5-1 1v2c0 .5.5 1 1 1h4c.5 0 1-.5 1-1v-2c0-.5-.5-1-1-1M49.5 44.7h-4c-.5 0-1 .5-1 1v2c0 .5.5 1 1 1h4c.5 0 1-.5 1-1v-2c0-.6-.5-1-1-1M45.5 51.5h-4c-.5 0-1 .5-1 1v2c0 .5.5 1 1 1h4c.5 0 1-.5 1-1v-2c0-.5-.5-1-1-1M47.4 60h-4c-.5 0-1 .5-1 1v2c0 .5.5 1 1 1h4c.5 0 1-.5 1-1v-2c0-.5-.5-1-1-1M56.5 39.2h-4c-.5 0-1 .5-1 1v2c0 .5.5 1 1 1h4c.5 0 1-.5 1-1v-2c0-.6-.5-1-1-1M41 40.2h-4c-.5 0-1 .5-1 1v2c0 .5.5 1 1 1h4c.5 0 1-.5 1-1v-2c0-.6-.5-1-1-1"/>
    </g>
    <g fill="#e8e8e8">
        <path d="M13.5 27.9h-4c-.6 0-1 .5-1 1v.2c0 .5.4 1 1 1h4c.6 0 1-.5 1-1v-.2c0-.6-.4-1-1-1M53.5 27.9h-4c-.5 0-1 .5-1 1v.2c0 .5.5 1 1 1h4c.5 0 1-.5 1-1v-.2c0-.6-.5-1-1-1"/>
    </g>
</svg>