<svg xmlns="http://www.w3.org/2000/svg" viewBox="0 0 64 64">
    <title>amphora</title>
    <path fill="#b95a1e" d="M25 53h14l3-3H22z"/>
    <g fill="#3e4347">
        <path d="M22.6 24.9l-5.1 4.8v-8.6s2.1-1.1 2.1.8c0 2.1 3 3 3 3"/>
        <path d="M19.9 11.1c2.3 0 3.7-2.2 3.7-4.1 0-3.1-2.3-4.9-5.3-4.9-2.3 0-5.6 2.3-4.6 6.9 1.1 5.2 2.2 14.8 2.2 14.8l1.9-.3c-.2-8.6-.8-13-.8-13s1.2.6 2.9.6"/>
    </g>
    <path fill="#dbb471" d="M19.1 7.4c-.1-.2-.2-.4-.3-.5-.1-.1-.3 0-.4.1-.3.3-.4.6-.2.9.3.6 1.1.7 1.7.4.6-.2.7-1 .6-1.7-.1-.8-.4-1.3-1-1.6-.6-.4-1.3-.5-1.9-.2-.7.3-1.2.8-1.5 1.5-.3.7-.4 1.5-.2 2.2.1.8.5 1.5 1.2 2-.8-.2-1.3-1-1.7-1.8-.3-.8-.3-1.7 0-2.6.3-.9 1-1.6 1.8-2 .9-.5 2-.3 2.8.2.4.3.8.6 1 1 .3.5.4.9.4 1.4 0 .5 0 .9-.2 1.4-.1.2-.2.5-.4.7-.2.2-.4.3-.7.4-.4.2-1 .2-1.4.1-.5-.2-.9-.5-1-1-.1-.5.2-1 .5-1.2.1-.1.2-.1.3-.1.1 0 .3 0 .4.1.1-.1.2.1.2.3"/>
    <g fill="#3e4347">
        <path d="M41.4 24.9l5.1 4.8v-8.6s-2.1-1.1-2.1.8c0 2.1-3 3-3 3"/>
        <path d="M44.1 11.1c-2.3 0-3.7-2.2-3.7-4.1 0-3.1 2.3-4.9 5.3-4.9 2.3 0 5.6 2.3 4.6 6.9-1.1 5.2-2.2 14.8-2.2 14.8l-1.9-.3c.2-8.6.8-13 .8-13s-1.2.6-2.9.6"/>
    </g>
    <path fill="#dbb471" d="M44.9 7.4c0-.2 0-.4.2-.6.1-.1.2-.2.4-.1.1 0 .2.1.3.1.3.2.7.7.5 1.2-.1.5-.5.9-1 1-.5.2-1 .1-1.4-.1-.2-.1-.4-.2-.7-.4-.2-.1-.3-.3-.4-.5-.2-.5-.2-.9-.2-1.4 0-.5.1-.9.4-1.4.3-.4.6-.8 1-1 .8-.5 1.9-.6 2.8-.2.8.4 1.5 1.2 1.8 2 .3.9.2 1.8 0 2.6-.3.8-.8 1.6-1.7 1.8.7-.4 1.1-1.2 1.2-2 .2-.8.1-1.5-.2-2.2-.3-.7-.8-1.2-1.5-1.5-.6-.3-1.3-.2-1.9.2-.6.4-.9.9-1 1.6-.1.7.1 1.4.6 1.7.6.3 1.4.2 1.7-.4.1-.3 0-.6-.2-.9-.1-.1-.3-.2-.4-.1l-.3.6"/>
    <path fill="#3e4347" d="M18.7 11h26.7v2H18.7z"/>
    <path fill="#dbb471" d="M43.1 16H20.9l-1-3h24.2z"/>
    <g fill="#3e4347">
        <path d="M41.7 18H22.3l-.9-2h21.2zM22.3 60h19.4v2H22.3z"/>
    </g>
    <path fill="#dbb471" d="M23.9 57h16.2l.7 3H23.2z"/>
    <g fill="#b95a1e">
        <path d="M41.3 18H22.7s.7 2.4.7 3.2-.7 3.1-.7 3.1h18.6s-.7-2.3-.7-3.1.7-3.2.7-3.2"/>
        <path d="M47.1 33.2c0 4.4-1.7 10.4-4.1 14.8H21c-2.4-4.4-4.1-10.4-4.1-14.8C16.9 23.8 23.7 22 32 22s15.1 1.8 15.1 11.2"/>
    </g>
    <g fill="#3e4347">
        <path d="M22 12.3h1.2V16H22zM24.4 12.3h1.2V16h-1.2zM26.7 12.3h1.2V16h-1.2zM29.1 12.3h1.2V16h-1.2zM31.4 12.3h1.2V16h-1.2zM33.8 12.3H35V16h-1.2zM36.1 12.3h1.2V16h-1.2zM38.4 12.3h1.2V16h-1.2zM40.8 12.3H42V16h-1.2zM24.9 57H26v3.7h-1.1zM27.1 57h1.1v3.7h-1.1zM29.3 57h1.1v3.7h-1.1zM31.5 57h1.1v3.7h-1.1zM33.6 57h1.1v3.7h-1.1zM35.8 57h1.1v3.7h-1.1zM38 57h1.1v3.7H38zM18.5 26l-1.1 3h29.1l-1-3zM22 50h20l1-2H21zM28.094 21.25l1.698-1.696 1.696 1.697-1.697 1.697zM32.39 21.239l1.697-1.697 1.696 1.698-1.698 1.697zM23.869 21.19l1.697-1.697 1.697 1.697-1.697 1.697zM36.685 21.23l1.697-1.698 1.697 1.697-1.696 1.697zM18.571 34.987l1.06-1.061 1.061 1.06-1.06 1.06zM18.632 41.664l1.06-1.061 1.062 1.06-1.06 1.061zM24.82 41.632l1.06-1.06 1.061 1.06-1.06 1.06zM24.83 35.03l1.06-1.062 1.06 1.06-1.06 1.062zM20.672 38.275l2.12-2.122 2.123 2.12-2.121 2.123zM31.006 41.598l1.06-1.06 1.061 1.061-1.061 1.06zM31.016 34.996l1.06-1.06 1.061 1.06-1.06 1.061zM26.787 38.314l2.121-2.121 2.121 2.121-2.12 2.122zM37.123 41.64l1.06-1.06 1.061 1.06-1.06 1.06zM37.062 34.967l1.06-1.061 1.062 1.06-1.06 1.061zM32.974 38.282l2.121-2.122 2.122 2.121-2.121 2.122zM43.31 41.61l1.06-1.06 1.061 1.06-1.06 1.06zM43.247 34.932l1.06-1.062 1.062 1.06-1.06 1.062zM39.16 38.251l2.122-2.12 2.121 2.12-2.121 2.122zM39 53H25s.4 1.3.4 1.8c0 .7-.6 2.2-.6 2.2H39s-.6-1.5-.6-2.2c.2-.5.6-1.8.6-1.8"/>
    </g>
    <g fill="#dbb471">
        <path d="M16.9 32v1h30.2v-1H16.9M19.6 45h24.9c.1-.3.3-.7.4-1H19.2c.1.4.2.7.4 1"/>
    </g>
</svg>