<svg xmlns="http://www.w3.org/2000/svg" viewBox="0 0 64 64">
    <title>crocodile, bust in silhouette</title>
	<g id="head" transform="translate(-4,16) scale(1.2)">
		<path fill="#83b533" d="M50.6 11c1.9 1.8 6.1 6.3 3.7 10.2s-12.8 7.1-23.4 4.3S6 16.8 5.5 14.4s1.1-2.4 2.2-1.6S50.6 11 50.6 11z"/>
		<ellipse cx="38.6" cy="7.6" fill="#8cc63e" rx="5.4" ry="5.6"/>
		<ellipse cx="38.6" cy="7.6" fill="#fff" rx="4.4" ry="4.6"/>
		<ellipse cx="38.6" cy="7.6" fill="#3e4347" rx="3.1" ry="3.3"/>
		<path fill="#e8f94b" d="M7 12.1v3.3l2.2-1.2.2 2.5 2-1.7.9 3.4 2.6-2.1 1.3 3.6 3-2.5 1.7 4.3 5.3-3.7.4 5.3 3.8-3.4 1.9 4.8 3.4-4.5 2.6 5.2 3.2-5.2 2.8 5.1 1.8-5.3 3.9 3.4-.4-4.8 4.4 1.2-3.4-4.8 2.6-.2-2.7-2.7-17.2 4.5-17.4-2.4z"/>
		<path fill="#8cc63e" d="M9.8 8.6c0 2.5-.7 2.4-1.6 2.4-.9 0-1.6.1-1.6-2.4 0-1.4.7-2.4 1.6-2.4.9-.1 1.6 1 1.6 2.4"/>
		<ellipse cx="7.7" cy="8.6" fill="#4b662b" rx=".6" ry="1.7"/>
		<g fill="#8cc63e">
			<path d="M4.5 10.7c-.3-6.3 16.2 6 36.9-2.3 5-2 9.8-.1 10.1 6.1.3 6.3-4.1 7.1-9.5 7.8-5.6.8-37.2-5.3-37.5-11.6"/>
			<path d="M14.8 9.9c0 3.7-1 3.6-2.3 3.6-1.3 0-2.3.1-2.3-3.6 0-2 1-3.6 2.3-3.6 1.2 0 2.3 1.6 2.3 3.6"/>
		</g>
		<ellipse cx="12" cy="9.9" fill="#4b662b" rx="1.3" ry="2.6"/>
		<ellipse cx="46.1" cy="7.6" fill="#8cc63e" rx="5.4" ry="5.6"/>
		<ellipse cx="46.1" cy="7.6" fill="#fff" rx="4.4" ry="4.6"/>
		<ellipse cx="46.1" cy="7.6" fill="#3e4347" rx="3.1" ry="3.3"/>
	</g>
</svg>