<svg xmlns="http://www.w3.org/2000/svg" viewBox="0 0 64 64">
    <title>bug</title>
<g transform="scale(-1,1) translate(-64,0)">
    <g fill="#3e4347">
        <path d="M52.4 57.6c-1.5-1.5-.9-3.4.1-4.4 1-1 2.9-1.6 4.4-.1 1.5 1.5 2.1 4.5 1 5.5-1 1.1-4 .5-5.5-1M55.9 43.4c-1.5-1.5-.9-3.4.1-4.4 1-1 2.9-1.6 4.4-.1 1.5 1.5 2.1 4.5 1 5.6-1 1-4 .4-5.5-1.1"/>
    </g>
    <path fill="#5b7f32" d="M12.9 57.6C8.3 57.6 2 56.5 2 51.7c0-5.3 5.2-10.3 10.9-10.3v16.2z"/>
    <path fill="#94d82a" d="M23.9 47.9c0 9-6.3 9.8-10.9 9.8s-9.2-2.1-9.2-5.9c0-4.5 4.6-10.3 9.2-10.3 4.5 0 10.9 1.9 10.9 6.4"/>
    <path fill="#5b7f32" d="M21.2 57.6c-15.9 0-16-19.1.3-19.1l-.3 19.1"/>
    <path fill="#94d82a" d="M31.1 46.1c0 10.6-5.6 11.6-10 11.6-14.4 0-14-19.1.3-19.1 4.5-.1 9.7 2.2 9.7 7.5"/>
    <path fill="#5b7f32" d="M30.8 57.6c-17.1 0-16.4-20 0-20v20"/>
    <path fill="#94d82a" d="M42.4 45.5c0 11.1-6.5 12.1-11.6 12.1-14.1 0-14.1-20 0-20 5 0 11.6 2.4 11.6 7.9"/>
    <path fill="#5b7f32" d="M44.7 57.6c-21.4 0-19.4-23-1.5-23l1.5 23"/>
    <path fill="#94d82a" d="M57.7 45.2c0 11.1-7.1 12.5-13 12.5-18 0-18-23.4 0-23.4 5.9-.1 13 5.3 13 10.9"/>
    <path fill="#5b7f32" d="M57.4 43.3s-3.6 4.4-9.1 5.1c-5.6.7-20-3.2-11-15.7l20.1 10.6"/>
    <path fill="#94d82a" d="M59.7 38.2c0 5.7-6.6 8.2-12.1 8.2s-12.1-2.5-12.1-8.2c0-5.7 6.6-12.5 12.1-12.5 5.6 0 12.1 6.8 12.1 12.5"/>
    <g fill="#3e4347">
        <path d="M31.9 54.8c2.1-2.1 4.2-1.8 5.3-.7 1 1 1.4 3.2-.7 5.3-2.1 2.1-5.8 3.3-6.9 2.3-1.1-1.1.2-4.8 2.3-6.9M34 33.6c2.1 2.1 1.8 4.2.7 5.3-1 1-3.2 1.4-5.3-.7s-3.3-5.8-2.3-6.8c1.1-1.1 4.8.1 6.9 2.2M20.8 55.3c1.8-1.8 3.6-1.5 4.4-.6.9.9 1.2 2.7-.6 4.4-1.8 1.8-4.9 2.8-5.8 1.9-.8-.8.2-4 2-5.7M12 55.6c1.5-1.5 3-1.3 3.8-.5.7.7 1 2.3-.5 3.8s-4.2 2.4-4.9 1.6c-.8-.7.1-3.4 1.6-4.9"/>
    </g>
    <g fill="#5b7f32">
        <path d="M28.4 40l-1 1 1 1 .9-1zM25.4 46.1l-.9 1 .9 1 1-1zM15.6 41l-1 1 1 .9 1-.9zM8.1 45.2l-.9.9.9 1 1-1zM6.5 47.4l-1 1 1 1 1-1zM34.6 44.5l-1 1 1 1 1-1zM37.1 47.6l-1 1 1 .9 1-.9zM55 47.1l-1 1 1 .9.9-.9zM54.3 39.1l-1 .9 1 1 .9-1zM40.3 36.3l-1 .9 1 1 .9-1zM24.5 40.5l-2 1.9 2 2 1.9-2zM56.2 34.3l-1.9 2 1.9 1.9 1.9-1.9zM14.6 43.7l-1.9 2 1.9 1.9 2-1.9z"/>
    </g>
    <g fill="#3e4347">
        <path d="M40.5 10.3l-.9-.1c.1-1.9-1.3-4.3-3.8-5l.2-.9c2.7.8 4.7 3.4 4.5 6"/>
        <path d="M37.6 3.4c.8.9.7 2.3-.2 3.1-.9.8-2.3.7-3.1-.2-.8-.9-.7-2.3.2-3.1.9-.9 2.3-.8 3.1.2M49.2 9.8l-.1-.9c1.9-.2 3.9-2.2 4.1-4.7l.9.1c-.2 2.7-2.4 5.2-4.9 5.5"/>
        <path d="M55.4 5.6c-.7 1-2.1 1.1-3.1.4-1-.8-1.1-2.1-.4-3.1.7-1 2.1-1.1 3.1-.4.9.7 1.1 2.1.4 3.1"/>
    </g>
    <path fill="#5b7f32" d="M55.7 29.7c-2.4 7.5-16.4 7.9-18.3 3l18.3-3"/>
    <path fill="#94d82a" d="M59.2 22.4c.5 10.4-20.7 17.5-26.9 5.2C27.6 18.2 35 8.4 42.8 7.5 55.6 6 59 17.4 59.2 22.4z"/>
    <g fill="#3e4347">
        <path d="M51.3 18.3c0 1.7-.9 3-2 3s-2-1.3-2-3 .9-3 2-3 2 1.4 2 3"/>
        <ellipse cx="37.4" cy="18.3" rx="2" ry="3"/>
        <path d="M43.3 29.3c-2.4 0-4.5-.9-4.5-1.8 0-.1 0-.2.1-.3.1-.1.2-.1.4-.1s.3.1.6.2c.6.2 1.7.7 3.5.7s2.9-.5 3.4-.7c.3-.1.4-.2.6-.2.2 0 .4.1.4.4 0 .9-2.1 1.8-4.5 1.8"/>
    </g>
    <g fill="#ea83a3" opacity=".7">
        <ellipse cx="53.7" cy="23.8" rx="3.2" ry="2.5"/>
        <ellipse cx="34.4" cy="23.7" rx="2.6" ry="1.8"/>
    </g>
</g>
</svg>