<svg xmlns="http://www.w3.org/2000/svg" viewBox="0 0 64 64">
    <title>chicken, bust in silhouette</title>
	<g transform="translate(6,-2) scale(1.7)">
		<path fill="#f29a2e" d="M7.6 20.4c1.8 2.9 3.8 3.3 5.2 1.6 2.2-2.6-.2-5.9-2.8-6.8-4.3-1.7-8 3.1-8 3.1s4.1-.4 5.6 2.1"/>
		<path fill="#e1eaf2" d="M6.5 26.3c0 3 .6 11.7.6 11.7l2.7-3.4 3.2 3.8.7-5.3 4.9 3.5-.9-5.2 5.9.6-2.7-3.2 4.1-2.7s-5 1.1-4.9-2c.1-3.1 2.6-11.9-.5-13.2-5.7-2.1-13.1 2.7-13.1 15.4"/>
		<g fill="#3e4347">
			<ellipse cx="6.5" cy="16.1" rx=".7" ry=".3"/>
			<circle cx="11.5" cy="16.7" r="1.5"/>
		</g>
		<g fill="#e24b4b">
			<path d="M7.8 23.6c0 3.2-2.1.9-2.1.9-.7 0-3.6 2.2-2.6-1.5 1.3-4.8 6.3-8 6.3-8s-1.6 2.8-1.6 8.6"/>
			<path d="M20.8 10.6V9.4c-.2-2.5 3.4-3.5 3-4.8-.6-1.7-5.3-.6-7.6 3.1-.3.4-.5.9-.6 1.5-.1-.4-.2-.8-.4-1.2-1.1-2.3 2.2-4.4 1.2-5.5-1.3-1.5-5.2 1.1-6.1 5.4-.2.9-.2 1.8.1 2.7-.1-.1-.2-.2-.3-.2-1.7-1.3 0-4-1.2-4.6-1.8-.8-3.4 2.8-2.5 6.3.6 2 2.8 4.1 4.6 2.4.6-.5 2-1.3 2.8-1.6.6-.2 2.2-.1 3.2.6.9.6 1.6 1.8 2.9 1.8 5.7.2 8.8-5.3 6.7-6.5-1.1-.8-2.8 1.2-5.8 1.8"/>
		</g>
	</g>
</svg>