<svg xmlns="http://www.w3.org/2000/svg" viewBox="0 0 64 64" enable-background="new 0 0 64 64">
    <title>elephant, bust in silhouette</title>
	<g transform="scale(1.25) rotate(10, 32, 32)">
		<g fill="#9caaaf">
			<path d="m26 32.8c-7.7 4.2-11.5-1.5-12.1-1.2-1.1.5-2-.7-1.3-1.5 3.1-3.4-8.1-4.2-8.1-4.2 1.7-3.8 6.8-17 13-18.7 6.2-1.7 8.6-1.8 11.9.4 4.3 3 3.7 21.4-3.4 25.2" id="head"/>
			<path d="m9.3 48.1c4.3 2.2 10.7 1.4 13.3-3.2 1-1.8-1.1-1.2-2.7-2.2-1.6-1-2.2-3-3.2-1.3-.7 1.2-2.5.8-3.6.2-1.4-.8-2.5-2.3-2.8-4.1-.5-2.4.2-5.2 1.9-8.3 1-1.8.5-3.9-1.1-4.9s-5.1-1.1-6.1.7c-6.9 12.1-.3 20.8 4.3 23.1" id="tusk"/>
		</g>
		<path d="m48.2 22.8c0 10.8-6.6 15-14.8 15s-9.2-6.8-9.2-15.1 1-14.9 9.2-14.9c8.2 0 14.8 4.2 14.8 15" fill="#808f96" id="ear_shadow"/>
		<path d="m47.3 21.8c0 10.5-6.5 14.6-14.5 14.6-8 0-9.5-6.6-9.5-14.6 0-4-1.3-9.8 0-12.5 0 0 5.5-2.2 9.5-2.2 8 .1 14.5 4.2 14.5 14.7" fill="#9caaaf" id="ear_outer"/>
		<path d="m44.1 22.4c0 8-4.6 11.1-10.2 11.1-8.7 0-3.8-5.2-3.8-11.4s-1.1-10.8 3.8-10.8c5.7 0 10.2 3.1 10.2 11.1" fill="#ffc5d3" id="ear_inner"/>
		<path d="m16.3 18.5c2-.5 4 .7 4.5 2.6.6 1.9-.6 3.9-2.5 4.4-2 .5-4-.7-4.5-2.6-.6-1.9.5-3.9 2.5-4.4" fill="#42ade2" id="eye"/>
		<path d="m16.6 19.8c1.3-.3 2.6.4 2.9 1.7.4 1.2-.4 2.5-1.6 2.8-1.3.3-2.6-.4-2.9-1.7-.4-1.3.4-2.5 1.6-2.8" fill="#3e4347" id="pupil"/>
		<path d="m14.9 30c-1.1-2.2.6-5.3 3.7-6.8 3.1-1.5 6.5-.9 7.6 1.3 1.1 2.2-.6 5.3-3.7 6.8-3.2 1.6-6.6 1-7.6-1.3" fill="#9caaaf" id="cheek"/>
	</g>
</svg>