<svg xmlns="http://www.w3.org/2000/svg" viewBox="0 0 64 64">
    <title>rooster, bust in silhouette</title>
	<g transform="translate(10,0) scale(1.5)">
		<path fill="#f29a2e" d="M9.7 23.4c1.6 2.7 3.4 3 4.7 1.5 2-2.4-.2-5.5-2.5-6.3-3.9-1.5-7.3 3-7.3 3s3.7-.5 5.1 1.8"/>
		<path fill="#f4bc58" d="M8.7 28.9l.6 10.9 2.5-3.1 2.9 3.6.6-5 4.5 3.3-.8-4.8 5.4.6-2.5-3 3.7-2.5s-4.5 1-4.4-1.8c.1-2.8 3-11 1.1-13.4-1.9-2.4-10.1 0-10.1 0L8.7 28.9"/>
		<ellipse cx="8.7" cy="19.5" fill="#3e4347" rx=".6" ry=".3"/>
		<ellipse cx="14.6" cy="19.9" fill="#e24b4b" rx="4.3" ry="4.2"/>
		<ellipse cx="14.3" cy="19.5" fill="#3e4347" rx="2.1" ry="1.6"/>
		<g fill="#e24b4b">
			<path d="M9.5 34.3c.3 3.9-2.5 5.7-4.6 5.5-3.4-.3-3.4-5.2-1.9-8.1 2.6-5 9-15.3 9-15.3S9.2 30.8 9.5 34.3"/>
			<path d="M23.2 13.1v-1.7C23 8 26.6 4.9 26.6 4.9s-6-.9-8.6 4.2c-.3.6-.5 1.3-.7 2-.1-.5-.3-1-.5-1.6C15.7 6.4 18.3 2 18.3 2s-5.9 1.5-6.9 7.3c-.2 1.2-.2 2.5.1 3.7l-.3-.3c-1.9-1.8-1.4-6.2-1.4-6.2S5.9 10.3 7 15.1c.6 2.8 3.1 5.5 5.2 3.2.6-.7 2.2-1.8 3.2-2.1.7-.2 2.5-.1 3.6.8 1 .9 1.8 2.4 3.3 2.4 6.4.3 7.6-8.9 7.6-8.9s-3.3 1.7-6.7 2.6"/>
		</g>
	</g>
</svg>