<svg xmlns="http://www.w3.org/2000/svg" viewBox="0 0 64 64">
    <title>boar, bust in silhouette</title>
	<g transform="scale(1.2) translate(0,0)">
		<path fill="#89664c" d="M17.04 10.56C15.12 6.96 2.48 8.08 2.48 8.08s-1.52 12.8 2.16 14.8c2.8 1.52 13.92-9.44 12.4-12.32"/>
		<path fill="#2b2118" d="M14.64 12.48c-1.2-2.24-9.04-1.52-9.04-1.52s-.88 8 1.36 9.2c1.76.96 8.64-5.84 7.68-7.68"/>
		<path fill="#89664c" d="M47.52 22.8C51.12 20.88 50 8.32 50 8.32S37.12 6.8 35.12 10.48c-1.52 2.8 9.44 13.84 12.4 12.32z"/>
		<path fill="#2b2118" d="M45.52 20.4c2.24-1.2 1.52-8.96 1.52-8.96s-8-.88-9.28 1.36c-.88 1.76 6 8.56 7.76 7.6"/>
		<path fill="#89664c" d="M47.6 30.24c0 13.92-9.6 16.48-21.44 16.48S4.72 44.16 4.72 30.24 17.92 6.32 26.16 6.32s21.44 10 21.44 23.92z"/>
		<g fill="#fff">
			<path d="M16.32 36.56c-9.52 4.64-6.96-15.2-6.96-15.2C2 40.4 10.8 43.44 17.04 42.48l-.72-5.92M36 36.56c9.52 4.64 6.96-15.2 6.96-15.2 7.36 19.04-1.44 22.08-7.68 21.12l.72-5.92"/>
		</g>
		<path fill="#5c4533" d="M26.16 16.8s-2.4-8-7.76-9.52c0 0 2.4-1.36 4.16-.72 0 0 .08-1.44-1.44-2.48 0 0 3.44-.72 5.2 1.68 0 0 .24-2.56-.4-3.84 0 0 5.68 1.36 7.2 6.24 0 0-5.84 1.68-6.96 8.64"/>
		<g fill="#2b2118" transform="matrix(.8 0 0 .8 .56 -1.28)">
			<ellipse cx="18.6" cy="34.6" rx="3.1" ry="5.6"/>
			<path d="M45.4 28.8c1.7 0 3.1 2.5 3.1 5.6S47.1 40 45.4 40c-1.7 0-3.1-2.5-3.1-5.6s1.4-5.6 3.1-5.6"/>
		</g>
		<path fill="#fc97b2" d="M37.36 38.56c0 6.48-5.04 5.76-11.2 5.76-6.24 0-11.2.72-11.2-5.76s5.04-9.68 11.2-9.68c6.24-.08 11.2 3.2 11.2 9.68"/>
		<g fill="#7a495a" transform="matrix(.8 0 0 .8 .56 -1.28)">
			<ellipse cx="25.7" cy="48" rx="3.4" ry="6.3"/>
			<ellipse cx="38.3" cy="48" rx="3.4" ry="6.3"/>
		</g>
	</g>
</svg>