<svg xmlns="http://www.w3.org/2000/svg" viewBox="0 0 64 64">
    <title>camel, bust in silhouette</title>
    <path fill="#e0ac7e" d="M56.3 26.1c4.2-3 6.5-16.4 5.4-17.6-1.1-1.2-13.5.9-16.3 5.6-2.1 3.7 7.6 14.4 10.9 12"/>
    <path fill="#c1875d" d="M54.7 23.8C57.3 22 58 12.9 58 12.9s-8.4.6-10.1 3.5c-1.3 2.2 4.7 8.9 6.8 7.4"/>
    <path fill="#e0ac7e" d="M7.7 26.1c-4.2-3-6.5-16.4-5.4-17.6 1.1-1.2 13.5.9 16.3 5.6 2.1 3.7-7.5 14.4-10.9 12"/>
    <path fill="#c1875d" d="M9.3 23.8c-2.6-1.9-3.3-11-3.3-11s8.4.6 10.1 3.5c1.3 2.3-4.7 9-6.8 7.5"/>
    <g fill="#e0ac7e">
        <path d="M50.6 35.3c-5.4 5.9-2.8 22.5-18.6 22.5-22.5 0-13.2-16.6-18.6-22.5C1.3 21.9 21.8 12.6 32 12.6s30.7 9.3 18.6 22.7"/>
        <path d="M32.7 29.6s-4.2-15.2-11.3-18.9c0 0 2.9-2.2 5.2-.7 0 0-.1-2.7-2.3-4.9 0 0 4.3-.8 6.9 4 0 0-.1-4.7-1-7.1 0 0 7.5 3.4 10.1 12.6.1 0-7.1 2.3-7.6 15"/>
    </g>
    <g fill="#3e4347">
        <ellipse cx="12.9" cy="29" rx="4" ry="4.4"/>
        <ellipse cx="51.1" cy="28.8" rx="4" ry="4.4"/>
    </g>
    <path fill="#89664c" d="M33 53.6c0 2.2-3.1 3.9-7 3.9s-7-1.8-7-3.9c0-2.2 3.1-3.9 7-3.9s7 1.8 7 3.9"/>
    <path fill="#ffe2b3" d="M39.4 52.7c0 3.2-5.2 7.8-11.4 9.1-6.6 1.3-11.4-5.9-11.4-9.1s.2.4 6.6.4 16.2-3.6 16.2-.4"/>
    <path fill="#ff717f" d="M29.4 47s-5.6 2.7-6.1 9.8c-.5 6.8-9.8 7.1-9.3.1s6.5-9.9 8-9.8c1.5 0 7-.1 7.4-.1"/>
    <path fill="#e2596c" d="M24.6 47.9c-.8.7-1.6 1.2-2.4 1.8-.8.6-1.5 1.3-2.2 2-.6.8-1.2 1.6-1.5 2.5-.4.9-.6 1.9-.7 2.9 0-1 .1-2 .4-3 .3-1 .8-1.9 1.4-2.8 1.2-1.7 2.9-3 4.3-4.3l.7.9"/>
    <path fill="#89664c" d="M43 47.1c0 8.8-7.1 13.6-12.4 9.1-2.1-1.7-4.3-2.7-6.3-3.7-3.5-1.7-6.9-2.2-6.9-7.7L43 47.1"/>
    <path fill="#ffe2b3" d="M44.6 48.8c0 8.8-7.7 11.5-14.3 6-6.1-5-13.1-2.1-13.1-10.9 0-2.7 4.7-10.1 4.7-10.1 0-9.1 2.9-15.2 10.2-15.2s10.2 6 10.2 15.2c-.1 0 2.3 12.2 2.3 15"/>
    <g fill="#89664c">
        <path d="M24.7 34.9c3.5.7 5.7 1 7.3 4.7M39.3 34.9c-3.5.7-5.7 1-7.3 4.7M28.4 54.1c1.4-2 2.3-4.4 2.8-6.9s.8-5 .7-7.6c.3 2.5.3 5.1 0 7.7-.2 1.3-.4 2.6-.8 3.8-.4 1.3-.9 2.5-1.5 3.7l-1.2-.7"/>
    </g>
</svg>