<svg xmlns="http://www.w3.org/2000/svg" viewBox="0 0 64 64">
    <title>woman’s clothes</title>
    <path fill="#ff99b6" d="M1.7 24.1L.6 11.3s8.7-3.6 11.7-4.1c4.8-.8 14-2 19.7-2s14.8 1.2 19.7 2c3.1.5 11.7 4.1 11.7 4.1l-1.1 12.8-12.1.9c-.2 13.7 1.9 30.5 2.6 36.1 0 0-8.9.4-20.8.5-11.9-.1-20.8-.5-20.8-.5.7-5.6 2.8-22.4 2.6-36.1l-12.1-.9"/>
    <g fill="#ff78a5">
        <path d="M32 12.4h1.2v49.2H32z"/>
        <path d="M26.3 5.6h11.5v7H26.3z"/>
    </g>
    <path fill="#ff99b6" d="M21.8 0h20.4v6.6H21.8z"/>
    <g fill="#ffd2df">
        <path d="M42.2 0l3.9 6.2-7.4 11.5-6.7-5.1z"/>
        <path d="M21.8 0l-3.9 6.2 7.4 11.5 6.7-5.1z"/>
    </g>
    <ellipse cx="28.9" cy="20.4" fill="#ff78a5" rx="2.6" ry="2.6"/>
    <ellipse cx="28.9" cy="20.1" fill="#fff3f7" rx="2.5" ry="2.3"/>
    <ellipse cx="28.9" cy="28.9" fill="#ff78a5" rx="2.6" ry="2.6"/>
    <ellipse cx="28.9" cy="28.6" fill="#fff3f7" rx="2.5" ry="2.3"/>
    <ellipse cx="28.9" cy="37.4" fill="#ff78a5" rx="2.6" ry="2.6"/>
    <ellipse cx="28.9" cy="37.1" fill="#fff3f7" rx="2.5" ry="2.3"/>
    <ellipse cx="28.9" cy="45.9" fill="#ff78a5" rx="2.6" ry="2.6"/>
    <ellipse cx="28.9" cy="45.6" fill="#fff3f7" rx="2.5" ry="2.3"/>
    <ellipse cx="28.9" cy="54.4" fill="#ff78a5" rx="2.6" ry="2.6"/>
    <ellipse cx="28.9" cy="54.1" fill="#fff3f7" rx="2.5" ry="2.3"/>
    <g fill="#ffd2df">
        <path d="M64 11.1L60.7 10l-1.2 14.6 3.5-.3zM0 11.1L3.3 10l1.2 14.6-3.5-.3zM32 59.1c10.7-.2 19.2-1.6 20.6-2.5.1 1.9.1 3.5.2 4.8 0 0-8.9 2.5-20.8 2.7-11.9-.2-20.8-2.7-20.8-2.7.1-1.2.2-2.9.2-4.8 1.4.8 9.9 2.3 20.6 2.5"/>
    </g>
    <path fill="#ff99b6" d="M32 59.1h1.2V64H32z"/>
</svg>