<svg xmlns="http://www.w3.org/2000/svg" viewBox="0 0 64 64">
    <title>man, red heart, kiss mark, man</title>
    <path fill="#01579b" d="M32 60.8V62H2V47.8s30 7.2 30 13"/>
    <path fill="#ffb300" d="M29.2 40H4.4l-1.1-2.9c0-10.6 2.5-15 14.1-15.1 12.4-.1 13.8 10.3 11.8 18"/>
    <path fill="#ffdd67" d="M4.3 37.1c.1.6.2 1.2.4 1.5.3.6.9.9.9.9s-.2-1.2-.1-2.8c.7-9.7 2.6-5.1 15.9-5.1 4.7 0 8.2-3.5 8.2 12 0 5.8-4.3 11.5-9.9 11.5-6 0-14.8-4.2-14.8-11.7C2.7 43.3 2 41.8 2 40c0-2.9 1.3-3.1 2.3-2.9"/>
    <g fill="#937237">
        <path d="M28.2 39.9c-.9-2-2.2-3-3.6-3s-2.7 1-3.6 3c-.1.2.4.6.6.4.9-.7 1.9-1 3-1s2.1.3 3 1c.2.1.7-.2.6-.4M17.4 39.9c-.9-2-2.2-3-3.6-3s-2.7 1-3.6 3c-.1.2.4.6.6.4.9-.7 1.9-1 3-1s2.1.3 3 1c.2.1.7-.2.6-.4M23.2 49.4c.8-.8-.9-1.4-.9-2.8s1.6-2 .9-2.8c-.9-.9-2.9-.2-4.1-1.5 0 1 .9 2.2 2.5 2.2 0 0-1.1.4-1.1 2.2 0 1.7 1.1 2.2 1.1 2.2-1.6 0-2.5 1.1-2.5 2.2 1.2-1.4 3.2-.7 4.1-1.7"/>
    </g>
    <path fill="#ff5a79" d="M46.5 7.1C43.3-1.4 33 2.4 32 6.6c-1.3-4.5-11.4-7.9-14.5.4C14 16.3 30.8 24.6 32 26c1.2-1.1 18-9.8 14.5-18.9"/>
    <path fill="#01579b" d="M32 60.8V62h30V47.8s-30 7.2-30 13"/>
    <path fill="#ffb300" d="M34.8 40h24.8l1.1-2.9c0-10.6-2.5-15-14.1-15.1-12.4-.1-13.8 10.3-11.8 18"/>
    <path fill="#ffdd67" d="M59.7 37.1c-.1.6-.2 1.2-.4 1.5-.3.6-.9.9-.9.9s.2-1.2.1-2.8c-.7-9.7-2.6-5.1-15.9-5.1-4.7 0-8.2-3.5-8.2 12 0 5.8 4.3 11.5 9.9 11.5 6 0 14.8-4.2 14.8-11.7 2.2-.2 2.9-1.7 2.9-3.5 0-2.8-1.3-3-2.3-2.8"/>
    <g fill="#937237">
        <path d="M35.8 39.9c.9-2 2.2-3 3.6-3s2.7 1 3.6 3c.1.2-.4.6-.6.4-.9-.7-1.9-1-3-1s-2.1.3-3 1c-.2.1-.7-.2-.6-.4M46.6 39.9c.9-2 2.2-3 3.6-3s2.7 1 3.6 3c.1.2-.4.6-.6.4-.9-.7-1.9-1-3-1s-2.1.3-3 1c-.2.1-.7-.2-.6-.4M40.8 49.4c-.8-.8.9-1.4.9-2.8s-1.6-2-.9-2.8c.9-.9 2.9-.2 4.1-1.5 0 1-.9 2.2-2.5 2.2 0 0 1.1.4 1.1 2.2 0 1.7-1.1 2.2-1.1 2.2 1.6 0 2.5 1.1 2.5 2.2-1.2-1.4-3.2-.7-4.1-1.7"/>
    </g>
</svg>