<svg xmlns="http://www.w3.org/2000/svg" viewBox="0 0 64 64">
    <title>woman and man holding hands: medium-light skin tone</title>
    <path fill="#fed0ac" d="M14.1 26.5h5.8V31h-5.8z"/>
    <path fill="#231f20" d="M10.2 43.3v17.2h5.3c0-11.5.9-13 .9-13h1.1s.9 1.5.9 13h5.3V43.3H10.2"/>
    <g fill="#428bc1">
        <path d="M18.4 59.9c.9-1.1 4.4-1.1 5.3 0V62h-5.3v-2.1M15.6 59.9c-.9-1.1-4.4-1.1-5.3 0V62h5.4c-.1 0-.1-2.1-.1-2.1M24.4 28.8h-4.5c0 .9-1.3 1.6-2.9 1.6-1.6 0-2.9-.7-2.9-1.6H9.6l.7 14.5h13.5l.6-14.5"/>
        <path d="M30.8 43.7l-7.7-12.6c-1.2-2 1.4-3.2 2.6-1.3l7.7 12.6-2.6 1.3"/>
    </g>
    <path fill="#fed0ac" d="M30.8 43.7c1.5 2.3 2.1 2.2 2.9 1.9.7-.4 1.2-.8-.2-3.2l-2.7 1.3"/>
    <path fill="#428bc1" d="M5.3 44.4L8 30.2c.4-2.2 3.4-1.8 2.9.5L8.2 44.8l-2.9-.4"/>
    <path fill="#fed0ac" d="M5.3 44.4c-.5 2.6.1 2.9.9 3 .8.2 1.5.1 2-2.6l-2.9-.4"/>
    <path fill="#dbb471" d="M59.2 14.8V31H33.4V14.8c0-15.6 25.8-15.6 25.8 0"/>
    <path fill="#fed0ac" d="M58.5 18.6c0-3.8-2.7-1.8-2.7-1.8.2-5.3-2.2-5.7-2.2-5.7-11.1 0-16.7 5.7-16.7 5.7s-2.7-1.9-2.7 1.8c0 1.5.5 2.6 2.3 2.8.7 5.9 4.5 7 9.9 7s9.1-1.2 9.9-7c1.6-.2 2.2-1.4 2.2-2.8"/>
    <path fill="#ff4848" d="M56.5 44.1l-7.2-12.8c-1.1-2.1 1.5-3.2 2.7-1.2l7.2 12.8-2.7 1.2"/>
    <g fill="#fed0ac">
        <path d="M56.5 44.1c1.4 2.5 2 2.3 2.8 2 .7-.3 1.3-.7-.1-3.2l-2.7 1.2M43.4 26.8h5.8v4.5h-5.8zM48.3 62V46.6c0-2.5 3-2.5 3 0V62h-3"/>
    </g>
    <path fill="#ff4848" d="M47.1 59.9c.9-1.1 4.4-1.1 5.3 0V62h-5.3v-2.1"/>
    <path fill="#fed0ac" d="M41.3 62V46.6c0-2.5 3-2.5 3 0V62h-3"/>
    <g fill="#ff4848">
        <path d="M45.5 59.9c-.9-1.1-4.4-1.1-5.3 0V62h5.3v-2.1M50.2 29.1h-1c0 .9-1.3 1.6-2.9 1.6-1.6 0-2.9-.8-2.9-1.6h-1c-1.3 1.1-1.2 6.4-2.2 11.7-1.2 6.5-3.5 10.5-3.5 10.5h19.2s-2.2-4-3.5-10.5c-1-5.3-.9-10.7-2.2-11.7"/>
        <path d="M35.5 43.9l7.7-12.6c1.2-2-1.4-3.2-2.6-1.2l-7.7 12.5 2.6 1.3"/>
    </g>
    <path fill="#fed0ac" d="M35.5 43.9c-1.5 2.3-2.1 2.2-2.9 1.9-.7-.4-1.2-.8.2-3.2l2.7 1.3"/>
    <path fill="#dbb471" d="M4.7 14.8L6 17.2h22l1-2.5C29 5.8 26.9 2 17.2 2 7.2 1.9 4.7 5.8 4.7 14.8"/>
    <path fill="#fed0ac" d="M28 14.7c-.1.5-.2 1-.3 1.2-.3.5-.8.8-.8.8s.1-1 .1-2.3c-.6-8.2-1-4.3-10-4.3S7.5 6.2 7 14.4c-.1 1.3.1 2.3.1 2.3s-.5-.2-.8-.8c-.1-.2-.2-.8-.3-1.2-.9-.2-2 0-2 2.4 0 1.5.6 2.8 2.4 2.9.7 5.1 7.5 8.5 10.5 8.5 3.1 0 9.9-3.4 10.5-8.5 1.9-.2 2.4-1.4 2.4-2.9.2-2.4-.9-2.6-1.8-2.4"/>
    <g fill="#947151">
        <path d="M14.3 17.4c0 1.1-.8 1.9-1.9 1.9-1 0-1.9-.8-1.9-1.9s.8-1.9 1.9-1.9 1.9.8 1.9 1.9M23.5 17.4c0 1.1-.8 1.9-1.9 1.9-1 0-1.9-.8-1.9-1.9s.8-1.9 1.9-1.9c1 0 1.9.8 1.9 1.9M20 23.1c-1.9 1.5-4.1 1.5-6 0-.2-.2-.4.1-.3.4.6 1.1 1.8 2 3.3 2s2.7-.9 3.3-2c.1-.3-.1-.6-.3-.4M43.7 17.3c0 1.1-.8 1.9-1.9 1.9-1 0-1.9-.8-1.9-1.9s.8-1.9 1.9-1.9c1 0 1.9.8 1.9 1.9M52.9 17.3c0 1.1-.8 1.9-1.9 1.9-1 0-1.9-.8-1.9-1.9s.8-1.9 1.9-1.9c1.1 0 1.9.8 1.9 1.9M49.4 23c-1.9 1.5-4.1 1.5-6 0-.2-.2-.4.2-.3.5.6 1.1 1.8 2 3.3 2s2.7-.9 3.3-2c.2-.3-.1-.6-.3-.5"/>
    </g>
</svg>