<svg xmlns="http://www.w3.org/2000/svg" viewBox="0 0 64 64">
    <title>people with bunny ears</title>
    <path fill="#ffb300" d="M47.9 21v10.2H30.5V21c0-11.3 17.4-11.3 17.4 0"/>
    <g fill="#ffdd67">
        <path d="M47.4 23.3c0-2.3-1.8-1.1-1.8-1.1.1-3.2-1.5-3.5-1.5-3.5-7.4 0-11.2 3.5-11.2 3.5S31 21 31 23.3c0 .9.4 1.6 1.5 1.7.5 3.5 3 4.3 6.6 4.3 3.6 0 6.1-.7 6.6-4.3 1.3-.1 1.7-.8 1.7-1.7M32.2 35.7l3.8-3.6c1.7-1.4-.6-3.3-2.2-1.8-5.7 5.3-5.8 4.7-4.6 5.8l7 7.1v-2.5l-4-5"/>
    </g>
    <path fill="#594640" d="M36.2 32.1c1.9-1.6-.7-3.6-2.4-1.9-1 .9-1.9 1.7-2.7 2.4l2.3 2.1 2.8-2.6"/>
    <path fill="#ffdd67" d="M45.9 35.5l-3.5-3.3c-1.7-1.4.6-3.3 2.2-1.8 5.7 5.3 5.4 5.3 4.2 6.4l-8.5 5.1-.5-1.5 6.1-4.9"/>
    <path fill="#594640" d="M42.2 32.1c-1.8-1.6.7-3.6 2.4-1.9 1 .9 1.9 1.7 2.7 2.4L45 34.8l-2.8-2.7"/>
    <path fill="#ffdd67" d="M37.3 27.5h3.9v4h-3.9z"/>
    <g fill="#594640">
        <path d="M43.1 29.6h-1.9c0 .8-.3 1.5-2 1.5-1.6 0-2-.7-2-1.5h-2c-1.3 1-2.4 9.1-.9 13.6 1.3 3.7 6.1 3.4 7.9 2.7l2.6-2.9c.4-2.7-2.6-4.1-2.6-4.1-.5-2.6 2.2-8.3.9-9.3M57.5 52.8c3 1.9 1.3 4.2-3.1 2.2-3.7-1.7-.6-5 .8-3.8 1 1 1.7 1.2 2.3 1.6"/>
    </g>
    <path fill="#ffdd67" d="M55.2 52.2c-3.4-2.8-2.7-4.5-6.3-5.1-2.9-5.1-5.5-6.8-5.5-6.8-2.1 2.8-1.6 5.1-1.6 5.1s3.1 4.4 5.6 5.5c3.1 1.3 6.3 3.3 6.3 3.3 1.4 1.1 3-.7 1.5-2"/>
    <path fill="#594640" d="M41.2 59.6c.1 3.8-5.6 2.2-3.5.6.3-.3.3-.9.1-1.3-1.3-3.6 3.1-3.9 3.1-2.2.1 1.4.3 2.3.3 2.9"/>
    <path fill="#ffdd67" d="M40.3 57.5c-.3-4.2 1.4-5-.5-7.8 1-2.5 0-3.4 0-3.4-2.8.3-5.1-2.4-5.1-2.4s.6 5.1 1.5 7.5c1.1 3 1.8 6.5 1.8 6.5.1 1.7 2.4 1.5 2.3-.4"/>
    <path fill="#594640" d="M43.5 16.6c.2-1 .9-3.1 3.1-7 1.2-2.2-.1-7.3-.8-7.6-.4-.2-4.2 3.2-4.4 6.1-.2 3.8-.4 6.4-.5 7.6-.1 1.1 2.3 1.6 2.6.9"/>
    <path fill="#e84d88" d="M44.9 5.3c-.4-.2-2 1.2-2.3 3.2-.8 4.8-1 7.4-1 7.4l1.5.4s0-1.6 2.2-7.1c.5-1.3.2-3.6-.4-3.9"/>
    <path fill="#594640" d="M34.9 16.6c-.2-1-.9-3.1-3-7-1.2-2.2.1-7.3.8-7.6.5-.2 4.3 3.2 4.4 6.1.2 3.8.4 6.4.5 7.6 0 1.1-2.4 1.6-2.7.9"/>
    <path fill="#e84d88" d="M33.5 5.3c.4-.2 2 1.2 2.3 3.2.8 4.8 1 7.4 1 7.4l-1.5.4s0-1.6-2.2-7.1c-.6-1.3-.3-3.6.4-3.9"/>
    <path fill="#594640" d="M39.3 17c2.6 0 5 .5 7 1.3-1.1-1.9-3.8-3.2-7-3.2s-5.9 1.3-7 3.2c2-.8 4.4-1.3 7-1.3"/>
    <path fill="#ffb300" d="M24.3 21v10.2H6.9V21c0-11.3 17.4-11.3 17.4 0"/>
    <g fill="#ffdd67">
        <path d="M23.8 23.3c0-2.3-1.8-1.1-1.8-1.1.1-3.2-1.5-3.5-1.5-3.5-7.4 0-11.2 3.5-11.2 3.5S7.4 21 7.4 23.3c0 .9.4 1.6 1.5 1.7.5 3.5 3 4.3 6.6 4.3 3.6 0 6.1-.7 6.6-4.3 1.3-.1 1.7-.8 1.7-1.7M8.7 35.7l3.8-3.6c1.7-1.4-.6-3.3-2.2-1.8-5.7 5.3-5.8 4.7-4.6 5.8l7 7.1v-2.5l-4-5"/>
    </g>
    <path fill="#594640" d="M12.6 32.1c1.9-1.6-.7-3.6-2.4-1.9-1 .9-1.9 1.7-2.7 2.4l2.3 2.1 2.8-2.6"/>
    <path fill="#ffdd67" d="M22.3 35.5l-3.5-3.3c-1.7-1.4.6-3.3 2.2-1.8 5.7 5.3 5.4 5.3 4.2 6.4l-8.5 5.1-.5-1.5 6.1-4.9"/>
    <path fill="#594640" d="M18.6 32.1c-1.9-1.6.7-3.6 2.4-1.9 1 .9 1.9 1.7 2.7 2.4l-2.3 2.1-2.8-2.6"/>
    <path fill="#ffdd67" d="M13.7 27.5h3.9v4h-3.9z"/>
    <g fill="#594640">
        <path d="M19.5 29.6h-1.9c0 .8-.3 1.5-2 1.5-1.6 0-2-.7-2-1.5h-2c-1.3 1-2.4 9.1-.9 13.6 1.3 3.7 6.1 3.4 7.9 2.7l2.6-2.9c.4-2.7-2.6-4.1-2.6-4.1-.5-2.6 2.3-8.3.9-9.3M33.9 52.8c3 1.9 1.3 4.2-3.1 2.2-3.7-1.7-.6-5 .8-3.8 1.1 1 1.7 1.2 2.3 1.6"/>
    </g>
    <path fill="#ffdd67" d="M31.6 52.2c-3.4-2.8-2.7-4.5-6.3-5.1-2.9-5.1-5.5-6.8-5.5-6.8-2.1 2.8-1.6 5.1-1.6 5.1s3.1 4.4 5.6 5.5c3.1 1.3 6.3 3.3 6.3 3.3 1.4 1.1 3.1-.7 1.5-2"/>
    <path fill="#594640" d="M17.7 59.6c.1 3.8-5.6 2.2-3.5.6.3-.3.3-.9.1-1.3-1.3-3.6 3.1-3.9 3.1-2.2.1 1.4.2 2.3.3 2.9"/>
    <path fill="#ffdd67" d="M16.8 57.5c-.3-4.2 1.4-5-.5-7.8 1-2.5 0-3.4 0-3.4-2.8.3-5.1-2.4-5.1-2.4s.6 5.1 1.5 7.5c1.1 3 1.8 6.5 1.8 6.5.1 1.7 2.4 1.5 2.3-.4"/>
    <path fill="#594640" d="M19.9 16.6c.2-1 .9-3.1 3.1-7 1.2-2.2-.1-7.3-.8-7.6-.5-.2-4.2 3.2-4.4 6.1-.2 3.8-.4 6.4-.5 7.6-.1 1.1 2.3 1.6 2.6.9"/>
    <path fill="#e84d88" d="M21.3 5.3c-.4-.2-2 1.2-2.3 3.2-.8 4.8-1 7.4-1 7.4l1.5.4s0-1.6 2.2-7.1c.6-1.3.3-3.6-.4-3.9"/>
    <path fill="#594640" d="M11.3 16.6c-.2-1-.9-3.1-3.1-7-1.2-2.2.2-7.3.9-7.6.5-.2 4.2 3.2 4.4 6.1.2 3.8.4 6.4.5 7.6 0 1.1-2.4 1.6-2.7.9"/>
    <path fill="#e84d88" d="M9.9 5.3c.4-.2 2 1.2 2.3 3.2.8 4.8 1 7.4 1 7.4l-1.5.4s0-1.6-2.2-7.1c-.5-1.3-.2-3.6.4-3.9"/>
    <path fill="#594640" d="M15.7 17c2.6 0 5 .5 7 1.3-1.1-1.9-3.8-3.2-7-3.2s-5.9 1.3-7 3.2c2-.8 4.4-1.3 7-1.3"/>
    <g fill="#937237">
        <circle cx="12.6" cy="22.2" r="1.2"/>
        <circle cx="18.6" cy="22.2" r="1.2"/>
        <path d="M17.6 25.9c-1.3 1-2.7 1-3.9 0-.2-.1-.3.1-.2.3.4.7 1.2 1.3 2.2 1.3s1.8-.6 2.2-1.3c0-.2-.2-.4-.3-.3"/>
        <circle cx="36.2" cy="22.2" r="1.2"/>
        <circle cx="42.2" cy="22.2" r="1.2"/>
        <path d="M41.2 25.9c-1.3 1-2.7 1-3.9 0-.2-.1-.3.1-.2.3.4.7 1.2 1.3 2.2 1.3s1.8-.6 2.2-1.3c-.1-.2-.2-.4-.3-.3"/>
    </g>
</svg>