<svg xmlns="http://www.w3.org/2000/svg" viewBox="0 0 64 64">
    <title>women holding hands: medium-dark skin tone</title>
    <path fill="#231f20" d="M61.2 15.6V35H34.7V15.6c0-18.1 26.5-18.1 26.5 0"/>
    <path fill="#ff4848" d="M58.4 44.4L51 31.8c-1.2-2 1.6-3.1 2.7-1.1l7.4 12.6-2.7 1.1"/>
    <g fill="#b47d56">
        <path d="M58.4 44.4c1.4 2.4 2.1 2.3 2.8 1.9.8-.3 1.3-.7-.1-3.1l-2.7 1.2M60.4 19.4c0-3.7-2.8-1.8-2.8-1.8.2-5.2-2.2-5.7-2.2-5.7-11.3 0-17.1 5.7-17.1 5.7s-2.8-1.9-2.8 1.8c0 1.4.5 2.6 2.3 2.7.8 5.7 4.6 6.9 10.2 6.9s9.3-1.2 10.1-6.9c1.8-.1 2.3-1.3 2.3-2.7"/>
        <path d="M45 27.4h5.9v4.4H45zM50 62V46.9c0-2.4 3.1-2.4 3.1 0V62H50"/>
    </g>
    <path fill="#ff4848" d="M48.8 60c1-1.1 4.5-1.1 5.5 0v2h-5.5v-2"/>
    <path fill="#b47d56" d="M42.9 62V46.9c0-2.4 3.1-2.4 3.1 0V62h-3.1"/>
    <g fill="#ff4848">
        <path d="M47.1 60c-1-1.1-4.5-1.1-5.5 0v2h5.5v-2M51.9 29.7h-1c0 .9-1.3 1.6-3 1.6-1.6 0-3-.7-3-1.6h-1c-1.4 1.1-1.2 6.3-2.3 11.5-1.3 6.4-3.6 10.4-3.6 10.4h19.6s-2.3-4-3.6-10.4c-.8-5.3-.7-10.5-2.1-11.5"/>
    </g>
    <path fill="#231f20" d="M2.8 15.6V35h26.4V15.6c.1-18.1-26.4-18.1-26.4 0"/>
    <g fill="#b47d56">
        <path d="M3.6 19.4c0-3.7 2.8-1.8 2.8-1.8 4.5-2.8 4.5-7.8 4.5-7.8.5 4.5 14.8 7.8 14.8 7.8s2.8-1.9 2.8 1.8c0 1.4-.5 2.6-2.3 2.7-.8 5.7-4.6 6.9-10.2 6.9s-9.4-1.2-10.1-6.9c-1.8-.1-2.3-1.3-2.3-2.7M5.6 44.4L13 31.8c1.2-2-1.6-3.1-2.7-1.1L2.9 43.3l2.7 1.1"/>
        <path d="M5.6 44.4c-1.4 2.4-2.1 2.3-2.8 1.9-.8-.3-1.3-.7.1-3.1l2.7 1.2M29.6 42l-10.9-9.8c-1.7-1.5.5-3.4 2.3-1.9l10.9 9.8-2.3 1.9"/>
        <path d="M29.6 42c2.1 1.9 2.7 1.5 3.3 1 .6-.5 1-1.1-1.1-2.9L29.6 42"/>
    </g>
    <path fill="#ff4848" d="M33.9 42l10.9-9.8c1.7-1.5-.5-3.4-2.3-1.9l-10.9 9.8 2.3 1.9"/>
    <g fill="#b47d56">
        <path d="M33.9 42c-2.1 1.9-2.7 1.5-3.3 1-.6-.5-1-1.1 1.1-2.9l2.2 1.9M13.1 27.4H19v4.4h-5.9zM14 62V46.9c0-2.4-3.1-2.4-3.1 0V62H14"/>
    </g>
    <path fill="#c28fef" d="M15.2 60c-1-1.1-4.5-1.1-5.5 0v2h5.5v-2"/>
    <path fill="#b47d56" d="M21.1 62V46.9c0-2.4-3.1-2.4-3.1 0V62h3.1"/>
    <g fill="#c28fef">
        <path d="M16.9 60c1-1.1 4.5-1.1 5.5 0v2h-5.5v-2M12.1 29.7h1c0 .9 1.3 1.6 3 1.6 1.6 0 3-.7 3-1.6h1c1.4 1.1 2.9 19 2.9 19H9.2s1.5-18 2.9-19"/>
    </g>
    <g fill="#664e27">
        <circle cx="43.4" cy="18.7" r="1.9"/>
        <circle cx="52.6" cy="18.7" r="1.9"/>
        <path d="M51 24.4c-1.9 1.5-4.1 1.5-6 0-.2-.2-.4.1-.3.4.6 1.1 1.8 2 3.3 2 1.5 0 2.7-1 3.3-2 .2-.2 0-.5-.3-.4"/>
        <circle cx="11.3" cy="18.7" r="1.9"/>
        <circle cx="20.5" cy="18.7" r="1.9"/>
        <path d="M18.9 24.4c-1.9 1.5-4.1 1.5-6 0-.2-.2-.4.1-.3.4.6 1.1 1.8 2 3.3 2 1.5 0 2.7-1 3.3-2 .1-.2-.1-.5-.3-.4"/>
    </g>
</svg>