<svg xmlns="http://www.w3.org/2000/svg" viewBox="0 0 64 64">
    <title>man, woman, boy</title>
    <path fill="#ffb300" d="M17 2C7.3 2 2 8.3 2 16.7v18.5h30V16.7c0-12.4-8.1-12.2-8.1-12.2S23.3 2 17 2z"/>
    <path fill="#01579b" d="M32 34.8V62h30V34.8c0-5.8-30-5.8-30 0"/>
    <path fill="#c2185b" d="M2 34.8V62h30V34.8c0-5.8-30-5.8-30 0z"/>
    <path fill="#ffdd67" d="M6.4 23.6s-2.2-.6-2.2-3.9c0-2.6 1.7-3.1 1.7-3.1 6 0 15.8-7.8 15.8-7.8s3.7 6.9 7.3 7.8c0 0 1.7.3 1.7 3.1 0 3.3-2.3 3.9-2.3 3.9 0 5-6.8 10-11 10-4 0-11-5-11-10"/>
    <g fill="#937237">
        <circle cx="12.1" cy="20.3" r="2.2"/>
        <circle cx="22.9" cy="20.3" r="2.2"/>
        <path d="M21.1 27.2c-2.3 1.8-4.9 1.8-7.2 0-.3-.2-.5.2-.3.5.7 1.3 2.1 2.4 3.9 2.4 1.8 0 3.2-1.1 3.9-2.4.2-.4 0-.8-.3-.5"/>
    </g>
    <path fill="#ffb300" d="M31.9 17.3l1.5 2.8h26.2l1.1-2.9c0-10.6-2.5-15-14.1-15.1-11.8-.2-14.7 4.5-14.7 15.2"/>
    <path fill="#ffdd67" d="M59.7 17.1c-.1.6-.2 1.2-.4 1.5-.3.6-.9.9-.9.9s.2-1.2.1-2.8c-.7-9.7-1.2-5.1-11.9-5.1-10.7 0-11.3-4.7-11.9 5-.1 1.7.1 2.8.1 2.8s-.6-.3-.9-.9c-.2-.3-.3-.9-.4-1.5-1-.3-2.3 0-2.3 2.9 0 1.8.7 3.3 2.9 3.5.8 6.1 8.9 10.1 12.6 10.1 3.6 0 11.8-4.1 12.6-10.1 2.2-.2 2.9-1.7 2.9-3.5-.2-2.8-1.5-3-2.5-2.8"/>
    <g fill="#937237">
        <circle cx="41" cy="20.3" r="2.2"/>
        <circle cx="52" cy="20.3" r="2.2"/>
        <path d="M50.1 27.2c-2.3 1.8-4.9 1.8-7.2 0-.3-.2-.5.2-.3.5.7 1.3 2.1 2.4 3.9 2.4s3.2-1.1 3.9-2.4c.2-.4 0-.8-.3-.5"/>
    </g>
    <path fill="#29b6f6" d="M44.5 62h-25c0-8.4 25-8.4 25 0"/>
    <path fill="#ffb300" d="M32 36c-6.7 0-10.9 3.8-10.9 8.5v3.2c0 3.7 2.9 3.7 2.9 3.7h16.4s2.5 0 2.5-3.7v-3.2c0-4.7-4.4-8.5-10.9-8.5"/>
    <path fill="#ffdd67" d="M22.1 48.5l.4-4.5c0-2.9 4.5-.6 9.5-.6s9.5-2.3 9.5.6l.4 4.5c2.2 0 2.2 3.5 0 3.5 0 4.4-5.9 7-9.9 7s-9.9-2.6-9.9-7c-2.1 0-2.1-3.5 0-3.5"/>
    <g fill="#937237">
        <circle cx="27.2" cy="49.8" r="1.8"/>
        <circle cx="36.8" cy="49.8" r="1.8"/>
        <path d="M28.9 54.4c2 1.5 4.3 1.5 6.3 0 .2-.2.5.1.3.4-.6 1.1-1.9 2-3.4 2-1.6 0-2.8-1-3.4-2-.3-.3-.1-.6.2-.4"/>
    </g>
</svg>