<svg xmlns="http://www.w3.org/2000/svg" viewBox="0 0 64 64">
    <title>men holding hands: light skin tone</title>
    <path fill="#ffe1bd" d="M13.1 26.5h5.8v4.4h-5.8z"/>
    <path fill="#231f20" d="M9.2 43.3v17.1h5.3c0-11.5.9-13 .9-13h1.1s.9 1.5.9 13h5.3V43.3H9.2"/>
    <g fill="#428bc1">
        <path d="M17.4 59.9c.9-1.1 4.4-1.1 5.3 0V62h-5.3v-2.1M14.6 59.9c-.9-1.1-4.4-1.1-5.3 0V62h5.3v-2.1M23.3 28.8h-4.5c0 .9-1.3 1.7-2.9 1.7-1.6 0-2.9-.7-2.9-1.7H8.6l.7 14.5h13.5l.5-14.5"/>
        <path d="M29.7 43.7L22 31.1c-1.2-2 1.4-3.2 2.6-1.3l7.7 12.6-2.6 1.3"/>
    </g>
    <path fill="#ffe1bd" d="M29.7 43.7c1.5 2.4 2.1 2.2 2.8 1.9.7-.3 1.2-.8-.2-3.2l-2.6 1.3"/>
    <path fill="#428bc1" d="M4.3 44.4L7 30.2c.4-2.2 3.4-1.7 2.9.5L7.2 44.9l-2.9-.5"/>
    <g fill="#ffe1bd">
        <path d="M4.3 44.4c-.5 2.7.1 2.9.9 3.1.8.1 1.5.1 2-2.6l-2.9-.5M45.1 26.5h5.8v4.4h-5.8z"/>
    </g>
    <path fill="#231f20" d="M54.8 43.3v17.1h-5.3c0-11.5-.9-13-.9-13h-1.1s-.9 1.5-.9 13h-5.3V43.3h13.5"/>
    <g fill="#428bc1">
        <path d="M46.6 59.9c-.9-1.1-4.4-1.1-5.3 0V62h5.3v-2.1M49.4 59.9c.9-1.1 4.4-1.1 5.3 0V62h-5.3v-2.1"/>
    </g>
    <g fill="#6adbc6">
        <path d="M40.7 28.8h4.5c0 .9 1.3 1.7 2.9 1.7s2.9-.7 2.9-1.7h4.5l-.6 14.5H41.3l-.6-14.5"/>
        <path d="M34.3 43.7L42 31.1c1.2-2-1.4-3.2-2.6-1.3l-7.7 12.6 2.6 1.3"/>
    </g>
    <path fill="#ffe1bd" d="M34.3 43.7c-1.5 2.4-2.1 2.2-2.8 1.9-.7-.3-1.2-.8.2-3.2l2.6 1.3"/>
    <path fill="#6adbc6" d="M59.7 44.4L57 30.2c-.4-2.2-3.4-1.7-2.9.5l2.8 14.1 2.8-.4"/>
    <path fill="#ffe1bd" d="M59.7 44.4c.5 2.7-.1 2.9-.9 3.1-.8.1-1.5.1-2-2.6l2.9-.5"/>
    <path fill="#594640" d="M3.7 14.9L5 17.2h22l1-2.5C28 5.8 25.9 2.1 16.2 2 6.2 1.9 3.7 5.8 3.7 14.9"/>
    <path fill="#ffe1bd" d="M27 14.7c-.1.5-.2 1-.3 1.3-.3.5-.8.8-.8.8s.1-1 .1-2.4c-.6-8.2-1-4.2-10-4.2S6.6 6.3 6 14.4c-.1 1.4.1 2.4.1 2.4s-.6-.3-.8-.8c-.1-.3-.2-.8-.3-1.3-.8-.2-1.9 0-1.9 2.4 0 1.5.6 2.8 2.4 2.9.7 5.1 7.5 8.5 10.5 8.5 3.1 0 9.9-3.4 10.5-8.5 1.9-.1 2.4-1.4 2.4-2.9 0-2.4-1.1-2.6-1.9-2.4"/>
    <g fill="#91774f">
        <circle cx="11.4" cy="17.4" r="1.9"/>
        <circle cx="20.6" cy="17.4" r="1.9"/>
        <path d="M19 23.1c-1.9 1.5-4.1 1.5-6 0-.2-.2-.4.1-.3.4.6 1.1 1.8 2 3.3 2 1.5 0 2.7-1 3.3-2 .1-.3-.1-.6-.3-.4"/>
    </g>
    <path fill="#594640" d="M35.8 14.9l1.3 2.3h22l1-2.5C60 5.8 57.9 2.1 48.1 2c-9.8-.1-12.3 3.8-12.3 12.9"/>
    <path fill="#ffe1bd" d="M59.1 14.7c-.1.5-.2 1-.3 1.3-.3.5-.8.8-.8.8s.1-1 .1-2.4c-.6-8.2-1-4.2-10-4.2s-9.4-3.9-10 4.2c-.1 1.4.1 2.4.1 2.4s-.5-.3-.8-.8c-.1-.3-.2-.8-.3-1.3-.8-.2-1.9 0-1.9 2.4 0 1.5.6 2.8 2.4 2.9.7 5.1 7.5 8.5 10.5 8.5 3.1 0 9.9-3.4 10.5-8.5 1.9-.1 2.4-1.4 2.4-2.9 0-2.4-1.1-2.6-1.9-2.4"/>
    <g fill="#91774f">
        <path d="M45.3 17.4c0 1-.8 1.9-1.9 1.9-1 0-1.9-.8-1.9-1.9 0-1 .8-1.9 1.9-1.9 1.1 0 1.9.8 1.9 1.9"/>
        <circle cx="52.6" cy="17.4" r="1.9"/>
        <path d="M51 23.1c-1.9 1.5-4.1 1.5-6 0-.2-.2-.4.1-.3.4.6 1.1 1.8 2 3.3 2 1.5 0 2.7-1 3.3-2 .2-.3 0-.6-.3-.4"/>
    </g>
</svg>