<svg xmlns="http://www.w3.org/2000/svg" viewBox="0 0 64 64">
    <title>alien monster</title>
    <g fill="#592f5d">
        <path d="M9.9 43.9c-.3 0-.5-.1-.7-.2-.2-.2-5.8-4-7-10.2-.6-3.5.2-7 2.5-10.3 3.8-5.5 5.1-10.1 3.9-13.5-1.3-3.7-5.3-4.9-5.3-5-.7-.2-1.1-1-.9-1.7.2-.7.9-1.2 1.6-.9.2.1 5.3 1.6 7.1 6.6 1.5 4.3.1 9.7-4.2 16-1.9 2.7-2.6 5.5-2.1 8.2.9 5.1 5.8 8.4 5.8 8.4.6.4.8 1.3.4 1.9-.2.5-.6.7-1.1.7M54.1 43.9c-.4 0-.9-.2-1.1-.6-.4-.6-.2-1.5.4-1.9 0 0 4.9-3.4 5.8-8.4.5-2.7-.2-5.4-2.1-8.2-4.3-6.3-5.7-11.7-4.2-16 1.8-5.1 6.9-6.6 7.1-6.6.7-.2 1.5.2 1.7.9.2.7-.2 1.5-.9 1.7 0 0-4 1.2-5.3 5-1.2 3.4.1 8 3.9 13.5 2.3 3.4 3.1 6.8 2.5 10.3-1.2 6.2-6.8 10-7 10.2-.3 0-.6.1-.8.1"/>
    </g>
    <path fill="#917dbc" d="M32 6.2c-7.1 0-26.3 10.5-26.1 35.5 0 4 .2 14 2.2 15.6 2 1.7 6.9-2.6 9.3-1.5 2.4 1.2 3.2 5.5 5.9 6.1 2.7.6 6-2.9 8.7-2.9 2.7 0 6.1 3.5 8.7 2.9 2.6-.6 3.5-4.9 5.9-6.1 2.3-1.1 7.3 3.1 9.3 1.5 2-1.7 2.2-11.7 2.2-15.6C58.3 19.1 41.3 6.2 32 6.2"/>
    <g fill="#fff">
        <path d="M48.8 30.6c3.6 3.9 3.6 10.2 0 14.1s-9.5 3.9-13.1 0c-.1 0 9.4-18 13.1-14.1M13.6 36.3c-3.3 8 2.1 5.9 6.8 8.2 4.7 2.2 8.1 5 10.2 0-.1-.1-15-13.2-17-8.2"/>
    </g>
    <g fill="#592f5d">
        <path d="M20.9 42.2c0 2 1.5 3.7 3.4 3.7s3.4-1.6 3.4-3.7c-1.3-1-2.9-2.3-4.6-3.4-1.2.5-2.2 1.8-2.2 3.4M40.8 45.8c1.9 0 3.4-1.6 3.4-3.7 0-2-1.5-3.7-3.4-3.7-.7 0-1.3.2-1.9.6-.5.9-1 1.7-1.5 2.4 0 .2-.1.4-.1.6.1 2.2 1.6 3.8 3.5 3.8"/>
    </g>
    <g fill="#62fbf6">
        <path d="M32 26c-8.1 0-9 1.9-10.3-.5-.6-1.1 2.2-3.2 10.3-3.2 8.1 0 10.9 2.1 10.3 3.2-1.3 2.4-2.2.5-10.3.5M32 19c-8.1 0-9 1.9-10.3-.5-.6-1.1 2.2-3.2 10.3-3.2 8.1 0 10.9 2.1 10.3 3.2-1.3 2.4-2.2.5-10.3.5M17.2 51.3c-.7 1.4-3.3 1.6-5.9.3-2.6-1.3-4.1-3.5-3.4-4.9.7-1.4 3.3-1.6 5.9-.3s4 3.4 3.4 4.9M46.8 51.3c.7 1.4 3.3 1.6 5.9.3 2.6-1.3 4.1-3.5 3.4-4.9-.7-1.4-3.3-1.6-5.9-.3-2.5 1.2-4 3.4-3.4 4.9"/>
    </g>
</svg>