<svg xmlns="http://www.w3.org/2000/svg" viewBox="0 0 64 64">
    <title>ghost</title>
    <path fill="#6adbc6" d="M32 3C20.5 3 10.8 14.5 11.4 27.1c.2 3.4.9 28.9 3.9 33 2.4 3.3 5.3-3.4 9.1-3.4s3.8 4.2 7.6 4.2 3.8-4.2 7.6-4.2 6.7 6.7 9.1 3.4c3-4.1 3.7-29.6 3.9-33C53.2 14.5 43.5 3 32 3"/>
    <path fill="#50ffdd" d="M47.2 62c-1.3 0-2.5-1-3.7-2.1-1.3-1.1-2.6-2.2-3.9-2.2-1.5 0-2.2.8-3.1 1.8-1 1.1-2.2 2.4-4.5 2.4s-3.6-1.3-4.5-2.4c-.9-1-1.6-1.8-3.1-1.8-1.3 0-2.6 1.1-3.9 2.2-1.2 1.1-2.4 2.1-3.7 2.1-.9 0-1.6-.4-2.3-1.3-1.9-2.7-3.2-12.8-4-31.9 0-.7-.1-1.3-.1-1.7-.4-6.8 2.1-13.5 6.8-18.4C21.3 4.4 26.6 2 32 2s10.7 2.4 14.8 6.7c4.7 4.9 7.2 11.6 6.8 18.4 0 .3 0 .9-.1 1.6-.8 19.1-2.1 29.3-4 32-.6.9-1.4 1.3-2.3 1.3m-7.6-6.3c2 0 3.7 1.4 5.2 2.7.9.8 1.9 1.6 2.4 1.6.1 0 .3 0 .7-.5 1.1-1.6 2.7-8.2 3.6-30.9 0-.7.1-1.3.1-1.6.3-6.2-2-12.4-6.3-16.9C41.6 6.2 36.9 4 32 4s-9.6 2.2-13.3 6.1c-4.3 4.5-6.6 10.7-6.3 16.9 0 .3 0 .9.1 1.7.9 22.6 2.5 29.3 3.6 30.8.4.5.6.5.7.5.6 0 1.6-.9 2.4-1.6 1.5-1.3 3.1-2.7 5.2-2.7 2.3 0 3.6 1.3 4.5 2.4.9 1 1.6 1.8 3.1 1.8s2.2-.8 3.1-1.8c.9-1.1 2.2-2.4 4.5-2.4"/>
    <path fill="#6adbc6" d="M48.8 34.2c10.8 2.6 8.7-3.1 11.4.1 2.5 2.9-1 9.1-12.1 11.5"/>
    <path fill="#50ffdd" d="M48.2 46.8c-.5 0-.9-.3-1-.8-.1-.5.2-1.1.8-1.2 7.5-1.6 11.1-4.9 11.9-7.3.2-.7.4-1.7-.3-2.5-.3-.4-.5-.5-.6-.6-.1 0-.2.1-.3.2-1.2.8-3.3 2.3-10.1.7-.5-.1-.9-.7-.7-1.2.1-.5.7-.9 1.2-.7 5.9 1.4 7.6.2 8.5-.4 1.3-.9 2.2-.7 3.5.8 1 1.2 1.3 2.8.7 4.5-1 3-5 6.8-13.3 8.6-.2-.1-.3-.1-.3-.1"/>
    <path fill="#6adbc6" d="M15.3 34.2c-10.9 2.6-8.7-3.1-11.5.1-2.5 2.9.9 9.1 12.1 11.5"/>
    <path fill="#50ffdd" d="M15.8 46.8h-.2c-7-1.5-12-4.7-13.3-8.6-.6-1.7-.3-3.3.7-4.5 1.3-1.5 2.2-1.7 3.5-.8.9.6 2.6 1.8 8.5.3.5-.1 1.1.2 1.2.7s-.2 1.1-.7 1.2c-6.8 1.6-8.9.2-10.1-.6-.1-.1-.2-.1-.3-.2-.1.1-.2.3-.6.7-.7.8-.6 1.9-.3 2.6.8 2.3 4.4 5.6 11.8 7.2.5.1.9.6.8 1.2-.1.5-.5.8-1 .8"/>
    <ellipse cx="41.4" cy="24.3" fill="#fff" rx="6.1" ry="6.9"/>
    <ellipse cx="41.4" cy="24.3" fill="#308776" rx="4" ry="4.5"/>
    <path fill="#fff" d="M33.5 22.3c0 5-3.8 9.1-8.5 9.1s-8.5-4.1-8.5-9.1 3.8-9.1 8.5-9.1c4.7-.1 8.5 4 8.5 9.1"/>
    <g fill="#308776">
        <path d="M30.6 22.3c0 3.3-2.5 6-5.6 6s-5.6-2.7-5.6-6 2.5-6 5.6-6 5.6 2.7 5.6 6M44.8 35.4c0 4.4-5.4 8.1-12.1 8.1-6.7 0-12.1-3.7-12.1-8.1 0 0 5.8 1.3 12.1 1.3s12.1-1.3 12.1-1.3"/>
    </g>
    <path fill="#ff717f" d="M25 43.8c0-5.5 0-3.8 7.7-3.8s7.7-1.7 7.7 3.8-3.5 8.3-7.7 8.3c-4.3 0-7.7-2.8-7.7-8.3"/>
    <path fill="#e2596c" d="M34 40l-1.3 9.5-1.2-9.5z"/>
</svg>