<svg xmlns="http://www.w3.org/2000/svg" viewBox="0 0 64 64">
    <title>baby angel: medium-dark skin tone</title>
    <g fill="#bec6c9">
        <path d="M5.4 10.1c1.4-1.1 6.2 3.5 10.7 10.2 4.5 6.8 7 13.2 5.5 14.3-1.4 1.1-6.2-3.5-10.7-10.2-4.5-6.8-7-13.2-5.5-14.3"/>
        <path d="M2.2 18.4c1-1.5 6.7 1.1 12.7 5.8 6 4.8 10 9.9 8.9 11.4-1 1.5-6.7-1.1-12.7-5.8-6-4.8-10-9.9-8.9-11.4"/>
        <path d="M3.9 28.4c.4-1.9 5.3-2.2 10.9-.7 5.6 1.5 9.8 4.1 9.4 6-.4 1.9-5.3 2.2-10.9.7-5.6-1.5-9.8-4.1-9.4-6"/>
        <path d="M4 38.1c-.7-1.8 2.7-5 7.5-7.3s9.3-2.7 10-.9c.7 1.8-2.7 5-7.5 7.3-4.8 2.2-9.3 2.7-10 .9"/>
        <path d="M6.4 44.8c-.9-1.5 1.8-5.3 6.2-8.5 4.3-3.2 8.6-4.7 9.5-3.2.9 1.5-1.8 5.3-6.2 8.5-4.3 3.2-8.6 4.6-9.5 3.2"/>
        <path d="M10.8 50.7c-1.2-1.2.8-5.6 4.4-9.7 3.6-4.1 7.6-6.5 8.8-5.2 1.2 1.2-.8 5.6-4.4 9.7-3.7 4.1-7.6 6.5-8.8 5.2M10.2 5.1c1.1-.6 3.9 3.1 6.2 8.2 2.3 5.1 3.3 9.8 2.2 10.4-1.1.6-3.9-3.1-6.2-8.2-2.3-5.2-3.3-9.8-2.2-10.4"/>
        <path d="M14.9 55.8c-1.1-.7.3-5.3 3-10.1 2.8-4.9 5.9-8.2 7-7.5 1.1.7-.3 5.2-3 10.1-2.8 4.9-5.9 8.2-7 7.5"/>
        <path d="M20.2 57.6c-.9-.2-.9-4.9.1-10.5.9-5.6 2.4-10 3.3-9.8.9.2.9 4.9-.1 10.5-.9 5.5-2.4 9.9-3.3 9.8M24.9 59c-.9-.1-1.1-4-.5-8.6.6-4.6 1.8-8.3 2.7-8.1.9.1 1.1 4 .5 8.6-.6 4.6-1.8 8.2-2.7 8.1"/>
    </g>
    <g fill="#e1edf5">
        <path d="M13 6.6c1.4-1.1 6.2 3.5 10.7 10.2 4.5 6.8 7 13.2 5.5 14.3-1.4 1.1-6.2-3.5-10.7-10.2-4.4-6.8-6.9-13.2-5.5-14.3"/>
        <path d="M6 14.8c1-1.5 6.7 1.1 12.7 5.8 6 4.8 10 9.9 8.9 11.4-1 1.5-6.7-1.1-12.7-5.8C9 21.5 5 16.4 6 14.8z"/>
        <path d="M4.9 26.3c.4-1.9 5.3-2.2 10.9-.7 5.6 1.5 9.8 4.1 9.4 6-.4 1.9-5.3 2.2-10.9.7-5.6-1.4-9.8-4.1-9.4-6"/>
        <path d="M7 38.6c-.9-1.7 2.2-5.3 6.8-8 4.6-2.8 9-3.6 9.9-2 .9 1.7-2.2 5.3-6.8 8-4.6 2.8-9.1 3.7-9.9 2"/>
        <path d="M9.8 45c-1-1.2 1.3-5.3 5.3-9.1 3.9-3.8 7.9-5.9 9-4.6 1 1.2-1.3 5.3-5.3 9.1s-8 5.9-9 4.6"/>
        <path d="M12.3 53.5c-1.1-.6-.1-5.2 2.3-10.3 2.4-5.1 5.2-8.7 6.3-8.1 1.1.6.1 5.2-2.3 10.3-2.4 5.1-5.2 8.7-6.3 8.1"/>
        <path d="M18.3 55.4c-1.2-.4-1.1-5.1.3-10.6 1.4-5.5 3.5-9.7 4.7-9.3 1.2.4 1.1 5.1-.3 10.6-1.4 5.5-3.5 9.6-4.7 9.3M22.8 56.9c-.9-.3-.5-4.9.9-10.4s3.2-9.8 4.1-9.5c.9.3.5 4.9-.9 10.4s-3.2 9.7-4.1 9.5"/>
    </g>
    <g fill="#bec6c9">
        <path d="M58.4 10.3c-1.4-1.1-6.2 3.5-10.7 10.2-4.5 6.8-7 13.2-5.5 14.3 1.4 1.1 6.2-3.5 10.7-10.2 4.4-6.7 6.9-13.1 5.5-14.3"/>
        <path d="M61.8 18.4c-1-1.5-6.7 1.1-12.7 5.8-6 4.8-10 9.9-8.9 11.4 1 1.5 6.7-1.1 12.7-5.8 6-4.8 10-9.9 8.9-11.4"/>
        <path d="M60.6 28.4c-.4-1.9-5.3-2.2-10.9-.7-5.6 1.5-9.8 4.1-9.4 6 .4 1.9 5.3 2.2 10.9.7 5.6-1.5 9.8-4.1 9.4-6"/>
        <path d="M60 38.1c.7-1.8-2.7-5-7.5-7.3s-9.3-2.7-10-.9c-.7 1.8 2.7 5 7.5 7.3 4.8 2.2 9.3 2.7 10 .9"/>
        <path d="M57.6 44.8c.9-1.5-1.8-5.3-6.2-8.5-4.3-3.2-8.6-4.7-9.5-3.2-.9 1.5 1.8 5.3 6.2 8.5 4.3 3.2 8.6 4.6 9.5 3.2"/>
        <path d="M53.2 50.7c1.2-1.2-.8-5.6-4.4-9.7-3.6-4.1-7.6-6.5-8.8-5.2-1.2 1.2.8 5.6 4.4 9.7 3.7 4.1 7.6 6.5 8.8 5.2M53.8 5.1c-1.1-.6-3.9 3.1-6.2 8.2-2.3 5.1-3.3 9.8-2.2 10.4 1.1.6 3.9-3.1 6.2-8.2 2.3-5.2 3.3-9.8 2.2-10.4"/>
        <path d="M49.1 55.8c1.1-.7-.3-5.3-3-10.1-2.8-4.9-5.9-8.2-7-7.5-1.1.7.3 5.2 3 10.1 2.8 4.9 5.9 8.2 7 7.5"/>
        <path d="M43.8 57.6c.9-.2.9-4.9-.1-10.5-.9-5.6-2.4-10-3.3-9.8-.9.2-.8 4.9.1 10.5.9 5.5 2.4 9.9 3.3 9.8M39.1 59c.9-.1 1.1-4 .5-8.6-.6-4.6-1.8-8.3-2.8-8.1-.9.1-1.1 4-.5 8.6.7 4.6 1.9 8.2 2.8 8.1"/>
    </g>
    <g fill="#e1edf5">
        <path d="M51.6 6.6c-1.4-1.1-6.2 3.5-10.7 10.2-4.5 6.8-7 13.2-5.6 14.3 1.4 1.1 6.2-3.5 10.7-10.2 4.5-6.8 7-13.2 5.6-14.3"/>
        <path d="M58 14.8c-1-1.5-6.7 1.1-12.7 5.8-6 4.8-10 9.9-8.9 11.4 1 1.5 6.7-1.1 12.7-5.8C55 21.5 59 16.4 58 14.8"/>
        <path d="M59.1 26.3c-.4-1.9-5.3-2.2-10.9-.7-5.6 1.5-9.8 4.1-9.4 6 .4 1.9 5.3 2.2 10.9.7 5.6-1.4 9.8-4.1 9.4-6"/>
        <path d="M57 38.6c.8-1.7-2.2-5.3-6.8-8-4.6-2.8-9-3.6-9.9-2-.9 1.7 2.2 5.3 6.8 8 4.6 2.8 9.1 3.7 9.9 2"/>
        <path d="M54.2 45c1-1.2-1.3-5.3-5.3-9.1C45 32.1 41 30 40 31.3c-1 1.2 1.3 5.3 5.3 9.1 3.9 3.8 7.9 5.9 8.9 4.6"/>
        <path d="M51.7 53.5c1.1-.6.1-5.2-2.3-10.3-2.4-5.1-5.2-8.7-6.3-8.1-1.1.6-.1 5.2 2.3 10.3 2.4 5.1 5.2 8.7 6.3 8.1"/>
        <path d="M45.7 55.4c1.2-.4 1.1-5.1-.3-10.6-1.4-5.5-3.5-9.7-4.7-9.3-1.2.4-1.1 5.1.3 10.6 1.4 5.5 3.5 9.6 4.7 9.3M41.2 56.9c.9-.3.5-4.9-.9-10.4s-3.2-9.8-4.1-9.5c-.9.3-.5 4.9.9 10.4s3.2 9.7 4.1 9.5"/>
    </g>
    <path fill="#231f20" d="M32 12.5c15.3 0 18.7 10.2 18.7 16 0 5.1-.7 7.3-.7 7.3H14s-.7-2.2-.7-7.3c0-5.8 3.4-16 18.7-16"/>
    <path fill="#b47d56" d="M48.8 33.2s-.5-2.2-.8-6.8c-.3-5-7.3-1-16-1s-15.7-4-16 1c-.3 4.6-.8 6.8-.8 6.8-4.3 0-4.3 7 .3 7 0 7.6 9.5 12.3 16.5 12.3s16.5-4.7 16.5-12.3c4.6 0 4.6-7 .3-7"/>
    <circle cx="40.3" cy="34.8" r="4.3" fill="#fff"/>
    <circle cx="40.3" cy="34.8" r="3" fill="#664e27"/>
    <circle cx="40.3" cy="34.8" r="1" fill="#231f20"/>
    <circle cx="23.7" cy="34.8" r="4.3" fill="#fff"/>
    <circle cx="23.7" cy="34.8" r="3" fill="#664e27"/>
    <circle cx="23.7" cy="34.8" r="1" fill="#231f20"/>
    <path fill="#664e27" d="M38 44.6c0 2.3-3 3.4-6 3.4s-6-1.1-6-3.4c0 0 0-.6.6-.6h10.8c.6 0 .6.6.6.6"/>
    <path fill="#4aa9ff" d="M32 7.1c-8.3 0-14.9 1.4-14.9 4.4s6.7 5.3 14.9 5.3c8.3 0 14.9-2.4 14.9-5.3S40.2 7.1 32 7.1m0 5.2c-5.5 0-10-.8-10-1.8s4.5-1.7 10-1.7 10 .7 10 1.7-4.5 1.8-10 1.8"/>
</svg>