<svg xmlns="http://www.w3.org/2000/svg" viewBox="0 0 64 64">
    <title>angry face with horns</title>
	<g transform="translate(0,3)">
		<circle cx="32" cy="29" r="27" fill="#f46767"/>
		<path fill="#493b30" d="M46.2 37.4c0 6-4.7 13-14.2 13s-14.2-7-14.2-13h28.4"/>
		<path fill="#302822" d="M34 39.9c-.6 0-1.6.6-1.2 2.1.2.8 1.3 1.7 1.3 2.9 0 2.5-4.1 2.5-4.1 0 0-1.2 1.1-2.1 1.3-2.9.4-1.5-.6-2.1-1.2-2.1-1.7 0-4.5 1.8-4.5 4.8 0 3.4 2.9 6.1 6.6 6.1s6.6-2.7 6.6-6.1c-.2-3-3.1-4.8-4.8-4.8"/>
		<path fill="#ff717f" d="M38.8 49.1C37 48 34.7 47.4 32 47.4s-5 .7-6.8 1.7c1.8 1.1 4.1 1.7 6.8 1.7s5-.6 6.8-1.7"/>
		<g fill="#fff">
			<path d="M32 37.8l2.3 4.2 2.2-4.2zM36.5 37.8l2.3 4.2 2.2-4.2zM41 37.8l2.3 4.2 2.3-4.2zM23 37.8l2.2 4.2 2.3-4.2zM18.4 37.8l2.3 4.2 2.3-4.2zM27.5 37.8l2.2 4.2 2.3-4.2z"/>
		</g>
		<path fill="#493b30" d="M32 51.2c-9.7 0-14.9-7.1-14.9-13.8v-.7H47v.7c-.1 6.7-5.3 13.8-15 13.8m-13.4-13c.4 5.7 5 11.5 13.4 11.5s13-5.8 13.4-11.5H18.6"/>
		<path fill="#fff" d="M51 22c1.9 4 .1 8.8-3.9 10.7-4 1.9-8.8.1-10.7-3.9C35 25.8 49.6 19 51 22"/>
		<g fill="#493b30">
			<path d="M48.6 23.1c1.3 2.7.1 6-2.6 7.2-2.7 1.3-6 .1-7.2-2.6-.9-1.7 9-6.3 9.8-4.6"/>
			<path d="M52.5 22.4c-1.7.2-3.3.4-4.8.8s-2.9.9-4.3 1.6c-1.4.6-2.7 1.4-4 2.3s-2.5 1.9-3.7 3.2c.2-1.8 1.1-3.4 2.2-4.8 1.2-1.4 2.7-2.5 4.3-3.2 1.6-.8 3.4-1.2 5.2-1.2 1.8-.1 3.6.3 5.1 1.3"/>
		</g>
		<path fill="#fff" d="M13 22c-1.9 4-.1 8.8 3.9 10.7 4 1.9 8.8.1 10.7-3.9C29 25.8 14.4 19 13 22"/>
		<g fill="#493b30">
			<path d="M15.4 23.1c-1.3 2.7-.1 6 2.6 7.2 2.7 1.3 6 .1 7.2-2.6.9-1.7-9-6.3-9.8-4.6"/>
			<path d="M11.5 22.4c1.5-1 3.3-1.4 5.1-1.4 1.8 0 3.6.4 5.2 1.2 1.6.7 3.1 1.9 4.3 3.2 1.2 1.4 2 3 2.2 4.8-1.2-1.2-2.4-2.3-3.7-3.2-1.3-.9-2.6-1.6-4-2.3-1.4-.6-2.8-1.2-4.3-1.6-1.5-.3-3-.6-4.8-.7"/>
		</g>
		<g fill="#ffce31">
			<path d="M55.7 0s-1.9 6-6.4 9.8c-5.1 4.4-.2 10 3.9 8.8 3.1-.9 7.6-5.5 2.5-18.6M14.7 9.8C10.2 6 8.3 0 8.3 0c-5 13.1-.5 17.7 2.5 18.6 4 1.2 9-4.3 3.9-8.8"/>
		</g>
	</g>
</svg>