<svg xmlns="http://www.w3.org/2000/svg" viewBox="0 0 64 64">
    <title>kiss: medium-light skin tone</title>
    <path fill="#ff5a79" d="M46.5 7.1C43.3-1.4 33 2.4 32 6.6c-1.3-4.5-11.4-7.9-14.5.4C14 16.3 30.8 24.6 32 26c1.2-1.1 18-9.8 14.5-18.9"/>
    <path fill="#dbb471" d="M17 22C7.3 22 2 28.3 2 36.7v24.5h30V36.7c0-12.4-8.1-12.2-8.1-12.2S23.3 22 17 22z"/>
    <path fill="#01579b" d="M32 60.8V62h30V47.8s-30 7.2-30 13"/>
    <path fill="#c2185b" d="M2 47.8V62h30v-1.2c0-5.8-30-13-30-13"/>
    <path fill="#dbb471" d="M34.8 40h24.8l1.1-2.9c0-10.6-2.5-15-14.1-15.1-12.4-.1-13.8 10.3-11.8 18"/>
    <path fill="#fed0ac" d="M59.7 37.1c-.1.6-.2 1.2-.4 1.5-.3.6-.9.9-.9.9s.2-1.2.1-2.8c-.7-9.7-2.6-5.1-15.9-5.1-4.7 0-8.2-3.5-8.2 12 0 5.8 4.3 11.5 9.9 11.5 6 0 14.8-4.2 14.8-11.7 2.2-.2 2.9-1.7 2.9-3.5 0-2.8-1.3-3-2.3-2.8"/>
    <g fill="#947151">
        <path d="M35.8 39.9c.9-2 2.2-3 3.6-3s2.7 1 3.6 3c.1.2-.4.6-.6.4-.9-.7-1.9-1-3-1s-2.1.3-3 1c-.2.1-.7-.2-.6-.4M46.6 39.9c.9-2 2.2-3 3.6-3s2.7 1 3.6 3c.1.2-.4.6-.6.4-.9-.7-1.9-1-3-1s-2.1.3-3 1c-.2.1-.7-.2-.6-.4M40.8 49.4c-.8-.8.9-1.4.9-2.8s-1.6-2-.9-2.8c.9-.9 2.9-.2 4.1-1.5 0 1-.9 2.2-2.5 2.2 0 0 1.1.4 1.1 2.2 0 1.7-1.1 2.2-1.1 2.2 1.6 0 2.5 1.1 2.5 2.2-1.2-1.4-3.2-.7-4.1-1.7"/>
    </g>
    <path fill="#fed0ac" d="M5.3 37.1c.1.6.2 1.2.4 1.5.3.6.9.9.9.9s11.8-4.1 17.8-9.9c0 0 5.9 1.9 5.9 14.2 0 5.2-3.7 11.3-9.6 11.3-6 0-14.8-4.2-14.8-11.7C3.7 43.3 3 41.8 3 40c0-2.9 1.3-3.1 2.3-2.9"/>
    <g fill="#947151">
        <path d="M29.2 39.9c-.9-2-2.2-3-3.6-3s-2.7 1-3.6 3c-.1.2.4.6.6.4.9-.7 1.9-1 3-1s2.1.3 3 1c.2.1.7-.2.6-.4M18.4 39.9c-.9-2-2.2-3-3.6-3s-2.7 1-3.6 3c-.1.2.4.6.6.4.9-.7 1.9-1 3-1s2.1.3 3 1c.2.1.7-.2.6-.4M24.2 49.4c.8-.8-.9-1.4-.9-2.8s1.6-2 .9-2.8c-.9-.9-2.9-.2-4.1-1.5 0 1 .9 2.2 2.5 2.2 0 0-1.1.4-1.1 2.2 0 1.7 1.1 2.2 1.1 2.2-1.6 0-2.5 1.1-2.5 2.2 1.2-1.4 3.2-.7 4.1-1.7"/>
    </g>
</svg>