<svg xmlns="http://www.w3.org/2000/svg" viewBox="0 0 64 64">
    <title>light bulb</title>
	<g fill="#616466">
		<path d="M28 58c0 2.2 1.8 4 4 4s4-1.8 4-4h-8"/>
		<path d="M25.9 51.8h12.3v1.8H25.9z"/>
		<path d="M26.9 55.5h10.3v1.8H26.9z"/>
	</g>
	<path fill="#ffce31" d="M24.9 48H39c.8-4.3 3.5-8.5 6.3-12.9C48.6 30 52 24.7 52 19.6 52 9.9 43 2 32 2S12 9.9 12 19.6c0 5.1 3.4 10.4 6.6 15.5 2.8 4.4 5.5 8.6 6.3 12.9"/>
	<!--path fill="#c79127" d="M26.4 33.6c.1.6.3 1.2.4 1.8.3 1.1.5 2.1.8 3.2.9 3.8 1.7 7 2.4 9.5h.6c-.5-2.5-1.2-5.8-2.1-9.6-.2-1-.5-2.1-.7-3.2-.1-.5-.2-1.1-.4-1.6.8-.2 2.7-.8 4.6-2.9 1.9 2.1 3.8 2.7 4.6 2.9-.1.6-.2 1.1-.4 1.6-.2 1.1-.5 2.2-.7 3.2-.9 3.8-1.6 7.1-2.1 9.6h.6c.6-2.5 1.5-5.7 2.4-9.5.2-1 .5-2.1.8-3.2.1-.6.3-1.2.4-1.8.8-.1 1.5-.3 2-.8.6-.6.9-1.3.7-2.1-.1-.4-.3-.9-.9-1-.3-.1-.5-.1-.8 0-.3.1-.5.3-.6.4-.5.6-.7 1.2-.9 1.8l-.3.9s-.8.1-2.7-1.2c-1-.7-1.3-1.2-1.6-1.5.3-.4.6-.7.9-1.2.1-.3.2-.5.3-.9 0-.3 0-.7-.2-1-.2-.3-.4-.6-.9-.8-.2-.1-.4-.1-.6-.1s-.4 0-.6.1c-.4.2-.7.5-.9.8-.2.3-.2.7-.2 1 0 .3.1.6.3.9.2.5.5.9.9 1.2-.3.3-.6.8-1.6 1.5-1.8 1.2-2.7 1.2-2.7 1.2l-.3-.9c-.2-.6-.4-1.2-.9-1.8-.1-.1-.3-.3-.6-.4-.3-.1-.6-.1-.8 0-.6.2-.8.7-.9 1-.1.8.2 1.5.7 2.1.6.5 1.3.7 2 .8M38 32.1c.2-.5.4-1.1.8-1.4.1-.1.2-.1.2-.1h.2c.1 0 .2.1.3.4.1.4-.1 1-.5 1.3-.3.2-.7.4-1.1.5 0-.3 0-.5.1-.7m-6.6-4.8c.2-.2.4-.4.6-.4.2 0 .4.1.6.4.2.3.1.7-.1 1.1-.1.3-.3.6-.5.8-.2-.3-.4-.5-.5-.8-.2-.3-.3-.7-.1-1.1m-6.8 3.5c0-.2.1-.3.3-.4h.2s.1.1.2.1c.3.3.6.9.8 1.4.1.2.1.4.2.6-.4-.1-.8-.2-1.1-.5-.4-.2-.6-.7-.6-1.2"/-->
	<path fill="#eff0f1" d="M 17.92669 34.010994 C 18.157874 34.375493 18.389727 34.739201 18.621 35.102 C 21.425 39.495 24.103 43.688 24.938 48 L 24.938 48 L 39.063 48 C 39.901 43.687 42.576 39.495 45.378 35.102 C 45.609344 34.739201 45.841264 34.375493 46.072509 34.010994 "/>
	<g fill="#94989b">
		<path d="M24.9 50h14.3v1.8H24.9zM25.9 53.6h12.3v1.8H25.9z"/>
		<path d="M39.2 50l-13.3 3.6v1.9l13.3-3.7zM26.9 57.3h10.3v1.8H26.9z"/>
		<path d="M38.2 53.6l-11.3 3.7v1.9l11.3-3.7z"/>
	</g>
</svg>