<svg xmlns="http://www.w3.org/2000/svg" viewBox="0 0 64 64">
    <title>straight ruler</title>
    <path fill="#f8db7d" d="M8.3.9c1.2-1.2 3.2-1.2 4.4 0L63 51.2c1.2 1.2 1.2 3.2 0 4.4L55.6 63c-1.2 1.2-3.2 1.2-4.4 0L.9 12.8C-.3 11.6-.3 9.6.9 8.4L8.3.9"/>
    <g fill="#ebc463">
        <path d="M38.3 40.7C22.2 24.6 9.8 10.9 10.6 10c.2-.2 1.5.6 3.6 2.3C11 9 8.2 6 5.9 3.4L3.1 6.2c4.5 4 10 9.3 15.9 15.2C32.6 35 42.9 46.7 42 47.6c-.9.9-12.6-9.4-26.2-23.1C9.9 18.7 4.6 13.2.6 8.7c-.9 1.2-.8 3 .3 4.1l26 26c1.5-1.1 10.2 5.6 19.7 15.1 3.3 3.3 6.3 6.6 8.8 9.5l.3-.3 2.9-2.9c-5.5-5-12.6-11.8-20.3-19.5M8.3.9l-.2.2c4.2 3.8 9.6 8.9 15.3 14.6C36 28.3 45.6 39.2 44.8 40c-.2.2-1.1-.3-2.5-1.3C49.6 46 56 52.8 60.8 58l2.3-2.3.2-.2c-1.7-1.6-3.5-3.4-5.4-5.3-7.7-7.7-13.7-14.3-13.3-14.7.4-.4 7 5.5 14.7 13.3 1.7 1.7 3.2 3.3 4.7 4.8 0-.8-.3-1.6-.9-2.2L12.8.9C11.5-.3 9.6-.3 8.3.9"/>
    </g>
    <g fill="#89664c">
        <path d="M4.721 9.506l8.268-8.278 1.628 1.625-8.269 8.278zM12.039 8.553l4.172-4.172 1.626 1.627-4.172 4.172zM15.376 11.764l4.172-4.172 1.626 1.626-4.172 4.172zM18.57 14.973l4.173-4.17 1.626 1.626-4.173 4.17zM17.64 22.345l8.277-8.27 1.626 1.627-8.277 8.27zM24.962 21.399l4.17-4.175 1.627 1.625-4.17 4.175zM28.156 24.605l4.174-4.17 1.625 1.627-4.173 4.17zM31.352 27.817l4.173-4.171 1.626 1.627-4.173 4.17zM30.426 35.195l8.268-8.278 1.627 1.625-8.268 8.278zM37.743 34.24l4.173-4.172 1.626 1.627-4.173 4.17zM40.94 37.454l4.17-4.173 1.627 1.626-4.17 4.173zM44.274 40.661l4.174-4.17 1.625 1.626-4.173 4.17zM43.273 47.96l8.278-8.269 1.625 1.628-8.277 8.268zM50.666 47.085l4.166-4.177 1.629 1.624-4.167 4.177zM53.86 50.292l4.174-4.17 1.625 1.627-4.174 4.17zM57.057 53.506l4.172-4.171 1.626 1.626-4.172 4.172z"/>
        <circle cx="10.4" cy="13.2" r="2.6"/>
    </g>
    <circle cx="10.8" cy="13.6" r="2.4" fill="#fff"/>
    <circle cx="22" cy="24.8" r="2.6" fill="#89664c"/>
    <circle cx="22.4" cy="25.2" r="2.4" fill="#fff"/>
    <circle cx="49.3" cy="52.1" r="2.6" fill="#89664c"/>
    <circle cx="49.7" cy="52.5" r="2.4" fill="#fff"/>
</svg>