<svg xmlns="http://www.w3.org/2000/svg" viewBox="0 0 64 64">
    <title>chart increasing</title>
    <path fill="#fff" d="M0 0h64v64H0z"/>
    <path fill="#52c18e" d="M58.7 5.3h-5.6L37.3 25.5l-9.6-11.2L0 54.5V64h6.4l22.2-32.3 9.2 10.6 20.9-26.8z"/>
    <path fill="#d0d5d8" d="M64 0H0v50.7l3-4.3h-.9V33.1h10l1.5-2.1H2.1V17.6h13.3v10.7l2.1-3.1v-7.6h5.2l1.5-2.1h-6.7V2.1h13.3v12.7l2.4 2.8h7.5l1.7-2.1H33V2.1h13.3v8.3l2.1-2.7V2.1h13.3v13.3h-1.1v.8l-1 1.3h2.1v13.3H49.3l-2.9 3.8v11.7H33.1V40L31 37.5v8.7h-9.8l-1.5 2.1H31v13.3H17.6V51.5l-2.1 3.1v7.3h-5L9 64h55V0M15.5 15.5H2.1V2.1h13.3c.1 0 .1 13.4.1 13.4m30.9 46.4H33.1V48.5h13.3v13.4m15.5 0H48.5V48.5h13.3v13.4zm0-15.5H48.5V33.1h13.3v13.3z"/>
</svg>