<svg xmlns="http://www.w3.org/2000/svg" viewBox="0 0 64 64">
    <title>bookmark tabs</title>
    <path fill="#93a2aa" d="M50.5 34.4c-3.2-8.5-11.9-15.5-8.9-25.9-11.7 1-23.4 2.1-35.1 3.1C.9 31 25.1 41.7 19.4 61.1 30 55.6 41 50.7 51.5 45.3c1.1-3.8.2-7.7-1-10.9"/>
    <path fill="#933434" d="M6.6 37.8c3.1-1.8 6.3-3.6 9.4-5.5 2.1 1.9 4 4 5.1 6.5-3.3 1.6-6.6 3.3-9.8 4.9.1-1.5.1-2.9 0-4.2-1.5-.6-3.1-1.2-4.7-1.7"/>
    <path fill="#b0bdc6" d="M59 33.4c-3.7-9.8-13.7-17.8-10.2-29.8C35.4 4.8 21.9 6 8.5 7.2 2 29.4 29.7 41.7 23.2 64 35.3 57.7 48 52.1 60.1 45.8c1.3-4.4.3-8.8-1.1-12.4z"/>
    <path fill="#ed4c5c" d="M0 23c4.1-1.2 8.3-2.5 12.4-3.7 2 2.8 3.6 5.8 4.3 9.1-4.3 1-8.5 1.9-12.8 2.9.6-1.7.9-3.3 1.1-5-1.6-1.2-3.2-2.2-5-3.3"/>
    <path fill="#d9e3e8" d="M10.3 5C4.8 26.4 33.1 36.8 27.5 58.2c11.9-6.4 24.2-12.3 36.1-18.7 1.1-4.2-.1-8.4-1.6-11.7C57.8 18.6 47.5 11.4 50.5 0 37.1 1.7 23.7 3.4 10.3 5"/>
    <g fill="#7d8b91">
        <path d="M14.8 12.4c.1.8.3 1.6.4 2.3l30.3-6c-.1-.6-.3-1.2-.4-1.8-10.1 1.9-20.2 3.7-30.3 5.5M17.6 20.9c9.9-2.4 19.8-4.8 29.8-7.2-.3-.6-.6-1.1-.8-1.7-10 2.3-20 4.5-30 6.8.3.7.7 1.4 1 2.1M21.2 26.6c9.7-2.8 19.3-5.6 29-8.4-.4-.5-.7-1.1-1.1-1.6-9.8 2.7-19.5 5.3-29.3 8 .5.7.9 1.4 1.4 2M32 45.7c.2.8.3 1.5.4 2.3 4.4-2.1 8.9-4.3 13.3-6.4-.1-.7-.2-1.4-.4-2.1-4.4 2-8.8 4.1-13.3 6.2"/>
    </g>
</svg>