<svg xmlns="http://www.w3.org/2000/svg" viewBox="0 0 64 64">
    <title>name badge</title>
    <path fill="#d9e3e8" d="M62 60.1c0 1-.8 1.9-1.9 1.9H3.9c-1 0-1.9-.8-1.9-1.9V17c0-1 .8-1.9 1.9-1.9h56.2c1 0 1.9.8 1.9 1.9v43.1"/>
    <path fill="#ff5a79" d="M59.2 57.3c0 1-.8 1.9-1.9 1.9H6.7c-1 0-1.9-.8-1.9-1.9V19.8c0-1 .8-1.9 1.9-1.9h50.6c1 0 1.9.8 1.9 1.9v37.5"/>
    <g fill="#fff">
        <path d="M8.7 30.1V19.7h2.1v3.9h4v-3.9H17V30h-2.1v-4.6h-4V30H8.7zM26.7 21.6h-5.5v2.2h5v1.8h-5v2.7H27v1.9h-7.8V19.7h7.6c-.1 0-.1 1.9-.1 1.9M28.7 19.7h2.2v8.5H36v1.9h-7.3V19.7zM37.4 19.7h2.2v8.5h5.2v1.9h-7.3V19.7zM54.1 29.2c-.8.8-1.9 1.2-3.4 1.2s-2.6-.4-3.4-1.2c-1-1-1.6-2.4-1.6-4.3s.5-3.3 1.6-4.3c.8-.8 1.9-1.2 3.4-1.2s2.6.4 3.4 1.2c1 .9 1.6 2.4 1.6 4.3 0 1.8-.5 3.3-1.6 4.3m-1.3-1.6c.5-.6.8-1.5.8-2.7 0-1.2-.3-2.1-.8-2.7-.5-.6-1.2-.9-2-.9s-1.5.3-2 .9c-.5.6-.8 1.5-.8 2.7s.3 2.1.8 2.7c.5.6 1.2.9 2 .9s1.5-.3 2-.9"/>
    </g>
    <path fill="#8b979e" d="M36.7 15.2c0 1-.8 1.8-1.8 1.8h-5.8c-1 0-1.8-.8-1.8-1.8V4.7c0-1 .8-1.8 1.8-1.8h5.8c1 0 1.8.8 1.8 1.8v10.5"/>
    <path fill="#b0bdc6" d="M36.7 14.3c0 1-.8 1.8-1.8 1.8h-5.8c-1 0-1.8-.8-1.8-1.8V3.8c0-1 .8-1.8 1.8-1.8h5.8c1 0 1.8.8 1.8 1.8v10.5"/>
    <path fill="#fff" d="M56.4 54.5c0 1-.8 1.9-1.9 1.9h-45c-1 0-1.9-.8-1.9-1.9V33.9c0-1 .8-1.9 1.9-1.9h45c1 0 1.9.8 1.9 1.9v20.6"/>
    <g fill="#ff5a79">
        <path d="M16.2 33.8h1.3v4.4h-.9v-3-.4-.4l-.8 3.7h-.9l-.8-3.7v3.8h-.9v-4.4h1.4l.8 3.5.8-3.5M18.4 38.9H18.7c.1 0 .1 0 .2-.1 0 0 .1-.1.1-.2s.1-.2.1-.2L18 35h1l.7 2.4.7-2.4h.9l-1.1 3.2c-.2.6-.4 1-.5 1.2-.1.2-.4.2-.8.2h-.2-.2c-.1 0-.1-.7-.1-.7M26.1 35.2c.2.2.3.5.3.9v2.2h-.9v-2c0-.2 0-.3-.1-.4-.1-.2-.2-.3-.5-.3s-.5.1-.6.4c-.1.1-.1.3-.1.5v1.8h-.9V35h.8v.5c.1-.2.2-.3.3-.4.2-.1.4-.2.7-.2.5 0 .8.1 1 .3M28.5 36.3c.2 0 .3 0 .3-.1.1-.1.2-.1.2-.2s0-.2-.1-.3c-.1-.1-.2-.1-.4-.1s-.4 0-.4.1c-.1.1-.1.2-.1.3h-.8c0-.3.1-.5.2-.7.2-.3.6-.4 1.2-.4.4 0 .7.1 1 .2.3.1.4.4.4.8v1.9c0 .1 0 .2.1.2l.1.1v.1h-.9c0-.1 0-.1-.1-.2v-.2c-.1.1-.3.2-.4.3-.2.1-.4.2-.6.2-.3 0-.5-.1-.7-.3-.4 0-.5-.3-.5-.6 0-.4.2-.7.5-.9.2-.1.4-.2.8-.2h.2m.6.4c-.1 0-.1.1-.2.1s-.1 0-.2.1h-.2c-.2 0-.3.1-.4.1-.1.1-.2.2-.2.4 0 .1 0 .3.1.3.1.1.2.1.3.1.2 0 .4-.1.5-.2.2-.1.2-.3.2-.6l.1-.3M34.8 35c.1.1.3.2.4.3.1.1.2.3.2.4v2.6h-.9v-2.1c0-.1 0-.2-.1-.3-.1-.2-.2-.2-.4-.2s-.4.1-.5.3c0 .1-.1.2-.1.4v2h-.9v-2c0-.2 0-.3-.1-.4-.1-.2-.2-.2-.4-.2s-.4.1-.5.2c0 .1-.1.2-.1.4v2h-.9V35h.8v.5c.1-.2.2-.3.3-.4.2-.1.4-.2.6-.2.3 0 .5.1.6.2.1.1.2.2.3.4.1-.2.3-.3.4-.4.2-.1.4-.1.6-.1.4-.1.5 0 .7 0M38.3 35.1c.2.1.4.3.6.5.1.2.2.4.3.7v.7h-2.4c0 .3.1.6.3.7.1.1.3.1.5.1s.4 0 .5-.2l.2-.2h.9c0 .2-.1.4-.3.6-.3.3-.7.5-1.2.5-.4 0-.8-.1-1.2-.4-.3-.3-.5-.7-.5-1.3 0-.6.2-1 .5-1.3.3-.3.7-.5 1.2-.5.1-.1.4 0 .6.1m-1.3.7c-.1.1-.2.3-.2.5h1.5c0-.2-.1-.4-.2-.5-.1-.1-.3-.2-.5-.2-.3 0-.5.1-.6.2M42.2 34.6h-.9v-.8h.9v.8m-.9.4h.9v3.3h-.9V35M43.7 37.2c0 .2.1.3.1.3.1.1.3.2.6.2.2 0 .3 0 .4-.1.1-.1.2-.1.2-.2s0-.2-.1-.2c-.1-.1-.4-.1-.9-.3-.4-.1-.6-.2-.8-.3-.2-.1-.2-.3-.2-.6s.1-.6.4-.8c.2-.2.6-.3 1-.3s.7.1 1 .2c.3.2.4.4.4.8h-.9c0-.1 0-.2-.1-.3-.1-.1-.3-.2-.5-.2s-.3 0-.4.1c-.1.1-.1.1-.1.2s0 .2.1.2.4.1.9.2c.3.1.6.2.8.4.2.2.3.4.3.6 0 .3-.1.6-.4.8-.2.2-.6.3-1.1.3-.5 0-.9-.1-1.1-.3-.2-.2-.4-.5-.4-.8l.8.1M46.5 37.4h.9v.9h-.9v-.9M48.2 37.4h.9v.9h-.9v-.9M49.9 37.4h.9v.9h-.9v-.9"/>
    </g>
</svg>