<svg xmlns="http://www.w3.org/2000/svg" viewBox="0 0 64 64">
    <title>open book</title>
    <path fill="#89664c" d="M64 58H0l5.7-46h52.6z"/>
    <path fill="#b0bdc6" d="M26.2 8.4c-5.8 0-16.6 1.9-20.1.8 0 0 .9 19.7-4 47.4 6.9-.5 16.1-4.4 22.9-4.4 6.9 0 6.9 4.4 6.9 4.4V13.3c.2 0 .1-4.9-5.7-4.9"/>
    <path fill="#e1ebef" d="M26.3 7.7C20.5 7.7 11.6 9.5 8.9 6c0 0 .9 22.3-5.1 47.2 2.2 3.1 14-1.1 20.9-1.1 6.9 0 7.3 4.5 7.3 4.5v-44c.1 0 .1-4.9-5.7-4.9"/>
    <path fill="#94989b" d="M25.1 52.2c-6.9 0-19 4.4-22.9 4.4h29.9s-.1-4.4-7-4.4"/>
    <g fill="#7d8b91">
        <path d="M11.8 14.2l.1-.8c.9 0 2.6-.3 4.5-.7 2.6-.5 5.6-1.1 8-1.1 3.2 0 4.2.7 4.4.8l-.3.3-.3.3s-1-.6-3.8-.6c-2.3 0-5.2.6-7.8 1.1-2 .4-3.7.7-4.8.7M11.4 18.5l.1-.9c1 0 2.7-.3 4.6-.7 2.7-.5 5.7-1.1 8.1-1.1 3.2 0 4.3.7 4.4.8l-.2.4-.3.4s-1-.7-3.9-.7c-2.4 0-5.3.6-8 1.1-2 .4-3.7.7-4.8.7M11 23l.1-.9c1 0 2.7-.4 4.7-.8 2.7-.6 5.8-1.2 8.3-1.2 3.3 0 4.4.8 4.5.9l-.3.4-.3.4s-1-.7-4-.7c-2.4 0-5.4.6-8.1 1.2-2 .4-3.8.7-4.9.7M10.6 27.7l.1-1c1 0 2.8-.4 4.8-.8 2.8-.6 5.9-1.2 8.5-1.2 3.4 0 4.5.8 4.6.9l-.4.4-.2.4s-1-.7-4.1-.7c-2.5 0-5.6.6-8.3 1.2-2.1.4-3.9.8-5 .8M10.1 32.6l.1-1c1 0 2.8-.4 4.9-.8 2.8-.6 6-1.3 8.6-1.3 3.4 0 4.6.8 4.7.9l-.3.4-.3.4s-1-.7-4.2-.7c-2.5 0-5.7.7-8.5 1.3-2 .4-3.9.8-5 .8M9.6 37.7l.1-1c1 0 2.9-.4 5-.9 2.9-.6 6.2-1.3 8.8-1.3 3.5 0 4.7.9 4.8 1l-.3.4-.3.4s-1.1-.8-4.3-.8c-2.6 0-5.8.7-8.7 1.3-2 .5-3.9.9-5.1.9M9.1 43l.1-1.1c1.1 0 2.9-.4 5.1-.9 3-.7 6.3-1.4 9-1.4 3.6 0 4.8.9 4.9 1l-.2.5-.3.4s-1.1-.8-4.4-.8c-2.6 0-5.9.7-8.9 1.4-2.1.5-4.1.9-5.3.9M8.6 48.6l.1-1.1c1.1 0 3-.4 5.2-.9 3-.7 6.5-1.5 9.2-1.5 3.7 0 4.9 1 5 1.1l-.3.4-.2.4s-1.1-.9-4.5-.9c-2.7 0-6.1.8-9.1 1.5-2.2.5-4.2 1-5.4 1"/>
    </g>
    <path fill="#b0bdc6" d="M37.8 8.4c5.8 0 16.6 1.9 20.1.8 0 0-.9 19.7 4 47.4-6.9-.5-16.1-4.4-22.9-4.4-6.9 0-6.9 4.4-6.9 4.4V13.3c-.1 0-.1-4.9 5.7-4.9"/>
    <path fill="#d9e3e8" d="M37.7 7.7c5.8 0 14.7 1.8 17.4-1.7 0 0-.9 22.3 5.1 47.2-2.2 3.1-14-1.1-20.9-1.1-6.9 0-7.3 4.5-7.3 4.5v-44s0-4.9 5.7-4.9"/>
    <path fill="#94989b" d="M38.9 52.2c6.9 0 19 4.4 22.9 4.4H32s0-4.4 6.9-4.4"/>
    <g fill="#7d8b91">
        <path d="M52.2 14.2l-.1-.8c-.9 0-2.6-.3-4.5-.7-2.6-.5-5.6-1.1-8-1.1-3.2 0-4.2.7-4.4.8l.3.3.3.3s1-.6 3.8-.6c2.3 0 5.2.6 7.8 1.1 2.1.4 3.8.7 4.8.7M52.6 18.5l-.1-.9c-1 0-2.7-.3-4.6-.7-2.7-.5-5.7-1.1-8.1-1.1-3.2 0-4.3.7-4.4.8l.3.3.3.4s1-.7 3.9-.7c2.4 0 5.3.6 8 1.1 1.9.5 3.6.8 4.7.8M53 23l-.1-.9c-1 0-2.7-.4-4.7-.8-2.7-.6-5.8-1.2-8.3-1.2-3.3 0-4.4.8-4.5.9l.3.4.3.4s1-.7 4-.7c2.4 0 5.4.6 8.1 1.2 2.1.4 3.8.7 4.9.7M53.5 27.7l-.1-1c-1 0-2.8-.4-4.8-.8-2.8-.6-5.9-1.2-8.5-1.2-3.4 0-4.5.8-4.6.9l.3.4.3.4s1-.7 4.1-.7c2.5 0 5.6.6 8.3 1.2 2 .4 3.9.8 5 .8M53.9 32.6l-.1-1c-1 0-2.8-.4-4.9-.8-2.8-.6-6-1.3-8.6-1.3-3.4 0-4.6.8-4.7.9l.3.4.3.4s1-.7 4.2-.7c2.5 0 5.7.7 8.5 1.3 2 .4 3.9.8 5 .8M54.4 37.7l-.1-1c-1 0-2.9-.4-5-.9-2.9-.6-6.2-1.3-8.8-1.3-3.5 0-4.7.9-4.8 1l.3.4.3.4s1.1-.8 4.3-.8c2.6 0 5.8.7 8.7 1.3 2 .5 3.9.9 5.1.9M54.9 43l-.1-1.1c-1.1 0-2.9-.4-5.1-.9-3-.7-6.3-1.4-9-1.4-3.6 0-4.8.9-4.9 1l.3.4.3.4s1.1-.8 4.4-.8c2.6 0 5.9.7 8.9 1.4 2.1.6 4 1 5.2 1M55.4 48.6l-.1-1.1c-1.1 0-3-.4-5.2-.9-3-.7-6.5-1.5-9.2-1.5-3.7 0-4.9 1-5 1.1l.3.4.3.5s1.1-.9 4.5-.9c2.7 0 6.1.8 9.1 1.5 2.1.4 4.1.9 5.3.9"/>
    </g>
</svg>