<svg xmlns="http://www.w3.org/2000/svg" viewBox="0 0 64 64">
    <title>closed mailbox with raised flag</title>
    <path fill="#b0bdc6" d="M38 64l-8.8-1.2v-49H38z"/>
    <path fill="#7d8b91" d="M44.3 13.8H38V64l6.3-6.1z"/>
    <path fill="#333" d="M46.8 0c-8.2 0-35.6 9.5-35.6 9.5l24.6 40.4 28.3-17V17C64 6.3 57.6 0 46.8 0z"/>
    <path fill="#697277" d="M17.2 8.5C6.4 8.5 0 16 0 26.8v17l35.7 6.1V29.2c0-10.8-7.6-20.7-18.5-20.7z"/>
    <path fill="#ed4c5c" d="M37.2 6.4v29.2l2.8-1.3V15.6l11.2-4.3V1.6z"/>
    <path fill="#52595e" d="M19.6 16.4l-4.5 2.1.3-3 3.2-1.5c1.2-.5 2.2 1.9 1 2.4"/>
    <path fill="#333" d="M18.4 16.1c.3 2.5-1.5 3.9-3 4-.9.1-1.6-6.6-1.6-6.6s.9-.5 1.6-.5c1.5-.1 2.8 1.2 3 3.1"/>
    <ellipse cx="15.1" cy="16.7" fill="#52595e" rx="2.8" ry="3.5" transform="rotate(-5.957 15.074 16.69)"/>
    <ellipse cx="15.1" cy="16.7" fill="#697277" rx="2.1" ry="2.6" transform="rotate(-5.957 15.074 16.688)"/>
</svg>