<svg xmlns="http://www.w3.org/2000/svg" viewBox="0 0 64 64">
    <title>postal horn</title>
    <path fill="#f2b200" d="M54.4 30.2c-2.7-2.6-4.2-5.6-4-7.5s-.1 4.2-1.5 5.9c-.8.9-1.7 1.8-2.7 2.8l-.6.6c.5-1.8.8-3.8.8-5.7 0-5.3-2.1-10.4-5.9-14.1-3.8-3.8-8.8-5.9-14.1-5.9S16 8.5 12.2 12.2C8.4 16 6.4 21 6.4 26.4c0 4.7 1.6 9.1 4.6 12.7-.5-.3-.9-.5-1.4-.8-1.6-.9-3.1-2-4.4-3-.8-.6-1.5-1.2-2.2-1.7-.4-.3-.6-.7-.6-.9 0-.3 0-.6-.1-.8-.3-.4-1-.3-1.6.2-.5.5-.7 1.2-.4 1.6.2.2.4.2.8.2.5 0 .5.2.9.6 0 0 4.5 4.7 6.1 6.1 1.5 1.3 3.3 2.6 5.3 3.6 1 .5 2.1 1 3.2 1.4 1.1.4 2.3.7 3.5 1 1.2.2 2.4.4 3.6.5.6.1 1.2.1 1.7.2.3 0 .6.1.8.1h.9c2.5.1 5 0 7.4-.4 2.4-.4 4.8-1.1 6.9-1.9 2.2-.8 4.2-1.8 6.1-2.8 1.9-1 3.6-2.1 5.1-3.2 1.1-.8 2.1-1.5 3-2.2 2.8-2.1 6.5-2.9 6.5-2.9-2.2.1-5.1-1.3-7.7-3.8m-28 10.4c-7.8 0-14.2-6.4-14.2-14.2 0-7.8 6.4-14.2 14.2-14.2 7.8 0 14.2 6.4 14.2 14.2 0 7.8-6.4 14.2-14.2 14.2"/>
    <path fill="#333" d="M60 24.5c-3.4-3.3-7.4-4.7-9-3.1-.3.3-.5.8-.6 1.3-.2 1.9 1.3 4.9 4 7.5 2.6 2.5 5.5 3.9 7.4 3.7.6 0 1.2-.3 1.5-.7 1.6-1.5.1-5.4-3.3-8.7"/>
    <g fill="#ed4c5c">
        <path d="M24.8 39.7v8c0 .4.4.8.8.8s.8-.4.8-.8v-4.4-3.6c0-.4-.4-.8-.8-.8s-.8.4-.8.8M27.9 39.7v8c0 .4.4.8.8.8s.8-.4.8-.8v-4.4-3.6c0-.4-.4-.8-.8-.8s-.8.4-.8.8"/>
    </g>
    <path fill="#c94747" d="M27.9 53.2v-2.7-6.2V40v-.2c0-.4-.4-.8-.8-.8s-.8.4-.8.8v13.5c-.5.4-.7 1.3-.8 2.1-.1-.7-.2-1.7-.8-2.1v-2.7-6.2-4.3-.2c0-.4-.4-.8-.8-.8s-.8.4-.8.8v13.5c-.8.6-.8 2.2-.8 2.9 0 .9.7 1.6 1.6 1.6.9 0 1.6-.7 1.6-1.6 0 .9.7 1.6 1.6 1.6.9 0 1.6-.7 1.6-1.6 0-.9 0-2.5-.8-3.1"/>
</svg>