<svg xmlns="http://www.w3.org/2000/svg" viewBox="0 0 64 64">
    <title>package</title>
    <path fill="#89664c" d="M32 64L0 44.8V19.2l32 19.2z"/>
    <path fill="#fed0ac" d="M32 38.4V64l32-19.2V19.2z"/>
    <path fill="#d3976e" d="M0 19.2l32 19.2 32-19.2L32 0z"/>
    <path fill="#89664c" d="M50.9 27L19 7.8l-6 3.6 32 19.2z"/>
    <path fill="#d0d0d0" d="M39.3 6.8l-7.1-4.4L26.3 6l7.1 4.3z"/>
    <path fill="#d3976e" d="M50.8 27.1l-5.6 3.4v9.2l5.6-3.4z"/>
    <g fill="#fff">
        <path d="M62.5 22.1l-5.7 3.4v9.2l5.7-3.4zM41.6 43.5l-7.7 4.6v12.6l7.7-4.7z"/>
    </g>
    <path fill="#d3976e" d="M45.2 56.1l5.6-3.4v-9.2l-5.6 3.4z"/>
</svg>