<svg xmlns="http://www.w3.org/2000/svg" viewBox="0 0 64 64">
    <title>postbox</title>
	<path fill="#c94747" d="M56.7 0h-47-.1C4.9 0 0 7 0 26v38h4.3v-6h38.4v6H47l3.1-1.4v-6l6.7-3.1v3.9h4.3l3.1-1.4V20C64 9.1 61.3.2 56.7 0"/>
	<path fill="#ed4c5c" d="M9.7 0h46.9v32H9.7z"/>
	<path fill="#881a0e" d="M56.7 50.8H61v6.6h-4.3z"/>
	<g fill="#ed4c5c">
		<path d="M17.1 20L0 26C0 7 4.9 0 9.6 0s7.5 9 7.5 20z"/>
		<path d="M17.1 50L0 58V26l17.1-6z"/>
	</g>
	<g fill="#c94747">
		<path d="M64 50l-17.1 8V26L64 20zM50 62.6L46.9 64v-6l3.1-1.4z"/>
		<path d="M64 55.9l-3.1 1.5v-6l3.1-1.5z"/>
	</g>
	<path fill="#ed4c5c" d="M0 26v38h4.3v-6h38.4v6h4.2V26z"/>
	<path fill="#c94747" d="M42.7 32.9c0-2.2-1.9-4-4.3-4H8.5c-2.3 0-4.3 1.8-4.3 4v18.2c0 2.2 1.9 4 4.3 4h29.9c2.3 0 4.3-1.8 4.3-4V32.9"/>
	<path fill="#ed4c5c" d="M41.4 34.2c0-2.2-1.9-4-4.3-4H9.7c-2.3 0-4.3 1.8-4.3 4v15.6c0 2.2 1.9 4 4.3 4h27.4c2.3 0 4.3-1.8 4.3-4V34.2"/>
	<!--g fill="#fff">
		<path d="M14.6 37.7h2.8v8.6h-1.8v-5.8-.7-.7l-1.7 7.2H12l-1.7-7.2V46.3H8.5v-8.6h2.8l1.7 6.8 1.6-6.8M21.8 37.7H24l3.3 8.6h-2.1l-.6-1.8h-3.4l-.6 1.8h-2l3.2-8.6m-.1 5.4H24l-1.2-3.4-1.1 3.4M30.1 46.3h-1.9v-8.6h1.9v8.6M32 37.7h1.9v7.1h4.6v1.6H32v-8.7z"/>
	</g-->
	<path fill="#881a0e" d="M43.7 19.1H18.4L5.9 22.5h37.8z"/>
	<path fill="#af2b2b" d="M12.9 3.5h39.5v15.6H12.9z"/>
	<path fill="#ed4c5c" d="M59.7 20l-17.1 6c0-19 4.9-26 9.6-26s7.5 9 7.5 20"/>
	<g fill="#c94747">
		<path d="M18.4 19.1L5.9 22.5c0-13.9 3.6-19 7-19 3.5 0 5.5 7.5 5.5 15.6M64 20l-17.1 6c0-19 4.9-26 9.6-26S64 9 64 20z"/>
	</g>
	<g transform="scale(0.5) translate(16,57)">
		<path fill="#f2b200" d="M54.4 30.2c-2.7-2.6-4.2-5.6-4-7.5s-.1 4.2-1.5 5.9c-.8.9-1.7 1.8-2.7 2.8l-.6.6c.5-1.8.8-3.8.8-5.7 0-5.3-2.1-10.4-5.9-14.1-3.8-3.8-8.8-5.9-14.1-5.9S16 8.5 12.2 12.2C8.4 16 6.4 21 6.4 26.4c0 4.7 1.6 9.1 4.6 12.7-.5-.3-.9-.5-1.4-.8-1.6-.9-3.1-2-4.4-3-.8-.6-1.5-1.2-2.2-1.7-.4-.3-.6-.7-.6-.9 0-.3 0-.6-.1-.8-.3-.4-1-.3-1.6.2-.5.5-.7 1.2-.4 1.6.2.2.4.2.8.2.5 0 .5.2.9.6 0 0 4.5 4.7 6.1 6.1 1.5 1.3 3.3 2.6 5.3 3.6 1 .5 2.1 1 3.2 1.4 1.1.4 2.3.7 3.5 1 1.2.2 2.4.4 3.6.5.6.1 1.2.1 1.7.2.3 0 .6.1.8.1h.9c2.5.1 5 0 7.4-.4 2.4-.4 4.8-1.1 6.9-1.9 2.2-.8 4.2-1.8 6.1-2.8 1.9-1 3.6-2.1 5.1-3.2 1.1-.8 2.1-1.5 3-2.2 2.8-2.1 6.5-2.9 6.5-2.9-2.2.1-5.1-1.3-7.7-3.8m-28 10.4c-7.8 0-14.2-6.4-14.2-14.2 0-7.8 6.4-14.2 14.2-14.2 7.8 0 14.2 6.4 14.2 14.2 0 7.8-6.4 14.2-14.2 14.2"/>
		<path fill="#881a0e" d="M60 24.5c-3.4-3.3-7.4-4.7-9-3.1-.3.3-.5.8-.6 1.3-.2 1.9 1.3 4.9 4 7.5 2.6 2.5 5.5 3.9 7.4 3.7.6 0 1.2-.3 1.5-.7 1.6-1.5.1-5.4-3.3-8.7"/>
	</g>
</svg>