<svg xmlns="http://www.w3.org/2000/svg" viewBox="0 0 64 64">
    <title>television</title>
    <g fill="#3e4347">
        <path d="M17 62H5.8c0-2.6 2.5-4.7 5.6-4.7S17 59.4 17 62zM58.2 62H47c0-2.6 2.5-4.7 5.6-4.7s5.6 2.1 5.6 4.7M18.59 3.758l.636-.636 15.903 15.916-.637.636z"/>
        <circle cx="19" cy="3.4" r="1.4"/>
        <path d="M28.78 19.017l15.909-15.91.636.637-15.91 15.91z"/>
        <circle cx="45" cy="3.4" r="1.4"/>
        <ellipse cx="32" cy="15.1" rx="8" ry="4.7"/>
    </g>
    <path fill="#c28fef" d="M59.1 57.1c-5.2 6.6-47.5 6.4-53.7 0-4.6-4.7-4.6-32.5 0-37.2 6.2-6.4 48.5-6.6 53.7 0 3.9 5 3.9 32.3 0 37.2"/>
    <g fill="#3e4347">
        <path d="M49.5 52.7c-3.9 5-35.6 4.9-40.3 0-3.4-3.6-3.4-24.7 0-28.2 4.7-4.9 36.4-5 40.3 0 2.9 3.7 2.9 24.5 0 28.2"/>
        <circle cx="56.4" cy="29.2" r="2.8"/>
        <circle cx="56.4" cy="37.6" r="2.8"/>
    </g>
</svg>