<svg xmlns="http://www.w3.org/2000/svg" viewBox="0 0 64 64">
    <title>mobile phone with arrow</title>
    <path fill="#5c6d6d" d="M64 4.1c0-2-2.1-4.1-4.3-4.1H32.3C30.1 0 28 2.1 28 4.1v55.7c0 2.1 2.1 4.1 4.3 4.1h27.5c2.1 0 4.3-2.1 4.3-4.1V4.1z"/>
    <path fill="#212528" d="M63 59c0 2-2 4-4 4H33c-2 0-4-2-4-4V5c0-2 2-4 4-4h26c2 0 4 2 4 4v54"/>
    <g fill="#94989b">
        <circle cx="57.5" cy="4.5" r="1"/>
        <path d="M49 4.5c0 .3-.1.5-.3.5h-5.4c-.2 0-.3-.2-.3-.5 0-.2.1-.5.3-.5h5.4c.2 0 .3.3.3.5"/>
    </g>
    <path fill="#3e4347" d="M31 8h30v48H31z"/>
    <path fill="#94989b" d="M49.8 60.2c0 .4-.3.8-.8.8h-6c-.4 0-.8-.3-.8-.8v-1.5c0-.4.3-.8.8-.8h6c.4 0 .8.3.8.8v1.5"/>
    <path fill="#42ade2" d="M38 14.7c0 .5-.4.8-.8.8h-3.3c-.5 0-.8-.4-.8-.8v-3.3c0-.5.4-.8.8-.8h3.3c.5 0 .8.4.8.8v3.3"/>
    <path fill="#c7e755" d="M45 14.7c0 .5-.4.8-.8.8h-3.3c-.5 0-.8-.4-.8-.8v-3.3c0-.5.4-.8.8-.8h3.3c.5 0 .8.4.8.8v3.3"/>
    <path fill="#f2b200" d="M52 14.7c0 .5-.4.8-.8.8h-3.3c-.5 0-.8-.4-.8-.8v-3.3c0-.5.4-.8.8-.8h3.3c.5 0 .8.4.8.8v3.3"/>
    <path fill="#42ade2" d="M59 14.7c0 .5-.4.8-.8.8h-3.3c-.5 0-.8-.4-.8-.8v-3.3c0-.5.4-.8.8-.8h3.3c.5 0 .8.4.8.8v3.3"/>
    <path fill="#c7e755" d="M38 53.2c0 .5-.4.8-.8.8h-3.3c-.5 0-.8-.4-.8-.8v-3.3c0-.5.4-.8.8-.8h3.3c.5 0 .8.4.8.8v3.3"/>
    <path fill="#ff435e" d="M45 53.2c0 .5-.4.8-.8.8h-3.3c-.5 0-.8-.4-.8-.8v-3.3c0-.5.4-.8.8-.8h3.3c.5 0 .8.4.8.8v3.3"/>
    <path fill="#42ade2" d="M52 53.2c0 .5-.4.8-.8.8h-3.3c-.5 0-.8-.4-.8-.8v-3.3c0-.5.4-.8.8-.8h3.3c.5 0 .8.4.8.8v3.3"/>
    <path fill="#c28fef" d="M59 53.2c0 .5-.4.8-.8.8h-3.3c-.5 0-.8-.4-.8-.8v-3.3c0-.5.4-.8.8-.8h3.3c.5 0 .8.4.8.8v3.3"/>
    <path fill="#c7e755" d="M38 33.9c0 .5-.4.8-.8.8h-3.3c-.5 0-.8-.4-.8-.8v-3.3c0-.5.4-.8.8-.8h3.3c.5 0 .8.4.8.8v3.3"/>
    <path fill="#c28fef" d="M45 33.9c0 .5-.4.8-.8.8h-3.3c-.5 0-.8-.4-.8-.8v-3.3c0-.5.4-.8.8-.8h3.3c.5 0 .8.4.8.8v3.3"/>
    <path fill="#42ade2" d="M52 33.9c0 .5-.4.8-.8.8h-3.3c-.5 0-.8-.4-.8-.8v-3.3c0-.5.4-.8.8-.8h3.3c.5 0 .8.4.8.8v3.3"/>
    <path fill="#ff435e" d="M38 27.5c0 .5-.4.8-.8.8h-3.3c-.5 0-.8-.4-.8-.8v-3.3c0-.5.4-.8.8-.8h3.3c.5 0 .8.4.8.8v3.3"/>
    <path fill="#f2b200" d="M45 27.5c0 .5-.4.8-.8.8h-3.3c-.5 0-.8-.4-.8-.8v-3.3c0-.5.4-.8.8-.8h3.3c.5 0 .8.4.8.8v3.3"/>
    <path fill="#c7e755" d="M52 27.5c0 .5-.4.8-.8.8h-3.3c-.5 0-.8-.4-.8-.8v-3.3c0-.5.4-.8.8-.8h3.3c.5 0 .8.4.8.8v3.3"/>
    <path fill="#f2b200" d="M59 27.5c0 .5-.4.8-.8.8h-3.3c-.5 0-.8-.4-.8-.8v-3.3c0-.5.4-.8.8-.8h3.3c.5 0 .8.4.8.8v3.3"/>
    <path fill="#c28fef" d="M38 21.1c0 .5-.4.8-.8.8h-3.3c-.5 0-.8-.4-.8-.8v-3.3c0-.5.4-.8.8-.8h3.3c.5 0 .8.4.8.8v3.3"/>
    <path fill="#42ade2" d="M45 21.1c0 .5-.4.8-.8.8h-3.3c-.5 0-.8-.4-.8-.8v-3.3c0-.5.4-.8.8-.8h3.3c.5 0 .8.4.8.8v3.3"/>
    <path fill="#ff435e" d="M52 21.1c0 .5-.4.8-.8.8h-3.3c-.5 0-.8-.4-.8-.8v-3.3c0-.5.4-.8.8-.8h3.3c.5 0 .8.4.8.8v3.3"/>
    <path fill="#c28fef" d="M59 21.1c0 .5-.4.8-.8.8h-3.3c-.5 0-.8-.4-.8-.8v-3.3c0-.5.4-.8.8-.8h3.3c.5 0 .8.4.8.8v3.3"/>
    <path fill="#f2b200" d="M36 32L16.9 12.9v9H0v20.2h16.9v9z"/>
</svg>