<svg xmlns="http://www.w3.org/2000/svg" viewBox="0 0 64 64">
    <title>mobile phone</title>
    <path fill="#5c6d6d" d="M50 4.1c0-2-2.1-4.1-4.3-4.1H18.3C16.1 0 14 2.1 14 4.1v55.7c0 2.1 2.1 4.1 4.3 4.1h27.5c2.1 0 4.3-2.1 4.3-4.1V4.1z"/>
    <path fill="#212528" d="M49 59c0 2-2 4-4 4H19c-2 0-4-2-4-4V5c0-2 2-4 4-4h26c2 0 4 2 4 4v54"/>
    <g fill="#94989b">
        <circle cx="43.5" cy="4.5" r="1"/>
        <path d="M35 4.5c0 .3-.1.5-.3.5h-5.4c-.2 0-.3-.2-.3-.5 0-.2.1-.5.3-.5h5.4c.2 0 .3.3.3.5"/>
    </g>
    <path fill="#3e4347" d="M17 8h30v48H17z"/>
    <path fill="#94989b" d="M35.8 60.2c0 .4-.3.8-.8.8h-6c-.4 0-.8-.3-.8-.8v-1.5c0-.4.3-.8.8-.8h6c.4 0 .8.3.8.8v1.5"/>
    <path fill="#42ade2" d="M24 14.7c0 .5-.4.8-.8.8h-3.3c-.5 0-.8-.4-.8-.8v-3.3c0-.5.4-.8.8-.8h3.3c.5 0 .8.4.8.8v3.3"/>
    <path fill="#c7e755" d="M31 14.7c0 .5-.4.8-.8.8h-3.3c-.5 0-.8-.4-.8-.8v-3.3c0-.5.4-.8.8-.8h3.3c.5 0 .8.4.8.8v3.3"/>
    <path fill="#f2b200" d="M38 14.7c0 .5-.4.8-.8.8h-3.3c-.5 0-.8-.4-.8-.8v-3.3c0-.5.4-.8.8-.8h3.3c.5 0 .8.4.8.8v3.3"/>
    <path fill="#42ade2" d="M45 14.7c0 .5-.4.8-.8.8h-3.3c-.5 0-.8-.4-.8-.8v-3.3c0-.5.4-.8.8-.8h3.3c.5 0 .8.4.8.8v3.3"/>
    <path fill="#c7e755" d="M24 53.2c0 .5-.4.8-.8.8h-3.3c-.5 0-.8-.4-.8-.8v-3.3c0-.5.4-.8.8-.8h3.3c.5 0 .8.4.8.8v3.3"/>
    <path fill="#ff435e" d="M31 53.2c0 .5-.4.8-.8.8h-3.3c-.5 0-.8-.4-.8-.8v-3.3c0-.5.4-.8.8-.8h3.3c.5 0 .8.4.8.8v3.3"/>
    <path fill="#42ade2" d="M38 53.2c0 .5-.4.8-.8.8h-3.3c-.5 0-.8-.4-.8-.8v-3.3c0-.5.4-.8.8-.8h3.3c.5 0 .8.4.8.8v3.3"/>
    <path fill="#c28fef" d="M45 53.2c0 .5-.4.8-.8.8h-3.3c-.5 0-.8-.4-.8-.8v-3.3c0-.5.4-.8.8-.8h3.3c.5 0 .8.4.8.8v3.3"/>
    <path fill="#c7e755" d="M24 33.9c0 .5-.4.8-.8.8h-3.3c-.5 0-.8-.4-.8-.8v-3.3c0-.5.4-.8.8-.8h3.3c.5 0 .8.4.8.8v3.3"/>
    <path fill="#c28fef" d="M31 33.9c0 .5-.4.8-.8.8h-3.3c-.5 0-.8-.4-.8-.8v-3.3c0-.5.4-.8.8-.8h3.3c.5 0 .8.4.8.8v3.3"/>
    <path fill="#42ade2" d="M38 33.9c0 .5-.4.8-.8.8h-3.3c-.5 0-.8-.4-.8-.8v-3.3c0-.5.4-.8.8-.8h3.3c.5 0 .8.4.8.8v3.3"/>
    <path fill="#ff435e" d="M24 27.5c0 .5-.4.8-.8.8h-3.3c-.5 0-.8-.4-.8-.8v-3.3c0-.5.4-.8.8-.8h3.3c.5 0 .8.4.8.8v3.3"/>
    <path fill="#f2b200" d="M31 27.5c0 .5-.4.8-.8.8h-3.3c-.5 0-.8-.4-.8-.8v-3.3c0-.5.4-.8.8-.8h3.3c.5 0 .8.4.8.8v3.3"/>
    <path fill="#c7e755" d="M38 27.5c0 .5-.4.8-.8.8h-3.3c-.5 0-.8-.4-.8-.8v-3.3c0-.5.4-.8.8-.8h3.3c.5 0 .8.4.8.8v3.3"/>
    <path fill="#f2b200" d="M45 27.5c0 .5-.4.8-.8.8h-3.3c-.5 0-.8-.4-.8-.8v-3.3c0-.5.4-.8.8-.8h3.3c.5 0 .8.4.8.8v3.3"/>
    <path fill="#c28fef" d="M24 21.1c0 .5-.4.8-.8.8h-3.3c-.5 0-.8-.4-.8-.8v-3.3c0-.5.4-.8.8-.8h3.3c.5 0 .8.4.8.8v3.3"/>
    <path fill="#42ade2" d="M31 21.1c0 .5-.4.8-.8.8h-3.3c-.5 0-.8-.4-.8-.8v-3.3c0-.5.4-.8.8-.8h3.3c.5 0 .8.4.8.8v3.3"/>
    <path fill="#ff435e" d="M38 21.1c0 .5-.4.8-.8.8h-3.3c-.5 0-.8-.4-.8-.8v-3.3c0-.5.4-.8.8-.8h3.3c.5 0 .8.4.8.8v3.3"/>
    <path fill="#c28fef" d="M45 21.1c0 .5-.4.8-.8.8h-3.3c-.5 0-.8-.4-.8-.8v-3.3c0-.5.4-.8.8-.8h3.3c.5 0 .8.4.8.8v3.3"/>
</svg>