<svg xmlns="http://www.w3.org/2000/svg" viewBox="0 0 64 64">
    <title>White Latin Cross</title>
    <path fill="#c28fef" d="M62 52c0 5.5-4.5 10-10 10H12C6.5 62 2 57.5 2 52V12C2 6.5 6.5 2 12 2h40c5.5 0 10 4.5 10 10v40z"/>
	<!--polygon fill="#fff" points="29,4 35,4 35,20 52,20 52,26 35,26 35,60 29,60 29,26 12,26 12,20 29,20"/-->
    <path transform="scale(0.9) translate(4,4)" fill="#fff" d="M55 23.4s-1.7-1.5-4.2-2.3c-.7-2.3-2.4-4-4.4-4-.9 0-1.7.3-2.4.8.8.6 1.5 1.5 1.9 2.6H35v-10c1.2.4 2.2 1 2.8 1.7.6-.6.9-1.4.9-2.2 0-1.9-1.8-3.5-4.3-4.1C33.6 3.6 32 2 32 2s-1.6 1.6-2.5 3.9c-2.5.7-4.3 2.3-4.3 4.1 0 .8.3 1.6.9 2.2.7-.7 1.6-1.4 2.8-1.7v10H18.2c.4-1.1 1.1-2 1.9-2.6-.7-.5-1.5-.8-2.4-.8-2 0-3.7 1.7-4.4 4-2.6.8-4.3 2.3-4.3 2.3s1.7 1.5 4.2 2.3c.7 2.3 2.4 4 4.4 4 .9 0 1.7-.3 2.4-.8-.8-.6-1.5-1.5-1.9-2.6H29v27.4c-1.2-.4-2.2-1-2.8-1.7-.6.6-.9 1.4-.9 2.2 0 1.9 1.8 3.5 4.3 4.1.8 2.1 2.4 3.7 2.4 3.7s1.6-1.6 2.5-3.9c2.5-.6 4.3-2.2 4.3-4.1 0-.8-.3-1.6-.9-2.2-.7.7-1.6 1.3-2.8 1.7V26.2h10.8c-.4 1.1-1.1 2-1.9 2.6.7.5 1.5.8 2.4.8 2 0 3.7-1.7 4.4-4 2.5-.8 4.2-2.2 4.2-2.2"/>
</svg>