<svg xmlns="http://www.w3.org/2000/svg" viewBox="0 0 64 64">
    <title>Bullhorn</title>
  <g transform="matrix(0.89851254,0,0,0.89851254,46.3762,-13.565246)">
    <path d="m -9.876278,76.311891 c -0.5,0.5 -1.1,1 -1.8,1.3 l -7.9,3.7 c -1.6,0.7 -3.3,0.8 -4.9,0.2 -1.6,-0.6 -2.9,-1.8 -3.6,-3.3 l -3.7,-7.9 c -1.1,-2.4 -0.6,-5.3 1.3,-7.2 0.5,-0.5 1.1,-1 1.8,-1.3 l 7.9,-3.7 c 3.2,-1.5 7,-0.1 8.5,3.1 l 3.7,7.9 c 1.1,2.3 0.6,5.3 -1.3,7.2 m -17.7,-10.4 c -0.7,0.7 -0.9,1.7 -0.5,2.6 l 3.7,7.9 c 0.3,0.6 0.7,1 1.3,1.2 0.6,0.2 1.2,0.2 1.8,-0.1 l 7.9,-3.7 c 1.1,-0.5 1.6,-1.9 1.1,-3 l -3.7,-7.9 c -0.5,-1.1 -1.9,-1.6 -3,-1.1 l -8,3.6 c -0.2,0.1 -0.5,0.3 -0.6,0.5" fill="#b0bdc6"/>
    <g transform="translate(-47.976278,18.711891)" fill="#898a90">
      <path d="m 36.2,56.3 c -0.4,0.4 -0.9,0.8 -1.5,1 l -6.4,3 C 27,60.9 25.6,61 24.3,60.5 23,60 21.9,59.1 21.4,57.8 l -3,-6.4 c -0.9,-2 -0.5,-4.4 1,-5.9 0.4,-0.4 0.9,-0.8 1.5,-1 l 6.4,-3 c 2.6,-1.2 5.7,-0.1 6.9,2.5 l 3,6.4 c 0.9,2 0.5,4.4 -1,5.9 M 21.7,47.9 C 21.1,48.5 21,49.3 21.3,50 l 3,6.4 c 0.2,0.5 0.6,0.8 1.1,1 0.5,0.2 1,0.1 1.4,-0.1 l 6.4,-3 c 0.9,-0.4 1.3,-1.6 0.9,-2.5 l -3,-6.4 c -0.4,-0.9 -1.5,-1.3 -2.5,-0.9 l -6.4,3 c -0.1,0.1 -0.3,0.2 -0.5,0.4 M 1.5,53.8 c 0,0 -4,2.5 1.1,7.6 5.1,5.1 7.6,1.1 7.6,1.1 L 1.5,53.8"/>
    </g>
    <path d="m -45.076278,73.911891 c 0,0 -4.2,2.3 -0.3,6.2 3.9,3.9 6.2,-0.3 6.2,-0.3 l -5.9,-5.9" fill="#b0bdc6"/>
    <path d="m -21.176278,22.011891 -25.3,50.3 c -1.8,2.8 6.1,10.7 8.9,8.9 l 50.2,-25.3 -33.8,-33.9" fill="#ed4c5c"/>
    <path d="m 14.823722,53.911891 -1.3,1.4 c -3.368061,3.627143 -13.9,-1.3 -23.3,-10.7 -9.4,-9.5 -14.3,-19.9 -10.8,-23.4 l 1.4,-1.4 z" fill="#898a90"/>
    <path d="m 13.623722,52.811891 -3.7,3.7 c 0,0 -7.8,0.1 -19.7,-11.9 -12,-11.9 -11.9,-19.7 -11.9,-19.7 l 3.7,-3.7 31.6,31.6" fill="#dfe9ef"/>
    <path fill="#aa1d39" d="m 4.123722,30.611891 c 9.4,9.4 14.2,19.9 10.7,23.3 -3.5,3.5 -13.9,-1.3 -23.3,-10.7 -9.4,-9.4 -14.2,-19.9 -10.7,-23.4 3.5,-3.4 13.9,1.4 23.3,10.8"/>
    <path d="m 3.7109375,35.587891 c -1.7663687,-0.0043 -8.8527635,0.314509 -9.1914063,5.68164 L -5.563808,45.9525 c 0,0 1.2624492,1.118997 2.6544823,2.216006 1.3373325,1.053902 2.79728005,2.08143 3.22768508,2.368603 4.16970852,2.782099 8.01814962,4.383951 10.82812462,4.507813 0.892331,0.03933 1.650662,-0.04873 2.328125,-0.291016 0.163736,-0.05856 0.38093,-0.147719 0.679968,-0.320812 0.306332,-0.191528 0.502492,-0.354818 0.66964,-0.521028 0,0 -12.92171,-6.986632 -10.7167971,-18.316406 0,0 -0.144146,-0.0072 -0.3964844,-0.0078 z" fill="#5b0617"/>
    <path fill="#333333" d="m 44.806641,13.050781 -9.716797,8.158203 c 1.115785,1.356315 2.334259,2.715118 3.669922,4.050782 0.344617,0.344616 0.693889,0.671323 1.041015,1.001953 l 0.802735,0.757812 c 0.762105,0.698932 1.494141,1.344657 2.256577,1.969561 l 7.237563,-10.602373 0.01563,-0.03125 z" transform="matrix(1.1129505,0,0,1.1129505,-51.614416,15.097448)"/>
    <path fill="#4b4d4f" d="m 45.738281,13.730469 -9.248047,9.113281 c 0.648802,0.728111 1.324156,1.452566 2.035157,2.171875 l 2.664593,2.541901 7.606891,-9.239167 0.0039,-0.0039 0.548828,-0.974609 z" transform="matrix(1.1129505,0,0,1.1129505,-51.614416,15.097448)"/>
    <ellipse transform="matrix(0.6065874,-0.79501681,0.7073026,0.70691091,0,0)" ry="4.2184272" rx="1.4048017" cy="20.94672" cx="-22.385574" fill="#ed4c5c"/>
  </g>
</svg>