<svg xmlns="http://www.w3.org/2000/svg" viewBox="0 0 64 64">
    <title>Bullhorn With Sound Waves</title>
  <g transform="matrix(0.89851254,0,0,0.89851254,44.114608,-10.310263)">
    <path d="m -9.876278,76.311891 c -0.5,0.5 -1.1,1 -1.8,1.3 l -7.9,3.7 c -1.6,0.7 -3.3,0.8 -4.9,0.2 -1.6,-0.6 -2.9,-1.8 -3.6,-3.3 l -3.7,-7.9 c -1.1,-2.4 -0.6,-5.3 1.3,-7.2 0.5,-0.5 1.1,-1 1.8,-1.3 l 7.9,-3.7 c 3.2,-1.5 7,-0.1 8.5,3.1 l 3.7,7.9 c 1.1,2.3 0.6,5.3 -1.3,7.2 m -17.7,-10.4 c -0.7,0.7 -0.9,1.7 -0.5,2.6 l 3.7,7.9 c 0.3,0.6 0.7,1 1.3,1.2 0.6,0.2 1.2,0.2 1.8,-0.1 l 7.9,-3.7 c 1.1,-0.5 1.6,-1.9 1.1,-3 l -3.7,-7.9 c -0.5,-1.1 -1.9,-1.6 -3,-1.1 l -8,3.6 c -0.2,0.1 -0.5,0.3 -0.6,0.5" fill="#b0bdc6"/>
    <g transform="translate(-47.976278,18.711891)" fill="#898a90">
      <path d="m 36.2,56.3 c -0.4,0.4 -0.9,0.8 -1.5,1 l -6.4,3 C 27,60.9 25.6,61 24.3,60.5 23,60 21.9,59.1 21.4,57.8 l -3,-6.4 c -0.9,-2 -0.5,-4.4 1,-5.9 0.4,-0.4 0.9,-0.8 1.5,-1 l 6.4,-3 c 2.6,-1.2 5.7,-0.1 6.9,2.5 l 3,6.4 c 0.9,2 0.5,4.4 -1,5.9 M 21.7,47.9 C 21.1,48.5 21,49.3 21.3,50 l 3,6.4 c 0.2,0.5 0.6,0.8 1.1,1 0.5,0.2 1,0.1 1.4,-0.1 l 6.4,-3 c 0.9,-0.4 1.3,-1.6 0.9,-2.5 l -3,-6.4 c -0.4,-0.9 -1.5,-1.3 -2.5,-0.9 l -6.4,3 c -0.1,0.1 -0.3,0.2 -0.5,0.4 M 1.5,53.8 c 0,0 -4,2.5 1.1,7.6 5.1,5.1 7.6,1.1 7.6,1.1 L 1.5,53.8"/>
    </g>
    <path d="m -45.076278,73.911891 c 0,0 -4.2,2.3 -0.3,6.2 3.9,3.9 6.2,-0.3 6.2,-0.3 l -5.9,-5.9" fill="#b0bdc6"/>
    <path d="m -21.176278,22.011891 -25.3,50.3 c -1.8,2.8 6.1,10.7 8.9,8.9 l 50.2,-25.3 -33.8,-33.9" fill="#ed4c5c"/>
    <path d="m 14.823722,53.911891 -1.3,1.4 c -3.368061,3.627143 -13.9,-1.3 -23.3,-10.7 -9.4,-9.5 -14.3,-19.9 -10.8,-23.4 l 1.4,-1.4 z" fill="#898a90"/>
    <path d="m 13.623722,52.711891 -3.7,3.7 c 0,0 -7.8,0.1 -19.7,-11.9 -12,-11.9 -11.9,-19.7 -11.9,-19.7 l 3.7,-3.7 31.6,31.6" fill="#dfe9ef"/>
    <g transform="matrix(0.5325844,-0.69802563,0.60891926,0.60858205,-44.930997,48.101151)" fill="#42ade2">
      <path d="M 54.2,15.2 C 56.4,20.6 57,26.4 57.1,32 57,37.6 56.4,43.4 54.2,48.8 53.7,43.2 54,37.5 54,31.9 54,26.4 53.8,20.7 54.2,15.2 M 58.4,6.8 C 61.1,15 61.9,23.5 62,32 61.9,40.4 61.1,48.9 58.4,57.2 58.4,49 58.9,40.7 58.9,32.5 59,23.9 58.5,15.3 58.4,6.8"/>
    </g>
    <path fill="#aa1d39" d="m 4.1237216,30.611891 c 9.4000004,9.4 14.2000004,19.899999 10.7000004,23.3 -3.5,3.5 -13.90000044,-1.3 -23.3000004,-10.7 -9.3999996,-9.4 -14.1999996,-19.9 -10.6999996,-23.4 3.5,-3.4 13.8999996,1.4 23.2999996,10.8"/>
    <path d="m 3.7109376,35.587891 c -1.766369,-0.0043 -8.852764,0.314508 -9.191407,5.68164 l -0.08334,4.682968 c 0,0 1.262449,1.118998 2.654482,2.216006 1.337334,1.053903 2.79728096,2.08143 3.22768596,2.368604 4.16970804,2.782099 8.01814904,4.383951 10.82812444,4.507812 0.892331,0.03933 1.650662,-0.04872 2.328125,-0.291015 0.163736,-0.05856 0.380931,-0.147719 0.679968,-0.320813 0.306332,-0.191527 0.502492,-0.354817 0.66964,-0.521027 0,0 -12.9217094,-6.986632 -10.7167974,-18.316406 0,0 -0.144146,-0.0072 -0.396484,-0.0078 z" fill="#5b0617"/>
    <path fill="#333333" d="m -1.7468424,29.622321 -10.8143136,9.079676 c 1.241814,1.509512 2.597915,3.021792 4.0844416,4.50832 0.383541,0.383541 0.772264,0.74715 1.158598,1.115124 l 0.893404,0.843408 c 0.848185,0.777876 1.662905,1.496536 2.511459,2.192024 l 8.055049,-11.799917 0.0174,-0.03478 z"/>
    <path fill="#4b4d4f" d="M -0.70997244,30.37878 -11.002591,40.521411 c 0.722085,0.810352 1.4737196,1.616634 2.2650286,2.417189 l 2.96556,2.82901 8.466093,-10.282735 0.0043,-0.0043 0.610818,-1.084691 z"/>
    <ellipse transform="matrix(0.6065874,-0.79501681,0.7073026,0.70691091,0,0)" ry="4.2184272" rx="1.4048017" cy="20.94672" cx="-22.385574" fill="#ed4c5c"/>
  </g>
</svg>