<svg xmlns="http://www.w3.org/2000/svg" viewBox="0 0 64 64">
    <title>candle</title>
    <g fill="#dfcea3">
        <ellipse cx="32" cy="54.7" rx="12.4" ry="3.5"/>
        <path d="M 19.6,12.1 h24.8 v42.5 H19.6 z"/>
    </g>
    <ellipse cx="32" cy="12.1" fill="#fff6d7" rx="12.4" ry="3.5"/>
    <ellipse cx="32" cy="12.9" fill="#efd8b1" rx="9.4" ry="2.6"/>
    <path fill="#ed4c5c" d="M31.5 12.5c-2 0-3.9-1-1.7-4.8 2.1-3.8 2.8-4.6 2.8-5.7 0 0 6.4 10.5-1.1 10.5"/>
    <path fill="#8f9496" d="M32.1 10.8c.2.6.2 1.3.4 1.9.1.3.1.6 0 .9-.1.1-.2.6-.4.5-.2 0-.3-.5-.4-.6-.1-.4 0-.7 0-1 0-.2.1-1.7.4-1.7"/>
    <path fill="#ffce31" d="M31.7 12.5c-1.3 0-2.5-.6-1.1-3.1 1.4-2.4 1.8-3 1.8-3.7 0 .1 4.1 6.8-.7 6.8"/>
    <path fill="#3e4347" d="M31.6 12.5s.1-1.7.4-1.7c.3 0 .4 1.6.4 1.6s-.4.1-.8.1"/>
</svg>