<svg xmlns="http://www.w3.org/2000/svg" viewBox="0 0 64 64">
    <title>Telephone Receiver With Page</title>
	<g transform="scale(-1,1) translate(-64,0) translate(26,3) rotate(-50 32,32) scale(0.85)">
		<path fill="#676e72" d="M58.4 2.5C55.9-1 35.7 14.3 38.2 17.8c2 2.7 4.5 4.6 7.1 5.8-2.7 2.7-5.8 5.4-9.2 8-3.5 2.6-6.9 4.8-10.2 6.7-.4-2.9-1.5-5.9-3.5-8.5C19.9 26.2-.3 41.5 2.2 44.9c3.6 4.9 8.9 7.4 13.7 7 6.4-.4 16.4-4.9 26.2-12.3C53.4 31.1 61 21.3 61.8 15.1c.7-4-.5-8.6-3.4-12.6"/>
		<g fill="#373e42">
			<path d="M8 47.2c.1 0 .1 0 0 0M8 47.2c-1.8-1.3-4.4-2.7-3.8-5.1-4.3 4.3 7.1 9.2 10.2 8.3-2.2-.8-4.3-1.8-6.4-3.2M47.1 21.8c-2.3-1.2-7.6-3.7-6.8-7-4.3 4.3 7.1 9.2 10.2 8.3-1.2-.3-2.3-.7-3.4-1.3"/>
		</g>
	</g>
	<g transform="scale(0.7) translate(26,16) rotate(15 40,32)">
		<path fill="#d9e3e8" d="M0 8.8c16.3 11.8 10.7 33.9 19.9 49 2.7-1.8 5.3-3.5 8-5.3 1.7 2.7 3.9 5.2 6.8 7.4l23.7-18.3c-3.8-2.8-6-6.3-7.4-10.2C47.2 20.8 49 7.5 38.5 0 25.7 2.9 12.8 5.9 0 8.8"/>
		<g fill="#7d8b91">
			<path d="M11 14.1c.5.7 1 1.5 1.4 2.3 9.1-2.8 18.3-5.6 27.4-8.5-.3-.6-.7-1.2-1.1-1.8-9.2 2.7-18.4 5.4-27.7 8M15.3 23.2c8.9-3.3 17.9-6.6 26.8-9.9-.2-.7-.4-1.3-.7-2-9 3.1-18 6.2-27 9.4.3.9.6 1.7.9 2.5M17.1 30.6l26.4-11.4c-.1-.7-.3-1.4-.4-2.1-8.8 3.6-17.7 7.2-26.5 10.9.1.8.3 1.7.5 2.6"/>
		</g>
		<path fill="#d9e3e8" d="M16.8 51c1.4 4.2 3.5 8.2 6.7 11.6 1.8 1.9 5.4 1.9 7.4.3 2.1-1.6 2-4.1.3-5.9-3-3.2-5-6.9-6.3-10.8-2.7 1.5-5.4 3.2-8.1 4.8"/>
		<path fill="#333" d="M18.9 49c.1 5.4 1.3 10.2 4.6 13.6 1.8 1.9 5.4 1.9 7.4.3 2.1-1.6 2-4.1.3-5.9-3-3.2 20.3-24.1 18.9-28-2.6 1.5-21.3 12.9-31.2 20" opacity=".5"/>
		<path fill="#b0bdc6" d="M24.2 43.7c1.3 4.7 3.2 9.1 6.6 12.8 1.8 2 2.2 4.8.1 6.4 10.4-8 20.8-16.1 31.2-24.1 2.1-1.6 2.3-3.9 1-5.4-2.4-2.6-3.8-5.8-4.7-9.1-15.9 9-27.2 15.4-34.2 19.4"/>
	</g>
</svg>