<svg xmlns="http://www.w3.org/2000/svg" viewBox="0 0 64 64">
    <title>man dancing: medium-dark skin tone</title>
    <g fill="#3e4347">
        <path d="M21.5 58.9s-1 1.5 0 3.1h2.9v-1.1s.5 1.1 4.9 1.1c1.5 0 1.7-1.5.1-1.6-1.6-.1-1.4-1.2-2.9-3.1l-5 1.6M38.7 58.9s-1 1.5 0 3.1h2.9v-1.1s.5 1.1 4.9 1.1c1.5 0 1.7-1.5.1-1.6-1.6-.1-1.4-1.2-2.9-3.1l-5 1.6"/>
    </g>
    <path fill="#c28fef" d="M41.9 48.2c-.5-2.5-4.3-4.2-6.7-9.1 0 0-4.1-1.2-10-1.2 0 0-2.6 1.3-1.2 7.3.9 3.6-1 9.7-3.8 14.2 0 0 4.2 1.6 8.6 0 0 0-1.3-3.1.9-9.1.7-1.9-1-3.9.7-8.1 0 0 .8 1.8 6.9 7.3 0 0-1.2 5.6.2 10 0 0 .9.4 4.2.4 3.1 0 4.6-.4 4.6-.4s-2.8-3-4.4-11.3"/>
    <path fill="#9450e0" d="M29.1 38.8c-2.1-1-3.4-1.1-4.2-.8-.3.3-.9 1-1.2 2.3 1.8 1 4.6.8 4.6.8.8-1.5.8-2.3.8-2.3"/>
    <g fill="#c28fef">
        <path d="M32.9 21.5s7.2-2.2 10.3-8.1c0 0 .5 2.3 4.2 4.5 0 0-5.4 4.1-9.2 5.8 0 0-.2 7.4 2.7 14.9 0 0-.3.9-7.1.9 0 0 3.5-6.3-.9-18M27.9 21.9s-3.4-2-5-.7c-8.9 7-9.4 8.7-8.4 14.2 0 0 1.8-1.3 5 .2 0 0-1.4-5.5 5-8.4 0 0 .2 4.2-2.1 11.2 0 0 1.4 1.9 5.5 1.9 0 0 4.3-9.1 0-18.4"/>
    </g>
    <path fill="#9450e0" d="M44.1 12.4s3.9 2.1 3.9 5.4h-2.2s-.2-1.8-1.2-2.5-.5-2.9-.5-2.9"/>
    <path fill="#ffc7ce" d="M44.1 12.4s-1.7 1.4-2.8 2.7c0 0 .2 1.2 1.1 2.2l2.5-1.3-1.9 2.3s.7 1.1 2.1 1.6c0 0 1.8-1 2.9-2.1 0 0-3.2-1.8-3.9-5.4"/>
    <path fill="#b47d56" d="M48 12.6s1.9-1.6 1.4-2.1-.9-.6-1.4 0l-1.3 1.3c-.7-.6-1 0-1.2.2-.3.3-.6 1.6-.6 1.6.5 1.4 1.4 2.5 2.7 3.3 1-.6 2.4-1.6 2.4-2 0-1-2-2.3-2-2.3"/>
    <path fill="#935e3e" d="M45.5 13.2s.9-.2 1.3.2l-.2.1s-.3-.2-1.1-.3"/>
    <path fill="#9450e0" d="M14.4 36.5s1.6 1.1 5.7.2c0-.1-2.1-1.8-5.7-.2"/>
    <path fill="#b47d56" d="M15.4 35.4s-1.1 2.2.7 4.6c.5.6 1.8 1.2 3.3.5 1.4-.6.2-1.1-.4-2.3.3-.4.7-.7.5-1.1-.3-.6-1.2-1-1.2-1s.6-.9-2.9-.7"/>
    <path fill="#935e3e" d="M19.6 37.2c0-.1-.1-.1-.1-.2.1.3-.3.8-.5.6-.4-.4-.9-.8-.9-.8.6.7 1 1.5 1 1.5.3-.4.7-.7.5-1.1"/>
    <path fill="#ffc7ce" d="M14 33.1s.5 2 .4 3.4c0 0 2.3-.9 5.7.2 0 0-.6-2 .1-3.5 0 0-.4-.9-2.1-1.1l-.7 2.9-.7-2.8c.1-.1-1.5-.6-2.7.9"/>
    <g fill="#935e3e">
        <path d="M48.6 15.6c-.3.3-.9.8-1.7-.1-.9-.9-.3-1.5.1-2 .2-.2.4-.4.4-.9 0-.4-.9-.8-.5-.5 0 0 .6.3-.2 1.4-.3.5-.7 1-.3 1.7.5.7 1.1 1.5 2.1.9.9-.7.6-1 .1-.5M32.9 21.2h-4.3l3.5 5.6z"/>
    </g>
    <path fill="#ffc7ce" d="M35.9 22.1c-.5-.6-1.7-.3-1.7-.3l1.4-1.9c-1.1.8-2.9 1-2.9 1-1 2-.6 5.8-.6 5.8s-.8-3.9-3.5-5.8c0 0-1.4-.2-3.3.2l2.6 1.3-2 .8s1.3.2 2.9 1.1c0 0 1.6 6.4-.4 14.4l5.5.3s2.9-5.6-.2-15c1.1-1.2 2.2-1.9 2.2-1.9"/>
    <path fill="#9450e0" d="M33.8 39.5s5.7-2.1 7.1-.9c0 0-.1.9-7.1.9"/>
    <path fill="#c28fef" d="M32.1 27.2s1.3 4.7-.8 10.5c0 0 2.9-5.2.8-10.5"/>
    <path fill="#b47d56" d="M28.6 7.9c-7.9 0-6.9-2-6.9 7.9 0 4.7 4.2 6.1 8.6 6 4.4-.1 6.9-1.1 6.9-5.8 0-7.8-2.1-8.1-8.6-8.1"/>
    <path fill="#231f20" d="M25 21.3c-.1.7-.1 2-3 1.6 0 0 .4-4.8-1.8-7.5s-2.6-5.1-.9-7c0 0-2-4.4 7.1-5.6 4.6-.6 8.7 1.1 12.9-.8 0 0 3.8 7.5-3.4 8.4-7.2.9-7.2-1.6-11.4-1 0 0 .5 4.2 1.7 7.1 0 0 .2.8-.8 1.3 0 0-.9-3.9-2.3-4.8-1.4-.9-1.4 1.3-.7 2.5s1.2 1 1.2 1 1.7 2.5 1.4 4.8"/>
    <g fill="#664e27">
        <circle cx="27.9" cy="13.4" r="1.5"/>
        <circle cx="35" cy="13.4" r="1.5"/>
        <path d="M33.7 17.8c-1.5 1.2-3.2 1.2-4.6 0-.2-.1-.3.1-.2.3.5.8 1.4 1.6 2.5 1.6 1.2 0 2.1-.7 2.5-1.6.2-.2 0-.4-.2-.3"/>
    </g>
</svg>