<svg xmlns="http://www.w3.org/2000/svg" viewBox="0 0 64 64">
    <title>No Piracy</title>
    <path transform="scale(0.6) translate(20,20)" fill="#bab6b6" d="M55.9 38.9c2-3.5 3.1-7.5 3.1-11.8C59 13.3 46.9 2 32 2S5 13.3 5 27.2c0 4.2 1.1 8.2 3.1 11.8A7.16 7.16 0 0 0 5 44.9c0 4.1 3.6 7.5 8 7.5.4 0 .8 0 1.2-.1-.5 1.2-1.1 2.6-1.2 3.4-.6 3.1 2.7 5.7 6.1 5.7 0 0 1.6.1 2-.2 1.3-1.2 0-6.4 0-6.4 0-.9.8-1.6 1.7-1.6s1.7.7 1.7 1.6c0 0-1.2 5.4 0 6.6 1 .9 4.8.9 5.8 0 1.3-1.2 0-6.6 0-6.6 0-.9.8-1.6 1.7-1.6.9 0 1.7.7 1.7 1.6 0 0-1.3 5.4 0 6.6 1 .9 4.8.9 5.8 0 1.3-1.2 0-6.6 0-6.6 0-.9.8-1.6 1.7-1.6 1 0 1.7.7 1.7 1.6 0 0-1.3 5.3 0 6.4.3.3 2 .2 2 .2 3.4 0 6.7-2.6 6.1-5.7-.1-.7-.7-2.2-1.2-3.4.4.1.8.1 1.2.1 4.4 0 8-3.4 8-7.5 0-2.4-1.2-4.6-3.1-6m-38.5 1.4c-3-2.1-10.9-10.8-4.4-11.1 4-.2 13.7 3.1 14.3 6.8.5 2.6-6.8 6.4-9.9 4.3m19.1 7.9c-1.5 1.4-7.2 1.4-8.8 0-1.4-1.4.9-2.4 1.8-3.8 1-1.7 1.4-3.2 2.6-3.2 1.2 0 1.7 1.5 2.6 3.2.9 1.4 3.3 2.5 1.8 3.8m10.4-7.9c-3 2.1-10.3-1.8-9.9-4.3.6-3.7 10.3-7 14.3-6.8 6.5.4-1.4 9.1-4.4 11.1"/>
    <path fill="#ff5a79" d="M32 2C15.4 2 2 15.4 2 32s13.4 30 30 30 30-13.4 30-30S48.6 2 32 2m22 30c0 4.6-1.4 8.9-3.9 12.5L19.5 13.9C23.1 11.4 27.4 10 32 10c12.2 0 22 9.9 22 22m-44 0c0-4.6 1.4-8.9 3.9-12.5l30.6 30.6C40.9 52.6 36.6 54 32 54c-12.1 0-22-9.9-22-22"/>
</svg>