<svg xmlns="http://www.w3.org/2000/svg" viewBox="0 0 64 64">
    <title>Right Hand Telephone Receiver</title>
<g transform="rotate(-30) scale(0.85) translate(-16,26)">
    <path fill="#676e72" d="M58.4 2.5C55.9-1 35.7 14.3 38.2 17.8c2 2.7 4.5 4.6 7.1 5.8-2.7 2.7-5.8 5.4-9.2 8-3.5 2.6-6.9 4.8-10.2 6.7-.4-2.9-1.5-5.9-3.5-8.5C19.9 26.2-.3 41.5 2.2 44.9c3.6 4.9 8.9 7.4 13.7 7 6.4-.4 16.4-4.9 26.2-12.3C53.4 31.1 61 21.3 61.8 15.1c.7-4-.5-8.6-3.4-12.6"/>
    <g fill="#373e42">
        <path d="M8 47.2c.1 0 .1 0 0 0M8 47.2c-1.8-1.3-4.4-2.7-3.8-5.1-4.3 4.3 7.1 9.2 10.2 8.3-2.2-.8-4.3-1.8-6.4-3.2M47.1 21.8c-2.3-1.2-7.6-3.7-6.8-7-4.3 4.3 7.1 9.2 10.2 8.3-1.2-.3-2.3-.7-3.4-1.3"/>
    </g>
</g>
</svg>