<svg xmlns="http://www.w3.org/2000/svg" viewBox="0 0 64 64">
    <title>linked paperclips</title>
    <g fill="#42ade2">
        <path d="M51.8 51.8c-2-.7-3.6-2.3-4.3-4.3-.3-.7-.4-1.5-.4-2.3V7.1c0-2.3 1.9-4.2 4.2-4.2 2.3 0 4.1 1.8 4.2 4v33.3c0 .8-.6 1.4-1.4 1.4-.8 0-1.4-.6-1.4-1.4V11.3c0-.8-.6-1.4-1.4-1.4-.8 0-1.4.6-1.4 1.4V40c0 .7.2 1.4.5 2.1.4.7 1.1 1.4 1.8 1.8.9.4 1.9.6 2.9.3 1.9-.4 3.2-2.2 3.3-4.1V7c0-3.9-3.2-7.1-7.1-7.1S44.2 3.1 44.2 7v38.1c0 .7.1 1.3.2 1.9.8 3.9 3.8 6.9 7.7 7.7V54c.1-.7 0-1.5-.3-2.2"/>
        <path d="M61.2 11.4v33.8c0 3.6-2.8 6.7-6.3 7 .1.6.2 1.3.2 2v.9c5-.4 9-4.7 9-9.8V11.5c0-.8-.6-1.4-1.4-1.4-.9-.1-1.5.5-1.5 1.3"/>
    </g>
    <g fill="#ed4c5c">
        <path d="M44.3 44.3H11.4c-.8 0-1.4.6-1.4 1.4 0 .8.6 1.4 1.4 1.4h33.1c-.1-.6-.2-1.3-.2-1.9v-.9"/>
        <path d="M54.8 52.2c-.8-3.9-3.9-6.9-7.7-7.7v.7c0 .8.1 1.6.4 2.3 2 .7 3.6 2.3 4.3 4.3.3.7.4 1.5.4 2.3v.7c-.3 3.6-3.4 6.3-7 6.3H7.1c-2.3 0-4.2-1.9-4.2-4.2 0-2.3 1.8-4.1 4-4.2h33.3c.8 0 1.4.6 1.4 1.4 0 .8-.6 1.4-1.4 1.4H11.3c-.8 0-1.4.6-1.4 1.4 0 .8.6 1.4 1.4 1.4H40c.7 0 1.4-.2 2.1-.5.7-.4 1.4-1.1 1.8-1.8.4-.9.6-1.9.3-2.9-.4-1.9-2.2-3.2-4.1-3.3H7c-3.8.1-7 3.2-7 7.1S3.2 64 7.1 64h38.1c5.2 0 9.4-4 9.8-9v-.9c0-.6 0-1.3-.2-1.9"/>
    </g>
</svg>