<svg xmlns="http://www.w3.org/2000/svg" viewBox="0 0 64 64">
    <title>Sideways White Down Pointing Index: light skin tone</title>
  <g transform="rotate(180,32,32)">
    <g transform="matrix(0.77237135,0,0,0.77237135,6.6598674,14.114835)">
      <g transform="rotate(90,36,36)">
        <path fill="#e6b796" d="m 20.6,55 c 1,1.1 7.9,1 9.1,0.2 C 32.2,53.7 49.6,32.8 34.5,26.7 23,22 20.5,32.6 19.3,33.5 17,35.3 18.7,52.9 20.6,55"/>
        <g fill="#ffe1bd">
          <path d="m 57.6,54.3 c -17.4,0.1 -8.9,2.6 -22.8,2.6 -5.5,0 -10.2,-3.6 -10.2,-8.6 V 48.2 C 33.2,42.5 18.8,45 21,31.5 21.7,27 26.5,26.7 32.8,26.1 38.1,25.6 56,32.4 56,32.4 c 6.4,2.3 8.8,21.9 1.6,21.9"/>
          <path d="m 20.1,23.2 c 2.8,-1.9 16,3.2 16,3.2 L 28,46.8 c 0,0 -28.6,-0.8 -19.3,-8.6 7.8,-6.5 7.5,-12.3 11.4,-15"/>
        </g>
        <g fill="#e6b796">
          <path d="m 7.8,39.1 c -2.2,5.5 17.9,6.4 20.6,6.5 l -0.5,1.2 c 0,0 -26.4,-0.8 -20.1,-7.7 m 19.8,-4 c 3.4,5.2 4.9,6.3 4.9,6.3 0,0 -3.4,-0.8 -5.7,-4.2 l 0.8,-2.1"/>
          <path d="m 27.4,34 c 1.5,0 0,7.3 1.7,9.3 -0.4,1.3 -3,0.5 -3,0.5 0,0 0.8,-9 0.7,-9.5 L 27.4,34"/>
        </g>
        <path fill="#ffe1bd" d="m 39.4,51.4 c 0.2,-0.6 0.3,-1.1 0.4,-1.7 0.1,-0.3 0.2,-0.6 0.3,-1 1,-4.3 -15.3,-7.1 -15.3,-7.1 L 23.6,41.3 C 21,40.7 15.3,40 11.1,44.8 c -2.9,3.4 0.1,6.8 2.8,7 7.3,0.7 12.7,2.5 16.8,4.2 3.6,1.7 7.2,-0.2 8.7,-4.6"/>
        <path fill="#e6b796" d="m 23.5,42.9 c -2.6,-0.9 -6.8,-3.2 -12.2,1.6 5,-6.1 13.1,-3 13.4,-2.9 7.6,1 12.6,-2 12.6,-2 -1.5,3.8 -10.1,4.6 -13.8,3.3 m 11.8,12.7 c 13.9,0 5.5,-2.5 22.8,-2.6 1.5,0 2.7,-1.5 3.4,-2.9 -0.5,2.7 -2,4.2 -3.9,4.2 -17.4,0.1 -9,2.7 -22.9,2.7 -5.5,0 -10.7,-2.8 -15.1,-4.2 -0.1,-0.1 10.5,2.8 15.7,2.8"/>
      </g>
      <g transform="translate(-3.010278,-8.888872)">
        <path d="m 46.035156,-6.5410156 c -2.3,0 -4.201172,1.9011719 -4.201172,4.2011718 L 41.634766,35.728806 50.234375,30.985799 V 15.839844 -2.3398438 c 0,-2.2999999 -1.899219,-4.2011718 -4.199219,-4.2011718 z" fill="#ffe1bd"/>
        <path d="m 45.035156,-6.4414062 c -1.9,0.4 -3.40039,2.1015624 -3.40039,4.1015624 l 0.07052,24.5929868 1.92948,9.93191 V -3.3398438 c 0,-1.2 0.60039,-2.4015624 1.40039,-3.1015624 z" fill="#e6b796"/>
      </g>
    </g>
  </g>
</svg>