<svg xmlns="http://www.w3.org/2000/svg" xmlns:xlink="http://www.w3.org/1999/xlink" viewBox="0 0 64 64">
    <title>Three Networked Computers</title>
	<defs>
		<g id="computer" transform="scale(0.4)">
			<path fill="#212528" d="M62 6c0-2-2-4-4-4H6C4 2 2 4 2 6v38h60V6z"/>
			<path fill="#ddd" d="M2 44v4c0 2 2 4 4 4h52c2 0 4-2 4-4v-4H2z"/>
			<path fill="#bfbebe" d="M24 54c0 4-4 4-8 4h32c-4 0-8 0-8-4v-2H24v2"/>
			<path fill="#3e4347" d="M6 6h52v34H6z"/>
			<g fill="#94989b">
				<circle cx="32" cy="47.9" r="1"/>
				<path d="M16 58h32v4H16z"/>
			</g>
		</g>
		<g id="arrows" transform="scale(0.3)">
		    <path fill="#f2b200" d="M12 32l15.5 16V36.6h9V48L52 32 36.5 16v11.4h-9V16z"/>
		</g>
	</defs>
	<use xlink:href="#computer" x="20" y="0"/>
	<use xlink:href="#computer" x="0" y="38"/>
	<use xlink:href="#computer" x="38" y="38"/>
	<use xlink:href="#arrows" x="22.2" y="38"/>
	<use xlink:href="#arrows" x="45" y="-18" transform="rotate(45)"/>
	<use xlink:href="#arrows" x="-19" y="27" transform="rotate(-45)"/>
</svg>