<svg xmlns="http://www.w3.org/2000/svg" viewBox="0 0 64 64">
    <title>Black Hard Shell Floppy Disk</title>
  <path d="M 2.7,9.3 9.3,2.7 C 9.7,2.3 10.5,2 11,2 h 44 v 4 h 4 V 2 h 2 c 0.5,0 1,0.5 1,1 v 58 c 0,0.5 -0.5,1 -1,1 H 3 C 2.5,62 2,61.5 2,61 V 11 C 2,10.4 2.3,9.7 2.7,9.3" fill="#3e4347"/>
  <path d="m 46,2 v 20 c 0,1.1 -0.9,2 -2,2 H 14 c -1.1,0 -2,-0.9 -2,-2 V 2 h 34" fill="#e8e8e8"/>
  <path d="M 28,6 H 18 v 16 h 10 z" fill="#3e4347"/>
  <path d="m 5,56 c 0,-0.6 0.5,-1 1,-1 h 2 c 0.5,0 1,0.4 1,1 v 2 c 0,0.5 -0.5,1 -1,1 H 6 C 5.5,59 5,58.5 5,58 v -2" fill="#ffffff"/>
  <circle fill="#94989b" cx="32" cy="35.61985" r="8.6290998"/>
  <path fill="#212528" d="M 11.623047 62 L 52.376953 62 L 52.376953 55.617188 C 52.376953 54.450521 51.018581 53.283203 49.660156 53.283203 L 14.339844 53.283203 C 12.98142 53.283203 11.623047 54.45052 11.623047 55.617188 L 11.623047 62 z "/>
  <path fill="#3e4347" d="m 26.558594,31.832031 a 0.58523367,0.58523367 0 0 0 -0.585938,0.585938 v 2.53125 a 0.58523367,0.58523367 0 0 0 0.585938,0.585937 h 1.533203 a 0.58523367,0.58523367 0 0 0 0.585937,-0.585937 v -2.53125 a 0.58523367,0.58523367 0 0 0 -0.585937,-0.585938 z" transform="matrix(1.3399419,0,0,1.6731748,-9.2606491,-22.818765)"/>
  <path transform="matrix(0.75534992,0.54653103,-0.39922632,0.55176295,24.807293,2.1004243)" d="m 26.558594,31.832031 a 0.58523367,0.58523367 0 0 0 -0.585938,0.585938 v 2.53125 a 0.58523367,0.58523367 0 0 0 0.585938,0.585937 h 1.533203 a 0.58523367,0.58523367 0 0 0 0.585937,-0.585937 v -2.53125 a 0.58523367,0.58523367 0 0 0 -0.585937,-0.585938 z" fill="#3e4347"/>
</svg>