<svg xmlns="http://www.w3.org/2000/svg" viewBox="0 0 64 64">
    <title>Keyboard And Mouse</title>
	<g id="keyboard">
		<!--path fill="#94989b" d="M33 32h-1c0-14.5-5.8-14.5-12-14.5-6.4 0-13 0-13-15.5h1c0 14.5 5.8 14.5 12 14.5 6.4 0 13 0 13 15.5"/-->
		<path fill="#d0d0d0" d="M62 59c0 1.7-1.3 3-2.8 3H4.8C3.3 62 2 60.7 2 59V35c0-1.7 1.3-3 2.8-3h54.4c1.6 0 2.8 1.3 2.8 3v24z"/>
		<g fill="#fff">
			<path d="M8 41c0 .5-.4 1-1 1H5c-.6 0-1-.4-1-1v-2c0-.6.4-1 1-1h2c.6 0 1 .4 1 1v2M14 41c0 .5-.4 1-1 1h-2c-.6 0-1-.4-1-1v-2c0-.6.4-1 1-1h2c.6 0 1 .4 1 1v2M20 41c0 .5-.4 1-1 1h-2c-.6 0-1-.4-1-1v-2c0-.6.4-1 1-1h2c.6 0 1 .4 1 1v2M26 41c0 .5-.4 1-1 1h-2c-.6 0-1-.4-1-1v-2c0-.6.4-1 1-1h2c.6 0 1 .4 1 1v2M32 41c0 .5-.4 1-1 1h-2c-.6 0-1-.4-1-1v-2c0-.6.4-1 1-1h2c.6 0 1 .4 1 1v2M38 41c0 .5-.4 1-1 1h-2c-.5 0-1-.4-1-1v-2c0-.6.4-1 1-1h2c.6 0 1 .4 1 1v2M44 41c0 .5-.4 1-1 1h-2c-.6 0-1-.4-1-1v-2c0-.6.4-1 1-1h2c.6 0 1 .4 1 1v2M50 41c0 .5-.4 1-1 1h-2c-.5 0-1-.4-1-1v-2c0-.6.4-1 1-1h2c.5 0 1 .4 1 1v2M52 47c0 .6-.4 1-1 1h-2c-.6 0-1-.4-1-1v-2c0-.5.4-1 1-1h2c.5 0 1 .4 1 1v2M46 47c0 .6-.4 1-1 1h-2c-.5 0-1-.4-1-1v-2c0-.5.4-1 1-1h2c.6 0 1 .4 1 1v2M40 47c0 .6-.4 1-1 1h-2c-.6 0-1-.4-1-1v-2c0-.5.4-1 1-1h2c.5 0 1 .4 1 1v2M34 47c0 .6-.4 1-1 1h-2c-.6 0-1-.4-1-1v-2c0-.5.4-1 1-1h2c.6 0 1 .4 1 1v2M28 47c0 .6-.4 1-1 1h-2c-.5 0-1-.4-1-1v-2c0-.5.4-1 1-1h2c.6 0 1 .4 1 1v2M22 47c0 .6-.4 1-1 1h-2c-.6 0-1-.4-1-1v-2c0-.5.4-1 1-1h2c.6 0 1 .4 1 1v2M16 47c0 .6-.4 1-1 1h-2c-.6 0-1-.4-1-1v-2c0-.5.4-1 1-1h2c.6 0 1 .4 1 1v2M18 53c0 .5-.4 1-1 1h-2c-.5 0-1-.4-1-1v-2c0-.6.4-1 1-1h2c.6 0 1 .4 1 1v2M16 59c0 .5-.4 1-1 1h-2c-.6 0-1-.4-1-1v-2c0-.6.4-1 1-1h2c.6 0 1 .4 1 1v2M22 59c0 .5-.4 1-1 1h-2c-.6 0-1-.4-1-1v-2c0-.6.4-1 1-1h2c.6 0 1 .4 1 1v2M24 53c0 .5-.4 1-1 1h-2c-.6 0-1-.4-1-1v-2c0-.6.4-1 1-1h2c.6 0 1 .4 1 1v2M30 53c0 .5-.4 1-1 1h-2c-.6 0-1-.4-1-1v-2c0-.6.4-1 1-1h2c.5 0 1 .4 1 1v2M36 53c0 .5-.4 1-1 1h-2c-.6 0-1-.4-1-1v-2c0-.6.4-1 1-1h2c.6 0 1 .4 1 1v2M42 53c0 .5-.4 1-1 1h-2c-.6 0-1-.4-1-1v-2c0-.6.4-1 1-1h2c.6 0 1 .4 1 1v2M48 53c0 .5-.4 1-1 1h-2c-.5 0-1-.4-1-1v-2c0-.6.4-1 1-1h2c.5 0 1 .4 1 1v2M50 59c0 .5-.4 1-1 1h-2c-.5 0-1-.4-1-1v-2c0-.6.4-1 1-1h2c.5 0 1 .4 1 1v2M60 41c0 .5-.4 1-.9 1h-6.2c-.5 0-.9-.4-.9-1v-2c0-.6.4-1 .9-1h6.2c.5 0 .9.4.9 1v2M60 59c0 .5-.4 1-.9 1h-6.2c-.5 0-.9-.4-.9-1v-2c0-.6.4-1 .9-1h6.2c.5 0 .9.4.9 1v2M60 53c0 .5-.4 1-.8 1h-8.4c-.4 0-.8-.4-.8-1v-2c0-.6.4-1 .8-1h8.4c.5 0 .8.4.8 1v2M12 53c0 .5-.4 1-.9 1H4.9c-.5 0-.9-.4-.9-1v-2c0-.6.4-1 .9-1h6.2c.5 0 .9.4.9 1v2M60 47c0 .6-.4 1-.9 1h-4.2c-.5 0-.9-.4-.9-1v-2c0-.5.4-1 .9-1h4.2c.5 0 .9.4.9 1v2M10 47c0 .6-.4 1-.9 1H4.9c-.5 0-.9-.4-.9-1v-2c0-.5.4-1 .9-1h4.2c.5 0 .9.4.9 1v2M10 59c0 .5-.4 1-.9 1H4.9c-.5 0-.9-.5-.9-1v-2c0-.5.4-1 .9-1h4.2c.5 0 .9.4.9 1v2M44 59c0 .5-.4 1-.8 1H24.8c-.5 0-.8-.4-.8-1v-2c0-.5.4-1 .8-1h18.3c.5 0 .8.4.8 1v2zM8.9 36H7.1c-1.4 0-1.4-2 0-2h1.8c1.5 0 1.5 2 0 2M14.9 36H13c-1.4 0-1.4-2 0-2h1.9c1.5 0 1.5 2 0 2M20.9 36H19c-1.4 0-1.4-2 0-2h1.9c1.5 0 1.5 2 0 2M26.9 36h-1.8c-1.4 0-1.4-2 0-2h1.8c1.5 0 1.5 2 0 2M32.9 36h-1.8c-1.4 0-1.4-2 0-2h1.8c1.5 0 1.5 2 0 2M38.9 36h-1.8c-1.4 0-1.4-2 0-2h1.8c1.5 0 1.5 2 0 2M44.9 36h-1.8c-1.4 0-1.4-2 0-2h1.8c1.5 0 1.5 2 0 2M50.9 36h-1.8c-1.4 0-1.4-2 0-2h1.8c1.5 0 1.5 2 0 2M56.9 36h-1.8c-1.4 0-1.4-2 0-2h1.8c1.5 0 1.5 2 0 2"/>
		</g>
	</g>
	<g id="mouse" transform="scale(0.5) translate(47.2,5.3)">
		<path fill="#94989b" d="M19 58.7h-2.4c0-3.2-2.9-8.2-5.1-11.8C8.1 41.5 2 33.7 2 23c0-6.3 2-11.2 6.8-13.2 3.9-1.6 8.1.1 10.8 2.8l-1.7 1.7c-2-2-5.2-3.5-8.2-2.3-3.9 1.6-5.3 5.7-5.3 11 0 9.9 5.8 17.1 9.2 22.6 2.4 4 5.4 9.3 5.4 13.1"/>
		<g fill="#bcc2cc">
			<path d="M13.2 14.5c-.8-.8-.9-1.8-.4-2.3l2.6-2.6c.5-.5 1.6-.3 2.3.4l-4.5 4.5M19.1 42.8C6 29.7 8.3 19.9 15.7 12.5c7.4-7.4 17.2-9.7 30.3 3.3 16.5 16.5 18.4 30.4 11 37.9-7.5 7.4-21.5 5.5-37.9-10.9"/>
		</g>
		<g fill="#d8dfeb">
			<path d="M28.1 24.9c-5.1 5-9.1 10.6-11.6 16.5.7.8 1.5 1.6 2.3 2.4C35.3 60.4 49.7 62 57.5 54.2s6.1-22.1-10.4-38.7c-.8-.8-1.6-1.6-2.4-2.3-6 2.6-11.5 6.6-16.6 11.7M44 12.6c-9.4-8.5-17-8.9-23.2-5.4L32.6 19c3.6-2.8 7.3-5 11.4-6.4M11.1 16.8L23 28.7c1.3-1.6 2.7-3.2 4.2-4.7s3.1-2.9 4.7-4.2L20.1 7.9c-1.8 1-3.5 2.4-5 3.9-1.6 1.6-3 3.3-4 5M15.8 40.7c1.4-4 3.7-7.8 6.5-11.4L10.4 17.5c-3.5 6.3-3.1 13.9 5.4 23.2"/>
		</g>
	</g>
</svg>