<svg xmlns="http://www.w3.org/2000/svg" viewBox="0 0 64 64">
    <title>Wired Keyboard</title>
    <path fill="#94989b" d="M33 32h-1c0-14.5-5.8-14.5-12-14.5-6.4 0-13 0-13-15.5h1c0 14.5 5.8 14.5 12 14.5 6.4 0 13 0 13 15.5"/>
    <path fill="#d0d0d0" d="M62 59c0 1.7-1.3 3-2.8 3H4.8C3.3 62 2 60.7 2 59V35c0-1.7 1.3-3 2.8-3h54.4c1.6 0 2.8 1.3 2.8 3v24z"/>
    <g fill="#fff">
        <path d="M8 41c0 .5-.4 1-1 1H5c-.6 0-1-.4-1-1v-2c0-.6.4-1 1-1h2c.6 0 1 .4 1 1v2M14 41c0 .5-.4 1-1 1h-2c-.6 0-1-.4-1-1v-2c0-.6.4-1 1-1h2c.6 0 1 .4 1 1v2M20 41c0 .5-.4 1-1 1h-2c-.6 0-1-.4-1-1v-2c0-.6.4-1 1-1h2c.6 0 1 .4 1 1v2M26 41c0 .5-.4 1-1 1h-2c-.6 0-1-.4-1-1v-2c0-.6.4-1 1-1h2c.6 0 1 .4 1 1v2M32 41c0 .5-.4 1-1 1h-2c-.6 0-1-.4-1-1v-2c0-.6.4-1 1-1h2c.6 0 1 .4 1 1v2M38 41c0 .5-.4 1-1 1h-2c-.5 0-1-.4-1-1v-2c0-.6.4-1 1-1h2c.6 0 1 .4 1 1v2M44 41c0 .5-.4 1-1 1h-2c-.6 0-1-.4-1-1v-2c0-.6.4-1 1-1h2c.6 0 1 .4 1 1v2M50 41c0 .5-.4 1-1 1h-2c-.5 0-1-.4-1-1v-2c0-.6.4-1 1-1h2c.5 0 1 .4 1 1v2M52 47c0 .6-.4 1-1 1h-2c-.6 0-1-.4-1-1v-2c0-.5.4-1 1-1h2c.5 0 1 .4 1 1v2M46 47c0 .6-.4 1-1 1h-2c-.5 0-1-.4-1-1v-2c0-.5.4-1 1-1h2c.6 0 1 .4 1 1v2M40 47c0 .6-.4 1-1 1h-2c-.6 0-1-.4-1-1v-2c0-.5.4-1 1-1h2c.5 0 1 .4 1 1v2M34 47c0 .6-.4 1-1 1h-2c-.6 0-1-.4-1-1v-2c0-.5.4-1 1-1h2c.6 0 1 .4 1 1v2M28 47c0 .6-.4 1-1 1h-2c-.5 0-1-.4-1-1v-2c0-.5.4-1 1-1h2c.6 0 1 .4 1 1v2M22 47c0 .6-.4 1-1 1h-2c-.6 0-1-.4-1-1v-2c0-.5.4-1 1-1h2c.6 0 1 .4 1 1v2M16 47c0 .6-.4 1-1 1h-2c-.6 0-1-.4-1-1v-2c0-.5.4-1 1-1h2c.6 0 1 .4 1 1v2M18 53c0 .5-.4 1-1 1h-2c-.5 0-1-.4-1-1v-2c0-.6.4-1 1-1h2c.6 0 1 .4 1 1v2M16 59c0 .5-.4 1-1 1h-2c-.6 0-1-.4-1-1v-2c0-.6.4-1 1-1h2c.6 0 1 .4 1 1v2M22 59c0 .5-.4 1-1 1h-2c-.6 0-1-.4-1-1v-2c0-.6.4-1 1-1h2c.6 0 1 .4 1 1v2M24 53c0 .5-.4 1-1 1h-2c-.6 0-1-.4-1-1v-2c0-.6.4-1 1-1h2c.6 0 1 .4 1 1v2M30 53c0 .5-.4 1-1 1h-2c-.6 0-1-.4-1-1v-2c0-.6.4-1 1-1h2c.5 0 1 .4 1 1v2M36 53c0 .5-.4 1-1 1h-2c-.6 0-1-.4-1-1v-2c0-.6.4-1 1-1h2c.6 0 1 .4 1 1v2M42 53c0 .5-.4 1-1 1h-2c-.6 0-1-.4-1-1v-2c0-.6.4-1 1-1h2c.6 0 1 .4 1 1v2M48 53c0 .5-.4 1-1 1h-2c-.5 0-1-.4-1-1v-2c0-.6.4-1 1-1h2c.5 0 1 .4 1 1v2M50 59c0 .5-.4 1-1 1h-2c-.5 0-1-.4-1-1v-2c0-.6.4-1 1-1h2c.5 0 1 .4 1 1v2M60 41c0 .5-.4 1-.9 1h-6.2c-.5 0-.9-.4-.9-1v-2c0-.6.4-1 .9-1h6.2c.5 0 .9.4.9 1v2M60 59c0 .5-.4 1-.9 1h-6.2c-.5 0-.9-.4-.9-1v-2c0-.6.4-1 .9-1h6.2c.5 0 .9.4.9 1v2M60 53c0 .5-.4 1-.8 1h-8.4c-.4 0-.8-.4-.8-1v-2c0-.6.4-1 .8-1h8.4c.5 0 .8.4.8 1v2M12 53c0 .5-.4 1-.9 1H4.9c-.5 0-.9-.4-.9-1v-2c0-.6.4-1 .9-1h6.2c.5 0 .9.4.9 1v2M60 47c0 .6-.4 1-.9 1h-4.2c-.5 0-.9-.4-.9-1v-2c0-.5.4-1 .9-1h4.2c.5 0 .9.4.9 1v2M10 47c0 .6-.4 1-.9 1H4.9c-.5 0-.9-.4-.9-1v-2c0-.5.4-1 .9-1h4.2c.5 0 .9.4.9 1v2M10 59c0 .5-.4 1-.9 1H4.9c-.5 0-.9-.5-.9-1v-2c0-.5.4-1 .9-1h4.2c.5 0 .9.4.9 1v2M44 59c0 .5-.4 1-.8 1H24.8c-.5 0-.8-.4-.8-1v-2c0-.5.4-1 .8-1h18.3c.5 0 .8.4.8 1v2zM8.9 36H7.1c-1.4 0-1.4-2 0-2h1.8c1.5 0 1.5 2 0 2M14.9 36H13c-1.4 0-1.4-2 0-2h1.9c1.5 0 1.5 2 0 2M20.9 36H19c-1.4 0-1.4-2 0-2h1.9c1.5 0 1.5 2 0 2M26.9 36h-1.8c-1.4 0-1.4-2 0-2h1.8c1.5 0 1.5 2 0 2M32.9 36h-1.8c-1.4 0-1.4-2 0-2h1.8c1.5 0 1.5 2 0 2M38.9 36h-1.8c-1.4 0-1.4-2 0-2h1.8c1.5 0 1.5 2 0 2M44.9 36h-1.8c-1.4 0-1.4-2 0-2h1.8c1.5 0 1.5 2 0 2M50.9 36h-1.8c-1.4 0-1.4-2 0-2h1.8c1.5 0 1.5 2 0 2M56.9 36h-1.8c-1.4 0-1.4-2 0-2h1.8c1.5 0 1.5 2 0 2"/>
    </g>
</svg>