<svg xmlns="http://www.w3.org/2000/svg" viewBox="0 0 64 64">
    <title>Black Up Pointing Backhand Index</title>
	<g transform="scale(-2,2) rotate(270 16,16) translate(-6,-64)">
		<path fill="#fff" d="M32.6 44c-4.2 1-14.9 2.3-16.8.3-.9-.9-.7-2.2-.4-4.5.3-2.3-1.9-4.7-3.5-4.9-1.9-.2-3 1.2-2.3 3.2C11 42.6 8.2 44 8 47.3c-.1 1.9-.7 5.1 2.2 9.2 3.3 4.6 9 4.7 11 4.6 2.3-.1 3.3-.2 3.8-1.2.6-1.2.3-1.5.6-1.9.5-.9.8-.8 1.1-1.9.3-1.1-.5-1.8-.3-2.3.4-1.2 1.4-1 .4-3.8 3.4-.5 5.6-1 7.6-2.2 3.7-2 .5-4.3-1.8-3.8"/>
		<path fill="#cccfd4" d="M17.5 61.7c-3.4-.6-6.2-2.3-8-4.8-2.8-3.9-2.6-7-2.4-9.1v-.7c.1-1.4.5-2.5 1-3.6.7-1.6 1.3-2.9.5-5.3-.4-1.2-.3-2.4.5-3.2.7-.7 1.7-1.1 2.9-.9h.1c2.1.4 4.5 3.2 4.2 5.9-.3 2.2-.4 3.2.2 3.8.1.1.4.4 1.5.5 3.8.7 11.3-.4 14.4-1.1.5-.1 1.1-.1 1.7 0 1.5.3 2.6 1.2 2.9 2.3.1.7.1 2-2 3.2-2 1.1-4.1 1.7-7 2.1.8 2-1.1 2.7-.7 3.5.5 1.1.4 2-.7 3.1-.8.7.2 1.6-.6 3-.9 1.5-2.4 1.6-4.6 1.7-1.5-.1-2.7-.1-3.9-.4M9.9 37.2c.7 3.3.9 4.5-.3 7.2-1.8 3.6-2.5 13.8 8.2 15.7 6.5 1.2 7.5-.4 7.2-2.1-.2-1.1.7-1.5 1-1.9.7-1.2-.3-1.8-.3-2.3 0-.9.9-.9 1.1-1.8.3-1.6-1.7-2.2 0-2.3 3.3-.2 5.5-.8 7.4-2.1 1.8-1.2.5-3.7-1.9-3.2-5.6 1.2-14 2.6-16.8 0-1.3-1.2-.3-2.6-.4-5.3-.2-3.6-5.9-5-5.2-1.9"/>
	</g>
</svg>