<svg xmlns="http://www.w3.org/2000/svg" viewBox="0 0 64 64">
    <title>One Button Mouse</title>
  <path fill="#94989b" d="M19 58.7h-2.4c0-3.2-2.9-8.2-5.1-11.8C8.1 41.5 2 33.7 2 23c0-6.3 2-11.2 6.8-13.2 3.9-1.6 8.1.1 10.8 2.8l-1.7 1.7c-2-2-5.2-3.5-8.2-2.3-3.9 1.6-5.3 5.7-5.3 11 0 9.9 5.8 17.1 9.2 22.6 2.4 4 5.4 9.3 5.4 13.1"/>
  <g fill="#bcc2cc">
    <path d="M13.2 14.5c-.8-.8-.9-1.8-.4-2.3l2.6-2.6c.5-.5 1.6-.3 2.3.4l-4.5 4.5M19.1 42.8C6 29.7 8.3 19.9 15.7 12.5c7.4-7.4 17.2-9.7 30.3 3.3 16.5 16.5 18.4 30.4 11 37.9-7.5 7.4-21.5 5.5-37.9-10.9"/>
  </g>
  <g fill="#d8dfeb">
    <path d="m 28.386719,5.1289062 c -2.739844,-0.00586 -5.260938,0.7578126 -7.323438,1.9140626 -2.0625,1.15625 -4.463672,3.2578122 -5.963672,4.7578122 -1.6,1.6 -3,3.3 -4,5 v 0 c -3.5000012,6.3 -3.7988273,14.598438 4.701172,23.898438 1.4,-4 3.7,-7.798438 6.5,-11.398438 L 23,28.428033 C 24.3,26.828033 25.699219,25.5 27.199219,24 c 1.5,-1.5 3.053233,-3.067007 4.653233,-4.367007 L 32.599609,19 C 36.199609,16.2 39.9,13.999609 44,12.599609 38.125,7.2871102 32.953125,5.1386719 28.386719,5.1289062 Z m 16.3125,8.0703128 c -6,2.6 -11.49961,6.601172 -16.59961,11.701172 -5.1,5 -9.099609,10.6 -11.599609,16.5 0.7,0.8 1.500781,1.60039 2.300781,2.40039 C 35.300781,60.400781 49.7,61.999219 57.5,54.199219 65.3,46.399219 63.599609,32.1 47.099609,15.5 c -0.8,-0.8 -1.60039,-1.600781 -2.40039,-2.300781 z"/>
  </g>
</svg>