<svg xmlns="http://www.w3.org/2000/svg" viewBox="0 0 64 64">
    <title>Soft Shell Floppy Disk</title>
  <path d="m 61,2 c 0.5,0 1,0.5 1,1 V 11 13.806641 61 c 0,0.5 -0.5,1 -1,1 H 3 C 2.5,62 2,61.5 2,61 V 47.390625 h 4 v -4 H 2 V 3 C 2,2.5 2.5,2 3,2 h 20.107422 v 1.7285156 h 1.976562 V 2 h 13.832032 v 1.7285156 h 1.976562 V 2 H 48.466797 53 Z M 32,25.492188 C 28.405986,25.492553 25.492553,28.405986 25.492188,32 25.492553,35.594014 28.405986,38.507447 32,38.507812 35.594014,38.507447 38.507447,35.594014 38.507812,32 38.507447,28.405986 35.594014,25.492553 32,25.492188 Z" fill="#b2c1c0"/>
  <path fill="#62727a" d="M 32 23.371094 A 8.6290998 8.6290998 0 0 0 23.371094 32 A 8.6290998 8.6290998 0 0 0 32 40.628906 A 8.6290998 8.6290998 0 0 0 40.628906 32 A 8.6290998 8.6290998 0 0 0 32 23.371094 z M 32 25.492188 A 6.5084748 6.5084748 0 0 1 38.507812 32 A 6.5084748 6.5084748 0 0 1 32 38.507812 A 6.5084748 6.5084748 0 0 1 25.492188 32 A 6.5084748 6.5084748 0 0 1 32 25.492188 z "/>
  <path fill="#62727a" d="M 32 4.609375 A 3.6610169 3.6610169 0 0 0 28.339844 8.2714844 L 28.339844 17.083984 A 3.6610169 3.6610169 0 0 0 32 20.746094 A 3.6610169 3.6610169 0 0 0 35.660156 17.083984 L 35.660156 8.2714844 A 3.6610169 3.6610169 0 0 0 32 4.609375 z "/>
  <circle fill="#62727a" cx="21.723061" cy="30.202271" r="1.0605475"/>
</svg>