<svg xmlns="http://www.w3.org/2000/svg" viewBox="0 0 64 64">
    <title>Old Personal Computer</title>
  <g id="tower" transform="matrix(0,-0.78571429,0.78571429,0,6.8571427,75.987374)">
    <path d="M 46,58.25 C 46,60.321 44.329,62 42.267,62 H 21.733 C 19.672,62 18,60.321 18,58.25 V 5.75 C 18,3.679 19.672,2 21.733,2 H 42.266 C 44.329,2 46,3.679 46,5.75 Z" fill="#5b636b"/>
    <path d="M 20.8,6.489 V 27.114 H 43.2 V 6.489 H 20.8 M 42.267,26.176 H 21.733 v -5.625 h 20.533 v 5.625 m 0.001,-6.562 H 21.733 v -5.625 h 20.533 v 5.625 m 0.001,-6.563 H 21.733 V 7.426 h 20.533 v 5.625" fill="#181e2e"/>
    <path d="m 38.533,10.239 h 2.8 v 1.875 h -2.8 z" fill="#3e4347"/>
    <circle r="0.93800002" cy="11.176" cx="36.667" fill="#ff435e"/>
    <path d="m 21.733,32.27 h 15.866 v 3.75 H 21.733 Z" fill="#181e2e"/>
    <path d="M 21.733,41.18 H 42.266 V 59.93 H 21.733 Z" fill="#94989b"/>
    <path d="M 22.667,42.12 H 41.334 V 58.995 H 22.667 Z" fill="#181e2e"/>
    <g fill="#94989b">
      <path d="m 18,28.99 h 28 v 0.938 H 18 Z"/>
      <path d="m 18,38.37 h 28 v 0.938 H 18 Z"/>
    </g>
  </g>
  <g id="monitor" transform="matrix(0.72414167,0,0,0.72414167,8.8274665,0.74086736)">
    <path d="M 6,2 C 4,2 2,4 2,6 v 34 c 0,2 2,4 4,4 h 52 c 2,0 4,-2 4,-4 V 6 C 62,4 60,2 58,2 Z" fill="#212528"/>
    <path d="m 24,46 c 0,4 -4,4 -8,4 h 32 c -4,0 -8,0 -8,-4 V 44 H 24 v 2" fill="#bfbebe"/>
    <path d="M 6,6 H 58 V 40 H 6 Z" fill="#3e4347"/>
    <path d="m 16,50 h 32 v 4 H 16 Z" fill="#94989b"/>
  </g>
</svg>