<svg xmlns="http://www.w3.org/2000/svg" viewBox="0 0 64 64">
    <title>Fax Icon</title>
    <path fill="#b71c3a" d="M6.4 30.9h13.3V62H6.4z"/>
    <g fill="#ed4c5c">
        <path d="M61.2 42c-.2-1.2-1.5-2.2-2.7-2.2H16.6c-1.2 0-2.4 1-2.7 2.2-1.1 5.9-1.1 11.9 0 17.8.2 1.2 1.5 2.2 2.7 2.2h41.9c1.2 0 2.4-1 2.7-2.2 1.1-5.9 1.1-11.9 0-17.8M56.7 21.9c-.1-1.2-1.2-2.2-2.4-2.2H18.7c-1.2 0-2.3 1-2.4 2.2l-1.4 13.4H58l-1.3-13.4z"/>
    </g>
    <g fill="#b71c3a">
        <path d="M58 35.3H13.8l-.5 4.5h45.1zM33.6 53.1H17.1c-1 0-1.8-.8-1.8-1.9v-7.4c0-1 .8-1.9 1.8-1.9h16.5c1 0 1.8.8 1.8 1.9v7.4c-.1 1.1-.9 1.9-1.8 1.9m-16.5-9.9c-.3 0-.6.3-.6.6v7.4c0 .3.3.6.6.6h16.5c.3 0 .6-.3.6-.6v-7.4c0-.3-.3-.6-.6-.6H17.1"/>
    </g>
    <path fill="#c7e755" d="M27.6 46.4c0 .6-.5 1.1-1.1 1.1h-7.8c-.6 0-1.1-.5-1.1-1.1v-1.1c0-.6.5-1.1 1.1-1.1h7.8c.6 0 1.1.5 1.1 1.1v1.1"/>
    <g fill="#b71c3a">
        <path d="M33.1 47c0 .3-.2.6-.6.6h-3.3c-.3 0-.6-.2-.6-.6v-1.1c0-.3.2-.6.6-.6h3.3c.3 0 .6.2.6.6V47M55.2 43.7c0 .3-.2.6-.6.6h-3.3c-.3 0-.6-.2-.6-.6v-1.1c0-.3.2-.6.6-.6h3.3c.3 0 .6.2.6.6v1.1M22 50.3c0 .3-.2.6-.6.6h-3.3c-.3 0-.6-.2-.6-.6v-1.1c0-.3.2-.6.6-.6h3.3c.3 0 .6.2.6.6v1.1M33.1 50.3c0 .3-.2.6-.6.6h-3.3c-.3 0-.6-.2-.6-.6v-1.1c0-.3.2-.6.6-.6h3.3c.3 0 .6.2.6.6v1.1M27.6 50.3c0 .3-.2.6-.6.6h-3.3c-.3 0-.6-.2-.6-.6v-1.1c0-.3.2-.6.6-.6H27c.3 0 .6.2.6.6v1.1"/>
    </g>
    <g fill="#ff8736">
        <circle cx="32" cy="57.6" r="2.2"/>
        <path d="M59.7 53.1c0-1.2-1-2.2-2.2-2.2-.9 0-1.7.5-2 1.3-.1.1-.1.3-.1.4-.2.5-.6.5-1.2.5-1.8 0-3.3 1.5-3.3 3.3 0 1.8 1.5 3.3 3.3 3.3s3.3-1.5 3.3-3.3c0-.6 0-.9.5-1.2.1 0 .3-.1.4-.1.7-.3 1.3-1.1 1.3-2"/>
    </g>
    <circle cx="54.1" cy="56.4" r="2.2" fill="#c28fef"/>
    <g fill="#b71c3a">
        <circle cx="57.4" cy="53.1" r="1.1"/>
        <circle cx="53" cy="47.6" r="1.1"/>
        <path d="M56 39.8l-1.6-15.6C54.3 23 53.2 22 52 22H20.9c-1.2 0-2.3 1-2.4 2.2l-1.6 15.6H56"/>
    </g>
    <path fill="#f5f5f5" d="M19.8 2h33.3v33.3H19.8z"/>
    <path fill="#a4b3b2" d="M27.5 39.8l.6-6.2c.1-.9.9-1.6 1.8-1.6h12.9c.9 0 1.7.7 1.8 1.6l.6 6.2h1.1l-.6-6.3c-.1-1.4-1.4-2.6-2.9-2.6H30c-1.5 0-2.8 1.2-2.9 2.6l-.6 6.3h1"/>
    <path fill="#ed4c5c" d="M8.7 29c-1.5-.4-3-.4-4.5 0-1.3.3-2.2 2-2.2 3.2.3 8.3.3 16.7.1 25C2 59.8 3.9 62 6.4 62s4.5-2.2 4.4-4.8c-.2-8.3-.2-16.7.1-25 0-1.2-.9-2.9-2.2-3.2"/>
    <g fill="#a4b3b2">
        <path d="M22 6.4h28.9v2.2H22zM22 10.9h28.9v2.2H22zM22 15.3h28.9v2.2H22zM22 22h28.9v2.2H22zM22 26.4h14.4v2.2H22z"/>
    </g>
    <g fill="#b71c3a">
        <circle cx="17.6" cy="57.6" r="1.1"/>
        <circle cx="22" cy="57.6" r="1.1"/>
        <circle cx="26.4" cy="57.6" r="1.1"/>
        <circle cx="38.5" cy="56.6" r="1.1"/>
        <circle cx="43" cy="56.6" r="1.1"/>
        <circle cx="47.4" cy="56.6" r="1.1"/>
        <circle cx="38.5" cy="52.5" r="1.1"/>
        <circle cx="43" cy="52.5" r="1.1"/>
        <circle cx="47.4" cy="52.5" r="1.1"/>
        <circle cx="38.5" cy="48.4" r="1.1"/>
        <circle cx="43" cy="48.4" r="1.1"/>
        <circle cx="47.4" cy="48.4" r="1.1"/>
        <circle cx="38.5" cy="44.3" r="1.1"/>
        <circle cx="43" cy="44.3" r="1.1"/>
        <circle cx="47.4" cy="44.3" r="1.1"/>
    </g>
</svg>