<svg xmlns="http://www.w3.org/2000/svg" viewBox="0 0 64 64">
    <title>Two Button Mouse</title>
  <path fill="#94989b" d="M19 58.7h-2.4c0-3.2-2.9-8.2-5.1-11.8C8.1 41.5 2 33.7 2 23c0-6.3 2-11.2 6.8-13.2 3.9-1.6 8.1.1 10.8 2.8l-1.7 1.7c-2-2-5.2-3.5-8.2-2.3-3.9 1.6-5.3 5.7-5.3 11 0 9.9 5.8 17.1 9.2 22.6 2.4 4 5.4 9.3 5.4 13.1"/>
  <g fill="#bcc2cc">
    <path d="M13.2 14.5c-.8-.8-.9-1.8-.4-2.3l2.6-2.6c.5-.5 1.6-.3 2.3.4l-4.5 4.5M19.1 42.8C6 29.7 8.3 19.9 15.7 12.5c7.4-7.4 17.2-9.7 30.3 3.3 16.5 16.5 18.4 30.4 11 37.9-7.5 7.4-21.5 5.5-37.9-10.9"/>
  </g>
  <path fill="#d8dfeb" d="M 28.386719 5.1289062 C 25.646875 5.1230462 23.125 5.8867188 21.0625 7.0429688 C 19.146916 8.116857 16.969439 9.9896194 15.462891 11.455078 L 18.671875 14.664062 L 23.416016 19.410156 L 27.601562 23.595703 L 27.199219 24 C 28.699219 22.5 30.251563 20.932813 31.851562 19.632812 L 32.599609 19 C 36.199609 16.2 39.9 13.999609 44 12.599609 C 38.125 7.2871106 32.953125 5.1386719 28.386719 5.1289062 z M 14.804688 12.111328 C 13.331193 13.620979 12.035925 15.209044 11.099609 16.800781 C 7.5996082 23.100781 7.300782 31.399219 15.800781 40.699219 C 17.200781 36.699219 19.500781 32.900781 22.300781 29.300781 L 23 28.427734 C 24.239874 26.901735 25.576311 25.61753 26.998047 24.201172 L 23.152344 20.388672 L 19.816406 17.080078 L 14.804688 12.111328 z M 44.699219 13.199219 C 38.699219 15.799219 33.199609 19.800391 28.099609 24.900391 C 22.999609 29.900391 19 35.500391 16.5 41.400391 C 17.2 42.200391 18.000781 43.000781 18.800781 43.800781 C 35.300781 60.400781 49.7 61.999219 57.5 54.199219 C 65.3 46.399219 63.599609 32.1 47.099609 15.5 C 46.299609 14.7 45.499219 13.899219 44.699219 13.199219 z "/>
</svg>