<svg xmlns="http://www.w3.org/2000/svg" viewBox="0 0 64 64">
    <title>clamp</title>
    <path fill="#d0d0d0" d="M39.2 56.8h20.1v2.1H39.2z"/>
    <path fill="#3e4347" d="M46.5 44.8H52v4.5h-5.5z"/>
    <g fill="#94989b">
        <path d="M18.9 9.2h16.2c2 2.2 4 4.3 5.9 6.5.1.2.3.3.4.5.7.7 1.5 1.1 2.5 1.1h10.9c1.8 0 3.3-1.6 3.3-3.6S56.5 10 54.7 10h-9.6c-2-2.2-4-4.3-5.9-6.5-.1-.2-.3-.3-.4-.5-.7-.6-1.5-1-2.4-1H18.9c-1.8 0-3.3 1.6-3.3 3.6s1.5 3.6 3.3 3.6M54.7 37.6h-9.9c-1 0-1.9-.1-2.7.5-.6.4-1 1-1.5 1.5-1.4 1.6-2.9 3.1-4.3 4.7-.4.5-.9.9-1.3 1.4H18.8c-1.8 0-3.3 1.6-3.3 3.6s1.5 3.6 3.3 3.6h16.9c1.1 0 2.1-.1 3-1.1 2.1-2.3 4.3-4.6 6.4-7h9.6c1.8 0 3.3-1.6 3.3-3.6s-1.5-3.6-3.3-3.6"/>
    </g>
    <path fill="#d0d0d0" d="M43.8 17.3h11v20.3h-11z"/>
    <g fill="#3e4347">
        <path d="M54.7 20.6L43.8 24v-3.4l10.9-3.3zM54.7 27.4l-10.9 3.4v-3.4L54.7 24zM54.7 34.2l-10.9 3.4v-3.4l10.9-3.4z"/>
    </g>
    <path fill="#94989b" d="M54.7 60.6c0 .8-.6 1.4-1.3 1.4h-8.3c-.7 0-1.3-.6-1.3-1.4v-5.3c0-.8.6-1.4 1.3-1.4h8.3c.7 0 1.3.6 1.3 1.4v5.3"/>
    <g fill="#d0d0d0">
        <path d="M46.5 53.8h2.7V62h-2.7zM50.6 53.8H52V62h-1.4z"/>
    </g>
    <ellipse cx="39.2" cy="57.9" fill="#94989b" rx="2.7" ry="2.9"/>
    <ellipse cx="40" cy="56.8" fill="#d0d0d0" rx=".8" ry=".9"/>
    <ellipse cx="59.3" cy="57.9" fill="#94989b" rx="2.7" ry="2.9"/>
    <ellipse cx="60.3" cy="56.8" fill="#d0d0d0" rx=".8" ry=".9"/>
    <path fill="#94989b" d="M46.5 49.3H52v4.5h-5.5z"/>
    <!--path fill="#428bc1" d="M34.4 21.3V9.1s-18.4-2.2-25 0c-2 .6-5.5 4-5.5 6.1s3.6 5.5 5.5 6.1c6.6 2.2 25 0 25 0"/>
    <path fill="#ddeaf2" d="M34.4 20.1v-9.7s-17-1.7-23.2 0c-1.8.5-5.1 3.2-5.1 4.8s3.3 4.3 5.1 4.8c6.2 1.8 23.2.1 23.2.1"/>
    <path fill="#ed4c5c" d="M37.2 33.6V21.2s-23.1-2.1-29.7.1c-2 .6-5.5 4-5.5 6.1 0 2.1 3.6 5.5 5.5 6.1 6.6 2.2 29.7.1 29.7.1"/>
    <path fill="#ddeaf2" d="M37.2 32.1v-9.4s-21.7-1.6-27.8.1c-1.8.5-5.2 3.1-5.2 4.6 0 1.6 3.3 4.1 5.2 4.6 6.2 1.7 27.8.1 27.8.1"/>
    <path fill="#ffce31" d="M35.1 45.6V33.7s-16.3-2.3-22.9-.1c-2 .6-5.5 4-5.5 6.1s3.6 5.5 5.5 6.1c6.6 2.1 22.9-.2 22.9-.2"/>
    <path fill="#ddeaf2" d="M35.1 44.2V35s-14.9-1.8-21-.1c-1.8.5-5 3.1-5 4.7s3.3 4.2 5 4.7c6.1 1.7 21-.1 21-.1"/>
    <path fill="#94989b" d="M34.4 13.3l-18.1-.9h18.1zM34.4 17.1l-13.1.2 13.1-1.1zM37.2 25.4l-9.4-.5 9.4-.5zM37.2 28.5l-19.3 1.2 19.3-2.1zM35.1 39.2l-11.1-2 11.1 1.1zM35.1 41.6l-17.8.7 17.8-1.6z"/-->
</svg>