<svg xmlns="http://www.w3.org/2000/svg" viewBox="0 0 64 64">
    <title>spiral notepad</title>
    <path fill="#93a2aa" d="M60 58.2c0 2.1-1.7 3.7-3.9 3.7H10.8c-2.1 0-3.9-1.7-3.9-3.7V13.9c0-2.1 1.7-3.8 3.9-3.8h45.4c2.1 0 3.9 1.7 3.9 3.8v44.3z"/>
    <path fill="#f0f4f5" d="M57.1 58.2c0 2.1-1.7 3.7-3.9 3.7H7.9C5.7 62 4 60.3 4 58.2V13.9c0-2.1 1.7-3.8 3.9-3.8h45.4c2.1 0 3.9 1.7 3.9 3.8v44.3z"/>
    <path fill="#93a2aa" d="M52.3 56.4c-6.4 6.2-18 5.6-18 5.6s8.5-2.5 16.3-11.7c5.9-6.9 6.5-15.3 6.5-15.3s3.5 13.3-4.8 21.4"/>
    <g fill="#3e4347">
        <ellipse cx="13.1" cy="17" rx="2.9" ry="2.8"/>
        <ellipse cx="24.8" cy="17" rx="2.9" ry="2.8"/>
        <ellipse cx="36.3" cy="17" rx="2.9" ry="2.8"/>
        <ellipse cx="47.9" cy="17" rx="2.9" ry="2.8"/>
        <path d="M40.6 4.6C39.9 3.4 38.9 2.1 37 2c-1.8-.1-1.9 2.1-.1 2.2-.1 0 .4.3.3.2.4.4.6.9.9 1.4.6 1.4.8 2.9.8 4.4h2.9c-.1-1.9-.4-3.9-1.2-5.6m-3.7-.4c.1 0 .1 0 0 0M29 4.6c-.6-1.2-1.7-2.5-3.6-2.6-1.8-.1-1.9 2.1-.1 2.2-.1 0 .4.3.3.2.4.4.6.9.9 1.4.6 1.4.8 2.9.8 4.4h2.9c-.1-1.9-.3-3.9-1.2-5.6m-3.6-.4M17.4 4.6c-.6-1.2-1.7-2.5-3.6-2.6-1.8-.1-1.8 2.1 0 2.2-.1 0 .4.3.3.2.4.4.6.9.9 1.4.6 1.4.8 2.9.8 4.4h2.9c-.1-1.9-.4-3.9-1.3-5.6m-3.6-.4M52.1 4.6c-.6-1.2-1.7-2.5-3.6-2.6-1.8-.1-1.9 2.1-.1 2.2 0 0 .4.3.3.2.4.4.6.9.9 1.4.6 1.4.8 2.9.8 4.4h2.9c0-1.9-.3-3.9-1.2-5.6m-3.6-.4"/>
    </g>
    <g fill="#94989b">
        <path d="M36.3 16c-.3 0 .4.1 0 0 .3.1-.4-.3-.2-.2-.4-.4-.6-.9-.9-1.4-.6-1.4-.8-2.9-.8-4.4 0-1.5.2-3 .8-4.4.2-.5.4-.8.8-1.3 0-.1.1-.1.4-.3-.3.2 0 0 .1 0-.2.1-.2.1-.1 0h-.1c1.9-.1 1.9-2.3 0-2.2-1.9.1-2.9 1.4-3.6 2.6-.9 1.7-1.1 3.7-1.1 5.5 0 1.8.3 3.8 1.1 5.5.6 1.2 1.7 2.5 3.6 2.6 1.9.3 1.9-1.9 0-2M24.8 16c-.4 0 .3.1 0 0 .3.1-.4-.3-.2-.2-.4-.4-.6-.9-.9-1.4-.6-1.4-.8-2.9-.8-4.4 0-1.5.2-3 .8-4.4.2-.5.4-.8.8-1.3 0-.1.1-.1.4-.3-.3.2 0 0 .1 0-.2.1-.2.1-.1 0h-.1c1.9-.1 1.9-2.3 0-2.2-1.9.1-2.9 1.4-3.6 2.6-.9 1.7-1.1 3.7-1.1 5.5 0 1.8.3 3.8 1.1 5.5.6 1.2 1.7 2.5 3.6 2.6 1.8.3 1.8-1.9 0-2M13.2 16c-.3 0 .3.1 0 0 .3.1-.4-.3-.2-.2-.4-.4-.6-.9-.9-1.4-.6-1.4-.8-2.9-.8-4.4 0-1.5.2-3 .8-4.4.2-.5.4-.8.8-1.3 0-.1.1-.1.4-.3-.3.2 0 0 .1 0-.2.1-.2.1-.1 0h-.1c1.9-.1 1.9-2.3 0-2.2-1.9.1-2.9 1.4-3.6 2.6-.9 1.7-1.1 3.7-1.1 5.5 0 1.8.3 3.8 1.1 5.5.6 1.2 1.7 2.5 3.6 2.6 1.9.3 1.9-1.9 0-2M47.9 16c-.3 0 .3.1 0 0 .3.1-.4-.3-.2-.2-.4-.4-.6-.9-.9-1.4-.6-1.4-.8-2.9-.8-4.4 0-1.5.2-3 .8-4.4.2-.5.4-.8.8-1.3 0-.1.1-.1.4-.3-.3.2 0 0 .1 0-.2.1-.2.1-.1 0h-.1c1.9-.1 1.9-2.3 0-2.2-1.9.3-2.9 1.6-3.6 2.8-.9 1.7-1.1 3.7-1.1 5.5 0 1.8.3 3.8 1.1 5.5.6 1.2 1.7 2.5 3.6 2.6 1.9.1 1.9-2.1 0-2.2"/>
    </g>
    <g fill="#7d8b91">
        <path d="M8.7 25.2h42.9V28H8.7zM8.7 33.6h42.9v2.8H8.7zM8.7 41.9h42.9v2.8H8.7zM30.1 50.3h16.6v2.8H30.1z"/>
    </g>
    <path fill="#d7dadb" d="M57.1 35c0 12.9-9.6 27-22.8 27 0 0 5.4-3 5.4-13.9C54.8 48.1 57.1 35 57.1 35"/>
</svg>