<svg xmlns="http://www.w3.org/2000/svg" viewBox="0 0 64 64">
    <title>wastebasket</title>
    <path fill="#b1bcc4" d="M4.9 24.5l3.2 25.7C8.2 57.8 18.3 64 30.7 64c12.5 0 22.6-6.2 22.6-13.8l3.2-25.7H4.9"/>
    <g fill="#cad5dd">
        <path d="M9.1 24.5l2.7 25.7c0 7.6 8.5 13.8 18.9 13.8 10.5 0 18.9-6.2 18.9-13.8l2.7-25.7H9.1"/>
        <ellipse cx="30.7" cy="25.2" rx="25.8" ry="11.7"/>
    </g>
    <ellipse cx="30.7" cy="24.5" fill="#333" rx="21.1" ry="9.6"/>
    <path fill="#efd57f" d="M17.3 26.4c.4 3.3-4.9-3.7-6.5-1.6-.8 1.1 3.6 6.5 3.6 6.5l11-4.9s1-8.6-.5-7c-3.6 3.8-8.3 1.4-7.6 7"/>
    <path fill="#fee790" d="M22.8 26.4c-3.4-.5-2.4-6.2-5-5.5-3.5.9-.9 5.3-7.2 8.1 0 0 18.1 12.4 19.6-.1 0 .1-3-6.8-4.9-6.2-1.1.3-.2 4-2.5 3.7"/>
    <path fill="#efd57f" d="M33.3 25.7c-.3 3.3 8.5 9.5 8.5 9.5l11.8-9.6s-3.8-1.1-5-2.6c-.8-1.1-2-4.2-4.4-3.8-2.6.5-1.8 4.8-3.1 5.8-1.4 1.1-7.6-1.6-7.8.7"/>
    <path fill="#fee790" d="M48.9 20.4c-1.1-.9-14.1 8.3-14.2 8.6-.4 2.2 5.1 2 5.8 2-.8 4.2 13.5.1 13.8-2.2-1.1-2.5-3-3.6-5.8-3.4-.2 0 2.4-3.3.4-5"/>
    <path fill="#428bc1" d="M23.6 35.5c-.8 1.1 17.2-.6 17.4-.9 1.4-1.7-3.4-4.1-4-4.5 2.9-3.3.8-4.4-3.2-3.3.4-6.8-1.2-8.5-4.5 0-1.2-.6-5.4-.1-6.3 2.1-1.1 2.4 4.8 1 .6 6.6"/>
    <path fill="#42ade2" d="M27.3 21.8c-1.8.5-1.1 12.6 1.3 13.2-.2.3-2.5 2.8-1.5 3.6 1.6 1.4 8.9-4.7 8.6-6.5 6.8.8 9-.7.3-4.3.7-1 3.9-4.1 1.8-5.1-2.4-1.2-4.4 3.1-6.1 2.8-1.5-.3-1.9-4.4-4.4-3.7"/>
    <g fill="#b1bcc4">
        <path d="M51.7 32l-2 18.2c0 7.6-8.5 13.8-18.9 13.8 12.5 0 22.6-6.2 22.6-13.8l3-23.5c-.7 2-2.3 3.8-4.7 5.3M11.8 50.2L9.8 32c-2.4-1.5-4-3.3-4.6-5.2l3 23.5C8.2 57.8 18.3 64 30.7 64c-10.4 0-18.9-6.2-18.9-13.8"/>
    </g>
    <path fill="#cad5dd" d="M56.6 24.5c-.7-6.2-12-11.1-25.8-11.1-13.9 0-25.1 4.9-25.8 11.1V25.1c0 .5.1 1.1.2 1.6.6 1.9 2.2 3.7 4.6 5.3l2 18.2c0 7.6 8.5 13.8 18.9 13.8 10.5 0 18.9-6.2 18.9-13.8l2-18.2c2.4-1.5 4-3.3 4.6-5.2.2-.5.2-1.1.2-1.6v-.4l.2-.3m-25.9 9.6c-11.6 0-21.1-4.3-21.1-9.6S19.1 15 30.7 15c11.6 0 21.1 4.3 21.1 9.6s-9.4 9.5-21.1 9.5"/>
    <g fill="#7d8b91">
        <path d="M9.268 56.109l2.063-.392.299 1.571-2.063.392zM22.565 56.108l2.064-.391.298 1.572-2.063.39z"/>
        <path d="M13.7 52.6s4.1 3.8 11.2 4.7c0 0-.8 5.6-2.7 6.4-3.2 1.4-12-2.7-12.6-6-.4-1.7 4.1-5.1 4.1-5.1"/>
    </g>
    <path fill="#dfe9ef" d="M13.4 51s4.1 3.8 11.2 4.7c0 0-.8 5.6-2.7 6.4-3.2 1.4-12-2.7-12.6-6-.4-1.7 4.1-5.1 4.1-5.1"/>
    <path fill="#fff" d="M54.4 29.9c-1.3 1.7-3.1 3-4.9 4.2-1.9 1.1-3.9 2-5.9 2.6-4.1 1.3-8.5 1.8-12.8 1.8-4.3 0-8.6-.5-12.8-1.7-2.1-.6-4.1-1.5-6-2.6-1.8-1.1-3.6-2.5-4.8-4.3 1.5 1.5 3.4 2.6 5.2 3.4 1.9.9 3.9 1.5 5.9 1.9 4.1.9 8.2 1.2 12.4 1.2 4.2 0 8.3-.4 12.4-1.3 2-.5 4-1.1 5.9-2 1.9-.7 3.8-1.8 5.4-3.2"/>
    <path fill="#b1bcc4" d="M58.4 14.7l.6-3.6c.6-2.9-10.8-7.4-22.1-9.6-11.3-2.1-23.8-2.1-24.4.8l-1 3.5 46.9 8.9"/>
    <path fill="#cad5dd" d="M55.4 14.1l.6-3.6c.6-2.9-9.2-7.2-19.1-9C27.1-.4 16.2 0 15.5 2.9l-.9 3.5 40.8 7.7"/>
    <path fill="#7d8b91" d="M11.6 5.6c.5-2.4 11.4-2.4 24.4 0s23 6.4 22.5 8.8c-.5 2.4-11.5 2.4-24.4 0C21.1 12 11 8 11.6 5.6z"/>
    <path fill="#333" d="M15.8 6.6c.4-2 9.4-2 20 0s18.8 5.2 18.4 7.2c-.4 2-9.4 2-20 0-10.6-1.9-18.8-5.2-18.4-7.2"/>
</svg>