<svg xmlns="http://www.w3.org/2000/svg" viewBox="0 0 64 64">
    <title>Stock Chart</title>
  <rect x="0" y="0" width="64" height="64" fill="#fff"/>
  <path fill="#d0d5d8" d="M 0 0 L 0 4.0214844 A 2.1697085 2.1697085 0 0 1 1.7871094 4.9589844 L 2.1015625 5.4160156 L 2.1015625 2.0996094 L 15.5 2.0996094 L 15.5 15.5 L 9.03125 15.5 L 10.474609 17.599609 L 15.5 17.599609 L 15.5 24.912109 L 16.625 26.548828 L 17.5 25.279297 L 17.5 17.599609 L 22.791016 17.599609 L 24.238281 15.5 L 17.5 15.5 L 17.5 2.0996094 L 31 2.0996094 L 31 14.818359 L 33.384766 17.599609 L 40.726562 17.599609 L 42.369141 15.5 L 33 15.5 L 33 2.0996094 L 46.400391 2.0996094 L 46.400391 10.345703 L 48.400391 7.7890625 L 48.400391 2.0996094 L 61.701172 2.0996094 L 61.800781 2.0996094 L 61.800781 15.5 L 60.869141 15.5 A 2.1697085 2.1697085 0 0 1 60.410156 16.833984 L 59.8125 17.599609 L 61.800781 17.599609 L 61.800781 30.800781 L 49.519531 30.800781 L 46.400391 34.800781 L 46.400391 46.400391 L 33 46.400391 L 33 40.078125 L 31 37.775391 L 31 46.400391 L 21.126953 46.400391 L 19.683594 48.5 L 31 48.5 L 31 61.900391 L 17.5 61.900391 L 17.5 51.107422 A 2.1697085 2.1697085 0 0 1 15.5 50.978516 L 15.5 61.900391 L 10.5 61.900391 L 2.1015625 61.900391 L 2.1015625 48.5 L 13.556641 48.5 L 12.111328 46.400391 L 2.1015625 46.400391 L 2.1015625 39.546875 L 2.1015625 33.099609 L 2.9472656 33.099609 L 0 28.824219 L 0 30.800781 L 0 33.099609 L 0 46.400391 L 0 48.5 L 0 50.701172 L 0 61.900391 L 0 64 L 9 64 L 15.5 64 L 17.5 64 L 31 64 L 33 64 L 46.400391 64 L 48.400391 64 L 64 64 L 64 48.5 L 64 46.400391 L 64 33.099609 L 64 30.800781 L 64 17.599609 L 64 15.5 L 64 0 L 48.400391 0 L 46.400391 0 L 33 0 L 31 0 L 17.5 0 L 15.5 0 L 0 0 z M 48.400391 33.099609 L 61.800781 33.099609 L 61.800781 46.400391 L 48.400391 46.400391 L 48.400391 33.099609 z M 33 48.5 L 46.400391 48.5 L 46.400391 61.900391 L 33 61.900391 L 33 48.5 z M 48.400391 48.5 L 61.800781 48.5 L 61.800781 61.900391 L 48.5 61.900391 L 48.400391 61.900391 L 48.400391 48.5 z "/>
  <path fill="#a67acc" d="M 53.099609 5.3007812 L 37.300781 25.5 L 27.699219 14.300781 L 16.623047 30.375 L 6.4003906 15.5 L 0 6.1875 L 0 15.5 L 0 25 L 10.164062 39.75 L 16.623047 49.125 L 23.066406 39.75 L 28.599609 31.699219 L 37.800781 42.300781 L 58.699219 15.5 L 58.699219 5.3007812 L 53.099609 5.3007812 z "/>
</svg>