<svg xmlns="http://www.w3.org/2000/svg" viewBox="0 0 64 64">
    <title>smirking face: medium-dark skin tone</title>
    <path fill="#b47d56" d="M62 32c0 16.6-13.4 30-30 30S2 48.6 2 32 15.4 2 32 2s30 13.4 30 30z"/>
    <g fill="#3a2b1d">
        <path d="M53.9 30.8c-3.4-3.9-14-2.5-17.2 2.8-.2.4.4 1 1.1 1.4 2.1-1.5 4.6-2.3 7.2-2.5 0 2.8 2.2 5.1 5 5.1 4 0 5.9-4.5 3.9-6.8M26.6 30.8c-3.3-3.9-14-2.5-17.2 2.8-.2.4.4 1 1.1 1.4 2.1-1.5 4.6-2.3 7.2-2.5 0 2.8 2.2 5.1 5 5.1 3.9 0 5.8-4.5 3.9-6.8M25.8 51.8c5.8 1.4 15.1 0 19.8-3.5 1.2-.9-1.2-4-2.3-3.1-3.2 2.3-11.2 4.1-16.6 2.9-1.4-.4-2.4 3.3-.9 3.7"/>
    </g>
    <g fill="#6b451b">
        <path d="M53.2 24.6c-3.2-2.7-7.5-3.9-11.7-3.1-.6.1-1.1-2-.4-2.2 4.8-.9 9.8.5 13.5 3.6.6.5-1 2.1-1.4 1.7M22.5 21.4c-4.2-.7-8.5.4-11.7 3.1-.4.4-2-1.2-1.4-1.7 3.7-3.2 8.7-4.5 13.5-3.6.7.1.2 2.3-.4 2.2"/>
    </g>
</svg>