<svg xmlns="http://www.w3.org/2000/svg" viewBox="0 0 64 64">
    <title>winking face with tongue: medium-light skin tone</title>
	<circle cx="32" cy="32" r="30" fill="#fed0ac"/>
	<circle fill="#fff" cx="42.8" cy="24.6" r="10"/>
	<g fill="#604e37">
		<circle cx="42.8" cy="24.6" r="4.5"/>
		<path transform="translate(-23,0)" d="M51 29.1C49.1 25 46.3 23 43.5 23s-5.6 2-7.5 6.1c-.2.4.8 1.2 1.3.8 1.8-1.5 4-2.1 6.2-2.1s4.4.6 6.2 2.1c.5.4 1.5-.4 1.3-.8"/>
		<path d="M47.9 38H16.1c-.7 0-1.1.5-1.1 1 0 7.3 6 15 17 15s17-7.7 17-15c0-.5-.4-1-1.1-1"/>
	</g>
	<path fill="#fe6aa1" d="M41.2 44H32h-9.2c-.7 0-.8.3-.8.8v4C22 57.6 26.5 62 32 62s10-4.4 10-13.2v-4c0-.5-.1-.8-.8-.8"/>
	<path fill="#b86e5d" d="M33.5 44L32 57.8 30.5 44z"/>
</svg>