<svg xmlns="http://www.w3.org/2000/svg" viewBox="0 0 64 64">
    <title>disappointed face, broken heart</title>
	<defs>
		<clipPath id="heart">
			<path transform="scale(1,1.2) translate(0,-4)" d="    M61.1 19.1    C56.6 7 44.9 7.5 28.6, 14.5    c-6.4-6.4-23-7.6-26.2 7.8    C-1.5 40.6 29.7 51.9 35.3 55    v.1    h.2    V55    c8.3-5.5 31.3-20.5 25.6-35.9"/>
			<!--path transform="scale(1,1.25) translate(0,-4)" d="
			M61.1 18.2
			c-6.4-17-27.2-9.4-29.1-.9-2.6-9-22.9-15.7-29.1.9
			C-4 36.7 29.6 53.3 32 56
			c2.4-2.2 36-19.6 29.1-37.8"/-->
		</clipPath>
	</defs>
	<g clip-path="url(#heart)">
		<circle cx="32" cy="32" r="30" fill="#ffce31"/>
		<path transform="scale(1,1.2) translate(0,-4)" opacity="1.0" fill="#ff5a79" d="M61.1 19.1C56.6 7 44.9 7.5 37.9 11.7L32.6 23l10-.9-10.3 13.2 8.4-2.2L35.4 54l-1.6-14.1-11.9 2.5L31 28l-7.8-1.1 5.4-12.4c-6.4-6.4-23-7.6-26.2 7.8C-1.5 40.6 29.7 51.9 35.3 55v.1h.2V55c8.3-5.5 31.3-20.5 25.6-35.9"/>
		<g fill="#664e27">
			<path d="M25.5 28.4c1.4 2.9-.4 6.6-3.9 8.3-3.5 1.6-7.5.6-8.9-2.3-.8-1.9 12-7.9 12.8-6M38.5 28.4c-1.4 2.9.4 6.6 3.9 8.3 3.5 1.6 7.5.6 8.9-2.3.8-1.9-12-7.9-12.8-6"/>
		</g>
		<g fill="#917524">
			<path d="M22.7 19.8c-2.7 3.3-9.2 6.3-13.5 6.3-.6 0-.7 2.2 0 2.2 4.9 0 12-3.3 15.2-7.1.5-.5-1.3-1.8-1.7-1.4M41.3 19.8c2.7 3.3 9.2 6.3 13.5 6.3.6 0 .7 2.2 0 2.2-4.9 0-12-3.3-15.2-7.1-.5-.5 1.3-1.8 1.7-1.4"/>
		</g>
		<path fill="#664e27" d="M40.6 46.4c-5.4-2.5-11.8-2.5-17.2 0-1.3.6.3 4.2 1.7 3.5 3.6-1.7 8.9-2.3 13.9 0 1.3.6 3-2.8 1.6-3.5"/>
		<!--    <path transform="scale(1) translate(0,0)" id="heart" fill="#ff5a79" d="M61.1 19.1C56.6 7 44.9 7.5 37.9 11.7L32.6 23l10-.9-10.3 13.2 8.4-2.2L35.4 54l-1.6-14.1-11.9 2.5L31 28l-7.8-1.1 5.4-12.4c-6.4-6.4-23-7.6-26.2 7.8C-1.5 40.6 29.7 51.9 35.3 55v.1h.2V55c8.3-5.5 31.3-20.5 25.6-35.9"/>-->
	</g>
</svg>