<svg xmlns="http://www.w3.org/2000/svg" viewBox="0 0 64 64">
    <title>squinting face with tongue: medium skin tone</title>
    <circle cx="32" cy="32" r="30" fill="#d6a57c"/>
    <path fill="#4b3e2e" d="M47.9 38H16.1c-.7 0-1.1.5-1.1 1 0 7.3 6 15 17 15s17-7.7 17-15c0-.5-.4-1-1.1-1"/>
    <path fill="#ea5589" d="M41.2 44H32h-9.2c-.7 0-.8.3-.8.8v4C22 57.6 26.5 62 32 62s10-4.4 10-13.2v-4c0-.5-.1-.8-.8-.8"/>
    <path fill="#805c44" d="M33.5 44L32 57.8 30.5 44z"/>
    <g fill="#4b3e2e">
        <path d="M51.7 23.4c.6.3.3 1-.2 1.1-2.7.4-5.5.9-8.3 2.4 4 .7 7.2 2.7 9 4.8.4.5-.1 1.1-.5 1-4.8-1.7-9.7-2.7-15.8-2-.5 0-.9-.2-.8-.7 1.6-7.3 10.9-10 16.6-6.6M12.3 23.4c-.6.3-.3 1 .2 1.1 2.7.4 5.5.9 8.3 2.4-4 .7-7.2 2.7-9 4.8-.4.5.1 1.1.5 1 4.8-1.7 9.7-2.7 15.8-2 .5 0 .9-.2.8-.7-1.6-7.3-10.9-10-16.6-6.6"/>
    </g>
</svg>