<svg xmlns="http://www.w3.org/2000/svg" viewBox="0 0 64 64">
    <title>dizzy face: medium-light skin tone</title>
    <circle cx="32" cy="32" r="30" fill="#fed0ac"/>
    <g fill="#604e37">
        <path d="M28.6 19.8L16.5 32c-.8.8-3.6-2-2.8-2.8L25.9 17c.7-.7 3.5 2.1 2.7 2.8"/>
        <path d="M25.8 32L13.7 19.8c-.8-.8 2-3.6 2.8-2.8l12.2 12.2c.7.8-2.1 3.6-2.9 2.8M50.3 19.8L38.2 32c-.8.8-3.6-2-2.8-2.8L47.6 17c.7-.7 3.5 2.1 2.7 2.8"/>
        <path d="M47.5 32L35.4 19.8c-.8-.8 2-3.6 2.8-2.8l12.2 12.2c.7.8-2.1 3.6-2.9 2.8"/>
        <circle cx="32" cy="47" r="9"/>
    </g>
    <path fill="#fff" d="M26 44c1.2-2.4 3.4-4 6-4s4.8 1.6 6 4H26"/>
</svg>