<svg xmlns="http://www.w3.org/2000/svg" viewBox="0 0 64 64">
    <title>mountain railway</title>
	<g id="mountains" display="none">
		<path fill="#63686b" d="M2 15.8l11.8-5.3L22.7 2 26 8.7l5 3 2.9 4.1 2.9-2.9 2.9-1.5 1.6 4 2.3 1.4 3.4-4.4 1.7-.4 2.6-4.6 5.1 5.5 1.8 4.5 3.8 4.2v36.6H2z"/>
		<path fill="#c5d0d8" d="M22.7 2l.1 3.8L21 7.4l-.9 3.1 3-1.7 2-.6.9.5zM27.1 9.3l-.3 2.3-2.3 3.4-3.5 9.1 2.3-.3 1.2 3.2 1.8-2.7 1.6 1.4.9 6.4 2.7-2.5.4-4.2 1.5 4.2.7 4.3 1.6-8.5-1.8-9.6-2.9-4.1zM39.7 11.4l-.3 5-2.6 4-.6 6.9 3.5-5.4 1.2 3.5 3.1 6.3v-5.1l-.6-6.2.2-3.6-2.3-1.4zM51.3 7.4l1.4 4-1.1 1-.3 5.6-3.1 1.5v5.9l-1.4 5.4 2.9.9 1.9 2.6 2-.4 4 6.7-.6-4.2 2.4 1.4.5-4.8 2.1 4V21.6l-3.8-4.2-1.8-4.5zM10.4 30l1.6-8.1 7-5.3-1.7-.6 1-4.9-2.8 5.5-2.9 1.5 1.4-4-1.4.9.4-3.6-2.6 4.9-1 6.5-3.1-8.9L2 15.8v22z"/>
	</g>
	<g transform="rotate(-15 2,62) translate(4,0)">
		<g id="tracks">
			<path fill="#3e4347" d="M2 58.2h60v1.9H2z"/>
			<path fill="#89664c" d="M2 60.1h60V62H2z"/>
			<path fill="#dbb471" d="M39.5 60.1h3.8V62h-3.8zM32 60.1h3.8V62H32zM54.5 60.1h3.8V62h-3.8zM47 60.1h3.8V62H47zM9.5 60.1h3.8V62H9.5zM2 60.1h3.8V62H2zM24.5 60.1h3.8V62h-3.8zM17 60.1h3.8V62H17z"/>
		</g>
		<g id="car" transform="translate(0,-4)">
			<ellipse cx="11" cy="57.2" fill="#94989b" rx="4.7" ry="4.8"/>
			<path fill="#3e4347" d="M11 60.4c-1.7 0-3.1-1.4-3.1-3.2 0-1.7 1.4-3.2 3.1-3.2s3.1 1.4 3.1 3.2c0 1.8-1.4 3.2-3.1 3.2m0-4.7c-.9 0-1.6.7-1.6 1.6 0 .9.7 1.6 1.6 1.6s1.6-.7 1.6-1.6c0-.9-.7-1.6-1.6-1.6"/>
			<ellipse cx="21.4" cy="57.2" fill="#94989b" rx="4.7" ry="4.8"/>
			<path fill="#3e4347" d="M21.4 60.4c-1.7 0-3.1-1.4-3.1-3.2 0-1.7 1.4-3.2 3.1-3.2s3.1 1.4 3.1 3.2c0 1.8-1.4 3.2-3.1 3.2m0-4.7c-.9 0-1.6.7-1.6 1.6 0 .9.7 1.6 1.6 1.6s1.6-.7 1.6-1.6c-.1-.9-.8-1.6-1.6-1.6"/>
			<ellipse cx="42.6" cy="57.2" fill="#94989b" rx="4.7" ry="4.8"/>
			<path fill="#3e4347" d="M42.6 60.4c-1.7 0-3.1-1.4-3.1-3.2 0-1.7 1.4-3.2 3.1-3.2s3.1 1.4 3.1 3.2c0 1.8-1.4 3.2-3.1 3.2m0-4.7c-.9 0-1.6.7-1.6 1.6 0 .9.7 1.6 1.6 1.6s1.6-.7 1.6-1.6c0-.9-.7-1.6-1.6-1.6"/>
			<ellipse cx="53" cy="57.2" fill="#94989b" rx="4.7" ry="4.8"/>
			<path fill="#3e4347" d="M53 60.4c-1.7 0-3.1-1.4-3.1-3.2 0-1.7 1.4-3.2 3.1-3.2s3.1 1.4 3.1 3.2c0 1.8-1.4 3.2-3.1 3.2m0-4.7c-.9 0-1.6.7-1.6 1.6 0 .9.7 1.6 1.6 1.6.9 0 1.6-.7 1.6-1.6-.1-.9-.8-1.6-1.6-1.6"/>
			<path fill="#f2b200" d="M54.3 20H9.7c-3 0-5.4 2.5-5.4 5.5v31.7h55.4V25.5c0-3-2.4-5.5-5.4-5.5"/>
			<path fill="#699635" d="M54.3 20H9.7c-3 0-5.4 2.5-5.4 5.5v2.8h55.4v-2.8c0-3-2.4-5.5-5.4-5.5"/>
			<path fill="#ffe62e" d="M4.3 28.3h55.4v15.2H4.3z"/>
			<g fill="#3e4347">
				<path d="M3.7 54.5h.6v2.8h-.6z"/>
				<path d="M2 53.1h1.7v5.5H2zM59.7 54.5h.6v2.8h-.6z"/>
				<path d="M60.3 53.1H62v5.5h-1.7z"/>
			</g>
			<path fill="#89664c" d="M26 52.1h12l2.7-2.8h19v-2.8H39.5l-2.7 2.8h-9.6l-2.7-2.8H4.3v2.8h19z"/>
			<path fill="#3e4347" d="M56.6 39.6c0 .6-.5 1.1-1 1.1h-6c-.6 0-1-.5-1-1.1v-7.5c0-.6.5-1.1 1-1.1h6c.6 0 1 .5 1 1.1v7.5M46.3 39.6c0 .6-.5 1.1-1 1.1h-6c-.6 0-1-.5-1-1.1v-7.5c0-.6.5-1.1 1-1.1h6c.6 0 1 .5 1 1.1v7.5M36.1 39.6c0 .6-.5 1.1-1 1.1h-6c-.6 0-1-.5-1-1.1v-7.5c0-.6.5-1.1 1-1.1h6c.6 0 1 .5 1 1.1v7.5M25.8 39.6c0 .6-.5 1.1-1 1.1h-6c-.6 0-1-.5-1-1.1v-7.5c0-.6.5-1.1 1-1.1h6c.6 0 1 .5 1 1.1v7.5M15.5 39.6c0 .6-.5 1.1-1 1.1h-6c-.6 0-1-.5-1-1.1v-7.5c0-.6.5-1.1 1-1.1h6c.6 0 1 .5 1 1.1v7.5M4.3 53.1h55.4v4.1H4.3z"/>
			<path fill="#b4d7ee" d="M14.4 38.5c0 .5-.4.9-.9.9h-4c-.5 0-.9-.4-.9-.9v-5.2c0-.5.4-.9.9-.9h4c.5 0 .9.4.9.9v5.2M24.6 38.5c0 .5-.4.9-.9.9h-4c-.5 0-.9-.4-.9-.9v-5.2c0-.5.4-.9.9-.9h4c.5 0 .9.4.9.9v5.2M34.9 38.5c0 .5-.4.9-.9.9h-4c-.5 0-.9-.4-.9-.9v-5.2c0-.5.4-.9.9-.9h4c.5 0 .9.4.9.9v5.2M45.2 38.5c0 .5-.4.9-.9.9h-4c-.5 0-.9-.4-.9-.9v-5.2c0-.5.4-.9.9-.9h4c.5 0 .9.4.9.9v5.2M55.4 38.5c0 .5-.4.9-.9.9h-4c-.5 0-.9-.4-.9-.9v-5.2c0-.5.4-.9.9-.9h4c.5 0 .9.4.9.9v5.2"/>
		</g>
	</g>
	<g id="oldcar" display="none">
		<circle cx="27.1" cy="55.1" r="4.4" fill="#94989b"/>
		<path fill="#3e4347" d="M27.1 58.1c-1.6 0-2.9-1.3-2.9-2.9 0-1.6 1.3-2.9 2.9-2.9s2.9 1.3 2.9 2.9c0 1.5-1.3 2.9-2.9 2.9m0-4.4c-.8 0-1.5.7-1.5 1.5s.7 1.5 1.5 1.5 1.5-.7 1.5-1.5c0-.9-.7-1.5-1.5-1.5"/>
		<circle cx="36.9" cy="55.1" r="4.4" fill="#94989b"/>
		<path fill="#3e4347" d="M36.9 58.1c-1.6 0-2.9-1.3-2.9-2.9 0-1.6 1.3-2.9 2.9-2.9 1.6 0 2.9 1.3 2.9 2.9 0 1.5-1.3 2.9-2.9 2.9m0-4.4c-.8 0-1.5.7-1.5 1.5s.7 1.5 1.5 1.5 1.5-.7 1.5-1.5c-.1-.9-.7-1.5-1.5-1.5"/>
		<circle cx="57" cy="55.1" r="4.4" fill="#94989b"/>
		<path fill="#3e4347" d="M57 58.1c-1.6 0-2.9-1.3-2.9-2.9 0-1.6 1.3-2.9 2.9-2.9 1.6 0 2.9 1.3 2.9 2.9 0 1.5-1.3 2.9-2.9 2.9m0-4.4c-.8 0-1.5.7-1.5 1.5s.7 1.5 1.5 1.5 1.5-.7 1.5-1.5c-.1-.9-.7-1.5-1.5-1.5"/>
		<path fill="#f2b200" d="M62 20.7H25.9c-2.8 0-5.1 2.3-5.1 5.1v29.4H62V20.7z"/>
		<path fill="#699635" d="M62 20.7H25.9c-2.8 0-5.1 2.3-5.1 5.1v2.6H62v-7.7z"/>
		<path fill="#ffe62e" d="M20.7 28.3H62v14H20.7z"/>
		<g fill="#3e4347">
			<path d="M20.1 52.6h.6v2.6h-.6z"/>
			<path d="M18.6 51.3h1.6v5.1h-1.6z"/>
		</g>
		<path fill="#89664c" d="M41.3 50.3h11.3l2.5-2.5H62v-2.6h-7.9l-2.6 2.6h-9.2l-2.5-2.6H20.7v2.6h18z"/>
		<path fill="#3e4347" d="M60.5 38.8c0 .5-.4 1-1 1h-5.7c-.5 0-1-.4-1-1v-7c0-.5.4-1 1-1h5.7c.5 0 1 .4 1 1v7M50.8 38.8c0 .5-.4 1-1 1h-5.7c-.5 0-1-.4-1-1v-7c0-.5.4-1 1-1h5.7c.5 0 1 .4 1 1v7M41 38.8c0 .5-.4 1-1 1h-5.7c-.5 0-1-.4-1-1v-7c0-.5.4-1 1-1H40c.5 0 1 .4 1 1v7M31.3 38.8c0 .5-.4 1-1 1h-5.7c-.5 0-1-.4-1-1v-7c0-.5.4-1 1-1h5.7c.5 0 1 .4 1 1v7M20.7 51.3H62v3.8H20.7z"/>
		<path fill="#b4d7ee" d="M30.3 37.8c0 .5-.4.9-.9.9h-3.8c-.5 0-.9-.4-.9-.9v-4.9c0-.5.4-.9.9-.9h3.8c.5 0 .9.4.9.9v4.9M40 37.8c0 .5-.4.9-.9.9h-3.8c-.5 0-.9-.4-.9-.9v-4.9c0-.5.4-.9.9-.9h3.8c.5 0 .9.4.9.9v4.9M49.7 37.8c0 .5-.4.9-.9.9H45c-.5 0-.9-.4-.9-.9v-4.9c0-.5.4-.9.9-.9h3.8c.5 0 .9.4.9.9v4.9M59.4 37.8c0 .5-.4.9-.9.9h-3.8c-.5 0-.9-.4-.9-.9v-4.9c0-.5.4-.9.9-.9h3.8c.5 0 .9.4.9.9v4.9"/>
	</g>
</svg>