<svg xmlns="http://www.w3.org/2000/svg" viewBox="0 0 64 64">
    <title>police car</title>
    <path fill="#42ade2" d="M34.8 20.6h-2.6c-1.9 0-3.5-1.6-3.5-3.5s1.6-3.5 3.5-3.5h2.6v7"/>
    <path fill="#f15744" d="M38.9 13.6h2.6c1.9 0 3.5 1.6 3.5 3.5s-1.6 3.5-3.5 3.5h-2.6v-7"/>
    <path fill="#cbd1d6" d="M39.1 20.6v-7.4c0-1.2-1-2.2-2.2-2.2s-2.2 1-2.2 2.2v7.4H32v2.2h9.8v-2.2h-2.7"/>
    <path fill="#3e4347" d="M58.2 37.6L52.9 36c-1.1-.3-2.1-1.4-2.3-2.4l-2.2-9.2c-.2-1-1.3-1.9-2.4-1.9H27.7c-1.1 0-2.4 1-2.9 1.9l-5.3 9.4c-.5.9-1.8 1.9-2.8 2.2l-8.3 2.5c-1.1.3-2.2 1.8-2.5 2.8l.6 2-1.6 1.8-1 9.8h56.2V40.4c0-1.1-.9-2.5-1.9-2.8"/>
    <g fill="#b4d7ee">
        <path d="M35.8 33.7c0 .6.4 1 .9 1h7.7c.5 0 .8-.5.7-1l-1.3-7.4c-.1-.6-.6-1-1.1-1h-6c-.5 0-.9.5-.9 1v7.4M33.9 26.3c0-.6-.4-1-.9-1h-5.1c-.5 0-1.1.4-1.4.9l-3.8 7.6c-.2.5 0 .9.5.9h9.7c.5 0 .9-.5.9-1v-7.4z"/>
    </g>
    <path fill="#fff" d="M4.9 45.1h2.8c.5 0 1-.4 1.1-.9l.6-1.9c.2-.5-.1-.9-.5-.9h-3l-1 3.7"/>
    <path fill="#f15744" d="M60.1 41.3h-2.3c-.4 0-.8.4-.9.9 0 0-.4 1.4-.5 1.9-.1.5.1.9.4.9h3.3v-3.7"/>
    <g fill="#b2c1c0">
        <path d="M56 54.2c0 .7.5 1.2 1.2 1.2h3.6c.7 0 1.2-.5 1.2-1.2v-2.4c0-.7-.5-1.2-1.2-1.2h-3.6c-.7 0-1.2.5-1.2 1.2v2.4M2 54.2c0 .7.5 1.2 1.2 1.2h3.6c.7 0 1.2-.5 1.2-1.2v-2.4c0-.7-.5-1.2-1.2-1.2H3.2c-.7 0-1.2.5-1.2 1.2v2.4"/>
        <circle cx="52.2" cy="40.6" r="1.2"/>
    </g>
    <path fill="#e8e8e8" d="M44.6 38.2c0 4.7-6.6 7.1-6.6 13.8H26c0-6.7-6.6-8.9-6.6-13.8h25.2"/>
    <path fill="#dbb471" d="M32 40.6l1.1 3.4h3.6l-2.9 2.1 1.1 3.5-2.9-2.2-2.9 2.2 1.1-3.5-2.9-2.1h3.6z"/>
    <ellipse cx="17.1" cy="53.5" fill="#62727a" rx="8.4" ry="8.5"/>
    <ellipse cx="17.1" cy="53.5" fill="#e8e8e8" rx="4.8" ry="4.8"/>
    <g fill="#3e4347">
        <path d="M18.2 51.1c-.2.6-.7 1.2-1.1 1.2s-.9-.5-1.1-1.2V51c-.2-.6.3-1.2 1.2-1.2.7.1 1.2.6 1 1.3M15.6 51.3c.5.5.7 1.2.4 1.6-.2.4-.9.5-1.6.4h-.1c-.7-.1-.9-.9-.4-1.6.5-.7 1.2-.9 1.7-.4M14.4 53.7c.7-.1 1.4 0 1.6.4.2.4 0 1.1-.4 1.6l-.1.1c-.5.5-1.2.3-1.6-.4-.4-.8-.2-1.5.5-1.7M15.9 55.9c.2-.6.7-1.2 1.1-1.2s.9.5 1.1 1.2v.1c.2.6-.3 1.2-1.2 1.2-.7 0-1.2-.6-1-1.3M18.5 55.7c-.5-.5-.7-1.2-.4-1.6.2-.4.9-.5 1.6-.4h.1c.7.1.9.9.4 1.6-.4.8-1.1 1-1.7.4M19.7 53.3c-.7.1-1.4 0-1.6-.4-.2-.4 0-1.1.4-1.6l.1-.1c.5-.5 1.2-.3 1.6.4.4.8.2 1.6-.5 1.7"/>
    </g>
    <g fill="#e8e8e8">
        <path d="M19.7 56.9l-1.1.6-4.2-7.3 1.1-.6z"/>
        <path d="M12.8 52.9h8.4v1.2h-8.4z"/>
        <path d="M18.6 49.6l1.1.6-4.2 7.3-1.1-.6z"/>
    </g>
    <ellipse cx="46.9" cy="53.5" fill="#62727a" rx="8.4" ry="8.5"/>
    <ellipse cx="46.9" cy="53.5" fill="#e8e8e8" rx="4.8" ry="4.8"/>
    <g fill="#3e4347">
        <path d="M48.1 51.1c-.2.6-.7 1.2-1.1 1.2s-.9-.5-1.1-1.2V51c-.2-.6.3-1.2 1.2-1.2.7.1 1.2.6 1 1.3M45.5 51.3c.5.5.7 1.2.4 1.6-.2.4-.9.5-1.6.4h-.1c-.7-.1-.9-.9-.4-1.6.4-.7 1.1-.9 1.7-.4M44.3 53.7c.7-.1 1.4 0 1.6.4.2.4 0 1.1-.4 1.6l-.1.1c-.5.5-1.2.3-1.6-.4-.4-.8-.2-1.5.5-1.7M45.8 55.9c.2-.6.7-1.2 1.1-1.2s.9.5 1.1 1.2v.1c.2.6-.3 1.2-1.2 1.2-.7 0-1.2-.6-1-1.3M48.4 55.7c-.5-.5-.7-1.2-.4-1.6.2-.4.9-.5 1.6-.4h.1c.7.1.9.9.4 1.6-.5.8-1.2 1-1.7.4M49.6 53.3c-.7.1-1.4 0-1.6-.4-.2-.4 0-1.1.4-1.6l.1-.1c.5-.5 1.2-.3 1.6.4.4.8.2 1.6-.5 1.7"/>
    </g>
    <g fill="#e8e8e8">
        <path d="M49.6 56.9l-1.1.6-4.2-7.3 1.1-.6z"/>
        <path d="M42.7 52.9h8.4v1.2h-8.4z"/>
        <path d="M48.5 49.6l1.1.6-4.2 7.3-1.1-.6z"/>
    </g>
</svg>