<svg xmlns="http://www.w3.org/2000/svg" viewBox="0 0 64 64">
    <title>door</title>
    <path fill="#89664c" d="M3 29v32h58V29C61-10 3-9.4 3 29z"/>
    <path fill="#594640" d="M7.2 31.2V61h49.5V31.2C56.8-5 7.2-4.5 7.2 31.2z"/>
    <path fill="#a37d64" d="M8 31.7V61h48V31.7c0-35.8-48-35.2-48 0z"/>
    <path fill="#94989b" d="M0 61h64v3H0z"/>
    <g fill="#594640">
        <path d="M35.2 30.5h16.6c-.6-12.1-8.3-18.6-16.6-19.8v19.8M29.7 30.5V10.8c-8.3 1.2-16 7.9-16.6 19.7h16.6M35.2 36.1h16.7V56H35.2zM13 36.1h16.7V56H13z"/>
    </g>
    <g fill="#89664c">
        <path d="M34.8 30.1h16.6c-.6-12.1-8.3-18.6-16.6-19.8v19.8M29.2 30.1V10.4c-8.3 1.2-16 7.9-16.6 19.7h16.6M34.8 35.7h16.7v19.9H34.8zM12.5 35.7h16.7v19.9H12.5z"/>
    </g>
    <path fill="#ffce31" d="M47.5 28.9h7v14h-7z"/>
    <path fill="#f2b200" d="M48 29.4h6v13h-6z"/>
    <path fill="#3e4347" d="M52 41.2l-.4-2.7c.2-.2.4-.5.4-.8 0-.6-.4-1-1-1s-1 .4-1 1c0 .3.2.6.4.8l-.4 2.7h2"/>
    <circle cx="51" cy="33" r="2.9" fill="#b78300"/>
    <path fill="#ffd664" d="M53.8 32.5c0 1.6-1.3 2.9-2.9 2.9-1.6 0-2.9-1.3-2.9-2.9 0-1.6 1.3-2.9 2.9-2.9 1.6 0 2.9 1.3 2.9 2.9"/>
</svg>