<svg xmlns="http://www.w3.org/2000/svg" viewBox="0 0 64 64">
    <title>person biking: medium-dark skin tone</title>
    <path fill="#b47d56" d="M25.1 16.1l2.1-2.6 3.9 9.3-6.1 2.5z"/>
    <path fill="#935e3e" d="M22.8 22.1c2.2.4 2.2 3.2 2.2 3.2 2.5-1 2.2-6.6.9-9.6l-3.1 6.4"/>
    <path fill="#b47d56" d="M21.8 3.2l-9.2 8.2c-.3 3.1 1.2 4 1.6 5.1.2.5-.4 1.8-.8 2.4-.7 1.5 1.5 1.5 2.2 1.1.9.9-.2 2.1 2.8.1 0 0-2.7 2.8-.1 2.4.3 1.4 1.1 4 6.8-1.4 1.7-1.6 1-5.4 1-5.4l3.1-2-7.4-10.5"/>
    <path fill="#231f20" d="M13.8 5.4C19.9.1 25.3 2.2 26.7 3.5c3.6 3.6 4.1 9.1 2.3 14.1 0 0-1.8 0-2.9-1.9 0 0 2.1.1 1.3-4-.7-3.4-4.7-3.7-4.6 1.3l-.5.2c-1.8-1.8-1.3-5.2-4.1-5-2.5.2-5.6 3.8-5.6 3.8-1.3-1-1.3-4.4 1.2-6.6"/>
    <path fill="#664e27" d="M16.8 15.4c.3.7.1 1.4-.4 1.6-.5.2-.8-.3-1.1-1-.3-.7-.4-1.3.1-1.5.5-.1 1.1.2 1.4.9"/>
    <path fill="#935e3e" d="M24 13.5c-.6-1.3.1-2.9 1.2-3.4 0 0-1.2 2.3.1 4.3 0 0-.9 0-1.3-.9"/>
    <path fill="#664e27" d="M19.3 19.4s-.9 1.5-1.3 2c-.8.9-1 .6-.7 0 .3-.5 1-1.2 1-1.2l1-.8"/>
    <g fill="#3b946f">
        <path d="M25 24.3l-1.6 7.4 3.1.5.7-6.3z"/>
        <path d="M26.5 31.8c-.2-.8-1-1.3-1.9-1.1l-6 1.4.7 3 6-1.4c.9-.2 1.4-1.1 1.2-1.9"/>
    </g>
    <path fill="#935e3e" d="M19.4 33.5l-.2-1.5c-.1-.5-.6-.9-1.1-.8l-.7.1c-.4 0-.7.3-.8.7-1 .2-2.2.7-2 2.5 0 .3.2 1.9 2.2 1.7 2.9-.5 2.9-.5 2.6-2.7"/>
    <path fill="#d3976e" d="M29.9 49.4c-1.6.1-2.8 1.5-2.7 3.1l6.9-.5c.8-.1 1.4-.7 1.4-1.5l-.1-1.4-5.5.3"/>
    <g fill="#3e4347">
        <path d="M35.4 48.9l-5.5.5-.8-9.7 5.6-.4z"/>
        <path d="M34.8 41.5l-5.7-1.8 5.4-6.8 6.5 1.2z"/>
    </g>
    <g fill="#333">
        <path d="M13.8 62c-1.6 0-3.1-.3-4.6-.9-1.4-.6-2.7-1.4-3.7-2.5s-2-2.3-2.6-3.6c-.6-1.5-.9-3-.9-4.5 0-1.6.3-3.1.9-4.5.6-1.4 1.4-2.6 2.5-3.7s2.3-1.9 3.7-2.5c1.5-.6 3-.9 4.6-.9s3.1.3 4.6.9c1.4.6 2.7 1.4 3.7 2.5 1.1 1.1 1.9 2.3 2.5 3.7.6 1.4.9 2.9.9 4.5s-.3 3.1-.9 4.5c-.6 1.4-1.4 2.6-2.5 3.7s-2.3 1.9-3.7 2.5c-1.4.5-2.9.8-4.5.8m0-21.1c-5.4 0-9.7 4.3-9.7 9.5 0 5.3 4.4 9.5 9.7 9.5s9.7-4.3 9.7-9.5-4.4-9.5-9.7-9.5M50.2 62c-1.6 0-3.1-.3-4.6-.9-1.4-.6-2.7-1.4-3.7-2.5-1.1-1.1-1.9-2.3-2.5-3.7-.6-1.4-.9-2.9-.9-4.5s.3-3.1.9-4.5c.6-1.4 1.4-2.6 2.5-3.7s2.3-1.9 3.7-2.5c1.5-.6 3-.9 4.6-.9s3.1.3 4.6.9c1.4.6 2.7 1.4 3.7 2.5 1.1 1.1 1.9 2.3 2.5 3.7.6 1.4.9 2.9.9 4.5s-.3 3.1-.9 4.5c-.6 1.4-1.4 2.6-2.5 3.7s-2.3 1.9-3.7 2.5c-1.4.6-3 .9-4.6.9m0-21.1c-5.4 0-9.7 4.3-9.7 9.5 0 5.3 4.4 9.5 9.7 9.5s9.7-4.3 9.7-9.5c.1-5.2-4.3-9.5-9.7-9.5"/>
    </g>
    <path fill="#ed4c5c" d="M41.7 36.2l2.1-5.2-1.4-.5-2.1 5.1H18l-2.2-2.3-1.1 1 2.6 2.7h3.4v2.8l13.9 13.5L40.9 38l8.6 12.7 1.4-.6-9.2-13.9m-7.5 14.5L21.5 38.4l.6-1.5h17.6l-5.5 13.8"/>
    <ellipse cx="50.2" cy="50.5" fill="#333" rx="2.4" ry="2.3"/>
    <g fill="#94989b">
        <path d="M26.9 51.9h4v1.3h-4zM38.7 53.6h4v1.3h-4z"/>
    </g>
    <path fill="#b3b3b3" d="M30.7 52.3v.6l4 .5v-.6z"/>
    <ellipse cx="34.7" cy="53.7" fill="#333" rx="3.3" ry="3.2"/>
    <g fill="#b3b3b3">
        <ellipse cx="34.7" cy="53.7" rx=".8" ry=".8"/>
        <path d="M34.7 54l4 .5v-.6l-4-.6z"/>
    </g>
    <path fill="#d3976e" d="M38.6 51.9c-1.5.5-2.4 2.1-1.9 3.6l6.6-2.1c.8-.2 1.2-1 .9-1.8l-.4-1.3-5.2 1.6"/>
    <g fill="#3e4347">
        <path d="M43.8 50.2l-4.7 1.5-3.6-11.3 5.3-1.7z"/>
        <path d="M41.3 40.8l-5.8-.4 4.6-8.7 4.9 2.5z"/>
    </g>
    <path fill="#47b892" d="M46 28.5L34.5 33 25 24.3s2.4-4.9 3.7-5.1C38 17.4 46 28.5 46 28.5z"/>
    <path fill="#3e4347" d="M45 34.2l-10.2.6-.3-1.8 11.3-4.8c1.8 2.5-.8 6-.8 6"/>
    <g fill="#47b892">
        <path d="M25 24.3l-.3 7.4 3.1.1.3-5.9c0-.8-3.1-1.6-3.1-1.6"/>
        <path d="M27.7 31.4c-.3-.8-1.2-1.1-2-.8L20 32.7l1.1 2.8 5.7-2.2c.8-.2 1.2-1.1.9-1.9"/>
    </g>
    <path fill="#b47d56" d="M20.9 34.1l-.4-1.4c-.1-.5-.7-.8-1.2-.7l-.7.2c-.4.1-.6.4-.7.8-.9.3-2.1 1-1.6 2.7.1.3.5 1.9 2.4 1.3 2.8-.8 2.8-.8 2.2-2.9"/>
    <path fill="#ed4c5c" d="M14.2 51.2l-1.3-.8 8.3-14.5 1.4.8z"/>
    <ellipse cx="13.8" cy="50.5" fill="#333" rx="1.2" ry="1.2"/>
</svg>