<svg xmlns="http://www.w3.org/2000/svg" viewBox="0 0 64 64">
	<title>women’s room</title>
	<circle cx="32" cy="32" r="30" fill="#785aa0"/>
	<g fill="#fff">
		<path d="M36 23h-8c-1 0-2 1-2 2l-3 11h3l2-9v4l-2 9h2v11h3V40h2v11h3V40h2l-2-9v-4l2 9h3l-3-11c0-1-1-2-2-2M36 19c0 1-1 2-2 2h-4c-1 0-2-1-2-2v-4c0-1 1-2 2-2h4c1 0 2 1 2 2v4"/>
	</g>
	<g fill="#785aa0">
		<circle cx="30" cy="24" r="1"/>
		<circle cx="34" cy="24" r="1"/>
		<circle cx="31" cy="25" r="1"/>
		<circle cx="32" cy="25" r="1"/>
		<circle cx="33" cy="25" r="1"/>
	</g>
</svg>