<svg xmlns="http://www.w3.org/2000/svg" viewBox="0 0 64 64">
    <title>bed</title>
	<g id="frame" fill="#3e4347">
		<path d="M6 55c0 .5-.4 1-1 1H3c-.5 0-1-.5-1-1V13c0-.6.5-1 1-1h2c.6 0 1 .4 1 1v42"/>
		<path d="M5 55.3h4V62H5zM55 55.3h4V62h-4z"/>
		<path d="M62 49c0-.5-.4-1-1-1H3c-.5 0-1 .5-1 1v8c0 .5.5 1 1 1h58c.6 0 1-.5 1-1v-8"/>
	</g>
	<path id="sheet" fill="#b0bdc6" d="M6 40h20v8H6z"/>
	<path id="pillow" fill="#dae3ea" d="M23.5 39.9s-6.3 3.1-14.3.8c-2.5-.7-5.3.9-4.8-.3 1.7-3.6 2.2-11-.1-13.9-1.6-2.1 3.6-.6 4.5 2.7 2.7 9.8 14.7 6 14.7 10.7"/>
	<path id="blanket" fill="#ed4c5c" d="M 60,38 C 59.5,37.5 32.3,24.3 19.1,36.9 V 48 H 61 s 0.7,-8.1 -1,-10"/>
	<path fill="#a53838" d="M 23,48 H 19.1 V 36.9 c 5,-5 3.9,-2.5 3.9,0 z"/>
</svg>