<svg xmlns="http://www.w3.org/2000/svg" viewBox="0 0 64 64">
    <title>stop sign</title>
	<path fill="#e9edf2" d="M64 45.3L45.3 64H18.7L0 45.3V18.7L18.7 0h26.6L64 18.7z"/>
	<path fill="#ed4c5c" d="M58 42.8L42.8 58H21.2L6 42.8V21.2L21.2 6h21.6L58 21.2z"/>
	<g fill="#fff">
		<path id="stop" transform="translate(8,-14) scale(0.9)" d="   M 8 62 c -3.3 0-6-2.8-6-6.3 h 3 c 0 1.6 1.3 3 3 3 s 3-1.3 3-3-1.3-3-3-3 c -3.3 0-6-2.8-6-6.3 C 2 42.8 4.7 40 8 40 s 6 2.8 6 6.3 h -3 c 0-1.6-1.3-3-3-3 s -3 1.3-3 3 1.3 3 3 3 c 3.3 0 6 2.8 6 6.3 0 3.6-2.7 6.4-6 6.4 z   M 26 40 h-12 v 3 h 4.5 v 19 h 3 v -19 h 4.5 z   M 32 62 c -3.3 0-6-2.8-6-6.3 v -9.3 c 0-3.5 2.7-6.3 6-6.3 s 6 2.8 6 6.3 v 9.3 c 0 3.5-2.7 6.3-6 6.3 m 0,-18.6 c -1.7 0-3 1.3-3 3 v 9.3 c 0 1.6 1.3 3 3 3 s 3-1.3 3-3 v -9.3 c 0-1.7-1.3-3-3-3   M 46 40 h -6 v 22 h 3 v -9.3 h 3 c 3.3 0 6-2.8 6-6.3 0-3.6-2.7-6.4-6-6.4 m 0 9.3 h -3 v -5.9 h 3 c 1.7 0 3 1.3 3 3 s -1.3 2.9-3 2.9   "/>
	</g>
</svg>