<svg xmlns="http://www.w3.org/2000/svg" viewBox="0 0 64 64">
    <title>face with thermometer: light skin tone</title>
    <circle cx="32" cy="32" r="30" fill="#ffe1bd"/>
    <g fill="#635849">
        <circle cx="43.5" cy="30.3" r="5"/>
        <circle cx="20.5" cy="30.3" r="5"/>
    </g>
    <g fill="#91774f">
        <path d="M25.6 15.2c-3.2 2.7-7.5 3.9-11.7 3.1-.6-.1-1.1 2-.4 2.2 4.8.9 9.8-.5 13.5-3.6.5-.5-1-2.1-1.4-1.7M50.1 18.2c-4.2.7-8.5-.4-11.7-3.1-.4-.4-2 1.2-1.4 1.7 3.7 3.2 8.7 4.5 13.5 3.6.7-.2.2-2.3-.4-2.2"/>
    </g>
    <path fill="#e5e5e5" d="M4.4 38.7l24.2 14.2 4.6-6.5-21.4-18.1c-6.4-4.5-13.7 5.9-7.4 10.4"/>
    <path fill="#fff" d="M5.8 36.5l23.8 15 2.8-3.9-22.2-17.3c-3.7-2.6-8.1 3.6-4.4 6.2"/>
    <path fill="#ed4c5c" d="M7.5 36.2l22.1 14.4 1.9-2.6-21.1-16z"/>
    <ellipse cx="9" cy="34.1" fill="#a5203c" rx="2.6" ry=".9" transform="rotate(-54.808 8.95 34.089)"/>
    <g fill="#51575b">
        <path d="M18.1 41.5l-2 2.8-.9-.5 2-2.9zM20.5 43.2l-1.9 2.7-.9-.5 1.9-2.8zM23 44.9l-1.9 2.6-.8-.5 1.8-2.6zM25.4 46.6L23.8 49l-.9-.6 1.7-2.3zM27.9 48.3l-1.5 2.2-.9-.6 1.5-2.1z"/>
    </g>
    <path fill="#635849" d="M41.5 43.9c-6 .3-11.6 3.3-15.2 8-.9 1.2 2.2 3.5 3.1 2.3 2.4-3.1 6.8-6.2 12.3-6.5 1.4 0 1.3-3.8-.2-3.8"/>
</svg>