<svg xmlns="http://www.w3.org/2000/svg" viewBox="0 0 64 64">
    <title>person facepalming: light skin tone</title>
    <path fill="#594640" d="M33.6 2C52 2 62 13.4 62 28.3V62H5.3V28.3C5.3 6.1 20.6 6.5 20.6 6.5S21.8 2 33.6 2z"/>
    <path fill="#c28fef" d="M21 52.2h25.2V62H21z"/>
    <path fill="#ffe1bd" d="M54.1 44.8s4.1-1 4.1-7.1c0-4.8-3.1-5.6-3.1-5.6-19.1 0-29.3-9.4-29.3-9.4s-6.9 7.7-13.5 9.4c0 0-3.2.6-3.2 5.6 0 6.1 4.3 7.1 4.3 7.1 0 3.8 12.7 16.2 20.3 16.2 7.6.1 20.4-12.3 20.4-16.2"/>
    <ellipse cx="33.6" cy="55.2" fill="#664e27" rx="4" ry="3"/>
    <path d="M13.7 17.3s2.9 1.4 3.9 5.3c.6 2.3.9 2.4 2 3.2l6.2-12c.6-1.1 1.9-1.5 2.9-.9s1.4 1.9.8 3l.7-1.4c.7-1.3 2.3-1.8 3.5-1.1 1.2.7 1.7 2.2 1 3.5l-.5 1c.6-1.1 2-1.6 3-1 1.1.6 1.4 1.9.8 3.1l-1.2 2.3c.6-1 1.8-1.5 2.8-.9 1 .5 1.6 1.9 1 2.9-10.1 18.1-10.7 19.2-15.3 19.8 0 0-3.9 4.4-7 17.9l1.6-25.1-6.2-19.6" opacity=".3"/>
    <path fill="#b386e2" d="M23.9 42l-8.7-4.7S7.8 47.3 2 61.9h16.3c0 .1.1-11.2 5.6-19.9"/>
    <path fill="#ffe1bd" d="M11.4 17.3c1.5-1 3.9.3 4.8 4.2.6 2.3.7 3.2 1.8 4l7-12.8c1.8-3 4.9-1.1 3.5 1.9l-5.1 10 6.4-10.8c1.6-3 5.8-1.6 4.1 2l-6.2 10.7 6-9.2c2.1-3.2 5-.9 3.5 1.6l-5.1 9.7 4.8-7c1.6-2.5 4.3-.5 3 1.8 0 0-8 15.5-11.3 18-4.8 3.7-16.6-.9-15.7-11.1.2-2-.6-4-1-6.2-.3-2.8-2.2-5.7-.5-6.8"/>
    <path fill="#664e27" d="M38.4 40.8c2.7 5.1 8.2 5.1 10.9 0 .1-.3-.2-.4-.7-.7-2.7 2.1-7.2 2-9.6 0-.4.4-.8.5-.6.7"/>
</svg>