<svg xmlns="http://www.w3.org/2000/svg" viewBox="0 0 64 64">
    <title>person fencing: light skin tone</title>
    <path fill="#838e96" d="M25.7 25.6s5.5 1.8 5.5 6c2.9 0 .4-6-5.5-6"/>
    <path fill="#ffe1bd" d="M27 35.6s-1.9-.8-4-3l5-4.7c2 2 2.9 3.8 2.9 3.8L27 35.6"/>
    <path fill="#e6b796" d="M28.1 28s-.5 2.2-2.2 3.9c-1.4 1.4-.5 2.8-.5 2.8s-2-1.2-2.6-2.2c.1 0 4.3-4.4 5.3-4.5"/>
    <path fill="#e8e8e8" d="M21.8 26.4c-1.9 1.8-1.5 5.2-.4 6.3 1.1 1.2 2.6-.3 4.5-2.1s3.3-3.3 2.2-4.5c-1.2-1.2-4.5-1.5-6.3.3"/>
    <path fill="#b2c1c0" d="M24.8 25.1c-.4.5-1.1 1.7 0 1.8 1.5.2 3.9.4 2.1 2.6l-1 1c-1.9 1.8-3.4 3.3-4.5 2.1-1.1-1.2-1.5-4.5.4-6.3.8-.7 1.9-1.1 3-1.2"/>
    <path fill="#838e96" d="M24.2 27.3L2 6.5l21.9 21.9c.4-.4.5-.9.3-1.1"/>
    <path fill="#3e4347" d="M22.6 28.8L2 6.5l21.9 21.9c-.5.4-1.1.6-1.3.4"/>
    <path fill="#fff" d="M22.8 32.5c0 .2-.7.4-1.1 0C20 30.9 21 28 21 28s-.4 2.8 1.1 4.2c.2.2.7.2.7.3"/>
    <g fill="#e8e8e8">
        <path d="M30.5 30.8c4.3 3.2 5.8 2.5 7.5 4.1 2.1-4.5 5.4-6.3 5.4-6.3 1-5 5.6-5.6 5.6-5.6l-1.6 11.7s-5.3 7-9.9 7c-1.2 0-11.9-6.4-11.9-6.4 4.2-1.4 4.9-4.5 4.9-4.5M58.8 23.6s-.1-2 1.7-5c2-3.4 4.3-16-8.4-16v21h6.7"/>
    </g>
    <path fill="#b2c1c0" d="M45.1 12.3c0 5.7 3.6 10.3 6.4 10.3 2.8 0 5.1-4.6 5.1-10.3 0-5.7-2.1-10.3-5-10.3-2.8 0-6.5 4.6-6.5 10.3"/>
    <path fill="#3e4347" d="M44.5 12.3c0 5 2.9 9 5.1 9s3.8-4 3.8-9-1.7-9-3.8-9-5.1 4-5.1 9"/>
    <g fill="#b2c1c0">
        <path d="M50 11.8l1.3 1.8-1.3 1.8-1.2-1.8zM50.3 18.3l-.9 1.3-.9-1.3.9-1.2zM47.1 16l-.7.9-.6-.9.6-.9zM48.2 16l-.7-.9.7-.9.6.9zM50.9 9.9l-.6.9-.6-.9.6-.9zM50 6.6l.7-1 .6 1-.6.9zM48.2 5l.6-1 .6 1-.6.9zM51.8 11.4l.6.9-.6.9-.7-.9zM51.9 17.2l-.6.9-.6-.9.6-.9zM46.9 12l.6-.9.7.9-.7.9zM46.8 9.9l-.4-.7.4-.6.5.6zM46.7 6.3l.5-.7.4.7-.4.6zM45.4 13.5l.4-.6.5.6-.5.7zM47.7 18.3l-.4.7-.5-.7.5-.6zM47.4 8.3l.9-1.4 1 1.4-1 1.3z"/>
    </g>
    <path fill="#e8e8e8" d="M53.9 62H42.1s.8-5.6 6.9-13c0 0 7.4-14.1 7.4-28.3 0 0 3.7.6 5.6 2.7v38.2C60.3 60 59 58 59 58l-2.1-.2c-.1-.1-.8 2-3 4.2"/>
    <path fill="#b2c1c0" d="M46.4 23.6c3.6-3.8 12.1-.6 13.9.8 0 0-1.6 9.2 1.7 20.7v6.8c-1.4 1-3.3 4.1-3 6.2-.7 0-1.4 0-2.1-.2-5.2-4.5-8-8.8-8-8.8-4.6-11.5-6.1-21.7-2.5-25.5"/>
</svg>