<svg xmlns="http://www.w3.org/2000/svg" viewBox="0 0 64 64">
    <title>croissant</title>
    <path fill="#fbbf67" d="M52.4 5.1c7.9-.8 15.2 8 3.4 14-7.9 4-15.1 9.2-21.3 15.3l-17-16.9C24.9 10.3 36 6.8 52.4 5.1"/>
    <path fill="#d99634" d="M5.1 52.4c1.4-16.7 5-27.7 12.4-34.9l17 16.9c-6.2 6.2-11.4 13.4-15.4 21.3-6 12-14.7 4.5-14-3.3"/>
    <path fill="#ffebb8" d="M53.3 9c-12.7.2-22.6 1.7-30.4 5 7-4.1 16.2-6.4 28.3-7.8 4.3-.5 8.5 2 9.3 5.3-1.8-1.5-4.4-2.6-7.2-2.5"/>
    <path fill="#d99634" d="M11.7 54.7c4.3 1.8 8.6 1 9.8-1.5 6.4-13 16.9-23.5 30-29.9 2.5-1.3 3.3-5.6 1.5-9.8-.5-1.1-1-2.3-1.5-3.4-1.8-4.3-6.1-6.6-9.5-4.9C25.2 13.4 11.7 27 3.4 43.8c-1.7 3.4.7 7.8 4.9 9.5 1.1.5 2.3 1 3.4 1.4"/>
    <path fill="#fbbf67" d="M10.3 52.1c4.1 1.6 8.3.7 9.6-1.8 6.8-13 17.4-23.6 30.4-30.3 2.5-1.3 3.4-5.5 1.8-9.6-.4-1.1-.9-2.2-1.3-3.3C49.2 3 45.1.9 41.7 2.6 25 11.3 11.3 25 2.6 41.7.9 45 3 49.2 7.1 50.8c1.1.4 2.2.8 3.2 1.3"/>
    <path fill="#ffebb8" d="M42.2 7.2c-8.2 3.3-15.8 7.7-22.8 13 6.4-6.3 13.8-11.6 21.8-15.7 3.4-1.7 7.7.5 9.4 4.7l.9 2.1c-2-3.6-5.9-5.5-9.3-4.1"/>
    <path fill="#fbbf67" d="M16.7 45.5c4 1.5 8.3.1 10.1-2.9 3.9-6.5 9.4-12 15.9-15.9 3-1.8 4.4-6.1 2.9-10.1-1.3-3.1-2.6-6.3-3.9-9.4-1.5-4-7.2-5.5-12.1-2.6-10.3 6.2-18.8 14.7-24.9 24.9-2.9 4.9-1.4 10.6 2.6 12.1 3.1 1.3 6.2 2.6 9.4 3.9"/>
    <path fill="#d99634" d="M17.9 48.4c4.2 1.6 8.6.1 10.3-3C31.9 38.7 37.3 33 43.8 29c3-1.9 4.3-6.3 2.5-10.4-1.5-3.2-3-6.5-4.5-9.7-1.8-4.1-7.7-5.6-12.7-2.6-10.3 6.2-18.7 15-24.5 25.6C1.9 37 3.8 42.8 8 44.4c3.3 1.3 6.6 2.7 9.9 4"/>
    <path fill="#fbbf67" d="M16.4 45.2c4 1.5 8.3.1 10.1-2.9 3.9-6.5 9.4-12 15.9-15.9 3-1.8 4.4-6.1 2.9-10.1-1.3-3.1-2.6-6.3-3.9-9.4-1.5-4-7.2-5.5-12.1-2.6C19 10.5 10.5 19 4.4 29.2c-3 5-1.4 10.6 2.5 12.1 3.2 1.3 6.3 2.6 9.5 3.9"/>
    <path fill="#ffebb8" d="M43.4 19c-1.4-2.8-2.7-5.7-4.1-8.5-1.6-3.6-6.9-4.8-11.2-1.9-9 5.9-16.4 14-21.5 23.5-1 2-1.3 4-1 5.8-1.3-2.3-1.3-5.6.5-8.7 5.6-9.5 13.6-17.4 23-23 4.6-2.7 9.8-1.3 11.2 2.4l3.6 8.7c.7 1.9.7 3.9.2 5.6.1-1.2-.1-2.6-.7-3.9"/>
    <path fill="#d99634" d="M27.9 30.9c3.7 3.7.1-24.6-5-23.4-5.8 1.3-14.2 9.7-15.5 15.4-1.1 5.1 10.9-1.6 20.5 8"/>
    <path fill="#fbbf67" d="M26.1 27.9c5.6 5.6 1.1-23.7-3.9-22.4C16.6 7 8 15.5 6.5 21.2c-1.3 5 10.3-2.6 19.6 6.7"/>
    <g fill="#ffebb8">
        <path d="M20.6 10.8c-3.6 1-8.4 6.7-10.6 10.6-.3-.6-.5-1.2-.3-1.8C10.8 15.4 17.2 9 21.4 7.9c3.7-1 6 9.6 6.1 14.7-1.5-4.5-3.8-12.6-6.9-11.8"/>
        <path d="M18.56 17.803l.92-.918.918.92-.92.918zM21.56 17.508l.92-.919.92.92-.92.919zM9.142 31.498l.92-.92.918.92-.92.92zM7.829 35.338l.919-.92.92.92-.92.92zM3.11 44.566l.918-.92.92.92-.919.919zM4.018 47.067l.92-.918.918.92-.92.918z"/>
    </g>
    <g fill="#fbbf67">
        <path d="M10.416 57.058l.92-.92.918.92-.92.92zM9.09 58.819l.92-.92.92.92-.92.919z"/>
    </g>
    <g fill="#ffebb8">
        <path d="M34.811 9.775l.92-.92.918.92-.919.919zM36.677 14.06l.919-.92.919.92-.92.92zM49.07 13.135l.92-.92.92.92-.92.92zM48.144 10.14l.92-.92.919.92-.92.919zM47.2 12.151l.92-.919.92.92-.92.919zM57.292 12.133l.92-.919.918.92-.92.919zM56.414 14.416l.92-.92.919.92-.92.92zM19.375 14.882l1.344-1.344 1.343 1.344-1.344 1.344zM9.54 37.178l1.343-1.344 1.343 1.344-1.343 1.343z"/>
    </g>
    <path fill="#fbbf67" d="M7.678 55.697l1.344-1.343 1.343 1.344-1.344 1.343z"/>
</svg>