<svg xmlns="http://www.w3.org/2000/svg" viewBox="0 0 64 64">
    <title>peanuts</title>
    <path fill="#ffc294" d="M42.6 40.2c4-4.6 8.5-4.5 13.6-9.6 6.6-6.6 7.7-16.3 3-22.7-.1-1.6-.4-3.9-1-4.8-.3-.4-1.3-1.2-1.8-1.1-.6.1-1.4.9-2 1.7-6.4-3.3-15-1.9-20.9 4.1-5.1 5.1-4.5 10.1-9.1 14.1-5.6 4.9-11.3 2.1-16.8 7.6C.3 36.8.5 48.7 8 56.2s19.5 7.6 26.8.4c5.3-5.5 2.8-10.7 7.8-16.4"/>
    <path fill="#dba780" d="M56.3 2.5c-.6 0-1.7 1.6-1.7 1.6l3.1 2.6s.3-1.6-.1-2.7c-.3-1-1.1-1.5-1.3-1.5"/>
    <g fill="#e8b188">
        <path d="M42 3.9c-.2.2 1.6 1.2 2.3 1.2 1.2.1 4.8-1.5 4.5-1.8-.8-.7-5.4-.8-6.8.6M39.2 5.1c.8-.1 3 .6 3.1 1.1.1.4-3.6 4.1-4.4 4.4-.8.3-3.6-1.5-3.5-1.9.2-.7 3.3-3.4 4.8-3.6"/>
    </g>
    <g fill="#dba780">
        <path d="M32.3 10.4c.5-.3 3.9 1.1 3.9 1.7 0 .5-3.6 4.8-4.2 4.8-.7 0-2-.7-2.2-1.4-.2-.4 1.9-4.7 2.5-5.1M28.9 17.4c-.5.2-2.5 3.5-2.6 3.9-.1.7 1.3 1.7 2 1.6.4 0 3.2-3.3 3.3-3.9.1-.6-2-1.9-2.7-1.6"/>
    </g>
    <g fill="#e8b188">
        <path d="M22.4 27.6c.6 0 3.5-2.4 3.8-2.7.4-.6-.5-1.9-1.2-2-.4-.1-4.1 2.1-4.4 2.5-.4.4 1.1 2.2 1.8 2.2M14.4 31c.7.1 4.7-2.1 5-2.5.6-.6-.2-2.4-1-2.7-.4-.2-5.3 1.6-5.7 2-.6.6.7 3 1.7 3.2"/>
    </g>
    <path fill="#dba780" d="M8.5 36c.7-.1 3.9-3.4 4-3.9.3-.8-1.5-2.9-2.4-3-.4-.1-3.8 3.6-4.1 4.2-.3.6 1.5 2.8 2.5 2.7"/>
    <g fill="#cf9d78">
        <path d="M7.1 38.6c.2-.6-1.5-2.7-2.2-3-.4-.1-1.7 4.6-1.6 5.4 0 .6 1.2 1.9 2 2 .6 0 1.7-4.1 1.8-4.4M5 45.1c.1-.5-1.2-1.8-1.8-2-.4-.1.4 6 1 6 .5 0 .7-3.7.8-4M8.2 49.7c.1-.5-1.3-3-2-3-.8 0-1.1 4.4-.1 5.4.8.9 2-2.1 2.1-2.4M8.4 40.1c-1-.1-2.1 4-1.9 4.5.1.3 2.2 3.2 2.5 3.3.6.1 2.7-3.3 2.6-3.8-.2-.8-2.5-3.9-3.2-4"/>
    </g>
    <g fill="#e8b188">
        <path d="M23.2 33c.1-1-2.3-3.8-2.7-3.6-.3.1-5 2.8-5.1 3.2-.1.6 2.5 3.9 3 3.8.8-.2 4.7-2.7 4.8-3.4M29.8 28.3c.1-1-2-2.7-2.4-2.4-.4.1-4.5 2.8-4.6 3.1-.1.6 1.8 3.3 2.3 3.2.9-.2 4.6-3.1 4.7-3.9"/>
    </g>
    <g fill="#dba780">
        <path d="M35.9 22.6c.1-1-2.7-3-3.2-2.7-.3.1-3.5 3.9-3.6 4.2-.1.6 1.8 3 2.3 2.9.9-.2 4.5-3.6 4.5-4.4M41.1 16c.1-1-3.2-3.1-3.7-2.9-.3.1-3.6 4.6-3.7 4.9-.1.6 2.6 2.9 3.1 2.8.9-.1 4.3-4 4.3-4.8"/>
    </g>
    <g fill="#e8b188">
        <path d="M47.5 10c.1-1-3.1-3.1-3.6-2.8-.3.1-4.4 4-4.5 4.3-.1.6 2.8 3 3.4 2.9.8-.2 4.6-3.7 4.7-4.4M53.5 5.2c.1-1-2.4-1.7-2.8-1.5-.3.1-4.5 2.1-4.5 2.4-.1.6 2.5 2.9 3 2.8.7-.1 4.2-2.9 4.3-3.7"/>
    </g>
    <g fill="#dba780">
        <path d="M13.8 33.5c-1-.1-4.4 3.6-4.4 4.5 0 .7 2.4 3.8 3.3 3.9.6.1 4.1-3.3 4.1-4.4-.1-.9-2.3-4-3-4M60.2 22.1c-.2.2-1.2-1.6-1.2-2.3-.1-1.2 1.5-4.8 1.8-4.5.7.8.8 5.4-.6 6.8M59 24.8c.1-.8-.6-3-1.1-3.1-.5-.1-4.1 3.6-4.4 4.4-.3.8 1.5 3.6 1.9 3.5.7-.1 3.4-3.3 3.6-4.8"/>
    </g>
    <g fill="#cf9d78">
        <path d="M53.7 31.8c.3-.5-1.1-3.8-1.7-3.9-.5 0-4.9 3.6-4.8 4.2 0 .7.7 2 1.4 2.2.4.1 4.7-2 5.1-2.5M46.7 35.2c-.2.5-3.5 2.5-3.9 2.6-.7.1-1.7-1.3-1.6-2 0-.4 3.3-3.2 3.9-3.3.5-.2 1.9 1.9 1.6 2.7"/>
    </g>
    <g fill="#dba780">
        <path d="M36.5 41.6c0-.6 2.4-3.5 2.7-3.7.6-.4 1.9.5 2 1.2.1.4-2.1 4.1-2.5 4.4-.4.3-2.3-1.1-2.2-1.9M33.1 49.6c-.1-.7 2.1-4.7 2.5-5 .6-.6 2.4.2 2.7 1 .2.4-1.6 5.3-2.1 5.7-.5.6-3-.7-3.1-1.7"/>
    </g>
    <g fill="#cf9d78">
        <path d="M28.1 55.5c.1-.7 3.4-3.9 3.9-4 .8-.3 2.9 1.5 3 2.4.1.5-3.6 3.9-4.2 4.2-.7.2-2.8-1.7-2.7-2.6M25.5 56.8c.7-.2 2.7 1.5 3 2.2.1.4-4.6 1.6-5.4 1.6-.6 0-2-1.2-2-2-.1-.5 4-1.7 4.4-1.8M18.9 59c.5-.1 1.8 1.2 2 1.8.1.4-6-.4-6-1 0-.5 3.7-.7 4-.8M14.3 55.8c.5-.1 3 1.3 3 2 0 .8-4.4 1.1-5.4.1-.9-.9 2.1-2 2.4-2.1M23.9 55.6c.1 1-4.1 2.1-4.5 1.9-.3-.1-3.2-2.2-3.3-2.5-.1-.6 3.3-2.7 3.8-2.6.9.2 4 2.4 4 3.2"/>
    </g>
    <g fill="#dba780">
        <path d="M31.1 40.8c1-.1 3.8 2.3 3.6 2.7-.1.3-2.9 5-3.2 5.1-.6.1-3.9-2.5-3.8-3 .1-.8 2.6-4.7 3.4-4.8M35.7 34.3c1-.1 2.7 2 2.4 2.4-.1.3-2.7 4.4-3.1 4.5-.6.1-3.3-1.8-3.2-2.3.2-.9 3.2-4.6 3.9-4.6"/>
    </g>
    <g fill="#cf9d78">
        <path d="M41.4 28.1c1-.1 3 2.7 2.8 3.2-.1.3-3.9 3.5-4.2 3.6-.6.1-3-1.8-2.9-2.3.2-.9 3.6-4.4 4.3-4.5M48 22.9c1-.1 3.1 3.2 2.9 3.7-.1.3-4.6 3.6-4.9 3.7-.6.1-2.9-2.6-2.8-3.1.2-.9 4.1-4.2 4.8-4.3"/>
    </g>
    <g fill="#dba780">
        <path d="M54.1 16.6c1-.1 3.1 3.1 2.8 3.6-.1.3-4 4.4-4.3 4.5-.6.1-3-2.8-2.9-3.4.2-.8 3.7-4.7 4.4-4.7M58.9 10.6c1-.1 1.7 2.4 1.5 2.8-.1.3-2.1 4.5-2.4 4.5-.6.1-2.9-2.5-2.8-3 .1-.8 3-4.2 3.7-4.3"/>
    </g>
    <g fill="#cf9d78">
        <path d="M30.6 50.2c.1 1-3.6 4.4-4.5 4.4-.7 0-3.8-2.4-3.9-3.3-.1-.6 3.3-4.1 4.4-4 .8 0 3.9 2.2 4 2.9M9.4 51c-1-.1-2 2.7-1.8 3.2.1.3 1.9 2.2 2.2 2.2.6.1 3.1-1.4 3-2-.1-.9-2.6-3.4-3.4-3.4M13.3 45.9c-1.3-.1-3.3 3.2-3 3.8.2.4 3.5 3.8 3.9 3.9.9.2 3.7-2.1 3.6-3.2-.1-1.1-3.5-4.4-4.5-4.5"/>
    </g>
    <g fill="#e8b188">
        <path d="M25.3 43.6c1.5 0 3.9-3.8 3.6-4.5-.2-.5-3.8-4.2-4.3-4.3-1-.2-4.4 2.5-4.3 3.8 0 1.3 3.8 5 5 5M30.3 37.1c1.2-.2 3.9-3.8 3.7-4.4-.1-.4-2.6-3-3-3-.8 0-4.1 2.8-4.2 3.9-.1 1.1 2.5 3.6 3.5 3.5"/>
    </g>
    <g fill="#dba780">
        <path d="M36 31.4c1.4-.3 4.4-4.4 4.3-5-.1-.4-2.6-3-3-3-.9.1-4.6 3.3-4.8 4.5-.2 1.2 2.4 3.7 3.5 3.5M42.6 17.4c-1.4.3-4.4 4.4-4.3 5 .1.4 2.8 3.3 3.3 3.3.9 0 4.7-3.2 4.8-4.5.1-1.2-2.8-4-3.8-3.8"/>
    </g>
    <g fill="#e8b188">
        <path d="M48.9 11.1c-1.5.2-5.2 4-5 4.6.1.4 3.7 4.2 4.2 4.2.9 0 4.5-3.9 4.5-5.1.1-1.2-2.6-3.8-3.7-3.7M54.8 6.4c-1.2.3-4.4 3.5-4.3 4 .1.3 2.6 3 3 3 .7-.1 3.8-3.4 4-4.4.1-.9-1.9-2.8-2.7-2.6"/>
    </g>
    <path fill="#dba780" d="M18.5 39.9c-1.5-.1-4.1 3.2-4 4 .1.9 4.5 5.5 5.5 5.5s4-2.8 3.9-4.2c-.2-1.4-4.2-5.3-5.4-5.3"/>
    <g fill="#3e4347" opacity=".2">
        <path d="M42.6 3.5c-.2.1-.4.3-.6.4-.2.2 1.6 1.2 2.3 1.2 1.2.1 4.8-1.5 4.5-1.8-.2-.1-.4-.2-.8-.3-1.1.5-2.9 1.2-3.7 1.2-.4 0-1.2-.4-1.7-.7M37.9 9.6c-.6.2-2.4-.8-3.2-1.4-.2.2-.3.4-.3.5-.1.4 2.7 2.2 3.5 1.9.8-.3 4.5-4 4.4-4.4 0-.1-.1-.2-.4-.4-.9 1.2-3.3 3.6-4 3.8M32 16.1c-.6 0-1.7-.5-2.1-1.1-.1.3-.2.6-.1.7.2.6 1.5 1.3 2.2 1.3.6 0 4.2-4.3 4.2-4.8 0-.1-.1-.2-.3-.4-.9 1.3-3.4 4.3-3.9 4.3M28.3 22c-.5.1-1.4-.5-1.8-1.1-.1.2-.1.3-.1.3-.1.7 1.3 1.7 2 1.6.4 0 3.2-3.3 3.3-3.9 0-.1-.1-.3-.2-.5-.9 1.1-2.9 3.5-3.2 3.6M20.6 25.3c-.3.5 1.1 2.3 1.9 2.3.6 0 3.5-2.4 3.8-2.7.1-.2.1-.6-.1-.9-.3.4-3.2 2.7-3.7 2.7s-1.3-.8-1.7-1.5c-.2 0-.2.1-.2.1M14.3 30.1c-.6-.1-1.4-1.2-1.7-2.1-.4.6.9 2.9 1.8 3 .7.1 4.7-2.1 5-2.5.2-.3.2-.7.1-1.1 0 .1-.1.2-.1.2-.4.4-4.4 2.5-5.1 2.5M8.5 36c.7-.1 3.9-3.4 4-3.9.1-.2 0-.5-.1-.8-.4.7-3.3 3.7-3.9 3.8-.7.1-1.9-1.1-2.4-2-.1.1-.1.1-.1.2-.3.6 1.5 2.8 2.5 2.7M5.3 43c.6 0 1.8-4 1.9-4.4 0-.1 0-.4-.1-.6-.3 1-1.3 4.2-1.8 4.2-.7-.1-1.6-1-1.9-1.6 0 .2-.1.4-.1.5 0 .4 1.2 1.8 2 1.9M4.8 44.6c-.1 1.1-.3 3.6-.7 3.6-.4 0-.9-2.6-1.1-4.4.1 1.6.6 5.3 1.1 5.3.5 0 .7-3.7.8-4 .1-.1 0-.3-.1-.5M8 49.1c-.3.8-1.3 2.9-2 2.2-.3-.3-.5-.9-.6-1.6 0 1 .2 2 .6 2.5.8.8 2-2.2 2-2.5.2-.1.2-.3 0-.6M8.9 47c-.3-.1-2-2.4-2.4-3.1-.1.4-.1.6 0 .7.1.3 2.2 3.2 2.5 3.3.6.1 2.7-3.3 2.6-3.8 0-.1-.1-.3-.2-.4-.4 1-2 3.4-2.5 3.3M18.3 35.5c-.4.1-2.1-1.9-2.8-3.1l-.2.2c-.1.6 2.5 3.9 3 3.8.8-.2 4.8-2.7 4.9-3.4 0-.2-.1-.4-.2-.6-.6.9-4 2.9-4.7 3.1M22.8 29c-.1.6 1.8 3.3 2.3 3.2.8-.2 4.6-3.1 4.6-3.9 0-.2-.1-.4-.2-.6-.7 1-3.7 3.4-4.5 3.6-.4.1-1.6-1.4-2.1-2.4l-.1.1M31.4 26.1c-.4.1-1.6-1.3-2.1-2.2-.1.1-.1.2-.2.3-.1.6 1.8 3 2.3 2.9.3-.1 1.1-.6 1.9-1.4.4-.5.9-1 1.5-1.5.6-.7 1.1-1.3 1.1-1.5 0-.2-.1-.4-.2-.6-.7 1.1-3.5 3.8-4.3 4M36.8 19.9c-.4.1-2.2-1.3-2.8-2.2-.1.2-.2.3-.2.4-.1.6 2.6 2.9 3.1 2.8.8-.2 4.2-4 4.3-4.8 0-.1-.1-.3-.2-.5-.7 1.2-3.4 4.2-4.2 4.3M42.7 13.4c-.4.1-2.4-1.4-3.1-2.3l-.3.3c-.1.6 2.8 3 3.4 2.9.8-.2 4.7-3.6 4.7-4.4 0-.2-.1-.3-.2-.5-.7 1.2-3.7 3.8-4.5 4M49.1 8c-.4.1-2-1.2-2.7-2.1-.2.1-.3.2-.3.3-.1.6 2.5 2.9 3 2.8.8-.2 4.3-3 4.4-3.7 0-.2-.1-.4-.2-.5-.8 1-3.5 3.1-4.2 3.2M12.6 41c-.8-.1-2.5-2.4-3.1-3.4-.1.2-.1.3-.1.4 0 .7 2.4 3.8 3.3 3.9.6.1 4.1-3.3 4.1-4.4 0-.1-.1-.3-.1-.5-.7 1.4-3.5 4.1-4.1 4M59.1 19.2c0 .2-.1.5-.1.6 0 .6 1.1 2.4 1.2 2.3.9-.9 1.2-2.9 1.1-4.6-.1 1.4-.4 2.9-1.1 3.6-.1.2-.9-1.1-1.1-1.9M55.4 28.7c-.3.1-1.5-1.6-1.8-2.7 0 .1-.1.1-.1.1-.3.8 1.5 3.6 1.9 3.5.7-.2 3.4-3.3 3.6-4.8V24c-.4 1.6-2.9 4.5-3.6 4.7M53.6 30.9c-.6.6-4.6 2.6-5.1 2.4-.5-.1-1-.9-1.2-1.5-.1.1-.1.2-.1.3 0 .7.7 2 1.4 2.2.6.2 4.8-1.9 5.2-2.5 0-.2-.1-.5-.2-.9M46.6 34.3c-.5.6-3.5 2.4-3.8 2.5-.5.1-1.2-.6-1.5-1.3-.1.1-.1.2-.1.2-.1.7 1 2.1 1.6 2 .4-.1 3.7-2 3.9-2.6.1-.1.1-.4-.1-.8M38.7 43.5c.4-.3 2.6-4 2.5-4.4 0-.1-.1-.3-.2-.4-.5 1.1-2 3.6-2.3 3.9-.4.3-1.6-.6-2.1-1.3-.1.2-.1.3-.1.4-.1.7 1.8 2.1 2.2 1.8M33.2 49.1c-.1.2-.1.4-.1.5.1.9 2.6 2.2 3.1 1.7.5-.4 2.2-5.3 2.1-5.7 0-.1-.1-.2-.1-.2-.4 1.5-1.6 4.7-2 5.1-.5.4-2.4-.5-3-1.4M35 53.8c0-.1-.1-.3-.2-.5-.7 1-3.5 3.6-4.1 3.8-.5.2-2-.9-2.5-1.9-.1.1-.1.2-.1.3-.1 1 2 2.8 2.7 2.5.6-.3 4.3-3.7 4.2-4.2M28 58.5c-1 .5-4.4 1.3-5 1.3-.4 0-1.3-.7-1.8-1.4-.1.1-.2.2-.2.3.1.8 1.5 2 2 2 .8 0 5.6-1.2 5.4-1.6 0-.2-.2-.4-.4-.6M20.4 60c-1 0-3.2-.3-4.6-.6-.6.1-1 .2-.9.4.1.7 6.2 1.4 6 1 0-.2-.2-.5-.5-.8M17.2 57.8c0-.2-.1-.4-.4-.6-.9.5-3.9.6-5-.1-.2.3-.3.5-.1.8 1.2 1 5.5.6 5.5-.1M16.1 55c.1.3 3 2.3 3.3 2.5.5.2 4.6-1 4.5-1.9 0-.1-.1-.3-.3-.5-.8.8-3.9 1.7-4.3 1.5-.2-.1-2.2-1.4-2.9-2.1-.2.2-.3.4-.3.5M31.4 47.8c-.5.1-2.9-1.7-3.6-2.6-.1.2-.2.4-.2.5-.1.5 3.2 3.1 3.8 3 .3-.1 3-4.8 3.2-5.1 0-.1-.1-.3-.2-.5-.6 1.1-2.7 4.6-3 4.7M35 40.3c-.5.1-2.3-1.1-3-1.9-.1.2-.2.3-.2.5-.1.5 2.5 2.5 3.2 2.3.3-.1 3-4.2 3.1-4.5.1-.1 0-.4-.2-.7-.5 1-2.6 4.2-2.9 4.3M39.9 34c-.5.1-2.1-1.1-2.6-1.8-.1.2-.2.3-.2.4-.1.5 2.2 2.4 2.9 2.3.3-.1 4.1-3.3 4.2-3.6.1-.1 0-.4-.2-.7-.8.8-3.8 3.3-4.1 3.4M43.4 26.8c-.1.1-.2.3-.2.4-.1.5 2.2 3.2 2.8 3.1.3-.1 4.8-3.4 4.9-3.7.1-.1 0-.4-.2-.7-.9.8-4.4 3.4-4.7 3.5-.5.1-2-1.6-2.6-2.6M52.7 23.7c-.5.1-2.2-1.8-2.7-2.8-.1.2-.2.3-.2.4-.1.5 2.3 3.5 2.9 3.4.3-.1 4.2-4.2 4.3-4.5.1-.1 0-.4-.2-.7-.8.9-3.8 4.2-4.1 4.2M58 17.1c-.5.1-2.1-1.6-2.6-2.5-.1.2-.2.3-.2.4-.1.5 2.2 3.2 2.8 3 .3-.1 2.3-4.2 2.4-4.5.1-.1 0-.5 0-.8-.4.6-2.1 4.3-2.4 4.4M30.6 50.2c0-.1-.1-.2-.2-.4-.7 1.3-3.6 3.9-4.4 3.9-.6 0-3-1.8-3.7-2.8-.1.2-.2.4-.2.5.2.9 3.3 3.2 3.9 3.3.9-.1 4.6-3.5 4.6-4.5M12.6 53.9c-.6.7-2.3 1.7-2.8 1.6-.3-.1-1.7-1.5-2.1-2.1-.1.3-.1.6-.1.7.1.3 1.9 2.2 2.2 2.2.6.1 3.1-1.4 3-2 0-.1 0-.2-.2-.4M17.8 50.4c0-.1-.1-.3-.1-.4-.5 1.2-2.8 2.9-3.5 2.7-.4-.1-3.1-2.8-3.8-3.7-.1.3-.1.5-.1.7.2.4 3.5 3.8 3.9 3.9.9.2 3.7-2 3.6-3.2M25.2 42.7c-1 0-4.2-3-4.9-4.6-.1.2-.1.3-.1.5.1 1.3 3.9 5 5 5 1.5 0 3.9-3.8 3.6-4.5 0 0-.1-.1-.1-.2-.5 1.4-2.3 3.9-3.5 3.8M30.2 36.2c-.8.1-2.8-1.7-3.3-2.9-.1.1-.1.2-.1.3-.1 1.1 2.5 3.6 3.5 3.5 1.2-.2 3.9-3.8 3.7-4.4 0-.1-.1-.2-.2-.3-.6 1.2-2.6 3.6-3.6 3.8M35.9 30.5c-.9.2-2.9-1.5-3.4-2.8 0 .1-.1.2-.1.3-.2 1.2 2.4 3.7 3.5 3.5 1.4-.3 4.4-4.4 4.3-5 0-.1-.1-.2-.2-.4-.7 1.3-2.9 4.1-4.1 4.4M46.3 20.6c-.6 1.4-3.9 4.1-4.7 4.1-.4 0-2.4-2.1-3.1-3-.1.3-.2.5-.2.6.1.4 2.8 3.3 3.3 3.3.9 0 4.7-3.2 4.8-4.5 0 0 0-.2-.1-.5M48.1 19.1c-.4 0-3.2-2.8-4-3.9-.2.3-.3.5-.2.6.1.4 3.7 4.2 4.2 4.2.9 0 4.5-3.9 4.5-5.1 0-.2 0-.4-.1-.6-.5 1.5-3.5 4.8-4.4 4.8M53.4 12.5c-.3 0-2-1.7-2.7-2.6-.2.3-.3.4-.3.5.1.3 2.6 3 3 3 .7-.1 3.8-3.4 4-4.4 0-.2 0-.4-.1-.6-.6 1.3-3.2 4.1-3.9 4.1M20 48.5c-.9 0-4.5-3.7-5.3-5.1-.1.2-.1.4-.1.5.1.9 4.5 5.5 5.5 5.5s4-2.8 3.9-4.2c0-.1-.1-.2-.1-.4-.6 1.5-3.1 3.7-3.9 3.7M33.3 25.6l1.5-1.5-1.5 1.5"/>
    </g>
</svg>