<svg xmlns="http://www.w3.org/2000/svg" viewBox="0 0 64 64">
  <title>pleading face: dark skin tone</title>
  <desc>face with submissive or pleading expression</desc>
  <circle cx="32" cy="32" r="30" fill="#8a6859"/>
  <path fill="#28241e" d="M40.6 46.4c-5.4-2.5-11.8-2.5-17.2 0-1.3.6.3 4.2 1.7 3.5 3.6-1.7 8.9-2.3 13.9 0 1.3.6 3-2.8 1.6-3.5"/>
  <path d="M54 31c0 5-4 9-9 9s-9-4-9-9 4-9 9-9 9 4 9 9" fill="#fff"/>
  <path fill="#ffffff" d="m 28,31 c 0,5 -4,9 -9,9 -5,0 -9,-4 -9,-9 0,-5 4,-9 9,-9 5,0 9,4 9,9"/>
  <g transform="translate(0,-2.8494532)">
    <circle r="6" cy="31" cx="45" fill="#28241e"/>
    <g>
      <ellipse fill="#ffffff" ry="3.2" rx="2.8" cy="35.5" cx="46.599998"/>
      <ellipse fill="#ffffff" ry="1.9" rx="1.6" cy="31" cx="42.799999"/>
    </g>
    <circle r="6" cy="31" cx="19" fill="#28241e"/>
    <g fill="#ffffff">
      <ellipse ry="3.2" rx="2.8" cy="35.5" cx="20.6"/>
      <ellipse ry="1.9" rx="1.6" cy="31" cx="16.799999"/>
    </g>
  </g>
  <g transform="translate(0,-1.5805903)">
    <path d="m 38.936087,12.729847 c 2.952502,2.968624 7.131552,4.538828 11.385295,4.107926 0.606432,-0.04733 0.921502,2.088261 0.206735,2.226491 -4.860175,0.478227 -9.71913,-1.352224 -13.134868,-4.762904 -0.554139,-0.550391 1.179222,-2.004853 1.542838,-1.571513" fill="#563a1d"/>
    <path d="m 13.678185,16.627838 c 4.245026,0.331282 8.432792,-1.139302 11.385295,-4.107926 0.363615,-0.43334 2.096976,1.021122 1.542837,1.571513 -3.407022,3.510299 -8.274693,5.241131 -13.134868,4.762904 -0.714767,-0.13823 -0.399697,-2.273817 0.206736,-2.226491" fill="#563a1d"/>
  </g>
</svg>