<svg xmlns:dc="http://purl.org/dc/elements/1.1/" xmlns:cc="http://creativecommons.org/ns#" xmlns:rdf="http://www.w3.org/1999/02/22-rdf-syntax-ns#" xmlns="http://www.w3.org/2000/svg" viewBox="0 0 64 64">
  <title>smiling face with hearts: light skin tone</title>
  <metadata>
    <rdf:RDF>
      <cc:Work rdf:about="">
        <dc:format>image/svg+xml</dc:format>
        <dc:type rdf:resource="http://purl.org/dc/dcmitype/StillImage"/>
        <dc:title>Smiling Face With Hearts</dc:title>
        <dc:description>Used 1F60A emoji &amp; added hearts from 1f618.</dc:description>
        <dc:date>2019-04-22</dc:date>
        <cc:license rdf:resource="http://creativecommons.org/licenses/by/4.0/"/>
        <dc:contributor>
          <cc:Agent>
            <dc:title>Jordan Irwin (AntumDeluge)</dc:title>
          </cc:Agent>
        </dc:contributor>
      </cc:Work>
      <cc:License rdf:about="http://creativecommons.org/licenses/by/4.0/">
        <cc:permits rdf:resource="http://creativecommons.org/ns#Reproduction"/>
        <cc:permits rdf:resource="http://creativecommons.org/ns#Distribution"/>
        <cc:requires rdf:resource="http://creativecommons.org/ns#Notice"/>
        <cc:requires rdf:resource="http://creativecommons.org/ns#Attribution"/>
        <cc:permits rdf:resource="http://creativecommons.org/ns#DerivativeWorks"/>
      </cc:License>
    </rdf:RDF>
  </metadata>
  <g>
    <circle r="30" cy="32" cx="32" fill="#ffe1bd"/>
    <g fill="#635849">
      <path d="m 44.6,40.3 c -8.1,5.7 -17.1,5.6 -25.2,0 -1,-0.7 -1.8,0.5 -1.2,1.6 2.5,4 7.4,7.7 13.8,7.7 6.4,0 11.3,-3.6 13.8,-7.7 0.6,-1.1 -0.2,-2.3 -1.2,-1.6"/>
      <path d="m 28.5,26.9 c -1.9,-5.1 -4.7,-7.7 -7.5,-7.7 -2.8,0 -5.6,2.6 -7.5,7.7 -0.2,0.5 0.8,1.4 1.3,0.9 1.8,-1.9 4,-2.7 6.2,-2.7 2.2,0 4.4,0.8 6.2,2.7 0.6,0.5 1.5,-0.4 1.3,-0.9"/>
      <path d="m 50.4,26.9 c -1.9,-5.1 -4.7,-7.7 -7.5,-7.7 -2.8,0 -5.6,2.6 -7.5,7.7 -0.2,0.5 0.8,1.4 1.3,0.9 1.8,-1.9 4,-2.7 6.2,-2.7 2.2,0 4.4,0.8 6.2,2.7 0.5,0.5 1.5,-0.4 1.3,-0.9"/>
    </g>
    <g>
      <path id="heart" d="m 63.0475,52.460247 c -0.256826,-1.996006 -1.561067,-3.721971 -3.798577,-4.290782 -2.237511,-0.568811 -4.332341,-0.02873 -6.440386,1.459944 -0.757455,-2.382491 -2.028754,-4.202875 -4.167442,-5.054941 -2.138687,-0.852067 -4.233516,-0.311985 -5.676226,1.091079 -1.442709,1.403065 -2.233298,3.669112 -1.456117,6.905775 0.810122,3.142245 6.26859,10.871742 6.391544,11.126462 0.25472,-0.122955 9.369662,-2.873924 11.925669,-4.735867 2.687771,-2.239617 3.478361,-4.505664 3.221535,-6.50167" fill="#f46767"/>
      <path id="heart-2" d="M 57.323435,1.654124 C 55.750749,0.3984725 53.613229,0.0652966 51.609845,1.2126637 49.60646,2.3600307 48.47679,4.204982 47.997329,6.7407496 45.796125,5.5555501 43.616611,5.1316189 41.487245,6.0067201 c -2.129366,0.8751011 -3.259036,2.7200524 -3.319946,4.7315919 -0.06091,2.011539 0.94694,4.189666 3.75636,5.974926 2.767427,1.694505 12.065242,3.452527 12.33074,3.55005 C 54.351922,19.99779 58.98843,11.681974 59.530187,8.5664483 59.90397,5.0879026 58.89612,2.9097756 57.323435,1.654124" fill="#f46767"/>
      <path id="heart-7" d="m 19.13652,37.45376 c -1.589551,-1.234231 -3.731389,-1.538421 -5.719046,-0.36402 -1.987658,1.174401 -3.092232,3.034486 -3.5372973,5.576516 -2.2170581,-1.155272 -4.4021155,-1.549639 -6.5194311,-0.645772 -2.1173155,0.903866 -3.2218893,2.763951 -3.2555441,4.776131 -0.03365492,2.01218 1.0036091,4.176454 3.8369561,5.923493 2.7901277,1.656861 12.1109044,3.288767 12.3776994,3.382685 0.09392,-0.266795 4.617349,-8.644657 5.116852,-11.767236 0.326626,-3.483291 -0.710638,-5.647565 -2.300189,-6.881797" fill="#f46767"/>
    </g>
  </g>
</svg>