<svg xmlns="http://www.w3.org/2000/svg" viewBox="0 0 64 64">
    <title>shark</title>
    <path d="m50.1 3.8c-3.4-0.02-7.7 0.72-11.4 3.18-0.9-0.23-1.8-0.44-2.7-0.59-12.9-2.26-32.5 1.44-34.7 8.01l27.1 11c-1.22 4.18-1.53 7.96-1.02 8.26 0.816 0.612 4.28-5.51 7.24-6.73 0.306-0.102 0.51-0.306 0.612-0.612 3.06 0.816 13.8 3.88 14.4 9.59-1.33 0.918-2.65 2.96-2.35 3.47 0.204 0.306 0.813 0.306 1.53 0.408-1.03 2.7-2.66 5.25-4.24 7.04-3.16-1.63-11.1-3.85-14.9-3.96s-5.11 0.756-4.04 1.24c1.07 0.486 2.99 4.11 3.62 1.35 2.19 1.78 12 5.66 12.2 6.12 0.486 0.805 0.775 10.8 1.38 10.9 1.02 0.0678 4.47-8.94 3.86-13.3 4.18-1.33 9.89-3.98 12.5-9.08 0.612 0.102 1.94 0.51 2.35 0.102 0.408-0.306-0.204-2.35-1.12-3.67 0.102-0.816 0.204-1.63 0.204-2.55 0-9.1-5.1-17.2-12.3-22.3 3.9-4.89 7.7-5.6 7.9-6.36 0.1-0.46-2.5-1.32-6.2-1.34z" fill="#b2c1c0"/>
    <path fill="#879191" d="m42.4 8.43c2.03 0.875 3.96 2.02 5.91 3.12 0 0 0.0874-0.0931 0.387-0.438-2.4-1.76-6.3-2.67-6.3-2.67z"/>
    <ellipse rx="2.8" transform="matrix(.930 -.367 .495 .869 0 0)" ry="2.31" cy="18.1" cx="11.2" fill="#fff"/>
    <ellipse rx="1.97" transform="matrix(.424 -.906 .853 .521 0 0)" ry="1.97" cy="22.7" cx=".291" fill="#3e4347"/>
    <path opacity=".5" d="m35.8 14.1s1.27-0.405 1.44-0.962c0.258-0.607 1.05-1.74-0.162-2.53 0 0 1.67 0.716 1.07 2.15-0.512 1.39-1.34 1.32-2.35 1.35m1.58 0.594s1.27-0.29 1.63-0.889c0.352-0.542 1.23-1.66 0.206-2.5 0 0 1.58 0.766 0.793 2.13-0.786 1.42-1.61 1.29-2.62 1.26m2.04 0.633s1.27-0.348 1.53-0.896c0.26-0.55 1.23-1.66 0.0217-2.52 0 0 1.58 0.766 0.885 2.13-0.604 1.38-1.43 1.31-2.44 1.27" fill="#3e4347"/>
    <path fill="#879191" d="m49.9 20.2 0.83-1.56s0.0692 1.04-0.207 1.66c-0.276 0.622-0.622-0.104-0.622-0.104z"/>
    <path fill="#879191" d="m58.7 39.9s0.189 0.316 0.406 0.341c0.13 0.0147 0.19-0.221 0.19-0.221z"/>
    <path fill="#3e4347" d="m11.9 22.1 2.62 0.973 10.7-2.45-3.71-3.07s-7.26 1.03-9.64 4.55z"/>
    <path d="m12.1 22.1 2.38 0.39-0.189-2.39 2.38 0.928 0.384-2.35 1.83 1.38 1.01-1.85 1.17 1.66 2-1.5-4.36-0.852-5.37 2.43z" fill="#fff"/>
    <path d="m28.6 13.4c-5.2 0.4-6.1 2.1-11.9 0.8-7.78-1.9-15.3-0.7-15.4 0.2-0.355 2.6 8.19 7.1 10.8 7.7 4.25-4.67 11-4.06 11-2.4-0.0007 1.66-3.48-1.81-8.58 3.29 7.24 2.47 13.1 1.96 19.8 3.41 6.58 1.46 14.4 6.14 14.6 9.52-0.0739 3.8-2.31 10.1-3.96 12.6-1.64 2.46-2.88 2.79-2.83 3.11 0.0569 0.33 2.71-1.14 5.13-2.19 6.4-2.7 14.8-8.2 10.9-19.4-3.3-9.7-12.4-12-17.7-14-5.2-1.8-6.7-3-11.8-2.7z" fill="#e8e8e8"/>
    <path fill="#3e4347" d="m5.79 15.5s1.2-0.808 2.3-0.0744c0.47 0.293-0.0445 1-0.966 1.03-0.848-0.0495-0.562-0.751-1.34-0.956"/>
    <path fill="#b2c1c0" d="m47.5 49c2.37-1.44 4.74-4.38 4.74-4.38s-0.707 4.3-1.5 4.88c-0.788 0.575-3.26-0.496-3.26-0.496z"/>
    <path fill="#b2c1c0" d="m41.8 14.4c0.6 7.43 4.52 16 5.67 16.1 1.15 0.065 0.753-8.11 2.93-11.2 2.17-3.08-8.6-4.89-8.6-4.89z"/>
</svg>