<svg xmlns="http://www.w3.org/2000/svg" viewBox="0 0 64 64">
    <title>alarm clock</title>
    <ellipse cx="32.1" cy="35.8" fill="#428bc1" rx="25.2" ry="25.3"/>
    <ellipse cx="32.1" cy="35.8" fill="#fff" rx="19.6" ry="19.7"/>
    <g fill="#428bc1">
        <path d="M11 48.3L8.8 62h1.9c1.2 0 1.6-1.4 2.4-3.1 1-2.2 3.4-7.9 3.4-7.9L11 48.3zM53.1 48.3L55.4 62h-1.9c-1.2 0-1.6-1.4-2.4-3.1-1-2.2-3.4-7.9-3.4-7.9l5.4-2.7M13.3 10.2l5.9 5.9-3.1 3.2-5.9-6zM50.9 10.2L45 16.1l3.1 3.2 5.9-6z"/>
    </g>
    <g fill="#b0b8b8">
        <path d="M5.7 23.6L23.3 5.7C21.1 3.4 18 2 14.5 2 7.6 2 2 7.7 2 14.6c0 3.5 1.4 6.7 3.7 9zM40.5 5.8l17.8 17.7c2.3-2.3 3.7-5.4 3.7-8.9C62 7.7 56.4 2 49.4 2c-3.5.1-6.6 1.5-8.9 3.8"/>
    </g>
    <path fill="#ed4c5c" d="M20.6 46.6l10.3-10.5 1.2 1.2-10.3 10.4z"/>
    <g fill="#428bc1">
        <ellipse cx="32.1" cy="35.8" rx="3.7" ry="3.7"/>
        <path d="M30.2 21.7h3.7v15h-3.7zM33.9 33.9h7.5v3.7h-7.5z"/>
    </g>
</svg>