<svg xmlns="http://www.w3.org/2000/svg" viewBox="0 0 64 64">
    <title>timer clock</title>
    <path fill="#13618d" d="M62 38.1C62 57.5 48.6 61 32 61S2 57.5 2 38.1 15.4 3 32 3s30 15.7 30 35.1z"/>
    <path fill="#055672" d="M59 46.1c0 4.6-5.2 13.5-27 13.5s-27-9-27-13.5c0-2.1 7.9 7.7 27 7.7s27-9.9 27-7.7"/>
    <ellipse cx="32" cy="27.3" fill="#428bc1" rx="22.5" ry="22.8"/>
    <g fill="#f5f5f5">
        <ellipse cx="22.4" cy="44" rx="1.3" ry="1.3" transform="rotate(-59.982 22.405 43.953)"/>
        <ellipse cx="41.6" cy="10.7" rx="1.3" ry="1.3" transform="rotate(-59.987 41.597 10.715)"/>
        <ellipse cx="15.4" cy="36.9" rx="1.3" ry="1.3" transform="rotate(-30 15.378 36.934)"/>
        <ellipse cx="48.6" cy="17.7" rx="1.3" ry="1.3" transform="rotate(-30.021 48.624 17.743)"/>
        <ellipse cx="12.8" cy="27.3" rx="1.3" ry="1.3"/>
        <ellipse cx="51.2" cy="27.3" rx="1.3" ry="1.3"/>
        <ellipse cx="15.4" cy="17.7" rx="1.3" ry="1.3" transform="rotate(-59.987 15.38 17.742)"/>
        <ellipse cx="48.6" cy="36.9" rx="1.3" ry="1.3" transform="rotate(-59.979 48.62 36.933)"/>
        <ellipse cx="22.4" cy="10.7" rx="1.3" ry="1.3" transform="rotate(-30.006 22.405 10.716)"/>
        <path d="M42.7 43.3c.4.6.2 1.4-.5 1.8-.6.4-1.4.1-1.8-.5-.4-.6-.2-1.4.5-1.8.7-.3 1.5-.1 1.8.5"/>
        <ellipse cx="32" cy="8.1" rx="1.3" ry="1.3"/>
        <ellipse cx="32" cy="46.5" rx="1.3" ry="1.3"/>
    </g>
    <circle cx="32" cy="27.3" r="16" fill="#b0bcc1"/>
    <circle cx="32" cy="25.9" r="14.5" fill="#f5f5f5"/>
    <path fill="#b0bcc1" d="M37.7 33.3c0 7.3-11.3 7.3-11.3 0C26.3 26 28.9 12 32 12c3.1 0 5.7 14 5.7 21.3"/>
    <path fill="#e4e7ea" d="M36.9 31.8c0 7-9.9 7-9.9 0s2.2-20.5 4.9-20.5c2.8 0 5 13.5 5 20.5"/>
    <path fill="#fff" d="M36.1 29.1c0 6.1-8.3 6.1-8.3 0s1.9-17.7 4.1-17.7c2.4 0 4.2 11.6 4.2 17.7"/>
</svg>