<svg xmlns="http://www.w3.org/2000/svg" viewBox="0 0 64 64">
    <title>comet</title>
    <g fill="#62bbc7">
        <path d="M25.5 8.3L4.9 48.4v10.7h10.7z"/>
        <path d="M55.7 38.5L4.9 48.4v10.7h10.7z"/>
    </g>
    <g fill="#6dd1de">
        <path d="M39.7 8.3L4.9 48.4v10.7h10.7z"/>
        <path d="M55.7 24.3L15.6 59.1H4.9V48.4z"/>
    </g>
    <path fill="#7df0ff" d="M62 2L4.9 48.4v10.7h10.7z"/>
    <path fill="#c2f8ff" d="M33.4 30.6L4.9 48.4v10.7h10.7z"/>
    <circle cx="9.6" cy="54.4" r="7.6" fill="#7df0ff"/>
    <circle cx="9.6" cy="54.4" r="6.7" fill="#5995c1"/>
    <circle cx="9.4" cy="49.9" r="1.5" fill="#4b7ea3"/>
    <circle cx="9.3" cy="49.6" r="1.2" fill="#5995c1"/>
    <circle cx="14.2" cy="52.7" r="1" fill="#4b7ea3"/>
    <circle cx="14.1" cy="52.5" r=".8" fill="#5995c1"/>
    <circle cx="11.7" cy="58.8" r="1.5" fill="#4b7ea3"/>
    <circle cx="11.7" cy="58.5" r="1.2" fill="#5995c1"/>
    <circle cx="4.7" cy="52.9" r="1" fill="#4b7ea3"/>
    <circle cx="4.6" cy="52.7" r=".8" fill="#5995c1"/>
    <circle cx="7.9" cy="56.2" r="2.5" fill="#4b7ea3"/>
    <circle cx="7.7" cy="55.7" r="2" fill="#5995c1"/>
    <g fill="#c2f8ff">
        <path d="M10.839 32.64l2.05-2.05 2.051 2.05-2.05 2.05zM29.377 24.22l2.05-2.05 2.05 2.049-2.049 2.051zM27.925 12.961l2.05-2.051 2.051 2.05-2.05 2.051zM50.306 20.113l2.051-2.05 2.05 2.05-2.05 2.051zM44.1 36.943l2.05-2.05 2.05 2.05-2.05 2.05zM20.226 29.961l.99-.99.99.99-.99.99zM18.15 24.315l.989-.99.99.99-.99.99zM34.877 38.507l.99-.99.99.991-.99.99zM31.036 47.394l.99-.99.99.99-.99.99zM40.322 43.326l.991-.99.99.991-.991.99zM46.138 24.927l.99-.99.99.991-.99.99zM53.346 30.012l.99-.99.99.99-.99.99zM42.317 11.024l.99-.99.99.99-.99.99zM45.103 3.64l.99-.99.99.99-.99.99zM33.896 8.297l.99-.99.99.99-.99.99z"/>
    </g>
</svg>