<svg xmlns="http://www.w3.org/2000/svg" viewBox="0 0 64 64">
    <title>telephone</title>
    <g fill="#333">
        <path d="M24.2 56c0 2.2-1.8 4-4 4h-5.6c-2.2 0-4-1.8-4-4v-2.6h13.6V56M53.4 56c0 2.2-1.8 4-4 4h-5.6c-2.2 0-4-1.8-4-4v-2.6h13.6V56"/>
    </g>
    <path fill="#676e72" d="M56.1 9.1C51.5 6.1 42.4 4 32 4 20 4 9.7 6.7 6.1 10.5 3.6 13 2 16.7 2 20.9c0 3.7 21.6 3.7 21.6 0 0-2.8-.7-5.4-1.9-7.6 3.2-.5 6.7-.7 10.4-.7s7.2.3 10.4.7c-1.2 2.1-1.9 4.8-1.9 7.6 0 3.7 21.6 3.7 21.6 0-.2-5.2-2.6-9.6-6.1-11.8"/>
    <g fill="#333">
        <path d="M17.9 10.9c1.4 2.4 5.2 8.5 2.8 10.9 5.3-.2.3-9.9-2.8-10.9M56.4 10.9c1.4 2.4 5.2 8.5 2.8 10.9 5.2-.2.3-9.9-2.8-10.9"/>
    </g>
    <path fill="#676e72" d="M57.6 51.7c0 2.2-1.8 4-4 4H10.5c-2.2 0-4-1.8-4-4v-7.3h51.1v7.3"/>
    <path fill="#333" d="M57.6 44.4H6.4s4.8-11.3 11.3-11.3h28.6c6.5 0 11.3 11.3 11.3 11.3"/>
    <path fill="#676e72" d="M52.2 39.9H11.8s3.7-18 8.9-18h22.5c5.2 0 9 18 9 18"/>
    <path fill="#333" d="M40.8 8.1c-1.1 1-1.9 4.1-3.2 4.9-2.4 1.4-8.8 1.4-11.2 0-1.2-.8-2.1-3.9-3.2-4.9-.8-.7-3.5-.8-4 0-1.5 2.4 3 8.7 5.6 9.8 3.3 1.4 11 1.4 14.3 0 2.6-1.1 7.2-7.4 5.6-9.8-.5-.9-3.2-.7-3.9 0"/>
    <path fill="#a59a7c" d="M46.8 25.1c1.8 6.5-4.7 13.2-15 13.2s-16.6-6.6-14.6-13.2c1.6-5.2 8.1-8.7 14.9-8.7 6.8.1 13.3 3.5 14.7 8.7"/>
    <path fill="#f9eeb6" d="M46.1 24.5c1.6 6.1-4.6 12.2-14.3 12.2S16.2 30.5 18 24.5c1.4-4.9 7.7-8.2 14.2-8.2 6.5 0 12.6 3.3 13.9 8.2"/>
    <path fill="#a59a7c" d="M38 24.6c.3 2.5-2.4 4.6-6 4.6s-6.2-2.2-5.9-4.6c.3-2.2 3-3.9 6-3.9s5.7 1.7 5.9 3.9"/>
    <path fill="#d1c5b5" d="M37.8 24.4c.2 2.3-2.3 4.3-5.8 4.3-3.4 0-5.9-2-5.7-4.3.3-2.1 2.8-3.7 5.8-3.7 2.9 0 5.4 1.6 5.7 3.7"/>
    <g fill="#a8a08d">
        <path d="M30.5 17.4c-1 .6-1 1.5-.1 2.1 1 .6 2.6.6 3.5 0 .9-.6.9-1.5-.1-2.1-.9-.5-2.4-.5-3.3 0M35.9 20c.1.9 1.3 1.7 2.7 1.7 1.4 0 2.5-.8 2.3-1.7-.2-.9-1.4-1.5-2.7-1.5-1.4 0-2.4.7-2.3 1.5M36.5 29.7c.1 1.3 1.6 2.4 3.4 2.4 1.8 0 3-1.1 2.7-2.4-.2-1.3-1.7-2.2-3.3-2.2-1.6-.1-2.9.9-2.8 2.2M29.6 34c1.3 1.1 3.4 1.1 4.7 0 1.2-1 1.2-2.7-.1-3.6-1.2-.9-3.1-.9-4.4 0-1.3 1-1.4 2.6-.2 3.6M21.3 29.7c-.3 1.3.9 2.4 2.7 2.4 1.8 0 3.3-1.1 3.4-2.4.1-1.3-1.1-2.2-2.7-2.2s-3.1.9-3.4 2.2M20 25.8c.9.8 2.7.8 4 0 1.2-.8 1.4-2 .5-2.7-.9-.7-2.6-.7-3.8 0-1.3.7-1.6 1.9-.7 2.7M28.3 20c.1-.9-.9-1.5-2.3-1.5-1.3 0-2.6.7-2.8 1.5-.2.9.8 1.7 2.3 1.7 1.5 0 2.7-.8 2.8-1.7"/>
    </g>
    <g fill="#fff">
        <path d="M30.5 17.6c-1 .6-1 1.5-.1 2.1.9.6 2.5.6 3.5 0 .9-.6.9-1.6-.1-2.1-.9-.6-2.4-.6-3.3 0M35.8 20.2c.1.9 1.3 1.7 2.7 1.7 1.4 0 2.4-.8 2.3-1.7-.2-.9-1.4-1.6-2.7-1.6-1.3.1-2.3.7-2.3 1.6M36.5 29.9c.1 1.3 1.6 2.5 3.3 2.5 1.7 0 3-1.1 2.7-2.5-.2-1.3-1.7-2.3-3.3-2.3-1.6.1-2.8 1.1-2.7 2.3M29.6 34.4c1.2 1.1 3.3 1.1 4.6 0 1.2-1.1 1.1-2.7-.1-3.7-1.2-.9-3.1-.9-4.3 0-1.3 1-1.4 2.6-.2 3.7M21.4 29.9c-.3 1.3.9 2.5 2.7 2.5 1.7 0 3.3-1.1 3.4-2.5.1-1.3-1.1-2.3-2.7-2.3-1.6.1-3.1 1.1-3.4 2.3M20.1 26c.9.8 2.7.8 4 0 1.2-.8 1.4-2 .5-2.7-.9-.7-2.6-.7-3.8 0-1.2.7-1.6 1.9-.7 2.7M28.4 20.2c.1-.9-.9-1.6-2.3-1.6-1.3 0-2.5.7-2.7 1.6-.2.9.8 1.7 2.2 1.7 1.5 0 2.7-.8 2.8-1.7"/>
    </g>
    <path fill="#a59a7c" d="M47 32.1l-2.3 1-3.4-7.8.1-.4 5.7 6.8z"/>
    <path fill="#d1c5b5" d="M47.1 31.7l-2.3 1-3.4-7.8 1.3-.4z"/>
</svg>