<svg xmlns="http://www.w3.org/2000/svg" viewBox="0 0 64 64">
    <title>Ballot Box</title>
	<path fill="#3e4347" d="   M 53.9,56.1   c  0  , 0.6 -0.5, 1.1 -1.1, 1.1 H 7.9   c -0.6, 0 -1.1,-0.5 -1.1,-1.1 V 11.2   c  0,  -0.6  0.5,-1.1  1.1,-1.1 h 30.7   l  6.1,-6.7   H 2.2   C  1,   3.4  0,   4.4  0,   5.6 v 56.1   C  0,  63  1,  64  2.2,64 h 56.1   c  1.2, 0  2.2,-1  2.2,-2.2 V 18.1   l -6.7, 9.4   c  0.1, 0  0.1,28.6  0.1,28.6   "/>
	<path fill="#3e4347" transform="rotate(180 30.3,33.7)" d="   M 53.9,56.1   c  0  , 0.6 -0.5, 1.1 -1.1, 1.1 H 7.9   c -0.6, 0 -1.1,-0.5 -1.1,-1.1 V 11.2   c  0,  -0.6  0.5,-1.1  1.1,-1.1 h 30.7   l  6.1,-6.7   H 2.2   C  1,   3.4  0,   4.4  0,   5.6 v 56.1   C  0,  63  1,  64  2.2,64 h 56.1   c  1.2, 0  2.2,-1  2.2,-2.2 V 18.1   l -6.7, 9.4   c  0.1, 0  0.1,28.6  0.1,28.6   "/>
</svg>