<svg xmlns="http://www.w3.org/2000/svg" viewBox="0 0 64 64">
    <title>Black Right Pointing Index: light skin tone</title>
  <path fill="#547725" d="M 17.912569,21.896782 4.464031,21.864382 C 2.205749,28.702575 2.208087,36.725116 4.114073,43.456534 l 13.798497,0.04366 c -2.52002,-7.250732 -2.394562,-13.74487 0,-21.603414 z"/>
  <g transform="matrix(0,-0.78747373,-0.78747373,0,62.562332,57.202231)">
    <g fill="#ffe1bd">
      <path d="m 44.8,34.5 c 0,0 -31.9,-2.5 -31.4,2.1 0,0 -1.6,11.2 2.3,18 5.9,10.1 28.6,11.7 34.3,-7 1.2,-3.7 0.3,-13.7 -5.2,-13.1"/>
      <path d="m 38.7,39.1 c 0,2.3 1.9,4.2 4.2,4.2 2.3,0 4.2,-1.9 4.2,-4.2 V 6.2 C 47.1,3.9 45.2,2 42.9,2 40.6,2 38.7,3.9 38.7,6.2 v 32.9"/>
    </g>
    <path d="m 41,42.3 c 2.4,0 4.3,-1.9 4.3,-4.2 V 5.2 c 0,-1.2 -0.6,-2.4 -1.4,-3.1 1.9,0.4 3.4,2.1 3.4,4.1 v 32.9 c 0,2.3 -1.9,4.2 -4.2,4.2 -1.1,0 -2,-0.4 -2.8,-1 H 41" fill="#e6b796"/>
    <g fill="#ffe1bd">
      <path d="m 13.4,30 c 0,-2.4 1.9,-4.3 4.2,-4.3 h 0.1 c 2.3,0 4.2,1.9 4.2,4.3 v 6.6 c 0,2.4 -1.9,4.3 -4.2,4.3 h -0.1 c -2.3,0 -4.2,-1.9 -4.2,-4.3 V 30"/>
      <path d="m 21.9,26.2 c 0,-2.4 1.9,-4.3 4.2,-4.3 h 0.1 c 2.3,0 4.2,1.9 4.2,4.3 v 6.6 c 0,2.4 -1.9,4.3 -4.2,4.3 h -0.1 c -2.3,0 -4.2,-1.9 -4.2,-4.3 v -6.6 m 8.5,-0.5 c 0,-2.4 1.9,-4.3 4.2,-4.3 h 0.1 c 2.3,0 4.2,1.9 4.2,4.3 v 6.6 c 0,2.4 -1.9,4.3 -4.2,4.3 h -0.1 c -2.3,0 -4.2,-1.9 -4.2,-4.3 v -6.6"/>
    </g>
    <g fill="#e6b796">
      <path d="m 16.5,39.3 c 2.4,0 4.2,-1.9 4.2,-4.2 v -6.6 c 0,-0.6 -0.1,-1.2 -0.4,-1.8 1,0.8 1.7,2 1.7,3.4 v 6.6 c 0,2.4 -1.8,4.2 -4.2,4.2 h -0.1 c -1.7,0 -3.2,-1 -3.8,-2.5 0.7,0.6 1.6,0.9 2.6,0.9 m 8.4,-3.8 c 2.4,0 4.2,-1.9 4.2,-4.2 v -6.6 c 0,-0.6 -0.1,-1.2 -0.4,-1.8 1,0.8 1.7,2 1.7,3.4 v 6.6 c 0,2.4 -1.9,4.2 -4.2,4.2 h -0.1 c -1.7,0 -3.2,-1 -3.8,-2.5 0.7,0.6 1.6,0.9 2.6,0.9 M 33.3,35 c 2.4,0 4.2,-1.9 4.2,-4.2 v -6.6 c 0,-0.6 -0.1,-1.2 -0.4,-1.8 1,0.8 1.7,2 1.7,3.4 v 6.6 c 0,2.4 -1.9,4.2 -4.2,4.2 h -0.1 c -1.7,0 -3.2,-1 -3.8,-2.5 0.8,0.6 1.7,0.9 2.6,0.9 M 41,40.8 C 36.2,38.5 25.3,42.5 27.5,52.5 27.5,42.1 36.9,40.3 41,40.8"/>
      <path d="m 39.2,30.5 c -3.5,-2.1 -4.1,1.2 -10,1.4 -2.6,0.1 -3.7,5.4 0.2,7.3 5.4,2.7 5.8,-1.1 7.2,0.4 1.4,1.6 2.7,1.9 3.9,3.7 0.9,1.3 7.6,-0.7 8.3,-3.4 1.3,-5.3 -4.1,-6.1 -9.6,-9.4"/>
    </g>
    <path d="m 39.6,31.4 c -3.6,-2.1 -4.3,1.2 -10.4,1.4 -2.7,0.1 -3.9,5.6 0.2,7.6 5.6,2.8 6.1,-1.2 7.4,0.4 1.5,1.6 2.8,2 4.1,3.9 0.9,1.4 -1.5,6.6 -1.5,6.6 0,0 6.9,4.9 8.3,2.1 2.6,-5.2 1.9,-9.2 1.8,-12.2 -0.2,-7.1 -4.2,-6.4 -9.9,-9.8" fill="#ffe1bd"/>
    <g fill="#e6b796">
      <path d="m 46.6,34.9 c 3.8,1.8 3.6,11.7 0.8,16.5 -7.1,11.9 -22.7,11.7 -30,5.3 6.8,7.3 23.4,8 31.1,-4.3 3,-4.9 4,-16.3 -1.9,-17.5"/>
      <path d="m 40.1,44.8 c 0.3,0.4 0.2,1.2 0.1,2.1 0.4,-1.4 0.7,-2.8 0.3,-3.4 -1.2,-1.9 -1.9,-2.3 -3.4,-3.9 -1.4,-1.5 -1.8,2.4 -7.4,-0.4 -2.1,-1 -2.8,-3 -2.6,-4.7 -0.8,1.8 -0.4,4.6 2.3,6 5.6,2.8 6.1,-1.2 7.4,0.4 1.4,1.6 2.1,2 3.3,3.9"/>
    </g>
  </g>
  <path fill="#547725" d="m 17.912569,21.896782 0.647212,0.76749 -2.582248,3.204585 -3.680728,-1.623295 4.152616,-2.095184 1.463148,-0.253596"/>
  <path fill="#547725" d="M 4.761285,44.22402 4.114073,43.45653 5.557241,40.838794 6.771819,42.960968 Z"/>
  <path d="M 18.559781,22.664272 5.111243,22.631862 C 2.852962,29.470056 2.855298,37.492598 4.761285,44.224015 l 13.798498,0.04366 c -2.520021,-7.250732 -2.394563,-13.744871 0,-21.603414 z" fill="#699635"/>
</svg>