<svg xmlns="http://www.w3.org/2000/svg" xmlns:xlink="http://www.w3.org/1999/xlink" viewBox="0 0 64 64">
    <title>Caduceus</title>
	<g id="staff" transform="translate(21,0) scale(2,1)">
		<path fill="#f2b200" d="M3.5 11.3h2.9V62H3.5z"/>
		<path fill="#ffce31" d="M4.9 12.6h.9V62h-.9z"/>
		<path fill="#f2b200" d="M7.9 11.3c0 1.8-1.3 3.3-2.9 3.3s-3-1.5-3-3.3S3.3 8 4.9 8s3 1.5 3 3.3"/>
		<path fill="#ffce31" d="M6.4 10.5c0-.5-.3-.8-.7-.8-.4 0-.7.4-.7.8 0 .5.3.8.7.8.4 0 .7-.4.7-.8"/>
	</g>
	<g id="snake" transform="scale(0.5) translate(24,60)">
		<path fill="#8cc63e" d="M61.7 24.3c-.1-1-.3-1.9-.5-2.6-.4-1.4-.7-2.3-1-2.9-.3-.7-.6-1.1-.9-1.5-.5-.8-1-1.3-1.5-1.7-.9-.8-1.7-1.4-2.5-1.9-1.6-.9-3.2-1.5-4.7-2.1-3.1-1-6.2-1.6-9.2-2.1-6.1-1-12.2-1.4-18.3-1.9-1.5-.1-3-.3-4.5-.6-.4-.1 2-.9 3.2-1.3 6-1.6 12.1-2.6 18.2-3.2-6.1-.5-12.2-.7-18.3-.3-7.7.6-9.5 2.8-9.2 6.4.1.9.3 1.1.4 1.4.1.2.2.4.3.5.2.2.3.3.4.5.9.8 1.6 1.2 2.4 1.6.8.4 1.5.7 2.3 1 1.5.6 3 1 4.6 1.5 6.1 1.8 12.1 3.5 18 5.8 3 1.1 5.9 2.4 8.8 4 1.1.6-19.6 14.1-25.6 14.8l.7 19.5c6.1-2.1 12.2-4.4 18.3-7.9 1.5-.9 3.1-1.8 4.6-2.9 1.5-1.1 3-2.2 4.5-3.4 1.5-1.3 3-2.6 4.6-4.4.8-1 1.6-1.9 2.5-3.6.5-.9 1-1.8 1.6-4.1.3-1.1.6-2.8.7-5.1.3-1.3.2-2.4.1-3.5"/>
		<g fill="#ffd93b">
			<path d="M50.5 27.6c-2.9-2.3-6.1-4-9.4-5.5-3.3-1.5-6.6-2.7-10-3.9C27.7 17 24.4 16 21 14.8c-1.7-.6-3.4-1.2-5-2-.8-.4-1.6-.9-2.4-1.6-.4-.4-.7-.8-.9-1.3-.2-.5-.3-1.1-.3-1.8 0 .6-.2 2.5 3.7 4.2 1.6.7 3.4 1 5.1 1.5 3.4.8 6.8 1.5 10.3 2.4 3.4.8 6.9 1.7 10.3 2.8 3.4 1.2 6.8 2.6 10.1 4.7l-1.4 3.9M18 6.4c1.9-.7 3.7-1.1 5.5-1.6 1.8-.4 3.7-.8 5.5-1.1 3.7-.6 7.4-1 11-1.1-3.7.4-7.3 1.1-11 2l-5.4 1.5c-1.8.6-3.6 1.2-5.3 2L18 6.4"/>
		</g>
		<g fill="#8cc63e">
			<path d="M46 33.6l-2.3-4c4.6-2.9 5.4-5 5.7-6.9.3-1.8-.3-3.3-1.5-4.4l2.3-5.2c2.7 2.5 4 6.5 3.4 10.8-.7 4.9-3.7 8.7-7.6 9.7M22.9 9.4C17.6 9 16.7 8.3 16.7 5h1.2c0 1.8 0 2.2 5.1 2.7l-.1 1.7"/>
		</g>
		<path fill="#ffd93b" d="M31.7 51.5l2.4-.6c.8-.2 1.5-.4 2.3-.6 1.5-.4 3.1-.9 4.6-1.5 3-1.1 6.1-2.5 8.9-4.2 2.9-1.8 5.7-3.9 8-6.8 1.1-1.5 2.2-3.2 2.9-5.2.7-2 1.1-4.2 1-6.5.3 2.3.2 4.7-.3 6.9-.5 2.3-1.4 4.4-2.5 6.2-2.1 3.7-4.8 6.7-7.7 9.2-8 8-19.1 8.3-19.1 8.3l-.5-5.2"/>
		<path fill="#e8f94b" d="M2.1 50.4c.3-1.2 1.5-2.3 2.6-2 1.1.3 1.7 1.8 1.4 3-.3 1.2-1.3 1.5-2.4 1.3-1.1-.3-1.9-1-1.6-2.3"/>
		<path fill="#252728" d="M2.9 50.7c.2-.8.9-1.4 1.6-1.3.7.2 1 1.1.8 1.9-.2.8-.8 1-1.5.8-.6-.2-1.1-.7-.9-1.4"/>
		<path fill="#4b662b" d="M2 50.4c.3-1.3 1.6-2.5 2.8-2.2 1.2.3 1.8 1.9 1.5 3.3C4.4 49.9 2 50.4 2 50.4"/>
		<path fill="#8cc63e" d="M3.1 54.5c-.4-9.8 13-15.1 21.5-15.5 8.4-.4 15.3-.2 15.8 9.6.4 9.8-6.4 11.1-14.8 12.2-8.8 1.3-22 3.6-22.5-6.3"/>
		<g fill="#4b662b">
			<path d="M8 55.2c-.3.9-.9 1.7-1.2 1.6-.4-.1-.4-1.1-.1-2 .3-.9.7-1.4 1.1-1.2.3 0 .5.6.2 1.6M4.8 54.3c0 .6-.2 1.2-.5 1.2-.2 0-.4-.6-.4-1.3 0-.6.2-1 .5-1s.4.4.4 1.1"/>
		</g>
		<path fill="#e8f94b" d="M12.9 52.3c0-2.7 2.1-5.6 4.7-5.6s4.7 2.9 4.7 5.6c0 2.7-2.1 3.9-4.7 3.9s-4.7-1.2-4.7-3.9"/>
		<path fill="#252728" d="M14.7 52.5c0-1.7 1.3-3.5 2.9-3.5s2.9 1.8 2.9 3.5-1.3 2.4-2.9 2.4-2.9-.8-2.9-2.4"/>
		<g fill="#4b662b">
			<path d="M12.6 52.4c0-2.9 2.2-6 5-6s5 3.1 5 6c-5-2.4-10 0-10 0M39.3 32.3c5.3.8 12.2 2.8 15 6.3 0 0-2-7.2-8.2-10.7-.2.2-.5.4-.7.6-1.8 1.1-3.9 2.4-6.1 3.8M44 44.7s-1.4-7-7.1-11c-2.4 1.4-4.8 2.7-7 3.8 5.2 1.2 11.7 3.6 14.1 7.2M47.4 26.6c4.2-.6 10.2-.2 12.9 1 0 0-3.8-4.9-10.9-5.4 0 0-.3 2.5-2 4.4M59.4 17.3c-.5-.8-1-1.3-1.5-1.7-.4-.3-.7-.6-1-.9-5.4 1.6-7.1 5.8-7.1 5.8 2.3-1.9 6.5-1.5 10.5-1.7v-.1c-.4-.6-.7-1.1-.9-1.4M22.3 12.1c.6-1.6 2.6-3.1 4.5-4.2-1.1-.1-2.2-.2-3.4-.3-1.2 2.2-1.1 4.5-1.1 4.5M16.4 10.2c1.1-1.3 3.9-2.2 6.1-2.6-.8-.1-1.5-.2-2.3-.3-.7-.1-1.2-.3-1.5-.4-1.8 1.5-2.3 3.3-2.3 3.3M47.7 10.8c-2.3 4-2.5 7.9-2.5 7.9 1.2-2.5 4.1-4.6 7.3-6.4-.6-.3-1.3-.5-1.9-.7-1-.3-1.9-.5-2.9-.8M33.4 14.6c.7-2.1 3.4-4 5.9-5.4-1.4-.2-2.8-.4-4.3-.5-1.8 2.7-1.6 5.9-1.6 5.9M40.3 9.4C39 12.9 39 16 39 16c.9-2.1 3-4.2 5.4-5.9l-3-.6c-.4 0-.7-.1-1.1-.1M27.9 13.8c.7-2 3.3-3.9 5.6-5.3-1.4-.1-2.8-.3-4.2-.4-1.5 2.7-1.4 5.7-1.4 5.7M17.6 6.6s-1.9-1.2-4.3-1.4c-.5.7-.7 1.6-.8 2.6 1.7-.9 3.6-1.5 5.1-1.2M18.9 5.6s-.2-1.4-.9-2.9c-.7.1-1.3.3-1.8.5 1.2.7 2.2 1.5 2.7 2.4M30.5 2.9V2h-.4c.1.3.3.6.4.9M25.7 3.9s0-.8-.1-1.8h-1c.5.6.9 1.2 1.1 1.8M34.9 2.6v-.4h-.2c.1.1.2.3.2.4M22.1 2.2h-.4c-.3 0-.6.1-1 .1.7.7 1.3 1.5 1.6 2.2 0 0 0-1-.2-2.3M32.9 2.6v-.5h-.2c.1.2.2.3.2.5M28.2 3.3s0-.5-.1-1.3h-.7c.4.4.7.9.8 1.3"/>
		</g>
	</g>
	<g transform="rotate(-42.5 32,32)" id="wings">
		<path fill="#ffdd7d" d="M21.8 24.5l18.9 17.3c2.2-1.8 4.2-3.7 6.2-5.7L28.1 18.8c-2 1.9-4.1 3.8-6.3 5.7"/>
		<path fill="#dbb471" d="M40.8 49.4c2.1-1.6 4.2-3.3 6.2-5V36c-2 2-4.1 3.9-6.2 5.7v7.7"/>
		<path id="a" fill="#8d9998" d="M12.1 24.7c1.1-.4 2-1 2.9-1.7.9-.7 1.7-1.4 2.6-2.2.9-.7 1.8-1.5 2.8-2 1-.6 2.3-.9 3.4-.7-1.1.2-2.1.7-3 1.4-.9.6-1.7 1.4-2.6 2.1-.9.7-1.8 1.5-2.8 2.1-1 .6-2.2 1-3.3 1"/>
		<path fill="#e8e8e8" d="M39.8 33.1s4.9 1.4 16.3-1.6 6 29.8-14.8 29.8c-2.3 0-2.4-2.9 4-8.1 0 0-9 2.1-5.1-4.6 0 0-6.4 1.1-3.5-4 0 0 1.3-3.8.1-8.1.1 0 .8-2.2 3-3.4"/>
		<g fill="#d1d1d1">
			<path d="M61.5 34.7c.2 8.8-6.8 23.4-20.7 23.4h-.2c-1.3 2.1-.7 3.3.7 3.3 15.8-.1 22.7-18.9 20.2-26.7"/>
			<path d="M54.3 39.5c-3 10.8-15 11.7-15 11.7-.5 2.3.5 3.3 1.8 3.3 4.4.1 12.6-7.2 13.2-15M45.9 39.5c-7.1 10-9.6 6.3-9.6 6.3-1.8 4 2.9 4 3.7 3.1 2.3-2.5 6-7.7 5.9-9.4"/>
		</g>
		<g fill="#8d9998">
			<path d="M40.5 58.4c1.2-1.6 2.7-2.9 4.2-4.2 1.5-1.3 3-2.6 4.5-4 1.4-1.4 2.8-3 3.8-4.8 1-1.8 1.5-3.9 1.3-5.9-.2 2-.9 3.9-2 5.5s-2.4 3.1-3.8 4.5-2.9 2.7-4.3 4.2c-1.5 1.3-2.8 2.9-3.7 4.7M39.3 51.2c.4-1.1 1-2 1.7-2.9.7-.9 1.4-1.7 2.2-2.6.7-.9 1.5-1.8 2-2.8.6-1 .9-2.3.7-3.4-.2 1.1-.7 2.1-1.4 3-.6.9-1.4 1.7-2.1 2.6-.7.9-1.5 1.8-2.1 2.8-.6 1-1 2.2-1 3.3"/>
		</g>
		<path fill="#e8e8e8" d="M30.2 24.2s-1.4-4.9 1.6-16.3S2 1.9 2 22.7c0 2.3 2.9 2.4 8.1-4 0 0-2.1 9 4.6 5.1 0 0-1.1 6.4 4 3.5 0 0 3.8-1.3 8.1-.1 0-.1 2.2-.8 3.4-3"/>
		<g fill="#d1d1d1">
			<path d="M28.6 2.5C19.8 2.3 5.2 9.3 5.2 23.2v.2c-2.1 1.2-3.2.7-3.2-.7C2 6.9 20.8 0 28.6 2.5"/>
			<path d="M23.8 9.7c-10.8 3-11.7 15-11.7 15-2.3.5-3.3-.5-3.3-1.8-.1-4.4 7.2-12.6 15-13.2M23.8 18.1c-10 7.1-6.3 9.6-6.3 9.6-4 1.8-4-2.9-3.1-3.7 2.5-2.3 7.7-6 9.4-5.9"/>
		</g>
		<path fill="#8d9998" d="M4.9 23.5c1.6-1.2 2.9-2.7 4.2-4.2 1.3-1.5 2.6-3 4-4.5 1.4-1.4 3-2.8 4.8-3.8 1.8-1 3.9-1.5 5.9-1.3-2 .2-3.9.9-5.5 2s-3.1 2.4-4.5 3.8-2.7 2.9-4.2 4.3c-1.4 1.5-2.9 2.8-4.7 3.7"/>
		<use xlink:href="#a"/>
	</g>
	<g id="staff" transform="translate(21,0) scale(2,1)">
		<path fill="#f2b200" d="M3.5 11.3h2.9V42H3.5z"/>
		<path fill="#ffce31" d="M4.9 12.6h.9V42h-.9z"/>
	</g>
</svg>