<svg xmlns="http://www.w3.org/2000/svg" viewBox="0 0 64 64">
  <title>Hammer and Sickle</title>
  <desc>crossed over hammer and sickle</desc>
  <g transform="matrix(0.75147658,-0.75147658,0.75147658,0.75147658,-8.3625556,39.855883)">
    <g id="hammer" transform="matrix(0.6229375,0.6052657,-0.6052657,0.6229375,28.158145,-17.468594)">
      <path d="M 28.8,21.9 23.2,27.7 17.7,22 23.2,16.2 Z" fill="#3e4347"/>
      <g fill="#94989b">
        <path d="M 16.7,5.1 6.9,15.2 c -0.4,0.4 -0.4,1 0,1.3 l 3.7,3.8 3.7,3.8 c 0.4,0.4 0.9,0.4 1.3,0 L 25.4,14 c 0.4,-0.4 0.4,-1 0,-1.3 L 18,5.1 c -0.3,-0.4 -0.9,-0.4 -1.3,0"/>
        <path d="m 0.3,22 c -0.4,0.4 -0.4,1 0,1.3 L 7.6,31 c 0.4,0.4 1,0.4 1.4,0 0,0 2,-2.1 2.1,-2.2 L 2.5,19.9 C 2.3,19.9 0.3,22 0.3,22"/>
      </g>
      <g fill="#3e4347">
        <path d="M 10.5,20.4 6.8,16.6 c 0,0 1.2,2.1 -2,2.5 -1.3,0.2 -2.1,0.4 -2.5,0.8 l 8.6,8.9 c 0.4,-0.5 0.6,-1.3 0.8,-2.6 0.4,-3.3 2.4,-2 2.4,-2 l -3.6,-3.8"/>
        <path d="M 39.6,4.3 C 29.5,-6 18.4,5.5 18.4,5.5 l 6.5,6.7 c 0,0 6.3,-8.5 14.2,-6.1 0.9,0.3 1.7,0.7 2,0.5 C 41.5,6.3 40.3,5 39.6,4.3"/>
      </g>
      <path d="m 26,24.8 -3.6,3.7 c 0,0 1.9,3 5.1,6.3 3.5,3.6 8.2,5.7 12.9,10.5 7,7.2 12.8,15 14.9,17.9 0.8,1.1 0.9,1 1.9,0 l 3,-3.1 L 26,24.8" fill="#f2b200"/>
      <path d="m 26,24.8 3.6,-3.7 c 0,0 2.9,1.9 6.1,5.2 3.5,3.6 5.5,8.5 10.2,13.3 7,7.2 14.5,13.2 17.4,15.4 1.1,0.8 1,1 0,2 l -3,3.1 L 26,24.8" fill="#ffce31"/>
    </g>
    <g transform="matrix(0.68240573,-0.68240574,-0.68240574,-0.68240573,33.571484,69.565646)" id="sickle">
      <g transform="matrix(0.66455306,-0.10172563,0.41976915,-0.68368032,18.488639,45.755465)">
        <path transform="matrix(-1.9749282,0.50497638,-0.72539892,1.9050299,-7.7069083,35.269581)" d="m -32.367188,-7.8339844 c 0,0 -0.329571,0.9272748 -0.621093,2.1171875 -0.632134,3.0351608 2.551897,5.81820284 4.017177,7.0844794 1.000548,0.8863868 2.468729,2.1862954 4.262119,4.0394895 1.743267,1.8014 3.234646,2.2988875 7.369135,3.7744688 l 0.242188,-0.2773437 1.058594,-1.2246094 c -6.582591,-4.7917178 -7.696882,-5.7279184 -10.563205,-8.0699363 -2.866322,-2.3420179 -5.447613,-6.0470334 -5.764909,-7.443736 z" fill="#94989b"/>
        <path transform="matrix(-1.9749282,0.50497638,-0.72539892,1.9050299,-7.7069083,35.269581)" d="m -17.339844,9.1816406 c -3.57505,-2.3284724 -6.760707,-4.8654102 -7.87496,-5.6209625 -1.114253,-0.7555522 -3.391867,-2.93515365 -4.392415,-3.82154045 -1.511168,-1.36375265 -2.7316,-3.12758385 -3.381056,-5.45593475 -0.549475,2.2428075 -0.86731,5.78217094 2.089843,8.359375 5.848624,5.1687293 12.666016,7.5605471 12.666016,7.5605471 z" fill="#b8c2c4"/>
      </g>
      <g>
        <path transform="matrix(-0.70710678,-0.70710678,-0.70710678,0.70710678,85.787272,43.60599)" d="m 48.476562,1.0839844 -0.02734,18.3144536 h -0.01758 l 0.0098,6.199218 -0.0098,6.197266 h 0.01758 l 0.04687,31.83789 3.880859,0.121094 c 1.272661,0.01829 1.40009,0.01841 1.226563,-1.193359 -0.463351,-3.188966 -1.611936,-11.860717 -1.609375,-20.898438 0.02322,-6.046053 1.738953,-10.348326 1.740234,-14.867187 -4.21e-4,-0.412765 -0.01136,-0.806694 -0.02344,-1.197266 0.01212,-0.391168 0.02302,-0.785782 0.02344,-1.199218 -0.0013,-4.518861 -1.717012,-8.821134 -1.740234,-14.867188 -8.69e-4,-3.0193283 0.234244,-5.7004183 0.421875,-8.4472656 z" fill="#f2b200"/>
        <path transform="matrix(-0.70710678,-0.70710678,-0.70710678,0.70710678,85.787272,43.60599)" d="m 44.455078,1.0839844 c 0.187978,2.8029888 0.413181,5.5642078 0.414063,8.6757812 0.02322,6.0460534 -1.759093,10.4635624 -1.757813,14.9824224 -3e-4,0.295023 0.0095,0.570306 0.01563,0.853515 -0.0062,0.283475 -0.01591,0.560157 -0.01563,0.855469 -0.0013,4.518861 1.781035,8.934414 1.757813,14.980469 -0.0026,9.037718 -1.080208,17.61463 -1.572266,20.853515 -0.208271,1.206286 -0.01875,1.272731 1.253906,1.291016 l 3.88086,0.121094 V 31.794922 19.398438 1.0839844 Z" fill="#ffce31"/>
      </g>
    </g>
  </g>
</svg>