<svg xmlns="http://www.w3.org/2000/svg" viewBox="0 0 64 64">
  <title>White Sun With Rays</title>
  <path fill="#f2b200" d="M 0,0 H 64 V 64 H 0 Z"/>
  <g fill="#ffdf99" transform="translate(-0.2)" id="sun">
    <circle cx="32.200001" cy="43.767712" r="10.7"/>
    <path d="m 3.7000022,15.967697 c 2.2999986,4.500003 5.5999994,8.400003 9.1999998,11.800002 3.299998,3.200001 7.2,6.399999 11.500001,8.200001 -1.899975,-4.60001 -5.400002,-8.800001 -8.900001,-12.3 -3.6,-3.500001 -7.7,-7.100001 -12.3999992,-9.000002 0.1999976,0.400001 0.4000035,0.9 0.6000004,1.299999"/>
    <path d="m 42.4,31.667698 c -0.9,1.4 -1.7,2.8 -2.4,4.3 4.6,-1.9 8.8,-5.5 12.3,-8.9 3.5,-3.5 7,-7.6 8.9,-12.3 -3.6,1.5 -6.9,4.1 -9.9,6.6 -3.3,3 -6.4,6.4 -8.9,10.3"/>
    <path d="m 63.8,41.667698 c -3.7,-0.4 -7.4,-0.4 -11,0 -3.2,0.3 -6.6,0.8 -9.5,2.1 4.7,2 10.3,2.4 15.4,2.4 1.4,0 2.7,-0.1 4.1,-0.2 0.2,0 1.4,-0.1 1.4,-0.2 v -0.6 -2.2 c 0,-0.6 0.2,-1.2 -0.4,-1.3"/>
    <path d="m 61,30.467698 c -3.5,1 -7,2.3 -10.3,4 -2.9,1.4 -5.8,3.1 -8.1,5.4 5.1,0.2 10.5,-1.5 15.2,-3.3 1.4,-0.5 2.7,-1.1 4.1,-1.8 0.6,-0.3 2.3,-0.8 2.3,-1.5 v -3.5 c -1.1,0.2 -2.2,0.4 -3.2,0.7"/>
    <path d="m 0.6,45.867698 c 3.7,0.4 7.4,0.4 11,0 3.2,-0.3 6.5,-0.8 9.5,-2.1 -4.7,-2 -10.3,-2.4 -15.4,-2.4 -1.4,0 -2.7,0.1 -4.1,0.2 -0.1,0 -1.4,0.1 -1.4,0.2 v 2.9 c 0,0.5 -0.2,1.1 0.4,1.2"/>
    <path d="m 2.4,32.767698 c 3.2,1.8 6.6,3.3 10.1,4.5 3,1 6.3,1.9 9.5,1.9 -2.6,-2.8 -6.1,-4.9 -9.4,-6.6 -3.9,-2 -8.1,-3.7 -12.4,-4.7 v 3.6 c 0,0.3 1.9,1.2 2.2,1.3"/>
    <path d="m 16.508035,7.177372 c 0.402845,5.037628 1.959183,9.903614 3.984027,14.422464 1.824213,4.21927 4.202759,8.668149 7.486611,11.976673 0.005,-4.976944 -1.621337,-10.196632 -3.515523,-14.769601 -1.986574,-4.61124 -4.39682,-9.5062072 -8.011954,-13.0601891 0.0317,0.4460885 0.02514,0.9845663 0.05684,1.4306531"/>
    <path d="m 31.705027,3.9575887 c -1.555638,4.8083256 -1.979901,9.8994933 -1.838478,14.8492403 0.07071,4.596194 0.565686,9.616652 2.333453,13.930005 C 34.109215,28.140651 34.604164,22.695916 34.604163,17.74617 34.533453,12.725711 34.1799,7.2809919 32.200002,2.6140867 32.058578,3.0383498 31.846451,3.533328 31.705028,3.957589"/>
    <path d="m 42.4,31.667698 c -0.9,1.4 -1.7,2.8 -2.4,4.3 4.6,-1.9 8.8,-5.5 12.3,-8.9 3.5,-3.5 7,-7.6 8.9,-12.3 -3.6,1.5 -6.9,4.1 -9.9,6.6 -3.3,3 -6.4,6.4 -8.9,10.3"/>
    <path d="m 46.977375,6.7985343 c -3.277289,3.8469947 -5.617563,8.3882637 -7.381092,13.0153547 -1.69356,4.273388 -3.157507,9.101106 -3.174952,13.76262 3.522766,-3.515696 6.063649,-8.356566 7.957834,-12.929536 1.855919,-4.665359 3.612883,-9.830925 3.569643,-14.9002539 -0.293017,0.3378473 -0.678417,0.7139701 -0.971432,1.0518159"/>
  </g>
  <g fill="#ffdf99" transform="matrix(-1,0,0,1,136.91657,-10.305085)">
    <g transform="matrix(1,0,0,0.55932203,72.916575,38.508475)" fill="#83bf4f">
      <path d="m 0,32 c 0.1,0 0,0 0,0 m 50.2,2.5 C 47,33.1 43.6,32 40,32 36.4,32 33.2,33.7 30.4,34.4 14,38.7 0,32 0,32 V 64 H 64 V 36.3 c -4.4,0.5 -9.2,-0.1 -13.8,-1.8"/>
    </g>
  </g>
</svg>