<svg xmlns="http://www.w3.org/2000/svg" viewBox="0 0 64 64">
    <title>female sign</title>
  <circle cx="32" cy="32" r="30" fill="#4fd1d9"/>
  <path fill="#ffffff" stroke="#ffffff" stroke-miterlimit="10" d="m 32.445312,10.646484 c -0.332144,-0.01326 -0.665103,-0.0097 -0.996093,0.0098 -0.882642,0.05186 -1.75708,0.219157 -2.605469,0.501953 2.12e-4,-0.0028 -1.41e-4,-0.005 0,-0.0078 -1.525209,0.526933 -2.961124,1.341963 -4.152344,2.414062 -0.0069,0.0062 -0.01266,0.01329 -0.01953,0.01953 l -0.002,0.002 c -2.61524,3.040314 -3.322591,6.858397 -2.191406,10.251953 -0.0028,-2.13e-4 -0.005,1.41e-4 -0.0078,0 0.526933,1.525179 1.340029,2.959189 2.412109,4.15039 l 0.01953,0.02148 0.002,0.002 c 1.722432,1.481615 3.695838,2.328419 5.699219,2.597656 h -0.105469 c -0.01651,2.211009 -0.02124,4.421855 -0.03711,6.632813 h 0.0039 v 2.777343 h -8.927735 c -1.871568,0 -1.943551,2.898051 0,2.96875 h 8.927735 v 8.765625 c 0.07198,0.636299 0.429711,1.132425 0.933594,1.203125 0.503883,0.212099 1.00979,0.140608 1.513671,-0.21289 l 0.285157,-0.283203 c 0.07198,-0.0707 0.07422,-0.06954 0.07422,-0.210938 0.07198,-0.0707 2.8e-4,-0.14219 0.07227,-0.212891 0,-0.141399 0.07198,-0.212503 0,-0.283203 v -8.765625 h 8.925781 c 1.871564,0 1.943549,-2.89805 0,-2.96875 H 33.34375 c 0.01544,-0.925543 0.01504,-1.851799 0.02734,-2.777343 v -6.619141 l -0.166016,-0.002 c 0.659666,-0.08233 1.313567,-0.207386 1.951172,-0.419922 -2.12e-4,0.0037 2.12e-4,0.008 0,0.01172 1.52521,-0.526932 2.961122,-1.341964 4.152344,-2.414063 l 0.02148,-0.02148 v -0.002 c 2.615239,-3.040315 3.322591,-6.858399 2.191406,-10.251953 0.0028,2.12e-4 0.005,-1.44e-4 0.0078,0 -0.526934,-1.52518 -1.341981,-2.961143 -2.414063,-4.152344 -0.0062,-0.0069 -0.01329,-0.01266 -0.01953,-0.01953 h -0.002 c -1.995207,-1.71625 -4.323429,-2.612243 -6.648438,-2.705078 z m -0.144531,2.564454 c 1.928486,0.06873 3.704803,0.953726 4.992188,2.304687 0.01154,0.01029 0.02168,0.01891 0.0332,0.0293 0.05396,0.05976 0.09876,0.119583 0.15039,0.179687 0.327625,0.369966 0.623403,0.766283 0.873047,1.19336 0.215307,0.353857 0.403256,0.7108 0.554688,1.068359 0.02983,0.06467 0.05472,0.128477 0.08203,0.19336 0.03156,0.08067 0.06342,0.161485 0.0918,0.242187 0.154502,0.415089 0.259808,0.834526 0.318359,1.251953 0.0097,0.06147 0.01545,0.122277 0.02344,0.183594 0.01044,0.09642 0.02169,0.192848 0.02734,0.289062 0.190658,2.184093 -0.682187,4.244081 -2.150391,5.708985 -0.03974,0.03965 -0.08636,0.07257 -0.126953,0.111328 -0.01252,0.01408 -0.02055,0.02891 -0.0332,0.04297 -0.06385,0.05763 -0.129128,0.105201 -0.19336,0.160156 -0.360644,0.317878 -0.745451,0.607454 -1.160156,0.851562 -0.363468,0.221924 -0.730179,0.411392 -1.097656,0.566407 -0.05338,0.02452 -0.106638,0.04751 -0.160156,0.07031 -0.09066,0.03581 -0.182748,0.07172 -0.273438,0.103516 -0.412473,0.1531 -0.825462,0.258031 -1.240234,0.316406 -0.06464,0.01023 -0.128882,0.01511 -0.19336,0.02344 -0.09034,0.0097 -0.181325,0.02187 -0.271484,0.02734 -2.250147,0.200354 -4.363735,-0.734411 -5.837891,-2.28125 -0.01256,-0.01119 -0.02651,-0.01997 -0.03906,-0.03125 -0.0553,-0.06138 -0.101401,-0.123869 -0.154297,-0.185547 -0.329553,-0.373012 -0.624632,-0.774283 -0.875,-1.205078 -0.212121,-0.351393 -0.399047,-0.705474 -0.548828,-1.060547 -0.02452,-0.05338 -0.04555,-0.106638 -0.06836,-0.160156 -0.03581,-0.09066 -0.07172,-0.180794 -0.103516,-0.271484 -0.1531,-0.412472 -0.258031,-0.827415 -0.316406,-1.242188 -0.01022,-0.06464 -0.01706,-0.12888 -0.02539,-0.193359 -0.0097,-0.09034 -0.02187,-0.181324 -0.02734,-0.271485 -0.200364,-2.250257 0.736226,-4.363725 2.283203,-5.83789 0.01029,-0.01154 0.01892,-0.02364 0.0293,-0.03516 0.05231,-0.04721 0.107594,-0.08543 0.160157,-0.13086 0.375299,-0.33491 0.778309,-0.636317 1.21289,-0.890625 0.354391,-0.215741 0.710251,-0.404976 1.06836,-0.55664 0.06466,-0.02983 0.13043,-0.05278 0.195312,-0.08008 0.08067,-0.03156 0.161486,-0.06537 0.242188,-0.09375 0.415089,-0.154502 0.832571,-0.257855 1.25,-0.316406 0.06147,-0.0097 0.124229,-0.01545 0.185546,-0.02344 0.09642,-0.01045 0.190898,-0.02365 0.28711,-0.0293 0.280742,-0.02451 0.56044,-0.0313 0.835937,-0.02148 z"/>
</svg>