<svg xmlns="http://www.w3.org/2000/svg" viewBox="0 0 64 64">
    <title>male sign</title>
  <circle cx="32" cy="32" r="30" fill="#4fd1d9"/>
  <path fill="#ffffff" stroke="#ffffff" stroke-miterlimit="10" d="M 32 16 C 30.1 16 30.1 18.900391 32 18.900391 L 43 18.900391 L 30.660156 31.240234 L 30.777344 31.359375 C 30.252675 30.951135 29.700749 30.57596 29.099609 30.275391 C 29.102415 30.272936 29.104631 30.270043 29.107422 30.267578 C 27.656339 29.561689 26.065254 29.123295 24.464844 29.039062 L 24.435547 29.039062 L 24.433594 29.039062 C 20.434512 29.339636 17.234503 31.540759 15.634766 34.740234 C 15.632924 34.73813 15.630753 34.736471 15.628906 34.734375 C 14.92304 36.185437 14.484621 37.776571 14.400391 39.376953 C 14.399919 39.386253 14.400836 39.395027 14.400391 39.404297 L 14.400391 39.40625 C 14.700965 43.405331 16.900134 46.605341 20.099609 48.205078 C 20.097501 48.206923 20.095849 48.209087 20.09375 48.210938 C 21.544833 48.916826 23.135918 49.355221 24.736328 49.439453 C 24.745613 49.439925 24.754395 49.439008 24.763672 49.439453 L 24.765625 49.439453 C 28.764706 49.138879 31.964716 46.939709 33.564453 43.740234 C 33.566298 43.742343 33.568464 43.743995 33.570312 43.746094 C 34.276179 42.295032 34.71655 40.70585 34.800781 39.105469 L 34.800781 39.076172 L 34.800781 39.074219 C 34.630497 36.808616 33.833647 34.814014 32.607422 33.207031 L 32.681641 33.28125 C 36.828956 29.195403 40.983028 25.116581 45.099609 21 L 45.099609 32 C 45.099609 33.9 48 33.9 48 32 L 48 17.400391 C 47.9 16.600391 47.399609 16 46.599609 16 L 32 16 z M 24.513672 31.835938 C 24.5698 31.836001 24.625528 31.844408 24.681641 31.845703 C 24.70045 31.844607 24.717443 31.840827 24.736328 31.839844 C 24.82223 31.844272 24.90205 31.856725 24.986328 31.863281 C 25.466116 31.893516 25.942352 31.961402 26.408203 32.082031 C 26.822138 32.182117 27.21648 32.306797 27.585938 32.457031 C 27.641013 32.477438 27.694081 32.499761 27.748047 32.521484 C 27.837479 32.560263 27.927058 32.598981 28.013672 32.640625 C 28.413592 32.824029 28.780668 33.042911 29.115234 33.294922 C 29.168174 33.333404 29.218045 33.374361 29.269531 33.414062 C 29.340254 33.4711 29.412848 33.526055 29.480469 33.585938 C 31.213235 35.035361 32.045536 37.191959 31.994141 39.328125 C 31.995108 39.344914 31.999122 39.360103 32 39.376953 C 31.995746 39.459466 31.984734 39.536172 31.978516 39.617188 C 31.94779 40.113976 31.871722 40.606236 31.744141 41.087891 C 31.645659 41.486356 31.527976 41.869577 31.382812 42.226562 C 31.362403 42.281642 31.340079 42.334706 31.318359 42.388672 C 31.279579 42.478102 31.24086 42.567683 31.199219 42.654297 C 31.015815 43.054217 30.796933 43.421293 30.544922 43.755859 C 30.506442 43.808799 30.465481 43.85867 30.425781 43.910156 C 30.368741 43.980876 30.313789 44.053473 30.253906 44.121094 C 28.804411 45.853946 26.646036 46.686252 24.509766 46.634766 C 24.494327 46.635648 24.480333 46.637865 24.464844 46.638672 C 24.394477 46.635045 24.32906 46.624185 24.259766 46.619141 C 23.757571 46.590584 23.258602 46.518098 22.771484 46.390625 C 22.36834 46.292589 21.98351 46.173322 21.623047 46.027344 C 21.556229 46.002711 21.492922 45.97383 21.427734 45.947266 C 21.348373 45.912536 21.268537 45.878793 21.191406 45.841797 C 20.788644 45.657534 20.418599 45.435405 20.082031 45.181641 C 20.031712 45.145032 19.984552 45.106072 19.935547 45.068359 C 19.859982 45.007564 19.782969 44.9488 19.710938 44.884766 C 17.984191 43.435286 17.153701 41.282497 17.205078 39.150391 C 17.204196 39.134948 17.201979 39.120962 17.201172 39.105469 C 17.205317 39.025058 17.216663 38.950105 17.222656 38.871094 C 17.252601 38.377823 17.323755 37.88867 17.449219 37.410156 C 17.547184 37.007696 17.666746 36.623583 17.8125 36.263672 C 17.83713 36.196852 17.866008 36.133547 17.892578 36.068359 C 17.927308 35.988999 17.961048 35.909162 17.998047 35.832031 C 18.18231 35.429269 18.404439 35.059224 18.658203 34.722656 C 18.694813 34.672336 18.733772 34.625176 18.771484 34.576172 C 18.832284 34.500612 18.891044 34.423595 18.955078 34.351562 C 20.364649 32.672359 22.43965 31.833605 24.513672 31.835938 z "/>
</svg>