<svg xmlns="http://www.w3.org/2000/svg" viewBox="0 0 64 64">
    <title>Beamed Eighth Notes</title>
  <g transform="translate(0,-4.2711864)">
    <path d="m 44.25,28.876953 v 3.193359 1.310547 6.570312 14.029297 l 6.5,-7.701171 V 11.724609 h -6.5 v 7.755859 3.164063 3.134766 z" fill="#4d5357"/>
    <path d="m 28.75,11.724609 h -6.5 v 42.298829 c 0,2.140762 1.335613,4.041071 3.273438,5.509765 L 28.75,46.324219 v -5.914063 -9.085937 -7.5 V 19.925781 17.625 Z" fill="#4d5357"/>
    <path d="m 23.530897,46.323823 c -0.963578,-0.4 -2.970404,-0.599609 -4.174876,-0.599609 -10.920549,0 -10.920549,16.599609 0,16.599609 4.737591,0 9.394256,-3.698828 9.394256,-8.298828 z" fill="#4d5357"/>
    <rect y="46.323822" x="22.249451" height="7.7011719" width="6.5008249" fill="#4d5357"/>
    <rect y="46.279022" x="44.249451" height="7.6992192" width="6.5" fill="#4d5357"/>
    <path fill="#4d5357" d="m 45.530072,46.277069 c -0.963578,-0.4 -2.970404,-0.599609 -4.174876,-0.599609 -10.920549,0 -10.920549,16.599609 0,16.599609 4.737591,0 9.394256,-3.698828 9.394256,-8.298828 z"/>
    <rect y="11.724609" x="22.25" height="6.8495436" width="28.5" fill="#4d5357"/>
  </g>
</svg>