<svg xmlns="http://www.w3.org/2000/svg" viewBox="0 0 64 64">
    <title>Beamed Sixteenth Notes</title>
  <g transform="translate(69.911561,31.236054)">
    <path d="m -19.162109,-28.912109 -28.5,9.40039 v 42.298828 c 0,2.140763 1.335614,4.041072 3.273437,5.509766 l 3.226563,-13.208984 V 0.08789062 l 15.5,-5.19921872 V 15.488281 l 6.5,-7.7011716 z m -6.5,9.90039 v 6.298828 l -15.5,5.3007816 v -6.1992186 z" fill="#4d5357"/>
    <path d="m -46.380664,15.087769 c -0.963578,-0.4 -2.970404,-0.599609 -4.174876,-0.599609 -10.920549,0 -10.920549,16.599609 0,16.599609 4.737591,0 9.394256,-3.698828 9.394256,-8.298828 z" fill="#4d5357"/>
    <rect y="15.087769" x="-47.662109" height="7.7011719" width="6.5008249" fill="#4d5357"/>
    <rect y="7.7871089" x="-25.662109" height="7.6992192" width="6.5" fill="#4d5357"/>
    <path fill="#4d5357" d="m -24.381489,7.7851561 c -0.963578,-0.4 -2.970404,-0.599609 -4.174876,-0.599609 -10.920549,0 -10.920549,16.5996089 0,16.5996089 4.737591,0 9.394256,-3.698828 9.394256,-8.298828 z"/>
  </g>
</svg>