<svg xmlns="http://www.w3.org/2000/svg" viewBox="0 0 64 64">
    <title>Music Sharp Sign</title>
  <path d="m 49.615563,19.001752 -0.01355,-9.6479906 -6.60245,2.4598256 -0.01355,-9.6479916 -6.602452,2.4598248 0.01355,9.6479898 -8.767192,3.266327 -0.01355,-9.6479916 -6.60245,2.4598256 0.01354,9.647991 -6.602453,2.459824 0.01355,9.647991 6.602452,-2.459825 -0.05412,12.890871 -6.602451,2.459825 0.01355,9.647991 6.602452,-2.459825 0.01355,9.647991 6.60245,-2.459825 -0.01355,-9.647991 8.767194,-3.266325 0.01355,9.647991 6.602454,-2.459826 -0.01355,-9.647991 6.602451,-2.459825 -0.01355,-9.647989 -6.602452,2.459824 0.05411,-12.890872 6.602447,-2.459824 m -13.259014,17.81052 -8.767192,3.266326 0.05411,-12.89087 8.767192,-3.266325 -0.05412,12.890869" fill="#4d5357"/>
</svg>