<svg xmlns="http://www.w3.org/2000/svg" viewBox="0 0 64 64">
    <title>hammer and pick</title>
  <g id="club-hammer" transform="translate(0.67796612,1.5340622)">
    <path fill="#89664c" d="m 4.4864408,10.4 c -0.9,0.9 -0.9,2.3 0,3.1 l 43.0000012,43 c 0.9,0.9 2.3,0.9 3.1,0 l 3.1,-3.1 c 0.9,-0.9 0.9,-2.3 0,-3.1 l -43,-43 C 9.7864416,6.4 8.3864408,6.4 7.5864408,7.3 l -3.1,3.1"/>
    <path d="m 26.586442,11.4 c 0.9,0.9 0.9,2.3 0,3.2 l -14.8,14.8 c -0.9,0.9 -2.3000008,0.9 -3.2000012,0 l -6.7,-6.7 c -0.90000002,-0.9 -0.90000002,-2.3 0,-3.2 L 16.686442,4.7 c 0.9,-0.9 2.3,-0.9 3.2,0 l 6.7,6.7" fill="#94989b"/>
  </g>
  <g id="pick" transform="matrix(-0.93216717,0,0,0.93216717,67.856249,0.83855062)">
    <path d="m 55.2,61.5 c 2.3,2.3 8.6,-4 6.3,-6.3 L 20.8,14.5 14.5,20.8 Z" fill="#89664c"/>
    <path d="m 56,60.6 c 1.6,1.7 6.3,-3 4.7,-4.7 l -41.677076,-41.577077 -4.367201,5.0328 z" fill="#ad8366"/>
    <path d="M 8.3,14.6 C 6,12.3 12.3,6 14.6,8.3 l 6.2,6.2 -6.3,6.3 -6.2,-6.2" fill="#89664c"/>
    <path d="m 9.2,13.8 c -1.7,-1.6 3,-6.3 4.7,-4.7 l 6.2,6.2 -4.7,4.7 -6.2,-6.2" fill="#ad8366"/>
    <g id="blade-with-binding" transform="matrix(0.6975959,0,0,0.6975959,5.080389,5.080389)">
      <g id="pick-blade">
        <path d="M 20.9,20.9 C 32.1,9.7 45.2,3.5 54.8,4.1 45.8,-1.2 29.6,3.9 16.8,16.8 3.9,29.6 -1.2,45.8 4.1,54.8 3.5,45.2 9.7,32.1 20.9,20.9" fill="#94989b"/>
        <path d="M 21.9,21.9 C 33.1,10.7 45.8,4.1 54.8,4.1 46.6,-0.4 31.1,5.4 18.3,18.2 5.4,31.1 -0.4,46.6 4.1,54.7 4.1,45.8 10.7,33.1 21.9,21.9" fill="#a6aeb2"/>
      </g>
      <path fill="#5c6368" d="m 27.7,15 c 0.9,0.9 0.9,2.3 0,3.2 l -9.6,9.6 c -0.9,0.9 -2.3,0.9 -3.2,0 L 10.1,23 c -0.9,-0.9 -0.9,-2.3 0,-3.2 l 9.6,-9.6 c 0.9,-0.9 2.3,-0.9 3.2,0 l 4.8,4.8"/>
      <path fill="#474d51" d="m 26.3,15.9 c 0.8,0.8 0.8,2 0.1,2.7 l -7.9,7.9 c -0.7,0.7 -2,0.7 -2.7,-0.1 L 11.6,22 c -0.8,-0.8 -0.8,-2 -0.1,-2.7 l 7.9,-7.8 c 0.7,-0.7 2,-0.7 2.7,0.1 l 4.2,4.3"/>
    </g>
  </g>
</svg>