<svg xmlns="http://www.w3.org/2000/svg" viewBox="0 0 64 64">
    <title>alembic</title>
    <path fill="#a1d8f2" d="M60.5 26.9l1.5-2.7S42.2 12.1 35.2 10.5c-1.5-.4-3-.6-4.6-.6-10.4 0-18.8 8.6-18.8 19.2s8.4 19.2 18.8 19.2 18.8-8.6 18.8-19.2c0-2.1-.3-4.1-1-6l12.1 3.8" opacity=".5"/>
    <path fill="#bd80ff" d="M14.6 29c0 9.1 7.2 16.6 16.2 16.6S46.9 38.1 46.9 29H14.6z"/>
    <g fill="#94989b">
        <path d="M15.5 34.6h-3.6L2 62h1.8zM46 34.6h3.6L59.4 62h-1.8zM31.6 62h-1.8l-.9-27.4h3.6z"/>
    </g>
    <path fill="#c5ccd6" d="M9.2 36.5c0 1 .8 1.8 1.8 1.8h39.5c1 0 1.8-.8 1.8-1.8s-.8-1.8-1.8-1.8H11c-1-.1-1.8.8-1.8 1.8"/>
</svg>