<svg xmlns="http://www.w3.org/2000/svg" viewBox="0 0 64 64">
    <title>Squared Key</title>
  <g transform="matrix(0.86921813,0.00685253,-0.00685253,0.86921813,-0.56337251,8.2325817)">
    <path d="M 57,7 C 50.3,0.3 39.5,0.3 32.9,7 c -5.5,5.5 -6.4,13.8 -3,20.3 L 5.5,52 2,60.4 3.6,62 9.9,61.4 36.7,34.2 c 6.5,3.6 14.8,2.6 20.2,-2.9 C 63.7,24.6 63.7,13.7 57,7 m -4.8,12.2 c -2,2 -5.3,2 -7.3,0 -2,-2 -2,-5.3 0,-7.4 2,-2 5.3,-2 7.3,0 2.1,2 2.1,5.3 0,7.4" fill="#eda454"/>
    <path d="M 15.8,57.5 17.2,56 v -2 l -7.3,7.4 4.4,-0.5 1.5,-1.5 z M 26.1,47 27.5,45.5 v -2 l -8.8,9 h 2 L 22.1,51 h 2 l 2,-2 z m 4.4,-15.4 c 0.5,-0.5 0.2,-0.7 0,-1 -0.3,-0.3 -0.4,-0.6 -0.9,0 L 7.9,52.5 c -0.5,0.5 -0.2,0.7 0,1 0.3,0.3 0.4,0.6 0.9,0 L 30.5,31.6 m 3,3 c 0.5,-0.5 0.2,-0.7 0,-1 -0.3,-0.3 -0.4,-0.6 -0.9,0 L 10.8,55.5 c -0.5,0.5 -0.2,0.7 0,1 0.3,0.3 0.4,0.6 0.9,0 L 33.5,34.6 M 56,8 C 49.9,1.9 40,1.9 33.9,8 29.3,12.6 28.2,19.4 30.5,25.1 28.4,19.7 29.6,13.4 33.9,9.1 39.7,3.2 49.2,3.2 55,9 c 5.8,5.9 5.8,15.4 0,21.2 -4.3,4.3 -10.6,5.4 -15.9,3.4 5.7,2.3 12.4,1.2 17,-3.4 6,-6.1 6,-16.1 -0.1,-22.2" fill="#cc7f2b"/>
  </g>
  <path fill="#3e4347" d="m 10.099999,7.824176 c 0,-0.6 0.5,-1.1 1.1,-1.1 h 44.9 c 0.6,0 1.1,0.5 1.1,1.1 v 44.9 c 0,0.6 -0.5,1.1 -1.1,1.1 h -30.7 l -6.1,6.7 h 42.5 c 1.2,0 2.2,-1 2.2,-2.2 v -56.1 c 0,-1.3 -1,-2.3 -2.2,-2.3 H 5.6999994 c -1.2,0 -2.2,1 -2.2,2.2 v 43.7 l 6.5999996,-6.392979 0,-31.607021"/>
</svg>