<svg xmlns="http://www.w3.org/2000/svg" viewBox="0 0 64 64">
  <title>Black Snowman</title>
  <g transform="translate(-0.60000038)">
    <circle r="17" cy="45" cx="32.5" fill="#d0d0d0"/>
    <path d="m 32.5,30 c -8.3,0 -15,6.7 -15,15 0,8.3 6.7,15 15,15 8.3,0 15,-6.7 15,-15 0,-8.3 -6.7,-15 -15,-15" fill="#ffffff"/>
    <circle r="13" cy="25.5" cx="32.5" fill="#d0d0d0"/>
    <path d="m 32.5,14.5 c -6.1,0 -11,4.9 -11,11 0,6.1 4.9,11 11,11 6.1,0 11,-4.9 11,-11 0,-6 -4.9,-11 -11,-11" fill="#ffffff"/>
    <circle r="2.5" cy="26.4" cx="32.5" fill="#ff8736"/>
    <g fill="#3e4347">
      <circle r="2" cy="21.799999" cx="27.1"/>
      <circle r="2" cy="21.799999" cx="37.900002"/>
      <path d="m 30.9,46.3 -1.1,-3.2 2.8,-2 2.7,2 -1,3.2 z m 0,9.8 -1.1,-3.2 2.8,-2 2.7,2 -1,3.2 z M 32.5,34 c -3.1,0 -6,-1.3 -8.1,-3.6 -1.2,-1.3 0.3,-2.6 1.5,-1.4 1.7,1.9 4.2,2.9 6.7,2.9 2.5,0 4.9,-1.1 6.7,-2.9 1.2,-1.3 2.7,0 1.5,1.4 -2.2,2.2 -5.2,3.6 -8.3,3.6"/>
    </g>
    <path d="m 21.2,31.9 c -1.5,-1.1 -3.6,3.3 -2.8,3.7 11.4,6 21,1.5 28.4,0.1 0.9,0 -1.4,-4.2 -2.9,-3.7 -13.1,4.2 -17.6,3.4 -22.7,-0.1" fill="#cc2e45"/>
    <path d="m 43.8,48.9 c -2.6,-1 -7,1.3 -6.4,0 1.7,-3.4 3.5,-12.6 0.8,-15.3 -1.1,-1.1 4.2,-2.6 5.4,-1.6 3.1,2.9 1.9,17.5 0.2,16.9" fill="#ed4c5c"/>
  </g>
  <g>
    <path d="m 15.797202,11.219343 3.15,-4.9499999 -4.95,3.15 -1.35,-8.85000003 -1.35,8.85000003 -4.9500001,-3.15 3.15,4.9499999 -8.84999995,1.35 8.84999995,1.35 -3.15,4.95 4.9500001,-3.15 1.35,8.85 1.35,-8.85 4.95,3.15 -3.15,-4.95 8.85,-1.35 z" fill="#a2cbdb"/>
    <path d="m 56.459246,8.6628954 2.55,-3.75 -3.75,2.55 -1.05,-6.75000002 -1.05,6.75000002 -3.75,-2.55 2.55,3.75 -6.75,1.05 6.75,1.0499996 -2.55,3.75 3.75,-2.55 1.05,6.75 1.05,-6.75 3.75,2.55 -2.55,-3.75 6.75,-1.0499996 z" fill="#a2cbdb"/>
    <path d="m 13.724331,51.69781 2.85,-4.35 -4.35,2.85 -1.2,-7.8 -1.2000001,7.8 -4.35,-2.85 2.85,4.35 -7.8,1.2 7.8,1.2 -2.85,4.35 4.35,-2.85 1.2000001,7.8 1.2,-7.8 4.35,2.85 -2.85,-4.35 7.8,-1.2 z" fill="#a2cbdb"/>
    <path fill="#a2cbdb" d="m 55.675892,27.694029 2.85,-4.35 -4.35,2.85 -1.2,-7.8 -1.2,7.8 -4.35,-2.85 2.85,4.35 -7.8,1.2 7.8,1.2 -2.85,4.35 4.35,-2.85 1.2,7.8 1.2,-7.8 4.35,2.85 -2.85,-4.35 7.8,-1.2 z"/>
    <path fill="#a2cbdb" d="m 54.269221,49.285036 3.15,-4.95 -4.95,3.15 -1.35,-8.85 -1.35,8.85 -4.95,-3.15 3.15,4.95 -8.85,1.35 8.85,1.35 -3.15,4.95 4.95,-3.15 1.35,8.85 1.35,-8.85 4.95,3.15 -3.15,-4.95 8.85,-1.35 z"/>
    <path fill="#a2cbdb" d="m 13.957139,31.895912 2.55,-3.75 -3.75,2.55 -1.05,-6.75 -1.05,6.75 -3.7499999,-2.55 2.55,3.75 -6.75,1.05 6.75,1.05 -2.55,3.75 3.7499999,-2.55 1.05,6.75 1.05,-6.75 3.75,2.55 -2.55,-3.75 6.75,-1.05 z"/>
    <path d="M 38.531349,6.5742576 40.651178,3.456861 37.533782,5.5766907 36.660911,-0.03462324 35.78804,5.5766907 32.670643,3.456861 l 2.11983,3.1173966 -5.611314,0.8728711 5.611314,0.8728712 -2.11983,3.1173961 3.117397,-2.1198292 0.872871,5.6113142 0.872871,-5.6113142 3.117396,2.1198292 -2.119829,-3.1173961 5.611314,-0.8728712 z" fill="#a2cbdb"/>
  </g>
</svg>