<svg xmlns="http://www.w3.org/2000/svg" viewBox="0 0 64 64">
  <title>Black Truck</title>
  <path d="m 2,50.8 c 0,-1 0.8,-1.9 1.9,-1.9 h 56.2 c 1,0 1.9,0.8 1.9,1.9 v 1.9 c 0,1 -0.8,1.9 -1.9,1.9 H 3.9 C 2.9,54.6 2,53.8 2,52.7 v -1.9" fill="#b2c1c0"/>
  <ellipse cx="-51.700001" cy="55.5" rx="6.5999999" ry="6.5" transform="scale(-1,1)" fill="#3e4347"/>
  <ellipse cx="-51.700001" cy="55.5" rx="3.8" ry="3.7" transform="scale(-1,1)" fill="#b2c1c0"/>
  <ellipse cx="-25.200001" cy="55.5" rx="6.5999999" ry="6.5" transform="scale(-1,1)" fill="#3e4347"/>
  <ellipse cx="-25.200001" cy="55.5" rx="3.8" ry="3.7" transform="scale(-1,1)" fill="#b2c1c0"/>
  <ellipse cx="-11.200001" cy="55.5" rx="6.5999999" ry="6.5" transform="scale(-1,1)" fill="#3e4347"/>
  <ellipse cx="-11.200001" cy="55.5" rx="3.8" ry="3.7" transform="scale(-1,1)" fill="#b2c1c0"/>
  <path d="m 48.9,26.5 c 4.5,0 5.6,0 5.6,7.5 0,5.6 5.6,5.6 5.6,11.2 v 3.7 H 41.3 V 26.5 h 7.6" fill="#62727a"/>
  <path d="M 58.2,43.3 H 56.3 V 47 h 1.9 z" fill="#ffce31"/>
  <path d="m 51.2,39.6 c 1.1,0 1.7,0.8 1.3,1.8 l -1.6,4 c -0.4,1 -1.6,1.7 -2.7,1.7 h -3 c -1.1,0 -2,-0.8 -2,-1.9 v -3.7 c 0,-1 0.9,-1.9 2,-1.9 h 6" fill="#5f606c"/>
  <path d="m 43.2,28.3 h 7.5 c 0,0 1.9,0.2 1.9,2.8 v 4.5 c 0,0 0,2.1 -1.9,2.1 h -7.5 v -9.4" fill="#3e4347"/>
  <circle r="0.89999998" cy="51.700001" cx="-51.700001" transform="scale(-1,1)" fill="#3e4347"/>
  <circle r="0.89999998" cy="53.599998" cx="-54.900002" transform="scale(-1,1)" fill="#3e4347"/>
  <circle r="0.89999998" cy="57.299999" cx="-54.900002" transform="scale(-1,1)" fill="#3e4347"/>
  <circle r="0.89999998" cy="59.200001" cx="-51.700001" transform="scale(-1,1)" fill="#3e4347"/>
  <circle r="0.89999998" cy="57.299999" cx="-48.400002" transform="scale(-1,1)" fill="#3e4347"/>
  <circle r="0.89999998" cy="53.599998" cx="-48.400002" transform="scale(-1,1)" fill="#3e4347"/>
  <circle r="1.9" cx="-51.700001" cy="55.5" id="ellipse925" transform="scale(-1,1)" fill="#62727a"/>
  <g transform="matrix(-1,0,0,1,64,0)" fill="#3e4347">
    <circle cx="38.799999" cy="51.700001" r="0.89999998"/>
    <circle cx="35.5" cy="53.599998" r="0.89999998"/>
    <circle cx="35.5" cy="57.299999" r="0.89999998"/>
    <circle cx="38.799999" cy="59.200001" r="0.89999998"/>
    <circle cx="42" cy="57.299999" r="0.89999998"/>
    <circle cx="42" cy="53.599998" r="0.89999998"/>
  </g>
  <circle r="1.9" cx="-25.200001" cy="55.5" id="ellipse941" transform="scale(-1,1)" fill="#62727a"/>
  <g transform="matrix(-1,0,0,1,64,0)" fill="#3e4347">
    <circle cx="52.799999" cy="51.700001" r="0.89999998"/>
    <circle cx="49.5" cy="53.599998" r="0.89999998"/>
    <circle cx="49.5" cy="57.299999" r="0.89999998"/>
    <circle cx="52.799999" cy="59.200001" r="0.89999998"/>
    <circle cx="56" cy="57.299999" r="0.89999998"/>
    <circle cx="56" cy="53.599998" r="0.89999998"/>
  </g>
  <circle r="1.9" cx="-11.200001" cy="55.5" id="ellipse957" transform="scale(-1,1)" fill="#62727a"/>
  <path d="m 9.5,19 h 26.3 c 3.1,0 5.6,2.5 5.6,5.6 V 48.9 H 3.9 V 24.6 C 3.9,21.5 6.4,19 9.5,19" fill="#5f606c"/>
  <g transform="matrix(-1,0,0,1,64,0)" fill="#3e4347">
    <path d="m 27.3,30.2 v -5.6 c 0,-0.5 0.4,-0.9 0.9,-0.9 h 26.2 c 0.5,0 0.9,0.4 0.9,0.9 v 5.6 h 1.9 v -5.6 c 0,-1.5 -1.3,-2.8 -2.8,-2.8 H 28.2 c -1.6,0 -2.8,1.3 -2.8,2.8 v 5.6 h 1.9 m 28.1,9.4 v 3.7 c 0,0.5 -0.4,0.9 -0.9,0.9 H 28.2 c -0.5,0 -0.9,-0.4 -0.9,-0.9 v -3.7 h -1.9 v 3.7 c 0,1.5 1.3,2.8 2.8,2.8 h 26.2 c 1.6,0 2.8,-1.3 2.8,-2.8 v -3.7 h -1.8"/>
  </g>
  <g transform="matrix(-1,0,0,1,64,0)" fill="#62727a">
    <circle cx="29.200001" cy="25.5" r="0.89999998" fill="#62727a"/>
    <circle cx="53.599998" cy="25.5" r="0.89999998" fill="#62727a"/>
    <circle cx="29.200001" cy="42.400002" r="0.89999998" fill="#62727a"/>
    <circle cx="53.599998" cy="42.400002" r="0.89999998" fill="#62727a"/>
  </g>
</svg>