<svg xmlns="http://www.w3.org/2000/svg" viewBox="0 0 64 64">
    <title>Headstone Graveyard Symbol</title>
  <path fill="#3e4347" d="M0 0h64v64H0z"/>
  <g transform="translate(-35.79661)" id="moon">
    <circle r="9.6000004" cy="14.4" cx="49.400002" fill="#d0d0d0"/>
    <g fill="#94989b">
      <circle r="0.89999998" cy="13.4" cx="42.700001"/>
      <circle r="1.5" cy="10.6" cx="49.299999"/>
      <circle r="1.6" cy="18.1" cx="47"/>
      <circle r="0.69999999" cy="12.1" cx="55.799999"/>
      <circle r="0.60000002" cy="18.6" cx="53.799999"/>
    </g>
  </g>
  <g transform="matrix(0.97221228,0,0,0.97221228,-5.7032117,1.7784161)">
    <path d="M 16.688791,38.449219 A 8.0058842,8.0058842 0 0 0 8.6829316,46.455078 V 64 H 24.69465 V 46.455078 a 8.0058842,8.0058842 0 0 0 -8.005859,-8.005859 z" fill="#94989b"/>
    <path fill="#d0d0d0" d="m 18.180317,38.449219 a 8.0058842,8.0058842 0 0 0 -8.00586,8.005859 V 64 H 26.186176 V 46.455078 a 8.0058842,8.0058842 0 0 0 -8.005859,-8.005859 z"/>
  </g>
  <g transform="translate(-4.5762712)">
    <g transform="matrix(1.0215723,0,0,0.96472167,-12.093007,2.2578131)">
      <path fill="#94989b" d="m 46.986519,38.449219 a 8.0058842,8.0058842 0 0 0 -8.00586,8.005859 V 64 H 54.992378 V 46.455078 a 8.0058842,8.0058842 0 0 0 -8.005859,-8.005859 z"/>
      <path d="m 48.478045,38.449219 a 8.0058842,8.0058842 0 0 0 -8.00586,8.005859 V 64 H 56.483904 V 46.455078 a 8.0058842,8.0058842 0 0 0 -8.005859,-8.005859 z" fill="#d0d0d0"/>
    </g>
    <g>
      <path d="m 34.296928,25.135593 v 4.426779 h -3.763672 v 3.115234 h 3.763672 V 39.4862 h 3.115234 v -6.808594 h 3.763672 v -3.115234 h -3.763672 v -4.426779 z" fill="#94989b"/>
      <path fill="#d0d0d0" d="m 35.873203,25.135593 v 4.426779 h -3.763672 v 3.115234 h 3.763672 V 39.4862 h 3.115234 v -6.808594 h 3.763672 v -3.115234 h -3.763672 v -4.426779 z"/>
    </g>
  </g>
  <g transform="matrix(1.271052,0,0,1.271052,-10.70789,-17.347329)">
    <path fill="#94989b" d="m 46.986519,38.449219 a 8.0058842,8.0058842 0 0 0 -8.00586,8.005859 V 64 H 54.992378 V 46.455078 a 8.0058842,8.0058842 0 0 0 -8.005859,-8.005859 z"/>
    <path d="m 48.478045,38.449219 a 8.0058842,8.0058842 0 0 0 -8.00586,8.005859 V 64 H 56.483904 V 46.455078 a 8.0058842,8.0058842 0 0 0 -8.005859,-8.005859 z" fill="#d0d0d0"/>
  </g>
</svg>