<svg xmlns="http://www.w3.org/2000/svg" viewBox="0 0 64 64">
    <title>Cup On Black Square</title>
	<path fill="#0071bc" d="M62 52c0 5.5-4.5 10-10 10H12C6.5 62 2 57.5 2 52V12C2 6.5 6.5 2 12 2h40c5.5 0 10 4.5 10 10v40z"/>
	<g id="cup" transform="scale(0.75) translate(12,4)">
		<g fill="#eff6f7">
			<path d="M49.2 38.3L52 36l5.8-.3 4.2 4.2c0-5-3.3-8-10-6.1-.4.1-1.7.2-1.7.2l-1.1 4.3"/>
			<path d="M59.6 39.6c0 4.6-10.9 5.9-14.3 8.2-1.4 1-3.8 5.4-3.8 5.4L61 41.9s-1.4-5.9-1.4-2.3"/>
		</g>
		<g fill="#d2d8d9">
			<path d="M49.2 40l1.6-.4s.3-1.5 1.6-2.7c1.7-1.5 7.3-1.2 7.3 2.5 0 6-11.2 7.8-14.6 10.1-1.4 1-3 4-3 4s1.2.2 1.5 0c5.1-4.2 18.4-6 18.4-13.8 0-2.8-4.1-6.4-10-4.3-.4.1-1.7.2-1.7.2L49.2 40M39.9 55H13.2s.3 2.8 3.9 5c1.3.8 4.5 2 9.4 2 5 0 8.1-1.2 9.4-2 3.7-2.2 4-5 4-5"/>
		</g>
		<g fill="#eff6f7">
			<path d="M51.1 30.2H2s.6 11.7 7.2 21.2c2.4 3.5 8.2 8.5 17.3 8.5 9.2 0 14.9-5 17.3-8.5 6.6-9.5 7.3-21.2 7.3-21.2"/>
			<ellipse cx="26.5" cy="30.2" rx="24.5" ry="10.2"/>
		</g>
		<path fill="#d2d8d9" d="M26.5 24.2c11.3 0 20.7 3.2 22.9 7.5.3-.6.5-1.3.5-1.9 0-5.2-10.5-9.4-23.4-9.4-12.9 0-23.4 4.2-23.4 9.4 0 .7.2 1.3.5 1.9 2.2-4.3 11.6-7.5 22.9-7.5"/>
		<path fill="#ccc" d="M26.5 39.2c11.3 0 20.7-3.2 22.9-7.5-2.2-4.3-11.6-7.5-22.9-7.5-11.3 0-20.7 3.2-22.9 7.5 2.2 4.3 11.6 7.5 22.9 7.5"/>
	</g>
</svg>