<svg xmlns="http://www.w3.org/2000/svg" viewBox="0 0 64 64">
    <title>White Flag With Horizontal Middle Black Stripe</title>
  <path fill="#d0d0d0" d="M 47.46875 0.00390625 C 32.034135 -0.33241455 23.977969 18.896953 7.4882812 15.767578 C 8.0702812 17.339578 8.6308906 18.921094 9.2128906 20.496094 C 9.7978906 22.069094 10.3525 23.653562 10.9375 25.226562 C 22.5115 31.452562 43.762469 7.7866875 54.105469 9.8046875 C 53.522469 8.2316875 52.966813 6.6462188 52.382812 5.0742188 C 51.798812 3.5002188 51.242203 1.9177031 50.658203 0.34570312 C 49.558953 0.13695312 48.497724 0.026327637 47.46875 0.00390625 z "/>
  <path fill="#333333" d="M 50.916016 9.4648438 C 35.483656 9.1300574 27.42625 28.356875 10.9375 25.226562 C 11.5205 26.799563 12.077109 28.384031 12.662109 29.957031 C 13.246109 31.530031 13.800766 33.1155 14.384766 34.6875 C 26.469766 45.0785 47.845641 17.744625 57.556641 19.265625 C 56.972641 17.691625 56.413078 16.108156 55.830078 14.535156 C 55.247078 12.962156 54.690469 11.378687 54.105469 9.8046875 C 53.006406 9.5960625 51.94484 9.4871628 50.916016 9.4648438 z "/>
  <path fill="#d0d0d0" d="M 54.365234 18.925781 C 38.929689 18.590175 30.873516 37.816875 14.384766 34.6875 C 14.965766 36.2615 15.525375 37.843969 16.109375 39.417969 C 16.692375 40.990969 17.249984 42.574484 17.833984 44.146484 C 35.420984 47.486484 43.417 25.386563 61 28.726562 C 60.42 27.153562 59.860344 25.569141 59.277344 23.994141 C 58.695344 22.420141 58.137687 20.838625 57.554688 19.265625 C 56.455375 19.056938 55.394271 18.948155 54.365234 18.925781 z "/>
  <g fill="#3e4347">
    <circle cx="5.168" cy="13.336" r="2.168"/>
    <path d="M7.04 14.49l-2.56.929L22.186 64h2.896z"/>
    <path d="M3.688 15.602l4.076-1.48.37 1.017-4.077 1.48z"/>
  </g>
</svg>