<svg xmlns="http://www.w3.org/2000/svg" viewBox="0 0 64 64">
    <title>scissors</title>
    <path fill="#a9b5ae" d="M57 48.6c-4.5 8.2-15.7-3.1-30.8-12.6-2.8-1.8-3.9-4.4-1.3-7.2 0 0-.1-.3-.5-.7l5.7-2.5 26.9 23"/>
    <path fill="#454749" d="M24.1 2.5C19.8-1.2 13.2-.7 9.5 3.6c-3.8 4.4-3.3 11 1.1 14.7.5.4 1.8 1.2 1.9 1.3 8.2 4.4 11.1 7.3 12 8.5l5.7-2.5-1.9-1.6s-6.2-2.8-6.8-4.1c1.4-.6 2.7-1.5 3.7-2.7 3.8-4.4 3.3-11-1.1-14.7m-3.2 3.8c2.3 1.9 2.5 5.3.6 7.6s-5.3 2.5-7.6.6-2.5-5.3-.6-7.6 5.3-2.5 7.6-.6"/>
    <path fill="#cedbd5" d="M57 15.4c-4.5-8.2-15.7 3-30.7 12.6-2.8 1.8-3.9 4.4-1.3 7.2 0 0-.1.3-.5.7l5.7 2.5 26.8-23"/>
    <g fill="#454749">
        <path d="M25.3 46.8c-1-1.2-2.3-2.1-3.7-2.7.6-1.3 6.8-4.1 6.8-4.1l1.9-1.6-5.7-2.5c-1 1.3-3.8 4.1-12 8.5-.1.1-1.4.9-1.9 1.3-4.5 3.7-5 10.3-1.2 14.7 3.7 4.4 10.3 4.9 14.7 1.1 4.3-3.7 4.8-10.3 1.1-14.7m-12 10.3c-1.9-2.3-1.7-5.7.6-7.6 2.3-1.9 5.6-1.7 7.6.6 1.9 2.3 1.7 5.7-.6 7.6-2.3 1.9-5.7 1.7-7.6-.6M31.1 33.7c-1 1.2-2.7 1.3-3.9.4-1.2-1-1.3-2.7-.4-3.9 1-1.2 2.7-1.3 3.9-.4 1.2 1 1.3 2.8.4 3.9"/>
    </g>
</svg>