<svg xmlns="http://www.w3.org/2000/svg" viewBox="0 0 64 64">
    <title>raised fist: medium skin tone</title>
    <g fill="#d6a57c">
        <path d="M53.1 24L29.6 13.1l-26 8.6s-1.5 11.2 0 22.7c2.3 17.9 21.5 14.8 21.5 14.8 13.7 6.2 27.4.4 33.7-14.5 2.3-5.5 2.6-20.8-5.7-20.7"/>
        <path d="M3.7 16.4c0-4 3-7.2 6.8-7.2h.1c3.7 0 6.8 3.2 6.8 7.2v11.1c0 4-3 7.2-6.8 7.2h-.1c-3.8 0-6.8-3.2-6.8-7.2V16.4"/>
    </g>
    <path fill="#b58360" d="M8.5 32c3.8 0 6.8-3.2 6.8-7.1V13.8c0-1.1-.3-2.2-.7-3.1 1.9 1.3 2.7 3.5 2.7 5.8v11.1c0 4-2.9 7.1-6.7 7.1h-.1c-2.7 0-5.1-1.7-6.2-4.2C5.5 31.4 7 32 8.5 32"/>
    <path fill="#d6a57c" d="M17.2 10c0-4 3-7.2 6.8-7.2h.1c3.8 0 6.8 3.2 6.8 7.2v11.1c0 4-3 7.2-6.8 7.2H24c-3.8 0-6.8-3.2-6.8-7.2V10"/>
    <path fill="#b58360" d="M22 25.6c3.8 0 6.8-3.1 6.8-7.1V7.4c0-1.1-.3-2.2-.7-3.2 2 1.6 2.7 3.5 2.7 5.9v11.1c0 4-3 7-6.7 7H24c-2.7 0-5.1-1.7-6.2-4.2 1.2 1 2.7 1.6 4.2 1.6"/>
    <path fill="#d6a57c" d="M30.9 9.2c0-4 3-7.2 6.8-7.2h.1c3.7 0 6.8 3.2 6.8 7.2v11.1c0 4-3 7.2-6.8 7.2h-.1c-3.8 0-6.8-3.2-6.8-7.2V9.2"/>
    <path fill="#b58360" d="M35.7 24.8c3.8 0 6.8-3.1 6.8-7.1V6.6c0-1.1-.2-2.2-.6-3.1 2 1.5 2.7 3.5 2.7 5.8v11.1c0 4-3 7-6.8 7h-.1c-2.7 0-5.1-1.7-6.2-4.2 1.2 1 2.6 1.6 4.2 1.6"/>
    <path fill="#d6a57c" d="M44.3 12.8c0-4 3-7.2 6.8-7.2h.1c3.8 0 6.8 3.2 6.8 7.2v11.1c0 4-3 7.2-6.8 7.2H51c-3.8 0-6.8-3.2-6.8-7.2V12.8z"/>
    <g fill="#b58360">
        <path d="M49.2 28.4c3.8 0 6.7-3.2 6.7-7.1V10.2c0-1.1-.2-2.2-.6-3.1 2.1 1.5 2.7 3.5 2.7 5.8V24c0 4-2.9 7.1-6.6 7.1h-.1c-2.7 0-5.1-1.7-6.2-4.2 1.1.9 2.5 1.5 4.1 1.5M41.6 32.3c-5.7-2.8-18.5 2-16 14 0-12.5 11.1-14.6 16-14"/>
        <path d="M44.1 17c-5.3-3.7-7 1.1-16.6.5-4.2-.3-7 7.6-1 11.2 8.3 4.9 9.7-.8 11.6 1.7 2 2.6 4.1 3.3 5.7 6.2 1.2 2.1 12.5.1 14.1-3.9 3.2-7.7-5.5-9.8-13.8-15.7"/>
    </g>
    <path fill="#d6a57c" d="M44.7 18.5c-5.5-3.8-7.2 1.2-17.2.5-4.4-.3-7.3 7.9-1 11.6 8.7 5.1 10.1-.8 12.1 1.8 2.1 2.7 4.3 3.4 5.9 6.5 1.2 2.2-3.6 9.8-3.6 9.8s10.4 8.5 13.2 4.5c5.2-7.4 4.7-13.7 5.1-18.3.8-10.7-5.9-10.3-14.5-16.4"/>
    <g fill="#b58360">
        <path d="M43.1 38.9c.4.7.2 1.9-.3 3.2.9-2 1.6-4.1 1.1-5.1-1.7-3.1-2.7-3.8-4.8-6.5-2-2.6-3.4 3.4-12.1-1.8-3.2-1.9-4-5-3.4-7.5-1.6 2.6-1.5 7 2.6 9.4 8.7 5.1 10.1-.8 12.1 1.8 2.1 2.8 3.1 3.5 4.8 6.5"/>
        <path d="M55.6 24.9c5.5 3.3 3.6 18.4-1.5 25.2-8 10.7-18.5 10.6-29 8.5 0 0-12.7 3.5-20.1-8.5 4.6 12.7 20.1 10.1 20.1 10.1 11.1 3.4 21.9 2.6 30.4-8.4 5.5-7 8.8-24.1.1-26.9"/>
    </g>
</svg>