<svg xmlns="http://www.w3.org/2000/svg" viewBox="0 0 64 64">
    <title>Upper Right Pencil</title>
  <g transform="matrix(0,1,1,0,-0.00671053,-0.00671053)">
    <path d="M 7.934,41.132 39.828,9.246 54.746,24.168 22.851,56.054 Z" fill="#ffce31"/>
    <path d="M 61.3,4.6 59.4,2.7 C 55.8,-0.9 50,-0.9 46.3,2.7 l -6.5,6.5 15,15 6.5,-6.5 c 3.6,-3.6 3.6,-9.5 0,-13.1" fill="#ed4c5c"/>
    <path d="m 35.782,13.31 4.1,-4.102 14.92,14.92 -4.1,4.101 z" fill="#93a2aa"/>
    <path d="m 37.338,14.865 4.1,-4.101 11.739,11.738 -4.102,4.1 z" fill="#c7d3d8"/>
    <path d="m 7.9,41.1 -6.5,17 4.5,4.5 17,-6.5 z" fill="#fed0ac"/>
    <path d="m 0.3,61.1 c -0.9,2.4 0.3,3.5 2.7,2.6 l 8.2,-3.1 -7.7,-7.7 -3.2,8.2" fill="#333333"/>
    <path d="m 7.89,41.175 27.86,-27.86 4.95,4.95 -27.86,27.86 z" fill="#ffdf85"/>
    <path d="m 17.904,51.142 27.86,-27.86 4.95,4.95 -27.86,27.86 z" fill="#ff8736"/>
  </g>
</svg>