<svg xmlns="http://www.w3.org/2000/svg" viewBox="0 0 64 64">
    <title>white question mark</title>
    <circle fill="#4fd1d9" cx="32" cy="32" r="30"/>
    <g fill="#fff" transform="scale(0.8) translate(8,8)">
        <path d="M30.2 2.1C18.6 2.8 12.5 9.4 12 21.3h11.7c.1-4.1 2.5-7.2 6.7-7.7 4.2-.4 8.2.6 9.4 3.4 1.3 3.1-1.6 6.7-3 8.2-2.6 2.8-6.8 4.9-9 7.9-2.1 3-2.5 6.9-2.7 11.7h10.3c.1-3.1.3-6 1.7-7.9 2.3-3.1 5.7-4.5 8.5-7 2.7-2.3 5.6-5.1 6-9.5C53.3 7.5 42.7 1.3 30.2 2.1"/>
        <ellipse cx="30.5" cy="55.6" rx="6.5" ry="6.4"/>
    </g>
</svg>