<svg xmlns="http://www.w3.org/2000/svg" viewBox="0 0 64 64">
    <title>curly loop</title>
    <path fill="#c28fef" d="M62 4c-11 0-21.4 2.2-30 6.1C23.4 6.2 13 4 2 4v9.3c7 0 13.8 1 19.8 2.9-2.1 1.7-4.1 3.5-5.8 5.5-5.5 6.5-7.9 14.1-6.6 21.4C11.3 54.8 22.1 60 32 60s20.7-5.2 22.6-16.8c1.2-7.3-1.1-15-6.6-21.4-1.7-2-3.6-3.8-5.8-5.5 6-1.9 12.8-2.9 19.8-2.9V4M45.3 41.6c-1 6.2-7.5 9-13.3 9s-12.3-2.8-13.4-9c-1-5.9 1.9-10.8 4.6-13.9 2.3-2.7 5.3-5.1 8.8-7.1 3.5 2 6.5 4.4 8.8 7.1 2.6 3.1 5.5 8 4.5 13.9"/>
</svg>