<svg xmlns="http://www.w3.org/2000/svg" viewBox="0 0 64 64">
    <title>wavy dash</title>
    <path fill="#c28fef" d="M47 41c-5.6 0-10.1-4.2-10.1-9.4 0-2.5-2.2-4.5-4.9-4.5s-4.9 2-4.9 4.5c0 5.2-4.6 9.4-10.1 9.4S6.9 36.8 6.9 31.6c0-1.3-.6-2.5-1.6-3.3-.9-.7-2-1.1-3.2-1.1V23c2.3 0 4.5.8 6.2 2.2 2 1.6 3.1 4 3.1 6.4 0 2.9 2.5 5.2 5.6 5.2s5.6-2.3 5.6-5.2c0-4.8 4.2-8.6 9.4-8.6s9.4 3.9 9.4 8.6c0 2.9 2.5 5.2 5.6 5.2s5.6-2.3 5.6-5.2c0-2.5 1.1-4.8 3.1-6.4 1.7-1.4 3.9-2.2 6.2-2.2v4.2c-1.2 0-2.3.4-3.2 1.1-1 .9-1.6 2.1-1.6 3.3 0 5.2-4.5 9.4-10.1 9.4"/>
</svg>