<svg xmlns="http://www.w3.org/2000/svg" viewBox="0 0 64 64">
  <path fill="#ff5a79" d="m 62.047496,51.95 c 0,5.5 -4.5,10 -10,10 h -40 c -5.4999997,0 -9.9999997,-4.5 -9.9999997,-10 v -40 c 0,-5.5 4.5,-10 9.9999997,-10 h 40 c 5.5,0 10,4.5 10,10 z" />
  <path fill="#ffffff" d="m 28.647496,35.15 v 0.7 c 0,2.2 0.3,3.8 0.7,4.7 0.4,0.9 1.3,1.4 2.7,1.4 1.3,0 2.2,-0.5 2.7,-1.5 0.3,-0.6 0.4,-1.6 0.4,-3 v -20.4 h 6.1 v 20.2 c 0,2.5 -0.4,4.4 -1.3,5.9 -1.4,2.4 -4,3.7 -7.6,3.7 -3.6,0 -6.2,-1 -7.4,-3 -1.3,-2 -1.9,-4.7 -1.9,-8.1 v -0.7 h 5.6 z" />
</svg>
