<svg xmlns="http://www.w3.org/2000/svg" viewBox="0 0 64 64">
  <path fill="#008db3" d="M 56.847458,32 C 56.847458,45.748927 45.748927,56.847458 32,56.847458 18.251073,56.847458 7.1525424,45.748927 7.1525424,32 c 0,-3.644294 0.7454237,-7.040113 2.1534463,-10.187458 L 35.809944,7.4838418 c 1.904971,0.3312995 3.727118,0.8282486 5.383615,1.4908475 l 0.579774,1.2423727 0.993899,-0.6625987 C 51.049718,13.612881 56.847458,22.143842 56.847458,32" />
  <g fill="#ffc942" transform="matrix(0.82824859,0,0,0.82824859,5.4960452,5.4960452)">
    <path d="m 7.5,20.9 c 0.9,1.8 2.1,-0.6 2,1.2 -0.1,1.8 1.2,5.8 2,5.3 0.8,-0.5 0.8,-3.5 2.1,-3.8 1.4,-0.4 3.3,-2.7 3.9,-1.6 0.6,1 0.4,2.9 0.9,2.5 0.5,-0.4 1.2,0 1.1,1.3 -0.1,1.3 1.1,3.1 1.5,3.8 0.4,0.7 -2.1,-2 -3.3,-3.6 -1.2,-1.6 0.9,3.4 2.4,5.3 1.5,1.9 7.4,3.2 8.9,4 1.5,0.8 5.7,-1.5 4.1,-1.4 0,0 -3.7,0.5 -5,-0.2 -1.3,-0.7 -4.4,-0.7 -5,-1.6 -0.5,-0.9 -0.5,-2.3 -1.5,-3.6 -0.9,-1.3 -1.5,-3.6 -0.3,-2.6 1.2,1 2.6,1.2 2.8,0.5 0.2,-0.7 -2.4,-3 -0.8,-4 1.6,-1 3.2,-0.3 3.9,-1 0.8,-0.8 2.6,-3.1 2.1,-4.2 -0.4,-1.1 -0.5,-1.9 0,-2.2 0.5,-0.3 -2.5,-0.3 -1.3,-1.2 1.2,-0.9 2.5,-1.6 2.6,0 0.1,1.6 0,3.1 0.6,3.1 0.6,0 1.5,-1.8 1.3,-2.6 -0.3,-0.8 0.3,-2.5 1.5,-2.6 1.2,-0.1 2.6,-2.1 2.9,-4 0.3,-1.9 0.3,-3.5 -0.6,-3.3 -0.8,0.2 -0.9,-1 0.3,-2 C 35.1,2.1 33.6,2 32,2 19.8,2 9.3,9.3 4.6,19.7 c 1,0 2.3,0.1 2.9,1.2 M 42.6,7.9 C 41.9,9.1 43.7,7.4 44.9,4.9 44.3,4.6 43.7,4.4 43.1,4.1 43.2,5.2 43.2,7 42.6,7.9" />
    <path d="m 34.3,16.9 c 1.4,-0.9 3.6,-0.9 3.6,-2.8 0,-1.9 5.4,-5.1 4.1,-5 -1.3,0.1 -3.8,2.5 -3.8,0.9 0,-1.6 0,-4.6 -0.3,-5.4 -0.4,-0.9 -0.2,4.4 -0.6,5.3 -0.4,0.9 0,4.2 -1.1,4.6 C 35,14.9 33,15.8 33,17 c 0,1.2 -0.1,0.8 1.3,-0.1 m 1.5,15.8 c 0.7,0.6 -0.4,2.2 0.4,1.8 0.8,-0.3 1.7,0.6 2.1,0 0.4,-0.5 0.5,-0.9 1.7,0.2 1.3,1 2.2,0.8 1.4,0 -0.8,-0.8 -1.5,-2.2 -3.2,-2.7 0,0 -1.8,-0.2 -3,-0.8 0,0 -1.7,-0.9 -2.3,-0.3 -0.5,0.6 -0.5,-1.6 -0.9,-1.2 -0.4,0.4 0.2,1.7 -1,1.4 -1.2,-0.3 -1.6,0.1 -1.9,-0.9 -0.3,-1 -2.1,-0.5 -0.7,-1.2 1.4,-0.7 2.1,-1 2.1,-0.4 0.1,0.6 1.4,-0.5 0.9,-2.1 -0.5,-1.5 -1.9,-1 -1.8,-3 0,-0.9 -1.4,0.3 -1.1,1.4 0.2,1.1 -0.3,1.3 -0.8,2.2 C 27.1,28 25,30 24.5,30 c -0.6,0 -0.4,1.1 0,1.8 0.4,0.7 2.4,0.8 2.8,0.9 0.4,0.1 0.9,-3.1 1,-2.2 0.1,0.9 0.3,3.4 0.6,2.8 0.3,-0.6 1.4,0.2 1.4,-0.3 0,-0.5 -0.5,-1.5 0.6,-1 1.1,0.5 2.6,0.9 2.5,0.3 -0.2,-0.7 1.7,-0.2 2.4,0.4 M 29.2,26 c 0.5,2.1 -0.7,2.5 -1.1,2.1 -0.4,-0.4 1,-2.6 1.1,-2.1 m 11.5,13.7 c -1.7,-1.5 -2.4,-3.9 -2.8,-4.2 -0.7,-0.6 -0.4,2 -0.6,2.6 -0.2,0.5 -1.2,-0.6 -1.6,-0.9 -0.5,-0.2 -0.2,-0.6 0,-1 0.2,-0.5 -0.9,-0.9 -1.7,-0.7 -0.8,0.2 -0.8,-0.1 -1.1,0.6 -0.3,0.7 -0.1,1.2 -0.9,0.8 -0.8,-0.4 -1.3,0.2 -1.9,0.8 -0.6,0.6 -0.8,0.9 -1,1.3 -0.2,0.5 -3.4,0.2 -3.4,1.7 0,1.5 1.3,2.7 1,3.8 -0.3,1.1 0.2,2.3 1.2,1.8 1,-0.6 2.4,-0.4 2.8,-0.9 0.4,-0.5 3.1,-1.2 3.5,-0.3 0.5,0.9 1,1.3 1.8,1.3 0.8,0 0.9,0.8 0.9,1.3 0,0.6 1.2,0.1 1.9,0.3 0.7,0.2 2.3,0.1 2.5,-1.3 0.1,-1.3 0.9,-2.2 1.1,-2.9 0.2,-0.7 -0.1,-2.7 -1.7,-4.1 m -1.5,9.1 c -0.8,-0.1 -0.2,1.8 0.3,1.9 0.5,0.2 0.8,-1.1 0.7,-1.9 0,-0.6 -0.2,0.1 -1,0 m 12.6,-1.7 c -0.5,0.1 -0.9,-1.3 -1.3,-1 -0.7,0.6 0.8,1.9 0,2.6 -0.8,0.7 -1,1.9 -1.7,2 -0.7,0.1 -1.6,1 -1,1.5 0.6,0.5 1.6,0 1.9,-1 0.3,-1 0.6,-1.4 1.3,-1.7 0.7,-0.3 0.6,-1.1 1.3,-1.6 0.7,-0.3 0,-0.8 -0.5,-0.8" />
  </g>
  <path fill="#4d5357" d="m 5.2226562,27.576172 c -0.3791532,0.0021 -0.5756008,0.148778 -0.9414062,0.34375 -0.8677472,0.462505 -1.6398162,1.299089 -2.0722656,2.222656 -0.4836631,1.032942 -0.557977,2.334031 -0.1972656,3.417969 0.4023298,1.209001 1.1698607,2.21839 2.4472656,3.285156 2.7122283,2.264993 6.6004706,4.111208 10.8398436,5.173828 3.42245,0.857855 6.775431,1.245843 11.759766,1.369141 7.75385,0.191807 13.46343,0.0048 17.58789,-0.585938 4.757836,-0.681406 8.855146,-2.056131 12.28125,-4.134765 2.797128,-1.697031 4.5086,-3.372888 5.078125,-5.216797 0.615893,-1.994027 -0.207244,-4.195135 -1.984375,-5.34375 -0.473761,-0.306203 -0.767742,-0.521541 -1.228515,-0.525391 -0.230387,-0.0019 -0.538016,0.15204 -0.666016,0.365235 -0.128,0.213195 -0.139333,0.404783 -0.140625,0.595703 -0.0015,0.212656 0.120713,0.471319 0.269531,0.613281 0.148818,0.141962 0.306832,0.227243 0.509766,0.330078 0.586888,0.297398 1.110349,0.819151 1.357422,1.322266 0.222856,0.453792 0.210937,0.422256 0.210937,1.263672 0,0.86658 0.0167,0.802086 -0.251953,1.36914 -0.421674,0.890035 -1.620224,2.077624 -3.271484,3.175782 -1.651261,1.098157 -3.745182,2.133766 -5.9375,2.878906 -4.827091,1.640664 -9.314858,2.151801 -19.103516,2.154297 C 23.118032,41.652591 18.652223,41.18917 14.1875,39.84375 11.626841,39.072109 9.2083847,37.94512 7.3378906,36.728516 5.4673965,35.511911 4.1634969,34.17468 3.7832031,33.173828 3.685537,32.916792 3.6367188,32.606087 3.6367188,32.039062 c 0,-0.729356 -0.0091,-0.700264 0.2285156,-1.175781 0.2989437,-0.598239 0.7668633,-1.082941 1.3339844,-1.386719 0.1404553,-0.07523 0.2728256,-0.145741 0.3730468,-0.201171 0.050111,-0.02772 0.091567,-0.05118 0.125,-0.07031 0.016717,-0.0096 0.030559,-0.01872 0.044922,-0.02734 0.014363,-0.0086 0.00487,0.0061 0.076172,-0.05078 5.688e-4,-4.54e-4 0.077706,-0.07431 0.1015625,-0.107422 0.023856,-0.03311 0.038903,-0.06264 0.050781,-0.08789 0.023757,-0.05049 0.034361,-0.08622 0.041016,-0.115235 0.013309,-0.05804 0.014472,-0.08952 0.015625,-0.11914 0.00231,-0.05924 -0.00159,-0.10058 -0.00586,-0.144532 -0.00855,-0.0879 -0.023143,-0.180137 -0.044922,-0.279296 -0.027041,-0.123127 -0.054625,-0.256437 -0.1757813,-0.416016 -0.1211566,-0.159579 -0.3869373,-0.28231 -0.578125,-0.28125 z" />
  <g transform="matrix(0.21057168,0,0,0.21057168,11.11129,33.844447)">
    <circle r="30" cy="32" cx="32" fill="#ffe8a6" />
    <g fill="#f4dc9f">
      <circle r="7" cy="35.200001" cx="50" />
      <circle r="6" cy="39" cx="18.1" />
      <circle r="9" cy="50" cx="24.200001" />
      <circle r="4" cy="17.200001" cx="24" />
      <circle r="4" cy="18.200001" cx="37" />
      <circle r="4" cy="25.9" cx="12.1" />
      <circle r="2" cy="9.1999998" cx="39" />
      <circle r="2" cy="39" cx="8.1000004" />
      <circle r="2" cy="50" cx="52" />
      <circle r="3" cy="29.9" cx="25" />
      <circle r="2" cy="15.7" cx="15" />
      <circle r="4" cy="52.599998" cx="46" />
      <path d="m 24.2,10.8 c 0,2.8 2.2,5 5,5 2.8,0 5,-2.2 5,-5 0,-2.8 -2.2,-5 -5,-5 -2.8,-0.1 -5,2.2 -5,5" />
    </g>
  </g>
</svg>
