<svg xmlns="http://www.w3.org/2000/svg" viewBox="0 0 64 64">
  <g transform="matrix(-0.77283151,-0.63461124,-0.63461124,0.77283151,78.190751,39.079017)" fill="#42ade2">
    <path d="M 51.4,7.4 48.8,10 c 7,4.8 11.5,12.9 11.5,22 0,9.1 -4.6,17.1 -11.5,21.9 l 2.6,2.6 C 59.1,51 64,42.1 64,32 64,21.9 59,12.9 51.4,7.4 Z" />
    <path d="m 52.5,32 c 0,6.9 -3.7,13 -9.3,16.3 L 45.9,51 C 52.1,47 56.2,40 56.2,32 56.2,24 52.1,17 45.8,13 l -2.7,2.7 c 5.6,3.3 9.4,9.4 9.4,16.3" />
    <path d="m 44.8,32 c 0,4.8 -3.1,9 -7.4,10.5 l 2.8,2.8 c 4.9,-2.4 8.3,-7.5 8.3,-13.3 0,-5.9 -3.4,-10.9 -8.3,-13.4 l -2.8,2.8 c 4.3,1.6 7.4,5.7 7.4,10.6" />
  </g>
  <path fill="#4d5357" d="M 50.961957,8.0847458 H 44.874256 V 40.598617 c -1.106857,-0.415071 -3.18221,-0.553427 -4.565779,-0.553427 -14.665833,0 -14.665833,15.080903 0.138356,15.080903 5.395921,0 10.515124,-3.320566 10.515124,-7.609631 V 24.134144 c 0,0 11.345266,5.395919 5.257563,17.432971 -0.138357,0.415071 1.521925,0.830142 1.79864,0.415071 C 70.470295,20.813579 54.005809,22.335505 50.961957,8.0847458" />
</svg>
