<svg xmlns="http://www.w3.org/2000/svg" viewBox="0 0 64 64">
  <path fill="#62727a" d="M63 62H1c-.5 0-1 .5-1 1s.5 1 1 1h62c.6 0 1-.5 1-1s-.4-1-1-1" />
  <path fill="#d0d0d0" d="M60 62H4V44l28-12 28 12z" />
  <path fill="#e8e8e8" d="M 32,1.2539062 C 25.868008,1.2551784 20.724132,3.9530393 20.072266,7.5097656 L 20,8.2539062 V 62 H 44 V 8.2539062 l -0.08203,-0.75 C 43.261743,3.9516652 38.124809,1.2577635 32,1.2539062 Z" />
  <path fill="#62727a" d="m 20,30 c 0,-3.865993 5.372583,-7 12,-7 6.627417,0 12,3.134007 12,7 V 26.050866 C 43.558058,24.181049 38.627417,21 32,21 25.372583,21 20.53033,24.181049 20,26.050866 Z" />
  <path fill="#ef4d3c" d="m 26.895155,14.956554 h -1.6584 V 9.6440534 c -0.598112,0.5249996 -1.339767,1.2026006 -2.81127,1.2026006 V 9.3300814 c 1.471503,0 1.837073,-0.625959 2.32838,-1.0176991 0.491309,-0.3917402 0.618823,-0.8808289 0.781944,-1.3558289 h 1.359346 v 8.0000006" />
  <path fill="#ef4d3c" d="m 31.875,6.9565534 c 0.75,0 1.325,0.275 1.75,0.8000003 0.5,0.6500006 0.75,1.6999997 0.75,3.2000003 0,1.475 -0.25,2.550001 -0.75,3.200001 -0.425,0.524999 -1,0.799999 -1.75,0.799999 -0.75,0 -1.35,-0.3 -1.8,-0.874999 -0.475,-0.6 -0.7,-1.625001 -0.7,-3.150001 0,-1.4750006 0.25,-2.5249997 0.75,-3.1750003 0.425,-0.5250003 1,-0.8000003 1.75,-0.8000003 m 0,1.2500001 c -0.175,0 -0.35,0.05 -0.475,0.1750008 -0.125,0.125 -0.25,0.325 -0.325,0.6250001 -0.1,0.399999 -0.15,1.0499986 -0.15,1.9499996 0,0.925 0.05,1.55 0.125,1.9 0.1,0.350001 0.2,0.575001 0.35,0.675001 0.15,0.125 0.3,0.175 0.475,0.175 0.175,0 0.35,-0.05 0.475,-0.175 0.15,-0.125 0.25,-0.325 0.325,-0.625001 0.1,-0.375 0.15,-1.025 0.15,-1.95 0,-0.925001 -0.05,-1.5500006 -0.125,-1.8999996 C 32.6,8.7065543 32.5,8.4815543 32.35,8.3565543 32.2,8.2565535 32.05,8.2065535 31.875,8.2065535" />
  <g fill="#ef4d3c" transform="matrix(0.50251256,0,0,0.5,-0.8209335,1.4057059)">
    <path fill="#ef4d3c" d="m 73.155508,23.201695 2.8,-0.3 c 0.05,0.6 0.25,1.05 0.55,1.3 0.3,0.25 0.65,0.45 1.15,0.45 0.6,0 1.1,-0.3 1.5,-0.85 0.4,-0.55 0.7,-1.75 0.8,-3.55 -0.7,0.9 -1.6,1.3 -2.7,1.3 -1.2,0 -2.2,-0.5 -3.05,-1.45 -0.85,-0.95 -1.3,-2.2 -1.3,-3.7 0,-1.6 0.45,-2.85 1.35,-3.85 0.9,-0.95 2.05,-1.45 3.45,-1.45 1.5,0 2.75,0.6 3.75,1.85 0.9,1.2 1.4,3.25 1.4,6.05 0,2.85 -0.5,4.95 -1.5,6.2 -1,1.25 -2.35,1.9 -3.95,1.9 -1.15,0 -2.1,-0.35 -2.85,-1 -0.75,-0.65 -1.2,-1.6 -1.4,-2.9 m 6.5,-6.55 c 0,-0.95 -0.2,-1.7 -0.65,-2.25 -0.45,-0.55 -0.9,-0.8 -1.5,-0.8 -0.55,0 -0.95,0.2 -1.3,0.65 -0.35,0.45 -0.55,1.15 -0.55,2.15 0,1 0.2,1.75 0.55,2.25 0.4,0.45 0.85,0.7 1.45,0.7 0.55,0 1,-0.25 1.4,-0.7 0.4,-0.45 0.6,-1.1 0.6,-2" />
  </g>
</svg>
