<svg xmlns="http://www.w3.org/2000/svg" viewBox="0 0 64 64">
  <path fill="#ff5a79" d="m 62.047496,51.95 c 0,5.5 -4.5,10 -10,10 h -40 c -5.4999997,0 -9.9999997,-4.5 -9.9999997,-10 v -40 c 0,-5.5 4.5,-10 9.9999997,-10 h 40 c 5.5,0 10,4.5 10,10 z" />
  <path
     fill="#ffffff" d="m 44.947496,37.35 c -0.5,1.7 -1.3,3 -2.3,4.1 l 3.3,3.1 -3.1,3.4 -3.5,-3.3 c -1.1,0.6 -2,1.1 -2.8,1.4 -1.3,0.4 -2.9,0.7 -4.7,0.7 -3.8,0 -6.9,-1.1 -9.4,-3.4 -3,-2.7 -4.5,-6.7 -4.5,-12 0,-5.3 1.5,-9.3 4.6,-12 2.5,-2.2 5.6,-3.3 9.4,-3.3 3.8,0 6.9,1.2 9.4,3.5 2.9,2.7 4.4,6.5 4.4,11.4 0.1,2.5 -0.2,4.7 -0.8,6.4 m -11,3.9 c 0.4,-0.1 0.8,-0.3 1.4,-0.5 l -3,-2.8 3.1,-3.3 2.9,2.8 c 0.5,-0.9 0.8,-1.8 1,-2.5 0.3,-1.1 0.4,-2.3 0.4,-3.7 0,-3.3 -0.7,-5.8 -2,-7.5 -1.3,-1.8 -3.3,-2.7 -5.8,-2.7 -2.4,0 -4.3,0.9 -5.7,2.6 -1.4,1.7 -2.2,4.3 -2.2,7.7 0,4 1,6.8 3.1,8.5 1.3,1.1 2.9,1.7 4.8,1.7 0.7,0 1.4,-0.1 2,-0.3" />
</svg>
