<svg xmlns="http://www.w3.org/2000/svg" viewBox="0 0 64 64">
  <path fill="#3e4347" d="m 4.4277865,20.732099 c 0.425522,-3.974724 1.635063,-7.462591 3.7390085,-10.7818944 0.948091,-1.4957657 3.10296,-4.0539877 3.115562,-3.6987414 0.0027,0.077071 -0.278397,0.602167 -0.624737,1.1668792 -1.3235366,2.1580408 -2.0279872,4.9324766 -1.9379373,7.6324466 0.204403,6.128307 4.1997223,11.26745 10.1496873,13.055415 2.004767,0.602434 5.229224,0.656461 7.391713,0.123853 1.774746,-0.437109 4.465174,-1.87448 5.890021,-3.146765 C 36.874629,20.865524 38.171585,13.98398 35.323316,8.2518047 34.991144,7.583305 34.718608,7.0149249 34.717679,6.9887379 c -0.0085,-0.2386776 3.091663,-0.6765908 5.345806,-0.7551298 4.068239,-0.1417451 7.08577,0.4688726 10.70975,2.1671913 5.492882,2.5741486 10.114555,7.6719866 12.084164,13.3291766 0.672579,1.931816 0.542797,2.059861 -0.402742,0.397346 -1.242588,-2.18481 -3.843608,-4.571652 -6.1,-5.597701 -2.507,-1.140011 -4.421751,-1.481795 -7.131321,-1.272945 -3.860832,0.297587 -6.536567,1.583367 -9.1632,4.403223 -2.627006,2.820257 -3.722971,5.587468 -3.738223,9.43869 -0.01116,2.816779 0.388367,4.494108 1.608882,6.754606 2.422274,4.486251 6.529824,7.05107 11.92378,7.445403 l 1.091669,0.07981 -0.320306,1.05069 c -0.92218,3.024999 -2.917286,6.417716 -5.24124,8.912833 -5.560753,5.970309 -13.947811,8.604637 -21.921967,6.885566 -0.850772,-0.183409 -1.561737,-0.347232 -1.579922,-0.364054 -0.01819,-0.01682 1.102222,-0.07549 2.489793,-0.13039 2.308852,-0.09131 2.668167,-0.155573 4.235841,-0.757298 2.414513,-0.926769 3.906787,-1.932316 5.617096,-3.785003 2.592638,-2.808466 3.784088,-6.05413 3.646464,-9.933435 -0.128975,-3.635441 -1.497877,-6.848086 -3.983509,-9.348799 -3.045361,-3.063831 -7.11052,-4.566729 -11.237279,-4.154446 -2.20413,0.220203 -3.627097,0.649783 -5.51218,1.664073 -2.289483,1.231883 -4.580061,3.482341 -5.636395,5.537675 -0.126278,0.245701 -0.262168,0.187134 -0.772955,-0.333133 C 8.2466902,36.093616 6.0217629,31.978543 5.0390771,28.097729 4.692677,26.72973 4.2966098,21.957394 4.4277864,20.732097 Z"/>
</svg>
