<svg xmlns="http://www.w3.org/2000/svg" viewBox="0 0 64 64">
  <path fill="#eda454" d="m 62.047496,51.95 c 0,5.5 -4.5,10 -10,10 h -40 c -5.4999997,0 -9.9999997,-4.5 -9.9999997,-10 v -40 c 0,-5.5 4.5,-10 9.9999997,-10 h 40 c 5.5,0 10,4.5 10,10 z"/>
  <g aria-label="ﾁｹ">
    <path d="m 12.086559,45.44297 q 2.890625,-2.03125 4.0625,-4.140625 1.210937,-2.109375 1.5625,-4.570312 0.351562,-2.460938 0.46875,-4.179688 H 9.5474963 v -3.164062 h 8.7109377 v -5.429688 q 0,-0.429687 -0.03906,-0.742187 -2.1875,1.015625 -5.546875,2.1875 -0.703125,-2.070313 -1.367187,-3.007813 l 0.273437,-0.429687 q 3.164063,-0.742188 5.234375,-1.757813 2.109375,-1.015625 3.828125,-2.5 1.757813,-1.523437 1.757813,-1.914062 0.351562,-0.546875 0.742187,-0.117188 l 2.5,2.421875 q 0.546875,0.546875 -0.195312,0.664063 l -0.625,0.07813 q -2.617188,2.070312 -4.492188,3.242187 l 1.015625,0.03906 q 0.46875,0.03906 0.15625,0.507812 l -0.234375,0.507813 v 6.25 h 7.695313 v 3.164062 h -7.773438 q -0.117187,1.875 -0.546875,4.6875 -0.390625,2.773438 -1.5625,5.195313 -1.171875,2.421875 -4.570312,5.976562 -1.171875,-1.71875 -2.421875,-2.617187 z" fill="#ffffff"/>
    <path d="m 39.586559,16.458595 q -0.07813,-0.546875 0.625,-0.351562 l 2.773437,0.390625 q 0.507813,0.07813 0.195313,0.507812 l -0.46875,0.625 q -0.46875,3.046875 -1.015625,5.664063 h 12.851562 v 3.164062 h -5.585937 q 0,4.101563 -1.054688,8.4375 -1.015625,4.335938 -2.734375,7.34375 -1.71875,3.007813 -5.507812,6.171875 -1.015625,-1.328125 -2.460938,-2.304687 v -0.273438 q 3.320313,-2.109375 4.960938,-4.726562 1.640625,-2.617188 2.617187,-6.640625 0.976563,-4.0625 0.976563,-8.007813 h -4.804688 q -0.195312,0.898438 -1.015625,3.476563 -0.78125,2.617187 -3.398437,7.421875 -1.367188,-0.976563 -2.8125,-1.640625 v -0.507813 q 2.460937,-3.398437 3.75,-7.929687 1.289062,-4.570313 1.796875,-7.421875 0.507812,-2.8125 0.3125,-3.398438 z" fill="#ffffff"/>
  </g>
</svg>