<?xml version="1.0" encoding="UTF-8" standalone="no"?>
<svg xmlns="http://www.w3.org/2000/svg" viewBox="0 0 64 64">
  <circle fill="#4fd1d9" cx="32.047497" cy="31.950001" r="30" />
  <g aria-label="ã´">
    <path d="m 44.755829,15.483926 q 0,-2.03125 1.40625,-3.489584 1.458333,-1.458333 3.541667,-1.458333 2.03125,0 3.489583,1.458333 1.458333,1.458334 1.458333,3.489584 0,2.083333 -1.458333,3.541666 -1.458333,1.40625 -3.489583,1.40625 -2.083334,0 -3.541667,-1.40625 -1.40625,-1.458333 -1.40625,-3.541666 z m 1.979167,0 q 0,1.40625 0.729166,2.135416 0.78125,0.729167 2.135417,0.729167 1.354167,0 2.1875,-0.729167 0.833333,-0.729166 0.833333,-2.135416 0,-1.302084 -0.833333,-2.135417 -0.833333,-0.833333 -2.1875,-0.833333 -1.354167,0 -2.135417,0.833333 -0.729166,0.833333 -0.729166,2.135417 z M 23.34958,13.556842 23.870413,12.983926 q 0.260417,-0.3125 0.572917,0 1.5625,0.989583 3.645833,2.864583 0.677083,0.677083 -0.104167,1.041667 l -1.354166,0.572916 q -4.583334,7.1875 -6.40625,10.208333 -1.770833,3.020834 -2.708333,6.40625 -0.9375,3.385417 -0.625,6.510417 0.3125,3.072916 1.822916,5 1.510417,1.875 4.427083,2.552083 2.96875,0.677083 6.041667,0.3125 3.072917,-0.364583 5.625,-2.34375 2.604166,-1.979167 3.489583,-5.78125 0.885417,-3.802083 0.520833,-10.15625 -0.3125,-6.354166 -2.5,-15.416666 l 4.635417,-1.40625 q 1.927083,5 5.260417,10.260417 3.385416,5.208333 8.281249,9.895833 l -0.05208,0.572916 q -1.302083,0.833334 -4.010417,4.0625 -4.062499,-5.833333 -6.874999,-10.104166 0.104166,1.09375 0.416666,4.947916 0.3125,3.854167 -0.572916,8.333333 -0.833334,4.479167 -4.479167,7.8125 -3.645833,3.28125 -8.333333,3.958333 -4.6875,0.729167 -9.322917,-0.46875 -4.635416,-1.145833 -6.927083,-4.427083 -2.239583,-3.28125 -2.395833,-7.34375 -0.104167,-4.114583 0.989583,-7.552083 1.09375,-3.4375 2.916667,-6.614583 1.822917,-3.177083 4.895833,-7.864583 -2.96875,0.416667 -10.260416,2.135417 L 9.4433301,15.692259 Q 15.901663,15.327676 23.34958,13.556842 Z" fill="#ffffff" />
  </g>
</svg>
