<svg xmlns="http://www.w3.org/2000/svg" viewBox="0 0 64 64">
  <path fill="#ff5a79" d="m 62,52 c 0,5.5 -4.5,10 -10,10 H 12 C 6.5000002,62 2.0000002,57.5 2.0000002,52 V 12 c 0,-5.5 4.5,-10 9.9999998,-10 h 40 c 5.5,0 10,4.5 10,10 z" />
  <path d="m 40.3,21.967797 c -1.7,1.4 -4.1,2.1 -7.3,2.1 h -6 v 10.4 H 21 V 5.4677967 h 12.5 c 2.9,0 5.2,0.7 6.9,2.2 1.7,1.5 2.6,3.8000003 2.6,6.9000003 -0.2,3.6 -1,6 -2.7,7.4 m -4.6,-10.4 c -0.8,-0.6 -1.8,-1 -3.2,-1 H 27 v 8.5 h 5.5 c 1.4,0 2.5,-0.3 3.2,-1 0.7,-0.7 1.2,-1.8 1.2,-3.3 -0.1,-1.5 -0.5,-2.6 -1.2,-3.2" fill="#ffffff" />
  <g fill="#ffffff">
    <path d="m 53.996094,35.888672 a 0.34694606,0.34694606 0 0 0 -0.285156,0.138672 l -0.859376,1.146484 a 0.34694606,0.34694606 0 0 0 0.03125,0.455078 c 0.706925,0.706924 1.331459,1.522271 1.873047,2.453125 a 0.34694606,0.34694606 0 0 0 0.511719,0.101563 l 1.25,-0.962891 a 0.34694606,0.34694606 0 0 0 0.08203,-0.462891 c -0.659648,-1.03404 -1.454461,-1.961744 -2.380859,-2.78125 a 0.34694606,0.34694606 0 0 0 -0.222656,-0.08789 z m -12.845703,1.199219 c -0.213392,0 -0.458348,0.02944 -0.607422,0.265625 -0.07454,0.118094 -0.08662,0.262082 -0.06836,0.373046 0.01256,0.07636 0.04586,0.138244 0.07617,0.203126 0.04069,0.176312 0.06836,0.499451 0.06836,0.9375 v 12.759765 c 0,3.522596 -0.02624,6.169525 -0.07813,7.933594 a 0.34694606,0.34694606 0 0 0 0.347656,0.357422 h 2.136719 a 0.34694606,0.34694606 0 0 0 0.347656,-0.359375 c -0.03448,-1.017285 -0.05273,-2.465113 -0.05273,-4.337891 v -7.076172 c 1.1781,1.196127 2.354437,2.679151 3.521485,4.59961 a 0.34694606,0.34694606 0 0 0 0.564453,0.04102 c 0.640731,-0.775622 1.237149,-1.288496 1.761719,-1.550781 a 0.34694606,0.34694606 0 0 0 0.193359,-0.310547 v -0.285156 a 0.34694606,0.34694606 0 0 0 -0.07422,-0.212891 c -1.871406,-2.413589 -3.789038,-4.404678 -5.759765,-5.970703 a 0.34694606,0.34694606 0 0 0 -0.207032,-0.07422 v -6.003906 l 0.171876,-0.345703 -0.01758,0.03125 c 0.08331,-0.130915 0.16664,-0.278507 0.117188,-0.492188 -0.02473,-0.10684 -0.09835,-0.209613 -0.179688,-0.269531 -0.08134,-0.05992 -0.163236,-0.08616 -0.240234,-0.101562 a 0.34694606,0.34694606 0 0 0 -0.05078,-0.0059 l -1.953125,-0.103515 a 0.34694606,0.34694606 0 0 0 -0.01758,-0.002 z m 10.292968,0.519531 a 0.34694606,0.34694606 0 0 0 -0.289062,0.144531 l -0.832031,1.146485 a 0.34694606,0.34694606 0 0 0 0.03516,0.449218 c 0.707605,0.707606 1.331196,1.517267 1.873047,2.431641 a 0.34694606,0.34694606 0 0 0 0.509765,0.09766 l 1.22461,-0.9375 a 0.34694606,0.34694606 0 0 0 0.08203,-0.462891 c -0.659647,-1.03404 -1.454462,-1.961744 -2.380859,-2.78125 a 0.34694606,0.34694606 0 0 0 -0.222657,-0.08789 z m -39.148437,3.90625 a 0.34694606,0.34694606 0 0 0 -0.347656,0.347656 v 2.265625 a 0.34694606,0.34694606 0 0 0 0.347656,0.347656 h 8.167969 v 8.810547 h -8.167969 a 0.34694606,0.34694606 0 0 0 -0.347656,0.347656 v 2.265626 a 0.34694606,0.34694606 0 0 0 0.347656,0.347656 h 8.167969 v 0.955078 a 0.34694606,0.34694606 0 0 0 0.347656,0.347656 h 2.005859 a 0.34694606,0.34694606 0 0 0 0.347656,-0.347656 V 41.861328 a 0.34694606,0.34694606 0 0 0 -0.347656,-0.347656 z m 14.115234,5.339844 A 0.34694606,0.34694606 0 0 0 26.0625,47.201172 v 0.390625 a 0.34694606,0.34694606 0 0 0 0.01758,0.107422 c 0.158193,0.490395 0.242188,1.122823 0.242188,1.896484 a 0.34694606,0.34694606 0 0 0 0.347656,0.347656 h 10.730469 a 0.34694606,0.34694606 0 0 0 0.347656,-0.347656 v -2.394531 a 0.34694606,0.34694606 0 0 0 -0.347656,-0.347656 z" transform="translate(0,-0.54237288)" />
  </g>
</svg>
