<?xml version="1.0" encoding="UTF-8" standalone="no"?>
<svg xmlns="http://www.w3.org/2000/svg" viewBox="0 0 64 64">
  <circle fill="#4fd1d9" cx="32.047497" cy="31.950001" r="30" />
  <g aria-label="รฐ">
    <path fill="#ffffff" d="m 20.003906,8.2363281 a 0.91579952,0.91579952 0 0 0 -0.916015,0.9160157 v 1.4648442 a 0.91579952,0.91579952 0 0 0 0.916015,0.916015 c 1.209112,0 3.174576,0.628818 5.710938,2.001953 1.068783,0.587078 2.120411,1.488066 3.171875,2.375 l -8.439453,3.732422 a 0.91579952,0.91579952 0 0 0 -0.46875,1.203125 l 0.976562,2.246094 a 0.91579952,0.91579952 0 0 0 1.210938,0.472656 L 32.242188,19.09375 c 0.203859,0.243131 0.410627,0.478036 0.607421,0.736328 a 0.91579952,0.91579952 0 0 0 0.01563,0.01953 c 1.424428,1.765052 2.522833,3.583139 3.464844,5.425782 -1.396195,-0.451962 -2.81689,-0.763672 -4.28125,-0.763672 -2.528038,0 -4.975932,0.680312 -7.291016,2.009765 a 0.91579952,0.91579952 0 0 0 -0.0039,0.002 c -2.322187,1.346868 -4.130009,3.311064 -5.373047,5.818359 -2.76e-4,5.52e-4 2.76e-4,0.0014 0,0.002 -4.16e-4,8.41e-4 -0.0015,0.0011 -0.002,0.002 -1.234812,2.471167 -1.853515,5.172299 -1.853515,8.056641 0,2.885861 0.618869,5.595734 1.853515,8.08789 a 0.91579952,0.91579952 0 0 0 0.002,0.0039 c 1.243697,2.487394 3.051357,4.44053 5.373047,5.787109 a 0.91579952,0.91579952 0 0 0 0.0039,0.002 c 2.315085,1.329455 4.762978,2.009766 7.291016,2.009766 2.506419,0 4.932117,-0.680943 7.22461,-2.009766 2.343556,-1.345804 4.165387,-3.299524 5.410156,-5.789062 a 0.91579952,0.91579952 0 0 0 0.002,-0.0039 c 1.234646,-2.492156 1.853515,-5.202029 1.853515,-8.08789 0,-2.150972 -0.166832,-4.353901 -0.498046,-6.607422 -0.31525,-2.315591 -0.98416,-4.847272 -1.998047,-7.603516 v -0.002 c -1.029586,-2.85915 -2.929778,-5.858911 -5.669922,-9.041015 a 0.91579952,0.91579952 0 0 0 -0.002,-0.0039 C 38.21133,16.960803 38.041532,16.786418 37.878906,16.605469 l 8.115235,-3.587891 a 0.91579952,0.91579952 0 0 0 0.46875,-1.203125 L 45.486328,9.5683594 A 0.91579952,0.91579952 0 0 0 44.275391,9.0957031 l -9.81836,4.3496089 C 32.720175,12.09291 30.884425,11.000119 28.925781,10.25 25.474282,8.9225 22.517232,8.2363281 20.003906,8.2363281 Z M 32.048828,28.785156 c 1.285058,0 2.516556,0.431851 3.779297,1.378906 a 0.91579952,0.91579952 0 0 0 0.0039,0.0039 c 1.25196,0.924523 2.221467,2.257075 2.910157,4.080078 a 0.91579952,0.91579952 0 0 0 0.0039,0.0059 c 0.451806,1.170589 0.755837,2.357915 0.919922,3.564453 0.06157,0.725295 0.116148,1.588199 0.158203,2.585938 -2.21e-4,2.221072 -0.363789,4.252883 -1.080078,6.115234 a 0.91579952,0.91579952 0 0 0 -0.002,0.0078 c -0.689385,1.845118 -1.660788,3.186763 -2.910157,4.109375 a 0.91579952,0.91579952 0 0 0 -0.0039,0.0039 c -1.262741,0.947056 -2.494239,1.378906 -3.779297,1.378906 -1.309792,0 -2.565382,-0.434459 -3.849609,-1.382812 -1.22861,-0.922887 -2.20113,-2.26864 -2.91211,-4.117188 -0.694888,-1.862739 -1.046875,-3.895256 -1.046875,-6.117187 0,-2.245891 0.352738,-4.278206 1.046875,-6.117188 l 0.002,-0.0039 c 0.71083,-1.846256 1.682535,-3.191137 2.910157,-4.113281 1.284227,-0.948353 2.539817,-1.382813 3.849609,-1.382813 z" />
  </g>
</svg>
