<svg xmlns="http://www.w3.org/2000/svg" viewBox="0 0 64 64">
  <path fill="#ff5a79" d="m 62.047496,51.95 c 0,5.5 -4.5,10 -10,10 h -40 c -5.4999997,0 -9.9999997,-4.5 -9.9999997,-10 v -40 c 0,-5.5 4.5,-10 9.9999997,-10 h 40 c 5.5,0 10,4.5 10,10 z" />
  <g>
    <path fill="#ffffff" d="M 31.466797,5.5195312 A 0.54242694,0.54242694 0 0 0 30.90625,6.0625 V 9.8945312 H 27.4375 c 0.01083,-0.042454 0.0275,-0.09745 0.03711,-0.1367187 h -0.0059 a 0.54242694,0.54242694 0 0 0 0.0059,-0.00195 c 8.02e-4,-0.00328 0.0012,-0.00846 0.002,-0.011719 a 0.54242694,0.54242694 0 0 0 0.0918,-0.027344 0.54242694,0.54242694 0 0 0 0.002,-0.00195 0.54242694,0.54242694 0 0 0 0.0059,-0.00195 0.54242694,0.54242694 0 0 0 0.0625,-0.044922 C 27.856398,9.5431324 28.082175,9.3528641 28.144531,9.0332031 28.198604,8.7689125 28.103096,8.4833306 27.958984,8.3085938 27.81104,8.1292101 27.632116,8.0093373 27.421875,7.8964844 27.001393,7.6707785 26.433096,7.4797195 25.673828,7.2832031 A 0.54242694,0.54242694 0 0 0 25.001953,7.7148438 C 24.41124,11.107228 23.089924,13.324821 21.066406,14.529297 a 0.54242694,0.54242694 0 0 0 -0.05664,0.894531 l 0.558593,0.435547 h -1.578125 a 0.54242694,0.54242694 0 0 0 -0.542968,0.542969 v 1.74414 a 0.54242694,0.54242694 0 0 0 0.542968,0.542969 h 7.792969 c -0.09366,0.980469 -0.221186,1.929183 -0.494141,2.748047 -1.067508,3.167736 -3.673115,5.428651 -8.011718,6.818359 a 0.54242694,0.54242694 0 0 0 -0.253906,0.859375 l 1.171874,1.431641 a 0.54242694,0.54242694 0 0 0 0.595704,0.169922 c 1.086394,-0.374004 2.097874,-0.819308 3.03125,-1.339844 a 0.54242694,0.54242694 0 0 0 0.002,-0.002 c 4.143518,-2.330729 6.415799,-5.974205 6.804687,-10.685547 h 3.480469 v 8.519531 c 0,0.949771 0.247162,1.758881 0.804687,2.316407 0.55671,0.556709 1.364531,0.803968 2.3125,0.804687 l 3.75,0.02539 a 0.54242694,0.54242694 0 0 0 0.0039,0 c 0.906295,0 1.696853,-0.235956 2.283203,-0.746094 0.586349,-0.510138 0.931849,-1.260611 1.066406,-2.164063 l -0.002,0.002 0.494141,-3.228516 a 0.54242694,0.54242694 0 0 0 -0.226563,-0.527344 l -1.615234,-1.121094 a 0.54242694,0.54242694 0 0 0 -0.845703,0.371094 l -0.570313,4.082032 c -0.03881,0.243149 -0.111348,0.353965 -0.181641,0.416015 -0.07057,0.06229 -0.173635,0.111328 -0.402343,0.111328 L 37.238281,27.5 a 0.54242694,0.54242694 0 0 0 -0.0078,0 c -0.187171,0 -0.230825,-0.03747 -0.242188,-0.04883 -0.01136,-0.01136 -0.04883,-0.05502 -0.04883,-0.242188 v -8.519531 h 7.712891 a 0.54242694,0.54242694 0 0 0 0.542968,-0.542969 v -1.74414 A 0.54242694,0.54242694 0 0 0 44.652344,15.859375 H 33.736328 v -3.160156 h 7.894531 A 0.54242694,0.54242694 0 0 0 42.173828,12.15625 V 10.4375 A 0.54242694,0.54242694 0 0 0 41.630859,9.8945312 H 33.736328 V 7.7558594 c 0.05938,-0.036556 0.13079,-0.055004 0.185547,-0.1015625 0.155302,-0.13205 0.291115,-0.341101 0.322266,-0.5820313 0.03687,-0.2671581 -0.0714,-0.5609581 -0.236329,-0.7363281 C 33.83893,6.1563658 33.639065,6.0467011 33.408203,5.9511719 32.946478,5.7601134 32.333204,5.6326882 31.519531,5.5253906 a 0.54242694,0.54242694 0 0 0 -0.05273,-0.00586 z m -5.138672,7.1796878 h 4.578125 v 3.160156 h -7.058594 c 1.005029,-0.868066 1.853654,-1.902298 2.480469,-3.160156 z" />
  </g>
  <g transform="translate(3.105e-4,-5.559322)" fill="#ffffff">
    <path d="m 22.047496,39.95 h -12 v 3 h 4.5 v 19 h 3 v -19 h 4.5 z" />
    <path d="M 38.046875,43.4 V 40 h -12 v 22 h 12 v -3.4 h -9 v -5.9 h 9 v -3.4 h -9 v -5.9 z" />
    <path d="m 45.046875,39.949219 h -3 v 22 h 12 v -3.400391 h -9 V 56.042969 52.648438 49.25 43.349609 Z" />
  </g>
</svg>
