<svg xmlns="http://www.w3.org/2000/svg" viewBox="0 0 64 64">
  <circle fill="#4fd1d9" cx="32.047497" cy="31.950001" r="30" />
  <path fill="#ffffff" d="m 26.578125,16.347656 c -2.456022,0 -4.839389,0.663782 -7.115234,1.970703 a 0.62853923,0.62853923 0 0 0 -0.002,0.002 c -2.27559,1.319843 -4.041022,3.237174 -5.261719,5.701172 -1.21535,2.431351 -1.824219,5.083228 -1.824219,7.927735 0,2.845151 0.609201,5.510355 1.824219,7.96289 a 0.62853923,0.62853923 0 0 0 0,0.002 c 1.221231,2.442463 2.98781,4.345197 5.261719,5.664063 a 0.62853923,0.62853923 0 0 0 0.002,0.002 c 2.275602,1.306782 4.658863,1.972656 7.115234,1.972656 2.477039,0 4.863262,-0.666199 7.119141,-1.974609 2.014304,-1.157467 3.679638,-3.130548 5.058593,-5.78125 l 0.904297,2.460937 -0.01172,-0.03711 c 0.217991,0.726641 0.59375,1.490404 1.115234,2.306641 a 0.62853923,0.62853923 0 0 0 0.0059,0.0098 c 0.565528,0.848292 1.280615,1.563379 2.128907,2.128907 a 0.62853923,0.62853923 0 0 0 0.0059,0.0039 c 0.859337,0.557408 1.634964,0.882812 2.392578,0.882812 1.255785,0 2.465912,-0.643646 3.601563,-1.779296 a 0.62853923,0.62853923 0 0 0 0.0039,-0.0059 c 1.15899,-1.182643 2.071096,-2.873741 2.785156,-5.060547 a 0.62853923,0.62853923 0 0 0 -0.597656,-0.824219 h -1.171875 a 0.62853923,0.62853923 0 0 0 -0.578125,0.382813 c -0.353339,0.831384 -0.744585,1.536562 -1.166016,2.119141 -0.304275,0.401514 -0.864824,0.654296 -1.90039,0.654296 -0.446892,0 -0.825961,-0.149723 -1.232422,-0.529296 -0.405667,-0.378832 -0.814041,-1.002139 -1.181641,-1.878907 -7.2e-4,-0.0017 -0.0012,-0.0022 -0.002,-0.0039 l -2.582031,-7.46875 5.6875,-15.970703 a 0.62853923,0.62853923 0 0 0 -0.591797,-0.839844 h -5.208985 a 0.62853923,0.62853923 0 0 0 -0.589843,0.41211 l -2.402344,6.566406 c -1.073694,-2.194964 -2.551944,-3.902205 -4.472656,-5.00586 -2.256122,-1.30855 -4.642448,-1.972656 -7.119141,-1.972656 z m 0,3.699219 c 1.375445,0 2.815705,0.468506 4.345703,1.460937 a 0.62853923,0.62853923 0 0 0 0.0039,0.002 c 0.645164,0.412904 1.439502,1.400792 2.244141,2.978515 0.785823,1.540831 1.596492,3.669386 2.416016,6.292969 -0.92014,4.506221 -2.647209,8.329428 -5.19336,11.494141 -1.22378,1.07272 -2.470932,1.578125 -3.816406,1.578125 -1.351662,0 -2.663104,-0.460861 -3.988281,-1.439454 -1.276831,-0.95906 -2.282029,-2.355846 -3.007813,-4.240234 l -0.002,-0.0039 c -2.25e-4,-5.85e-4 2.25e-4,-0.0014 0,-0.002 -0.708213,-1.897731 -1.064453,-3.965642 -1.064453,-6.21875 0,-2.276093 0.356916,-4.344295 1.064453,-6.21875 l 0.002,-0.0039 c 0.725786,-1.885141 1.730287,-3.280657 3.007813,-4.240234 1.325177,-0.978593 2.636619,-1.439453 3.988281,-1.439453 z" transform="translate(0.0010569,-1.9471812e-4)" />
</svg>
