<?xml version="1.0" encoding="UTF-8" standalone="no"?>
<svg xmlns="http://www.w3.org/2000/svg" viewBox="0 0 64 64">
  <path fill="#eda454" d="m 62.047496,51.95 c 0,5.5 -4.5,10 -10,10 h -40 c -5.4999997,0 -9.9999997,-4.5 -9.9999997,-10 v -40 c 0,-5.5 4.5,-10 9.9999997,-10 h 40 c 5.5,0 10,4.5 10,10 z" />
  <g aria-label="ã‚">
    <path d="m 41.318329,13.772918 1.197917,4.322917 q -6.09375,0.9375 -10.208333,1.25 -4.166667,0.260417 -5.572917,0.416667 -0.416666,4.583333 -0.46875,7.604166 3.385417,-0.885417 8.385417,-1.041667 0.677083,-2.5 0.677083,-3.229166 0,-0.260417 -0.05208,-0.364584 0,-0.05208 0,-0.15625 0,-0.677083 0.625,-0.677083 0.104166,0 0.208333,0.05208 l 4.84375,1.09375 q 0.46875,0.15625 0.46875,0.416667 0,0.208333 -0.3125,0.46875 l -0.833333,0.677083 -0.729167,2.239584 q 2.083333,0.46875 5.625,1.822916 3.59375,1.354167 5.78125,4.635417 2.239583,3.28125 2.291666,6.822916 v 0.104167 q 0,3.489583 -2.760416,6.927083 -2.760417,3.489583 -6.458333,5.15625 -3.697917,1.71875 -7.552084,2.447917 -0.625,-2.135417 -2.239583,-4.479167 l 0.05208,-0.572917 q 3.385417,-0.416666 6.614584,-1.510416 3.229166,-1.145833 5.104166,-3.177083 1.822917,-2.03125 2.03125,-4.635417 0.05208,-0.3125 0.05208,-0.625 0,-2.291667 -1.458333,-4.479167 -1.666666,-2.499999 -4.166666,-3.437499 -2.447917,-0.9375 -4.270834,-1.197917 -1.458333,4.0625 -3.333333,7.604166 -1.822916,3.489584 -4.84375,6.875 0.677084,1.354167 1.40625,2.8125 l -0.05208,0.572917 q -1.510417,0.416666 -5,2.239583 l -0.625,-1.71875 q -1.302083,0.885417 -3.697917,1.979167 -1.71875,0.833333 -3.645833,0.833333 -0.729166,0 -1.510416,-0.15625 -2.760417,-0.416667 -4.375,-2.5 -1.614584,-2.03125 -1.666667,-5.572916 0,-0.208334 0,-0.364584 0,-3.385416 1.458333,-6.197916 1.5625,-2.96875 4.010417,-5 2.447917,-2.03125 5.520833,-3.28125 0.05208,-4.947917 0.364583,-8.802083 -4.374999,0.15625 -9.531249,0.260417 v -0.104167 q 0,-2.447917 -0.104167,-4.479167 l 0.208333,-0.104166 q 4.53125,0.260416 8.4375,0.260416 0.677083,0 1.40625,0 0.3125,-3.125 0.3125,-4.583333 0,-0.989583 -0.15625,-1.2499999 -0.05208,-0.2083333 -0.05208,-0.3645833 0,-0.46875 0.416666,-0.46875 0.104167,0 0.15625,0 l 4.791667,0.6770833 q 0.46875,0.15625 0.46875,0.4166669 0,0.15625 -0.208333,0.364583 l -0.677084,0.677083 q -0.260416,2.34375 -0.520833,4.427084 7.916666,-0.572917 14.166666,-1.927084 z m -7.8125,16.458333 q -2.916666,0.05208 -7.187499,1.197917 0.260416,3.28125 0.833333,5.46875 0.572917,2.239583 1.09375,3.854166 1.458333,-1.875 2.760417,-4.53125 1.302083,-2.656249 2.499999,-5.989583 z m -11.458333,2.864584 q -1.041666,0.520833 -2.812499,1.874999 -1.770834,1.354167 -2.8125,3.489584 -1.09375,2.135416 -1.145834,4.479166 0,0.208334 0,0.416667 0,1.979167 0.625,2.916667 0.729167,0.989583 2.395834,0.989583 0.104166,0 0.208333,0 1.875,-0.05208 3.385416,-0.9375 1.458334,-0.885417 2.447917,-1.614583 -1.09375,-3.489584 -1.5625,-6.197917 -0.520833,-2.708333 -0.729167,-5.416666 z" fill="#ffffff" />
  </g>
</svg>
