<svg xmlns="http://www.w3.org/2000/svg" viewBox="0 0 64 64">
  <path d="M 3.5996094 22 C 2.9996094 22 2.5 22.499609 2.5 23.099609 L 2.5 42.900391 C 2.5 43.500391 2.9996094 44 3.5996094 44 L 6.5 43.300781 L 46.5 33 L 6.5 22.699219 L 3.5996094 22 z M 37.5 41 L 28.5 62 L 24.400391 62 L 24.400391 64 L 31.099609 64 L 38.5 46 L 38.5 62 L 35.5 62 L 35.5 64 L 44.5 64 L 44.5 62 L 41.5 62 L 41.5 46 L 49.099609 64 L 55.5 64 L 55.5 62 L 51.5 62 L 42.5 41 L 37.5 41 z " fill="#3e4347" />
  <circle fill="#3e4347" cx="29.5" cy="12" r="12" />
  <circle cx="49.5" cy="12" r="12" fill="#3e4347" />
  <path d="M61.5 42.9c0 .6-.5 1.1-1.1 1.1H18.6c-.6 0-1.1-.5-1.1-1.1V23.1c0-.6.5-1.1 1.1-1.1h41.8c.6 0 1.1.5 1.1 1.1v19.8" fill="#3e4347" />
</svg>
