<svg xmlns="http://www.w3.org/2000/svg" viewBox="0 0 64 64">
  <path fill="#ff5a79" d="m 62.047496,51.95 c 0,5.5 -4.5,10 -10,10 h -40 c -5.4999997,0 -9.9999997,-4.5 -9.9999997,-10 v -40 c 0,-5.5 4.5,-10 9.9999997,-10 h 40 c 5.5,0 10,4.5 10,10 z" />
  <path fill="#ffffff" d="m 39.647496,18.15 c 1.1,0.5 2,1.1 2.7,2 0.6,0.7 1.1,1.5 1.5,2.4 0.4,0.9 0.5,1.9 0.5,3.1 0,1.4 -0.3,2.7 -1,4.1 -0.7,1.4 -1.8,2.3 -3.4,2.8 1.3,0.5 2.3,1.3 2.8,2.3 0.6,1 0.8,2.5 0.8,4.5 v 1.9 c 0,1.3 0.1,2.2 0.2,2.7 0.2,0.7 0.5,1.3 1.1,1.7 v 0.7 h -6.7 c -0.2,-0.6 -0.3,-1.2 -0.4,-1.6 -0.2,-0.8 -0.2,-1.6 -0.3,-2.5 v -2.7 c 0,-1.8 -0.3,-3.1 -1,-3.7 -0.6,-0.6 -1.8,-0.9 -3.5,-0.9 h -5.9 v 11.4 h -5.9 v -29 h 13.9 c 2,0.1 3.6,0.4 4.6,0.8 m -12.5,4.3 v 7.8 h 6.5 c 1.3,0 2.3,-0.2 2.9,-0.5 1.1,-0.6 1.7,-1.6 1.7,-3.3 0,-1.8 -0.6,-2.9 -1.7,-3.5 -0.6,-0.3 -1.6,-0.5 -2.8,-0.5 h -6.6" />
</svg>
