<svg xmlns="http://www.w3.org/2000/svg" viewBox="0 0 64 64">
  <path fill="#ff5a79" d="m 62.047496,51.95 c 0,5.5 -4.5,10 -10,10 h -40 c -5.4999997,0 -9.9999997,-4.5 -9.9999997,-10 v -40 c 0,-5.5 4.5,-10 9.9999997,-10 h 40 c 5.5,0 10,4.5 10,10 z" />
  <path fill="#ffffff" d="m 25.847496,37.55 c 0.2,1.3 0.6,2.3 1.1,3 1,1.2 2.7,1.8 5.2,1.8 1.5,0 2.6,-0.2 3.6,-0.5 1.7,-0.6 2.6,-1.7 2.6,-3.4 0,-1 -0.4,-1.7 -1.3,-2.2 -0.8,-0.5 -2.2,-1 -4,-1.4 l -3.1,-0.7 c -3.1,-0.7 -5.2,-1.4 -6.4,-2.2 -2,-1.3 -2.9,-3.4 -2.9,-6.3 0,-2.6 1,-4.8 2.9,-6.5 1.9,-1.7 4.7,-2.6 8.4,-2.6 3.1,0 5.7,0.8 7.9,2.4 2.2,1.6 3.3,4 3.4,7.1 h -5.8 c -0.1,-1.7 -0.9,-3 -2.3,-3.7 -1,-0.5 -2.2,-0.7 -3.6,-0.7 -1.6,0 -2.9,0.3 -3.8,0.9 -0.9,0.6 -1.4,1.5 -1.4,2.6 0,1 0.5,1.8 1.4,2.3 0.6,0.3 1.9,0.7 3.9,1.2 l 5.1,1.2 c 2.2,0.5 3.9,1.2 5,2.1 1.7,1.4 2.6,3.3 2.6,5.9 0,2.7 -1,4.9 -3.1,6.6 -2,1.8 -4.9,2.6 -8.7,2.6 -3.8,0 -6.8,-0.9 -9,-2.6 -2.4,-1.5 -3.5,-3.9 -3.5,-6.9 h 5.8" />
</svg>
