<?xml version="1.0" encoding="UTF-8" standalone="no"?>
<svg xmlns="http://www.w3.org/2000/svg" viewBox="0 0 64 64">
  <circle cx="32" cy="32" r="30" fill="#4fd1d9" />
  <g aria-label="†" fill="#ffffff">
    <path d="M 30.306641,16.978516 A 0.95888445,0.95888445 0 0 0 29.347656,17.9375 c 0,0.534797 0.09313,1.484031 0.267578,3.097656 a 0.95888445,0.95888445 0 0 0 0.002,0.0098 c 0.137342,1.144522 0.164501,1.831749 0.203124,2.560547 -0.701093,-0.03532 -1.354093,-0.05705 -2.363281,-0.175781 l 0.002,0.002 c -1.464343,-0.174847 -2.349257,-0.267579 -2.880859,-0.267579 a 0.95888445,0.95888445 0 0 0 -0.958984,0.958985 v 3.515625 a 0.95888445,0.95888445 0 0 0 0.958984,0.958984 c 0.534799,0 1.417357,-0.09479 2.880859,-0.269531 l -0.002,0.002 c 0.924356,-0.108747 1.485116,-0.123496 2.142578,-0.162109 l -0.355468,1.53125 a 0.95888445,0.95888445 0 0 0 0.03906,0.564453 c 0.361485,0.929531 0.619141,2.873024 0.619141,5.642578 V 46.0625 a 0.95888445,0.95888445 0 0 0 0.958984,0.958984 h 2.310547 A 0.95888445,0.95888445 0 0 0 34.130859,46.0625 V 35.90625 c 0,-2.77216 0.242998,-4.721718 0.589844,-5.658203 a 0.95888445,0.95888445 0 0 0 0.03711,-0.539063 l -0.339843,-1.542968 c 0.663112,0.03835 1.239192,0.05288 2.154297,0.162109 1.442059,0.174795 2.31481,0.269531 2.849609,0.269531 a 0.95888445,0.95888445 0 0 0 0.958984,-0.958984 v -3.515625 a 0.95888445,0.95888445 0 0 0 -0.958984,-0.958985 c -0.531602,0 -1.416516,0.09273 -2.880859,0.267579 -0.988314,0.118007 -1.632338,0.138292 -2.326172,0.173828 0.0454,-0.762093 0.081,-1.48714 0.203125,-2.601563 0.174572,-1.592971 0.265625,-2.534804 0.265625,-3.066406 a 0.95888445,0.95888445 0 0 0 -0.958985,-0.958984 z" />
  </g>
</svg>
