<svg xmlns="http://www.w3.org/2000/svg" viewBox="0 0 64 64">
  <path fill="#ff5a79" d="m 62.047496,51.95 c 0,5.5 -4.5,10 -10,10 h -40 c -5.4999997,0 -9.9999997,-4.5 -9.9999997,-10 v -40 c 0,-5.5 4.5,-10 9.9999997,-10 h 40 c 5.5,0 10,4.5 10,10 z" />
  <path fill="#fff" d="M23.3 20.4c2.3-2.4 5.3-3.6 8.9-3.6 4.8 0 8.4 1.6 10.6 4.8 1.2 1.8 1.9 3.6 2 5.4h-6.1c-.4-1.4-.9-2.4-1.5-3.1-1.1-1.3-2.7-1.9-4.8-1.9-2.2 0-3.9.9-5.1 2.7-1.2 1.8-1.9 4.3-1.9 7.5 0 3.3.7 5.7 2 7.3 1.3 1.6 3 2.4 5 2.4 2.1 0 3.7-.7 4.8-2.1.6-.7 1.1-1.9 1.5-3.4h6c-.5 3.2-1.8 5.7-4 7.7-2.1 2-4.9 3-8.2 3-4.1 0-7.4-1.3-9.7-4-2.4-2.7-3.5-6.4-3.5-11.1-.1-5 1.3-8.9 4-11.6" />
</svg>
