<?xml version="1.0" encoding="UTF-8" standalone="no"?>
<svg xmlns="http://www.w3.org/2000/svg" viewBox="0 0 64 64">
  <path fill="#ff5a79" d="m 62.047496,51.95 c 0,5.5 -4.5,10 -10,10 h -40 c -5.4999997,0 -9.9999997,-4.5 -9.9999997,-10 v -40 c 0,-5.5 4.5,-10 9.9999997,-10 h 40 c 5.5,0 10,4.5 10,10 z" />
  <g transform="translate(-3.7290874)">
    <path fill="#ffffff" d="m 19.273087,20.4 c 2.3,-2.4 5.3,-3.6 8.9,-3.6 4.8,0 8.4,1.6 10.6,4.8 1.2,1.8 1.9,3.6 2,5.4 h -6.1 c -0.4,-1.4 -0.9,-2.4 -1.5,-3.1 -1.1,-1.3 -2.7,-1.9 -4.8,-1.9 -2.2,0 -3.9,0.9 -5.1,2.7 -1.2,1.8 -1.9,4.3 -1.9,7.5 0,3.3 0.7,5.7 2,7.3 1.3,1.6 3,2.4 5,2.4 2.1,0 3.7,-0.7 4.8,-2.1 0.6,-0.7 1.1,-1.9 1.5,-3.4 h 6 c -0.5,3.2 -1.8,5.7 -4,7.7 -2.1,2 -4.9,3 -8.2,3 -4.1,0 -7.4,-1.3 -9.7,-4 -2.4,-2.7 -3.5,-6.4 -3.5,-11.1 -0.1,-5 1.3,-8.9 4,-11.6" />
    <g transform="matrix(0.50499999,0,0,0.50499999,32.982548,15.79)" fill="#ffffff">
      <path d="M 37,42.4 H 27 L 23,2 h 18 z" />
      <ellipse ry="7.5999999" rx="7.6999998" cy="54.400002" cx="32" />
    </g>
  </g>
</svg>
