<?xml version="1.0" encoding="UTF-8" standalone="no"?>
<svg xmlns="http://www.w3.org/2000/svg" viewBox="0 0 64 64">
  <circle cx="32" cy="32" r="30" fill="#4fd1d9" />
  <g aria-label="††††" fill="#ffffff">
    <path d="m 12.9375,35.124999 v 8.125 h -1.848958 v -8.125 q 0,-3.385417 -0.546875,-4.791667 L 11.0625,28.093749 q -1.015625,0 -2.7864584,0.208333 Q 6.53125,28.510416 6.0625,28.510416 v -2.8125 q 0.46875,0 2.2135416,0.208333 1.7708334,0.208333 2.8125004,0.208333 0,-1.015625 -0.234375,-2.96875 -0.208334,-1.927083 -0.208334,-2.395833 h 2.734375 q 0,0.46875 -0.208333,2.369792 -0.208334,1.901041 -0.234375,2.994791 1.041666,0 2.786458,-0.208333 1.744792,-0.208333 2.213542,-0.208333 v 2.8125 q -0.46875,0 -2.1875,-0.208334 -1.744792,-0.208333 -2.786459,-0.208333 l 0.494792,2.239583 Q 12.9375,31.739582 12.9375,35.124999 Z" />
    <path d="m 26.270833,35.124999 v 8.125 h -1.848958 v -8.125 q 0,-3.385417 -0.546875,-4.791667 l 0.520833,-2.239583 q -1.015625,0 -2.786458,0.208333 -1.744792,0.208334 -2.213542,0.208334 v -2.8125 q 0.46875,0 2.213542,0.208333 1.770833,0.208333 2.8125,0.208333 0,-1.015625 -0.234375,-2.96875 -0.208334,-1.927083 -0.208334,-2.395833 h 2.734375 q 0,0.46875 -0.208333,2.369792 -0.208334,1.901041 -0.234375,2.994791 1.041666,0 2.786458,-0.208333 1.744792,-0.208333 2.213542,-0.208333 v 2.8125 q -0.46875,0 -2.1875,-0.208334 -1.744792,-0.208333 -2.786459,-0.208333 l 0.494792,2.239583 q -0.520833,1.40625 -0.520833,4.791667 z" />
    <path d="m 39.604166,35.124999 v 8.125 h -1.848958 v -8.125 q 0,-3.385417 -0.546875,-4.791667 l 0.520833,-2.239583 q -1.015625,0 -2.786458,0.208333 -1.744792,0.208334 -2.213542,0.208334 v -2.8125 q 0.46875,0 2.213542,0.208333 1.770833,0.208333 2.8125,0.208333 0,-1.015625 -0.234375,-2.96875 -0.208334,-1.927083 -0.208334,-2.395833 h 2.734375 q 0,0.46875 -0.208333,2.369792 -0.208333,1.901041 -0.234375,2.994791 1.041666,0 2.786458,-0.208333 1.744792,-0.208333 2.213542,-0.208333 v 2.8125 q -0.46875,0 -2.1875,-0.208334 -1.744792,-0.208333 -2.786458,-0.208333 l 0.494791,2.239583 q -0.520833,1.40625 -0.520833,4.791667 z" />
    <path d="m 52.9375,35.124999 v 8.125 h -1.848958 v -8.125 q 0,-3.385417 -0.546875,-4.791667 L 51.0625,28.093749 q -1.015625,0 -2.786458,0.208333 -1.744792,0.208334 -2.213542,0.208334 v -2.8125 q 0.46875,0 2.213542,0.208333 1.770833,0.208333 2.8125,0.208333 0,-1.015625 -0.234375,-2.96875 -0.208334,-1.927083 -0.208334,-2.395833 h 2.734375 q 0,0.46875 -0.208333,2.369792 -0.208334,1.901041 -0.234375,2.994791 1.041666,0 2.786458,-0.208333 1.744792,-0.208333 2.213542,-0.208333 v 2.8125 q -0.46875,0 -2.1875,-0.208334 -1.744792,-0.208333 -2.786459,-0.208333 l 0.494792,2.239583 Q 52.9375,31.739582 52.9375,35.124999 Z" />
  </g>
</svg>
