<svg xmlns="http://www.w3.org/2000/svg" viewBox="0 0 64 64">
  <path fill="#ff5a79" d="m 62.047496,51.95 c 0,5.5 -4.5,10 -10,10 h -40 c -5.4999997,0 -9.9999997,-4.5 -9.9999997,-10 v -40 c 0,-5.5 4.5,-10 9.9999997,-10 h 40 c 5.5,0 10,4.5 10,10 z" />
  <path fill="#ffffff" d="m 37.747496,18.05 c 2,0.7 3.7,1.9 4.9,3.7 1,1.4 1.7,3 2.1,4.7 0.4,1.7 0.6,3.3 0.6,4.8 0,3.9 -0.8,7.1 -2.3,9.8 -2.1,3.6 -5.3,5.4 -9.7,5.4 h -12.6 v -29 h 12.5 c 1.8,0 3.3,0.2 4.5,0.6 m -11.1,4.4 v 18.9 h 5.6 c 2.9,0 4.9,-1.4 6,-4.2 0.6,-1.5 0.9,-3.4 0.9,-5.5 0,-3 -0.5,-5.2 -1.4,-6.8 -0.9,-1.6 -2.8,-2.4 -5.5,-2.4 h -5.6" />
</svg>
