<svg xmlns="http://www.w3.org/2000/svg" viewBox="0 0 64 64">
  <path d="m 62.047496,51.95 c 0,5.5 -4.5,10 -10,10 h -40 c -5.4999997,0 -9.9999997,-4.5 -9.9999997,-10 v -40 c 0,-5.5 4.5,-10 9.9999997,-10 h 40 c 5.5,0 10,4.5 10,10 z" fill="#4fd1d9" />
  <g transform="matrix(1.2856426,0,0,1.2856426,-8.9725635,-9.126782)" fill="#ffffff">
    <path d="m 39.44508,38.950781 v -14 h 2.5 l 5.2,9.3 v -9.3 h 2.3 v 14 h -2.6 l -5.1,-9.1 v 9.1 z" />
    <path d="M 32.745047,24.95 V 27.35039 30.45 32.85039 36.651172 38.95 h 2.699219 v -14 z" />
    <path d="m 27.005366,38.95 3.3,-14 h -2.8 l -2.1,9.6 -2.5,-9.6 h -3.3 l -2.4,9.8 -2.1,-9.8 h -2.8 l 3.3,14 h 2.9 l 2.8,-10.5 2.7,10.5 z" />
  </g>
</svg>
