<svg xmlns="http://www.w3.org/2000/svg" viewBox="0 0 64 64">
  <path d="m 62.0468,51.183196 c 0,5.5 -4.5,10 -10,10 h -40 c -5.4999993,0 -9.9999993,-4.5 -9.9999993,-10 v -40 c 0,-5.5000001 4.5,-10.0000001 9.9999993,-10.0000001 h 40 c 5.5,0 10,4.5 10,10.0000001 z" fill="#ff5a79" />
  <path fill="#ffffff" d="m 32.816406,6.8515625 c -0.757067,0 -1.444853,0.2961813 -1.978515,0.8496094 -0.529864,0.5323877 -0.814453,1.2067312 -0.814453,1.9433593 0,0.7538418 0.283955,1.4382518 0.818359,1.9726568 0.534794,0.534792 1.220767,0.818359 1.974609,0.818359 0.736625,0 1.409417,-0.284979 1.941406,-0.814453 0.553032,-0.53328 0.84961,-1.219496 0.84961,-1.9765628 0,-0.7399557 -0.297299,-1.4159411 -0.845703,-1.9472656 C 34.230783,7.1492521 33.556362,6.8515625 32.816406,6.8515625 Z m 0,1.6269531 c 0.317318,0 0.562445,0.1034604 0.8125,0.3535156 0.250055,0.2500552 0.353516,0.4951826 0.353516,0.8125 0,0.3363596 -0.107512,0.5859998 -0.351563,0.8320308 -0.246906,0.231312 -0.494271,0.333985 -0.814453,0.333985 -0.338907,0 -0.593341,-0.106703 -0.835937,-0.332031 -0.225227,-0.242473 -0.330078,-0.4939157 -0.330078,-0.8339848 0,-0.321412 0.10133,-0.5681796 0.332031,-0.8144531 0.245495,-0.2434916 0.49762,-0.3515625 0.833984,-0.3515625 z m 6.275391,2.0195314 c -0.178698,0 -0.413278,0.05024 -0.554688,0.253906 -0.141409,0.203669 -0.111078,0.427083 -0.05859,0.597656 0.04734,0.153854 0.08594,0.467047 0.08594,0.898438 v 15.119141 l -0.197265,0.09766 a 0.3974363,0.3974363 0 0 0 -0.21875,0.355468 v 0.261719 a 0.3974363,0.3974363 0 0 0 0.134765,0.300781 c 0.328231,0.285419 0.703531,0.830255 1.072266,1.634766 a 0.3974363,0.3974363 0 0 0 0.554687,0.181641 c 1.636837,-0.91522 2.96059,-1.86137 3.966797,-2.84961 a 0.3974363,0.3974363 0 0 0 0.002,-0.002 c 0.999121,-0.999121 1.935679,-2.231924 2.816406,-3.693359 l 0.002,-0.0039 c 0.896629,-1.459612 1.848506,-3.284443 2.859375,-5.480469 a 0.3974363,0.3974363 0 0 0 -0.248047,-0.546875 c -0.596293,-0.177276 -1.249682,-0.48989 -1.955078,-0.943359 a 0.3974363,0.3974363 0 0 0 -0.214844,-0.0625 h -0.15625 a 0.3974363,0.3974363 0 0 0 -0.373047,0.259765 c -0.74053,2.032151 -1.505441,3.713626 -2.287109,5.039063 -0.788518,1.319731 -1.489626,2.269428 -2.070313,2.833984 -0.365132,0.354989 -0.620219,0.546637 -0.914062,0.794922 V 11.912109 l 0.205078,-0.347656 -0.04687,0.06445 c 0.11444,-0.127155 0.251131,-0.3015 0.189453,-0.570312 -0.03084,-0.134406 -0.123111,-0.246424 -0.210938,-0.308594 -0.08783,-0.06217 -0.17253,-0.0905 -0.255859,-0.111328 a 0.3974363,0.3974363 0 0 0 -0.07031,-0.01172 l -2.03125,-0.128906 a 0.3974363,0.3974363 0 0 0 -0.02539,0 z m -12.605469,1.546875 c -0.199693,0 -0.338595,0.120511 -0.414062,0.214844 l 0.02344,-0.02734 0.06641,-0.06836 h -9.857421 a 0.3974363,0.3974363 0 0 0 -0.396485,0.396485 v 2.109375 a 0.3974363,0.3974363 0 0 0 0.396485,0.396484 h 8.822265 c -0.05488,1.019646 -0.174282,2.103929 -0.433594,3.324219 -0.289076,1.342676 -0.694937,2.523834 -1.214843,3.546875 a 0.3974363,0.3974363 0 0 0 -0.0039,0.0039 c -0.501491,1.019699 -1.189689,1.994466 -2.068359,2.923828 a 0.3974363,0.3974363 0 0 0 -0.002,0.0039 c -0.817203,0.881297 -2.132052,1.619667 -3.964844,2.179687 a 0.3974363,0.3974363 0 0 0 -0.28125,0.38086 v 0.390624 a 0.3974363,0.3974363 0 0 0 0.08398,0.246094 c 0.477124,0.608746 0.778339,1.193434 0.917968,1.751953 a 0.3974363,0.3974363 0 0 0 0.539063,0.269532 c 2.080117,-0.881406 3.645592,-1.856174 4.691406,-2.957032 a 0.3974363,0.3974363 0 0 0 0.002,-0.002 c 1.014178,-1.085348 1.860725,-2.288298 2.53711,-3.605468 0.675711,-1.31586 1.174685,-2.729345 1.49414,-4.236329 v -0.0039 c 0.316523,-1.416887 0.504048,-2.808891 0.59961,-4.181641 l 0.248046,-0.138671 a 0.3974363,0.3974363 0 0 0 0.02539,-0.01563 c 0.187733,-0.125156 0.362786,-0.323123 0.384766,-0.582032 0.02198,-0.258908 -0.106761,-0.4757 -0.261719,-0.642578 a 0.3974363,0.3974363 0 0 0 -0.01367,-0.01563 C 27.780661,13.09882 27.267565,12.603674 26.867188,12.220703 l 0.03516,0.03906 c -0.07547,-0.09433 -0.216323,-0.214844 -0.416016,-0.214844 z M 14.828125,32.611328 a 0.3974363,0.3974363 0 0 0 -0.306641,0.197266 l -1.121093,1.927734 a 0.3974363,0.3974363 0 0 0 0.208984,0.572266 c 2.374005,0.853958 4.494802,2.038177 6.369141,3.554687 a 0.3974363,0.3974363 0 0 0 0.576172,-0.08203 c 0.617484,-0.891922 1.094636,-1.466559 1.333984,-1.666016 a 0.3974363,0.3974363 0 0 0 0.142578,-0.304687 v -0.259766 a 0.3974363,0.3974363 0 0 0 -0.185547,-0.335937 c -2.084589,-1.313816 -4.357111,-2.505781 -6.822265,-3.572266 a 0.3974363,0.3974363 0 0 0 -0.195313,-0.03125 z m 28.435547,0.871094 c -0.213828,-0.05627 -0.442739,-0.09338 -0.675781,0.05859 -0.116522,0.07599 -0.204229,0.203924 -0.240235,0.324218 -0.03601,0.120295 -0.03477,0.231573 -0.02148,0.337891 a 0.3974363,0.3974363 0 0 0 0.02344,0.09375 c -0.02314,-0.06016 0.02348,0.208861 -0.0059,0.582031 -0.02934,0.373171 -0.09594,0.895896 -0.199219,1.558594 a 0.3974363,0.3974363 0 0 0 0,0.0039 c -0.18829,1.300915 -0.533268,3.029777 -1.035156,5.175782 -0.500557,2.085167 -1.327115,4.571646 -2.453125,7.425781 -0.394007,0.04833 -0.776359,0.08674 -0.849609,0.08008 a 0.3974363,0.3974363 0 0 0 -0.01367,0 c -0.209186,-0.01162 -0.454764,-0.0059 -0.638672,0.228515 -0.09195,0.117205 -0.123665,0.271753 -0.115235,0.390626 0.0084,0.118872 0.04424,0.215046 0.08789,0.308593 l 0.978516,2.453125 a 0.3974363,0.3974363 0 0 0 0.04102,0.07813 c 0.126443,0.183916 0.291466,0.372762 0.582032,0.386719 0.290565,0.01396 0.494836,-0.193217 0.607422,-0.380859 l -0.05859,0.07617 0.34375,-0.34375 c 1.970252,-0.572207 3.534177,-1.018899 4.636718,-1.324218 a 0.3974363,0.3974363 0 0 0 0.002,0 c 1.010558,-0.28422 2.459197,-0.691029 4.144531,-1.16211 0.222436,0.969629 0.432648,1.968116 0.615234,3.033204 a 0.3974363,0.3974363 0 0 0 0.533203,0.304687 c 0.909671,-0.343272 1.660652,-0.582368 2.240235,-0.714844 a 0.3974363,0.3974363 0 0 0 0.298828,-0.292969 l 0.05078,-0.207031 a 0.3974363,0.3974363 0 0 0 0.0039,-0.167969 C 51.795977,49.9489 51.358467,48.312785 50.828125,46.880859 50.300795,45.474644 49.505155,43.651686 48.443359,41.40625 A 0.3974363,0.3974363 0 0 0 47.9375,41.207031 l -1.900391,0.75586 a 0.3974363,0.3974363 0 0 0 -0.21289,0.541015 c 0.83588,1.750618 1.443649,3.290556 1.871093,4.666016 -1.968694,0.459601 -3.528172,0.813045 -4.322265,0.96875 a 0.3974363,0.3974363 0 0 0 -0.0078,0.002 c -0.595756,0.128496 -0.996945,0.207845 -1.433593,0.296875 0.891064,-2.349775 1.596209,-4.454472 2.058593,-6.240234 0.499953,-1.930854 0.971444,-4.288 1.417969,-7.035157 l 0.251953,-0.316406 -0.0293,0.0332 c 0.131836,-0.131835 0.293866,-0.302966 0.230469,-0.599609 -0.0317,-0.148322 -0.137551,-0.266746 -0.232422,-0.328125 -0.09487,-0.06138 -0.182969,-0.08804 -0.273437,-0.107422 a 0.3974363,0.3974363 0 0 0 -0.01563,-0.002 z m -6.419922,1.148437 c -0.134685,0 -0.257162,0.05371 -0.341797,0.117188 a 0.3974363,0.3974363 0 0 0 -0.03125,0.02539 l 0.01953,-0.01953 -12.189453,0.566406 a 0.3974363,0.3974363 0 0 0 -0.378906,0.396485 v 0.365234 a 0.3974363,0.3974363 0 0 0 0.02148,0.132813 c 0.156047,0.436931 0.286233,1.080467 0.371094,1.912109 a 0.3974363,0.3974363 0 0 0 0.4375,0.353516 c 3.259726,-0.360372 6.687566,-0.604616 10.259766,-0.748047 -0.306855,0.880407 -0.663237,1.664585 -1.097657,2.289062 -0.277151,0.3774 -0.558668,0.623263 -0.83789,0.935547 l 0.05273,-0.101562 c 0.04269,-0.05059 0.08891,-0.0962 0.121094,-0.164063 0.04982,-0.105048 0.07993,-0.258167 0.0332,-0.40625 -0.04673,-0.148083 -0.15357,-0.25143 -0.25,-0.310547 -0.09643,-0.05912 -0.190763,-0.08969 -0.291015,-0.113281 a 0.3974363,0.3974363 0 0 0 -0.07227,-0.0098 l -2.082031,-0.103515 0.03711,0.0039 c -0.227992,-0.03257 -0.462629,-0.06477 -0.691406,0.146485 -0.114389,0.105628 -0.173664,0.274776 -0.173828,0.40625 -1.65e-4,0.131473 0.03596,0.237044 0.08008,0.33789 a 0.3974363,0.3974363 0 0 0 0.0078,0.01758 c 0.02555,0.0511 0.08984,0.334233 0.08984,0.759766 -0.03471,2.364267 -0.32785,4.541777 -0.873047,6.535156 -0.536979,1.96333 -1.580935,3.742413 -3.154297,5.34961 a 0.3974363,0.3974363 0 0 0 -0.113281,0.277343 v 0.181641 a 0.3974363,0.3974363 0 0 0 0.201172,0.345703 c 0.657842,0.37109 1.308143,0.811117 1.953125,1.320313 a 0.3974363,0.3974363 0 0 0 0.568359,-0.08008 c 1.667028,-2.298744 2.752512,-4.353975 3.240235,-6.195312 v -0.002 c 0.381163,-1.426089 0.596776,-2.692342 0.785156,-3.931641 0.0023,0.0035 0.0036,0.0062 0.0059,0.0098 a 0.3974363,0.3974363 0 0 0 0.59375,0.08398 c 1.390505,-1.196891 2.473196,-2.355895 3.246094,-3.488281 a 0.3974363,0.3974363 0 0 0 0,-0.002 c 0.722288,-1.066233 1.420342,-2.381192 2.099609,-3.923828 L 38.847656,37.75 a 0.3974363,0.3974363 0 0 0 0.06641,-0.03711 c 0.229393,-0.152928 0.434293,-0.34937 0.466797,-0.652344 0.03251,-0.302974 -0.154225,-0.556585 -0.365234,-0.720703 -0.736782,-0.6843 -1.347216,-1.216888 -1.824219,-1.587891 a 0.3974363,0.3974363 0 0 0 -0.0059,-0.0039 c -0.08463,-0.06347 -0.207112,-0.117188 -0.341797,-0.117188 z M 14.835938,39.486328 A 0.3974363,0.3974363 0 0 0 14.519531,39.6875 l -1.146484,2.03125 a 0.3974363,0.3974363 0 0 0 0.208984,0.568359 c 2.150189,0.784991 4.119208,1.868412 5.910157,3.25 a 0.3974363,0.3974363 0 0 0 0.5625,-0.07813 c 0.635467,-0.858739 1.117141,-1.418256 1.365234,-1.625 A 0.3974363,0.3974363 0 0 0 21.5625,43.529297 v -0.3125 a 0.3974363,0.3974363 0 0 0 -0.191406,-0.339844 c -2.181521,-1.308912 -4.2947,-2.428151 -6.341797,-3.355469 a 0.3974363,0.3974363 0 0 0 -0.193359,-0.03516 z m -1.25,6.667969 a 0.3974363,0.3974363 0 0 0 -0.314454,0.195312 l -1.277343,2.1875 a 0.3974363,0.3974363 0 0 0 0.193359,0.56836 c 3.350581,1.367584 6.223742,3.371261 8.632812,6.019531 a 0.3974363,0.3974363 0 0 0 0.589844,0 c 0.691883,-0.76107 1.268918,-1.374386 1.730469,-1.835938 a 0.3974363,0.3974363 0 0 0 0.115234,-0.28125 v -0.3125 a 0.3974363,0.3974363 0 0 0 -0.132812,-0.296874 c -3.011768,-2.679072 -6.125729,-4.749446 -9.34375,-6.208985 a 0.3974363,0.3974363 0 0 0 -0.193359,-0.03516 z" transform="translate(0,-2)" />
</svg>
