<svg xmlns="http://www.w3.org/2000/svg" viewBox="0 0 64 64">
  <path fill="#b0bdc6" d="M.6 48.7l18.5-19.3L4.9 8.9c-.7.9-1.2 2.1-1.3 3.5L0 45.1c-.1 1.4.1 2.6.6 3.6M62.7 5.5L35.9 30.4 57 58.9c1.2-1 2-2.5 2.2-4.3L64 10c.2-1.8-.4-3.5-1.3-4.5"/>
  <path fill="#cad5dd" d="M25.7 39.4l-6.6-10L.6 48.7c.4.9 1.1 1.5 1.9 1.7L53.3 60c1.4.3 2.7-.2 3.7-1.1L35.9 30.4l-10.2 9"/>
  <path fill="#dfe9ef" d="M59.3 4L7.1 7.5c-.8.1-1.6.6-2.2 1.4l14.3 20.5 6.6 10 10.2-9L62.7 5.5c-.9-1-2.1-1.6-3.4-1.5"/>
  <path fill="#428bc1" d="m 20.687404,21.310698 c 1.802955,-1.886115 3.995923,-2.894654 6.460941,-2.880843 3.302027,0.0185 5.586345,1.416629 6.740318,4.400102 0.619919,1.667868 0.894044,3.354476 0.759984,5.011955 -1.381522,-0.114375 -2.7631,-0.228293 -4.144733,-0.341752 -0.120258,-1.26383 -0.352818,-2.169292 -0.686662,-2.808742 -0.611271,-1.188946 -1.638226,-1.752304 -3.073414,-1.815576 -1.500247,-0.06614 -2.758121,0.649003 -3.75469,2.086046 -0.998919,1.440433 -1.723109,3.446124 -2.041457,6.064194 -0.328282,2.699769 -0.09584,4.73767 0.615577,6.218467 0.710184,1.478223 1.769127,2.382044 3.107385,2.642796 1.408374,0.274414 2.550302,-0.11792 3.440756,-1.218667 0.47802,-0.543391 0.942891,-1.544639 1.374897,-2.834075 1.34682,0.206474 2.693586,0.413392 4.040298,0.620754 -0.696223,2.885221 -1.847059,5.009874 -3.537033,6.490735 -1.627258,1.498901 -3.59056,1.920419 -5.794,1.402148 -2.726252,-0.641242 -4.804745,-2.263659 -6.074015,-4.742877 -1.341567,-2.50331 -1.728936,-5.530244 -1.279999,-9.230115 0.409406,-3.937479 1.733532,-6.937711 3.845847,-9.06455 z"/>
</svg>
