<svg xmlns="http://www.w3.org/2000/svg" viewBox="0 0 64 64">
  <path d="m 62.047496,51.95 c 0,5.5 -4.5,10 -10,10 h -40 c -5.4999997,0 -9.9999997,-4.5 -9.9999997,-10 v -40 c 0,-5.5 4.5,-10 9.9999997,-10 h 40 c 5.5,0 10,4.5 10,10 z" fill="#4fd1d9" />
  <path fill="#ffffff" d="m 6.2100056,16.935141 v 24.979962 h 6.0737424 c 2.508932,0 4.490186,-3.26661 4.490186,-7.205758 0,-2.113689 -0.527681,-3.939148 -1.452025,-5.284223 0.924344,-1.345075 1.452025,-3.170534 1.452025,-5.284223 0,-3.939148 -1.45254,-7.205758 -3.961474,-7.205758 z m 2.3766259,4.036351 h 3.6971165 c 1.122418,0 2.047793,1.441526 2.047793,3.266985 0,1.825459 -0.925377,3.265109 -2.047793,3.265109 H 8.5866315 Z m 0,10.472743 h 3.6971165 c 1.122418,0 2.047793,1.439651 2.047793,3.26511 0,1.729382 -0.925376,3.266985 -2.047793,3.266985 H 8.5866315 Z" />
  <path fill="#ffffff" d="m 19.036155,21.95 v 20 h 3.051078 v -8.333333 h 1.15674 L 25.873859,41.95 h 3.155864 l -2.734672,-8.778212 c 1.893518,-0.888889 3.260648,-3.000434 3.260649,-5.444878 0,-3.222222 -2.3143,-5.77691 -5.259772,-5.77691 z m 3.051078,3.333333 h 2.208695 c 1.262345,0 2.208693,1.110244 2.208693,2.443577 0,1.333333 -1.051545,2.443576 -2.208693,2.443576 h -2.208695 z" />
  <path fill="#ffffff" d="m 45.159366,41.95 -2.96756,-20 h 2.51793 L 46.598183,35.664286 48.846335,21.95 h 2.967561 l 2.158225,14 1.888448,-14 h 2.51793 l -2.96756,20 h -2.607857 l -2.51793,-15 -2.428004,15 z m -13.758689,0 v -20 h 8.812755 v 3.428571 h -6.384751 v 4.428572 h 5.935121 v 3.428571 h -5.935121 v 5.428572 h 6.564603 V 41.95 Z" />
</svg>
