<svg xmlns="http://www.w3.org/2000/svg" viewBox="0 0 64 64">
  <path d="m 62.047496,51.95 c 0,5.5 -4.5,10 -10,10 h -40 c -5.4999997,0 -9.9999997,-4.5 -9.9999997,-10 v -40 c 0,-5.5 4.5,-10 9.9999997,-10 h 40 c 5.5,0 10,4.5 10,10 z" fill="#4fd1d9" />
  <g transform="translate(0,-1.0847458)" fill="#ffffff">
    <path d="m 6.5816908,34.494648 v 0.637147 c 0,2.002457 0.139791,3.458789 0.3261783,4.277976 0.1863878,0.819188 0.6057593,1.274291 1.2581149,1.274291 0.605759,0 1.02513,-0.455103 1.258115,-1.365311 0.13979,-0.546125 0.186387,-1.456333 0.186387,-2.730625 V 18.019887 h 2.842407 v 18.386199 c 0,2.275518 -0.186388,4.004914 -0.605759,5.370226 -0.652356,2.184498 -1.863874,3.367769 -3.54136,3.367769 -1.6774864,0 -2.8890056,-0.910208 -3.4481682,-2.730623 C 4.251847,40.593042 3.972266,38.135481 3.972266,35.040774 v -0.637146 h 2.6094248 z" />
    <g transform="matrix(1,0,0,0.68965517,0,11.000263)" >
      <path d="m 33.316397,17.45 h 2.9356 l -4.613086,29 h -2.656019 l -4.56649,-29 h 3.028794 l 2.935601,22 2.9356,-22" />
      <path d="m 48.022012,17.45 h 2.982198 l 5.358635,20.2 v -20.2 h 2.609423 v 29 h -2.842407 l -5.451829,-20.6 v 20.6 h -2.609423 l -0.0466,-29" />
      <path d="m 39.287626,17.45 h 3.215181 l 4.799474,29 H 44.22689 l -0.88534,-6 h -4.985861 l -0.931936,6 h -2.935601 l 4.799474,-29 m -0.186387,18 h 3.448165 l -1.677486,-11.4 -1.770679,11.4" />
      <path d="m 18.327063,17.45 h 3.215181 l 4.799475,29 h -3.075391 l -0.885341,-6 h -4.985861 l -0.931937,6 h -2.9356 l 4.799474,-29 m -0.186388,18 h 3.448166 l -1.677486,-11.4 -1.77068,11.4" />
    </g>
  </g>
</svg>
