<svg xmlns="http://www.w3.org/2000/svg" viewBox="0 0 64 64">
  <path fill="#ff5a79" d="m 62.047496,51.95 c 0,5.5 -4.5,10 -10,10 h -40 c -5.4999997,0 -9.9999997,-4.5 -9.9999997,-10 v -40 c 0,-5.5 4.5,-10 9.9999997,-10 h 40 c 5.5,0 10,4.5 10,10 z"/>
  <path fill="#ffffff" d="m 39.447496,26.45 c -0.5,-2 -1.6,-3.4 -3.4,-4.2 -1,-0.4 -2.1,-0.6 -3.3,-0.6 -2.3,0 -4.3,0.9 -5.8,2.6 -1.5,1.8 -2.3,4.4 -2.3,7.9 0,3.6 0.8,6.1 2.4,7.6 1.6,1.5 3.5,2.2 5.6,2.2 2,0 3.7,-0.6 5,-1.8 1.3,-1.2 2.1,-2.7 2.4,-4.6 h -6.7 v -4.8 h 12.1 v 15.6 h -4 l -0.6,-3.6 c -1.2,1.4 -2.2,2.3 -3.2,2.9 -1.6,1 -3.6,1.5 -5.9,1.5 -3.8,0 -7,-1.3 -9.4,-4 -2.6,-2.7 -3.8,-6.3 -3.8,-11 0,-4.7 1.3,-8.5 3.9,-11.3 2.6,-2.8 6,-4.2 10.3,-4.2 3.7,0 6.7,0.9 8.9,2.8 2.2,1.9 3.5,4.2 3.8,7 h -6" />
</svg>
